M48
; DRILL file {KiCad 8.0.4} date 2024-08-15T07:01:57-0700
; FORMAT={-:-/ absolute / metric / decimal}
; #@! TF.CreationDate,2024-08-15T07:01:57-07:00
; #@! TF.GenerationSoftware,Kicad,Pcbnew,8.0.4
; #@! TF.FileFunction,Plated,1,4,PTH
FMAT,2
METRIC
; #@! TA.AperFunction,Plated,PTH,ViaDrill
T1C0.200
; #@! TA.AperFunction,Plated,PTH,ViaDrill
T2C0.400
; #@! TA.AperFunction,Plated,PTH,ComponentDrill
T3C0.550
; #@! TA.AperFunction,Plated,PTH,ComponentDrill
T4C0.800
; #@! TA.AperFunction,Plated,PTH,ComponentDrill
T5C0.900
; #@! TA.AperFunction,Plated,PTH,ComponentDrill
T6C0.965
; #@! TA.AperFunction,Plated,PTH,ComponentDrill
T7C1.000
; #@! TA.AperFunction,Plated,PTH,ComponentDrill
T8C1.020
; #@! TA.AperFunction,Plated,PTH,ComponentDrill
T9C1.100
%
G90
G05
T1
X137.16Y-86.36
X142.24Y-91.44
X142.24Y-102.87
X143.51Y-74.93
X143.51Y-93.98
X143.51Y-104.14
X148.59Y-86.36
X151.13Y-95.123
X152.4Y-87.63
X152.4Y-96.266
X157.48Y-61.595
X157.48Y-72.39
X157.48Y-91.44
X157.48Y-95.504
X157.48Y-99.06
X157.48Y-102.108
X158.75Y-62.865
X158.75Y-74.93
X159.131Y-85.09
X160.02Y-86.36
X160.02Y-92.71
X160.02Y-101.092
X160.02Y-109.0
X160.909Y-81.28
X160.909Y-89.535
X161.417Y-93.98
X161.925Y-78.74
X161.925Y-88.646
X162.56Y-106.68
X163.83Y-90.551
X163.83Y-99.06
X165.608Y-81.153
X165.608Y-82.296
X165.608Y-105.41
X166.116Y-68.008
X166.37Y-66.04
X166.878Y-78.232
X166.878Y-102.87
X168.91Y-60.071
X168.91Y-65.151
X168.91Y-76.835
X168.91Y-83.82
X168.91Y-91.44
X168.91Y-102.108
X169.545Y-60.071
X170.18Y-64.135
X170.18Y-81.153
X170.815Y-52.07
X170.815Y-60.071
X171.45Y-61.595
X171.45Y-85.09
X172.085Y-62.865
X173.609Y-102.489
X173.99Y-60.198
X173.99Y-90.424
X173.99Y-97.79
X175.26Y-63.5
X175.26Y-66.04
X175.514Y-62.484
X177.927Y-108.458
X178.308Y-64.77
X178.689Y-107.95
X178.816Y-86.36
X181.102Y-106.68
X181.102Y-108.077
X181.737Y-83.82
X181.864Y-107.442
X182.372Y-71.501
X182.626Y-106.68
X182.626Y-108.077
X185.42Y-110.363
X186.69Y-83.82
X186.69Y-90.424
X186.944Y-106.172
X186.944Y-108.458
X187.96Y-95.758
X188.087Y-109.474
X188.468Y-92.71
X188.468Y-102.616
X190.5Y-92.71
X190.5Y-107.95
X195.58Y-100.33
T2
X119.38Y-116.84
X121.92Y-55.88
X121.92Y-57.15
X121.92Y-66.014
X121.92Y-113.03
X129.54Y-76.2
X133.35Y-70.612
X133.35Y-77.343
X135.128Y-54.864
X135.128Y-68.58
X135.89Y-86.08
X137.16Y-70.612
X137.16Y-77.47
X152.4Y-51.816
X157.48Y-110.49
X163.83Y-57.15
X165.1Y-107.95
X167.64Y-112.268
X174.498Y-105.41
X180.848Y-104.14
X182.499Y-104.14
X182.88Y-118.618
X184.277Y-104.14
X185.42Y-92.456
X185.42Y-115.57
X189.611Y-119.253
X191.795Y-109.499
X192.151Y-55.88
X192.786Y-75.184
X192.786Y-77.216
X195.58Y-107.95
T3
X168.91Y-105.41
X168.91Y-106.68
X168.91Y-107.95
X168.91Y-114.935
X168.91Y-116.205
X168.91Y-117.475
X175.26Y-73.66
X175.26Y-74.93
X175.26Y-76.2
X175.26Y-83.82
X175.26Y-85.09
X175.26Y-86.36
T4
X146.05Y-55.34
X148.502Y-67.58
X148.502Y-69.58
X148.59Y-55.34
X150.502Y-67.58
X150.502Y-69.58
X152.502Y-67.58
X152.502Y-69.58
T5
X175.26Y-115.57
X177.8Y-115.57
T6
X180.213Y-92.456
X180.213Y-98.247
T7
X106.68Y-60.96
X106.68Y-63.5
X106.68Y-66.04
X106.68Y-68.58
X106.68Y-71.12
X106.68Y-73.66
X106.68Y-76.2
X106.68Y-78.74
X106.68Y-81.28
X106.68Y-83.82
X106.68Y-86.36
X106.68Y-88.9
X106.68Y-91.44
X106.68Y-93.98
X106.68Y-96.52
X106.68Y-99.06
X106.68Y-101.6
X106.68Y-104.14
X106.68Y-106.68
X106.68Y-109.22
X184.15Y-60.96
X184.15Y-66.04
X184.15Y-74.93
X184.15Y-80.01
X198.12Y-60.96
X198.12Y-63.5
X198.12Y-66.04
X198.12Y-68.58
X198.12Y-71.12
X198.12Y-73.66
X198.12Y-76.2
X198.12Y-78.74
X198.12Y-81.28
X198.12Y-83.82
X198.12Y-86.36
X198.12Y-88.9
X198.12Y-91.44
X198.12Y-93.98
X198.12Y-96.52
X198.12Y-99.06
X198.12Y-101.6
X198.12Y-104.14
X198.12Y-106.68
X198.12Y-109.22
T8
X111.76Y-55.245
X114.3Y-55.245
X116.84Y-55.245
X119.38Y-55.245
X182.88Y-55.88
X185.42Y-55.88
T9
X139.7Y-54.61
X139.7Y-57.15
X139.7Y-59.69
X139.7Y-62.23
X139.7Y-64.77
X139.7Y-67.31
X139.7Y-69.85
X139.7Y-72.39
X139.7Y-74.93
X139.7Y-77.47
X139.7Y-80.01
X139.7Y-82.55
X139.7Y-85.09
X139.7Y-87.63
X139.7Y-90.17
X139.7Y-92.71
X139.7Y-95.25
X139.7Y-97.79
X139.7Y-100.33
X139.7Y-102.87
X139.7Y-105.41
X139.7Y-107.95
X139.7Y-110.49
X139.7Y-113.03
X142.24Y-100.33
X142.751Y-60.909
X142.751Y-63.449
X142.751Y-65.989
X142.751Y-68.529
X142.751Y-71.069
X144.78Y-100.33
X147.32Y-100.33
X149.86Y-100.33
X152.4Y-57.15
X152.4Y-100.33
X154.94Y-54.61
X154.94Y-57.15
X154.94Y-59.69
X154.94Y-62.23
X154.94Y-64.77
X154.94Y-67.31
X154.94Y-69.85
X154.94Y-72.39
X154.94Y-74.93
X154.94Y-77.47
X154.94Y-80.01
X154.94Y-82.55
X154.94Y-85.09
X154.94Y-87.63
X154.94Y-90.17
X154.94Y-92.71
X154.94Y-95.25
X154.94Y-97.79
X154.94Y-100.33
X154.94Y-102.87
X154.94Y-105.41
X154.94Y-107.95
X154.94Y-110.49
X154.94Y-113.03
M30
