G04 #@! TF.GenerationSoftware,KiCad,Pcbnew,8.0.4*
G04 #@! TF.CreationDate,2024-08-15T07:01:28-07:00*
G04 #@! TF.ProjectId,PocketFT8Xcvr,506f636b-6574-4465-9438-586376722e6b,rev?*
G04 #@! TF.SameCoordinates,Original*
G04 #@! TF.FileFunction,Copper,L1,Top*
G04 #@! TF.FilePolarity,Positive*
%FSLAX46Y46*%
G04 Gerber Fmt 4.6, Leading zero omitted, Abs format (unit mm)*
G04 Created by KiCad (PCBNEW 8.0.4) date 2024-08-15 07:01:28*
%MOMM*%
%LPD*%
G01*
G04 APERTURE LIST*
G04 Aperture macros list*
%AMRoundRect*
0 Rectangle with rounded corners*
0 $1 Rounding radius*
0 $2 $3 $4 $5 $6 $7 $8 $9 X,Y pos of 4 corners*
0 Add a 4 corners polygon primitive as box body*
4,1,4,$2,$3,$4,$5,$6,$7,$8,$9,$2,$3,0*
0 Add four circle primitives for the rounded corners*
1,1,$1+$1,$2,$3*
1,1,$1+$1,$4,$5*
1,1,$1+$1,$6,$7*
1,1,$1+$1,$8,$9*
0 Add four rect primitives between the rounded corners*
20,1,$1+$1,$2,$3,$4,$5,0*
20,1,$1+$1,$4,$5,$6,$7,0*
20,1,$1+$1,$6,$7,$8,$9,0*
20,1,$1+$1,$8,$9,$2,$3,0*%
%AMFreePoly0*
4,1,9,5.362500,-0.866500,1.237500,-0.866500,1.237500,-0.450000,-1.237500,-0.450000,-1.237500,0.450000,1.237500,0.450000,1.237500,0.866500,5.362500,0.866500,5.362500,-0.866500,5.362500,-0.866500,$1*%
G04 Aperture macros list end*
G04 #@! TA.AperFunction,SMDPad,CuDef*
%ADD10RoundRect,0.225000X0.250000X-0.225000X0.250000X0.225000X-0.250000X0.225000X-0.250000X-0.225000X0*%
G04 #@! TD*
G04 #@! TA.AperFunction,ComponentPad*
%ADD11R,1.600000X1.600000*%
G04 #@! TD*
G04 #@! TA.AperFunction,ComponentPad*
%ADD12C,1.600000*%
G04 #@! TD*
G04 #@! TA.AperFunction,ComponentPad*
%ADD13R,1.300000X1.300000*%
G04 #@! TD*
G04 #@! TA.AperFunction,ComponentPad*
%ADD14C,1.300000*%
G04 #@! TD*
G04 #@! TA.AperFunction,SMDPad,CuDef*
%ADD15RoundRect,0.200000X-0.275000X0.200000X-0.275000X-0.200000X0.275000X-0.200000X0.275000X0.200000X0*%
G04 #@! TD*
G04 #@! TA.AperFunction,SMDPad,CuDef*
%ADD16R,1.300000X1.100000*%
G04 #@! TD*
G04 #@! TA.AperFunction,SMDPad,CuDef*
%ADD17RoundRect,0.250000X0.475000X-0.250000X0.475000X0.250000X-0.475000X0.250000X-0.475000X-0.250000X0*%
G04 #@! TD*
G04 #@! TA.AperFunction,SMDPad,CuDef*
%ADD18R,4.318000X3.302000*%
G04 #@! TD*
G04 #@! TA.AperFunction,ComponentPad*
%ADD19C,2.020000*%
G04 #@! TD*
G04 #@! TA.AperFunction,ComponentPad*
%ADD20C,2.000000*%
G04 #@! TD*
G04 #@! TA.AperFunction,SMDPad,CuDef*
%ADD21RoundRect,0.200000X0.275000X-0.200000X0.275000X0.200000X-0.275000X0.200000X-0.275000X-0.200000X0*%
G04 #@! TD*
G04 #@! TA.AperFunction,SMDPad,CuDef*
%ADD22RoundRect,0.250000X-0.475000X0.250000X-0.475000X-0.250000X0.475000X-0.250000X0.475000X0.250000X0*%
G04 #@! TD*
G04 #@! TA.AperFunction,ComponentPad*
%ADD23R,1.500000X1.000000*%
G04 #@! TD*
G04 #@! TA.AperFunction,ComponentPad*
%ADD24O,1.500000X1.000000*%
G04 #@! TD*
G04 #@! TA.AperFunction,ComponentPad*
%ADD25R,1.473200X1.473200*%
G04 #@! TD*
G04 #@! TA.AperFunction,ComponentPad*
%ADD26C,1.473200*%
G04 #@! TD*
G04 #@! TA.AperFunction,ComponentPad*
%ADD27R,1.700000X1.700000*%
G04 #@! TD*
G04 #@! TA.AperFunction,ComponentPad*
%ADD28O,1.700000X1.700000*%
G04 #@! TD*
G04 #@! TA.AperFunction,SMDPad,CuDef*
%ADD29RoundRect,0.225000X-0.250000X0.225000X-0.250000X-0.225000X0.250000X-0.225000X0.250000X0.225000X0*%
G04 #@! TD*
G04 #@! TA.AperFunction,SMDPad,CuDef*
%ADD30RoundRect,0.150000X-0.825000X-0.150000X0.825000X-0.150000X0.825000X0.150000X-0.825000X0.150000X0*%
G04 #@! TD*
G04 #@! TA.AperFunction,ComponentPad*
%ADD31R,1.800000X1.800000*%
G04 #@! TD*
G04 #@! TA.AperFunction,ComponentPad*
%ADD32C,1.800000*%
G04 #@! TD*
G04 #@! TA.AperFunction,SMDPad,CuDef*
%ADD33R,0.762000X0.254000*%
G04 #@! TD*
G04 #@! TA.AperFunction,SMDPad,CuDef*
%ADD34R,0.254000X0.762000*%
G04 #@! TD*
G04 #@! TA.AperFunction,SMDPad,CuDef*
%ADD35R,2.743200X2.743200*%
G04 #@! TD*
G04 #@! TA.AperFunction,SMDPad,CuDef*
%ADD36RoundRect,0.225000X0.925000X0.225000X-0.925000X0.225000X-0.925000X-0.225000X0.925000X-0.225000X0*%
G04 #@! TD*
G04 #@! TA.AperFunction,SMDPad,CuDef*
%ADD37FreePoly0,180.000000*%
G04 #@! TD*
G04 #@! TA.AperFunction,SMDPad,CuDef*
%ADD38R,0.400000X1.200000*%
G04 #@! TD*
G04 #@! TA.AperFunction,ViaPad*
%ADD39C,0.800000*%
G04 #@! TD*
G04 #@! TA.AperFunction,ViaPad*
%ADD40C,0.500000*%
G04 #@! TD*
G04 #@! TA.AperFunction,ViaPad*
%ADD41C,1.000000*%
G04 #@! TD*
G04 #@! TA.AperFunction,Conductor*
%ADD42C,0.300000*%
G04 #@! TD*
G04 #@! TA.AperFunction,Conductor*
%ADD43C,0.200000*%
G04 #@! TD*
G04 #@! TA.AperFunction,Conductor*
%ADD44C,0.500000*%
G04 #@! TD*
G04 #@! TA.AperFunction,Conductor*
%ADD45C,0.800000*%
G04 #@! TD*
G04 #@! TA.AperFunction,Conductor*
%ADD46C,2.000000*%
G04 #@! TD*
G04 #@! TA.AperFunction,Conductor*
%ADD47C,0.900000*%
G04 #@! TD*
G04 #@! TA.AperFunction,Conductor*
%ADD48C,0.250000*%
G04 #@! TD*
G04 #@! TA.AperFunction,Conductor*
%ADD49C,1.000000*%
G04 #@! TD*
G04 APERTURE END LIST*
D10*
X177038000Y-63272000D03*
X177038000Y-61722000D03*
D11*
X139700000Y-54610000D03*
D12*
X139700000Y-57150000D03*
X139700000Y-59690000D03*
X139700000Y-62230000D03*
X139700000Y-64770000D03*
X139700000Y-67310000D03*
X139700000Y-69850000D03*
X139700000Y-72390000D03*
X139700000Y-74930000D03*
X139700000Y-77470000D03*
X139700000Y-80010000D03*
X139700000Y-82550000D03*
X139700000Y-85090000D03*
X139700000Y-87630000D03*
X139700000Y-90170000D03*
X139700000Y-92710000D03*
X139700000Y-95250000D03*
X139700000Y-97790000D03*
X139700000Y-100330000D03*
X139700000Y-102870000D03*
X139700000Y-105410000D03*
X139700000Y-107950000D03*
X139700000Y-110490000D03*
X139700000Y-113030000D03*
X154940000Y-113030000D03*
X154940000Y-110490000D03*
X154940000Y-107950000D03*
X154940000Y-105410000D03*
X154940000Y-102870000D03*
X154940000Y-100330000D03*
X154940000Y-97790000D03*
X154940000Y-95250000D03*
X154940000Y-92710000D03*
X154940000Y-90170000D03*
X154940000Y-87630000D03*
X154940000Y-85090000D03*
X154940000Y-82550000D03*
X154940000Y-80010000D03*
X154940000Y-77470000D03*
X154940000Y-74930000D03*
X154940000Y-72390000D03*
X154940000Y-69850000D03*
X154940000Y-67310000D03*
X154940000Y-64770000D03*
X154940000Y-62230000D03*
X154940000Y-59690000D03*
X154940000Y-57150000D03*
X154940000Y-54610000D03*
X152400000Y-57150000D03*
X142240000Y-100330000D03*
X144780000Y-100330000D03*
X147320000Y-100330000D03*
X149860000Y-100330000D03*
X152400000Y-100330000D03*
D11*
X142750800Y-60909200D03*
D12*
X142750800Y-63449200D03*
X142750800Y-65989200D03*
X142750800Y-68529200D03*
X142750800Y-71069200D03*
D13*
X152501600Y-67580000D03*
D14*
X150501600Y-67580000D03*
X148501600Y-67580000D03*
X148501600Y-69580000D03*
X150501600Y-69580000D03*
X152501600Y-69580000D03*
X148590000Y-55340000D03*
X146050000Y-55340000D03*
D15*
X163830000Y-93980000D03*
X163830000Y-95630000D03*
D16*
X187311000Y-117470000D03*
X189611000Y-117470000D03*
X189611000Y-115570000D03*
X187311000Y-115570000D03*
D17*
X168910000Y-75560000D03*
X168910000Y-73660000D03*
D18*
X121920000Y-108585000D03*
X121920000Y-79375000D03*
D19*
X182880000Y-55880000D03*
X185420000Y-55880000D03*
D20*
X184150000Y-66040000D03*
X184150000Y-60960000D03*
D21*
X160020000Y-105790000D03*
X160020000Y-104140000D03*
D22*
X168910000Y-85852000D03*
X168910000Y-87752000D03*
D10*
X184150000Y-86005000D03*
X184150000Y-84455000D03*
D23*
X168910000Y-117475000D03*
D24*
X168910000Y-116205000D03*
X168910000Y-114935000D03*
D10*
X173990000Y-63272000D03*
X173990000Y-61722000D03*
D25*
X180213000Y-98247200D03*
D26*
X180213000Y-92456000D03*
D20*
X184150000Y-80010000D03*
X184150000Y-74930000D03*
D22*
X163830000Y-73660000D03*
X163830000Y-75560000D03*
D27*
X198120000Y-60960000D03*
D28*
X198120000Y-63500000D03*
X198120000Y-66040000D03*
X198120000Y-68580000D03*
X198120000Y-71120000D03*
X198120000Y-73660000D03*
X198120000Y-76200000D03*
X198120000Y-78740000D03*
X198120000Y-81280000D03*
X198120000Y-83820000D03*
X198120000Y-86360000D03*
X198120000Y-88900000D03*
X198120000Y-91440000D03*
X198120000Y-93980000D03*
X198120000Y-96520000D03*
X198120000Y-99060000D03*
X198120000Y-101600000D03*
X198120000Y-104140000D03*
X198120000Y-106680000D03*
X198120000Y-109220000D03*
D29*
X121920000Y-62484000D03*
X121920000Y-64034000D03*
D10*
X193040000Y-103150000D03*
X193040000Y-101600000D03*
D30*
X124460000Y-54610000D03*
X124460000Y-55880000D03*
X124460000Y-57150000D03*
X124460000Y-58420000D03*
X129410000Y-58420000D03*
X129410000Y-57150000D03*
X129410000Y-55880000D03*
X129410000Y-54610000D03*
D10*
X189230000Y-109500000D03*
X189230000Y-107950000D03*
D17*
X192786000Y-66040000D03*
X192786000Y-64140000D03*
D10*
X193040000Y-109500000D03*
X193040000Y-107950000D03*
X175260000Y-68860000D03*
X175260000Y-67310000D03*
D21*
X160020000Y-112140000D03*
X160020000Y-110490000D03*
X180340000Y-71500000D03*
X180340000Y-69850000D03*
D23*
X168910000Y-107950000D03*
D24*
X168910000Y-106680000D03*
X168910000Y-105410000D03*
D21*
X168910000Y-95630000D03*
X168910000Y-93980000D03*
D22*
X192786000Y-71760000D03*
X192786000Y-73660000D03*
D23*
X175260000Y-76200000D03*
D24*
X175260000Y-74930000D03*
X175260000Y-73660000D03*
D17*
X192786000Y-59558000D03*
X192786000Y-57658000D03*
D29*
X186944000Y-102616000D03*
X186944000Y-104166000D03*
D31*
X177800000Y-115570000D03*
D32*
X175260000Y-115570000D03*
D15*
X174435000Y-107950000D03*
X174435000Y-109600000D03*
D33*
X179967128Y-106459528D03*
X179967128Y-106957114D03*
X179967128Y-107454700D03*
X179967128Y-107952286D03*
X179967128Y-108449872D03*
D34*
X180889656Y-109372400D03*
X181387242Y-109372400D03*
X181884828Y-109372400D03*
X182382414Y-109372400D03*
X182880000Y-109372400D03*
D33*
X183802528Y-108449872D03*
X183802528Y-107952286D03*
X183802528Y-107454700D03*
X183802528Y-106957114D03*
X183802528Y-106459528D03*
D34*
X182880000Y-105537000D03*
X182382414Y-105537000D03*
X181884828Y-105537000D03*
X181387242Y-105537000D03*
X180889656Y-105537000D03*
D35*
X181884828Y-107454700D03*
D21*
X163830000Y-80898000D03*
X163830000Y-79248000D03*
D10*
X135890000Y-90170000D03*
X135890000Y-88620000D03*
X163830000Y-59970000D03*
X163830000Y-58420000D03*
D15*
X162560000Y-114555000D03*
X162560000Y-116205000D03*
D10*
X163830000Y-55144000D03*
X163830000Y-53594000D03*
D23*
X175260000Y-86360000D03*
D24*
X175260000Y-85090000D03*
X175260000Y-83820000D03*
D21*
X163830000Y-87375000D03*
X163830000Y-85725000D03*
D36*
X192950000Y-94186000D03*
D37*
X192862500Y-92686000D03*
D36*
X192950000Y-91186000D03*
D29*
X186944000Y-96774000D03*
X186944000Y-98324000D03*
D38*
X175895000Y-53280000D03*
X175260000Y-53280000D03*
X174625000Y-53280000D03*
X173990000Y-53280000D03*
X173355000Y-53280000D03*
X172720000Y-53280000D03*
X172085000Y-53280000D03*
X171450000Y-53280000D03*
X170815000Y-53280000D03*
X170180000Y-53280000D03*
X169545000Y-53280000D03*
X168910000Y-53280000D03*
X168910000Y-58480000D03*
X169545000Y-58480000D03*
X170180000Y-58480000D03*
X170815000Y-58480000D03*
X171450000Y-58480000D03*
X172085000Y-58480000D03*
X172720000Y-58480000D03*
X173355000Y-58480000D03*
X173990000Y-58480000D03*
X174625000Y-58480000D03*
X175260000Y-58480000D03*
X175895000Y-58480000D03*
D19*
X111760000Y-55245000D03*
X114300000Y-55245000D03*
X116840000Y-55245000D03*
X119380000Y-55245000D03*
D10*
X165087000Y-112268000D03*
X165087000Y-110718000D03*
D21*
X168910000Y-81152000D03*
X168910000Y-79502000D03*
D22*
X168910000Y-68521000D03*
X168910000Y-70421000D03*
D10*
X182880000Y-117120000D03*
X182880000Y-115570000D03*
D15*
X163830000Y-68326000D03*
X163830000Y-69976000D03*
D27*
X106680000Y-60960000D03*
D28*
X106680000Y-63500000D03*
X106680000Y-66040000D03*
X106680000Y-68580000D03*
X106680000Y-71120000D03*
X106680000Y-73660000D03*
X106680000Y-76200000D03*
X106680000Y-78740000D03*
X106680000Y-81280000D03*
X106680000Y-83820000D03*
X106680000Y-86360000D03*
X106680000Y-88900000D03*
X106680000Y-91440000D03*
X106680000Y-93980000D03*
X106680000Y-96520000D03*
X106680000Y-99060000D03*
X106680000Y-101600000D03*
X106680000Y-104140000D03*
X106680000Y-106680000D03*
X106680000Y-109220000D03*
D17*
X192913000Y-80640000D03*
X192913000Y-78740000D03*
D10*
X192913000Y-87021000D03*
X192913000Y-85471000D03*
D39*
X129540000Y-76200000D03*
D40*
X188468000Y-102616000D03*
X163830000Y-90551000D03*
X168910000Y-83820000D03*
D39*
X121920000Y-66014000D03*
X135890000Y-86080000D03*
X167640000Y-112268000D03*
D40*
X181102000Y-106680000D03*
X182372000Y-71501000D03*
X190500000Y-92710000D03*
X182626000Y-108077000D03*
X166116000Y-68008000D03*
X175260000Y-63500000D03*
X188468000Y-92710000D03*
D39*
X163830000Y-57150000D03*
X121920000Y-55880000D03*
D40*
X181864000Y-107442000D03*
X168910000Y-60071000D03*
X170815000Y-52070000D03*
X168910000Y-76835000D03*
D39*
X192151000Y-55880000D03*
D40*
X181102000Y-108077000D03*
X182626000Y-106680000D03*
D39*
X189611000Y-119253000D03*
X192786000Y-75184000D03*
D40*
X170815000Y-60071000D03*
D39*
X192786000Y-77216000D03*
X121920000Y-113030000D03*
D40*
X169545000Y-60071000D03*
D39*
X191795400Y-109499400D03*
D40*
X187960000Y-95758000D03*
X190500000Y-107950000D03*
D39*
X182880000Y-118618000D03*
D40*
X186944000Y-106172000D03*
X168910000Y-91440000D03*
X175514000Y-62484000D03*
D39*
X184277000Y-104140000D03*
X121920000Y-57150000D03*
D40*
X163830000Y-99060000D03*
D39*
X180848000Y-104140000D03*
D40*
X188087000Y-109474000D03*
X173990000Y-60198000D03*
X186944000Y-108458000D03*
D39*
X182499000Y-104140000D03*
X185420000Y-115570000D03*
D40*
X178308000Y-64770000D03*
X168910000Y-65151000D03*
X178816000Y-86360000D03*
X175260000Y-66040000D03*
X166370000Y-66040000D03*
X170180000Y-81153000D03*
X165608000Y-81153000D03*
X181737000Y-83820000D03*
D39*
X165100000Y-107950000D03*
D41*
X135128000Y-54864000D03*
X135128000Y-68580000D03*
X119380000Y-116840000D03*
D39*
X157480000Y-110490000D03*
X195580000Y-107950000D03*
X152400000Y-51816000D03*
D40*
X173609000Y-102489000D03*
X185420000Y-110363000D03*
D39*
X174498000Y-105410000D03*
D40*
X160020000Y-109000000D03*
X171450000Y-85090000D03*
X162560000Y-106680000D03*
X172085000Y-62865000D03*
X158750000Y-74930000D03*
X161417000Y-93980000D03*
X158750000Y-62865000D03*
X143510000Y-93980000D03*
X143510000Y-104140000D03*
X177927000Y-108458000D03*
X143510000Y-74930000D03*
X157480000Y-61595000D03*
X151130000Y-95123000D03*
X157480000Y-102108000D03*
X168910000Y-102108000D03*
X178689000Y-107950000D03*
X171450000Y-61595000D03*
X157480000Y-72390000D03*
X157480000Y-99060000D03*
X142240000Y-91440000D03*
X157480000Y-91440000D03*
X157480000Y-95504000D03*
X165608000Y-82296000D03*
X165608000Y-105410000D03*
X195580000Y-100330000D03*
D39*
X137160000Y-70612000D03*
D40*
X137160000Y-86360000D03*
X148590000Y-86360000D03*
D39*
X137160000Y-77470000D03*
D40*
X166878000Y-102870000D03*
X166878000Y-78232000D03*
D39*
X133350000Y-77343000D03*
X133350000Y-70612000D03*
D40*
X142240000Y-102870000D03*
D39*
X185420000Y-92456000D03*
D40*
X161925000Y-88646000D03*
X161925000Y-78740000D03*
X152400000Y-87630000D03*
X152400000Y-96266000D03*
X173990000Y-97790000D03*
X173990000Y-90424000D03*
X186690000Y-83820000D03*
X186690000Y-90424000D03*
X160020000Y-101092000D03*
X159131000Y-85090000D03*
X170180000Y-64135000D03*
X160909000Y-89535000D03*
X160909000Y-81280000D03*
X160020000Y-92710000D03*
X160020000Y-86360000D03*
D42*
X121920000Y-76200000D02*
X129540000Y-76200000D01*
X121920000Y-79375000D02*
X121920000Y-76200000D01*
X163830000Y-90551000D02*
X163830000Y-90678000D01*
D43*
X189611000Y-119253000D02*
X189611000Y-118999000D01*
X173990000Y-63272000D02*
X175032000Y-63272000D01*
D44*
X125730000Y-55880000D02*
X127000000Y-57150000D01*
D42*
X165798000Y-68326000D02*
X166116000Y-68008000D01*
D43*
X175032000Y-63272000D02*
X175260000Y-63500000D01*
X168910000Y-58480000D02*
X168910000Y-60071000D01*
D44*
X192786000Y-78613000D02*
X192913000Y-78740000D01*
D43*
X170815000Y-53280000D02*
X170815000Y-52070000D01*
X181387242Y-109372400D02*
X181387242Y-107952286D01*
D44*
X192786000Y-75184000D02*
X192786000Y-77216000D01*
D43*
X181366656Y-107972872D02*
X181864000Y-107475528D01*
D44*
X188468000Y-92710000D02*
X188468000Y-95250000D01*
D43*
X191770600Y-109500000D02*
X191770000Y-109499400D01*
X181102000Y-108077000D02*
X181366656Y-107972872D01*
D45*
X193040000Y-109500000D02*
X191796000Y-109500000D01*
D43*
X191794800Y-109500000D02*
X191770600Y-109500000D01*
X170815000Y-58480000D02*
X170815000Y-60071000D01*
D44*
X127000000Y-57150000D02*
X129410000Y-57150000D01*
X189611000Y-117470000D02*
X189611000Y-119253000D01*
D43*
X181387242Y-107952286D02*
X181884828Y-107454700D01*
D44*
X186944000Y-102616000D02*
X188468000Y-102616000D01*
X182880000Y-117120000D02*
X182880000Y-118618000D01*
X121920000Y-64262000D02*
X121920000Y-66014000D01*
X135890000Y-88620000D02*
X135890000Y-86080000D01*
X192786000Y-77216000D02*
X192786000Y-78613000D01*
X192786000Y-56515000D02*
X192151000Y-55880000D01*
X124460000Y-55880000D02*
X125730000Y-55880000D01*
D43*
X181864000Y-107442000D02*
X181897528Y-107442000D01*
X191795400Y-109499400D02*
X191794800Y-109500000D01*
D42*
X182244000Y-71500000D02*
X182245000Y-71501000D01*
D44*
X187960000Y-95758000D02*
X186944000Y-96774000D01*
D43*
X191796000Y-109500000D02*
X191795400Y-109499400D01*
D42*
X163830000Y-87375000D02*
X163830000Y-90551000D01*
D43*
X181864000Y-107475528D02*
X181864000Y-107442000D01*
D44*
X190500000Y-107950000D02*
X189230000Y-107950000D01*
D42*
X180340000Y-71500000D02*
X182244000Y-71500000D01*
X182245000Y-71501000D02*
X182372000Y-71501000D01*
X168910000Y-76835000D02*
X168910000Y-75560000D01*
D45*
X165087000Y-112268000D02*
X167640000Y-112268000D01*
D44*
X192786000Y-73660000D02*
X192786000Y-75184000D01*
X124460000Y-55880000D02*
X121920000Y-55880000D01*
X126365000Y-55245000D02*
X127000000Y-54610000D01*
X188468000Y-95250000D02*
X187960000Y-95758000D01*
D42*
X163830000Y-68326000D02*
X165798000Y-68326000D01*
D43*
X181897528Y-107442000D02*
X181884828Y-107454700D01*
D44*
X125730000Y-55880000D02*
X126365000Y-55245000D01*
X127000000Y-54610000D02*
X129410000Y-54610000D01*
D43*
X169545000Y-58480000D02*
X169545000Y-60071000D01*
D46*
X121920000Y-113030000D02*
X121920000Y-108585000D01*
D44*
X192151000Y-55880000D02*
X185420000Y-55880000D01*
D42*
X182372000Y-71628000D02*
X182245000Y-71501000D01*
D45*
X163830000Y-55144000D02*
X163830000Y-58420000D01*
D42*
X168910000Y-85852000D02*
X168910000Y-83820000D01*
D44*
X192786000Y-57658000D02*
X192786000Y-56515000D01*
D43*
X170815000Y-58480000D02*
X170815000Y-53280000D01*
X181884828Y-105537000D02*
X181884828Y-104160828D01*
D42*
X163830000Y-95630000D02*
X163830000Y-99060000D01*
D43*
X182880000Y-109372400D02*
X182880000Y-110109000D01*
X173355000Y-58480000D02*
X173355000Y-59309000D01*
D42*
X186944000Y-108458000D02*
X187960000Y-109474000D01*
X168910000Y-79502000D02*
X171450000Y-79502000D01*
D43*
X173990000Y-60198000D02*
X173990000Y-61722000D01*
X189180000Y-109450000D02*
X189230000Y-109500000D01*
X183802528Y-106957114D02*
X186158886Y-106957114D01*
D42*
X139700000Y-90170000D02*
X135890000Y-90170000D01*
D47*
X182499000Y-104140000D02*
X180848000Y-104140000D01*
D42*
X170175000Y-87752000D02*
X168910000Y-87752000D01*
D43*
X187960000Y-109474000D02*
X188087000Y-109474000D01*
X177038000Y-63272000D02*
X176302000Y-63272000D01*
X173355000Y-59309000D02*
X173990000Y-59309000D01*
D44*
X187311000Y-115570000D02*
X185420000Y-115570000D01*
D43*
X176302000Y-63272000D02*
X175514000Y-62484000D01*
X188087000Y-109474000D02*
X188111000Y-109450000D01*
X184150000Y-110109000D02*
X184658000Y-109601000D01*
X184658000Y-108449872D02*
X186935872Y-108449872D01*
D42*
X168910000Y-91440000D02*
X168910000Y-87752000D01*
D43*
X186158886Y-106957114D02*
X186944000Y-106172000D01*
D45*
X161570000Y-59970000D02*
X163830000Y-59970000D01*
D42*
X188111000Y-109450000D02*
X189180000Y-109450000D01*
X171450000Y-82550000D02*
X170180000Y-83820000D01*
D43*
X184658000Y-109601000D02*
X184658000Y-108449872D01*
X183802528Y-108449872D02*
X184658000Y-108449872D01*
X173990000Y-58480000D02*
X173990000Y-59309000D01*
X181884828Y-104160828D02*
X181905656Y-104140000D01*
X188063000Y-109450000D02*
X188087000Y-109474000D01*
X181884828Y-104541828D02*
X181864000Y-104521000D01*
X173990000Y-59309000D02*
X173990000Y-60198000D01*
D42*
X168910000Y-93980000D02*
X168910000Y-91440000D01*
D43*
X180889656Y-104181656D02*
X180848000Y-104140000D01*
D42*
X170180000Y-83820000D02*
X170180000Y-87757000D01*
D43*
X186935872Y-108449872D02*
X186944000Y-108458000D01*
X181905656Y-104140000D02*
X182499000Y-104140000D01*
D47*
X186283000Y-104140000D02*
X184277000Y-104140000D01*
D44*
X121920000Y-57150000D02*
X124460000Y-57150000D01*
D43*
X175514000Y-62484000D02*
X174752000Y-61722000D01*
D45*
X154940000Y-59690000D02*
X161290000Y-59690000D01*
D42*
X171450000Y-79502000D02*
X171450000Y-82550000D01*
D45*
X161290000Y-59690000D02*
X161570000Y-59970000D01*
D43*
X182880000Y-110109000D02*
X184150000Y-110109000D01*
D47*
X184277000Y-104140000D02*
X182499000Y-104140000D01*
D44*
X185420000Y-115570000D02*
X182880000Y-115570000D01*
D42*
X170180000Y-87757000D02*
X170175000Y-87752000D01*
D43*
X174752000Y-61722000D02*
X173990000Y-61722000D01*
D44*
X121920000Y-57150000D02*
X121920000Y-62484000D01*
D43*
X180889656Y-105537000D02*
X180889656Y-104181656D01*
D44*
X186944000Y-106172000D02*
X186944000Y-104166000D01*
D43*
X177038000Y-60706000D02*
X177038000Y-61722000D01*
X176530000Y-60198000D02*
X177038000Y-60706000D01*
X174625000Y-59309000D02*
X175514000Y-60198000D01*
X174625000Y-58480000D02*
X174625000Y-59309000D01*
X175514000Y-60198000D02*
X176530000Y-60198000D01*
D42*
X164275000Y-70421000D02*
X163830000Y-69976000D01*
X168910000Y-70421000D02*
X164275000Y-70421000D01*
D48*
X163830000Y-73660000D02*
X163830000Y-69976000D01*
D43*
X168910000Y-65151000D02*
X168910000Y-68521000D01*
X175895000Y-59309000D02*
X175895000Y-58480000D01*
X178308000Y-60198000D02*
X177800000Y-59690000D01*
X177800000Y-59690000D02*
X176276000Y-59690000D01*
X176276000Y-59690000D02*
X175895000Y-59309000D01*
X178308000Y-64770000D02*
X178308000Y-60198000D01*
D42*
X176784000Y-73660000D02*
X178816000Y-75692000D01*
X180340000Y-69342000D02*
X180340000Y-69850000D01*
X179832000Y-68834000D02*
X180340000Y-69342000D01*
X175260000Y-73660000D02*
X176784000Y-73660000D01*
X179806000Y-68860000D02*
X179832000Y-68834000D01*
X175260000Y-73660000D02*
X175260000Y-68860000D01*
X178816000Y-75692000D02*
X178816000Y-86360000D01*
X175260000Y-68860000D02*
X179806000Y-68860000D01*
D43*
X168910000Y-52324000D02*
X168656000Y-52070000D01*
X166370000Y-52324000D02*
X166370000Y-66040000D01*
X175260000Y-67310000D02*
X175260000Y-66040000D01*
X166624000Y-52070000D02*
X166370000Y-52324000D01*
X168910000Y-53280000D02*
X168910000Y-52324000D01*
X168656000Y-52070000D02*
X166624000Y-52070000D01*
D42*
X154940000Y-80010000D02*
X158750000Y-80010000D01*
X163830000Y-75560000D02*
X163830000Y-77343000D01*
X163703000Y-77470000D02*
X163830000Y-77343000D01*
X163830000Y-77343000D02*
X163830000Y-79248000D01*
X158750000Y-80010000D02*
X161290000Y-77470000D01*
X161290000Y-77470000D02*
X163703000Y-77470000D01*
X170180000Y-81153000D02*
X170179000Y-81152000D01*
X163830000Y-80898000D02*
X165099000Y-80898000D01*
X165354000Y-81153000D02*
X165608000Y-81153000D01*
X166497000Y-73660000D02*
X165608000Y-74549000D01*
X163830000Y-82677000D02*
X165354000Y-81153000D01*
X163830000Y-85725000D02*
X163830000Y-82677000D01*
X165099000Y-80898000D02*
X165354000Y-81153000D01*
X165608000Y-74549000D02*
X165608000Y-81153000D01*
X168910000Y-73660000D02*
X166497000Y-73660000D01*
X168910000Y-81152000D02*
X170180000Y-81153000D01*
X192786000Y-59624000D02*
X193040000Y-59370000D01*
D44*
X184150000Y-60960000D02*
X192786000Y-60960000D01*
D42*
X193040000Y-64140000D02*
X192786000Y-63886000D01*
D44*
X192786000Y-63886000D02*
X192786000Y-61214000D01*
X182880000Y-55880000D02*
X182880000Y-59690000D01*
X192786000Y-61214000D02*
X192786000Y-59624000D01*
X182880000Y-59690000D02*
X184150000Y-60960000D01*
X184150000Y-66040000D02*
X192786000Y-66040000D01*
D42*
X192786000Y-71506000D02*
X193040000Y-71760000D01*
D44*
X192786000Y-66040000D02*
X192786000Y-71506000D01*
X192913000Y-80767000D02*
X192913000Y-83058000D01*
X184150000Y-80010000D02*
X184150000Y-83058000D01*
X192913000Y-85471000D02*
X192913000Y-83058000D01*
X192913000Y-83058000D02*
X184150000Y-83058000D01*
X184150000Y-83058000D02*
X184150000Y-84455000D01*
D42*
X192786000Y-80640000D02*
X192913000Y-80767000D01*
X181737000Y-83820000D02*
X181737000Y-85090000D01*
X184150000Y-86005000D02*
X182652000Y-86005000D01*
X181737000Y-85090000D02*
X182652000Y-86005000D01*
D49*
X119380000Y-116840000D02*
X156210000Y-116840000D01*
X157480000Y-115570000D02*
X157480000Y-110490000D01*
X157734000Y-51816000D02*
X152400000Y-51816000D01*
X135128000Y-68580000D02*
X135128000Y-54864000D01*
D45*
X160020000Y-110490000D02*
X157480000Y-110490000D01*
D49*
X152400000Y-51816000D02*
X152146000Y-51816000D01*
D45*
X193040000Y-107950000D02*
X195326000Y-107950000D01*
D44*
X165087000Y-107963000D02*
X165100000Y-107950000D01*
D49*
X156210000Y-116840000D02*
X157480000Y-115570000D01*
X159512000Y-53594000D02*
X157734000Y-51816000D01*
D45*
X165087000Y-110718000D02*
X165087000Y-107963000D01*
D49*
X163830000Y-53594000D02*
X159512000Y-53594000D01*
D48*
X193040000Y-106172000D02*
X193040000Y-103150000D01*
X188468000Y-106680000D02*
X192532000Y-106680000D01*
X192532000Y-106680000D02*
X193040000Y-106172000D01*
D43*
X183802528Y-107454700D02*
X187693300Y-107454700D01*
D48*
X187693300Y-107454700D02*
X188468000Y-106680000D01*
D42*
X172720000Y-101600000D02*
X173609000Y-102489000D01*
D43*
X172720000Y-58480000D02*
X172720000Y-101600000D01*
X182382414Y-109372400D02*
X182382414Y-110247810D01*
X185224000Y-110559000D02*
X185420000Y-110363000D01*
X182693604Y-110559000D02*
X185224000Y-110559000D01*
X182382414Y-110247810D02*
X182693604Y-110559000D01*
D42*
X175260000Y-74930000D02*
X176657000Y-74930000D01*
X176657000Y-74930000D02*
X177800000Y-76073000D01*
D44*
X174498000Y-105410000D02*
X174435000Y-105473000D01*
D42*
X178892200Y-98247200D02*
X180213000Y-98247200D01*
D44*
X177546000Y-105410000D02*
X178054000Y-104902000D01*
D42*
X186867200Y-98247200D02*
X186944000Y-98324000D01*
D44*
X178054000Y-104902000D02*
X180213000Y-102743000D01*
D42*
X180213000Y-98247200D02*
X186867200Y-98247200D01*
D44*
X180213000Y-102743000D02*
X180213000Y-98247200D01*
X174435000Y-105473000D02*
X174435000Y-107950000D01*
D42*
X177800000Y-76073000D02*
X177800000Y-97155000D01*
D44*
X174498000Y-105410000D02*
X177546000Y-105410000D01*
D42*
X177800000Y-97155000D02*
X178892200Y-98247200D01*
D44*
X193040000Y-101600000D02*
X193040000Y-94276000D01*
D42*
X193040000Y-94276000D02*
X192950000Y-94186000D01*
X154940000Y-87630000D02*
X158242000Y-87630000D01*
X158242000Y-100965000D02*
X160020000Y-102743000D01*
X158242000Y-87630000D02*
X158242000Y-100965000D01*
X160020000Y-102743000D02*
X160020000Y-104140000D01*
X175260000Y-115570000D02*
X175260000Y-110425000D01*
X175260000Y-110425000D02*
X174435000Y-109600000D01*
X160020000Y-105790000D02*
X160020000Y-109000000D01*
X170561000Y-116205000D02*
X171450000Y-115316000D01*
X160020000Y-112140000D02*
X160020000Y-114808000D01*
X168910000Y-116205000D02*
X162560000Y-116205000D01*
X168910000Y-116205000D02*
X170561000Y-116205000D01*
X171450000Y-115316000D02*
X171450000Y-85090000D01*
X162560000Y-116205000D02*
X161417000Y-116205000D01*
X161417000Y-116205000D02*
X160020000Y-114808000D01*
X162560000Y-114555000D02*
X162560000Y-106680000D01*
X124460000Y-60960000D02*
X129540000Y-60960000D01*
D43*
X158750000Y-74930000D02*
X158750000Y-62865000D01*
X172085000Y-62865000D02*
X172085000Y-58480000D01*
D42*
X143510000Y-104140000D02*
X143510000Y-93980000D01*
X143510000Y-93980000D02*
X143510000Y-76200000D01*
X123190000Y-58420000D02*
X123190000Y-59690000D01*
D43*
X179967128Y-108449872D02*
X177927000Y-108458000D01*
D42*
X163830000Y-93980000D02*
X161417000Y-93980000D01*
X129540000Y-60960000D02*
X130810000Y-62230000D01*
D43*
X177927000Y-108458000D02*
X177935128Y-108449872D01*
D42*
X124460000Y-58420000D02*
X123190000Y-58420000D01*
X123190000Y-59690000D02*
X124460000Y-60960000D01*
X130810000Y-73660000D02*
X133350000Y-76200000D01*
X133350000Y-76200000D02*
X143510000Y-76200000D01*
X143510000Y-76200000D02*
X143510000Y-74930000D01*
X130810000Y-62230000D02*
X130810000Y-73660000D01*
X168910000Y-95630000D02*
X168910000Y-102108000D01*
X157480000Y-102108000D02*
X157480000Y-99060000D01*
D43*
X171450000Y-61595000D02*
X171450000Y-58480000D01*
D42*
X132080000Y-59690000D02*
X130810000Y-58420000D01*
X132080000Y-71120000D02*
X132080000Y-59690000D01*
X134620000Y-73660000D02*
X132080000Y-71120000D01*
D43*
X179967128Y-107952286D02*
X178691286Y-107952286D01*
D42*
X143510000Y-73660000D02*
X134620000Y-73660000D01*
X144780000Y-72390000D02*
X143510000Y-73660000D01*
D43*
X157480000Y-72390000D02*
X157480000Y-61595000D01*
D42*
X151130000Y-72390000D02*
X144780000Y-72390000D01*
X154940000Y-72390000D02*
X151130000Y-72390000D01*
D43*
X178691286Y-107952286D02*
X178689000Y-107950000D01*
D42*
X130810000Y-58420000D02*
X129410000Y-58420000D01*
X151130000Y-72390000D02*
X151130000Y-95123000D01*
X141224000Y-85090000D02*
X139700000Y-85090000D01*
X142240000Y-91440000D02*
X142240000Y-86106000D01*
X142240000Y-86106000D02*
X141224000Y-85090000D01*
X157480000Y-95504000D02*
X157480000Y-91440000D01*
X165608000Y-105410000D02*
X165608000Y-82296000D01*
X137160000Y-77470000D02*
X137160000Y-86360000D01*
X124460000Y-52070000D02*
X123190000Y-53340000D01*
X195580000Y-84455000D02*
X196215000Y-83820000D01*
X137160000Y-70612000D02*
X137160000Y-53340000D01*
X123190000Y-54610000D02*
X124460000Y-54610000D01*
X195580000Y-100330000D02*
X195580000Y-84455000D01*
X196215000Y-83820000D02*
X198120000Y-83820000D01*
X149860000Y-87630000D02*
X149860000Y-95250000D01*
X123190000Y-53340000D02*
X123190000Y-54610000D01*
X137160000Y-53340000D02*
X135890000Y-52070000D01*
X135890000Y-52070000D02*
X124460000Y-52070000D01*
X148590000Y-86360000D02*
X149860000Y-87630000D01*
X149860000Y-95250000D02*
X154940000Y-100330000D01*
X132207000Y-55880000D02*
X129410000Y-55880000D01*
X142240000Y-102870000D02*
X140970000Y-101600000D01*
X133350000Y-81153000D02*
X133350000Y-77343000D01*
X166878000Y-102870000D02*
X166878000Y-78232000D01*
X133350000Y-70612000D02*
X133350000Y-57023000D01*
X140970000Y-101600000D02*
X135890000Y-101600000D01*
X135890000Y-101600000D02*
X133350000Y-99060000D01*
X133350000Y-57023000D02*
X132207000Y-55880000D01*
X133350000Y-99060000D02*
X133350000Y-81026000D01*
X192913000Y-91149000D02*
X192950000Y-91186000D01*
X192950000Y-91186000D02*
X186690000Y-91186000D01*
X186690000Y-91186000D02*
X185420000Y-92456000D01*
X192913000Y-87021000D02*
X192950000Y-87058000D01*
D44*
X192913000Y-87021000D02*
X192913000Y-91149000D01*
D42*
X161925000Y-88646000D02*
X161925000Y-78740000D01*
X152400000Y-96266000D02*
X152400000Y-87630000D01*
X173990000Y-97790000D02*
X173990000Y-90424000D01*
X186690000Y-90424000D02*
X186690000Y-83820000D01*
X159131000Y-100203000D02*
X160020000Y-101092000D01*
X159131000Y-85090000D02*
X159131000Y-100203000D01*
D43*
X170180000Y-64135000D02*
X170180000Y-58480000D01*
X180889656Y-112988344D02*
X180889656Y-109372400D01*
X189611000Y-114554000D02*
X189230000Y-114173000D01*
X189611000Y-115570000D02*
X189611000Y-114554000D01*
X182074312Y-114173000D02*
X180889656Y-112988344D01*
X189230000Y-114173000D02*
X182074312Y-114173000D01*
D42*
X160909000Y-81407000D02*
X160909000Y-89535000D01*
X160782000Y-81280000D02*
X160909000Y-81407000D01*
X160020000Y-86360000D02*
X160020000Y-92710000D01*
M02*
