G04 #@! TF.GenerationSoftware,KiCad,Pcbnew,9.0.7*
G04 #@! TF.CreationDate,2026-03-14T15:40:44-07:00*
G04 #@! TF.ProjectId,PocketFT8Xcvr,506f636b-6574-4465-9438-586376722e6b,rev?*
G04 #@! TF.SameCoordinates,Original*
G04 #@! TF.FileFunction,AssemblyDrawing,Bot*
%FSLAX46Y46*%
G04 Gerber Fmt 4.6, Leading zero omitted, Abs format (unit mm)*
G04 Created by KiCad (PCBNEW 9.0.7) date 2026-03-14 15:40:44*
%MOMM*%
%LPD*%
G01*
G04 APERTURE LIST*
%ADD10C,0.150000*%
%ADD11C,0.100000*%
%ADD12C,0.508000*%
G04 APERTURE END LIST*
D10*
X19441009Y33445715D02*
X19488628Y33302858D01*
X19488628Y33302858D02*
X19536247Y33255239D01*
X19536247Y33255239D02*
X19631485Y33207620D01*
X19631485Y33207620D02*
X19774342Y33207620D01*
X19774342Y33207620D02*
X19869580Y33255239D01*
X19869580Y33255239D02*
X19917200Y33302858D01*
X19917200Y33302858D02*
X19964819Y33398096D01*
X19964819Y33398096D02*
X19964819Y33779048D01*
X19964819Y33779048D02*
X18964819Y33779048D01*
X18964819Y33779048D02*
X18964819Y33445715D01*
X18964819Y33445715D02*
X19012438Y33350477D01*
X19012438Y33350477D02*
X19060057Y33302858D01*
X19060057Y33302858D02*
X19155295Y33255239D01*
X19155295Y33255239D02*
X19250533Y33255239D01*
X19250533Y33255239D02*
X19345771Y33302858D01*
X19345771Y33302858D02*
X19393390Y33350477D01*
X19393390Y33350477D02*
X19441009Y33445715D01*
X19441009Y33445715D02*
X19441009Y33779048D01*
X18964819Y32779048D02*
X19774342Y32779048D01*
X19774342Y32779048D02*
X19869580Y32731429D01*
X19869580Y32731429D02*
X19917200Y32683810D01*
X19917200Y32683810D02*
X19964819Y32588572D01*
X19964819Y32588572D02*
X19964819Y32398096D01*
X19964819Y32398096D02*
X19917200Y32302858D01*
X19917200Y32302858D02*
X19869580Y32255239D01*
X19869580Y32255239D02*
X19774342Y32207620D01*
X19774342Y32207620D02*
X18964819Y32207620D01*
X19060057Y31779048D02*
X19012438Y31731429D01*
X19012438Y31731429D02*
X18964819Y31636191D01*
X18964819Y31636191D02*
X18964819Y31398096D01*
X18964819Y31398096D02*
X19012438Y31302858D01*
X19012438Y31302858D02*
X19060057Y31255239D01*
X19060057Y31255239D02*
X19155295Y31207620D01*
X19155295Y31207620D02*
X19250533Y31207620D01*
X19250533Y31207620D02*
X19393390Y31255239D01*
X19393390Y31255239D02*
X19964819Y31826667D01*
X19964819Y31826667D02*
X19964819Y31207620D01*
X18964819Y30588572D02*
X18964819Y30493334D01*
X18964819Y30493334D02*
X19012438Y30398096D01*
X19012438Y30398096D02*
X19060057Y30350477D01*
X19060057Y30350477D02*
X19155295Y30302858D01*
X19155295Y30302858D02*
X19345771Y30255239D01*
X19345771Y30255239D02*
X19583866Y30255239D01*
X19583866Y30255239D02*
X19774342Y30302858D01*
X19774342Y30302858D02*
X19869580Y30350477D01*
X19869580Y30350477D02*
X19917200Y30398096D01*
X19917200Y30398096D02*
X19964819Y30493334D01*
X19964819Y30493334D02*
X19964819Y30588572D01*
X19964819Y30588572D02*
X19917200Y30683810D01*
X19917200Y30683810D02*
X19869580Y30731429D01*
X19869580Y30731429D02*
X19774342Y30779048D01*
X19774342Y30779048D02*
X19583866Y30826667D01*
X19583866Y30826667D02*
X19345771Y30826667D01*
X19345771Y30826667D02*
X19155295Y30779048D01*
X19155295Y30779048D02*
X19060057Y30731429D01*
X19060057Y30731429D02*
X19012438Y30683810D01*
X19012438Y30683810D02*
X18964819Y30588572D01*
X18964819Y29921905D02*
X18964819Y29302858D01*
X18964819Y29302858D02*
X19345771Y29636191D01*
X19345771Y29636191D02*
X19345771Y29493334D01*
X19345771Y29493334D02*
X19393390Y29398096D01*
X19393390Y29398096D02*
X19441009Y29350477D01*
X19441009Y29350477D02*
X19536247Y29302858D01*
X19536247Y29302858D02*
X19774342Y29302858D01*
X19774342Y29302858D02*
X19869580Y29350477D01*
X19869580Y29350477D02*
X19917200Y29398096D01*
X19917200Y29398096D02*
X19964819Y29493334D01*
X19964819Y29493334D02*
X19964819Y29779048D01*
X19964819Y29779048D02*
X19917200Y29874286D01*
X19917200Y29874286D02*
X19869580Y29921905D01*
X19060057Y28921905D02*
X19012438Y28874286D01*
X19012438Y28874286D02*
X18964819Y28779048D01*
X18964819Y28779048D02*
X18964819Y28540953D01*
X18964819Y28540953D02*
X19012438Y28445715D01*
X19012438Y28445715D02*
X19060057Y28398096D01*
X19060057Y28398096D02*
X19155295Y28350477D01*
X19155295Y28350477D02*
X19250533Y28350477D01*
X19250533Y28350477D02*
X19393390Y28398096D01*
X19393390Y28398096D02*
X19964819Y28969524D01*
X19964819Y28969524D02*
X19964819Y28350477D01*
X19917200Y27969524D02*
X19964819Y27826667D01*
X19964819Y27826667D02*
X19964819Y27588572D01*
X19964819Y27588572D02*
X19917200Y27493334D01*
X19917200Y27493334D02*
X19869580Y27445715D01*
X19869580Y27445715D02*
X19774342Y27398096D01*
X19774342Y27398096D02*
X19679104Y27398096D01*
X19679104Y27398096D02*
X19583866Y27445715D01*
X19583866Y27445715D02*
X19536247Y27493334D01*
X19536247Y27493334D02*
X19488628Y27588572D01*
X19488628Y27588572D02*
X19441009Y27779048D01*
X19441009Y27779048D02*
X19393390Y27874286D01*
X19393390Y27874286D02*
X19345771Y27921905D01*
X19345771Y27921905D02*
X19250533Y27969524D01*
X19250533Y27969524D02*
X19155295Y27969524D01*
X19155295Y27969524D02*
X19060057Y27921905D01*
X19060057Y27921905D02*
X19012438Y27874286D01*
X19012438Y27874286D02*
X18964819Y27779048D01*
X18964819Y27779048D02*
X18964819Y27540953D01*
X18964819Y27540953D02*
X19012438Y27398096D01*
X19964819Y26969524D02*
X18964819Y26969524D01*
X18964819Y26969524D02*
X19679104Y26636191D01*
X19679104Y26636191D02*
X18964819Y26302858D01*
X18964819Y26302858D02*
X19964819Y26302858D01*
X19583866Y25826667D02*
X19583866Y25064762D01*
X18964819Y24302858D02*
X19679104Y24302858D01*
X19679104Y24302858D02*
X19821961Y24350477D01*
X19821961Y24350477D02*
X19917200Y24445715D01*
X19917200Y24445715D02*
X19964819Y24588572D01*
X19964819Y24588572D02*
X19964819Y24683810D01*
X18964819Y23540953D02*
X19679104Y23540953D01*
X19679104Y23540953D02*
X19821961Y23588572D01*
X19821961Y23588572D02*
X19917200Y23683810D01*
X19917200Y23683810D02*
X19964819Y23826667D01*
X19964819Y23826667D02*
X19964819Y23921905D01*
X19583866Y23064762D02*
X19583866Y22302857D01*
X19012438Y21302858D02*
X18964819Y21398096D01*
X18964819Y21398096D02*
X18964819Y21540953D01*
X18964819Y21540953D02*
X19012438Y21683810D01*
X19012438Y21683810D02*
X19107676Y21779048D01*
X19107676Y21779048D02*
X19202914Y21826667D01*
X19202914Y21826667D02*
X19393390Y21874286D01*
X19393390Y21874286D02*
X19536247Y21874286D01*
X19536247Y21874286D02*
X19726723Y21826667D01*
X19726723Y21826667D02*
X19821961Y21779048D01*
X19821961Y21779048D02*
X19917200Y21683810D01*
X19917200Y21683810D02*
X19964819Y21540953D01*
X19964819Y21540953D02*
X19964819Y21445715D01*
X19964819Y21445715D02*
X19917200Y21302858D01*
X19917200Y21302858D02*
X19869580Y21255239D01*
X19869580Y21255239D02*
X19536247Y21255239D01*
X19536247Y21255239D02*
X19536247Y21445715D01*
X18964819Y20969524D02*
X18964819Y20398096D01*
X19964819Y20683810D02*
X18964819Y20683810D01*
X19964819Y19493334D02*
X19488628Y19826667D01*
X19964819Y20064762D02*
X18964819Y20064762D01*
X18964819Y20064762D02*
X18964819Y19683810D01*
X18964819Y19683810D02*
X19012438Y19588572D01*
X19012438Y19588572D02*
X19060057Y19540953D01*
X19060057Y19540953D02*
X19155295Y19493334D01*
X19155295Y19493334D02*
X19298152Y19493334D01*
X19298152Y19493334D02*
X19393390Y19540953D01*
X19393390Y19540953D02*
X19441009Y19588572D01*
X19441009Y19588572D02*
X19488628Y19683810D01*
X19488628Y19683810D02*
X19488628Y20064762D01*
X19441009Y27874286D02*
X19488628Y27731429D01*
X19488628Y27731429D02*
X19536247Y27683810D01*
X19536247Y27683810D02*
X19631485Y27636191D01*
X19631485Y27636191D02*
X19774342Y27636191D01*
X19774342Y27636191D02*
X19869580Y27683810D01*
X19869580Y27683810D02*
X19917200Y27731429D01*
X19917200Y27731429D02*
X19964819Y27826667D01*
X19964819Y27826667D02*
X19964819Y28207619D01*
X19964819Y28207619D02*
X18964819Y28207619D01*
X18964819Y28207619D02*
X18964819Y27874286D01*
X18964819Y27874286D02*
X19012438Y27779048D01*
X19012438Y27779048D02*
X19060057Y27731429D01*
X19060057Y27731429D02*
X19155295Y27683810D01*
X19155295Y27683810D02*
X19250533Y27683810D01*
X19250533Y27683810D02*
X19345771Y27731429D01*
X19345771Y27731429D02*
X19393390Y27779048D01*
X19393390Y27779048D02*
X19441009Y27874286D01*
X19441009Y27874286D02*
X19441009Y28207619D01*
X19679104Y27255238D02*
X19679104Y26779048D01*
X19964819Y27350476D02*
X18964819Y27017143D01*
X18964819Y27017143D02*
X19964819Y26683810D01*
X18964819Y26493333D02*
X18964819Y25921905D01*
X19964819Y26207619D02*
X18964819Y26207619D01*
X19964819Y25064762D02*
X19964819Y25636190D01*
X19964819Y25350476D02*
X18964819Y25350476D01*
X18964819Y25350476D02*
X19107676Y25445714D01*
X19107676Y25445714D02*
X19202914Y25540952D01*
X19202914Y25540952D02*
X19250533Y25636190D01*
X19464819Y24845471D02*
X19464819Y28432619D01*
D11*
X9477000Y42725500D02*
X29543000Y42725500D01*
X29543000Y42750900D02*
G75*
G02*
X29543000Y42725500I0J-12700D01*
G01*
X29543000Y42750900D02*
X9477000Y42750900D01*
X9477000Y42750900D02*
G75*
G03*
X9477000Y42725500I0J-12700D01*
G01*
X9489700Y10581800D02*
X9489700Y42738200D01*
X9464300Y42738200D02*
G75*
G02*
X9489700Y42738200I12700J0D01*
G01*
X9464300Y42738200D02*
X9464300Y10581800D01*
X9464300Y10581800D02*
G75*
G03*
X9489700Y10581800I12700J0D01*
G01*
X29530300Y42738200D02*
X29530300Y10581800D01*
X29555700Y10581800D02*
G75*
G02*
X29530300Y10581800I-12700J0D01*
G01*
X29555700Y10581800D02*
X29555700Y42738200D01*
X29555700Y42738200D02*
G75*
G03*
X29530300Y42738200I-12700J0D01*
G01*
X29543000Y10594500D02*
X9477000Y10594500D01*
X9477000Y10569100D02*
G75*
G02*
X9477000Y10594500I0J12700D01*
G01*
X9477000Y10569100D02*
X29543000Y10569100D01*
X29543000Y10569100D02*
G75*
G03*
X29543000Y10594500I0J12700D01*
G01*
D12*
G04 #@! TO.C,BAT1*
D11*
X17782000Y12055000D02*
G75*
G02*
X17428000Y12055000I-177000J0D01*
G01*
X17428000Y12055000D02*
G75*
G02*
X17782000Y12055000I177000J0D01*
G01*
X18190000Y12055000D02*
G75*
G02*
X17020000Y12055000I-585000J0D01*
G01*
X17020000Y12055000D02*
G75*
G02*
X18190000Y12055000I585000J0D01*
G01*
G04 #@! TD*
X9075600Y43317400D02*
X29944400Y10002600D01*
X9075600Y10002600D02*
X29944400Y43317400D01*
M02*
