%TF.GenerationSoftware,KiCad,Pcbnew,9.0.7*%
%TF.CreationDate,2026-03-14T15:40:44-07:00*%
%TF.ProjectId,PocketFT8Xcvr,506f636b-6574-4465-9438-586376722e6b,rev?*%
%TF.SameCoordinates,Original*%
%TF.FileFunction,Drillmap*%
%TF.FilePolarity,Positive*%
%FSLAX45Y45*%
G04 Gerber Fmt 4.5, Leading zero omitted, Abs format (unit mm)*
G04 Created by KiCad (PCBNEW 9.0.7) date 2026-03-14 15:40:44*
%MOMM*%
%LPD*%
G01*
G04 APERTURE LIST*
%ADD10C,0.100000*%
%ADD11C,0.200000*%
%ADD12C,0.101600*%
%ADD13C,0.110000*%
G04 APERTURE END LIST*
D10*
X-11000Y6984000D02*
X9979000Y6984000D01*
X9979000Y-1000D01*
X-11000Y-1000D01*
X-11000Y6984000D01*
D11*
D10*
X1819000Y4679000D02*
X1839000Y4659000D01*
X1839000Y4679000D02*
X1819000Y4659000D01*
X1819000Y4579000D02*
X1839000Y4559000D01*
X1839000Y4579000D02*
X1819000Y4559000D01*
X1849000Y4959000D02*
X1869000Y4939000D01*
X1869000Y4959000D02*
X1849000Y4939000D01*
X2069000Y4799000D02*
X2089000Y4779000D01*
X2089000Y4799000D02*
X2069000Y4779000D01*
X2069000Y4649000D02*
X2089000Y4629000D01*
X2089000Y4649000D02*
X2069000Y4629000D01*
X2194000Y4409000D02*
X2214000Y4389000D01*
X2214000Y4409000D02*
X2194000Y4389000D01*
X2219000Y4799000D02*
X2239000Y4779000D01*
X2239000Y4799000D02*
X2219000Y4779000D01*
X2219000Y4654000D02*
X2239000Y4634000D01*
X2239000Y4654000D02*
X2219000Y4634000D01*
X2639000Y4959000D02*
X2659000Y4939000D01*
X2659000Y4959000D02*
X2639000Y4939000D01*
X2639000Y4809000D02*
X2659000Y4789000D01*
X2659000Y4809000D02*
X2639000Y4789000D01*
X2639000Y4614000D02*
X2659000Y4594000D01*
X2659000Y4614000D02*
X2639000Y4594000D01*
X2639000Y4534000D02*
X2659000Y4514000D01*
X2659000Y4534000D02*
X2639000Y4514000D01*
X2714000Y4579000D02*
X2734000Y4559000D01*
X2734000Y4579000D02*
X2714000Y4559000D01*
X2898000Y5982000D02*
X2918000Y5962000D01*
X2918000Y5982000D02*
X2898000Y5962000D01*
X2898000Y4409000D02*
X2918000Y4389000D01*
X2918000Y4409000D02*
X2898000Y4389000D01*
X3973000Y2930000D02*
X3993000Y2910000D01*
X3993000Y2930000D02*
X3973000Y2910000D01*
X4989000Y3311000D02*
X5009000Y3291000D01*
X5009000Y3311000D02*
X4989000Y3291000D01*
X4989000Y2447400D02*
X5009000Y2427400D01*
X5009000Y2447400D02*
X4989000Y2427400D01*
X5497000Y5914500D02*
X5517000Y5894500D01*
X5517000Y5914500D02*
X5497000Y5894500D01*
X5497000Y4835000D02*
X5517000Y4815000D01*
X5517000Y4835000D02*
X5497000Y4815000D01*
X5573200Y3565000D02*
X5593200Y3545000D01*
X5593200Y3565000D02*
X5573200Y3545000D01*
X5624000Y5787500D02*
X5644000Y5767500D01*
X5644000Y5787500D02*
X5624000Y5767500D01*
X5624000Y4581000D02*
X5644000Y4561000D01*
X5644000Y4581000D02*
X5624000Y4561000D01*
X5662100Y3311000D02*
X5682100Y3291000D01*
X5682100Y3311000D02*
X5662100Y3291000D01*
X5751000Y1964800D02*
X5771000Y1944800D01*
X5771000Y1964800D02*
X5751000Y1944800D01*
X5839900Y3946000D02*
X5859900Y3926000D01*
X5859900Y3946000D02*
X5839900Y3926000D01*
X5839900Y3120500D02*
X5859900Y3100500D01*
X5859900Y3120500D02*
X5839900Y3100500D01*
X5939000Y4071500D02*
X5959000Y4051500D01*
X5959000Y4071500D02*
X5939000Y4051500D01*
X5941500Y3209400D02*
X5961500Y3189400D01*
X5961500Y3209400D02*
X5941500Y3189400D01*
X6131000Y5358000D02*
X6151000Y5338000D01*
X6151000Y5358000D02*
X6131000Y5338000D01*
X6132000Y3018900D02*
X6152000Y2998900D01*
X6152000Y3018900D02*
X6132000Y2998900D01*
X6436500Y4274000D02*
X6456500Y4254000D01*
X6456500Y4274000D02*
X6436500Y4254000D01*
X6436800Y1787000D02*
X6456800Y1767000D01*
X6456800Y1787000D02*
X6436800Y1767000D01*
X6640000Y6066900D02*
X6660000Y6046900D01*
X6660000Y6066900D02*
X6640000Y6046900D01*
X6640000Y3692000D02*
X6660000Y3672000D01*
X6660000Y3692000D02*
X6640000Y3672000D01*
X6640000Y3007000D02*
X6660000Y2987000D01*
X6660000Y3007000D02*
X6640000Y2987000D01*
X6640000Y2041000D02*
X6660000Y2021000D01*
X6660000Y2041000D02*
X6640000Y2021000D01*
X6702000Y6868000D02*
X6722000Y6848000D01*
X6722000Y6868000D02*
X6702000Y6848000D01*
X6703500Y6066900D02*
X6723500Y6046900D01*
X6723500Y6066900D02*
X6703500Y6046900D01*
X6767000Y5670000D02*
X6787000Y5650000D01*
X6787000Y5670000D02*
X6767000Y5650000D01*
X6767000Y5415000D02*
X6787000Y5395000D01*
X6787000Y5415000D02*
X6767000Y5395000D01*
X6768000Y6868000D02*
X6788000Y6848000D01*
X6788000Y6868000D02*
X6768000Y6848000D01*
X6798000Y1711000D02*
X6818000Y1691000D01*
X6818000Y1711000D02*
X6798000Y1691000D01*
X6830500Y6867000D02*
X6850500Y6847000D01*
X6850500Y6867000D02*
X6830500Y6847000D01*
X6830500Y6066900D02*
X6850500Y6046900D01*
X6850500Y6066900D02*
X6830500Y6046900D01*
X6894000Y5914500D02*
X6914000Y5894500D01*
X6914000Y5914500D02*
X6894000Y5894500D01*
X6957500Y5787500D02*
X6977500Y5767500D01*
X6977500Y5787500D02*
X6957500Y5767500D01*
X7028000Y5978000D02*
X7048000Y5958000D01*
X7048000Y5978000D02*
X7028000Y5958000D01*
X7082000Y3499000D02*
X7102000Y3479000D01*
X7102000Y3499000D02*
X7082000Y3479000D01*
X7083000Y3344000D02*
X7103000Y3324000D01*
X7103000Y3344000D02*
X7083000Y3324000D01*
X7147000Y5708000D02*
X7167000Y5688000D01*
X7167000Y5708000D02*
X7147000Y5688000D01*
X7251000Y5923000D02*
X7271000Y5903000D01*
X7271000Y5923000D02*
X7251000Y5903000D01*
X7276000Y3508000D02*
X7296000Y3488000D01*
X7296000Y3508000D02*
X7276000Y3488000D01*
X7276000Y3418000D02*
X7296000Y3398000D01*
X7296000Y3418000D02*
X7276000Y3398000D01*
X7288000Y4129000D02*
X7308000Y4109000D01*
X7308000Y4129000D02*
X7288000Y4109000D01*
X8889000Y1871000D02*
X8909000Y1851000D01*
X8909000Y1871000D02*
X8889000Y1851000D01*
X1199000Y4407000D02*
G75*
G02*
X1159000Y4407000I-20000J0D01*
G01*
X1159000Y4407000D02*
G75*
G02*
X1199000Y4407000I20000J0D01*
G01*
X1955000Y5579000D02*
G75*
G02*
X1915000Y5579000I-20000J0D01*
G01*
X1915000Y5579000D02*
G75*
G02*
X1955000Y5579000I20000J0D01*
G01*
X1971000Y761000D02*
G75*
G02*
X1931000Y761000I-20000J0D01*
G01*
X1931000Y761000D02*
G75*
G02*
X1971000Y761000I20000J0D01*
G01*
X2099000Y5394000D02*
G75*
G02*
X2059000Y5394000I-20000J0D01*
G01*
X2059000Y5394000D02*
G75*
G02*
X2099000Y5394000I20000J0D01*
G01*
X2301500Y2376500D02*
G75*
G02*
X2261500Y2376500I-20000J0D01*
G01*
X2261500Y2376500D02*
G75*
G02*
X2301500Y2376500I20000J0D01*
G01*
X2419000Y3999000D02*
G75*
G02*
X2379000Y3999000I-20000J0D01*
G01*
X2379000Y3999000D02*
G75*
G02*
X2419000Y3999000I20000J0D01*
G01*
X2994000Y759000D02*
G75*
G02*
X2954000Y759000I-20000J0D01*
G01*
X2954000Y759000D02*
G75*
G02*
X2994000Y759000I20000J0D01*
G01*
X3139000Y2419000D02*
G75*
G02*
X3099000Y2419000I-20000J0D01*
G01*
X3099000Y2419000D02*
G75*
G02*
X3139000Y2419000I20000J0D01*
G01*
X3226500Y3399000D02*
G75*
G02*
X3186500Y3399000I-20000J0D01*
G01*
X3186500Y3399000D02*
G75*
G02*
X3226500Y3399000I20000J0D01*
G01*
X4221000Y4701000D02*
G75*
G02*
X4181000Y4701000I-20000J0D01*
G01*
X4181000Y4701000D02*
G75*
G02*
X4221000Y4701000I20000J0D01*
G01*
X4419000Y4444000D02*
G75*
G02*
X4379000Y4444000I-20000J0D01*
G01*
X4379000Y4444000D02*
G75*
G02*
X4419000Y4444000I20000J0D01*
G01*
X5019000Y6882400D02*
G75*
G02*
X4979000Y6882400I-20000J0D01*
G01*
X4979000Y6882400D02*
G75*
G02*
X5019000Y6882400I20000J0D01*
G01*
X5509000Y3149000D02*
G75*
G02*
X5469000Y3149000I-20000J0D01*
G01*
X5469000Y3149000D02*
G75*
G02*
X5509000Y3149000I20000J0D01*
G01*
X6327000Y3595000D02*
G75*
G02*
X6287000Y3595000I-20000J0D01*
G01*
X6287000Y3595000D02*
G75*
G02*
X6327000Y3595000I20000J0D01*
G01*
X6466800Y2539000D02*
G75*
G02*
X6426800Y2539000I-20000J0D01*
G01*
X6426800Y2539000D02*
G75*
G02*
X6466800Y2539000I20000J0D01*
G01*
X6670000Y3824000D02*
G75*
G02*
X6630000Y3824000I-20000J0D01*
G01*
X6630000Y3824000D02*
G75*
G02*
X6670000Y3824000I20000J0D01*
G01*
X6735000Y2285000D02*
G75*
G02*
X6695000Y2285000I-20000J0D01*
G01*
X6695000Y2285000D02*
G75*
G02*
X6735000Y2285000I20000J0D01*
G01*
X7145000Y3907000D02*
G75*
G02*
X7105000Y3907000I-20000J0D01*
G01*
X7105000Y3907000D02*
G75*
G02*
X7145000Y3907000I20000J0D01*
G01*
X7419000Y516500D02*
G75*
G02*
X7379000Y516500I-20000J0D01*
G01*
X7379000Y516500D02*
G75*
G02*
X7419000Y516500I20000J0D01*
G01*
X1501000Y3877000D02*
X1501000Y3827000D01*
X1476000Y3852000D02*
X1526000Y3852000D01*
X2239000Y5701500D02*
X2239000Y5651500D01*
X2214000Y5676500D02*
X2264000Y5676500D01*
X2249000Y5074000D02*
X2249000Y5024000D01*
X2224000Y5049000D02*
X2274000Y5049000D01*
X2396500Y3876500D02*
X2396500Y3826500D01*
X2371500Y3851500D02*
X2421500Y3851500D01*
X2593000Y5119000D02*
X2593000Y5069000D01*
X2568000Y5094000D02*
X2618000Y5094000D01*
X2595000Y5704000D02*
X2595000Y5654000D01*
X2570000Y5679000D02*
X2620000Y5679000D01*
X2759000Y3791500D02*
X2759000Y3741500D01*
X2734000Y3766500D02*
X2784000Y3766500D01*
X3271800Y6602600D02*
X3271800Y6552600D01*
X3246800Y6577600D02*
X3296800Y6577600D01*
X3271800Y5231000D02*
X3271800Y5181000D01*
X3246800Y5206000D02*
X3296800Y5206000D01*
X3348000Y3481000D02*
X3348000Y3431000D01*
X3323000Y3456000D02*
X3373000Y3456000D01*
X764213Y5937787D02*
X764213Y5980213D01*
X721787Y5980213D01*
X721787Y5937787D01*
X764213Y5937787D01*
X822213Y4940787D02*
X822213Y4983213D01*
X779787Y4983213D01*
X779787Y4940787D01*
X822213Y4940787D01*
X969213Y5249787D02*
X969213Y5292213D01*
X926787Y5292213D01*
X926787Y5249787D01*
X969213Y5249787D01*
X1218213Y1450787D02*
X1218213Y1493213D01*
X1175787Y1493213D01*
X1175787Y1450787D01*
X1218213Y1450787D01*
X1227213Y3836787D02*
X1227213Y3879213D01*
X1184787Y3879213D01*
X1184787Y3836787D01*
X1227213Y3836787D01*
X1232213Y2771787D02*
X1232213Y2814213D01*
X1189787Y2814213D01*
X1189787Y2771787D01*
X1232213Y2771787D01*
X1517713Y227787D02*
X1517713Y270213D01*
X1475287Y270213D01*
X1475287Y227787D01*
X1517713Y227787D01*
X2425213Y1440787D02*
X2425213Y1483213D01*
X2382787Y1483213D01*
X2382787Y1440787D01*
X2425213Y1440787D01*
X4486213Y5719787D02*
X4486213Y5762213D01*
X4443787Y5762213D01*
X4443787Y5719787D01*
X4486213Y5719787D01*
X4513213Y2459787D02*
X4513213Y2502213D01*
X4470787Y2502213D01*
X4470787Y2459787D01*
X4513213Y2459787D01*
X4513213Y498787D02*
X4513213Y541213D01*
X4470787Y541213D01*
X4470787Y498787D01*
X4513213Y498787D01*
X4615213Y3407787D02*
X4615213Y3450213D01*
X4572787Y3450213D01*
X4572787Y3407787D01*
X4615213Y3407787D01*
X5557213Y4365787D02*
X5557213Y4408213D01*
X5514787Y4408213D01*
X5514787Y4365787D01*
X5557213Y4365787D01*
X5559213Y3700787D02*
X5559213Y3743213D01*
X5516787Y3743213D01*
X5516787Y3700787D01*
X5559213Y3700787D01*
X5970213Y2927787D02*
X5970213Y2970213D01*
X5927787Y2970213D01*
X5927787Y2927787D01*
X5970213Y2927787D01*
X5972213Y4859787D02*
X5972213Y4902213D01*
X5929787Y4902213D01*
X5929787Y4859787D01*
X5972213Y4859787D01*
X6170213Y487787D02*
X6170213Y530213D01*
X6127787Y530213D01*
X6127787Y487787D01*
X6170213Y487787D01*
X6329213Y3752787D02*
X6329213Y3795213D01*
X6286787Y3795213D01*
X6286787Y3752787D01*
X6329213Y3752787D01*
X6454213Y6775787D02*
X6454213Y6818213D01*
X6411787Y6818213D01*
X6411787Y6775787D01*
X6454213Y6775787D01*
X6454213Y5513787D02*
X6454213Y5556213D01*
X6411787Y5556213D01*
X6411787Y5513787D01*
X6454213Y5513787D01*
X6928213Y4673787D02*
X6928213Y4716213D01*
X6885787Y4716213D01*
X6885787Y4673787D01*
X6928213Y4673787D01*
X6971213Y2502787D02*
X6971213Y2545213D01*
X6928787Y2545213D01*
X6928787Y2502787D01*
X6971213Y2502787D01*
X7236213Y2945787D02*
X7236213Y2988213D01*
X7193787Y2988213D01*
X7193787Y2945787D01*
X7236213Y2945787D01*
X7283213Y5360787D02*
X7283213Y5403213D01*
X7240787Y5403213D01*
X7240787Y5360787D01*
X7283213Y5360787D01*
X7520213Y2046787D02*
X7520213Y2089213D01*
X7477787Y2089213D01*
X7477787Y2046787D01*
X7520213Y2046787D01*
X7525213Y1373787D02*
X7525213Y1416213D01*
X7482787Y1416213D01*
X7482787Y1373787D01*
X7525213Y1373787D01*
X7768213Y5546787D02*
X7768213Y5589213D01*
X7725787Y5589213D01*
X7725787Y5546787D01*
X7768213Y5546787D01*
X7773213Y4570787D02*
X7773213Y4613213D01*
X7730787Y4613213D01*
X7730787Y4570787D01*
X7773213Y4570787D01*
X7819213Y6471787D02*
X7819213Y6514213D01*
X7776787Y6514213D01*
X7776787Y6471787D01*
X7819213Y6471787D01*
X8483213Y2850787D02*
X8483213Y2893213D01*
X8440787Y2893213D01*
X8440787Y2850787D01*
X8483213Y2850787D01*
X8491213Y3595787D02*
X8491213Y3638213D01*
X8448787Y3638213D01*
X8448787Y3595787D01*
X8491213Y3595787D01*
X8498213Y5314787D02*
X8498213Y5357213D01*
X8455787Y5357213D01*
X8455787Y5314787D01*
X8498213Y5314787D01*
X8498213Y4562787D02*
X8498213Y4605213D01*
X8455787Y4605213D01*
X8455787Y4562787D01*
X8498213Y4562787D01*
X8717213Y2046787D02*
X8717213Y2089213D01*
X8674787Y2089213D01*
X8674787Y2046787D01*
X8717213Y2046787D01*
X8717213Y1373787D02*
X8717213Y1416213D01*
X8674787Y1416213D01*
X8674787Y1373787D01*
X8717213Y1373787D01*
X9861213Y3399787D02*
X9861213Y3442213D01*
X9818787Y3442213D01*
X9818787Y3399787D01*
X9861213Y3399787D01*
X7964000Y5825900D02*
X8002100Y5864000D01*
X7964000Y5902100D01*
X7925900Y5864000D01*
X7964000Y5825900D01*
X7964000Y2269900D02*
X8002100Y2308000D01*
X7964000Y2346100D01*
X7925900Y2308000D01*
X7964000Y2269900D01*
X8980000Y5825900D02*
X9018100Y5864000D01*
X8980000Y5902100D01*
X8941900Y5864000D01*
X8980000Y5825900D01*
X8980000Y2269900D02*
X9018100Y2308000D01*
X8980000Y2346100D01*
X8941900Y2308000D01*
X8980000Y2269900D01*
X4569160Y5346000D02*
X4649160Y5266000D01*
X4649160Y5346000D02*
X4569160Y5266000D01*
X4649160Y5306000D02*
G75*
G02*
X4569160Y5306000I-40000J0D01*
G01*
X4569160Y5306000D02*
G75*
G02*
X4649160Y5306000I40000J0D01*
G01*
X4569160Y5146000D02*
X4649160Y5066000D01*
X4649160Y5146000D02*
X4569160Y5066000D01*
X4649160Y5106000D02*
G75*
G02*
X4569160Y5106000I-40000J0D01*
G01*
X4569160Y5106000D02*
G75*
G02*
X4649160Y5106000I40000J0D01*
G01*
X4769160Y5346000D02*
X4849160Y5266000D01*
X4849160Y5346000D02*
X4769160Y5266000D01*
X4849160Y5306000D02*
G75*
G02*
X4769160Y5306000I-40000J0D01*
G01*
X4769160Y5306000D02*
G75*
G02*
X4849160Y5306000I40000J0D01*
G01*
X4769160Y5146000D02*
X4849160Y5066000D01*
X4849160Y5146000D02*
X4769160Y5066000D01*
X4849160Y5106000D02*
G75*
G02*
X4769160Y5106000I-40000J0D01*
G01*
X4769160Y5106000D02*
G75*
G02*
X4849160Y5106000I40000J0D01*
G01*
X4969160Y5346000D02*
X5049160Y5266000D01*
X5049160Y5346000D02*
X4969160Y5266000D01*
X5049160Y5306000D02*
G75*
G02*
X4969160Y5306000I-40000J0D01*
G01*
X4969160Y5306000D02*
G75*
G02*
X5049160Y5306000I40000J0D01*
G01*
X4969160Y5146000D02*
X5049160Y5066000D01*
X5049160Y5146000D02*
X4969160Y5066000D01*
X5049160Y5106000D02*
G75*
G02*
X4969160Y5106000I-40000J0D01*
G01*
X4969160Y5106000D02*
G75*
G02*
X5049160Y5106000I40000J0D01*
G01*
X5715000Y986500D02*
X5805000Y896500D01*
X5805000Y986500D02*
X5715000Y896500D01*
X5760000Y986500D02*
X5760000Y896500D01*
X5715000Y941500D02*
X5805000Y941500D01*
X5969000Y986500D02*
X6059000Y896500D01*
X6059000Y986500D02*
X5969000Y896500D01*
X6014000Y986500D02*
X6014000Y896500D01*
X5969000Y941500D02*
X6059000Y941500D01*
X1350500Y5268500D02*
X1445500Y5173500D01*
X1445500Y5268500D02*
X1350500Y5173500D01*
X1431588Y5187412D02*
X1431588Y5254588D01*
X1364412Y5254588D01*
X1364412Y5187412D01*
X1431588Y5187412D01*
X3101500Y4796500D02*
X3196500Y4701500D01*
X3196500Y4796500D02*
X3101500Y4701500D01*
X3182588Y4715412D02*
X3182588Y4782588D01*
X3115412Y4782588D01*
X3115412Y4715412D01*
X3182588Y4715412D01*
X3101500Y4046500D02*
X3196500Y3951500D01*
X3196500Y4046500D02*
X3101500Y3951500D01*
X3182588Y3965412D02*
X3182588Y4032588D01*
X3115412Y4032588D01*
X3115412Y3965412D01*
X3182588Y3965412D01*
X6346500Y987500D02*
X6441500Y892500D01*
X6441500Y987500D02*
X6346500Y892500D01*
X6427588Y906412D02*
X6427588Y973588D01*
X6360412Y973588D01*
X6360412Y906412D01*
X6427588Y906412D01*
X6714500Y977500D02*
X6809500Y882500D01*
X6809500Y977500D02*
X6714500Y882500D01*
X6795588Y896412D02*
X6795588Y963588D01*
X6728412Y963588D01*
X6728412Y896412D01*
X6795588Y896412D01*
X6860500Y5071500D02*
X6955500Y4976500D01*
X6955500Y5071500D02*
X6860500Y4976500D01*
X6941588Y4990412D02*
X6941588Y5057588D01*
X6874412Y5057588D01*
X6874412Y4990412D01*
X6941588Y4990412D01*
X377000Y6018000D02*
X477000Y5918000D01*
X477000Y6018000D02*
X377000Y5918000D01*
X427000Y5918000D02*
X477000Y5968000D01*
X427000Y6018000D01*
X377000Y5968000D01*
X427000Y5918000D01*
X377000Y5764000D02*
X477000Y5664000D01*
X477000Y5764000D02*
X377000Y5664000D01*
X427000Y5664000D02*
X477000Y5714000D01*
X427000Y5764000D01*
X377000Y5714000D01*
X427000Y5664000D01*
X377000Y5510000D02*
X477000Y5410000D01*
X477000Y5510000D02*
X377000Y5410000D01*
X427000Y5410000D02*
X477000Y5460000D01*
X427000Y5510000D01*
X377000Y5460000D01*
X427000Y5410000D01*
X377000Y5256000D02*
X477000Y5156000D01*
X477000Y5256000D02*
X377000Y5156000D01*
X427000Y5156000D02*
X477000Y5206000D01*
X427000Y5256000D01*
X377000Y5206000D01*
X427000Y5156000D01*
X377000Y5002000D02*
X477000Y4902000D01*
X477000Y5002000D02*
X377000Y4902000D01*
X427000Y4902000D02*
X477000Y4952000D01*
X427000Y5002000D01*
X377000Y4952000D01*
X427000Y4902000D01*
X377000Y4748000D02*
X477000Y4648000D01*
X477000Y4748000D02*
X377000Y4648000D01*
X427000Y4648000D02*
X477000Y4698000D01*
X427000Y4748000D01*
X377000Y4698000D01*
X427000Y4648000D01*
X377000Y4494000D02*
X477000Y4394000D01*
X477000Y4494000D02*
X377000Y4394000D01*
X427000Y4394000D02*
X477000Y4444000D01*
X427000Y4494000D01*
X377000Y4444000D01*
X427000Y4394000D01*
X377000Y4240000D02*
X477000Y4140000D01*
X477000Y4240000D02*
X377000Y4140000D01*
X427000Y4140000D02*
X477000Y4190000D01*
X427000Y4240000D01*
X377000Y4190000D01*
X427000Y4140000D01*
X377000Y3986000D02*
X477000Y3886000D01*
X477000Y3986000D02*
X377000Y3886000D01*
X427000Y3886000D02*
X477000Y3936000D01*
X427000Y3986000D01*
X377000Y3936000D01*
X427000Y3886000D01*
X377000Y3732000D02*
X477000Y3632000D01*
X477000Y3732000D02*
X377000Y3632000D01*
X427000Y3632000D02*
X477000Y3682000D01*
X427000Y3732000D01*
X377000Y3682000D01*
X427000Y3632000D01*
X377000Y3478000D02*
X477000Y3378000D01*
X477000Y3478000D02*
X377000Y3378000D01*
X427000Y3378000D02*
X477000Y3428000D01*
X427000Y3478000D01*
X377000Y3428000D01*
X427000Y3378000D01*
X377000Y3224000D02*
X477000Y3124000D01*
X477000Y3224000D02*
X377000Y3124000D01*
X427000Y3124000D02*
X477000Y3174000D01*
X427000Y3224000D01*
X377000Y3174000D01*
X427000Y3124000D01*
X377000Y2970000D02*
X477000Y2870000D01*
X477000Y2970000D02*
X377000Y2870000D01*
X427000Y2870000D02*
X477000Y2920000D01*
X427000Y2970000D01*
X377000Y2920000D01*
X427000Y2870000D01*
X377000Y2716000D02*
X477000Y2616000D01*
X477000Y2716000D02*
X377000Y2616000D01*
X427000Y2616000D02*
X477000Y2666000D01*
X427000Y2716000D01*
X377000Y2666000D01*
X427000Y2616000D01*
X377000Y2462000D02*
X477000Y2362000D01*
X477000Y2462000D02*
X377000Y2362000D01*
X427000Y2362000D02*
X477000Y2412000D01*
X427000Y2462000D01*
X377000Y2412000D01*
X427000Y2362000D01*
X377000Y2208000D02*
X477000Y2108000D01*
X477000Y2208000D02*
X377000Y2108000D01*
X427000Y2108000D02*
X477000Y2158000D01*
X427000Y2208000D01*
X377000Y2158000D01*
X427000Y2108000D01*
X377000Y1954000D02*
X477000Y1854000D01*
X477000Y1954000D02*
X377000Y1854000D01*
X427000Y1854000D02*
X477000Y1904000D01*
X427000Y1954000D01*
X377000Y1904000D01*
X427000Y1854000D01*
X377000Y1700000D02*
X477000Y1600000D01*
X477000Y1700000D02*
X377000Y1600000D01*
X427000Y1600000D02*
X477000Y1650000D01*
X427000Y1700000D01*
X377000Y1650000D01*
X427000Y1600000D01*
X377000Y1446000D02*
X477000Y1346000D01*
X477000Y1446000D02*
X377000Y1346000D01*
X427000Y1346000D02*
X477000Y1396000D01*
X427000Y1446000D01*
X377000Y1396000D01*
X427000Y1346000D01*
X377000Y1192000D02*
X477000Y1092000D01*
X477000Y1192000D02*
X377000Y1092000D01*
X427000Y1092000D02*
X477000Y1142000D01*
X427000Y1192000D01*
X377000Y1142000D01*
X427000Y1092000D01*
X7920000Y1073000D02*
X8020000Y973000D01*
X8020000Y1073000D02*
X7920000Y973000D01*
X7970000Y973000D02*
X8020000Y1023000D01*
X7970000Y1073000D01*
X7920000Y1023000D01*
X7970000Y973000D01*
X7920000Y547000D02*
X8020000Y447000D01*
X8020000Y547000D02*
X7920000Y447000D01*
X7970000Y447000D02*
X8020000Y497000D01*
X7970000Y547000D01*
X7920000Y497000D01*
X7970000Y447000D01*
X8676000Y1073000D02*
X8776000Y973000D01*
X8776000Y1073000D02*
X8676000Y973000D01*
X8726000Y973000D02*
X8776000Y1023000D01*
X8726000Y1073000D01*
X8676000Y1023000D01*
X8726000Y973000D01*
X8680000Y549000D02*
X8780000Y449000D01*
X8780000Y549000D02*
X8680000Y449000D01*
X8730000Y449000D02*
X8780000Y499000D01*
X8730000Y549000D01*
X8680000Y499000D01*
X8730000Y449000D01*
X9521000Y6018000D02*
X9621000Y5918000D01*
X9621000Y6018000D02*
X9521000Y5918000D01*
X9571000Y5918000D02*
X9621000Y5968000D01*
X9571000Y6018000D01*
X9521000Y5968000D01*
X9571000Y5918000D01*
X9521000Y5764000D02*
X9621000Y5664000D01*
X9621000Y5764000D02*
X9521000Y5664000D01*
X9571000Y5664000D02*
X9621000Y5714000D01*
X9571000Y5764000D01*
X9521000Y5714000D01*
X9571000Y5664000D01*
X9521000Y5510000D02*
X9621000Y5410000D01*
X9621000Y5510000D02*
X9521000Y5410000D01*
X9571000Y5410000D02*
X9621000Y5460000D01*
X9571000Y5510000D01*
X9521000Y5460000D01*
X9571000Y5410000D01*
X9521000Y5256000D02*
X9621000Y5156000D01*
X9621000Y5256000D02*
X9521000Y5156000D01*
X9571000Y5156000D02*
X9621000Y5206000D01*
X9571000Y5256000D01*
X9521000Y5206000D01*
X9571000Y5156000D01*
X9521000Y5002000D02*
X9621000Y4902000D01*
X9621000Y5002000D02*
X9521000Y4902000D01*
X9571000Y4902000D02*
X9621000Y4952000D01*
X9571000Y5002000D01*
X9521000Y4952000D01*
X9571000Y4902000D01*
X9521000Y4748000D02*
X9621000Y4648000D01*
X9621000Y4748000D02*
X9521000Y4648000D01*
X9571000Y4648000D02*
X9621000Y4698000D01*
X9571000Y4748000D01*
X9521000Y4698000D01*
X9571000Y4648000D01*
X9521000Y4494000D02*
X9621000Y4394000D01*
X9621000Y4494000D02*
X9521000Y4394000D01*
X9571000Y4394000D02*
X9621000Y4444000D01*
X9571000Y4494000D01*
X9521000Y4444000D01*
X9571000Y4394000D01*
X9521000Y4240000D02*
X9621000Y4140000D01*
X9621000Y4240000D02*
X9521000Y4140000D01*
X9571000Y4140000D02*
X9621000Y4190000D01*
X9571000Y4240000D01*
X9521000Y4190000D01*
X9571000Y4140000D01*
X9521000Y3986000D02*
X9621000Y3886000D01*
X9621000Y3986000D02*
X9521000Y3886000D01*
X9571000Y3886000D02*
X9621000Y3936000D01*
X9571000Y3986000D01*
X9521000Y3936000D01*
X9571000Y3886000D01*
X9521000Y3732000D02*
X9621000Y3632000D01*
X9621000Y3732000D02*
X9521000Y3632000D01*
X9571000Y3632000D02*
X9621000Y3682000D01*
X9571000Y3732000D01*
X9521000Y3682000D01*
X9571000Y3632000D01*
X9521000Y3478000D02*
X9621000Y3378000D01*
X9621000Y3478000D02*
X9521000Y3378000D01*
X9571000Y3378000D02*
X9621000Y3428000D01*
X9571000Y3478000D01*
X9521000Y3428000D01*
X9571000Y3378000D01*
X9521000Y3224000D02*
X9621000Y3124000D01*
X9621000Y3224000D02*
X9521000Y3124000D01*
X9571000Y3124000D02*
X9621000Y3174000D01*
X9571000Y3224000D01*
X9521000Y3174000D01*
X9571000Y3124000D01*
X9521000Y2970000D02*
X9621000Y2870000D01*
X9621000Y2970000D02*
X9521000Y2870000D01*
X9571000Y2870000D02*
X9621000Y2920000D01*
X9571000Y2970000D01*
X9521000Y2920000D01*
X9571000Y2870000D01*
X9521000Y2716000D02*
X9621000Y2616000D01*
X9621000Y2716000D02*
X9521000Y2616000D01*
X9571000Y2616000D02*
X9621000Y2666000D01*
X9571000Y2716000D01*
X9521000Y2666000D01*
X9571000Y2616000D01*
X9521000Y2462000D02*
X9621000Y2362000D01*
X9621000Y2462000D02*
X9521000Y2362000D01*
X9571000Y2362000D02*
X9621000Y2412000D01*
X9571000Y2462000D01*
X9521000Y2412000D01*
X9571000Y2362000D01*
X9521000Y2208000D02*
X9621000Y2108000D01*
X9621000Y2208000D02*
X9521000Y2108000D01*
X9571000Y2108000D02*
X9621000Y2158000D01*
X9571000Y2208000D01*
X9521000Y2158000D01*
X9571000Y2108000D01*
X9521000Y1954000D02*
X9621000Y1854000D01*
X9621000Y1954000D02*
X9521000Y1854000D01*
X9571000Y1854000D02*
X9621000Y1904000D01*
X9571000Y1954000D01*
X9521000Y1904000D01*
X9571000Y1854000D01*
X9521000Y1700000D02*
X9621000Y1600000D01*
X9621000Y1700000D02*
X9521000Y1600000D01*
X9571000Y1600000D02*
X9621000Y1650000D01*
X9571000Y1700000D01*
X9521000Y1650000D01*
X9571000Y1600000D01*
X9521000Y1446000D02*
X9621000Y1346000D01*
X9621000Y1446000D02*
X9521000Y1346000D01*
X9571000Y1346000D02*
X9621000Y1396000D01*
X9571000Y1446000D01*
X9521000Y1396000D01*
X9571000Y1346000D01*
X9521000Y1192000D02*
X9621000Y1092000D01*
X9621000Y1192000D02*
X9521000Y1092000D01*
X9571000Y1092000D02*
X9621000Y1142000D01*
X9571000Y1192000D01*
X9521000Y1142000D01*
X9571000Y1092000D01*
D12*
X3299000Y2074800D02*
X3299000Y1973200D01*
X3248200Y2024000D02*
X3349800Y2024000D01*
X3349800Y2024000D02*
G75*
G02*
X3248200Y2024000I-50800J0D01*
G01*
X3248200Y2024000D02*
G75*
G02*
X3349800Y2024000I50800J0D01*
G01*
X3299000Y1820800D02*
X3299000Y1719200D01*
X3248200Y1770000D02*
X3349800Y1770000D01*
X3349800Y1770000D02*
G75*
G02*
X3248200Y1770000I-50800J0D01*
G01*
X3248200Y1770000D02*
G75*
G02*
X3349800Y1770000I50800J0D01*
G01*
X3299000Y1566800D02*
X3299000Y1465200D01*
X3248200Y1516000D02*
X3349800Y1516000D01*
X3349800Y1516000D02*
G75*
G02*
X3248200Y1516000I-50800J0D01*
G01*
X3248200Y1516000D02*
G75*
G02*
X3349800Y1516000I50800J0D01*
G01*
X3299000Y1312800D02*
X3299000Y1211200D01*
X3248200Y1262000D02*
X3349800Y1262000D01*
X3349800Y1262000D02*
G75*
G02*
X3248200Y1262000I-50800J0D01*
G01*
X3248200Y1262000D02*
G75*
G02*
X3349800Y1262000I50800J0D01*
G01*
X3299000Y1058800D02*
X3299000Y957200D01*
X3248200Y1008000D02*
X3349800Y1008000D01*
X3349800Y1008000D02*
G75*
G02*
X3248200Y1008000I-50800J0D01*
G01*
X3248200Y1008000D02*
G75*
G02*
X3349800Y1008000I50800J0D01*
G01*
X3299000Y804800D02*
X3299000Y703200D01*
X3248200Y754000D02*
X3349800Y754000D01*
X3349800Y754000D02*
G75*
G02*
X3248200Y754000I-50800J0D01*
G01*
X3248200Y754000D02*
G75*
G02*
X3349800Y754000I50800J0D01*
G01*
D13*
X1037891Y6510109D02*
X1037891Y6587891D01*
X960109Y6587891D01*
X960109Y6510109D01*
X1037891Y6510109D01*
X1054000Y6549000D02*
G75*
G02*
X944000Y6549000I-55000J0D01*
G01*
X944000Y6549000D02*
G75*
G02*
X1054000Y6549000I55000J0D01*
G01*
X1287891Y6510109D02*
X1287891Y6587891D01*
X1210109Y6587891D01*
X1210109Y6510109D01*
X1287891Y6510109D01*
X1304000Y6549000D02*
G75*
G02*
X1194000Y6549000I-55000J0D01*
G01*
X1194000Y6549000D02*
G75*
G02*
X1304000Y6549000I55000J0D01*
G01*
X1537891Y6510109D02*
X1537891Y6587891D01*
X1460109Y6587891D01*
X1460109Y6510109D01*
X1537891Y6510109D01*
X1554000Y6549000D02*
G75*
G02*
X1444000Y6549000I-55000J0D01*
G01*
X1444000Y6549000D02*
G75*
G02*
X1554000Y6549000I55000J0D01*
G01*
X1787891Y6510109D02*
X1787891Y6587891D01*
X1710109Y6587891D01*
X1710109Y6510109D01*
X1787891Y6510109D01*
X1804000Y6549000D02*
G75*
G02*
X1694000Y6549000I-55000J0D01*
G01*
X1694000Y6549000D02*
G75*
G02*
X1804000Y6549000I55000J0D01*
G01*
X2037891Y6510109D02*
X2037891Y6587891D01*
X1960109Y6587891D01*
X1960109Y6510109D01*
X2037891Y6510109D01*
X2054000Y6549000D02*
G75*
G02*
X1944000Y6549000I-55000J0D01*
G01*
X1944000Y6549000D02*
G75*
G02*
X2054000Y6549000I55000J0D01*
G01*
X3767891Y6564109D02*
X3767891Y6641891D01*
X3690109Y6641891D01*
X3690109Y6564109D01*
X3767891Y6564109D01*
X3784000Y6603000D02*
G75*
G02*
X3674000Y6603000I-55000J0D01*
G01*
X3674000Y6603000D02*
G75*
G02*
X3784000Y6603000I55000J0D01*
G01*
X3767891Y6310109D02*
X3767891Y6387891D01*
X3690109Y6387891D01*
X3690109Y6310109D01*
X3767891Y6310109D01*
X3784000Y6349000D02*
G75*
G02*
X3674000Y6349000I-55000J0D01*
G01*
X3674000Y6349000D02*
G75*
G02*
X3784000Y6349000I55000J0D01*
G01*
X3767891Y6056109D02*
X3767891Y6133891D01*
X3690109Y6133891D01*
X3690109Y6056109D01*
X3767891Y6056109D01*
X3784000Y6095000D02*
G75*
G02*
X3674000Y6095000I-55000J0D01*
G01*
X3674000Y6095000D02*
G75*
G02*
X3784000Y6095000I55000J0D01*
G01*
X3767891Y5802109D02*
X3767891Y5879891D01*
X3690109Y5879891D01*
X3690109Y5802109D01*
X3767891Y5802109D01*
X3784000Y5841000D02*
G75*
G02*
X3674000Y5841000I-55000J0D01*
G01*
X3674000Y5841000D02*
G75*
G02*
X3784000Y5841000I55000J0D01*
G01*
X3767891Y5548109D02*
X3767891Y5625891D01*
X3690109Y5625891D01*
X3690109Y5548109D01*
X3767891Y5548109D01*
X3784000Y5587000D02*
G75*
G02*
X3674000Y5587000I-55000J0D01*
G01*
X3674000Y5587000D02*
G75*
G02*
X3784000Y5587000I55000J0D01*
G01*
X3767891Y5294109D02*
X3767891Y5371891D01*
X3690109Y5371891D01*
X3690109Y5294109D01*
X3767891Y5294109D01*
X3784000Y5333000D02*
G75*
G02*
X3674000Y5333000I-55000J0D01*
G01*
X3674000Y5333000D02*
G75*
G02*
X3784000Y5333000I55000J0D01*
G01*
X3767891Y5040109D02*
X3767891Y5117891D01*
X3690109Y5117891D01*
X3690109Y5040109D01*
X3767891Y5040109D01*
X3784000Y5079000D02*
G75*
G02*
X3674000Y5079000I-55000J0D01*
G01*
X3674000Y5079000D02*
G75*
G02*
X3784000Y5079000I55000J0D01*
G01*
X3767891Y4786109D02*
X3767891Y4863891D01*
X3690109Y4863891D01*
X3690109Y4786109D01*
X3767891Y4786109D01*
X3784000Y4825000D02*
G75*
G02*
X3674000Y4825000I-55000J0D01*
G01*
X3674000Y4825000D02*
G75*
G02*
X3784000Y4825000I55000J0D01*
G01*
X3767891Y4532109D02*
X3767891Y4609891D01*
X3690109Y4609891D01*
X3690109Y4532109D01*
X3767891Y4532109D01*
X3784000Y4571000D02*
G75*
G02*
X3674000Y4571000I-55000J0D01*
G01*
X3674000Y4571000D02*
G75*
G02*
X3784000Y4571000I55000J0D01*
G01*
X3767891Y4278109D02*
X3767891Y4355891D01*
X3690109Y4355891D01*
X3690109Y4278109D01*
X3767891Y4278109D01*
X3784000Y4317000D02*
G75*
G02*
X3674000Y4317000I-55000J0D01*
G01*
X3674000Y4317000D02*
G75*
G02*
X3784000Y4317000I55000J0D01*
G01*
X3767891Y4024109D02*
X3767891Y4101891D01*
X3690109Y4101891D01*
X3690109Y4024109D01*
X3767891Y4024109D01*
X3784000Y4063000D02*
G75*
G02*
X3674000Y4063000I-55000J0D01*
G01*
X3674000Y4063000D02*
G75*
G02*
X3784000Y4063000I55000J0D01*
G01*
X3767891Y3770109D02*
X3767891Y3847891D01*
X3690109Y3847891D01*
X3690109Y3770109D01*
X3767891Y3770109D01*
X3784000Y3809000D02*
G75*
G02*
X3674000Y3809000I-55000J0D01*
G01*
X3674000Y3809000D02*
G75*
G02*
X3784000Y3809000I55000J0D01*
G01*
X3767891Y3516109D02*
X3767891Y3593891D01*
X3690109Y3593891D01*
X3690109Y3516109D01*
X3767891Y3516109D01*
X3784000Y3555000D02*
G75*
G02*
X3674000Y3555000I-55000J0D01*
G01*
X3674000Y3555000D02*
G75*
G02*
X3784000Y3555000I55000J0D01*
G01*
X3767891Y3262109D02*
X3767891Y3339891D01*
X3690109Y3339891D01*
X3690109Y3262109D01*
X3767891Y3262109D01*
X3784000Y3301000D02*
G75*
G02*
X3674000Y3301000I-55000J0D01*
G01*
X3674000Y3301000D02*
G75*
G02*
X3784000Y3301000I55000J0D01*
G01*
X3767891Y3008109D02*
X3767891Y3085891D01*
X3690109Y3085891D01*
X3690109Y3008109D01*
X3767891Y3008109D01*
X3784000Y3047000D02*
G75*
G02*
X3674000Y3047000I-55000J0D01*
G01*
X3674000Y3047000D02*
G75*
G02*
X3784000Y3047000I55000J0D01*
G01*
X3767891Y2754109D02*
X3767891Y2831891D01*
X3690109Y2831891D01*
X3690109Y2754109D01*
X3767891Y2754109D01*
X3784000Y2793000D02*
G75*
G02*
X3674000Y2793000I-55000J0D01*
G01*
X3674000Y2793000D02*
G75*
G02*
X3784000Y2793000I55000J0D01*
G01*
X3767891Y2500109D02*
X3767891Y2577891D01*
X3690109Y2577891D01*
X3690109Y2500109D01*
X3767891Y2500109D01*
X3784000Y2539000D02*
G75*
G02*
X3674000Y2539000I-55000J0D01*
G01*
X3674000Y2539000D02*
G75*
G02*
X3784000Y2539000I55000J0D01*
G01*
X3767891Y2246109D02*
X3767891Y2323891D01*
X3690109Y2323891D01*
X3690109Y2246109D01*
X3767891Y2246109D01*
X3784000Y2285000D02*
G75*
G02*
X3674000Y2285000I-55000J0D01*
G01*
X3674000Y2285000D02*
G75*
G02*
X3784000Y2285000I55000J0D01*
G01*
X3767891Y1992109D02*
X3767891Y2069891D01*
X3690109Y2069891D01*
X3690109Y1992109D01*
X3767891Y1992109D01*
X3784000Y2031000D02*
G75*
G02*
X3674000Y2031000I-55000J0D01*
G01*
X3674000Y2031000D02*
G75*
G02*
X3784000Y2031000I55000J0D01*
G01*
X3767891Y1738109D02*
X3767891Y1815891D01*
X3690109Y1815891D01*
X3690109Y1738109D01*
X3767891Y1738109D01*
X3784000Y1777000D02*
G75*
G02*
X3674000Y1777000I-55000J0D01*
G01*
X3674000Y1777000D02*
G75*
G02*
X3784000Y1777000I55000J0D01*
G01*
X3767891Y1484109D02*
X3767891Y1561891D01*
X3690109Y1561891D01*
X3690109Y1484109D01*
X3767891Y1484109D01*
X3784000Y1523000D02*
G75*
G02*
X3674000Y1523000I-55000J0D01*
G01*
X3674000Y1523000D02*
G75*
G02*
X3784000Y1523000I55000J0D01*
G01*
X3767891Y1230109D02*
X3767891Y1307891D01*
X3690109Y1307891D01*
X3690109Y1230109D01*
X3767891Y1230109D01*
X3784000Y1269000D02*
G75*
G02*
X3674000Y1269000I-55000J0D01*
G01*
X3674000Y1269000D02*
G75*
G02*
X3784000Y1269000I55000J0D01*
G01*
X3767891Y976109D02*
X3767891Y1053891D01*
X3690109Y1053891D01*
X3690109Y976109D01*
X3767891Y976109D01*
X3784000Y1015000D02*
G75*
G02*
X3674000Y1015000I-55000J0D01*
G01*
X3674000Y1015000D02*
G75*
G02*
X3784000Y1015000I55000J0D01*
G01*
X3767891Y722109D02*
X3767891Y799891D01*
X3690109Y799891D01*
X3690109Y722109D01*
X3767891Y722109D01*
X3784000Y761000D02*
G75*
G02*
X3674000Y761000I-55000J0D01*
G01*
X3674000Y761000D02*
G75*
G02*
X3784000Y761000I55000J0D01*
G01*
X4021891Y1992109D02*
X4021891Y2069891D01*
X3944109Y2069891D01*
X3944109Y1992109D01*
X4021891Y1992109D01*
X4038000Y2031000D02*
G75*
G02*
X3928000Y2031000I-55000J0D01*
G01*
X3928000Y2031000D02*
G75*
G02*
X4038000Y2031000I55000J0D01*
G01*
X4275891Y1992109D02*
X4275891Y2069891D01*
X4198109Y2069891D01*
X4198109Y1992109D01*
X4275891Y1992109D01*
X4292000Y2031000D02*
G75*
G02*
X4182000Y2031000I-55000J0D01*
G01*
X4182000Y2031000D02*
G75*
G02*
X4292000Y2031000I55000J0D01*
G01*
X4529891Y1992109D02*
X4529891Y2069891D01*
X4452109Y2069891D01*
X4452109Y1992109D01*
X4529891Y1992109D01*
X4546000Y2031000D02*
G75*
G02*
X4436000Y2031000I-55000J0D01*
G01*
X4436000Y2031000D02*
G75*
G02*
X4546000Y2031000I55000J0D01*
G01*
X4783891Y1992109D02*
X4783891Y2069891D01*
X4706109Y2069891D01*
X4706109Y1992109D01*
X4783891Y1992109D01*
X4800000Y2031000D02*
G75*
G02*
X4690000Y2031000I-55000J0D01*
G01*
X4690000Y2031000D02*
G75*
G02*
X4800000Y2031000I55000J0D01*
G01*
X5037891Y6310109D02*
X5037891Y6387891D01*
X4960109Y6387891D01*
X4960109Y6310109D01*
X5037891Y6310109D01*
X5054000Y6349000D02*
G75*
G02*
X4944000Y6349000I-55000J0D01*
G01*
X4944000Y6349000D02*
G75*
G02*
X5054000Y6349000I55000J0D01*
G01*
X5037891Y1992109D02*
X5037891Y2069891D01*
X4960109Y2069891D01*
X4960109Y1992109D01*
X5037891Y1992109D01*
X5054000Y2031000D02*
G75*
G02*
X4944000Y2031000I-55000J0D01*
G01*
X4944000Y2031000D02*
G75*
G02*
X5054000Y2031000I55000J0D01*
G01*
X5291891Y6564109D02*
X5291891Y6641891D01*
X5214109Y6641891D01*
X5214109Y6564109D01*
X5291891Y6564109D01*
X5308000Y6603000D02*
G75*
G02*
X5198000Y6603000I-55000J0D01*
G01*
X5198000Y6603000D02*
G75*
G02*
X5308000Y6603000I55000J0D01*
G01*
X5291891Y6310109D02*
X5291891Y6387891D01*
X5214109Y6387891D01*
X5214109Y6310109D01*
X5291891Y6310109D01*
X5308000Y6349000D02*
G75*
G02*
X5198000Y6349000I-55000J0D01*
G01*
X5198000Y6349000D02*
G75*
G02*
X5308000Y6349000I55000J0D01*
G01*
X5291891Y6056109D02*
X5291891Y6133891D01*
X5214109Y6133891D01*
X5214109Y6056109D01*
X5291891Y6056109D01*
X5308000Y6095000D02*
G75*
G02*
X5198000Y6095000I-55000J0D01*
G01*
X5198000Y6095000D02*
G75*
G02*
X5308000Y6095000I55000J0D01*
G01*
X5291891Y5802109D02*
X5291891Y5879891D01*
X5214109Y5879891D01*
X5214109Y5802109D01*
X5291891Y5802109D01*
X5308000Y5841000D02*
G75*
G02*
X5198000Y5841000I-55000J0D01*
G01*
X5198000Y5841000D02*
G75*
G02*
X5308000Y5841000I55000J0D01*
G01*
X5291891Y5548109D02*
X5291891Y5625891D01*
X5214109Y5625891D01*
X5214109Y5548109D01*
X5291891Y5548109D01*
X5308000Y5587000D02*
G75*
G02*
X5198000Y5587000I-55000J0D01*
G01*
X5198000Y5587000D02*
G75*
G02*
X5308000Y5587000I55000J0D01*
G01*
X5291891Y5294109D02*
X5291891Y5371891D01*
X5214109Y5371891D01*
X5214109Y5294109D01*
X5291891Y5294109D01*
X5308000Y5333000D02*
G75*
G02*
X5198000Y5333000I-55000J0D01*
G01*
X5198000Y5333000D02*
G75*
G02*
X5308000Y5333000I55000J0D01*
G01*
X5291891Y5040109D02*
X5291891Y5117891D01*
X5214109Y5117891D01*
X5214109Y5040109D01*
X5291891Y5040109D01*
X5308000Y5079000D02*
G75*
G02*
X5198000Y5079000I-55000J0D01*
G01*
X5198000Y5079000D02*
G75*
G02*
X5308000Y5079000I55000J0D01*
G01*
X5291891Y4786109D02*
X5291891Y4863891D01*
X5214109Y4863891D01*
X5214109Y4786109D01*
X5291891Y4786109D01*
X5308000Y4825000D02*
G75*
G02*
X5198000Y4825000I-55000J0D01*
G01*
X5198000Y4825000D02*
G75*
G02*
X5308000Y4825000I55000J0D01*
G01*
X5291891Y4532109D02*
X5291891Y4609891D01*
X5214109Y4609891D01*
X5214109Y4532109D01*
X5291891Y4532109D01*
X5308000Y4571000D02*
G75*
G02*
X5198000Y4571000I-55000J0D01*
G01*
X5198000Y4571000D02*
G75*
G02*
X5308000Y4571000I55000J0D01*
G01*
X5291891Y4278109D02*
X5291891Y4355891D01*
X5214109Y4355891D01*
X5214109Y4278109D01*
X5291891Y4278109D01*
X5308000Y4317000D02*
G75*
G02*
X5198000Y4317000I-55000J0D01*
G01*
X5198000Y4317000D02*
G75*
G02*
X5308000Y4317000I55000J0D01*
G01*
X5291891Y4024109D02*
X5291891Y4101891D01*
X5214109Y4101891D01*
X5214109Y4024109D01*
X5291891Y4024109D01*
X5308000Y4063000D02*
G75*
G02*
X5198000Y4063000I-55000J0D01*
G01*
X5198000Y4063000D02*
G75*
G02*
X5308000Y4063000I55000J0D01*
G01*
X5291891Y3770109D02*
X5291891Y3847891D01*
X5214109Y3847891D01*
X5214109Y3770109D01*
X5291891Y3770109D01*
X5308000Y3809000D02*
G75*
G02*
X5198000Y3809000I-55000J0D01*
G01*
X5198000Y3809000D02*
G75*
G02*
X5308000Y3809000I55000J0D01*
G01*
X5291891Y3516109D02*
X5291891Y3593891D01*
X5214109Y3593891D01*
X5214109Y3516109D01*
X5291891Y3516109D01*
X5308000Y3555000D02*
G75*
G02*
X5198000Y3555000I-55000J0D01*
G01*
X5198000Y3555000D02*
G75*
G02*
X5308000Y3555000I55000J0D01*
G01*
X5291891Y3262109D02*
X5291891Y3339891D01*
X5214109Y3339891D01*
X5214109Y3262109D01*
X5291891Y3262109D01*
X5308000Y3301000D02*
G75*
G02*
X5198000Y3301000I-55000J0D01*
G01*
X5198000Y3301000D02*
G75*
G02*
X5308000Y3301000I55000J0D01*
G01*
X5291891Y3008109D02*
X5291891Y3085891D01*
X5214109Y3085891D01*
X5214109Y3008109D01*
X5291891Y3008109D01*
X5308000Y3047000D02*
G75*
G02*
X5198000Y3047000I-55000J0D01*
G01*
X5198000Y3047000D02*
G75*
G02*
X5308000Y3047000I55000J0D01*
G01*
X5291891Y2754109D02*
X5291891Y2831891D01*
X5214109Y2831891D01*
X5214109Y2754109D01*
X5291891Y2754109D01*
X5308000Y2793000D02*
G75*
G02*
X5198000Y2793000I-55000J0D01*
G01*
X5198000Y2793000D02*
G75*
G02*
X5308000Y2793000I55000J0D01*
G01*
X5291891Y2500109D02*
X5291891Y2577891D01*
X5214109Y2577891D01*
X5214109Y2500109D01*
X5291891Y2500109D01*
X5308000Y2539000D02*
G75*
G02*
X5198000Y2539000I-55000J0D01*
G01*
X5198000Y2539000D02*
G75*
G02*
X5308000Y2539000I55000J0D01*
G01*
X5291891Y2246109D02*
X5291891Y2323891D01*
X5214109Y2323891D01*
X5214109Y2246109D01*
X5291891Y2246109D01*
X5308000Y2285000D02*
G75*
G02*
X5198000Y2285000I-55000J0D01*
G01*
X5198000Y2285000D02*
G75*
G02*
X5308000Y2285000I55000J0D01*
G01*
X5291891Y1992109D02*
X5291891Y2069891D01*
X5214109Y2069891D01*
X5214109Y1992109D01*
X5291891Y1992109D01*
X5308000Y2031000D02*
G75*
G02*
X5198000Y2031000I-55000J0D01*
G01*
X5198000Y2031000D02*
G75*
G02*
X5308000Y2031000I55000J0D01*
G01*
X5291891Y1738109D02*
X5291891Y1815891D01*
X5214109Y1815891D01*
X5214109Y1738109D01*
X5291891Y1738109D01*
X5308000Y1777000D02*
G75*
G02*
X5198000Y1777000I-55000J0D01*
G01*
X5198000Y1777000D02*
G75*
G02*
X5308000Y1777000I55000J0D01*
G01*
X5291891Y1484109D02*
X5291891Y1561891D01*
X5214109Y1561891D01*
X5214109Y1484109D01*
X5291891Y1484109D01*
X5308000Y1523000D02*
G75*
G02*
X5198000Y1523000I-55000J0D01*
G01*
X5198000Y1523000D02*
G75*
G02*
X5308000Y1523000I55000J0D01*
G01*
X5291891Y1230109D02*
X5291891Y1307891D01*
X5214109Y1307891D01*
X5214109Y1230109D01*
X5291891Y1230109D01*
X5308000Y1269000D02*
G75*
G02*
X5198000Y1269000I-55000J0D01*
G01*
X5198000Y1269000D02*
G75*
G02*
X5308000Y1269000I55000J0D01*
G01*
X5291891Y976109D02*
X5291891Y1053891D01*
X5214109Y1053891D01*
X5214109Y976109D01*
X5291891Y976109D01*
X5308000Y1015000D02*
G75*
G02*
X5198000Y1015000I-55000J0D01*
G01*
X5198000Y1015000D02*
G75*
G02*
X5308000Y1015000I55000J0D01*
G01*
X5291891Y722109D02*
X5291891Y799891D01*
X5214109Y799891D01*
X5214109Y722109D01*
X5291891Y722109D01*
X5308000Y761000D02*
G75*
G02*
X5198000Y761000I-55000J0D01*
G01*
X5198000Y761000D02*
G75*
G02*
X5308000Y761000I55000J0D01*
G01*
D11*
X244777Y-317484D02*
X244777Y-117484D01*
X244777Y-117484D02*
X292396Y-117484D01*
X292396Y-117484D02*
X320967Y-127008D01*
X320967Y-127008D02*
X340015Y-146055D01*
X340015Y-146055D02*
X349539Y-165103D01*
X349539Y-165103D02*
X359062Y-203198D01*
X359062Y-203198D02*
X359062Y-231769D01*
X359062Y-231769D02*
X349539Y-269865D01*
X349539Y-269865D02*
X340015Y-288912D01*
X340015Y-288912D02*
X320967Y-307960D01*
X320967Y-307960D02*
X292396Y-317484D01*
X292396Y-317484D02*
X244777Y-317484D01*
X444777Y-317484D02*
X444777Y-184150D01*
X444777Y-222246D02*
X454301Y-203198D01*
X454301Y-203198D02*
X463824Y-193674D01*
X463824Y-193674D02*
X482872Y-184150D01*
X482872Y-184150D02*
X501920Y-184150D01*
X568586Y-317484D02*
X568586Y-184150D01*
X568586Y-117484D02*
X559063Y-127008D01*
X559063Y-127008D02*
X568586Y-136531D01*
X568586Y-136531D02*
X578110Y-127008D01*
X578110Y-127008D02*
X568586Y-117484D01*
X568586Y-117484D02*
X568586Y-136531D01*
X692396Y-317484D02*
X673348Y-307960D01*
X673348Y-307960D02*
X663824Y-288912D01*
X663824Y-288912D02*
X663824Y-117484D01*
X797158Y-317484D02*
X778110Y-307960D01*
X778110Y-307960D02*
X768586Y-288912D01*
X768586Y-288912D02*
X768586Y-117484D01*
X1025729Y-317484D02*
X1025729Y-117484D01*
X1025729Y-117484D02*
X1092396Y-260341D01*
X1092396Y-260341D02*
X1159063Y-117484D01*
X1159063Y-117484D02*
X1159063Y-317484D01*
X1340015Y-317484D02*
X1340015Y-212722D01*
X1340015Y-212722D02*
X1330491Y-193674D01*
X1330491Y-193674D02*
X1311444Y-184150D01*
X1311444Y-184150D02*
X1273348Y-184150D01*
X1273348Y-184150D02*
X1254301Y-193674D01*
X1340015Y-307960D02*
X1320967Y-317484D01*
X1320967Y-317484D02*
X1273348Y-317484D01*
X1273348Y-317484D02*
X1254301Y-307960D01*
X1254301Y-307960D02*
X1244777Y-288912D01*
X1244777Y-288912D02*
X1244777Y-269865D01*
X1244777Y-269865D02*
X1254301Y-250817D01*
X1254301Y-250817D02*
X1273348Y-241293D01*
X1273348Y-241293D02*
X1320967Y-241293D01*
X1320967Y-241293D02*
X1340015Y-231769D01*
X1435253Y-184150D02*
X1435253Y-384150D01*
X1435253Y-193674D02*
X1454301Y-184150D01*
X1454301Y-184150D02*
X1492396Y-184150D01*
X1492396Y-184150D02*
X1511443Y-193674D01*
X1511443Y-193674D02*
X1520967Y-203198D01*
X1520967Y-203198D02*
X1530491Y-222246D01*
X1530491Y-222246D02*
X1530491Y-279389D01*
X1530491Y-279389D02*
X1520967Y-298436D01*
X1520967Y-298436D02*
X1511443Y-307960D01*
X1511443Y-307960D02*
X1492396Y-317484D01*
X1492396Y-317484D02*
X1454301Y-317484D01*
X1454301Y-317484D02*
X1435253Y-307960D01*
X1616205Y-298436D02*
X1625729Y-307960D01*
X1625729Y-307960D02*
X1616205Y-317484D01*
X1616205Y-317484D02*
X1606682Y-307960D01*
X1606682Y-307960D02*
X1616205Y-298436D01*
X1616205Y-298436D02*
X1616205Y-317484D01*
X1616205Y-193674D02*
X1625729Y-203198D01*
X1625729Y-203198D02*
X1616205Y-212722D01*
X1616205Y-212722D02*
X1606682Y-203198D01*
X1606682Y-203198D02*
X1616205Y-193674D01*
X1616205Y-193674D02*
X1616205Y-212722D01*
D10*
X-36000Y-636000D02*
X-16000Y-656000D01*
X-16000Y-636000D02*
X-36000Y-656000D01*
D11*
X282872Y-537484D02*
X301920Y-537484D01*
X301920Y-537484D02*
X320967Y-547008D01*
X320967Y-547008D02*
X330491Y-556531D01*
X330491Y-556531D02*
X340015Y-575579D01*
X340015Y-575579D02*
X349539Y-613674D01*
X349539Y-613674D02*
X349539Y-661293D01*
X349539Y-661293D02*
X340015Y-699388D01*
X340015Y-699388D02*
X330491Y-718436D01*
X330491Y-718436D02*
X320967Y-727960D01*
X320967Y-727960D02*
X301920Y-737484D01*
X301920Y-737484D02*
X282872Y-737484D01*
X282872Y-737484D02*
X263824Y-727960D01*
X263824Y-727960D02*
X254301Y-718436D01*
X254301Y-718436D02*
X244777Y-699388D01*
X244777Y-699388D02*
X235253Y-661293D01*
X235253Y-661293D02*
X235253Y-613674D01*
X235253Y-613674D02*
X244777Y-575579D01*
X244777Y-575579D02*
X254301Y-556531D01*
X254301Y-556531D02*
X263824Y-547008D01*
X263824Y-547008D02*
X282872Y-537484D01*
X435253Y-718436D02*
X444777Y-727960D01*
X444777Y-727960D02*
X435253Y-737484D01*
X435253Y-737484D02*
X425729Y-727960D01*
X425729Y-727960D02*
X435253Y-718436D01*
X435253Y-718436D02*
X435253Y-737484D01*
X520967Y-556531D02*
X530491Y-547008D01*
X530491Y-547008D02*
X549539Y-537484D01*
X549539Y-537484D02*
X597158Y-537484D01*
X597158Y-537484D02*
X616205Y-547008D01*
X616205Y-547008D02*
X625729Y-556531D01*
X625729Y-556531D02*
X635253Y-575579D01*
X635253Y-575579D02*
X635253Y-594627D01*
X635253Y-594627D02*
X625729Y-623198D01*
X625729Y-623198D02*
X511443Y-737484D01*
X511443Y-737484D02*
X635253Y-737484D01*
X759062Y-537484D02*
X778110Y-537484D01*
X778110Y-537484D02*
X797158Y-547008D01*
X797158Y-547008D02*
X806682Y-556531D01*
X806682Y-556531D02*
X816205Y-575579D01*
X816205Y-575579D02*
X825729Y-613674D01*
X825729Y-613674D02*
X825729Y-661293D01*
X825729Y-661293D02*
X816205Y-699388D01*
X816205Y-699388D02*
X806682Y-718436D01*
X806682Y-718436D02*
X797158Y-727960D01*
X797158Y-727960D02*
X778110Y-737484D01*
X778110Y-737484D02*
X759062Y-737484D01*
X759062Y-737484D02*
X740015Y-727960D01*
X740015Y-727960D02*
X730491Y-718436D01*
X730491Y-718436D02*
X720967Y-699388D01*
X720967Y-699388D02*
X711443Y-661293D01*
X711443Y-661293D02*
X711443Y-613674D01*
X711443Y-613674D02*
X720967Y-575579D01*
X720967Y-575579D02*
X730491Y-556531D01*
X730491Y-556531D02*
X740015Y-547008D01*
X740015Y-547008D02*
X759062Y-537484D01*
X949539Y-537484D02*
X968586Y-537484D01*
X968586Y-537484D02*
X987634Y-547008D01*
X987634Y-547008D02*
X997158Y-556531D01*
X997158Y-556531D02*
X1006682Y-575579D01*
X1006682Y-575579D02*
X1016205Y-613674D01*
X1016205Y-613674D02*
X1016205Y-661293D01*
X1016205Y-661293D02*
X1006682Y-699388D01*
X1006682Y-699388D02*
X997158Y-718436D01*
X997158Y-718436D02*
X987634Y-727960D01*
X987634Y-727960D02*
X968586Y-737484D01*
X968586Y-737484D02*
X949539Y-737484D01*
X949539Y-737484D02*
X930491Y-727960D01*
X930491Y-727960D02*
X920967Y-718436D01*
X920967Y-718436D02*
X911443Y-699388D01*
X911443Y-699388D02*
X901920Y-661293D01*
X901920Y-661293D02*
X901920Y-613674D01*
X901920Y-613674D02*
X911443Y-575579D01*
X911443Y-575579D02*
X920967Y-556531D01*
X920967Y-556531D02*
X930491Y-547008D01*
X930491Y-547008D02*
X949539Y-537484D01*
X1101920Y-737484D02*
X1101920Y-604150D01*
X1101920Y-623198D02*
X1111444Y-613674D01*
X1111444Y-613674D02*
X1130491Y-604150D01*
X1130491Y-604150D02*
X1159063Y-604150D01*
X1159063Y-604150D02*
X1178110Y-613674D01*
X1178110Y-613674D02*
X1187634Y-632722D01*
X1187634Y-632722D02*
X1187634Y-737484D01*
X1187634Y-632722D02*
X1197158Y-613674D01*
X1197158Y-613674D02*
X1216205Y-604150D01*
X1216205Y-604150D02*
X1244777Y-604150D01*
X1244777Y-604150D02*
X1263825Y-613674D01*
X1263825Y-613674D02*
X1273348Y-632722D01*
X1273348Y-632722D02*
X1273348Y-737484D01*
X1368586Y-737484D02*
X1368586Y-604150D01*
X1368586Y-623198D02*
X1378110Y-613674D01*
X1378110Y-613674D02*
X1397158Y-604150D01*
X1397158Y-604150D02*
X1425729Y-604150D01*
X1425729Y-604150D02*
X1444777Y-613674D01*
X1444777Y-613674D02*
X1454301Y-632722D01*
X1454301Y-632722D02*
X1454301Y-737484D01*
X1454301Y-632722D02*
X1463824Y-613674D01*
X1463824Y-613674D02*
X1482872Y-604150D01*
X1482872Y-604150D02*
X1511443Y-604150D01*
X1511443Y-604150D02*
X1530491Y-613674D01*
X1530491Y-613674D02*
X1540015Y-632722D01*
X1540015Y-632722D02*
X1540015Y-737484D01*
X1930491Y-527960D02*
X1759063Y-785103D01*
X2187634Y-537484D02*
X2206682Y-537484D01*
X2206682Y-537484D02*
X2225729Y-547008D01*
X2225729Y-547008D02*
X2235253Y-556531D01*
X2235253Y-556531D02*
X2244777Y-575579D01*
X2244777Y-575579D02*
X2254301Y-613674D01*
X2254301Y-613674D02*
X2254301Y-661293D01*
X2254301Y-661293D02*
X2244777Y-699388D01*
X2244777Y-699388D02*
X2235253Y-718436D01*
X2235253Y-718436D02*
X2225729Y-727960D01*
X2225729Y-727960D02*
X2206682Y-737484D01*
X2206682Y-737484D02*
X2187634Y-737484D01*
X2187634Y-737484D02*
X2168587Y-727960D01*
X2168587Y-727960D02*
X2159063Y-718436D01*
X2159063Y-718436D02*
X2149539Y-699388D01*
X2149539Y-699388D02*
X2140015Y-661293D01*
X2140015Y-661293D02*
X2140015Y-613674D01*
X2140015Y-613674D02*
X2149539Y-575579D01*
X2149539Y-575579D02*
X2159063Y-556531D01*
X2159063Y-556531D02*
X2168587Y-547008D01*
X2168587Y-547008D02*
X2187634Y-537484D01*
X2340015Y-718436D02*
X2349539Y-727960D01*
X2349539Y-727960D02*
X2340015Y-737484D01*
X2340015Y-737484D02*
X2330491Y-727960D01*
X2330491Y-727960D02*
X2340015Y-718436D01*
X2340015Y-718436D02*
X2340015Y-737484D01*
X2473348Y-537484D02*
X2492396Y-537484D01*
X2492396Y-537484D02*
X2511444Y-547008D01*
X2511444Y-547008D02*
X2520968Y-556531D01*
X2520968Y-556531D02*
X2530491Y-575579D01*
X2530491Y-575579D02*
X2540015Y-613674D01*
X2540015Y-613674D02*
X2540015Y-661293D01*
X2540015Y-661293D02*
X2530491Y-699388D01*
X2530491Y-699388D02*
X2520968Y-718436D01*
X2520968Y-718436D02*
X2511444Y-727960D01*
X2511444Y-727960D02*
X2492396Y-737484D01*
X2492396Y-737484D02*
X2473348Y-737484D01*
X2473348Y-737484D02*
X2454301Y-727960D01*
X2454301Y-727960D02*
X2444777Y-718436D01*
X2444777Y-718436D02*
X2435253Y-699388D01*
X2435253Y-699388D02*
X2425729Y-661293D01*
X2425729Y-661293D02*
X2425729Y-613674D01*
X2425729Y-613674D02*
X2435253Y-575579D01*
X2435253Y-575579D02*
X2444777Y-556531D01*
X2444777Y-556531D02*
X2454301Y-547008D01*
X2454301Y-547008D02*
X2473348Y-537484D01*
X2663825Y-537484D02*
X2682872Y-537484D01*
X2682872Y-537484D02*
X2701920Y-547008D01*
X2701920Y-547008D02*
X2711444Y-556531D01*
X2711444Y-556531D02*
X2720968Y-575579D01*
X2720968Y-575579D02*
X2730491Y-613674D01*
X2730491Y-613674D02*
X2730491Y-661293D01*
X2730491Y-661293D02*
X2720968Y-699388D01*
X2720968Y-699388D02*
X2711444Y-718436D01*
X2711444Y-718436D02*
X2701920Y-727960D01*
X2701920Y-727960D02*
X2682872Y-737484D01*
X2682872Y-737484D02*
X2663825Y-737484D01*
X2663825Y-737484D02*
X2644777Y-727960D01*
X2644777Y-727960D02*
X2635253Y-718436D01*
X2635253Y-718436D02*
X2625729Y-699388D01*
X2625729Y-699388D02*
X2616206Y-661293D01*
X2616206Y-661293D02*
X2616206Y-613674D01*
X2616206Y-613674D02*
X2625729Y-575579D01*
X2625729Y-575579D02*
X2635253Y-556531D01*
X2635253Y-556531D02*
X2644777Y-547008D01*
X2644777Y-547008D02*
X2663825Y-537484D01*
X2797158Y-537484D02*
X2930491Y-537484D01*
X2930491Y-537484D02*
X2844777Y-737484D01*
X3016206Y-737484D02*
X3054301Y-737484D01*
X3054301Y-737484D02*
X3073348Y-727960D01*
X3073348Y-727960D02*
X3082872Y-718436D01*
X3082872Y-718436D02*
X3101920Y-689865D01*
X3101920Y-689865D02*
X3111444Y-651770D01*
X3111444Y-651770D02*
X3111444Y-575579D01*
X3111444Y-575579D02*
X3101920Y-556531D01*
X3101920Y-556531D02*
X3092396Y-547008D01*
X3092396Y-547008D02*
X3073348Y-537484D01*
X3073348Y-537484D02*
X3035253Y-537484D01*
X3035253Y-537484D02*
X3016206Y-547008D01*
X3016206Y-547008D02*
X3006682Y-556531D01*
X3006682Y-556531D02*
X2997158Y-575579D01*
X2997158Y-575579D02*
X2997158Y-623198D01*
X2997158Y-623198D02*
X3006682Y-642246D01*
X3006682Y-642246D02*
X3016206Y-651770D01*
X3016206Y-651770D02*
X3035253Y-661293D01*
X3035253Y-661293D02*
X3073348Y-661293D01*
X3073348Y-661293D02*
X3092396Y-651770D01*
X3092396Y-651770D02*
X3101920Y-642246D01*
X3101920Y-642246D02*
X3111444Y-623198D01*
X3187634Y-537484D02*
X3187634Y-575579D01*
X3263825Y-537484D02*
X3263825Y-575579D01*
X3559063Y-813674D02*
X3549539Y-804150D01*
X3549539Y-804150D02*
X3530491Y-775579D01*
X3530491Y-775579D02*
X3520968Y-756531D01*
X3520968Y-756531D02*
X3511444Y-727960D01*
X3511444Y-727960D02*
X3501920Y-680341D01*
X3501920Y-680341D02*
X3501920Y-642246D01*
X3501920Y-642246D02*
X3511444Y-594627D01*
X3511444Y-594627D02*
X3520968Y-566055D01*
X3520968Y-566055D02*
X3530491Y-547008D01*
X3530491Y-547008D02*
X3549539Y-518436D01*
X3549539Y-518436D02*
X3559063Y-508912D01*
X3730491Y-537484D02*
X3635253Y-537484D01*
X3635253Y-537484D02*
X3625729Y-632722D01*
X3625729Y-632722D02*
X3635253Y-623198D01*
X3635253Y-623198D02*
X3654301Y-613674D01*
X3654301Y-613674D02*
X3701920Y-613674D01*
X3701920Y-613674D02*
X3720968Y-623198D01*
X3720968Y-623198D02*
X3730491Y-632722D01*
X3730491Y-632722D02*
X3740015Y-651770D01*
X3740015Y-651770D02*
X3740015Y-699388D01*
X3740015Y-699388D02*
X3730491Y-718436D01*
X3730491Y-718436D02*
X3720968Y-727960D01*
X3720968Y-727960D02*
X3701920Y-737484D01*
X3701920Y-737484D02*
X3654301Y-737484D01*
X3654301Y-737484D02*
X3635253Y-727960D01*
X3635253Y-727960D02*
X3625729Y-718436D01*
X3911444Y-537484D02*
X3873348Y-537484D01*
X3873348Y-537484D02*
X3854301Y-547008D01*
X3854301Y-547008D02*
X3844777Y-556531D01*
X3844777Y-556531D02*
X3825729Y-585103D01*
X3825729Y-585103D02*
X3816206Y-623198D01*
X3816206Y-623198D02*
X3816206Y-699388D01*
X3816206Y-699388D02*
X3825729Y-718436D01*
X3825729Y-718436D02*
X3835253Y-727960D01*
X3835253Y-727960D02*
X3854301Y-737484D01*
X3854301Y-737484D02*
X3892396Y-737484D01*
X3892396Y-737484D02*
X3911444Y-727960D01*
X3911444Y-727960D02*
X3920968Y-718436D01*
X3920968Y-718436D02*
X3930491Y-699388D01*
X3930491Y-699388D02*
X3930491Y-651770D01*
X3930491Y-651770D02*
X3920968Y-632722D01*
X3920968Y-632722D02*
X3911444Y-623198D01*
X3911444Y-623198D02*
X3892396Y-613674D01*
X3892396Y-613674D02*
X3854301Y-613674D01*
X3854301Y-613674D02*
X3835253Y-623198D01*
X3835253Y-623198D02*
X3825729Y-632722D01*
X3825729Y-632722D02*
X3816206Y-651770D01*
X4168587Y-737484D02*
X4168587Y-537484D01*
X4254301Y-737484D02*
X4254301Y-632722D01*
X4254301Y-632722D02*
X4244777Y-613674D01*
X4244777Y-613674D02*
X4225730Y-604150D01*
X4225730Y-604150D02*
X4197158Y-604150D01*
X4197158Y-604150D02*
X4178110Y-613674D01*
X4178110Y-613674D02*
X4168587Y-623198D01*
X4378111Y-737484D02*
X4359063Y-727960D01*
X4359063Y-727960D02*
X4349539Y-718436D01*
X4349539Y-718436D02*
X4340015Y-699388D01*
X4340015Y-699388D02*
X4340015Y-642246D01*
X4340015Y-642246D02*
X4349539Y-623198D01*
X4349539Y-623198D02*
X4359063Y-613674D01*
X4359063Y-613674D02*
X4378111Y-604150D01*
X4378111Y-604150D02*
X4406682Y-604150D01*
X4406682Y-604150D02*
X4425730Y-613674D01*
X4425730Y-613674D02*
X4435253Y-623198D01*
X4435253Y-623198D02*
X4444777Y-642246D01*
X4444777Y-642246D02*
X4444777Y-699388D01*
X4444777Y-699388D02*
X4435253Y-718436D01*
X4435253Y-718436D02*
X4425730Y-727960D01*
X4425730Y-727960D02*
X4406682Y-737484D01*
X4406682Y-737484D02*
X4378111Y-737484D01*
X4559063Y-737484D02*
X4540015Y-727960D01*
X4540015Y-727960D02*
X4530492Y-708912D01*
X4530492Y-708912D02*
X4530492Y-537484D01*
X4711444Y-727960D02*
X4692396Y-737484D01*
X4692396Y-737484D02*
X4654301Y-737484D01*
X4654301Y-737484D02*
X4635253Y-727960D01*
X4635253Y-727960D02*
X4625730Y-708912D01*
X4625730Y-708912D02*
X4625730Y-632722D01*
X4625730Y-632722D02*
X4635253Y-613674D01*
X4635253Y-613674D02*
X4654301Y-604150D01*
X4654301Y-604150D02*
X4692396Y-604150D01*
X4692396Y-604150D02*
X4711444Y-613674D01*
X4711444Y-613674D02*
X4720968Y-632722D01*
X4720968Y-632722D02*
X4720968Y-651770D01*
X4720968Y-651770D02*
X4625730Y-670817D01*
X4797158Y-727960D02*
X4816206Y-737484D01*
X4816206Y-737484D02*
X4854301Y-737484D01*
X4854301Y-737484D02*
X4873349Y-727960D01*
X4873349Y-727960D02*
X4882873Y-708912D01*
X4882873Y-708912D02*
X4882873Y-699388D01*
X4882873Y-699388D02*
X4873349Y-680341D01*
X4873349Y-680341D02*
X4854301Y-670817D01*
X4854301Y-670817D02*
X4825730Y-670817D01*
X4825730Y-670817D02*
X4806682Y-661293D01*
X4806682Y-661293D02*
X4797158Y-642246D01*
X4797158Y-642246D02*
X4797158Y-632722D01*
X4797158Y-632722D02*
X4806682Y-613674D01*
X4806682Y-613674D02*
X4825730Y-604150D01*
X4825730Y-604150D02*
X4854301Y-604150D01*
X4854301Y-604150D02*
X4873349Y-613674D01*
X4949539Y-813674D02*
X4959063Y-804150D01*
X4959063Y-804150D02*
X4978111Y-775579D01*
X4978111Y-775579D02*
X4987634Y-756531D01*
X4987634Y-756531D02*
X4997158Y-727960D01*
X4997158Y-727960D02*
X5006682Y-680341D01*
X5006682Y-680341D02*
X5006682Y-642246D01*
X5006682Y-642246D02*
X4997158Y-594627D01*
X4997158Y-594627D02*
X4987634Y-566055D01*
X4987634Y-566055D02*
X4978111Y-547008D01*
X4978111Y-547008D02*
X4959063Y-518436D01*
X4959063Y-518436D02*
X4949539Y-508912D01*
D10*
X-16000Y-910000D02*
G75*
G02*
X-56000Y-910000I-20000J0D01*
G01*
X-56000Y-910000D02*
G75*
G02*
X-16000Y-910000I20000J0D01*
G01*
D11*
X282872Y-801484D02*
X301920Y-801484D01*
X301920Y-801484D02*
X320967Y-811008D01*
X320967Y-811008D02*
X330491Y-820531D01*
X330491Y-820531D02*
X340015Y-839579D01*
X340015Y-839579D02*
X349539Y-877674D01*
X349539Y-877674D02*
X349539Y-925293D01*
X349539Y-925293D02*
X340015Y-963388D01*
X340015Y-963388D02*
X330491Y-982436D01*
X330491Y-982436D02*
X320967Y-991960D01*
X320967Y-991960D02*
X301920Y-1001484D01*
X301920Y-1001484D02*
X282872Y-1001484D01*
X282872Y-1001484D02*
X263824Y-991960D01*
X263824Y-991960D02*
X254301Y-982436D01*
X254301Y-982436D02*
X244777Y-963388D01*
X244777Y-963388D02*
X235253Y-925293D01*
X235253Y-925293D02*
X235253Y-877674D01*
X235253Y-877674D02*
X244777Y-839579D01*
X244777Y-839579D02*
X254301Y-820531D01*
X254301Y-820531D02*
X263824Y-811008D01*
X263824Y-811008D02*
X282872Y-801484D01*
X435253Y-982436D02*
X444777Y-991960D01*
X444777Y-991960D02*
X435253Y-1001484D01*
X435253Y-1001484D02*
X425729Y-991960D01*
X425729Y-991960D02*
X435253Y-982436D01*
X435253Y-982436D02*
X435253Y-1001484D01*
X616205Y-868150D02*
X616205Y-1001484D01*
X568586Y-791960D02*
X520967Y-934817D01*
X520967Y-934817D02*
X644777Y-934817D01*
X759062Y-801484D02*
X778110Y-801484D01*
X778110Y-801484D02*
X797158Y-811008D01*
X797158Y-811008D02*
X806682Y-820531D01*
X806682Y-820531D02*
X816205Y-839579D01*
X816205Y-839579D02*
X825729Y-877674D01*
X825729Y-877674D02*
X825729Y-925293D01*
X825729Y-925293D02*
X816205Y-963388D01*
X816205Y-963388D02*
X806682Y-982436D01*
X806682Y-982436D02*
X797158Y-991960D01*
X797158Y-991960D02*
X778110Y-1001484D01*
X778110Y-1001484D02*
X759062Y-1001484D01*
X759062Y-1001484D02*
X740015Y-991960D01*
X740015Y-991960D02*
X730491Y-982436D01*
X730491Y-982436D02*
X720967Y-963388D01*
X720967Y-963388D02*
X711443Y-925293D01*
X711443Y-925293D02*
X711443Y-877674D01*
X711443Y-877674D02*
X720967Y-839579D01*
X720967Y-839579D02*
X730491Y-820531D01*
X730491Y-820531D02*
X740015Y-811008D01*
X740015Y-811008D02*
X759062Y-801484D01*
X949539Y-801484D02*
X968586Y-801484D01*
X968586Y-801484D02*
X987634Y-811008D01*
X987634Y-811008D02*
X997158Y-820531D01*
X997158Y-820531D02*
X1006682Y-839579D01*
X1006682Y-839579D02*
X1016205Y-877674D01*
X1016205Y-877674D02*
X1016205Y-925293D01*
X1016205Y-925293D02*
X1006682Y-963388D01*
X1006682Y-963388D02*
X997158Y-982436D01*
X997158Y-982436D02*
X987634Y-991960D01*
X987634Y-991960D02*
X968586Y-1001484D01*
X968586Y-1001484D02*
X949539Y-1001484D01*
X949539Y-1001484D02*
X930491Y-991960D01*
X930491Y-991960D02*
X920967Y-982436D01*
X920967Y-982436D02*
X911443Y-963388D01*
X911443Y-963388D02*
X901920Y-925293D01*
X901920Y-925293D02*
X901920Y-877674D01*
X901920Y-877674D02*
X911443Y-839579D01*
X911443Y-839579D02*
X920967Y-820531D01*
X920967Y-820531D02*
X930491Y-811008D01*
X930491Y-811008D02*
X949539Y-801484D01*
X1101920Y-1001484D02*
X1101920Y-868150D01*
X1101920Y-887198D02*
X1111444Y-877674D01*
X1111444Y-877674D02*
X1130491Y-868150D01*
X1130491Y-868150D02*
X1159063Y-868150D01*
X1159063Y-868150D02*
X1178110Y-877674D01*
X1178110Y-877674D02*
X1187634Y-896722D01*
X1187634Y-896722D02*
X1187634Y-1001484D01*
X1187634Y-896722D02*
X1197158Y-877674D01*
X1197158Y-877674D02*
X1216205Y-868150D01*
X1216205Y-868150D02*
X1244777Y-868150D01*
X1244777Y-868150D02*
X1263825Y-877674D01*
X1263825Y-877674D02*
X1273348Y-896722D01*
X1273348Y-896722D02*
X1273348Y-1001484D01*
X1368586Y-1001484D02*
X1368586Y-868150D01*
X1368586Y-887198D02*
X1378110Y-877674D01*
X1378110Y-877674D02*
X1397158Y-868150D01*
X1397158Y-868150D02*
X1425729Y-868150D01*
X1425729Y-868150D02*
X1444777Y-877674D01*
X1444777Y-877674D02*
X1454301Y-896722D01*
X1454301Y-896722D02*
X1454301Y-1001484D01*
X1454301Y-896722D02*
X1463824Y-877674D01*
X1463824Y-877674D02*
X1482872Y-868150D01*
X1482872Y-868150D02*
X1511443Y-868150D01*
X1511443Y-868150D02*
X1530491Y-877674D01*
X1530491Y-877674D02*
X1540015Y-896722D01*
X1540015Y-896722D02*
X1540015Y-1001484D01*
X1930491Y-791960D02*
X1759063Y-1049103D01*
X2187634Y-801484D02*
X2206682Y-801484D01*
X2206682Y-801484D02*
X2225729Y-811008D01*
X2225729Y-811008D02*
X2235253Y-820531D01*
X2235253Y-820531D02*
X2244777Y-839579D01*
X2244777Y-839579D02*
X2254301Y-877674D01*
X2254301Y-877674D02*
X2254301Y-925293D01*
X2254301Y-925293D02*
X2244777Y-963388D01*
X2244777Y-963388D02*
X2235253Y-982436D01*
X2235253Y-982436D02*
X2225729Y-991960D01*
X2225729Y-991960D02*
X2206682Y-1001484D01*
X2206682Y-1001484D02*
X2187634Y-1001484D01*
X2187634Y-1001484D02*
X2168587Y-991960D01*
X2168587Y-991960D02*
X2159063Y-982436D01*
X2159063Y-982436D02*
X2149539Y-963388D01*
X2149539Y-963388D02*
X2140015Y-925293D01*
X2140015Y-925293D02*
X2140015Y-877674D01*
X2140015Y-877674D02*
X2149539Y-839579D01*
X2149539Y-839579D02*
X2159063Y-820531D01*
X2159063Y-820531D02*
X2168587Y-811008D01*
X2168587Y-811008D02*
X2187634Y-801484D01*
X2340015Y-982436D02*
X2349539Y-991960D01*
X2349539Y-991960D02*
X2340015Y-1001484D01*
X2340015Y-1001484D02*
X2330491Y-991960D01*
X2330491Y-991960D02*
X2340015Y-982436D01*
X2340015Y-982436D02*
X2340015Y-1001484D01*
X2473348Y-801484D02*
X2492396Y-801484D01*
X2492396Y-801484D02*
X2511444Y-811008D01*
X2511444Y-811008D02*
X2520968Y-820531D01*
X2520968Y-820531D02*
X2530491Y-839579D01*
X2530491Y-839579D02*
X2540015Y-877674D01*
X2540015Y-877674D02*
X2540015Y-925293D01*
X2540015Y-925293D02*
X2530491Y-963388D01*
X2530491Y-963388D02*
X2520968Y-982436D01*
X2520968Y-982436D02*
X2511444Y-991960D01*
X2511444Y-991960D02*
X2492396Y-1001484D01*
X2492396Y-1001484D02*
X2473348Y-1001484D01*
X2473348Y-1001484D02*
X2454301Y-991960D01*
X2454301Y-991960D02*
X2444777Y-982436D01*
X2444777Y-982436D02*
X2435253Y-963388D01*
X2435253Y-963388D02*
X2425729Y-925293D01*
X2425729Y-925293D02*
X2425729Y-877674D01*
X2425729Y-877674D02*
X2435253Y-839579D01*
X2435253Y-839579D02*
X2444777Y-820531D01*
X2444777Y-820531D02*
X2454301Y-811008D01*
X2454301Y-811008D02*
X2473348Y-801484D01*
X2730491Y-1001484D02*
X2616206Y-1001484D01*
X2673348Y-1001484D02*
X2673348Y-801484D01*
X2673348Y-801484D02*
X2654301Y-830055D01*
X2654301Y-830055D02*
X2635253Y-849103D01*
X2635253Y-849103D02*
X2616206Y-858627D01*
X2911444Y-801484D02*
X2816206Y-801484D01*
X2816206Y-801484D02*
X2806682Y-896722D01*
X2806682Y-896722D02*
X2816206Y-887198D01*
X2816206Y-887198D02*
X2835253Y-877674D01*
X2835253Y-877674D02*
X2882872Y-877674D01*
X2882872Y-877674D02*
X2901920Y-887198D01*
X2901920Y-887198D02*
X2911444Y-896722D01*
X2911444Y-896722D02*
X2920967Y-915769D01*
X2920967Y-915769D02*
X2920967Y-963388D01*
X2920967Y-963388D02*
X2911444Y-982436D01*
X2911444Y-982436D02*
X2901920Y-991960D01*
X2901920Y-991960D02*
X2882872Y-1001484D01*
X2882872Y-1001484D02*
X2835253Y-1001484D01*
X2835253Y-1001484D02*
X2816206Y-991960D01*
X2816206Y-991960D02*
X2806682Y-982436D01*
X2987634Y-801484D02*
X3120967Y-801484D01*
X3120967Y-801484D02*
X3035253Y-1001484D01*
X3187634Y-801484D02*
X3187634Y-839579D01*
X3263825Y-801484D02*
X3263825Y-839579D01*
X3559063Y-1077674D02*
X3549539Y-1068150D01*
X3549539Y-1068150D02*
X3530491Y-1039579D01*
X3530491Y-1039579D02*
X3520968Y-1020531D01*
X3520968Y-1020531D02*
X3511444Y-991960D01*
X3511444Y-991960D02*
X3501920Y-944341D01*
X3501920Y-944341D02*
X3501920Y-906246D01*
X3501920Y-906246D02*
X3511444Y-858627D01*
X3511444Y-858627D02*
X3520968Y-830055D01*
X3520968Y-830055D02*
X3530491Y-811008D01*
X3530491Y-811008D02*
X3549539Y-782436D01*
X3549539Y-782436D02*
X3559063Y-772912D01*
X3740015Y-1001484D02*
X3625729Y-1001484D01*
X3682872Y-1001484D02*
X3682872Y-801484D01*
X3682872Y-801484D02*
X3663825Y-830055D01*
X3663825Y-830055D02*
X3644777Y-849103D01*
X3644777Y-849103D02*
X3625729Y-858627D01*
X3835253Y-1001484D02*
X3873348Y-1001484D01*
X3873348Y-1001484D02*
X3892396Y-991960D01*
X3892396Y-991960D02*
X3901920Y-982436D01*
X3901920Y-982436D02*
X3920968Y-953865D01*
X3920968Y-953865D02*
X3930491Y-915769D01*
X3930491Y-915769D02*
X3930491Y-839579D01*
X3930491Y-839579D02*
X3920968Y-820531D01*
X3920968Y-820531D02*
X3911444Y-811008D01*
X3911444Y-811008D02*
X3892396Y-801484D01*
X3892396Y-801484D02*
X3854301Y-801484D01*
X3854301Y-801484D02*
X3835253Y-811008D01*
X3835253Y-811008D02*
X3825729Y-820531D01*
X3825729Y-820531D02*
X3816206Y-839579D01*
X3816206Y-839579D02*
X3816206Y-887198D01*
X3816206Y-887198D02*
X3825729Y-906246D01*
X3825729Y-906246D02*
X3835253Y-915769D01*
X3835253Y-915769D02*
X3854301Y-925293D01*
X3854301Y-925293D02*
X3892396Y-925293D01*
X3892396Y-925293D02*
X3911444Y-915769D01*
X3911444Y-915769D02*
X3920968Y-906246D01*
X3920968Y-906246D02*
X3930491Y-887198D01*
X4168587Y-1001484D02*
X4168587Y-801484D01*
X4254301Y-1001484D02*
X4254301Y-896722D01*
X4254301Y-896722D02*
X4244777Y-877674D01*
X4244777Y-877674D02*
X4225730Y-868150D01*
X4225730Y-868150D02*
X4197158Y-868150D01*
X4197158Y-868150D02*
X4178110Y-877674D01*
X4178110Y-877674D02*
X4168587Y-887198D01*
X4378111Y-1001484D02*
X4359063Y-991960D01*
X4359063Y-991960D02*
X4349539Y-982436D01*
X4349539Y-982436D02*
X4340015Y-963388D01*
X4340015Y-963388D02*
X4340015Y-906246D01*
X4340015Y-906246D02*
X4349539Y-887198D01*
X4349539Y-887198D02*
X4359063Y-877674D01*
X4359063Y-877674D02*
X4378111Y-868150D01*
X4378111Y-868150D02*
X4406682Y-868150D01*
X4406682Y-868150D02*
X4425730Y-877674D01*
X4425730Y-877674D02*
X4435253Y-887198D01*
X4435253Y-887198D02*
X4444777Y-906246D01*
X4444777Y-906246D02*
X4444777Y-963388D01*
X4444777Y-963388D02*
X4435253Y-982436D01*
X4435253Y-982436D02*
X4425730Y-991960D01*
X4425730Y-991960D02*
X4406682Y-1001484D01*
X4406682Y-1001484D02*
X4378111Y-1001484D01*
X4559063Y-1001484D02*
X4540015Y-991960D01*
X4540015Y-991960D02*
X4530492Y-972912D01*
X4530492Y-972912D02*
X4530492Y-801484D01*
X4711444Y-991960D02*
X4692396Y-1001484D01*
X4692396Y-1001484D02*
X4654301Y-1001484D01*
X4654301Y-1001484D02*
X4635253Y-991960D01*
X4635253Y-991960D02*
X4625730Y-972912D01*
X4625730Y-972912D02*
X4625730Y-896722D01*
X4625730Y-896722D02*
X4635253Y-877674D01*
X4635253Y-877674D02*
X4654301Y-868150D01*
X4654301Y-868150D02*
X4692396Y-868150D01*
X4692396Y-868150D02*
X4711444Y-877674D01*
X4711444Y-877674D02*
X4720968Y-896722D01*
X4720968Y-896722D02*
X4720968Y-915769D01*
X4720968Y-915769D02*
X4625730Y-934817D01*
X4797158Y-991960D02*
X4816206Y-1001484D01*
X4816206Y-1001484D02*
X4854301Y-1001484D01*
X4854301Y-1001484D02*
X4873349Y-991960D01*
X4873349Y-991960D02*
X4882873Y-972912D01*
X4882873Y-972912D02*
X4882873Y-963388D01*
X4882873Y-963388D02*
X4873349Y-944341D01*
X4873349Y-944341D02*
X4854301Y-934817D01*
X4854301Y-934817D02*
X4825730Y-934817D01*
X4825730Y-934817D02*
X4806682Y-925293D01*
X4806682Y-925293D02*
X4797158Y-906246D01*
X4797158Y-906246D02*
X4797158Y-896722D01*
X4797158Y-896722D02*
X4806682Y-877674D01*
X4806682Y-877674D02*
X4825730Y-868150D01*
X4825730Y-868150D02*
X4854301Y-868150D01*
X4854301Y-868150D02*
X4873349Y-877674D01*
X4949539Y-1077674D02*
X4959063Y-1068150D01*
X4959063Y-1068150D02*
X4978111Y-1039579D01*
X4978111Y-1039579D02*
X4987634Y-1020531D01*
X4987634Y-1020531D02*
X4997158Y-991960D01*
X4997158Y-991960D02*
X5006682Y-944341D01*
X5006682Y-944341D02*
X5006682Y-906246D01*
X5006682Y-906246D02*
X4997158Y-858627D01*
X4997158Y-858627D02*
X4987634Y-830055D01*
X4987634Y-830055D02*
X4978111Y-811008D01*
X4978111Y-811008D02*
X4959063Y-782436D01*
X4959063Y-782436D02*
X4949539Y-772912D01*
D10*
X-41000Y-1149000D02*
X-41000Y-1199000D01*
X-66000Y-1174000D02*
X-16000Y-1174000D01*
D11*
X282872Y-1065484D02*
X301920Y-1065484D01*
X301920Y-1065484D02*
X320967Y-1075008D01*
X320967Y-1075008D02*
X330491Y-1084531D01*
X330491Y-1084531D02*
X340015Y-1103579D01*
X340015Y-1103579D02*
X349539Y-1141674D01*
X349539Y-1141674D02*
X349539Y-1189293D01*
X349539Y-1189293D02*
X340015Y-1227389D01*
X340015Y-1227389D02*
X330491Y-1246436D01*
X330491Y-1246436D02*
X320967Y-1255960D01*
X320967Y-1255960D02*
X301920Y-1265484D01*
X301920Y-1265484D02*
X282872Y-1265484D01*
X282872Y-1265484D02*
X263824Y-1255960D01*
X263824Y-1255960D02*
X254301Y-1246436D01*
X254301Y-1246436D02*
X244777Y-1227389D01*
X244777Y-1227389D02*
X235253Y-1189293D01*
X235253Y-1189293D02*
X235253Y-1141674D01*
X235253Y-1141674D02*
X244777Y-1103579D01*
X244777Y-1103579D02*
X254301Y-1084531D01*
X254301Y-1084531D02*
X263824Y-1075008D01*
X263824Y-1075008D02*
X282872Y-1065484D01*
X435253Y-1246436D02*
X444777Y-1255960D01*
X444777Y-1255960D02*
X435253Y-1265484D01*
X435253Y-1265484D02*
X425729Y-1255960D01*
X425729Y-1255960D02*
X435253Y-1246436D01*
X435253Y-1246436D02*
X435253Y-1265484D01*
X625729Y-1065484D02*
X530491Y-1065484D01*
X530491Y-1065484D02*
X520967Y-1160722D01*
X520967Y-1160722D02*
X530491Y-1151198D01*
X530491Y-1151198D02*
X549539Y-1141674D01*
X549539Y-1141674D02*
X597158Y-1141674D01*
X597158Y-1141674D02*
X616205Y-1151198D01*
X616205Y-1151198D02*
X625729Y-1160722D01*
X625729Y-1160722D02*
X635253Y-1179770D01*
X635253Y-1179770D02*
X635253Y-1227389D01*
X635253Y-1227389D02*
X625729Y-1246436D01*
X625729Y-1246436D02*
X616205Y-1255960D01*
X616205Y-1255960D02*
X597158Y-1265484D01*
X597158Y-1265484D02*
X549539Y-1265484D01*
X549539Y-1265484D02*
X530491Y-1255960D01*
X530491Y-1255960D02*
X520967Y-1246436D01*
X759062Y-1065484D02*
X778110Y-1065484D01*
X778110Y-1065484D02*
X797158Y-1075008D01*
X797158Y-1075008D02*
X806682Y-1084531D01*
X806682Y-1084531D02*
X816205Y-1103579D01*
X816205Y-1103579D02*
X825729Y-1141674D01*
X825729Y-1141674D02*
X825729Y-1189293D01*
X825729Y-1189293D02*
X816205Y-1227389D01*
X816205Y-1227389D02*
X806682Y-1246436D01*
X806682Y-1246436D02*
X797158Y-1255960D01*
X797158Y-1255960D02*
X778110Y-1265484D01*
X778110Y-1265484D02*
X759062Y-1265484D01*
X759062Y-1265484D02*
X740015Y-1255960D01*
X740015Y-1255960D02*
X730491Y-1246436D01*
X730491Y-1246436D02*
X720967Y-1227389D01*
X720967Y-1227389D02*
X711443Y-1189293D01*
X711443Y-1189293D02*
X711443Y-1141674D01*
X711443Y-1141674D02*
X720967Y-1103579D01*
X720967Y-1103579D02*
X730491Y-1084531D01*
X730491Y-1084531D02*
X740015Y-1075008D01*
X740015Y-1075008D02*
X759062Y-1065484D01*
X949539Y-1065484D02*
X968586Y-1065484D01*
X968586Y-1065484D02*
X987634Y-1075008D01*
X987634Y-1075008D02*
X997158Y-1084531D01*
X997158Y-1084531D02*
X1006682Y-1103579D01*
X1006682Y-1103579D02*
X1016205Y-1141674D01*
X1016205Y-1141674D02*
X1016205Y-1189293D01*
X1016205Y-1189293D02*
X1006682Y-1227389D01*
X1006682Y-1227389D02*
X997158Y-1246436D01*
X997158Y-1246436D02*
X987634Y-1255960D01*
X987634Y-1255960D02*
X968586Y-1265484D01*
X968586Y-1265484D02*
X949539Y-1265484D01*
X949539Y-1265484D02*
X930491Y-1255960D01*
X930491Y-1255960D02*
X920967Y-1246436D01*
X920967Y-1246436D02*
X911443Y-1227389D01*
X911443Y-1227389D02*
X901920Y-1189293D01*
X901920Y-1189293D02*
X901920Y-1141674D01*
X901920Y-1141674D02*
X911443Y-1103579D01*
X911443Y-1103579D02*
X920967Y-1084531D01*
X920967Y-1084531D02*
X930491Y-1075008D01*
X930491Y-1075008D02*
X949539Y-1065484D01*
X1101920Y-1265484D02*
X1101920Y-1132150D01*
X1101920Y-1151198D02*
X1111444Y-1141674D01*
X1111444Y-1141674D02*
X1130491Y-1132150D01*
X1130491Y-1132150D02*
X1159063Y-1132150D01*
X1159063Y-1132150D02*
X1178110Y-1141674D01*
X1178110Y-1141674D02*
X1187634Y-1160722D01*
X1187634Y-1160722D02*
X1187634Y-1265484D01*
X1187634Y-1160722D02*
X1197158Y-1141674D01*
X1197158Y-1141674D02*
X1216205Y-1132150D01*
X1216205Y-1132150D02*
X1244777Y-1132150D01*
X1244777Y-1132150D02*
X1263825Y-1141674D01*
X1263825Y-1141674D02*
X1273348Y-1160722D01*
X1273348Y-1160722D02*
X1273348Y-1265484D01*
X1368586Y-1265484D02*
X1368586Y-1132150D01*
X1368586Y-1151198D02*
X1378110Y-1141674D01*
X1378110Y-1141674D02*
X1397158Y-1132150D01*
X1397158Y-1132150D02*
X1425729Y-1132150D01*
X1425729Y-1132150D02*
X1444777Y-1141674D01*
X1444777Y-1141674D02*
X1454301Y-1160722D01*
X1454301Y-1160722D02*
X1454301Y-1265484D01*
X1454301Y-1160722D02*
X1463824Y-1141674D01*
X1463824Y-1141674D02*
X1482872Y-1132150D01*
X1482872Y-1132150D02*
X1511443Y-1132150D01*
X1511443Y-1132150D02*
X1530491Y-1141674D01*
X1530491Y-1141674D02*
X1540015Y-1160722D01*
X1540015Y-1160722D02*
X1540015Y-1265484D01*
X1930491Y-1055960D02*
X1759063Y-1313103D01*
X2187634Y-1065484D02*
X2206682Y-1065484D01*
X2206682Y-1065484D02*
X2225729Y-1075008D01*
X2225729Y-1075008D02*
X2235253Y-1084531D01*
X2235253Y-1084531D02*
X2244777Y-1103579D01*
X2244777Y-1103579D02*
X2254301Y-1141674D01*
X2254301Y-1141674D02*
X2254301Y-1189293D01*
X2254301Y-1189293D02*
X2244777Y-1227389D01*
X2244777Y-1227389D02*
X2235253Y-1246436D01*
X2235253Y-1246436D02*
X2225729Y-1255960D01*
X2225729Y-1255960D02*
X2206682Y-1265484D01*
X2206682Y-1265484D02*
X2187634Y-1265484D01*
X2187634Y-1265484D02*
X2168587Y-1255960D01*
X2168587Y-1255960D02*
X2159063Y-1246436D01*
X2159063Y-1246436D02*
X2149539Y-1227389D01*
X2149539Y-1227389D02*
X2140015Y-1189293D01*
X2140015Y-1189293D02*
X2140015Y-1141674D01*
X2140015Y-1141674D02*
X2149539Y-1103579D01*
X2149539Y-1103579D02*
X2159063Y-1084531D01*
X2159063Y-1084531D02*
X2168587Y-1075008D01*
X2168587Y-1075008D02*
X2187634Y-1065484D01*
X2340015Y-1246436D02*
X2349539Y-1255960D01*
X2349539Y-1255960D02*
X2340015Y-1265484D01*
X2340015Y-1265484D02*
X2330491Y-1255960D01*
X2330491Y-1255960D02*
X2340015Y-1246436D01*
X2340015Y-1246436D02*
X2340015Y-1265484D01*
X2473348Y-1065484D02*
X2492396Y-1065484D01*
X2492396Y-1065484D02*
X2511444Y-1075008D01*
X2511444Y-1075008D02*
X2520968Y-1084531D01*
X2520968Y-1084531D02*
X2530491Y-1103579D01*
X2530491Y-1103579D02*
X2540015Y-1141674D01*
X2540015Y-1141674D02*
X2540015Y-1189293D01*
X2540015Y-1189293D02*
X2530491Y-1227389D01*
X2530491Y-1227389D02*
X2520968Y-1246436D01*
X2520968Y-1246436D02*
X2511444Y-1255960D01*
X2511444Y-1255960D02*
X2492396Y-1265484D01*
X2492396Y-1265484D02*
X2473348Y-1265484D01*
X2473348Y-1265484D02*
X2454301Y-1255960D01*
X2454301Y-1255960D02*
X2444777Y-1246436D01*
X2444777Y-1246436D02*
X2435253Y-1227389D01*
X2435253Y-1227389D02*
X2425729Y-1189293D01*
X2425729Y-1189293D02*
X2425729Y-1141674D01*
X2425729Y-1141674D02*
X2435253Y-1103579D01*
X2435253Y-1103579D02*
X2444777Y-1084531D01*
X2444777Y-1084531D02*
X2454301Y-1075008D01*
X2454301Y-1075008D02*
X2473348Y-1065484D01*
X2730491Y-1265484D02*
X2616206Y-1265484D01*
X2673348Y-1265484D02*
X2673348Y-1065484D01*
X2673348Y-1065484D02*
X2654301Y-1094055D01*
X2654301Y-1094055D02*
X2635253Y-1113103D01*
X2635253Y-1113103D02*
X2616206Y-1122627D01*
X2825729Y-1265484D02*
X2863825Y-1265484D01*
X2863825Y-1265484D02*
X2882872Y-1255960D01*
X2882872Y-1255960D02*
X2892396Y-1246436D01*
X2892396Y-1246436D02*
X2911444Y-1217865D01*
X2911444Y-1217865D02*
X2920967Y-1179770D01*
X2920967Y-1179770D02*
X2920967Y-1103579D01*
X2920967Y-1103579D02*
X2911444Y-1084531D01*
X2911444Y-1084531D02*
X2901920Y-1075008D01*
X2901920Y-1075008D02*
X2882872Y-1065484D01*
X2882872Y-1065484D02*
X2844777Y-1065484D01*
X2844777Y-1065484D02*
X2825729Y-1075008D01*
X2825729Y-1075008D02*
X2816206Y-1084531D01*
X2816206Y-1084531D02*
X2806682Y-1103579D01*
X2806682Y-1103579D02*
X2806682Y-1151198D01*
X2806682Y-1151198D02*
X2816206Y-1170246D01*
X2816206Y-1170246D02*
X2825729Y-1179770D01*
X2825729Y-1179770D02*
X2844777Y-1189293D01*
X2844777Y-1189293D02*
X2882872Y-1189293D01*
X2882872Y-1189293D02*
X2901920Y-1179770D01*
X2901920Y-1179770D02*
X2911444Y-1170246D01*
X2911444Y-1170246D02*
X2920967Y-1151198D01*
X2987634Y-1065484D02*
X3120967Y-1065484D01*
X3120967Y-1065484D02*
X3035253Y-1265484D01*
X3187634Y-1065484D02*
X3187634Y-1103579D01*
X3263825Y-1065484D02*
X3263825Y-1103579D01*
X3559063Y-1341674D02*
X3549539Y-1332150D01*
X3549539Y-1332150D02*
X3530491Y-1303579D01*
X3530491Y-1303579D02*
X3520968Y-1284531D01*
X3520968Y-1284531D02*
X3511444Y-1255960D01*
X3511444Y-1255960D02*
X3501920Y-1208341D01*
X3501920Y-1208341D02*
X3501920Y-1170246D01*
X3501920Y-1170246D02*
X3511444Y-1122627D01*
X3511444Y-1122627D02*
X3520968Y-1094055D01*
X3520968Y-1094055D02*
X3530491Y-1075008D01*
X3530491Y-1075008D02*
X3549539Y-1046436D01*
X3549539Y-1046436D02*
X3559063Y-1036912D01*
X3740015Y-1265484D02*
X3625729Y-1265484D01*
X3682872Y-1265484D02*
X3682872Y-1065484D01*
X3682872Y-1065484D02*
X3663825Y-1094055D01*
X3663825Y-1094055D02*
X3644777Y-1113103D01*
X3644777Y-1113103D02*
X3625729Y-1122627D01*
X3863825Y-1065484D02*
X3882872Y-1065484D01*
X3882872Y-1065484D02*
X3901920Y-1075008D01*
X3901920Y-1075008D02*
X3911444Y-1084531D01*
X3911444Y-1084531D02*
X3920968Y-1103579D01*
X3920968Y-1103579D02*
X3930491Y-1141674D01*
X3930491Y-1141674D02*
X3930491Y-1189293D01*
X3930491Y-1189293D02*
X3920968Y-1227389D01*
X3920968Y-1227389D02*
X3911444Y-1246436D01*
X3911444Y-1246436D02*
X3901920Y-1255960D01*
X3901920Y-1255960D02*
X3882872Y-1265484D01*
X3882872Y-1265484D02*
X3863825Y-1265484D01*
X3863825Y-1265484D02*
X3844777Y-1255960D01*
X3844777Y-1255960D02*
X3835253Y-1246436D01*
X3835253Y-1246436D02*
X3825729Y-1227389D01*
X3825729Y-1227389D02*
X3816206Y-1189293D01*
X3816206Y-1189293D02*
X3816206Y-1141674D01*
X3816206Y-1141674D02*
X3825729Y-1103579D01*
X3825729Y-1103579D02*
X3835253Y-1084531D01*
X3835253Y-1084531D02*
X3844777Y-1075008D01*
X3844777Y-1075008D02*
X3863825Y-1065484D01*
X4168587Y-1265484D02*
X4168587Y-1065484D01*
X4254301Y-1265484D02*
X4254301Y-1160722D01*
X4254301Y-1160722D02*
X4244777Y-1141674D01*
X4244777Y-1141674D02*
X4225730Y-1132150D01*
X4225730Y-1132150D02*
X4197158Y-1132150D01*
X4197158Y-1132150D02*
X4178110Y-1141674D01*
X4178110Y-1141674D02*
X4168587Y-1151198D01*
X4378111Y-1265484D02*
X4359063Y-1255960D01*
X4359063Y-1255960D02*
X4349539Y-1246436D01*
X4349539Y-1246436D02*
X4340015Y-1227389D01*
X4340015Y-1227389D02*
X4340015Y-1170246D01*
X4340015Y-1170246D02*
X4349539Y-1151198D01*
X4349539Y-1151198D02*
X4359063Y-1141674D01*
X4359063Y-1141674D02*
X4378111Y-1132150D01*
X4378111Y-1132150D02*
X4406682Y-1132150D01*
X4406682Y-1132150D02*
X4425730Y-1141674D01*
X4425730Y-1141674D02*
X4435253Y-1151198D01*
X4435253Y-1151198D02*
X4444777Y-1170246D01*
X4444777Y-1170246D02*
X4444777Y-1227389D01*
X4444777Y-1227389D02*
X4435253Y-1246436D01*
X4435253Y-1246436D02*
X4425730Y-1255960D01*
X4425730Y-1255960D02*
X4406682Y-1265484D01*
X4406682Y-1265484D02*
X4378111Y-1265484D01*
X4559063Y-1265484D02*
X4540015Y-1255960D01*
X4540015Y-1255960D02*
X4530492Y-1236912D01*
X4530492Y-1236912D02*
X4530492Y-1065484D01*
X4711444Y-1255960D02*
X4692396Y-1265484D01*
X4692396Y-1265484D02*
X4654301Y-1265484D01*
X4654301Y-1265484D02*
X4635253Y-1255960D01*
X4635253Y-1255960D02*
X4625730Y-1236912D01*
X4625730Y-1236912D02*
X4625730Y-1160722D01*
X4625730Y-1160722D02*
X4635253Y-1141674D01*
X4635253Y-1141674D02*
X4654301Y-1132150D01*
X4654301Y-1132150D02*
X4692396Y-1132150D01*
X4692396Y-1132150D02*
X4711444Y-1141674D01*
X4711444Y-1141674D02*
X4720968Y-1160722D01*
X4720968Y-1160722D02*
X4720968Y-1179770D01*
X4720968Y-1179770D02*
X4625730Y-1198817D01*
X4797158Y-1255960D02*
X4816206Y-1265484D01*
X4816206Y-1265484D02*
X4854301Y-1265484D01*
X4854301Y-1265484D02*
X4873349Y-1255960D01*
X4873349Y-1255960D02*
X4882873Y-1236912D01*
X4882873Y-1236912D02*
X4882873Y-1227389D01*
X4882873Y-1227389D02*
X4873349Y-1208341D01*
X4873349Y-1208341D02*
X4854301Y-1198817D01*
X4854301Y-1198817D02*
X4825730Y-1198817D01*
X4825730Y-1198817D02*
X4806682Y-1189293D01*
X4806682Y-1189293D02*
X4797158Y-1170246D01*
X4797158Y-1170246D02*
X4797158Y-1160722D01*
X4797158Y-1160722D02*
X4806682Y-1141674D01*
X4806682Y-1141674D02*
X4825730Y-1132150D01*
X4825730Y-1132150D02*
X4854301Y-1132150D01*
X4854301Y-1132150D02*
X4873349Y-1141674D01*
X4949539Y-1341674D02*
X4959063Y-1332150D01*
X4959063Y-1332150D02*
X4978111Y-1303579D01*
X4978111Y-1303579D02*
X4987634Y-1284531D01*
X4987634Y-1284531D02*
X4997158Y-1255960D01*
X4997158Y-1255960D02*
X5006682Y-1208341D01*
X5006682Y-1208341D02*
X5006682Y-1170246D01*
X5006682Y-1170246D02*
X4997158Y-1122627D01*
X4997158Y-1122627D02*
X4987634Y-1094055D01*
X4987634Y-1094055D02*
X4978111Y-1075008D01*
X4978111Y-1075008D02*
X4959063Y-1046436D01*
X4959063Y-1046436D02*
X4949539Y-1036912D01*
D10*
X-24787Y-1459213D02*
X-24787Y-1416787D01*
X-67213Y-1416787D01*
X-67213Y-1459213D01*
X-24787Y-1459213D01*
D11*
X282872Y-1329484D02*
X301920Y-1329484D01*
X301920Y-1329484D02*
X320967Y-1339008D01*
X320967Y-1339008D02*
X330491Y-1348531D01*
X330491Y-1348531D02*
X340015Y-1367579D01*
X340015Y-1367579D02*
X349539Y-1405674D01*
X349539Y-1405674D02*
X349539Y-1453293D01*
X349539Y-1453293D02*
X340015Y-1491388D01*
X340015Y-1491388D02*
X330491Y-1510436D01*
X330491Y-1510436D02*
X320967Y-1519960D01*
X320967Y-1519960D02*
X301920Y-1529484D01*
X301920Y-1529484D02*
X282872Y-1529484D01*
X282872Y-1529484D02*
X263824Y-1519960D01*
X263824Y-1519960D02*
X254301Y-1510436D01*
X254301Y-1510436D02*
X244777Y-1491388D01*
X244777Y-1491388D02*
X235253Y-1453293D01*
X235253Y-1453293D02*
X235253Y-1405674D01*
X235253Y-1405674D02*
X244777Y-1367579D01*
X244777Y-1367579D02*
X254301Y-1348531D01*
X254301Y-1348531D02*
X263824Y-1339008D01*
X263824Y-1339008D02*
X282872Y-1329484D01*
X435253Y-1510436D02*
X444777Y-1519960D01*
X444777Y-1519960D02*
X435253Y-1529484D01*
X435253Y-1529484D02*
X425729Y-1519960D01*
X425729Y-1519960D02*
X435253Y-1510436D01*
X435253Y-1510436D02*
X435253Y-1529484D01*
X616205Y-1329484D02*
X578110Y-1329484D01*
X578110Y-1329484D02*
X559063Y-1339008D01*
X559063Y-1339008D02*
X549539Y-1348531D01*
X549539Y-1348531D02*
X530491Y-1377103D01*
X530491Y-1377103D02*
X520967Y-1415198D01*
X520967Y-1415198D02*
X520967Y-1491388D01*
X520967Y-1491388D02*
X530491Y-1510436D01*
X530491Y-1510436D02*
X540015Y-1519960D01*
X540015Y-1519960D02*
X559063Y-1529484D01*
X559063Y-1529484D02*
X597158Y-1529484D01*
X597158Y-1529484D02*
X616205Y-1519960D01*
X616205Y-1519960D02*
X625729Y-1510436D01*
X625729Y-1510436D02*
X635253Y-1491388D01*
X635253Y-1491388D02*
X635253Y-1443769D01*
X635253Y-1443769D02*
X625729Y-1424722D01*
X625729Y-1424722D02*
X616205Y-1415198D01*
X616205Y-1415198D02*
X597158Y-1405674D01*
X597158Y-1405674D02*
X559063Y-1405674D01*
X559063Y-1405674D02*
X540015Y-1415198D01*
X540015Y-1415198D02*
X530491Y-1424722D01*
X530491Y-1424722D02*
X520967Y-1443769D01*
X759062Y-1329484D02*
X778110Y-1329484D01*
X778110Y-1329484D02*
X797158Y-1339008D01*
X797158Y-1339008D02*
X806682Y-1348531D01*
X806682Y-1348531D02*
X816205Y-1367579D01*
X816205Y-1367579D02*
X825729Y-1405674D01*
X825729Y-1405674D02*
X825729Y-1453293D01*
X825729Y-1453293D02*
X816205Y-1491388D01*
X816205Y-1491388D02*
X806682Y-1510436D01*
X806682Y-1510436D02*
X797158Y-1519960D01*
X797158Y-1519960D02*
X778110Y-1529484D01*
X778110Y-1529484D02*
X759062Y-1529484D01*
X759062Y-1529484D02*
X740015Y-1519960D01*
X740015Y-1519960D02*
X730491Y-1510436D01*
X730491Y-1510436D02*
X720967Y-1491388D01*
X720967Y-1491388D02*
X711443Y-1453293D01*
X711443Y-1453293D02*
X711443Y-1405674D01*
X711443Y-1405674D02*
X720967Y-1367579D01*
X720967Y-1367579D02*
X730491Y-1348531D01*
X730491Y-1348531D02*
X740015Y-1339008D01*
X740015Y-1339008D02*
X759062Y-1329484D01*
X949539Y-1329484D02*
X968586Y-1329484D01*
X968586Y-1329484D02*
X987634Y-1339008D01*
X987634Y-1339008D02*
X997158Y-1348531D01*
X997158Y-1348531D02*
X1006682Y-1367579D01*
X1006682Y-1367579D02*
X1016205Y-1405674D01*
X1016205Y-1405674D02*
X1016205Y-1453293D01*
X1016205Y-1453293D02*
X1006682Y-1491388D01*
X1006682Y-1491388D02*
X997158Y-1510436D01*
X997158Y-1510436D02*
X987634Y-1519960D01*
X987634Y-1519960D02*
X968586Y-1529484D01*
X968586Y-1529484D02*
X949539Y-1529484D01*
X949539Y-1529484D02*
X930491Y-1519960D01*
X930491Y-1519960D02*
X920967Y-1510436D01*
X920967Y-1510436D02*
X911443Y-1491388D01*
X911443Y-1491388D02*
X901920Y-1453293D01*
X901920Y-1453293D02*
X901920Y-1405674D01*
X901920Y-1405674D02*
X911443Y-1367579D01*
X911443Y-1367579D02*
X920967Y-1348531D01*
X920967Y-1348531D02*
X930491Y-1339008D01*
X930491Y-1339008D02*
X949539Y-1329484D01*
X1101920Y-1529484D02*
X1101920Y-1396150D01*
X1101920Y-1415198D02*
X1111444Y-1405674D01*
X1111444Y-1405674D02*
X1130491Y-1396150D01*
X1130491Y-1396150D02*
X1159063Y-1396150D01*
X1159063Y-1396150D02*
X1178110Y-1405674D01*
X1178110Y-1405674D02*
X1187634Y-1424722D01*
X1187634Y-1424722D02*
X1187634Y-1529484D01*
X1187634Y-1424722D02*
X1197158Y-1405674D01*
X1197158Y-1405674D02*
X1216205Y-1396150D01*
X1216205Y-1396150D02*
X1244777Y-1396150D01*
X1244777Y-1396150D02*
X1263825Y-1405674D01*
X1263825Y-1405674D02*
X1273348Y-1424722D01*
X1273348Y-1424722D02*
X1273348Y-1529484D01*
X1368586Y-1529484D02*
X1368586Y-1396150D01*
X1368586Y-1415198D02*
X1378110Y-1405674D01*
X1378110Y-1405674D02*
X1397158Y-1396150D01*
X1397158Y-1396150D02*
X1425729Y-1396150D01*
X1425729Y-1396150D02*
X1444777Y-1405674D01*
X1444777Y-1405674D02*
X1454301Y-1424722D01*
X1454301Y-1424722D02*
X1454301Y-1529484D01*
X1454301Y-1424722D02*
X1463824Y-1405674D01*
X1463824Y-1405674D02*
X1482872Y-1396150D01*
X1482872Y-1396150D02*
X1511443Y-1396150D01*
X1511443Y-1396150D02*
X1530491Y-1405674D01*
X1530491Y-1405674D02*
X1540015Y-1424722D01*
X1540015Y-1424722D02*
X1540015Y-1529484D01*
X1930491Y-1319960D02*
X1759063Y-1577103D01*
X2187634Y-1329484D02*
X2206682Y-1329484D01*
X2206682Y-1329484D02*
X2225729Y-1339008D01*
X2225729Y-1339008D02*
X2235253Y-1348531D01*
X2235253Y-1348531D02*
X2244777Y-1367579D01*
X2244777Y-1367579D02*
X2254301Y-1405674D01*
X2254301Y-1405674D02*
X2254301Y-1453293D01*
X2254301Y-1453293D02*
X2244777Y-1491388D01*
X2244777Y-1491388D02*
X2235253Y-1510436D01*
X2235253Y-1510436D02*
X2225729Y-1519960D01*
X2225729Y-1519960D02*
X2206682Y-1529484D01*
X2206682Y-1529484D02*
X2187634Y-1529484D01*
X2187634Y-1529484D02*
X2168587Y-1519960D01*
X2168587Y-1519960D02*
X2159063Y-1510436D01*
X2159063Y-1510436D02*
X2149539Y-1491388D01*
X2149539Y-1491388D02*
X2140015Y-1453293D01*
X2140015Y-1453293D02*
X2140015Y-1405674D01*
X2140015Y-1405674D02*
X2149539Y-1367579D01*
X2149539Y-1367579D02*
X2159063Y-1348531D01*
X2159063Y-1348531D02*
X2168587Y-1339008D01*
X2168587Y-1339008D02*
X2187634Y-1329484D01*
X2340015Y-1510436D02*
X2349539Y-1519960D01*
X2349539Y-1519960D02*
X2340015Y-1529484D01*
X2340015Y-1529484D02*
X2330491Y-1519960D01*
X2330491Y-1519960D02*
X2340015Y-1510436D01*
X2340015Y-1510436D02*
X2340015Y-1529484D01*
X2473348Y-1329484D02*
X2492396Y-1329484D01*
X2492396Y-1329484D02*
X2511444Y-1339008D01*
X2511444Y-1339008D02*
X2520968Y-1348531D01*
X2520968Y-1348531D02*
X2530491Y-1367579D01*
X2530491Y-1367579D02*
X2540015Y-1405674D01*
X2540015Y-1405674D02*
X2540015Y-1453293D01*
X2540015Y-1453293D02*
X2530491Y-1491388D01*
X2530491Y-1491388D02*
X2520968Y-1510436D01*
X2520968Y-1510436D02*
X2511444Y-1519960D01*
X2511444Y-1519960D02*
X2492396Y-1529484D01*
X2492396Y-1529484D02*
X2473348Y-1529484D01*
X2473348Y-1529484D02*
X2454301Y-1519960D01*
X2454301Y-1519960D02*
X2444777Y-1510436D01*
X2444777Y-1510436D02*
X2435253Y-1491388D01*
X2435253Y-1491388D02*
X2425729Y-1453293D01*
X2425729Y-1453293D02*
X2425729Y-1405674D01*
X2425729Y-1405674D02*
X2435253Y-1367579D01*
X2435253Y-1367579D02*
X2444777Y-1348531D01*
X2444777Y-1348531D02*
X2454301Y-1339008D01*
X2454301Y-1339008D02*
X2473348Y-1329484D01*
X2616206Y-1348531D02*
X2625729Y-1339008D01*
X2625729Y-1339008D02*
X2644777Y-1329484D01*
X2644777Y-1329484D02*
X2692396Y-1329484D01*
X2692396Y-1329484D02*
X2711444Y-1339008D01*
X2711444Y-1339008D02*
X2720968Y-1348531D01*
X2720968Y-1348531D02*
X2730491Y-1367579D01*
X2730491Y-1367579D02*
X2730491Y-1386627D01*
X2730491Y-1386627D02*
X2720968Y-1415198D01*
X2720968Y-1415198D02*
X2606682Y-1529484D01*
X2606682Y-1529484D02*
X2730491Y-1529484D01*
X2797158Y-1329484D02*
X2920967Y-1329484D01*
X2920967Y-1329484D02*
X2854301Y-1405674D01*
X2854301Y-1405674D02*
X2882872Y-1405674D01*
X2882872Y-1405674D02*
X2901920Y-1415198D01*
X2901920Y-1415198D02*
X2911444Y-1424722D01*
X2911444Y-1424722D02*
X2920967Y-1443769D01*
X2920967Y-1443769D02*
X2920967Y-1491388D01*
X2920967Y-1491388D02*
X2911444Y-1510436D01*
X2911444Y-1510436D02*
X2901920Y-1519960D01*
X2901920Y-1519960D02*
X2882872Y-1529484D01*
X2882872Y-1529484D02*
X2825729Y-1529484D01*
X2825729Y-1529484D02*
X2806682Y-1519960D01*
X2806682Y-1519960D02*
X2797158Y-1510436D01*
X3092396Y-1329484D02*
X3054301Y-1329484D01*
X3054301Y-1329484D02*
X3035253Y-1339008D01*
X3035253Y-1339008D02*
X3025729Y-1348531D01*
X3025729Y-1348531D02*
X3006682Y-1377103D01*
X3006682Y-1377103D02*
X2997158Y-1415198D01*
X2997158Y-1415198D02*
X2997158Y-1491388D01*
X2997158Y-1491388D02*
X3006682Y-1510436D01*
X3006682Y-1510436D02*
X3016206Y-1519960D01*
X3016206Y-1519960D02*
X3035253Y-1529484D01*
X3035253Y-1529484D02*
X3073348Y-1529484D01*
X3073348Y-1529484D02*
X3092396Y-1519960D01*
X3092396Y-1519960D02*
X3101920Y-1510436D01*
X3101920Y-1510436D02*
X3111444Y-1491388D01*
X3111444Y-1491388D02*
X3111444Y-1443769D01*
X3111444Y-1443769D02*
X3101920Y-1424722D01*
X3101920Y-1424722D02*
X3092396Y-1415198D01*
X3092396Y-1415198D02*
X3073348Y-1405674D01*
X3073348Y-1405674D02*
X3035253Y-1405674D01*
X3035253Y-1405674D02*
X3016206Y-1415198D01*
X3016206Y-1415198D02*
X3006682Y-1424722D01*
X3006682Y-1424722D02*
X2997158Y-1443769D01*
X3187634Y-1329484D02*
X3187634Y-1367579D01*
X3263825Y-1329484D02*
X3263825Y-1367579D01*
X3559063Y-1605674D02*
X3549539Y-1596150D01*
X3549539Y-1596150D02*
X3530491Y-1567579D01*
X3530491Y-1567579D02*
X3520968Y-1548531D01*
X3520968Y-1548531D02*
X3511444Y-1519960D01*
X3511444Y-1519960D02*
X3501920Y-1472341D01*
X3501920Y-1472341D02*
X3501920Y-1434246D01*
X3501920Y-1434246D02*
X3511444Y-1386627D01*
X3511444Y-1386627D02*
X3520968Y-1358055D01*
X3520968Y-1358055D02*
X3530491Y-1339008D01*
X3530491Y-1339008D02*
X3549539Y-1310436D01*
X3549539Y-1310436D02*
X3559063Y-1300912D01*
X3616206Y-1329484D02*
X3740015Y-1329484D01*
X3740015Y-1329484D02*
X3673348Y-1405674D01*
X3673348Y-1405674D02*
X3701920Y-1405674D01*
X3701920Y-1405674D02*
X3720968Y-1415198D01*
X3720968Y-1415198D02*
X3730491Y-1424722D01*
X3730491Y-1424722D02*
X3740015Y-1443769D01*
X3740015Y-1443769D02*
X3740015Y-1491388D01*
X3740015Y-1491388D02*
X3730491Y-1510436D01*
X3730491Y-1510436D02*
X3720968Y-1519960D01*
X3720968Y-1519960D02*
X3701920Y-1529484D01*
X3701920Y-1529484D02*
X3644777Y-1529484D01*
X3644777Y-1529484D02*
X3625729Y-1519960D01*
X3625729Y-1519960D02*
X3616206Y-1510436D01*
X3911444Y-1329484D02*
X3873348Y-1329484D01*
X3873348Y-1329484D02*
X3854301Y-1339008D01*
X3854301Y-1339008D02*
X3844777Y-1348531D01*
X3844777Y-1348531D02*
X3825729Y-1377103D01*
X3825729Y-1377103D02*
X3816206Y-1415198D01*
X3816206Y-1415198D02*
X3816206Y-1491388D01*
X3816206Y-1491388D02*
X3825729Y-1510436D01*
X3825729Y-1510436D02*
X3835253Y-1519960D01*
X3835253Y-1519960D02*
X3854301Y-1529484D01*
X3854301Y-1529484D02*
X3892396Y-1529484D01*
X3892396Y-1529484D02*
X3911444Y-1519960D01*
X3911444Y-1519960D02*
X3920968Y-1510436D01*
X3920968Y-1510436D02*
X3930491Y-1491388D01*
X3930491Y-1491388D02*
X3930491Y-1443769D01*
X3930491Y-1443769D02*
X3920968Y-1424722D01*
X3920968Y-1424722D02*
X3911444Y-1415198D01*
X3911444Y-1415198D02*
X3892396Y-1405674D01*
X3892396Y-1405674D02*
X3854301Y-1405674D01*
X3854301Y-1405674D02*
X3835253Y-1415198D01*
X3835253Y-1415198D02*
X3825729Y-1424722D01*
X3825729Y-1424722D02*
X3816206Y-1443769D01*
X4168587Y-1529484D02*
X4168587Y-1329484D01*
X4254301Y-1529484D02*
X4254301Y-1424722D01*
X4254301Y-1424722D02*
X4244777Y-1405674D01*
X4244777Y-1405674D02*
X4225730Y-1396150D01*
X4225730Y-1396150D02*
X4197158Y-1396150D01*
X4197158Y-1396150D02*
X4178110Y-1405674D01*
X4178110Y-1405674D02*
X4168587Y-1415198D01*
X4378111Y-1529484D02*
X4359063Y-1519960D01*
X4359063Y-1519960D02*
X4349539Y-1510436D01*
X4349539Y-1510436D02*
X4340015Y-1491388D01*
X4340015Y-1491388D02*
X4340015Y-1434246D01*
X4340015Y-1434246D02*
X4349539Y-1415198D01*
X4349539Y-1415198D02*
X4359063Y-1405674D01*
X4359063Y-1405674D02*
X4378111Y-1396150D01*
X4378111Y-1396150D02*
X4406682Y-1396150D01*
X4406682Y-1396150D02*
X4425730Y-1405674D01*
X4425730Y-1405674D02*
X4435253Y-1415198D01*
X4435253Y-1415198D02*
X4444777Y-1434246D01*
X4444777Y-1434246D02*
X4444777Y-1491388D01*
X4444777Y-1491388D02*
X4435253Y-1510436D01*
X4435253Y-1510436D02*
X4425730Y-1519960D01*
X4425730Y-1519960D02*
X4406682Y-1529484D01*
X4406682Y-1529484D02*
X4378111Y-1529484D01*
X4559063Y-1529484D02*
X4540015Y-1519960D01*
X4540015Y-1519960D02*
X4530492Y-1500912D01*
X4530492Y-1500912D02*
X4530492Y-1329484D01*
X4711444Y-1519960D02*
X4692396Y-1529484D01*
X4692396Y-1529484D02*
X4654301Y-1529484D01*
X4654301Y-1529484D02*
X4635253Y-1519960D01*
X4635253Y-1519960D02*
X4625730Y-1500912D01*
X4625730Y-1500912D02*
X4625730Y-1424722D01*
X4625730Y-1424722D02*
X4635253Y-1405674D01*
X4635253Y-1405674D02*
X4654301Y-1396150D01*
X4654301Y-1396150D02*
X4692396Y-1396150D01*
X4692396Y-1396150D02*
X4711444Y-1405674D01*
X4711444Y-1405674D02*
X4720968Y-1424722D01*
X4720968Y-1424722D02*
X4720968Y-1443769D01*
X4720968Y-1443769D02*
X4625730Y-1462817D01*
X4797158Y-1519960D02*
X4816206Y-1529484D01*
X4816206Y-1529484D02*
X4854301Y-1529484D01*
X4854301Y-1529484D02*
X4873349Y-1519960D01*
X4873349Y-1519960D02*
X4882873Y-1500912D01*
X4882873Y-1500912D02*
X4882873Y-1491388D01*
X4882873Y-1491388D02*
X4873349Y-1472341D01*
X4873349Y-1472341D02*
X4854301Y-1462817D01*
X4854301Y-1462817D02*
X4825730Y-1462817D01*
X4825730Y-1462817D02*
X4806682Y-1453293D01*
X4806682Y-1453293D02*
X4797158Y-1434246D01*
X4797158Y-1434246D02*
X4797158Y-1424722D01*
X4797158Y-1424722D02*
X4806682Y-1405674D01*
X4806682Y-1405674D02*
X4825730Y-1396150D01*
X4825730Y-1396150D02*
X4854301Y-1396150D01*
X4854301Y-1396150D02*
X4873349Y-1405674D01*
X4949539Y-1605674D02*
X4959063Y-1596150D01*
X4959063Y-1596150D02*
X4978111Y-1567579D01*
X4978111Y-1567579D02*
X4987634Y-1548531D01*
X4987634Y-1548531D02*
X4997158Y-1519960D01*
X4997158Y-1519960D02*
X5006682Y-1472341D01*
X5006682Y-1472341D02*
X5006682Y-1434246D01*
X5006682Y-1434246D02*
X4997158Y-1386627D01*
X4997158Y-1386627D02*
X4987634Y-1358055D01*
X4987634Y-1358055D02*
X4978111Y-1339008D01*
X4978111Y-1339008D02*
X4959063Y-1310436D01*
X4959063Y-1310436D02*
X4949539Y-1300912D01*
D10*
X-54100Y-1740100D02*
X-16000Y-1702000D01*
X-54100Y-1663900D01*
X-92200Y-1702000D01*
X-54100Y-1740100D01*
D11*
X282872Y-1593484D02*
X301920Y-1593484D01*
X301920Y-1593484D02*
X320967Y-1603008D01*
X320967Y-1603008D02*
X330491Y-1612531D01*
X330491Y-1612531D02*
X340015Y-1631579D01*
X340015Y-1631579D02*
X349539Y-1669674D01*
X349539Y-1669674D02*
X349539Y-1717293D01*
X349539Y-1717293D02*
X340015Y-1755388D01*
X340015Y-1755388D02*
X330491Y-1774436D01*
X330491Y-1774436D02*
X320967Y-1783960D01*
X320967Y-1783960D02*
X301920Y-1793484D01*
X301920Y-1793484D02*
X282872Y-1793484D01*
X282872Y-1793484D02*
X263824Y-1783960D01*
X263824Y-1783960D02*
X254301Y-1774436D01*
X254301Y-1774436D02*
X244777Y-1755388D01*
X244777Y-1755388D02*
X235253Y-1717293D01*
X235253Y-1717293D02*
X235253Y-1669674D01*
X235253Y-1669674D02*
X244777Y-1631579D01*
X244777Y-1631579D02*
X254301Y-1612531D01*
X254301Y-1612531D02*
X263824Y-1603008D01*
X263824Y-1603008D02*
X282872Y-1593484D01*
X435253Y-1774436D02*
X444777Y-1783960D01*
X444777Y-1783960D02*
X435253Y-1793484D01*
X435253Y-1793484D02*
X425729Y-1783960D01*
X425729Y-1783960D02*
X435253Y-1774436D01*
X435253Y-1774436D02*
X435253Y-1793484D01*
X511443Y-1593484D02*
X644777Y-1593484D01*
X644777Y-1593484D02*
X559063Y-1793484D01*
X806682Y-1593484D02*
X768586Y-1593484D01*
X768586Y-1593484D02*
X749539Y-1603008D01*
X749539Y-1603008D02*
X740015Y-1612531D01*
X740015Y-1612531D02*
X720967Y-1641103D01*
X720967Y-1641103D02*
X711443Y-1679198D01*
X711443Y-1679198D02*
X711443Y-1755388D01*
X711443Y-1755388D02*
X720967Y-1774436D01*
X720967Y-1774436D02*
X730491Y-1783960D01*
X730491Y-1783960D02*
X749539Y-1793484D01*
X749539Y-1793484D02*
X787634Y-1793484D01*
X787634Y-1793484D02*
X806682Y-1783960D01*
X806682Y-1783960D02*
X816205Y-1774436D01*
X816205Y-1774436D02*
X825729Y-1755388D01*
X825729Y-1755388D02*
X825729Y-1707769D01*
X825729Y-1707769D02*
X816205Y-1688722D01*
X816205Y-1688722D02*
X806682Y-1679198D01*
X806682Y-1679198D02*
X787634Y-1669674D01*
X787634Y-1669674D02*
X749539Y-1669674D01*
X749539Y-1669674D02*
X730491Y-1679198D01*
X730491Y-1679198D02*
X720967Y-1688722D01*
X720967Y-1688722D02*
X711443Y-1707769D01*
X901920Y-1612531D02*
X911443Y-1603008D01*
X911443Y-1603008D02*
X930491Y-1593484D01*
X930491Y-1593484D02*
X978110Y-1593484D01*
X978110Y-1593484D02*
X997158Y-1603008D01*
X997158Y-1603008D02*
X1006682Y-1612531D01*
X1006682Y-1612531D02*
X1016205Y-1631579D01*
X1016205Y-1631579D02*
X1016205Y-1650627D01*
X1016205Y-1650627D02*
X1006682Y-1679198D01*
X1006682Y-1679198D02*
X892396Y-1793484D01*
X892396Y-1793484D02*
X1016205Y-1793484D01*
X1101920Y-1793484D02*
X1101920Y-1660150D01*
X1101920Y-1679198D02*
X1111444Y-1669674D01*
X1111444Y-1669674D02*
X1130491Y-1660150D01*
X1130491Y-1660150D02*
X1159063Y-1660150D01*
X1159063Y-1660150D02*
X1178110Y-1669674D01*
X1178110Y-1669674D02*
X1187634Y-1688722D01*
X1187634Y-1688722D02*
X1187634Y-1793484D01*
X1187634Y-1688722D02*
X1197158Y-1669674D01*
X1197158Y-1669674D02*
X1216205Y-1660150D01*
X1216205Y-1660150D02*
X1244777Y-1660150D01*
X1244777Y-1660150D02*
X1263825Y-1669674D01*
X1263825Y-1669674D02*
X1273348Y-1688722D01*
X1273348Y-1688722D02*
X1273348Y-1793484D01*
X1368586Y-1793484D02*
X1368586Y-1660150D01*
X1368586Y-1679198D02*
X1378110Y-1669674D01*
X1378110Y-1669674D02*
X1397158Y-1660150D01*
X1397158Y-1660150D02*
X1425729Y-1660150D01*
X1425729Y-1660150D02*
X1444777Y-1669674D01*
X1444777Y-1669674D02*
X1454301Y-1688722D01*
X1454301Y-1688722D02*
X1454301Y-1793484D01*
X1454301Y-1688722D02*
X1463824Y-1669674D01*
X1463824Y-1669674D02*
X1482872Y-1660150D01*
X1482872Y-1660150D02*
X1511443Y-1660150D01*
X1511443Y-1660150D02*
X1530491Y-1669674D01*
X1530491Y-1669674D02*
X1540015Y-1688722D01*
X1540015Y-1688722D02*
X1540015Y-1793484D01*
X1930491Y-1583960D02*
X1759063Y-1841103D01*
X2187634Y-1593484D02*
X2206682Y-1593484D01*
X2206682Y-1593484D02*
X2225729Y-1603008D01*
X2225729Y-1603008D02*
X2235253Y-1612531D01*
X2235253Y-1612531D02*
X2244777Y-1631579D01*
X2244777Y-1631579D02*
X2254301Y-1669674D01*
X2254301Y-1669674D02*
X2254301Y-1717293D01*
X2254301Y-1717293D02*
X2244777Y-1755388D01*
X2244777Y-1755388D02*
X2235253Y-1774436D01*
X2235253Y-1774436D02*
X2225729Y-1783960D01*
X2225729Y-1783960D02*
X2206682Y-1793484D01*
X2206682Y-1793484D02*
X2187634Y-1793484D01*
X2187634Y-1793484D02*
X2168587Y-1783960D01*
X2168587Y-1783960D02*
X2159063Y-1774436D01*
X2159063Y-1774436D02*
X2149539Y-1755388D01*
X2149539Y-1755388D02*
X2140015Y-1717293D01*
X2140015Y-1717293D02*
X2140015Y-1669674D01*
X2140015Y-1669674D02*
X2149539Y-1631579D01*
X2149539Y-1631579D02*
X2159063Y-1612531D01*
X2159063Y-1612531D02*
X2168587Y-1603008D01*
X2168587Y-1603008D02*
X2187634Y-1593484D01*
X2340015Y-1774436D02*
X2349539Y-1783960D01*
X2349539Y-1783960D02*
X2340015Y-1793484D01*
X2340015Y-1793484D02*
X2330491Y-1783960D01*
X2330491Y-1783960D02*
X2340015Y-1774436D01*
X2340015Y-1774436D02*
X2340015Y-1793484D01*
X2473348Y-1593484D02*
X2492396Y-1593484D01*
X2492396Y-1593484D02*
X2511444Y-1603008D01*
X2511444Y-1603008D02*
X2520968Y-1612531D01*
X2520968Y-1612531D02*
X2530491Y-1631579D01*
X2530491Y-1631579D02*
X2540015Y-1669674D01*
X2540015Y-1669674D02*
X2540015Y-1717293D01*
X2540015Y-1717293D02*
X2530491Y-1755388D01*
X2530491Y-1755388D02*
X2520968Y-1774436D01*
X2520968Y-1774436D02*
X2511444Y-1783960D01*
X2511444Y-1783960D02*
X2492396Y-1793484D01*
X2492396Y-1793484D02*
X2473348Y-1793484D01*
X2473348Y-1793484D02*
X2454301Y-1783960D01*
X2454301Y-1783960D02*
X2444777Y-1774436D01*
X2444777Y-1774436D02*
X2435253Y-1755388D01*
X2435253Y-1755388D02*
X2425729Y-1717293D01*
X2425729Y-1717293D02*
X2425729Y-1669674D01*
X2425729Y-1669674D02*
X2435253Y-1631579D01*
X2435253Y-1631579D02*
X2444777Y-1612531D01*
X2444777Y-1612531D02*
X2454301Y-1603008D01*
X2454301Y-1603008D02*
X2473348Y-1593484D01*
X2606682Y-1593484D02*
X2730491Y-1593484D01*
X2730491Y-1593484D02*
X2663825Y-1669674D01*
X2663825Y-1669674D02*
X2692396Y-1669674D01*
X2692396Y-1669674D02*
X2711444Y-1679198D01*
X2711444Y-1679198D02*
X2720968Y-1688722D01*
X2720968Y-1688722D02*
X2730491Y-1707769D01*
X2730491Y-1707769D02*
X2730491Y-1755388D01*
X2730491Y-1755388D02*
X2720968Y-1774436D01*
X2720968Y-1774436D02*
X2711444Y-1783960D01*
X2711444Y-1783960D02*
X2692396Y-1793484D01*
X2692396Y-1793484D02*
X2635253Y-1793484D01*
X2635253Y-1793484D02*
X2616206Y-1783960D01*
X2616206Y-1783960D02*
X2606682Y-1774436D01*
X2854301Y-1593484D02*
X2873348Y-1593484D01*
X2873348Y-1593484D02*
X2892396Y-1603008D01*
X2892396Y-1603008D02*
X2901920Y-1612531D01*
X2901920Y-1612531D02*
X2911444Y-1631579D01*
X2911444Y-1631579D02*
X2920967Y-1669674D01*
X2920967Y-1669674D02*
X2920967Y-1717293D01*
X2920967Y-1717293D02*
X2911444Y-1755388D01*
X2911444Y-1755388D02*
X2901920Y-1774436D01*
X2901920Y-1774436D02*
X2892396Y-1783960D01*
X2892396Y-1783960D02*
X2873348Y-1793484D01*
X2873348Y-1793484D02*
X2854301Y-1793484D01*
X2854301Y-1793484D02*
X2835253Y-1783960D01*
X2835253Y-1783960D02*
X2825729Y-1774436D01*
X2825729Y-1774436D02*
X2816206Y-1755388D01*
X2816206Y-1755388D02*
X2806682Y-1717293D01*
X2806682Y-1717293D02*
X2806682Y-1669674D01*
X2806682Y-1669674D02*
X2816206Y-1631579D01*
X2816206Y-1631579D02*
X2825729Y-1612531D01*
X2825729Y-1612531D02*
X2835253Y-1603008D01*
X2835253Y-1603008D02*
X2854301Y-1593484D01*
X3044777Y-1593484D02*
X3063825Y-1593484D01*
X3063825Y-1593484D02*
X3082872Y-1603008D01*
X3082872Y-1603008D02*
X3092396Y-1612531D01*
X3092396Y-1612531D02*
X3101920Y-1631579D01*
X3101920Y-1631579D02*
X3111444Y-1669674D01*
X3111444Y-1669674D02*
X3111444Y-1717293D01*
X3111444Y-1717293D02*
X3101920Y-1755388D01*
X3101920Y-1755388D02*
X3092396Y-1774436D01*
X3092396Y-1774436D02*
X3082872Y-1783960D01*
X3082872Y-1783960D02*
X3063825Y-1793484D01*
X3063825Y-1793484D02*
X3044777Y-1793484D01*
X3044777Y-1793484D02*
X3025729Y-1783960D01*
X3025729Y-1783960D02*
X3016206Y-1774436D01*
X3016206Y-1774436D02*
X3006682Y-1755388D01*
X3006682Y-1755388D02*
X2997158Y-1717293D01*
X2997158Y-1717293D02*
X2997158Y-1669674D01*
X2997158Y-1669674D02*
X3006682Y-1631579D01*
X3006682Y-1631579D02*
X3016206Y-1612531D01*
X3016206Y-1612531D02*
X3025729Y-1603008D01*
X3025729Y-1603008D02*
X3044777Y-1593484D01*
X3187634Y-1593484D02*
X3187634Y-1631579D01*
X3263825Y-1593484D02*
X3263825Y-1631579D01*
X3559063Y-1869674D02*
X3549539Y-1860150D01*
X3549539Y-1860150D02*
X3530491Y-1831579D01*
X3530491Y-1831579D02*
X3520968Y-1812531D01*
X3520968Y-1812531D02*
X3511444Y-1783960D01*
X3511444Y-1783960D02*
X3501920Y-1736341D01*
X3501920Y-1736341D02*
X3501920Y-1698246D01*
X3501920Y-1698246D02*
X3511444Y-1650627D01*
X3511444Y-1650627D02*
X3520968Y-1622055D01*
X3520968Y-1622055D02*
X3530491Y-1603008D01*
X3530491Y-1603008D02*
X3549539Y-1574436D01*
X3549539Y-1574436D02*
X3559063Y-1564912D01*
X3720968Y-1660150D02*
X3720968Y-1793484D01*
X3673348Y-1583960D02*
X3625729Y-1726817D01*
X3625729Y-1726817D02*
X3749539Y-1726817D01*
X3978110Y-1793484D02*
X3978110Y-1593484D01*
X4063825Y-1793484D02*
X4063825Y-1688722D01*
X4063825Y-1688722D02*
X4054301Y-1669674D01*
X4054301Y-1669674D02*
X4035253Y-1660150D01*
X4035253Y-1660150D02*
X4006682Y-1660150D01*
X4006682Y-1660150D02*
X3987634Y-1669674D01*
X3987634Y-1669674D02*
X3978110Y-1679198D01*
X4187634Y-1793484D02*
X4168587Y-1783960D01*
X4168587Y-1783960D02*
X4159063Y-1774436D01*
X4159063Y-1774436D02*
X4149539Y-1755388D01*
X4149539Y-1755388D02*
X4149539Y-1698246D01*
X4149539Y-1698246D02*
X4159063Y-1679198D01*
X4159063Y-1679198D02*
X4168587Y-1669674D01*
X4168587Y-1669674D02*
X4187634Y-1660150D01*
X4187634Y-1660150D02*
X4216206Y-1660150D01*
X4216206Y-1660150D02*
X4235253Y-1669674D01*
X4235253Y-1669674D02*
X4244777Y-1679198D01*
X4244777Y-1679198D02*
X4254301Y-1698246D01*
X4254301Y-1698246D02*
X4254301Y-1755388D01*
X4254301Y-1755388D02*
X4244777Y-1774436D01*
X4244777Y-1774436D02*
X4235253Y-1783960D01*
X4235253Y-1783960D02*
X4216206Y-1793484D01*
X4216206Y-1793484D02*
X4187634Y-1793484D01*
X4368587Y-1793484D02*
X4349539Y-1783960D01*
X4349539Y-1783960D02*
X4340015Y-1764912D01*
X4340015Y-1764912D02*
X4340015Y-1593484D01*
X4520968Y-1783960D02*
X4501920Y-1793484D01*
X4501920Y-1793484D02*
X4463825Y-1793484D01*
X4463825Y-1793484D02*
X4444777Y-1783960D01*
X4444777Y-1783960D02*
X4435253Y-1764912D01*
X4435253Y-1764912D02*
X4435253Y-1688722D01*
X4435253Y-1688722D02*
X4444777Y-1669674D01*
X4444777Y-1669674D02*
X4463825Y-1660150D01*
X4463825Y-1660150D02*
X4501920Y-1660150D01*
X4501920Y-1660150D02*
X4520968Y-1669674D01*
X4520968Y-1669674D02*
X4530492Y-1688722D01*
X4530492Y-1688722D02*
X4530492Y-1707769D01*
X4530492Y-1707769D02*
X4435253Y-1726817D01*
X4606682Y-1783960D02*
X4625730Y-1793484D01*
X4625730Y-1793484D02*
X4663825Y-1793484D01*
X4663825Y-1793484D02*
X4682873Y-1783960D01*
X4682873Y-1783960D02*
X4692396Y-1764912D01*
X4692396Y-1764912D02*
X4692396Y-1755388D01*
X4692396Y-1755388D02*
X4682873Y-1736341D01*
X4682873Y-1736341D02*
X4663825Y-1726817D01*
X4663825Y-1726817D02*
X4635253Y-1726817D01*
X4635253Y-1726817D02*
X4616206Y-1717293D01*
X4616206Y-1717293D02*
X4606682Y-1698246D01*
X4606682Y-1698246D02*
X4606682Y-1688722D01*
X4606682Y-1688722D02*
X4616206Y-1669674D01*
X4616206Y-1669674D02*
X4635253Y-1660150D01*
X4635253Y-1660150D02*
X4663825Y-1660150D01*
X4663825Y-1660150D02*
X4682873Y-1669674D01*
X4759063Y-1869674D02*
X4768587Y-1860150D01*
X4768587Y-1860150D02*
X4787634Y-1831579D01*
X4787634Y-1831579D02*
X4797158Y-1812531D01*
X4797158Y-1812531D02*
X4806682Y-1783960D01*
X4806682Y-1783960D02*
X4816206Y-1736341D01*
X4816206Y-1736341D02*
X4816206Y-1698246D01*
X4816206Y-1698246D02*
X4806682Y-1650627D01*
X4806682Y-1650627D02*
X4797158Y-1622055D01*
X4797158Y-1622055D02*
X4787634Y-1603008D01*
X4787634Y-1603008D02*
X4768587Y-1574436D01*
X4768587Y-1574436D02*
X4759063Y-1564912D01*
D10*
X-96000Y-1926000D02*
X-16000Y-2006000D01*
X-16000Y-1926000D02*
X-96000Y-2006000D01*
X-16000Y-1966000D02*
G75*
G02*
X-96000Y-1966000I-40000J0D01*
G01*
X-96000Y-1966000D02*
G75*
G02*
X-16000Y-1966000I40000J0D01*
G01*
D11*
X282872Y-1857484D02*
X301920Y-1857484D01*
X301920Y-1857484D02*
X320967Y-1867008D01*
X320967Y-1867008D02*
X330491Y-1876531D01*
X330491Y-1876531D02*
X340015Y-1895579D01*
X340015Y-1895579D02*
X349539Y-1933674D01*
X349539Y-1933674D02*
X349539Y-1981293D01*
X349539Y-1981293D02*
X340015Y-2019388D01*
X340015Y-2019388D02*
X330491Y-2038436D01*
X330491Y-2038436D02*
X320967Y-2047960D01*
X320967Y-2047960D02*
X301920Y-2057484D01*
X301920Y-2057484D02*
X282872Y-2057484D01*
X282872Y-2057484D02*
X263824Y-2047960D01*
X263824Y-2047960D02*
X254301Y-2038436D01*
X254301Y-2038436D02*
X244777Y-2019388D01*
X244777Y-2019388D02*
X235253Y-1981293D01*
X235253Y-1981293D02*
X235253Y-1933674D01*
X235253Y-1933674D02*
X244777Y-1895579D01*
X244777Y-1895579D02*
X254301Y-1876531D01*
X254301Y-1876531D02*
X263824Y-1867008D01*
X263824Y-1867008D02*
X282872Y-1857484D01*
X435253Y-2038436D02*
X444777Y-2047960D01*
X444777Y-2047960D02*
X435253Y-2057484D01*
X435253Y-2057484D02*
X425729Y-2047960D01*
X425729Y-2047960D02*
X435253Y-2038436D01*
X435253Y-2038436D02*
X435253Y-2057484D01*
X559063Y-1943198D02*
X540015Y-1933674D01*
X540015Y-1933674D02*
X530491Y-1924150D01*
X530491Y-1924150D02*
X520967Y-1905103D01*
X520967Y-1905103D02*
X520967Y-1895579D01*
X520967Y-1895579D02*
X530491Y-1876531D01*
X530491Y-1876531D02*
X540015Y-1867008D01*
X540015Y-1867008D02*
X559063Y-1857484D01*
X559063Y-1857484D02*
X597158Y-1857484D01*
X597158Y-1857484D02*
X616205Y-1867008D01*
X616205Y-1867008D02*
X625729Y-1876531D01*
X625729Y-1876531D02*
X635253Y-1895579D01*
X635253Y-1895579D02*
X635253Y-1905103D01*
X635253Y-1905103D02*
X625729Y-1924150D01*
X625729Y-1924150D02*
X616205Y-1933674D01*
X616205Y-1933674D02*
X597158Y-1943198D01*
X597158Y-1943198D02*
X559063Y-1943198D01*
X559063Y-1943198D02*
X540015Y-1952722D01*
X540015Y-1952722D02*
X530491Y-1962246D01*
X530491Y-1962246D02*
X520967Y-1981293D01*
X520967Y-1981293D02*
X520967Y-2019388D01*
X520967Y-2019388D02*
X530491Y-2038436D01*
X530491Y-2038436D02*
X540015Y-2047960D01*
X540015Y-2047960D02*
X559063Y-2057484D01*
X559063Y-2057484D02*
X597158Y-2057484D01*
X597158Y-2057484D02*
X616205Y-2047960D01*
X616205Y-2047960D02*
X625729Y-2038436D01*
X625729Y-2038436D02*
X635253Y-2019388D01*
X635253Y-2019388D02*
X635253Y-1981293D01*
X635253Y-1981293D02*
X625729Y-1962246D01*
X625729Y-1962246D02*
X616205Y-1952722D01*
X616205Y-1952722D02*
X597158Y-1943198D01*
X759062Y-1857484D02*
X778110Y-1857484D01*
X778110Y-1857484D02*
X797158Y-1867008D01*
X797158Y-1867008D02*
X806682Y-1876531D01*
X806682Y-1876531D02*
X816205Y-1895579D01*
X816205Y-1895579D02*
X825729Y-1933674D01*
X825729Y-1933674D02*
X825729Y-1981293D01*
X825729Y-1981293D02*
X816205Y-2019388D01*
X816205Y-2019388D02*
X806682Y-2038436D01*
X806682Y-2038436D02*
X797158Y-2047960D01*
X797158Y-2047960D02*
X778110Y-2057484D01*
X778110Y-2057484D02*
X759062Y-2057484D01*
X759062Y-2057484D02*
X740015Y-2047960D01*
X740015Y-2047960D02*
X730491Y-2038436D01*
X730491Y-2038436D02*
X720967Y-2019388D01*
X720967Y-2019388D02*
X711443Y-1981293D01*
X711443Y-1981293D02*
X711443Y-1933674D01*
X711443Y-1933674D02*
X720967Y-1895579D01*
X720967Y-1895579D02*
X730491Y-1876531D01*
X730491Y-1876531D02*
X740015Y-1867008D01*
X740015Y-1867008D02*
X759062Y-1857484D01*
X949539Y-1857484D02*
X968586Y-1857484D01*
X968586Y-1857484D02*
X987634Y-1867008D01*
X987634Y-1867008D02*
X997158Y-1876531D01*
X997158Y-1876531D02*
X1006682Y-1895579D01*
X1006682Y-1895579D02*
X1016205Y-1933674D01*
X1016205Y-1933674D02*
X1016205Y-1981293D01*
X1016205Y-1981293D02*
X1006682Y-2019388D01*
X1006682Y-2019388D02*
X997158Y-2038436D01*
X997158Y-2038436D02*
X987634Y-2047960D01*
X987634Y-2047960D02*
X968586Y-2057484D01*
X968586Y-2057484D02*
X949539Y-2057484D01*
X949539Y-2057484D02*
X930491Y-2047960D01*
X930491Y-2047960D02*
X920967Y-2038436D01*
X920967Y-2038436D02*
X911443Y-2019388D01*
X911443Y-2019388D02*
X901920Y-1981293D01*
X901920Y-1981293D02*
X901920Y-1933674D01*
X901920Y-1933674D02*
X911443Y-1895579D01*
X911443Y-1895579D02*
X920967Y-1876531D01*
X920967Y-1876531D02*
X930491Y-1867008D01*
X930491Y-1867008D02*
X949539Y-1857484D01*
X1101920Y-2057484D02*
X1101920Y-1924150D01*
X1101920Y-1943198D02*
X1111444Y-1933674D01*
X1111444Y-1933674D02*
X1130491Y-1924150D01*
X1130491Y-1924150D02*
X1159063Y-1924150D01*
X1159063Y-1924150D02*
X1178110Y-1933674D01*
X1178110Y-1933674D02*
X1187634Y-1952722D01*
X1187634Y-1952722D02*
X1187634Y-2057484D01*
X1187634Y-1952722D02*
X1197158Y-1933674D01*
X1197158Y-1933674D02*
X1216205Y-1924150D01*
X1216205Y-1924150D02*
X1244777Y-1924150D01*
X1244777Y-1924150D02*
X1263825Y-1933674D01*
X1263825Y-1933674D02*
X1273348Y-1952722D01*
X1273348Y-1952722D02*
X1273348Y-2057484D01*
X1368586Y-2057484D02*
X1368586Y-1924150D01*
X1368586Y-1943198D02*
X1378110Y-1933674D01*
X1378110Y-1933674D02*
X1397158Y-1924150D01*
X1397158Y-1924150D02*
X1425729Y-1924150D01*
X1425729Y-1924150D02*
X1444777Y-1933674D01*
X1444777Y-1933674D02*
X1454301Y-1952722D01*
X1454301Y-1952722D02*
X1454301Y-2057484D01*
X1454301Y-1952722D02*
X1463824Y-1933674D01*
X1463824Y-1933674D02*
X1482872Y-1924150D01*
X1482872Y-1924150D02*
X1511443Y-1924150D01*
X1511443Y-1924150D02*
X1530491Y-1933674D01*
X1530491Y-1933674D02*
X1540015Y-1952722D01*
X1540015Y-1952722D02*
X1540015Y-2057484D01*
X1930491Y-1847960D02*
X1759063Y-2105103D01*
X2187634Y-1857484D02*
X2206682Y-1857484D01*
X2206682Y-1857484D02*
X2225729Y-1867008D01*
X2225729Y-1867008D02*
X2235253Y-1876531D01*
X2235253Y-1876531D02*
X2244777Y-1895579D01*
X2244777Y-1895579D02*
X2254301Y-1933674D01*
X2254301Y-1933674D02*
X2254301Y-1981293D01*
X2254301Y-1981293D02*
X2244777Y-2019388D01*
X2244777Y-2019388D02*
X2235253Y-2038436D01*
X2235253Y-2038436D02*
X2225729Y-2047960D01*
X2225729Y-2047960D02*
X2206682Y-2057484D01*
X2206682Y-2057484D02*
X2187634Y-2057484D01*
X2187634Y-2057484D02*
X2168587Y-2047960D01*
X2168587Y-2047960D02*
X2159063Y-2038436D01*
X2159063Y-2038436D02*
X2149539Y-2019388D01*
X2149539Y-2019388D02*
X2140015Y-1981293D01*
X2140015Y-1981293D02*
X2140015Y-1933674D01*
X2140015Y-1933674D02*
X2149539Y-1895579D01*
X2149539Y-1895579D02*
X2159063Y-1876531D01*
X2159063Y-1876531D02*
X2168587Y-1867008D01*
X2168587Y-1867008D02*
X2187634Y-1857484D01*
X2340015Y-2038436D02*
X2349539Y-2047960D01*
X2349539Y-2047960D02*
X2340015Y-2057484D01*
X2340015Y-2057484D02*
X2330491Y-2047960D01*
X2330491Y-2047960D02*
X2340015Y-2038436D01*
X2340015Y-2038436D02*
X2340015Y-2057484D01*
X2473348Y-1857484D02*
X2492396Y-1857484D01*
X2492396Y-1857484D02*
X2511444Y-1867008D01*
X2511444Y-1867008D02*
X2520968Y-1876531D01*
X2520968Y-1876531D02*
X2530491Y-1895579D01*
X2530491Y-1895579D02*
X2540015Y-1933674D01*
X2540015Y-1933674D02*
X2540015Y-1981293D01*
X2540015Y-1981293D02*
X2530491Y-2019388D01*
X2530491Y-2019388D02*
X2520968Y-2038436D01*
X2520968Y-2038436D02*
X2511444Y-2047960D01*
X2511444Y-2047960D02*
X2492396Y-2057484D01*
X2492396Y-2057484D02*
X2473348Y-2057484D01*
X2473348Y-2057484D02*
X2454301Y-2047960D01*
X2454301Y-2047960D02*
X2444777Y-2038436D01*
X2444777Y-2038436D02*
X2435253Y-2019388D01*
X2435253Y-2019388D02*
X2425729Y-1981293D01*
X2425729Y-1981293D02*
X2425729Y-1933674D01*
X2425729Y-1933674D02*
X2435253Y-1895579D01*
X2435253Y-1895579D02*
X2444777Y-1876531D01*
X2444777Y-1876531D02*
X2454301Y-1867008D01*
X2454301Y-1867008D02*
X2473348Y-1857484D01*
X2606682Y-1857484D02*
X2730491Y-1857484D01*
X2730491Y-1857484D02*
X2663825Y-1933674D01*
X2663825Y-1933674D02*
X2692396Y-1933674D01*
X2692396Y-1933674D02*
X2711444Y-1943198D01*
X2711444Y-1943198D02*
X2720968Y-1952722D01*
X2720968Y-1952722D02*
X2730491Y-1971769D01*
X2730491Y-1971769D02*
X2730491Y-2019388D01*
X2730491Y-2019388D02*
X2720968Y-2038436D01*
X2720968Y-2038436D02*
X2711444Y-2047960D01*
X2711444Y-2047960D02*
X2692396Y-2057484D01*
X2692396Y-2057484D02*
X2635253Y-2057484D01*
X2635253Y-2057484D02*
X2616206Y-2047960D01*
X2616206Y-2047960D02*
X2606682Y-2038436D01*
X2920967Y-2057484D02*
X2806682Y-2057484D01*
X2863825Y-2057484D02*
X2863825Y-1857484D01*
X2863825Y-1857484D02*
X2844777Y-1886055D01*
X2844777Y-1886055D02*
X2825729Y-1905103D01*
X2825729Y-1905103D02*
X2806682Y-1914627D01*
X3101920Y-1857484D02*
X3006682Y-1857484D01*
X3006682Y-1857484D02*
X2997158Y-1952722D01*
X2997158Y-1952722D02*
X3006682Y-1943198D01*
X3006682Y-1943198D02*
X3025729Y-1933674D01*
X3025729Y-1933674D02*
X3073348Y-1933674D01*
X3073348Y-1933674D02*
X3092396Y-1943198D01*
X3092396Y-1943198D02*
X3101920Y-1952722D01*
X3101920Y-1952722D02*
X3111444Y-1971769D01*
X3111444Y-1971769D02*
X3111444Y-2019388D01*
X3111444Y-2019388D02*
X3101920Y-2038436D01*
X3101920Y-2038436D02*
X3092396Y-2047960D01*
X3092396Y-2047960D02*
X3073348Y-2057484D01*
X3073348Y-2057484D02*
X3025729Y-2057484D01*
X3025729Y-2057484D02*
X3006682Y-2047960D01*
X3006682Y-2047960D02*
X2997158Y-2038436D01*
X3187634Y-1857484D02*
X3187634Y-1895579D01*
X3263825Y-1857484D02*
X3263825Y-1895579D01*
X3559063Y-2133674D02*
X3549539Y-2124150D01*
X3549539Y-2124150D02*
X3530491Y-2095579D01*
X3530491Y-2095579D02*
X3520968Y-2076531D01*
X3520968Y-2076531D02*
X3511444Y-2047960D01*
X3511444Y-2047960D02*
X3501920Y-2000341D01*
X3501920Y-2000341D02*
X3501920Y-1962246D01*
X3501920Y-1962246D02*
X3511444Y-1914627D01*
X3511444Y-1914627D02*
X3520968Y-1886055D01*
X3520968Y-1886055D02*
X3530491Y-1867008D01*
X3530491Y-1867008D02*
X3549539Y-1838436D01*
X3549539Y-1838436D02*
X3559063Y-1828912D01*
X3720968Y-1857484D02*
X3682872Y-1857484D01*
X3682872Y-1857484D02*
X3663825Y-1867008D01*
X3663825Y-1867008D02*
X3654301Y-1876531D01*
X3654301Y-1876531D02*
X3635253Y-1905103D01*
X3635253Y-1905103D02*
X3625729Y-1943198D01*
X3625729Y-1943198D02*
X3625729Y-2019388D01*
X3625729Y-2019388D02*
X3635253Y-2038436D01*
X3635253Y-2038436D02*
X3644777Y-2047960D01*
X3644777Y-2047960D02*
X3663825Y-2057484D01*
X3663825Y-2057484D02*
X3701920Y-2057484D01*
X3701920Y-2057484D02*
X3720968Y-2047960D01*
X3720968Y-2047960D02*
X3730491Y-2038436D01*
X3730491Y-2038436D02*
X3740015Y-2019388D01*
X3740015Y-2019388D02*
X3740015Y-1971769D01*
X3740015Y-1971769D02*
X3730491Y-1952722D01*
X3730491Y-1952722D02*
X3720968Y-1943198D01*
X3720968Y-1943198D02*
X3701920Y-1933674D01*
X3701920Y-1933674D02*
X3663825Y-1933674D01*
X3663825Y-1933674D02*
X3644777Y-1943198D01*
X3644777Y-1943198D02*
X3635253Y-1952722D01*
X3635253Y-1952722D02*
X3625729Y-1971769D01*
X3978110Y-2057484D02*
X3978110Y-1857484D01*
X4063825Y-2057484D02*
X4063825Y-1952722D01*
X4063825Y-1952722D02*
X4054301Y-1933674D01*
X4054301Y-1933674D02*
X4035253Y-1924150D01*
X4035253Y-1924150D02*
X4006682Y-1924150D01*
X4006682Y-1924150D02*
X3987634Y-1933674D01*
X3987634Y-1933674D02*
X3978110Y-1943198D01*
X4187634Y-2057484D02*
X4168587Y-2047960D01*
X4168587Y-2047960D02*
X4159063Y-2038436D01*
X4159063Y-2038436D02*
X4149539Y-2019388D01*
X4149539Y-2019388D02*
X4149539Y-1962246D01*
X4149539Y-1962246D02*
X4159063Y-1943198D01*
X4159063Y-1943198D02*
X4168587Y-1933674D01*
X4168587Y-1933674D02*
X4187634Y-1924150D01*
X4187634Y-1924150D02*
X4216206Y-1924150D01*
X4216206Y-1924150D02*
X4235253Y-1933674D01*
X4235253Y-1933674D02*
X4244777Y-1943198D01*
X4244777Y-1943198D02*
X4254301Y-1962246D01*
X4254301Y-1962246D02*
X4254301Y-2019388D01*
X4254301Y-2019388D02*
X4244777Y-2038436D01*
X4244777Y-2038436D02*
X4235253Y-2047960D01*
X4235253Y-2047960D02*
X4216206Y-2057484D01*
X4216206Y-2057484D02*
X4187634Y-2057484D01*
X4368587Y-2057484D02*
X4349539Y-2047960D01*
X4349539Y-2047960D02*
X4340015Y-2028912D01*
X4340015Y-2028912D02*
X4340015Y-1857484D01*
X4520968Y-2047960D02*
X4501920Y-2057484D01*
X4501920Y-2057484D02*
X4463825Y-2057484D01*
X4463825Y-2057484D02*
X4444777Y-2047960D01*
X4444777Y-2047960D02*
X4435253Y-2028912D01*
X4435253Y-2028912D02*
X4435253Y-1952722D01*
X4435253Y-1952722D02*
X4444777Y-1933674D01*
X4444777Y-1933674D02*
X4463825Y-1924150D01*
X4463825Y-1924150D02*
X4501920Y-1924150D01*
X4501920Y-1924150D02*
X4520968Y-1933674D01*
X4520968Y-1933674D02*
X4530492Y-1952722D01*
X4530492Y-1952722D02*
X4530492Y-1971769D01*
X4530492Y-1971769D02*
X4435253Y-1990817D01*
X4606682Y-2047960D02*
X4625730Y-2057484D01*
X4625730Y-2057484D02*
X4663825Y-2057484D01*
X4663825Y-2057484D02*
X4682873Y-2047960D01*
X4682873Y-2047960D02*
X4692396Y-2028912D01*
X4692396Y-2028912D02*
X4692396Y-2019388D01*
X4692396Y-2019388D02*
X4682873Y-2000341D01*
X4682873Y-2000341D02*
X4663825Y-1990817D01*
X4663825Y-1990817D02*
X4635253Y-1990817D01*
X4635253Y-1990817D02*
X4616206Y-1981293D01*
X4616206Y-1981293D02*
X4606682Y-1962246D01*
X4606682Y-1962246D02*
X4606682Y-1952722D01*
X4606682Y-1952722D02*
X4616206Y-1933674D01*
X4616206Y-1933674D02*
X4635253Y-1924150D01*
X4635253Y-1924150D02*
X4663825Y-1924150D01*
X4663825Y-1924150D02*
X4682873Y-1933674D01*
X4759063Y-2133674D02*
X4768587Y-2124150D01*
X4768587Y-2124150D02*
X4787634Y-2095579D01*
X4787634Y-2095579D02*
X4797158Y-2076531D01*
X4797158Y-2076531D02*
X4806682Y-2047960D01*
X4806682Y-2047960D02*
X4816206Y-2000341D01*
X4816206Y-2000341D02*
X4816206Y-1962246D01*
X4816206Y-1962246D02*
X4806682Y-1914627D01*
X4806682Y-1914627D02*
X4797158Y-1886055D01*
X4797158Y-1886055D02*
X4787634Y-1867008D01*
X4787634Y-1867008D02*
X4768587Y-1838436D01*
X4768587Y-1838436D02*
X4759063Y-1828912D01*
D10*
X-106000Y-2185000D02*
X-16000Y-2275000D01*
X-16000Y-2185000D02*
X-106000Y-2275000D01*
X-61000Y-2185000D02*
X-61000Y-2275000D01*
X-106000Y-2230000D02*
X-16000Y-2230000D01*
D11*
X282872Y-2121484D02*
X301920Y-2121484D01*
X301920Y-2121484D02*
X320967Y-2131008D01*
X320967Y-2131008D02*
X330491Y-2140531D01*
X330491Y-2140531D02*
X340015Y-2159579D01*
X340015Y-2159579D02*
X349539Y-2197674D01*
X349539Y-2197674D02*
X349539Y-2245293D01*
X349539Y-2245293D02*
X340015Y-2283389D01*
X340015Y-2283389D02*
X330491Y-2302436D01*
X330491Y-2302436D02*
X320967Y-2311960D01*
X320967Y-2311960D02*
X301920Y-2321484D01*
X301920Y-2321484D02*
X282872Y-2321484D01*
X282872Y-2321484D02*
X263824Y-2311960D01*
X263824Y-2311960D02*
X254301Y-2302436D01*
X254301Y-2302436D02*
X244777Y-2283389D01*
X244777Y-2283389D02*
X235253Y-2245293D01*
X235253Y-2245293D02*
X235253Y-2197674D01*
X235253Y-2197674D02*
X244777Y-2159579D01*
X244777Y-2159579D02*
X254301Y-2140531D01*
X254301Y-2140531D02*
X263824Y-2131008D01*
X263824Y-2131008D02*
X282872Y-2121484D01*
X435253Y-2302436D02*
X444777Y-2311960D01*
X444777Y-2311960D02*
X435253Y-2321484D01*
X435253Y-2321484D02*
X425729Y-2311960D01*
X425729Y-2311960D02*
X435253Y-2302436D01*
X435253Y-2302436D02*
X435253Y-2321484D01*
X540015Y-2321484D02*
X578110Y-2321484D01*
X578110Y-2321484D02*
X597158Y-2311960D01*
X597158Y-2311960D02*
X606682Y-2302436D01*
X606682Y-2302436D02*
X625729Y-2273865D01*
X625729Y-2273865D02*
X635253Y-2235770D01*
X635253Y-2235770D02*
X635253Y-2159579D01*
X635253Y-2159579D02*
X625729Y-2140531D01*
X625729Y-2140531D02*
X616205Y-2131008D01*
X616205Y-2131008D02*
X597158Y-2121484D01*
X597158Y-2121484D02*
X559063Y-2121484D01*
X559063Y-2121484D02*
X540015Y-2131008D01*
X540015Y-2131008D02*
X530491Y-2140531D01*
X530491Y-2140531D02*
X520967Y-2159579D01*
X520967Y-2159579D02*
X520967Y-2207198D01*
X520967Y-2207198D02*
X530491Y-2226246D01*
X530491Y-2226246D02*
X540015Y-2235770D01*
X540015Y-2235770D02*
X559063Y-2245293D01*
X559063Y-2245293D02*
X597158Y-2245293D01*
X597158Y-2245293D02*
X616205Y-2235770D01*
X616205Y-2235770D02*
X625729Y-2226246D01*
X625729Y-2226246D02*
X635253Y-2207198D01*
X759062Y-2121484D02*
X778110Y-2121484D01*
X778110Y-2121484D02*
X797158Y-2131008D01*
X797158Y-2131008D02*
X806682Y-2140531D01*
X806682Y-2140531D02*
X816205Y-2159579D01*
X816205Y-2159579D02*
X825729Y-2197674D01*
X825729Y-2197674D02*
X825729Y-2245293D01*
X825729Y-2245293D02*
X816205Y-2283389D01*
X816205Y-2283389D02*
X806682Y-2302436D01*
X806682Y-2302436D02*
X797158Y-2311960D01*
X797158Y-2311960D02*
X778110Y-2321484D01*
X778110Y-2321484D02*
X759062Y-2321484D01*
X759062Y-2321484D02*
X740015Y-2311960D01*
X740015Y-2311960D02*
X730491Y-2302436D01*
X730491Y-2302436D02*
X720967Y-2283389D01*
X720967Y-2283389D02*
X711443Y-2245293D01*
X711443Y-2245293D02*
X711443Y-2197674D01*
X711443Y-2197674D02*
X720967Y-2159579D01*
X720967Y-2159579D02*
X730491Y-2140531D01*
X730491Y-2140531D02*
X740015Y-2131008D01*
X740015Y-2131008D02*
X759062Y-2121484D01*
X949539Y-2121484D02*
X968586Y-2121484D01*
X968586Y-2121484D02*
X987634Y-2131008D01*
X987634Y-2131008D02*
X997158Y-2140531D01*
X997158Y-2140531D02*
X1006682Y-2159579D01*
X1006682Y-2159579D02*
X1016205Y-2197674D01*
X1016205Y-2197674D02*
X1016205Y-2245293D01*
X1016205Y-2245293D02*
X1006682Y-2283389D01*
X1006682Y-2283389D02*
X997158Y-2302436D01*
X997158Y-2302436D02*
X987634Y-2311960D01*
X987634Y-2311960D02*
X968586Y-2321484D01*
X968586Y-2321484D02*
X949539Y-2321484D01*
X949539Y-2321484D02*
X930491Y-2311960D01*
X930491Y-2311960D02*
X920967Y-2302436D01*
X920967Y-2302436D02*
X911443Y-2283389D01*
X911443Y-2283389D02*
X901920Y-2245293D01*
X901920Y-2245293D02*
X901920Y-2197674D01*
X901920Y-2197674D02*
X911443Y-2159579D01*
X911443Y-2159579D02*
X920967Y-2140531D01*
X920967Y-2140531D02*
X930491Y-2131008D01*
X930491Y-2131008D02*
X949539Y-2121484D01*
X1101920Y-2321484D02*
X1101920Y-2188150D01*
X1101920Y-2207198D02*
X1111444Y-2197674D01*
X1111444Y-2197674D02*
X1130491Y-2188150D01*
X1130491Y-2188150D02*
X1159063Y-2188150D01*
X1159063Y-2188150D02*
X1178110Y-2197674D01*
X1178110Y-2197674D02*
X1187634Y-2216722D01*
X1187634Y-2216722D02*
X1187634Y-2321484D01*
X1187634Y-2216722D02*
X1197158Y-2197674D01*
X1197158Y-2197674D02*
X1216205Y-2188150D01*
X1216205Y-2188150D02*
X1244777Y-2188150D01*
X1244777Y-2188150D02*
X1263825Y-2197674D01*
X1263825Y-2197674D02*
X1273348Y-2216722D01*
X1273348Y-2216722D02*
X1273348Y-2321484D01*
X1368586Y-2321484D02*
X1368586Y-2188150D01*
X1368586Y-2207198D02*
X1378110Y-2197674D01*
X1378110Y-2197674D02*
X1397158Y-2188150D01*
X1397158Y-2188150D02*
X1425729Y-2188150D01*
X1425729Y-2188150D02*
X1444777Y-2197674D01*
X1444777Y-2197674D02*
X1454301Y-2216722D01*
X1454301Y-2216722D02*
X1454301Y-2321484D01*
X1454301Y-2216722D02*
X1463824Y-2197674D01*
X1463824Y-2197674D02*
X1482872Y-2188150D01*
X1482872Y-2188150D02*
X1511443Y-2188150D01*
X1511443Y-2188150D02*
X1530491Y-2197674D01*
X1530491Y-2197674D02*
X1540015Y-2216722D01*
X1540015Y-2216722D02*
X1540015Y-2321484D01*
X1930491Y-2111960D02*
X1759063Y-2369103D01*
X2187634Y-2121484D02*
X2206682Y-2121484D01*
X2206682Y-2121484D02*
X2225729Y-2131008D01*
X2225729Y-2131008D02*
X2235253Y-2140531D01*
X2235253Y-2140531D02*
X2244777Y-2159579D01*
X2244777Y-2159579D02*
X2254301Y-2197674D01*
X2254301Y-2197674D02*
X2254301Y-2245293D01*
X2254301Y-2245293D02*
X2244777Y-2283389D01*
X2244777Y-2283389D02*
X2235253Y-2302436D01*
X2235253Y-2302436D02*
X2225729Y-2311960D01*
X2225729Y-2311960D02*
X2206682Y-2321484D01*
X2206682Y-2321484D02*
X2187634Y-2321484D01*
X2187634Y-2321484D02*
X2168587Y-2311960D01*
X2168587Y-2311960D02*
X2159063Y-2302436D01*
X2159063Y-2302436D02*
X2149539Y-2283389D01*
X2149539Y-2283389D02*
X2140015Y-2245293D01*
X2140015Y-2245293D02*
X2140015Y-2197674D01*
X2140015Y-2197674D02*
X2149539Y-2159579D01*
X2149539Y-2159579D02*
X2159063Y-2140531D01*
X2159063Y-2140531D02*
X2168587Y-2131008D01*
X2168587Y-2131008D02*
X2187634Y-2121484D01*
X2340015Y-2302436D02*
X2349539Y-2311960D01*
X2349539Y-2311960D02*
X2340015Y-2321484D01*
X2340015Y-2321484D02*
X2330491Y-2311960D01*
X2330491Y-2311960D02*
X2340015Y-2302436D01*
X2340015Y-2302436D02*
X2340015Y-2321484D01*
X2473348Y-2121484D02*
X2492396Y-2121484D01*
X2492396Y-2121484D02*
X2511444Y-2131008D01*
X2511444Y-2131008D02*
X2520968Y-2140531D01*
X2520968Y-2140531D02*
X2530491Y-2159579D01*
X2530491Y-2159579D02*
X2540015Y-2197674D01*
X2540015Y-2197674D02*
X2540015Y-2245293D01*
X2540015Y-2245293D02*
X2530491Y-2283389D01*
X2530491Y-2283389D02*
X2520968Y-2302436D01*
X2520968Y-2302436D02*
X2511444Y-2311960D01*
X2511444Y-2311960D02*
X2492396Y-2321484D01*
X2492396Y-2321484D02*
X2473348Y-2321484D01*
X2473348Y-2321484D02*
X2454301Y-2311960D01*
X2454301Y-2311960D02*
X2444777Y-2302436D01*
X2444777Y-2302436D02*
X2435253Y-2283389D01*
X2435253Y-2283389D02*
X2425729Y-2245293D01*
X2425729Y-2245293D02*
X2425729Y-2197674D01*
X2425729Y-2197674D02*
X2435253Y-2159579D01*
X2435253Y-2159579D02*
X2444777Y-2140531D01*
X2444777Y-2140531D02*
X2454301Y-2131008D01*
X2454301Y-2131008D02*
X2473348Y-2121484D01*
X2606682Y-2121484D02*
X2730491Y-2121484D01*
X2730491Y-2121484D02*
X2663825Y-2197674D01*
X2663825Y-2197674D02*
X2692396Y-2197674D01*
X2692396Y-2197674D02*
X2711444Y-2207198D01*
X2711444Y-2207198D02*
X2720968Y-2216722D01*
X2720968Y-2216722D02*
X2730491Y-2235770D01*
X2730491Y-2235770D02*
X2730491Y-2283389D01*
X2730491Y-2283389D02*
X2720968Y-2302436D01*
X2720968Y-2302436D02*
X2711444Y-2311960D01*
X2711444Y-2311960D02*
X2692396Y-2321484D01*
X2692396Y-2321484D02*
X2635253Y-2321484D01*
X2635253Y-2321484D02*
X2616206Y-2311960D01*
X2616206Y-2311960D02*
X2606682Y-2302436D01*
X2911444Y-2121484D02*
X2816206Y-2121484D01*
X2816206Y-2121484D02*
X2806682Y-2216722D01*
X2806682Y-2216722D02*
X2816206Y-2207198D01*
X2816206Y-2207198D02*
X2835253Y-2197674D01*
X2835253Y-2197674D02*
X2882872Y-2197674D01*
X2882872Y-2197674D02*
X2901920Y-2207198D01*
X2901920Y-2207198D02*
X2911444Y-2216722D01*
X2911444Y-2216722D02*
X2920967Y-2235770D01*
X2920967Y-2235770D02*
X2920967Y-2283389D01*
X2920967Y-2283389D02*
X2911444Y-2302436D01*
X2911444Y-2302436D02*
X2901920Y-2311960D01*
X2901920Y-2311960D02*
X2882872Y-2321484D01*
X2882872Y-2321484D02*
X2835253Y-2321484D01*
X2835253Y-2321484D02*
X2816206Y-2311960D01*
X2816206Y-2311960D02*
X2806682Y-2302436D01*
X3092396Y-2188150D02*
X3092396Y-2321484D01*
X3044777Y-2111960D02*
X2997158Y-2254817D01*
X2997158Y-2254817D02*
X3120967Y-2254817D01*
X3187634Y-2121484D02*
X3187634Y-2159579D01*
X3263825Y-2121484D02*
X3263825Y-2159579D01*
X3559063Y-2397674D02*
X3549539Y-2388150D01*
X3549539Y-2388150D02*
X3530491Y-2359579D01*
X3530491Y-2359579D02*
X3520968Y-2340531D01*
X3520968Y-2340531D02*
X3511444Y-2311960D01*
X3511444Y-2311960D02*
X3501920Y-2264341D01*
X3501920Y-2264341D02*
X3501920Y-2226246D01*
X3501920Y-2226246D02*
X3511444Y-2178627D01*
X3511444Y-2178627D02*
X3520968Y-2150055D01*
X3520968Y-2150055D02*
X3530491Y-2131008D01*
X3530491Y-2131008D02*
X3549539Y-2102436D01*
X3549539Y-2102436D02*
X3559063Y-2092912D01*
X3625729Y-2140531D02*
X3635253Y-2131008D01*
X3635253Y-2131008D02*
X3654301Y-2121484D01*
X3654301Y-2121484D02*
X3701920Y-2121484D01*
X3701920Y-2121484D02*
X3720968Y-2131008D01*
X3720968Y-2131008D02*
X3730491Y-2140531D01*
X3730491Y-2140531D02*
X3740015Y-2159579D01*
X3740015Y-2159579D02*
X3740015Y-2178627D01*
X3740015Y-2178627D02*
X3730491Y-2207198D01*
X3730491Y-2207198D02*
X3616206Y-2321484D01*
X3616206Y-2321484D02*
X3740015Y-2321484D01*
X3978110Y-2321484D02*
X3978110Y-2121484D01*
X4063825Y-2321484D02*
X4063825Y-2216722D01*
X4063825Y-2216722D02*
X4054301Y-2197674D01*
X4054301Y-2197674D02*
X4035253Y-2188150D01*
X4035253Y-2188150D02*
X4006682Y-2188150D01*
X4006682Y-2188150D02*
X3987634Y-2197674D01*
X3987634Y-2197674D02*
X3978110Y-2207198D01*
X4187634Y-2321484D02*
X4168587Y-2311960D01*
X4168587Y-2311960D02*
X4159063Y-2302436D01*
X4159063Y-2302436D02*
X4149539Y-2283389D01*
X4149539Y-2283389D02*
X4149539Y-2226246D01*
X4149539Y-2226246D02*
X4159063Y-2207198D01*
X4159063Y-2207198D02*
X4168587Y-2197674D01*
X4168587Y-2197674D02*
X4187634Y-2188150D01*
X4187634Y-2188150D02*
X4216206Y-2188150D01*
X4216206Y-2188150D02*
X4235253Y-2197674D01*
X4235253Y-2197674D02*
X4244777Y-2207198D01*
X4244777Y-2207198D02*
X4254301Y-2226246D01*
X4254301Y-2226246D02*
X4254301Y-2283389D01*
X4254301Y-2283389D02*
X4244777Y-2302436D01*
X4244777Y-2302436D02*
X4235253Y-2311960D01*
X4235253Y-2311960D02*
X4216206Y-2321484D01*
X4216206Y-2321484D02*
X4187634Y-2321484D01*
X4368587Y-2321484D02*
X4349539Y-2311960D01*
X4349539Y-2311960D02*
X4340015Y-2292912D01*
X4340015Y-2292912D02*
X4340015Y-2121484D01*
X4520968Y-2311960D02*
X4501920Y-2321484D01*
X4501920Y-2321484D02*
X4463825Y-2321484D01*
X4463825Y-2321484D02*
X4444777Y-2311960D01*
X4444777Y-2311960D02*
X4435253Y-2292912D01*
X4435253Y-2292912D02*
X4435253Y-2216722D01*
X4435253Y-2216722D02*
X4444777Y-2197674D01*
X4444777Y-2197674D02*
X4463825Y-2188150D01*
X4463825Y-2188150D02*
X4501920Y-2188150D01*
X4501920Y-2188150D02*
X4520968Y-2197674D01*
X4520968Y-2197674D02*
X4530492Y-2216722D01*
X4530492Y-2216722D02*
X4530492Y-2235770D01*
X4530492Y-2235770D02*
X4435253Y-2254817D01*
X4606682Y-2311960D02*
X4625730Y-2321484D01*
X4625730Y-2321484D02*
X4663825Y-2321484D01*
X4663825Y-2321484D02*
X4682873Y-2311960D01*
X4682873Y-2311960D02*
X4692396Y-2292912D01*
X4692396Y-2292912D02*
X4692396Y-2283389D01*
X4692396Y-2283389D02*
X4682873Y-2264341D01*
X4682873Y-2264341D02*
X4663825Y-2254817D01*
X4663825Y-2254817D02*
X4635253Y-2254817D01*
X4635253Y-2254817D02*
X4616206Y-2245293D01*
X4616206Y-2245293D02*
X4606682Y-2226246D01*
X4606682Y-2226246D02*
X4606682Y-2216722D01*
X4606682Y-2216722D02*
X4616206Y-2197674D01*
X4616206Y-2197674D02*
X4635253Y-2188150D01*
X4635253Y-2188150D02*
X4663825Y-2188150D01*
X4663825Y-2188150D02*
X4682873Y-2197674D01*
X4759063Y-2397674D02*
X4768587Y-2388150D01*
X4768587Y-2388150D02*
X4787634Y-2359579D01*
X4787634Y-2359579D02*
X4797158Y-2340531D01*
X4797158Y-2340531D02*
X4806682Y-2311960D01*
X4806682Y-2311960D02*
X4816206Y-2264341D01*
X4816206Y-2264341D02*
X4816206Y-2226246D01*
X4816206Y-2226246D02*
X4806682Y-2178627D01*
X4806682Y-2178627D02*
X4797158Y-2150055D01*
X4797158Y-2150055D02*
X4787634Y-2131008D01*
X4787634Y-2131008D02*
X4768587Y-2102436D01*
X4768587Y-2102436D02*
X4759063Y-2092912D01*
D10*
X-111000Y-2446500D02*
X-16000Y-2541500D01*
X-16000Y-2446500D02*
X-111000Y-2541500D01*
X-29912Y-2527588D02*
X-29912Y-2460412D01*
X-97088Y-2460412D01*
X-97088Y-2527588D01*
X-29912Y-2527588D01*
D11*
X282872Y-2385484D02*
X301920Y-2385484D01*
X301920Y-2385484D02*
X320967Y-2395008D01*
X320967Y-2395008D02*
X330491Y-2404531D01*
X330491Y-2404531D02*
X340015Y-2423579D01*
X340015Y-2423579D02*
X349539Y-2461674D01*
X349539Y-2461674D02*
X349539Y-2509293D01*
X349539Y-2509293D02*
X340015Y-2547389D01*
X340015Y-2547389D02*
X330491Y-2566436D01*
X330491Y-2566436D02*
X320967Y-2575960D01*
X320967Y-2575960D02*
X301920Y-2585484D01*
X301920Y-2585484D02*
X282872Y-2585484D01*
X282872Y-2585484D02*
X263824Y-2575960D01*
X263824Y-2575960D02*
X254301Y-2566436D01*
X254301Y-2566436D02*
X244777Y-2547389D01*
X244777Y-2547389D02*
X235253Y-2509293D01*
X235253Y-2509293D02*
X235253Y-2461674D01*
X235253Y-2461674D02*
X244777Y-2423579D01*
X244777Y-2423579D02*
X254301Y-2404531D01*
X254301Y-2404531D02*
X263824Y-2395008D01*
X263824Y-2395008D02*
X282872Y-2385484D01*
X435253Y-2566436D02*
X444777Y-2575960D01*
X444777Y-2575960D02*
X435253Y-2585484D01*
X435253Y-2585484D02*
X425729Y-2575960D01*
X425729Y-2575960D02*
X435253Y-2566436D01*
X435253Y-2566436D02*
X435253Y-2585484D01*
X540015Y-2585484D02*
X578110Y-2585484D01*
X578110Y-2585484D02*
X597158Y-2575960D01*
X597158Y-2575960D02*
X606682Y-2566436D01*
X606682Y-2566436D02*
X625729Y-2537865D01*
X625729Y-2537865D02*
X635253Y-2499770D01*
X635253Y-2499770D02*
X635253Y-2423579D01*
X635253Y-2423579D02*
X625729Y-2404531D01*
X625729Y-2404531D02*
X616205Y-2395008D01*
X616205Y-2395008D02*
X597158Y-2385484D01*
X597158Y-2385484D02*
X559063Y-2385484D01*
X559063Y-2385484D02*
X540015Y-2395008D01*
X540015Y-2395008D02*
X530491Y-2404531D01*
X530491Y-2404531D02*
X520967Y-2423579D01*
X520967Y-2423579D02*
X520967Y-2471198D01*
X520967Y-2471198D02*
X530491Y-2490246D01*
X530491Y-2490246D02*
X540015Y-2499770D01*
X540015Y-2499770D02*
X559063Y-2509293D01*
X559063Y-2509293D02*
X597158Y-2509293D01*
X597158Y-2509293D02*
X616205Y-2499770D01*
X616205Y-2499770D02*
X625729Y-2490246D01*
X625729Y-2490246D02*
X635253Y-2471198D01*
X816205Y-2385484D02*
X720967Y-2385484D01*
X720967Y-2385484D02*
X711443Y-2480722D01*
X711443Y-2480722D02*
X720967Y-2471198D01*
X720967Y-2471198D02*
X740015Y-2461674D01*
X740015Y-2461674D02*
X787634Y-2461674D01*
X787634Y-2461674D02*
X806682Y-2471198D01*
X806682Y-2471198D02*
X816205Y-2480722D01*
X816205Y-2480722D02*
X825729Y-2499770D01*
X825729Y-2499770D02*
X825729Y-2547389D01*
X825729Y-2547389D02*
X816205Y-2566436D01*
X816205Y-2566436D02*
X806682Y-2575960D01*
X806682Y-2575960D02*
X787634Y-2585484D01*
X787634Y-2585484D02*
X740015Y-2585484D01*
X740015Y-2585484D02*
X720967Y-2575960D01*
X720967Y-2575960D02*
X711443Y-2566436D01*
X949539Y-2385484D02*
X968586Y-2385484D01*
X968586Y-2385484D02*
X987634Y-2395008D01*
X987634Y-2395008D02*
X997158Y-2404531D01*
X997158Y-2404531D02*
X1006682Y-2423579D01*
X1006682Y-2423579D02*
X1016205Y-2461674D01*
X1016205Y-2461674D02*
X1016205Y-2509293D01*
X1016205Y-2509293D02*
X1006682Y-2547389D01*
X1006682Y-2547389D02*
X997158Y-2566436D01*
X997158Y-2566436D02*
X987634Y-2575960D01*
X987634Y-2575960D02*
X968586Y-2585484D01*
X968586Y-2585484D02*
X949539Y-2585484D01*
X949539Y-2585484D02*
X930491Y-2575960D01*
X930491Y-2575960D02*
X920967Y-2566436D01*
X920967Y-2566436D02*
X911443Y-2547389D01*
X911443Y-2547389D02*
X901920Y-2509293D01*
X901920Y-2509293D02*
X901920Y-2461674D01*
X901920Y-2461674D02*
X911443Y-2423579D01*
X911443Y-2423579D02*
X920967Y-2404531D01*
X920967Y-2404531D02*
X930491Y-2395008D01*
X930491Y-2395008D02*
X949539Y-2385484D01*
X1101920Y-2585484D02*
X1101920Y-2452150D01*
X1101920Y-2471198D02*
X1111444Y-2461674D01*
X1111444Y-2461674D02*
X1130491Y-2452150D01*
X1130491Y-2452150D02*
X1159063Y-2452150D01*
X1159063Y-2452150D02*
X1178110Y-2461674D01*
X1178110Y-2461674D02*
X1187634Y-2480722D01*
X1187634Y-2480722D02*
X1187634Y-2585484D01*
X1187634Y-2480722D02*
X1197158Y-2461674D01*
X1197158Y-2461674D02*
X1216205Y-2452150D01*
X1216205Y-2452150D02*
X1244777Y-2452150D01*
X1244777Y-2452150D02*
X1263825Y-2461674D01*
X1263825Y-2461674D02*
X1273348Y-2480722D01*
X1273348Y-2480722D02*
X1273348Y-2585484D01*
X1368586Y-2585484D02*
X1368586Y-2452150D01*
X1368586Y-2471198D02*
X1378110Y-2461674D01*
X1378110Y-2461674D02*
X1397158Y-2452150D01*
X1397158Y-2452150D02*
X1425729Y-2452150D01*
X1425729Y-2452150D02*
X1444777Y-2461674D01*
X1444777Y-2461674D02*
X1454301Y-2480722D01*
X1454301Y-2480722D02*
X1454301Y-2585484D01*
X1454301Y-2480722D02*
X1463824Y-2461674D01*
X1463824Y-2461674D02*
X1482872Y-2452150D01*
X1482872Y-2452150D02*
X1511443Y-2452150D01*
X1511443Y-2452150D02*
X1530491Y-2461674D01*
X1530491Y-2461674D02*
X1540015Y-2480722D01*
X1540015Y-2480722D02*
X1540015Y-2585484D01*
X1930491Y-2375960D02*
X1759063Y-2633103D01*
X2187634Y-2385484D02*
X2206682Y-2385484D01*
X2206682Y-2385484D02*
X2225729Y-2395008D01*
X2225729Y-2395008D02*
X2235253Y-2404531D01*
X2235253Y-2404531D02*
X2244777Y-2423579D01*
X2244777Y-2423579D02*
X2254301Y-2461674D01*
X2254301Y-2461674D02*
X2254301Y-2509293D01*
X2254301Y-2509293D02*
X2244777Y-2547389D01*
X2244777Y-2547389D02*
X2235253Y-2566436D01*
X2235253Y-2566436D02*
X2225729Y-2575960D01*
X2225729Y-2575960D02*
X2206682Y-2585484D01*
X2206682Y-2585484D02*
X2187634Y-2585484D01*
X2187634Y-2585484D02*
X2168587Y-2575960D01*
X2168587Y-2575960D02*
X2159063Y-2566436D01*
X2159063Y-2566436D02*
X2149539Y-2547389D01*
X2149539Y-2547389D02*
X2140015Y-2509293D01*
X2140015Y-2509293D02*
X2140015Y-2461674D01*
X2140015Y-2461674D02*
X2149539Y-2423579D01*
X2149539Y-2423579D02*
X2159063Y-2404531D01*
X2159063Y-2404531D02*
X2168587Y-2395008D01*
X2168587Y-2395008D02*
X2187634Y-2385484D01*
X2340015Y-2566436D02*
X2349539Y-2575960D01*
X2349539Y-2575960D02*
X2340015Y-2585484D01*
X2340015Y-2585484D02*
X2330491Y-2575960D01*
X2330491Y-2575960D02*
X2340015Y-2566436D01*
X2340015Y-2566436D02*
X2340015Y-2585484D01*
X2473348Y-2385484D02*
X2492396Y-2385484D01*
X2492396Y-2385484D02*
X2511444Y-2395008D01*
X2511444Y-2395008D02*
X2520968Y-2404531D01*
X2520968Y-2404531D02*
X2530491Y-2423579D01*
X2530491Y-2423579D02*
X2540015Y-2461674D01*
X2540015Y-2461674D02*
X2540015Y-2509293D01*
X2540015Y-2509293D02*
X2530491Y-2547389D01*
X2530491Y-2547389D02*
X2520968Y-2566436D01*
X2520968Y-2566436D02*
X2511444Y-2575960D01*
X2511444Y-2575960D02*
X2492396Y-2585484D01*
X2492396Y-2585484D02*
X2473348Y-2585484D01*
X2473348Y-2585484D02*
X2454301Y-2575960D01*
X2454301Y-2575960D02*
X2444777Y-2566436D01*
X2444777Y-2566436D02*
X2435253Y-2547389D01*
X2435253Y-2547389D02*
X2425729Y-2509293D01*
X2425729Y-2509293D02*
X2425729Y-2461674D01*
X2425729Y-2461674D02*
X2435253Y-2423579D01*
X2435253Y-2423579D02*
X2444777Y-2404531D01*
X2444777Y-2404531D02*
X2454301Y-2395008D01*
X2454301Y-2395008D02*
X2473348Y-2385484D01*
X2606682Y-2385484D02*
X2730491Y-2385484D01*
X2730491Y-2385484D02*
X2663825Y-2461674D01*
X2663825Y-2461674D02*
X2692396Y-2461674D01*
X2692396Y-2461674D02*
X2711444Y-2471198D01*
X2711444Y-2471198D02*
X2720968Y-2480722D01*
X2720968Y-2480722D02*
X2730491Y-2499770D01*
X2730491Y-2499770D02*
X2730491Y-2547389D01*
X2730491Y-2547389D02*
X2720968Y-2566436D01*
X2720968Y-2566436D02*
X2711444Y-2575960D01*
X2711444Y-2575960D02*
X2692396Y-2585484D01*
X2692396Y-2585484D02*
X2635253Y-2585484D01*
X2635253Y-2585484D02*
X2616206Y-2575960D01*
X2616206Y-2575960D02*
X2606682Y-2566436D01*
X2797158Y-2385484D02*
X2930491Y-2385484D01*
X2930491Y-2385484D02*
X2844777Y-2585484D01*
X3092396Y-2452150D02*
X3092396Y-2585484D01*
X3044777Y-2375960D02*
X2997158Y-2518817D01*
X2997158Y-2518817D02*
X3120967Y-2518817D01*
X3187634Y-2385484D02*
X3187634Y-2423579D01*
X3263825Y-2385484D02*
X3263825Y-2423579D01*
X3559063Y-2661674D02*
X3549539Y-2652150D01*
X3549539Y-2652150D02*
X3530491Y-2623579D01*
X3530491Y-2623579D02*
X3520968Y-2604531D01*
X3520968Y-2604531D02*
X3511444Y-2575960D01*
X3511444Y-2575960D02*
X3501920Y-2528341D01*
X3501920Y-2528341D02*
X3501920Y-2490246D01*
X3501920Y-2490246D02*
X3511444Y-2442627D01*
X3511444Y-2442627D02*
X3520968Y-2414055D01*
X3520968Y-2414055D02*
X3530491Y-2395008D01*
X3530491Y-2395008D02*
X3549539Y-2366436D01*
X3549539Y-2366436D02*
X3559063Y-2356912D01*
X3720968Y-2385484D02*
X3682872Y-2385484D01*
X3682872Y-2385484D02*
X3663825Y-2395008D01*
X3663825Y-2395008D02*
X3654301Y-2404531D01*
X3654301Y-2404531D02*
X3635253Y-2433103D01*
X3635253Y-2433103D02*
X3625729Y-2471198D01*
X3625729Y-2471198D02*
X3625729Y-2547389D01*
X3625729Y-2547389D02*
X3635253Y-2566436D01*
X3635253Y-2566436D02*
X3644777Y-2575960D01*
X3644777Y-2575960D02*
X3663825Y-2585484D01*
X3663825Y-2585484D02*
X3701920Y-2585484D01*
X3701920Y-2585484D02*
X3720968Y-2575960D01*
X3720968Y-2575960D02*
X3730491Y-2566436D01*
X3730491Y-2566436D02*
X3740015Y-2547389D01*
X3740015Y-2547389D02*
X3740015Y-2499770D01*
X3740015Y-2499770D02*
X3730491Y-2480722D01*
X3730491Y-2480722D02*
X3720968Y-2471198D01*
X3720968Y-2471198D02*
X3701920Y-2461674D01*
X3701920Y-2461674D02*
X3663825Y-2461674D01*
X3663825Y-2461674D02*
X3644777Y-2471198D01*
X3644777Y-2471198D02*
X3635253Y-2480722D01*
X3635253Y-2480722D02*
X3625729Y-2499770D01*
X3978110Y-2585484D02*
X3978110Y-2385484D01*
X4063825Y-2585484D02*
X4063825Y-2480722D01*
X4063825Y-2480722D02*
X4054301Y-2461674D01*
X4054301Y-2461674D02*
X4035253Y-2452150D01*
X4035253Y-2452150D02*
X4006682Y-2452150D01*
X4006682Y-2452150D02*
X3987634Y-2461674D01*
X3987634Y-2461674D02*
X3978110Y-2471198D01*
X4187634Y-2585484D02*
X4168587Y-2575960D01*
X4168587Y-2575960D02*
X4159063Y-2566436D01*
X4159063Y-2566436D02*
X4149539Y-2547389D01*
X4149539Y-2547389D02*
X4149539Y-2490246D01*
X4149539Y-2490246D02*
X4159063Y-2471198D01*
X4159063Y-2471198D02*
X4168587Y-2461674D01*
X4168587Y-2461674D02*
X4187634Y-2452150D01*
X4187634Y-2452150D02*
X4216206Y-2452150D01*
X4216206Y-2452150D02*
X4235253Y-2461674D01*
X4235253Y-2461674D02*
X4244777Y-2471198D01*
X4244777Y-2471198D02*
X4254301Y-2490246D01*
X4254301Y-2490246D02*
X4254301Y-2547389D01*
X4254301Y-2547389D02*
X4244777Y-2566436D01*
X4244777Y-2566436D02*
X4235253Y-2575960D01*
X4235253Y-2575960D02*
X4216206Y-2585484D01*
X4216206Y-2585484D02*
X4187634Y-2585484D01*
X4368587Y-2585484D02*
X4349539Y-2575960D01*
X4349539Y-2575960D02*
X4340015Y-2556912D01*
X4340015Y-2556912D02*
X4340015Y-2385484D01*
X4520968Y-2575960D02*
X4501920Y-2585484D01*
X4501920Y-2585484D02*
X4463825Y-2585484D01*
X4463825Y-2585484D02*
X4444777Y-2575960D01*
X4444777Y-2575960D02*
X4435253Y-2556912D01*
X4435253Y-2556912D02*
X4435253Y-2480722D01*
X4435253Y-2480722D02*
X4444777Y-2461674D01*
X4444777Y-2461674D02*
X4463825Y-2452150D01*
X4463825Y-2452150D02*
X4501920Y-2452150D01*
X4501920Y-2452150D02*
X4520968Y-2461674D01*
X4520968Y-2461674D02*
X4530492Y-2480722D01*
X4530492Y-2480722D02*
X4530492Y-2499770D01*
X4530492Y-2499770D02*
X4435253Y-2518817D01*
X4606682Y-2575960D02*
X4625730Y-2585484D01*
X4625730Y-2585484D02*
X4663825Y-2585484D01*
X4663825Y-2585484D02*
X4682873Y-2575960D01*
X4682873Y-2575960D02*
X4692396Y-2556912D01*
X4692396Y-2556912D02*
X4692396Y-2547389D01*
X4692396Y-2547389D02*
X4682873Y-2528341D01*
X4682873Y-2528341D02*
X4663825Y-2518817D01*
X4663825Y-2518817D02*
X4635253Y-2518817D01*
X4635253Y-2518817D02*
X4616206Y-2509293D01*
X4616206Y-2509293D02*
X4606682Y-2490246D01*
X4606682Y-2490246D02*
X4606682Y-2480722D01*
X4606682Y-2480722D02*
X4616206Y-2461674D01*
X4616206Y-2461674D02*
X4635253Y-2452150D01*
X4635253Y-2452150D02*
X4663825Y-2452150D01*
X4663825Y-2452150D02*
X4682873Y-2461674D01*
X4759063Y-2661674D02*
X4768587Y-2652150D01*
X4768587Y-2652150D02*
X4787634Y-2623579D01*
X4787634Y-2623579D02*
X4797158Y-2604531D01*
X4797158Y-2604531D02*
X4806682Y-2575960D01*
X4806682Y-2575960D02*
X4816206Y-2528341D01*
X4816206Y-2528341D02*
X4816206Y-2490246D01*
X4816206Y-2490246D02*
X4806682Y-2442627D01*
X4806682Y-2442627D02*
X4797158Y-2414055D01*
X4797158Y-2414055D02*
X4787634Y-2395008D01*
X4787634Y-2395008D02*
X4768587Y-2366436D01*
X4768587Y-2366436D02*
X4759063Y-2356912D01*
D10*
X-116000Y-2708000D02*
X-16000Y-2808000D01*
X-16000Y-2708000D02*
X-116000Y-2808000D01*
X-66000Y-2808000D02*
X-16000Y-2758000D01*
X-66000Y-2708000D01*
X-116000Y-2758000D01*
X-66000Y-2808000D01*
D11*
X349539Y-2849484D02*
X235253Y-2849484D01*
X292396Y-2849484D02*
X292396Y-2649484D01*
X292396Y-2649484D02*
X273348Y-2678055D01*
X273348Y-2678055D02*
X254301Y-2697103D01*
X254301Y-2697103D02*
X235253Y-2706627D01*
X435253Y-2830436D02*
X444777Y-2839960D01*
X444777Y-2839960D02*
X435253Y-2849484D01*
X435253Y-2849484D02*
X425729Y-2839960D01*
X425729Y-2839960D02*
X435253Y-2830436D01*
X435253Y-2830436D02*
X435253Y-2849484D01*
X568586Y-2649484D02*
X587634Y-2649484D01*
X587634Y-2649484D02*
X606682Y-2659008D01*
X606682Y-2659008D02*
X616205Y-2668531D01*
X616205Y-2668531D02*
X625729Y-2687579D01*
X625729Y-2687579D02*
X635253Y-2725674D01*
X635253Y-2725674D02*
X635253Y-2773293D01*
X635253Y-2773293D02*
X625729Y-2811388D01*
X625729Y-2811388D02*
X616205Y-2830436D01*
X616205Y-2830436D02*
X606682Y-2839960D01*
X606682Y-2839960D02*
X587634Y-2849484D01*
X587634Y-2849484D02*
X568586Y-2849484D01*
X568586Y-2849484D02*
X549539Y-2839960D01*
X549539Y-2839960D02*
X540015Y-2830436D01*
X540015Y-2830436D02*
X530491Y-2811388D01*
X530491Y-2811388D02*
X520967Y-2773293D01*
X520967Y-2773293D02*
X520967Y-2725674D01*
X520967Y-2725674D02*
X530491Y-2687579D01*
X530491Y-2687579D02*
X540015Y-2668531D01*
X540015Y-2668531D02*
X549539Y-2659008D01*
X549539Y-2659008D02*
X568586Y-2649484D01*
X759062Y-2649484D02*
X778110Y-2649484D01*
X778110Y-2649484D02*
X797158Y-2659008D01*
X797158Y-2659008D02*
X806682Y-2668531D01*
X806682Y-2668531D02*
X816205Y-2687579D01*
X816205Y-2687579D02*
X825729Y-2725674D01*
X825729Y-2725674D02*
X825729Y-2773293D01*
X825729Y-2773293D02*
X816205Y-2811388D01*
X816205Y-2811388D02*
X806682Y-2830436D01*
X806682Y-2830436D02*
X797158Y-2839960D01*
X797158Y-2839960D02*
X778110Y-2849484D01*
X778110Y-2849484D02*
X759062Y-2849484D01*
X759062Y-2849484D02*
X740015Y-2839960D01*
X740015Y-2839960D02*
X730491Y-2830436D01*
X730491Y-2830436D02*
X720967Y-2811388D01*
X720967Y-2811388D02*
X711443Y-2773293D01*
X711443Y-2773293D02*
X711443Y-2725674D01*
X711443Y-2725674D02*
X720967Y-2687579D01*
X720967Y-2687579D02*
X730491Y-2668531D01*
X730491Y-2668531D02*
X740015Y-2659008D01*
X740015Y-2659008D02*
X759062Y-2649484D01*
X949539Y-2649484D02*
X968586Y-2649484D01*
X968586Y-2649484D02*
X987634Y-2659008D01*
X987634Y-2659008D02*
X997158Y-2668531D01*
X997158Y-2668531D02*
X1006682Y-2687579D01*
X1006682Y-2687579D02*
X1016205Y-2725674D01*
X1016205Y-2725674D02*
X1016205Y-2773293D01*
X1016205Y-2773293D02*
X1006682Y-2811388D01*
X1006682Y-2811388D02*
X997158Y-2830436D01*
X997158Y-2830436D02*
X987634Y-2839960D01*
X987634Y-2839960D02*
X968586Y-2849484D01*
X968586Y-2849484D02*
X949539Y-2849484D01*
X949539Y-2849484D02*
X930491Y-2839960D01*
X930491Y-2839960D02*
X920967Y-2830436D01*
X920967Y-2830436D02*
X911443Y-2811388D01*
X911443Y-2811388D02*
X901920Y-2773293D01*
X901920Y-2773293D02*
X901920Y-2725674D01*
X901920Y-2725674D02*
X911443Y-2687579D01*
X911443Y-2687579D02*
X920967Y-2668531D01*
X920967Y-2668531D02*
X930491Y-2659008D01*
X930491Y-2659008D02*
X949539Y-2649484D01*
X1101920Y-2849484D02*
X1101920Y-2716150D01*
X1101920Y-2735198D02*
X1111444Y-2725674D01*
X1111444Y-2725674D02*
X1130491Y-2716150D01*
X1130491Y-2716150D02*
X1159063Y-2716150D01*
X1159063Y-2716150D02*
X1178110Y-2725674D01*
X1178110Y-2725674D02*
X1187634Y-2744722D01*
X1187634Y-2744722D02*
X1187634Y-2849484D01*
X1187634Y-2744722D02*
X1197158Y-2725674D01*
X1197158Y-2725674D02*
X1216205Y-2716150D01*
X1216205Y-2716150D02*
X1244777Y-2716150D01*
X1244777Y-2716150D02*
X1263825Y-2725674D01*
X1263825Y-2725674D02*
X1273348Y-2744722D01*
X1273348Y-2744722D02*
X1273348Y-2849484D01*
X1368586Y-2849484D02*
X1368586Y-2716150D01*
X1368586Y-2735198D02*
X1378110Y-2725674D01*
X1378110Y-2725674D02*
X1397158Y-2716150D01*
X1397158Y-2716150D02*
X1425729Y-2716150D01*
X1425729Y-2716150D02*
X1444777Y-2725674D01*
X1444777Y-2725674D02*
X1454301Y-2744722D01*
X1454301Y-2744722D02*
X1454301Y-2849484D01*
X1454301Y-2744722D02*
X1463824Y-2725674D01*
X1463824Y-2725674D02*
X1482872Y-2716150D01*
X1482872Y-2716150D02*
X1511443Y-2716150D01*
X1511443Y-2716150D02*
X1530491Y-2725674D01*
X1530491Y-2725674D02*
X1540015Y-2744722D01*
X1540015Y-2744722D02*
X1540015Y-2849484D01*
X1930491Y-2639960D02*
X1759063Y-2897103D01*
X2187634Y-2649484D02*
X2206682Y-2649484D01*
X2206682Y-2649484D02*
X2225729Y-2659008D01*
X2225729Y-2659008D02*
X2235253Y-2668531D01*
X2235253Y-2668531D02*
X2244777Y-2687579D01*
X2244777Y-2687579D02*
X2254301Y-2725674D01*
X2254301Y-2725674D02*
X2254301Y-2773293D01*
X2254301Y-2773293D02*
X2244777Y-2811388D01*
X2244777Y-2811388D02*
X2235253Y-2830436D01*
X2235253Y-2830436D02*
X2225729Y-2839960D01*
X2225729Y-2839960D02*
X2206682Y-2849484D01*
X2206682Y-2849484D02*
X2187634Y-2849484D01*
X2187634Y-2849484D02*
X2168587Y-2839960D01*
X2168587Y-2839960D02*
X2159063Y-2830436D01*
X2159063Y-2830436D02*
X2149539Y-2811388D01*
X2149539Y-2811388D02*
X2140015Y-2773293D01*
X2140015Y-2773293D02*
X2140015Y-2725674D01*
X2140015Y-2725674D02*
X2149539Y-2687579D01*
X2149539Y-2687579D02*
X2159063Y-2668531D01*
X2159063Y-2668531D02*
X2168587Y-2659008D01*
X2168587Y-2659008D02*
X2187634Y-2649484D01*
X2340015Y-2830436D02*
X2349539Y-2839960D01*
X2349539Y-2839960D02*
X2340015Y-2849484D01*
X2340015Y-2849484D02*
X2330491Y-2839960D01*
X2330491Y-2839960D02*
X2340015Y-2830436D01*
X2340015Y-2830436D02*
X2340015Y-2849484D01*
X2473348Y-2649484D02*
X2492396Y-2649484D01*
X2492396Y-2649484D02*
X2511444Y-2659008D01*
X2511444Y-2659008D02*
X2520968Y-2668531D01*
X2520968Y-2668531D02*
X2530491Y-2687579D01*
X2530491Y-2687579D02*
X2540015Y-2725674D01*
X2540015Y-2725674D02*
X2540015Y-2773293D01*
X2540015Y-2773293D02*
X2530491Y-2811388D01*
X2530491Y-2811388D02*
X2520968Y-2830436D01*
X2520968Y-2830436D02*
X2511444Y-2839960D01*
X2511444Y-2839960D02*
X2492396Y-2849484D01*
X2492396Y-2849484D02*
X2473348Y-2849484D01*
X2473348Y-2849484D02*
X2454301Y-2839960D01*
X2454301Y-2839960D02*
X2444777Y-2830436D01*
X2444777Y-2830436D02*
X2435253Y-2811388D01*
X2435253Y-2811388D02*
X2425729Y-2773293D01*
X2425729Y-2773293D02*
X2425729Y-2725674D01*
X2425729Y-2725674D02*
X2435253Y-2687579D01*
X2435253Y-2687579D02*
X2444777Y-2668531D01*
X2444777Y-2668531D02*
X2454301Y-2659008D01*
X2454301Y-2659008D02*
X2473348Y-2649484D01*
X2606682Y-2649484D02*
X2730491Y-2649484D01*
X2730491Y-2649484D02*
X2663825Y-2725674D01*
X2663825Y-2725674D02*
X2692396Y-2725674D01*
X2692396Y-2725674D02*
X2711444Y-2735198D01*
X2711444Y-2735198D02*
X2720968Y-2744722D01*
X2720968Y-2744722D02*
X2730491Y-2763770D01*
X2730491Y-2763770D02*
X2730491Y-2811388D01*
X2730491Y-2811388D02*
X2720968Y-2830436D01*
X2720968Y-2830436D02*
X2711444Y-2839960D01*
X2711444Y-2839960D02*
X2692396Y-2849484D01*
X2692396Y-2849484D02*
X2635253Y-2849484D01*
X2635253Y-2849484D02*
X2616206Y-2839960D01*
X2616206Y-2839960D02*
X2606682Y-2830436D01*
X2825729Y-2849484D02*
X2863825Y-2849484D01*
X2863825Y-2849484D02*
X2882872Y-2839960D01*
X2882872Y-2839960D02*
X2892396Y-2830436D01*
X2892396Y-2830436D02*
X2911444Y-2801865D01*
X2911444Y-2801865D02*
X2920967Y-2763770D01*
X2920967Y-2763770D02*
X2920967Y-2687579D01*
X2920967Y-2687579D02*
X2911444Y-2668531D01*
X2911444Y-2668531D02*
X2901920Y-2659008D01*
X2901920Y-2659008D02*
X2882872Y-2649484D01*
X2882872Y-2649484D02*
X2844777Y-2649484D01*
X2844777Y-2649484D02*
X2825729Y-2659008D01*
X2825729Y-2659008D02*
X2816206Y-2668531D01*
X2816206Y-2668531D02*
X2806682Y-2687579D01*
X2806682Y-2687579D02*
X2806682Y-2735198D01*
X2806682Y-2735198D02*
X2816206Y-2754246D01*
X2816206Y-2754246D02*
X2825729Y-2763770D01*
X2825729Y-2763770D02*
X2844777Y-2773293D01*
X2844777Y-2773293D02*
X2882872Y-2773293D01*
X2882872Y-2773293D02*
X2901920Y-2763770D01*
X2901920Y-2763770D02*
X2911444Y-2754246D01*
X2911444Y-2754246D02*
X2920967Y-2735198D01*
X3092396Y-2716150D02*
X3092396Y-2849484D01*
X3044777Y-2639960D02*
X2997158Y-2782817D01*
X2997158Y-2782817D02*
X3120967Y-2782817D01*
X3187634Y-2649484D02*
X3187634Y-2687579D01*
X3263825Y-2649484D02*
X3263825Y-2687579D01*
X3559063Y-2925674D02*
X3549539Y-2916150D01*
X3549539Y-2916150D02*
X3530491Y-2887579D01*
X3530491Y-2887579D02*
X3520968Y-2868531D01*
X3520968Y-2868531D02*
X3511444Y-2839960D01*
X3511444Y-2839960D02*
X3501920Y-2792341D01*
X3501920Y-2792341D02*
X3501920Y-2754246D01*
X3501920Y-2754246D02*
X3511444Y-2706627D01*
X3511444Y-2706627D02*
X3520968Y-2678055D01*
X3520968Y-2678055D02*
X3530491Y-2659008D01*
X3530491Y-2659008D02*
X3549539Y-2630436D01*
X3549539Y-2630436D02*
X3559063Y-2620912D01*
X3720968Y-2716150D02*
X3720968Y-2849484D01*
X3673348Y-2639960D02*
X3625729Y-2782817D01*
X3625729Y-2782817D02*
X3749539Y-2782817D01*
X3911444Y-2716150D02*
X3911444Y-2849484D01*
X3863825Y-2639960D02*
X3816206Y-2782817D01*
X3816206Y-2782817D02*
X3940015Y-2782817D01*
X4168587Y-2849484D02*
X4168587Y-2649484D01*
X4254301Y-2849484D02*
X4254301Y-2744722D01*
X4254301Y-2744722D02*
X4244777Y-2725674D01*
X4244777Y-2725674D02*
X4225730Y-2716150D01*
X4225730Y-2716150D02*
X4197158Y-2716150D01*
X4197158Y-2716150D02*
X4178110Y-2725674D01*
X4178110Y-2725674D02*
X4168587Y-2735198D01*
X4378111Y-2849484D02*
X4359063Y-2839960D01*
X4359063Y-2839960D02*
X4349539Y-2830436D01*
X4349539Y-2830436D02*
X4340015Y-2811388D01*
X4340015Y-2811388D02*
X4340015Y-2754246D01*
X4340015Y-2754246D02*
X4349539Y-2735198D01*
X4349539Y-2735198D02*
X4359063Y-2725674D01*
X4359063Y-2725674D02*
X4378111Y-2716150D01*
X4378111Y-2716150D02*
X4406682Y-2716150D01*
X4406682Y-2716150D02*
X4425730Y-2725674D01*
X4425730Y-2725674D02*
X4435253Y-2735198D01*
X4435253Y-2735198D02*
X4444777Y-2754246D01*
X4444777Y-2754246D02*
X4444777Y-2811388D01*
X4444777Y-2811388D02*
X4435253Y-2830436D01*
X4435253Y-2830436D02*
X4425730Y-2839960D01*
X4425730Y-2839960D02*
X4406682Y-2849484D01*
X4406682Y-2849484D02*
X4378111Y-2849484D01*
X4559063Y-2849484D02*
X4540015Y-2839960D01*
X4540015Y-2839960D02*
X4530492Y-2820912D01*
X4530492Y-2820912D02*
X4530492Y-2649484D01*
X4711444Y-2839960D02*
X4692396Y-2849484D01*
X4692396Y-2849484D02*
X4654301Y-2849484D01*
X4654301Y-2849484D02*
X4635253Y-2839960D01*
X4635253Y-2839960D02*
X4625730Y-2820912D01*
X4625730Y-2820912D02*
X4625730Y-2744722D01*
X4625730Y-2744722D02*
X4635253Y-2725674D01*
X4635253Y-2725674D02*
X4654301Y-2716150D01*
X4654301Y-2716150D02*
X4692396Y-2716150D01*
X4692396Y-2716150D02*
X4711444Y-2725674D01*
X4711444Y-2725674D02*
X4720968Y-2744722D01*
X4720968Y-2744722D02*
X4720968Y-2763770D01*
X4720968Y-2763770D02*
X4625730Y-2782817D01*
X4797158Y-2839960D02*
X4816206Y-2849484D01*
X4816206Y-2849484D02*
X4854301Y-2849484D01*
X4854301Y-2849484D02*
X4873349Y-2839960D01*
X4873349Y-2839960D02*
X4882873Y-2820912D01*
X4882873Y-2820912D02*
X4882873Y-2811388D01*
X4882873Y-2811388D02*
X4873349Y-2792341D01*
X4873349Y-2792341D02*
X4854301Y-2782817D01*
X4854301Y-2782817D02*
X4825730Y-2782817D01*
X4825730Y-2782817D02*
X4806682Y-2773293D01*
X4806682Y-2773293D02*
X4797158Y-2754246D01*
X4797158Y-2754246D02*
X4797158Y-2744722D01*
X4797158Y-2744722D02*
X4806682Y-2725674D01*
X4806682Y-2725674D02*
X4825730Y-2716150D01*
X4825730Y-2716150D02*
X4854301Y-2716150D01*
X4854301Y-2716150D02*
X4873349Y-2725674D01*
X4949539Y-2925674D02*
X4959063Y-2916150D01*
X4959063Y-2916150D02*
X4978111Y-2887579D01*
X4978111Y-2887579D02*
X4987634Y-2868531D01*
X4987634Y-2868531D02*
X4997158Y-2839960D01*
X4997158Y-2839960D02*
X5006682Y-2792341D01*
X5006682Y-2792341D02*
X5006682Y-2754246D01*
X5006682Y-2754246D02*
X4997158Y-2706627D01*
X4997158Y-2706627D02*
X4987634Y-2678055D01*
X4987634Y-2678055D02*
X4978111Y-2659008D01*
X4978111Y-2659008D02*
X4959063Y-2630436D01*
X4959063Y-2630436D02*
X4949539Y-2620912D01*
D12*
X-66800Y-2971200D02*
X-66800Y-3072800D01*
X-117600Y-3022000D02*
X-16000Y-3022000D01*
X-16000Y-3022000D02*
G75*
G02*
X-117600Y-3022000I-50800J0D01*
G01*
X-117600Y-3022000D02*
G75*
G02*
X-16000Y-3022000I50800J0D01*
G01*
D11*
X349539Y-3113484D02*
X235253Y-3113484D01*
X292396Y-3113484D02*
X292396Y-2913484D01*
X292396Y-2913484D02*
X273348Y-2942055D01*
X273348Y-2942055D02*
X254301Y-2961103D01*
X254301Y-2961103D02*
X235253Y-2970627D01*
X435253Y-3094436D02*
X444777Y-3103960D01*
X444777Y-3103960D02*
X435253Y-3113484D01*
X435253Y-3113484D02*
X425729Y-3103960D01*
X425729Y-3103960D02*
X435253Y-3094436D01*
X435253Y-3094436D02*
X435253Y-3113484D01*
X568586Y-2913484D02*
X587634Y-2913484D01*
X587634Y-2913484D02*
X606682Y-2923008D01*
X606682Y-2923008D02*
X616205Y-2932531D01*
X616205Y-2932531D02*
X625729Y-2951579D01*
X625729Y-2951579D02*
X635253Y-2989674D01*
X635253Y-2989674D02*
X635253Y-3037293D01*
X635253Y-3037293D02*
X625729Y-3075388D01*
X625729Y-3075388D02*
X616205Y-3094436D01*
X616205Y-3094436D02*
X606682Y-3103960D01*
X606682Y-3103960D02*
X587634Y-3113484D01*
X587634Y-3113484D02*
X568586Y-3113484D01*
X568586Y-3113484D02*
X549539Y-3103960D01*
X549539Y-3103960D02*
X540015Y-3094436D01*
X540015Y-3094436D02*
X530491Y-3075388D01*
X530491Y-3075388D02*
X520967Y-3037293D01*
X520967Y-3037293D02*
X520967Y-2989674D01*
X520967Y-2989674D02*
X530491Y-2951579D01*
X530491Y-2951579D02*
X540015Y-2932531D01*
X540015Y-2932531D02*
X549539Y-2923008D01*
X549539Y-2923008D02*
X568586Y-2913484D01*
X825729Y-3113484D02*
X711443Y-3113484D01*
X768586Y-3113484D02*
X768586Y-2913484D01*
X768586Y-2913484D02*
X749539Y-2942055D01*
X749539Y-2942055D02*
X730491Y-2961103D01*
X730491Y-2961103D02*
X711443Y-2970627D01*
X997158Y-2913484D02*
X959062Y-2913484D01*
X959062Y-2913484D02*
X940015Y-2923008D01*
X940015Y-2923008D02*
X930491Y-2932531D01*
X930491Y-2932531D02*
X911443Y-2961103D01*
X911443Y-2961103D02*
X901920Y-2999198D01*
X901920Y-2999198D02*
X901920Y-3075388D01*
X901920Y-3075388D02*
X911443Y-3094436D01*
X911443Y-3094436D02*
X920967Y-3103960D01*
X920967Y-3103960D02*
X940015Y-3113484D01*
X940015Y-3113484D02*
X978110Y-3113484D01*
X978110Y-3113484D02*
X997158Y-3103960D01*
X997158Y-3103960D02*
X1006682Y-3094436D01*
X1006682Y-3094436D02*
X1016205Y-3075388D01*
X1016205Y-3075388D02*
X1016205Y-3027769D01*
X1016205Y-3027769D02*
X1006682Y-3008722D01*
X1006682Y-3008722D02*
X997158Y-2999198D01*
X997158Y-2999198D02*
X978110Y-2989674D01*
X978110Y-2989674D02*
X940015Y-2989674D01*
X940015Y-2989674D02*
X920967Y-2999198D01*
X920967Y-2999198D02*
X911443Y-3008722D01*
X911443Y-3008722D02*
X901920Y-3027769D01*
X1101920Y-3113484D02*
X1101920Y-2980150D01*
X1101920Y-2999198D02*
X1111444Y-2989674D01*
X1111444Y-2989674D02*
X1130491Y-2980150D01*
X1130491Y-2980150D02*
X1159063Y-2980150D01*
X1159063Y-2980150D02*
X1178110Y-2989674D01*
X1178110Y-2989674D02*
X1187634Y-3008722D01*
X1187634Y-3008722D02*
X1187634Y-3113484D01*
X1187634Y-3008722D02*
X1197158Y-2989674D01*
X1197158Y-2989674D02*
X1216205Y-2980150D01*
X1216205Y-2980150D02*
X1244777Y-2980150D01*
X1244777Y-2980150D02*
X1263825Y-2989674D01*
X1263825Y-2989674D02*
X1273348Y-3008722D01*
X1273348Y-3008722D02*
X1273348Y-3113484D01*
X1368586Y-3113484D02*
X1368586Y-2980150D01*
X1368586Y-2999198D02*
X1378110Y-2989674D01*
X1378110Y-2989674D02*
X1397158Y-2980150D01*
X1397158Y-2980150D02*
X1425729Y-2980150D01*
X1425729Y-2980150D02*
X1444777Y-2989674D01*
X1444777Y-2989674D02*
X1454301Y-3008722D01*
X1454301Y-3008722D02*
X1454301Y-3113484D01*
X1454301Y-3008722D02*
X1463824Y-2989674D01*
X1463824Y-2989674D02*
X1482872Y-2980150D01*
X1482872Y-2980150D02*
X1511443Y-2980150D01*
X1511443Y-2980150D02*
X1530491Y-2989674D01*
X1530491Y-2989674D02*
X1540015Y-3008722D01*
X1540015Y-3008722D02*
X1540015Y-3113484D01*
X1930491Y-2903960D02*
X1759063Y-3161103D01*
X2187634Y-2913484D02*
X2206682Y-2913484D01*
X2206682Y-2913484D02*
X2225729Y-2923008D01*
X2225729Y-2923008D02*
X2235253Y-2932531D01*
X2235253Y-2932531D02*
X2244777Y-2951579D01*
X2244777Y-2951579D02*
X2254301Y-2989674D01*
X2254301Y-2989674D02*
X2254301Y-3037293D01*
X2254301Y-3037293D02*
X2244777Y-3075388D01*
X2244777Y-3075388D02*
X2235253Y-3094436D01*
X2235253Y-3094436D02*
X2225729Y-3103960D01*
X2225729Y-3103960D02*
X2206682Y-3113484D01*
X2206682Y-3113484D02*
X2187634Y-3113484D01*
X2187634Y-3113484D02*
X2168587Y-3103960D01*
X2168587Y-3103960D02*
X2159063Y-3094436D01*
X2159063Y-3094436D02*
X2149539Y-3075388D01*
X2149539Y-3075388D02*
X2140015Y-3037293D01*
X2140015Y-3037293D02*
X2140015Y-2989674D01*
X2140015Y-2989674D02*
X2149539Y-2951579D01*
X2149539Y-2951579D02*
X2159063Y-2932531D01*
X2159063Y-2932531D02*
X2168587Y-2923008D01*
X2168587Y-2923008D02*
X2187634Y-2913484D01*
X2340015Y-3094436D02*
X2349539Y-3103960D01*
X2349539Y-3103960D02*
X2340015Y-3113484D01*
X2340015Y-3113484D02*
X2330491Y-3103960D01*
X2330491Y-3103960D02*
X2340015Y-3094436D01*
X2340015Y-3094436D02*
X2340015Y-3113484D01*
X2473348Y-2913484D02*
X2492396Y-2913484D01*
X2492396Y-2913484D02*
X2511444Y-2923008D01*
X2511444Y-2923008D02*
X2520968Y-2932531D01*
X2520968Y-2932531D02*
X2530491Y-2951579D01*
X2530491Y-2951579D02*
X2540015Y-2989674D01*
X2540015Y-2989674D02*
X2540015Y-3037293D01*
X2540015Y-3037293D02*
X2530491Y-3075388D01*
X2530491Y-3075388D02*
X2520968Y-3094436D01*
X2520968Y-3094436D02*
X2511444Y-3103960D01*
X2511444Y-3103960D02*
X2492396Y-3113484D01*
X2492396Y-3113484D02*
X2473348Y-3113484D01*
X2473348Y-3113484D02*
X2454301Y-3103960D01*
X2454301Y-3103960D02*
X2444777Y-3094436D01*
X2444777Y-3094436D02*
X2435253Y-3075388D01*
X2435253Y-3075388D02*
X2425729Y-3037293D01*
X2425729Y-3037293D02*
X2425729Y-2989674D01*
X2425729Y-2989674D02*
X2435253Y-2951579D01*
X2435253Y-2951579D02*
X2444777Y-2932531D01*
X2444777Y-2932531D02*
X2454301Y-2923008D01*
X2454301Y-2923008D02*
X2473348Y-2913484D01*
X2711444Y-2980150D02*
X2711444Y-3113484D01*
X2663825Y-2903960D02*
X2616206Y-3046817D01*
X2616206Y-3046817D02*
X2740015Y-3046817D01*
X2854301Y-2913484D02*
X2873348Y-2913484D01*
X2873348Y-2913484D02*
X2892396Y-2923008D01*
X2892396Y-2923008D02*
X2901920Y-2932531D01*
X2901920Y-2932531D02*
X2911444Y-2951579D01*
X2911444Y-2951579D02*
X2920967Y-2989674D01*
X2920967Y-2989674D02*
X2920967Y-3037293D01*
X2920967Y-3037293D02*
X2911444Y-3075388D01*
X2911444Y-3075388D02*
X2901920Y-3094436D01*
X2901920Y-3094436D02*
X2892396Y-3103960D01*
X2892396Y-3103960D02*
X2873348Y-3113484D01*
X2873348Y-3113484D02*
X2854301Y-3113484D01*
X2854301Y-3113484D02*
X2835253Y-3103960D01*
X2835253Y-3103960D02*
X2825729Y-3094436D01*
X2825729Y-3094436D02*
X2816206Y-3075388D01*
X2816206Y-3075388D02*
X2806682Y-3037293D01*
X2806682Y-3037293D02*
X2806682Y-2989674D01*
X2806682Y-2989674D02*
X2816206Y-2951579D01*
X2816206Y-2951579D02*
X2825729Y-2932531D01*
X2825729Y-2932531D02*
X2835253Y-2923008D01*
X2835253Y-2923008D02*
X2854301Y-2913484D01*
X3044777Y-2913484D02*
X3063825Y-2913484D01*
X3063825Y-2913484D02*
X3082872Y-2923008D01*
X3082872Y-2923008D02*
X3092396Y-2932531D01*
X3092396Y-2932531D02*
X3101920Y-2951579D01*
X3101920Y-2951579D02*
X3111444Y-2989674D01*
X3111444Y-2989674D02*
X3111444Y-3037293D01*
X3111444Y-3037293D02*
X3101920Y-3075388D01*
X3101920Y-3075388D02*
X3092396Y-3094436D01*
X3092396Y-3094436D02*
X3082872Y-3103960D01*
X3082872Y-3103960D02*
X3063825Y-3113484D01*
X3063825Y-3113484D02*
X3044777Y-3113484D01*
X3044777Y-3113484D02*
X3025729Y-3103960D01*
X3025729Y-3103960D02*
X3016206Y-3094436D01*
X3016206Y-3094436D02*
X3006682Y-3075388D01*
X3006682Y-3075388D02*
X2997158Y-3037293D01*
X2997158Y-3037293D02*
X2997158Y-2989674D01*
X2997158Y-2989674D02*
X3006682Y-2951579D01*
X3006682Y-2951579D02*
X3016206Y-2932531D01*
X3016206Y-2932531D02*
X3025729Y-2923008D01*
X3025729Y-2923008D02*
X3044777Y-2913484D01*
X3187634Y-2913484D02*
X3187634Y-2951579D01*
X3263825Y-2913484D02*
X3263825Y-2951579D01*
X3559063Y-3189674D02*
X3549539Y-3180150D01*
X3549539Y-3180150D02*
X3530491Y-3151579D01*
X3530491Y-3151579D02*
X3520968Y-3132531D01*
X3520968Y-3132531D02*
X3511444Y-3103960D01*
X3511444Y-3103960D02*
X3501920Y-3056341D01*
X3501920Y-3056341D02*
X3501920Y-3018246D01*
X3501920Y-3018246D02*
X3511444Y-2970627D01*
X3511444Y-2970627D02*
X3520968Y-2942055D01*
X3520968Y-2942055D02*
X3530491Y-2923008D01*
X3530491Y-2923008D02*
X3549539Y-2894436D01*
X3549539Y-2894436D02*
X3559063Y-2884912D01*
X3720968Y-2913484D02*
X3682872Y-2913484D01*
X3682872Y-2913484D02*
X3663825Y-2923008D01*
X3663825Y-2923008D02*
X3654301Y-2932531D01*
X3654301Y-2932531D02*
X3635253Y-2961103D01*
X3635253Y-2961103D02*
X3625729Y-2999198D01*
X3625729Y-2999198D02*
X3625729Y-3075388D01*
X3625729Y-3075388D02*
X3635253Y-3094436D01*
X3635253Y-3094436D02*
X3644777Y-3103960D01*
X3644777Y-3103960D02*
X3663825Y-3113484D01*
X3663825Y-3113484D02*
X3701920Y-3113484D01*
X3701920Y-3113484D02*
X3720968Y-3103960D01*
X3720968Y-3103960D02*
X3730491Y-3094436D01*
X3730491Y-3094436D02*
X3740015Y-3075388D01*
X3740015Y-3075388D02*
X3740015Y-3027769D01*
X3740015Y-3027769D02*
X3730491Y-3008722D01*
X3730491Y-3008722D02*
X3720968Y-2999198D01*
X3720968Y-2999198D02*
X3701920Y-2989674D01*
X3701920Y-2989674D02*
X3663825Y-2989674D01*
X3663825Y-2989674D02*
X3644777Y-2999198D01*
X3644777Y-2999198D02*
X3635253Y-3008722D01*
X3635253Y-3008722D02*
X3625729Y-3027769D01*
X3978110Y-3113484D02*
X3978110Y-2913484D01*
X4063825Y-3113484D02*
X4063825Y-3008722D01*
X4063825Y-3008722D02*
X4054301Y-2989674D01*
X4054301Y-2989674D02*
X4035253Y-2980150D01*
X4035253Y-2980150D02*
X4006682Y-2980150D01*
X4006682Y-2980150D02*
X3987634Y-2989674D01*
X3987634Y-2989674D02*
X3978110Y-2999198D01*
X4187634Y-3113484D02*
X4168587Y-3103960D01*
X4168587Y-3103960D02*
X4159063Y-3094436D01*
X4159063Y-3094436D02*
X4149539Y-3075388D01*
X4149539Y-3075388D02*
X4149539Y-3018246D01*
X4149539Y-3018246D02*
X4159063Y-2999198D01*
X4159063Y-2999198D02*
X4168587Y-2989674D01*
X4168587Y-2989674D02*
X4187634Y-2980150D01*
X4187634Y-2980150D02*
X4216206Y-2980150D01*
X4216206Y-2980150D02*
X4235253Y-2989674D01*
X4235253Y-2989674D02*
X4244777Y-2999198D01*
X4244777Y-2999198D02*
X4254301Y-3018246D01*
X4254301Y-3018246D02*
X4254301Y-3075388D01*
X4254301Y-3075388D02*
X4244777Y-3094436D01*
X4244777Y-3094436D02*
X4235253Y-3103960D01*
X4235253Y-3103960D02*
X4216206Y-3113484D01*
X4216206Y-3113484D02*
X4187634Y-3113484D01*
X4368587Y-3113484D02*
X4349539Y-3103960D01*
X4349539Y-3103960D02*
X4340015Y-3084912D01*
X4340015Y-3084912D02*
X4340015Y-2913484D01*
X4520968Y-3103960D02*
X4501920Y-3113484D01*
X4501920Y-3113484D02*
X4463825Y-3113484D01*
X4463825Y-3113484D02*
X4444777Y-3103960D01*
X4444777Y-3103960D02*
X4435253Y-3084912D01*
X4435253Y-3084912D02*
X4435253Y-3008722D01*
X4435253Y-3008722D02*
X4444777Y-2989674D01*
X4444777Y-2989674D02*
X4463825Y-2980150D01*
X4463825Y-2980150D02*
X4501920Y-2980150D01*
X4501920Y-2980150D02*
X4520968Y-2989674D01*
X4520968Y-2989674D02*
X4530492Y-3008722D01*
X4530492Y-3008722D02*
X4530492Y-3027769D01*
X4530492Y-3027769D02*
X4435253Y-3046817D01*
X4606682Y-3103960D02*
X4625730Y-3113484D01*
X4625730Y-3113484D02*
X4663825Y-3113484D01*
X4663825Y-3113484D02*
X4682873Y-3103960D01*
X4682873Y-3103960D02*
X4692396Y-3084912D01*
X4692396Y-3084912D02*
X4692396Y-3075388D01*
X4692396Y-3075388D02*
X4682873Y-3056341D01*
X4682873Y-3056341D02*
X4663825Y-3046817D01*
X4663825Y-3046817D02*
X4635253Y-3046817D01*
X4635253Y-3046817D02*
X4616206Y-3037293D01*
X4616206Y-3037293D02*
X4606682Y-3018246D01*
X4606682Y-3018246D02*
X4606682Y-3008722D01*
X4606682Y-3008722D02*
X4616206Y-2989674D01*
X4616206Y-2989674D02*
X4635253Y-2980150D01*
X4635253Y-2980150D02*
X4663825Y-2980150D01*
X4663825Y-2980150D02*
X4682873Y-2989674D01*
X4759063Y-3189674D02*
X4768587Y-3180150D01*
X4768587Y-3180150D02*
X4787634Y-3151579D01*
X4787634Y-3151579D02*
X4797158Y-3132531D01*
X4797158Y-3132531D02*
X4806682Y-3103960D01*
X4806682Y-3103960D02*
X4816206Y-3056341D01*
X4816206Y-3056341D02*
X4816206Y-3018246D01*
X4816206Y-3018246D02*
X4806682Y-2970627D01*
X4806682Y-2970627D02*
X4797158Y-2942055D01*
X4797158Y-2942055D02*
X4787634Y-2923008D01*
X4787634Y-2923008D02*
X4768587Y-2894436D01*
X4768587Y-2894436D02*
X4759063Y-2884912D01*
D13*
X-32109Y-3324891D02*
X-32109Y-3247109D01*
X-109891Y-3247109D01*
X-109891Y-3324891D01*
X-32109Y-3324891D01*
X-16000Y-3286000D02*
G75*
G02*
X-126000Y-3286000I-55000J0D01*
G01*
X-126000Y-3286000D02*
G75*
G02*
X-16000Y-3286000I55000J0D01*
G01*
D11*
X349539Y-3377484D02*
X235253Y-3377484D01*
X292396Y-3377484D02*
X292396Y-3177484D01*
X292396Y-3177484D02*
X273348Y-3206055D01*
X273348Y-3206055D02*
X254301Y-3225103D01*
X254301Y-3225103D02*
X235253Y-3234627D01*
X435253Y-3358436D02*
X444777Y-3367960D01*
X444777Y-3367960D02*
X435253Y-3377484D01*
X435253Y-3377484D02*
X425729Y-3367960D01*
X425729Y-3367960D02*
X435253Y-3358436D01*
X435253Y-3358436D02*
X435253Y-3377484D01*
X635253Y-3377484D02*
X520967Y-3377484D01*
X578110Y-3377484D02*
X578110Y-3177484D01*
X578110Y-3177484D02*
X559063Y-3206055D01*
X559063Y-3206055D02*
X540015Y-3225103D01*
X540015Y-3225103D02*
X520967Y-3234627D01*
X759062Y-3177484D02*
X778110Y-3177484D01*
X778110Y-3177484D02*
X797158Y-3187008D01*
X797158Y-3187008D02*
X806682Y-3196531D01*
X806682Y-3196531D02*
X816205Y-3215579D01*
X816205Y-3215579D02*
X825729Y-3253674D01*
X825729Y-3253674D02*
X825729Y-3301293D01*
X825729Y-3301293D02*
X816205Y-3339388D01*
X816205Y-3339388D02*
X806682Y-3358436D01*
X806682Y-3358436D02*
X797158Y-3367960D01*
X797158Y-3367960D02*
X778110Y-3377484D01*
X778110Y-3377484D02*
X759062Y-3377484D01*
X759062Y-3377484D02*
X740015Y-3367960D01*
X740015Y-3367960D02*
X730491Y-3358436D01*
X730491Y-3358436D02*
X720967Y-3339388D01*
X720967Y-3339388D02*
X711443Y-3301293D01*
X711443Y-3301293D02*
X711443Y-3253674D01*
X711443Y-3253674D02*
X720967Y-3215579D01*
X720967Y-3215579D02*
X730491Y-3196531D01*
X730491Y-3196531D02*
X740015Y-3187008D01*
X740015Y-3187008D02*
X759062Y-3177484D01*
X949539Y-3177484D02*
X968586Y-3177484D01*
X968586Y-3177484D02*
X987634Y-3187008D01*
X987634Y-3187008D02*
X997158Y-3196531D01*
X997158Y-3196531D02*
X1006682Y-3215579D01*
X1006682Y-3215579D02*
X1016205Y-3253674D01*
X1016205Y-3253674D02*
X1016205Y-3301293D01*
X1016205Y-3301293D02*
X1006682Y-3339388D01*
X1006682Y-3339388D02*
X997158Y-3358436D01*
X997158Y-3358436D02*
X987634Y-3367960D01*
X987634Y-3367960D02*
X968586Y-3377484D01*
X968586Y-3377484D02*
X949539Y-3377484D01*
X949539Y-3377484D02*
X930491Y-3367960D01*
X930491Y-3367960D02*
X920967Y-3358436D01*
X920967Y-3358436D02*
X911443Y-3339388D01*
X911443Y-3339388D02*
X901920Y-3301293D01*
X901920Y-3301293D02*
X901920Y-3253674D01*
X901920Y-3253674D02*
X911443Y-3215579D01*
X911443Y-3215579D02*
X920967Y-3196531D01*
X920967Y-3196531D02*
X930491Y-3187008D01*
X930491Y-3187008D02*
X949539Y-3177484D01*
X1101920Y-3377484D02*
X1101920Y-3244150D01*
X1101920Y-3263198D02*
X1111444Y-3253674D01*
X1111444Y-3253674D02*
X1130491Y-3244150D01*
X1130491Y-3244150D02*
X1159063Y-3244150D01*
X1159063Y-3244150D02*
X1178110Y-3253674D01*
X1178110Y-3253674D02*
X1187634Y-3272722D01*
X1187634Y-3272722D02*
X1187634Y-3377484D01*
X1187634Y-3272722D02*
X1197158Y-3253674D01*
X1197158Y-3253674D02*
X1216205Y-3244150D01*
X1216205Y-3244150D02*
X1244777Y-3244150D01*
X1244777Y-3244150D02*
X1263825Y-3253674D01*
X1263825Y-3253674D02*
X1273348Y-3272722D01*
X1273348Y-3272722D02*
X1273348Y-3377484D01*
X1368586Y-3377484D02*
X1368586Y-3244150D01*
X1368586Y-3263198D02*
X1378110Y-3253674D01*
X1378110Y-3253674D02*
X1397158Y-3244150D01*
X1397158Y-3244150D02*
X1425729Y-3244150D01*
X1425729Y-3244150D02*
X1444777Y-3253674D01*
X1444777Y-3253674D02*
X1454301Y-3272722D01*
X1454301Y-3272722D02*
X1454301Y-3377484D01*
X1454301Y-3272722D02*
X1463824Y-3253674D01*
X1463824Y-3253674D02*
X1482872Y-3244150D01*
X1482872Y-3244150D02*
X1511443Y-3244150D01*
X1511443Y-3244150D02*
X1530491Y-3253674D01*
X1530491Y-3253674D02*
X1540015Y-3272722D01*
X1540015Y-3272722D02*
X1540015Y-3377484D01*
X1930491Y-3167960D02*
X1759063Y-3425103D01*
X2187634Y-3177484D02*
X2206682Y-3177484D01*
X2206682Y-3177484D02*
X2225729Y-3187008D01*
X2225729Y-3187008D02*
X2235253Y-3196531D01*
X2235253Y-3196531D02*
X2244777Y-3215579D01*
X2244777Y-3215579D02*
X2254301Y-3253674D01*
X2254301Y-3253674D02*
X2254301Y-3301293D01*
X2254301Y-3301293D02*
X2244777Y-3339388D01*
X2244777Y-3339388D02*
X2235253Y-3358436D01*
X2235253Y-3358436D02*
X2225729Y-3367960D01*
X2225729Y-3367960D02*
X2206682Y-3377484D01*
X2206682Y-3377484D02*
X2187634Y-3377484D01*
X2187634Y-3377484D02*
X2168587Y-3367960D01*
X2168587Y-3367960D02*
X2159063Y-3358436D01*
X2159063Y-3358436D02*
X2149539Y-3339388D01*
X2149539Y-3339388D02*
X2140015Y-3301293D01*
X2140015Y-3301293D02*
X2140015Y-3253674D01*
X2140015Y-3253674D02*
X2149539Y-3215579D01*
X2149539Y-3215579D02*
X2159063Y-3196531D01*
X2159063Y-3196531D02*
X2168587Y-3187008D01*
X2168587Y-3187008D02*
X2187634Y-3177484D01*
X2340015Y-3358436D02*
X2349539Y-3367960D01*
X2349539Y-3367960D02*
X2340015Y-3377484D01*
X2340015Y-3377484D02*
X2330491Y-3367960D01*
X2330491Y-3367960D02*
X2340015Y-3358436D01*
X2340015Y-3358436D02*
X2340015Y-3377484D01*
X2473348Y-3177484D02*
X2492396Y-3177484D01*
X2492396Y-3177484D02*
X2511444Y-3187008D01*
X2511444Y-3187008D02*
X2520968Y-3196531D01*
X2520968Y-3196531D02*
X2530491Y-3215579D01*
X2530491Y-3215579D02*
X2540015Y-3253674D01*
X2540015Y-3253674D02*
X2540015Y-3301293D01*
X2540015Y-3301293D02*
X2530491Y-3339388D01*
X2530491Y-3339388D02*
X2520968Y-3358436D01*
X2520968Y-3358436D02*
X2511444Y-3367960D01*
X2511444Y-3367960D02*
X2492396Y-3377484D01*
X2492396Y-3377484D02*
X2473348Y-3377484D01*
X2473348Y-3377484D02*
X2454301Y-3367960D01*
X2454301Y-3367960D02*
X2444777Y-3358436D01*
X2444777Y-3358436D02*
X2435253Y-3339388D01*
X2435253Y-3339388D02*
X2425729Y-3301293D01*
X2425729Y-3301293D02*
X2425729Y-3253674D01*
X2425729Y-3253674D02*
X2435253Y-3215579D01*
X2435253Y-3215579D02*
X2444777Y-3196531D01*
X2444777Y-3196531D02*
X2454301Y-3187008D01*
X2454301Y-3187008D02*
X2473348Y-3177484D01*
X2711444Y-3244150D02*
X2711444Y-3377484D01*
X2663825Y-3167960D02*
X2616206Y-3310817D01*
X2616206Y-3310817D02*
X2740015Y-3310817D01*
X2797158Y-3177484D02*
X2920967Y-3177484D01*
X2920967Y-3177484D02*
X2854301Y-3253674D01*
X2854301Y-3253674D02*
X2882872Y-3253674D01*
X2882872Y-3253674D02*
X2901920Y-3263198D01*
X2901920Y-3263198D02*
X2911444Y-3272722D01*
X2911444Y-3272722D02*
X2920967Y-3291769D01*
X2920967Y-3291769D02*
X2920967Y-3339388D01*
X2920967Y-3339388D02*
X2911444Y-3358436D01*
X2911444Y-3358436D02*
X2901920Y-3367960D01*
X2901920Y-3367960D02*
X2882872Y-3377484D01*
X2882872Y-3377484D02*
X2825729Y-3377484D01*
X2825729Y-3377484D02*
X2806682Y-3367960D01*
X2806682Y-3367960D02*
X2797158Y-3358436D01*
X2987634Y-3177484D02*
X3111444Y-3177484D01*
X3111444Y-3177484D02*
X3044777Y-3253674D01*
X3044777Y-3253674D02*
X3073348Y-3253674D01*
X3073348Y-3253674D02*
X3092396Y-3263198D01*
X3092396Y-3263198D02*
X3101920Y-3272722D01*
X3101920Y-3272722D02*
X3111444Y-3291769D01*
X3111444Y-3291769D02*
X3111444Y-3339388D01*
X3111444Y-3339388D02*
X3101920Y-3358436D01*
X3101920Y-3358436D02*
X3092396Y-3367960D01*
X3092396Y-3367960D02*
X3073348Y-3377484D01*
X3073348Y-3377484D02*
X3016206Y-3377484D01*
X3016206Y-3377484D02*
X2997158Y-3367960D01*
X2997158Y-3367960D02*
X2987634Y-3358436D01*
X3187634Y-3177484D02*
X3187634Y-3215579D01*
X3263825Y-3177484D02*
X3263825Y-3215579D01*
X3559063Y-3453674D02*
X3549539Y-3444150D01*
X3549539Y-3444150D02*
X3530491Y-3415579D01*
X3530491Y-3415579D02*
X3520968Y-3396531D01*
X3520968Y-3396531D02*
X3511444Y-3367960D01*
X3511444Y-3367960D02*
X3501920Y-3320341D01*
X3501920Y-3320341D02*
X3501920Y-3282246D01*
X3501920Y-3282246D02*
X3511444Y-3234627D01*
X3511444Y-3234627D02*
X3520968Y-3206055D01*
X3520968Y-3206055D02*
X3530491Y-3187008D01*
X3530491Y-3187008D02*
X3549539Y-3158436D01*
X3549539Y-3158436D02*
X3559063Y-3148912D01*
X3730491Y-3177484D02*
X3635253Y-3177484D01*
X3635253Y-3177484D02*
X3625729Y-3272722D01*
X3625729Y-3272722D02*
X3635253Y-3263198D01*
X3635253Y-3263198D02*
X3654301Y-3253674D01*
X3654301Y-3253674D02*
X3701920Y-3253674D01*
X3701920Y-3253674D02*
X3720968Y-3263198D01*
X3720968Y-3263198D02*
X3730491Y-3272722D01*
X3730491Y-3272722D02*
X3740015Y-3291769D01*
X3740015Y-3291769D02*
X3740015Y-3339388D01*
X3740015Y-3339388D02*
X3730491Y-3358436D01*
X3730491Y-3358436D02*
X3720968Y-3367960D01*
X3720968Y-3367960D02*
X3701920Y-3377484D01*
X3701920Y-3377484D02*
X3654301Y-3377484D01*
X3654301Y-3377484D02*
X3635253Y-3367960D01*
X3635253Y-3367960D02*
X3625729Y-3358436D01*
X3835253Y-3377484D02*
X3873348Y-3377484D01*
X3873348Y-3377484D02*
X3892396Y-3367960D01*
X3892396Y-3367960D02*
X3901920Y-3358436D01*
X3901920Y-3358436D02*
X3920968Y-3329865D01*
X3920968Y-3329865D02*
X3930491Y-3291769D01*
X3930491Y-3291769D02*
X3930491Y-3215579D01*
X3930491Y-3215579D02*
X3920968Y-3196531D01*
X3920968Y-3196531D02*
X3911444Y-3187008D01*
X3911444Y-3187008D02*
X3892396Y-3177484D01*
X3892396Y-3177484D02*
X3854301Y-3177484D01*
X3854301Y-3177484D02*
X3835253Y-3187008D01*
X3835253Y-3187008D02*
X3825729Y-3196531D01*
X3825729Y-3196531D02*
X3816206Y-3215579D01*
X3816206Y-3215579D02*
X3816206Y-3263198D01*
X3816206Y-3263198D02*
X3825729Y-3282246D01*
X3825729Y-3282246D02*
X3835253Y-3291769D01*
X3835253Y-3291769D02*
X3854301Y-3301293D01*
X3854301Y-3301293D02*
X3892396Y-3301293D01*
X3892396Y-3301293D02*
X3911444Y-3291769D01*
X3911444Y-3291769D02*
X3920968Y-3282246D01*
X3920968Y-3282246D02*
X3930491Y-3263198D01*
X4168587Y-3377484D02*
X4168587Y-3177484D01*
X4254301Y-3377484D02*
X4254301Y-3272722D01*
X4254301Y-3272722D02*
X4244777Y-3253674D01*
X4244777Y-3253674D02*
X4225730Y-3244150D01*
X4225730Y-3244150D02*
X4197158Y-3244150D01*
X4197158Y-3244150D02*
X4178110Y-3253674D01*
X4178110Y-3253674D02*
X4168587Y-3263198D01*
X4378111Y-3377484D02*
X4359063Y-3367960D01*
X4359063Y-3367960D02*
X4349539Y-3358436D01*
X4349539Y-3358436D02*
X4340015Y-3339388D01*
X4340015Y-3339388D02*
X4340015Y-3282246D01*
X4340015Y-3282246D02*
X4349539Y-3263198D01*
X4349539Y-3263198D02*
X4359063Y-3253674D01*
X4359063Y-3253674D02*
X4378111Y-3244150D01*
X4378111Y-3244150D02*
X4406682Y-3244150D01*
X4406682Y-3244150D02*
X4425730Y-3253674D01*
X4425730Y-3253674D02*
X4435253Y-3263198D01*
X4435253Y-3263198D02*
X4444777Y-3282246D01*
X4444777Y-3282246D02*
X4444777Y-3339388D01*
X4444777Y-3339388D02*
X4435253Y-3358436D01*
X4435253Y-3358436D02*
X4425730Y-3367960D01*
X4425730Y-3367960D02*
X4406682Y-3377484D01*
X4406682Y-3377484D02*
X4378111Y-3377484D01*
X4559063Y-3377484D02*
X4540015Y-3367960D01*
X4540015Y-3367960D02*
X4530492Y-3348912D01*
X4530492Y-3348912D02*
X4530492Y-3177484D01*
X4711444Y-3367960D02*
X4692396Y-3377484D01*
X4692396Y-3377484D02*
X4654301Y-3377484D01*
X4654301Y-3377484D02*
X4635253Y-3367960D01*
X4635253Y-3367960D02*
X4625730Y-3348912D01*
X4625730Y-3348912D02*
X4625730Y-3272722D01*
X4625730Y-3272722D02*
X4635253Y-3253674D01*
X4635253Y-3253674D02*
X4654301Y-3244150D01*
X4654301Y-3244150D02*
X4692396Y-3244150D01*
X4692396Y-3244150D02*
X4711444Y-3253674D01*
X4711444Y-3253674D02*
X4720968Y-3272722D01*
X4720968Y-3272722D02*
X4720968Y-3291769D01*
X4720968Y-3291769D02*
X4625730Y-3310817D01*
X4797158Y-3367960D02*
X4816206Y-3377484D01*
X4816206Y-3377484D02*
X4854301Y-3377484D01*
X4854301Y-3377484D02*
X4873349Y-3367960D01*
X4873349Y-3367960D02*
X4882873Y-3348912D01*
X4882873Y-3348912D02*
X4882873Y-3339388D01*
X4882873Y-3339388D02*
X4873349Y-3320341D01*
X4873349Y-3320341D02*
X4854301Y-3310817D01*
X4854301Y-3310817D02*
X4825730Y-3310817D01*
X4825730Y-3310817D02*
X4806682Y-3301293D01*
X4806682Y-3301293D02*
X4797158Y-3282246D01*
X4797158Y-3282246D02*
X4797158Y-3272722D01*
X4797158Y-3272722D02*
X4806682Y-3253674D01*
X4806682Y-3253674D02*
X4825730Y-3244150D01*
X4825730Y-3244150D02*
X4854301Y-3244150D01*
X4854301Y-3244150D02*
X4873349Y-3253674D01*
X4949539Y-3453674D02*
X4959063Y-3444150D01*
X4959063Y-3444150D02*
X4978111Y-3415579D01*
X4978111Y-3415579D02*
X4987634Y-3396531D01*
X4987634Y-3396531D02*
X4997158Y-3367960D01*
X4997158Y-3367960D02*
X5006682Y-3320341D01*
X5006682Y-3320341D02*
X5006682Y-3282246D01*
X5006682Y-3282246D02*
X4997158Y-3234627D01*
X4997158Y-3234627D02*
X4987634Y-3206055D01*
X4987634Y-3206055D02*
X4978111Y-3187008D01*
X4978111Y-3187008D02*
X4959063Y-3158436D01*
X4959063Y-3158436D02*
X4949539Y-3148912D01*
M02*
