M48
; DRILL file {KiCad 9.0.7} date 2026-03-14T15:40:44-0700
; FORMAT={-:-/ absolute / metric / decimal}
; #@! TF.CreationDate,2026-03-14T15:40:44-07:00
; #@! TF.GenerationSoftware,Kicad,Pcbnew,9.0.7
; #@! TF.FileFunction,Plated,1,4,PTH
FMAT,2
METRIC
; #@! TA.AperFunction,Plated,PTH,ViaDrill
T1C0.200
; #@! TA.AperFunction,Plated,PTH,ViaDrill
T2C0.400
; #@! TA.AperFunction,Plated,PTH,ViaDrill
T3C0.500
; #@! TA.AperFunction,Plated,PTH,ViaDrill
T4C0.600
; #@! TA.AperFunction,Plated,PTH,ComponentDrill
T5C0.762
; #@! TA.AperFunction,Plated,PTH,ComponentDrill
T6C0.800
; #@! TA.AperFunction,Plated,PTH,ComponentDrill
T7C0.900
; #@! TA.AperFunction,Plated,PTH,ComponentDrill
T8C0.950
; #@! TA.AperFunction,Plated,PTH,ComponentDrill
T9C1.000
; #@! TA.AperFunction,Plated,PTH,ComponentDrill
T10C1.016
; #@! TA.AperFunction,Plated,PTH,ComponentDrill
T11C1.100
%
G90
G05
T1
X18.29Y46.69
X18.29Y45.69
X18.59Y49.49
X20.79Y47.89
X20.79Y46.39
X22.04Y43.99
X22.29Y47.89
X22.29Y46.44
X26.49Y49.49
X26.49Y47.99
X26.49Y46.04
X26.49Y45.24
X27.24Y45.69
X29.08Y59.72
X29.08Y43.99
X39.83Y29.2
X49.99Y33.01
X49.99Y24.374
X55.07Y59.045
X55.07Y48.25
X55.832Y35.55
X56.34Y57.775
X56.34Y45.71
X56.721Y33.01
X57.61Y19.548
X58.499Y39.36
X58.499Y31.105
X59.49Y40.615
X59.515Y31.994
X61.41Y53.48
X61.42Y30.089
X64.465Y42.64
X64.468Y17.77
X66.5Y60.569
X66.5Y36.82
X66.5Y29.97
X66.5Y20.31
X67.12Y68.58
X67.135Y60.569
X67.77Y56.6
X67.77Y54.05
X67.78Y68.58
X68.08Y17.01
X68.405Y68.57
X68.405Y60.569
X69.04Y59.045
X69.675Y57.775
X70.38Y59.68
X70.92Y34.89
X70.93Y33.34
X71.57Y56.98
X72.61Y59.13
X72.86Y34.98
X72.86Y34.08
X72.98Y41.19
X88.99Y18.61
T2
X11.79Y44.07
X19.35Y55.79
X19.51Y7.61
X20.79Y53.94
X22.815Y23.765
X23.99Y39.99
X29.74Y7.59
X31.19Y24.19
X32.065Y33.99
X42.01Y47.01
X43.99Y44.44
X49.99Y68.824
X54.89Y31.49
X63.07Y35.95
X64.468Y25.39
X66.5Y38.24
X67.15Y22.85
X71.25Y39.07
X73.99Y5.165
T3
X15.01Y38.52
X22.39Y56.765
X22.49Y50.49
X23.965Y38.515
X25.93Y50.94
X25.95Y56.79
X27.59Y37.665
X32.718Y65.776
X32.718Y52.06
X33.48Y34.56
T4
X7.43Y59.59
X8.01Y49.62
X9.48Y52.71
X11.97Y14.72
X12.06Y38.58
X12.11Y27.93
X14.965Y2.49
X24.04Y14.62
X44.65Y57.41
X44.92Y24.81
X44.92Y5.2
X45.94Y34.29
X55.36Y43.87
X55.38Y37.22
X59.49Y29.49
X59.51Y48.81
X61.49Y5.09
X63.08Y37.74
X64.33Y67.97
X64.33Y55.35
X69.07Y46.95
X69.5Y25.24
X72.15Y29.67
X72.62Y53.82
X74.99Y20.68
X75.04Y13.95
X77.47Y55.68
X77.52Y45.92
X77.98Y64.93
X84.62Y28.72
X84.7Y36.17
X84.77Y53.36
X84.77Y45.84
X86.96Y20.68
X86.96Y13.95
X98.4Y34.21
T5
X79.64Y58.64
X79.64Y23.08
X89.8Y58.64
X89.8Y23.08
T6
X46.092Y53.06
X46.092Y51.06
X48.092Y53.06
X48.092Y51.06
X50.092Y53.06
X50.092Y51.06
T7
X57.6Y9.415
X60.14Y9.415
T8
X13.98Y52.21
X31.49Y47.49
X31.49Y39.99
X63.94Y9.4
X67.62Y9.3
X69.08Y50.24
T9
X4.27Y59.68
X4.27Y57.14
X4.27Y54.6
X4.27Y52.06
X4.27Y49.52
X4.27Y46.98
X4.27Y44.44
X4.27Y41.9
X4.27Y39.36
X4.27Y36.82
X4.27Y34.28
X4.27Y31.74
X4.27Y29.2
X4.27Y26.66
X4.27Y24.12
X4.27Y21.58
X4.27Y19.04
X4.27Y16.5
X4.27Y13.96
X4.27Y11.42
X79.7Y10.23
X79.7Y4.97
X87.26Y10.23
X87.3Y4.99
X95.71Y59.68
X95.71Y57.14
X95.71Y54.6
X95.71Y52.06
X95.71Y49.52
X95.71Y46.98
X95.71Y44.44
X95.71Y41.9
X95.71Y39.36
X95.71Y36.82
X95.71Y34.28
X95.71Y31.74
X95.71Y29.2
X95.71Y26.66
X95.71Y24.12
X95.71Y21.58
X95.71Y19.04
X95.71Y16.5
X95.71Y13.96
X95.71Y11.42
T10
X32.99Y20.24
X32.99Y17.7
X32.99Y15.16
X32.99Y12.62
X32.99Y10.08
X32.99Y7.54
T11
X9.99Y65.49
X12.49Y65.49
X14.99Y65.49
X17.49Y65.49
X19.99Y65.49
X37.29Y66.03
X37.29Y63.49
X37.29Y60.95
X37.29Y58.41
X37.29Y55.87
X37.29Y53.33
X37.29Y50.79
X37.29Y48.25
X37.29Y45.71
X37.29Y43.17
X37.29Y40.63
X37.29Y38.09
X37.29Y35.55
X37.29Y33.01
X37.29Y30.47
X37.29Y27.93
X37.29Y25.39
X37.29Y22.85
X37.29Y20.31
X37.29Y17.77
X37.29Y15.23
X37.29Y12.69
X37.29Y10.15
X37.29Y7.61
X39.83Y20.31
X42.37Y20.31
X44.91Y20.31
X47.45Y20.31
X49.99Y63.49
X49.99Y20.31
X52.53Y66.03
X52.53Y63.49
X52.53Y60.95
X52.53Y58.41
X52.53Y55.87
X52.53Y53.33
X52.53Y50.79
X52.53Y48.25
X52.53Y45.71
X52.53Y43.17
X52.53Y40.63
X52.53Y38.09
X52.53Y35.55
X52.53Y33.01
X52.53Y30.47
X52.53Y27.93
X52.53Y25.39
X52.53Y22.85
X52.53Y20.31
X52.53Y17.77
X52.53Y15.23
X52.53Y12.69
X52.53Y10.15
X52.53Y7.61
M30
