G04 #@! TF.GenerationSoftware,KiCad,Pcbnew,9.0.7*
G04 #@! TF.CreationDate,2026-03-14T15:40:44-07:00*
G04 #@! TF.ProjectId,PocketFT8Xcvr,506f636b-6574-4465-9438-586376722e6b,rev?*
G04 #@! TF.SameCoordinates,Original*
G04 #@! TF.FileFunction,Other,Comment*
%FSLAX46Y46*%
G04 Gerber Fmt 4.6, Leading zero omitted, Abs format (unit mm)*
G04 Created by KiCad (PCBNEW 9.0.7) date 2026-03-14 15:40:44*
%MOMM*%
%LPD*%
G01*
G04 APERTURE LIST*
%ADD10C,0.150000*%
%ADD11C,0.300000*%
%ADD12C,0.200000*%
G04 APERTURE END LIST*
D10*
X-4685181Y31597144D02*
X-4685181Y31406668D01*
X-4685181Y31406668D02*
X-4637562Y31311430D01*
X-4637562Y31311430D02*
X-4589943Y31263811D01*
X-4589943Y31263811D02*
X-4447086Y31168573D01*
X-4447086Y31168573D02*
X-4256610Y31120954D01*
X-4256610Y31120954D02*
X-3875658Y31120954D01*
X-3875658Y31120954D02*
X-3780420Y31168573D01*
X-3780420Y31168573D02*
X-3732800Y31216192D01*
X-3732800Y31216192D02*
X-3685181Y31311430D01*
X-3685181Y31311430D02*
X-3685181Y31501906D01*
X-3685181Y31501906D02*
X-3732800Y31597144D01*
X-3732800Y31597144D02*
X-3780420Y31644763D01*
X-3780420Y31644763D02*
X-3875658Y31692382D01*
X-3875658Y31692382D02*
X-4113753Y31692382D01*
X-4113753Y31692382D02*
X-4208991Y31644763D01*
X-4208991Y31644763D02*
X-4256610Y31597144D01*
X-4256610Y31597144D02*
X-4304229Y31501906D01*
X-4304229Y31501906D02*
X-4304229Y31311430D01*
X-4304229Y31311430D02*
X-4256610Y31216192D01*
X-4256610Y31216192D02*
X-4208991Y31168573D01*
X-4208991Y31168573D02*
X-4113753Y31120954D01*
X-4685181Y32311430D02*
X-4685181Y32406668D01*
X-4685181Y32406668D02*
X-4637562Y32501906D01*
X-4637562Y32501906D02*
X-4589943Y32549525D01*
X-4589943Y32549525D02*
X-4494705Y32597144D01*
X-4494705Y32597144D02*
X-4304229Y32644763D01*
X-4304229Y32644763D02*
X-4066134Y32644763D01*
X-4066134Y32644763D02*
X-3875658Y32597144D01*
X-3875658Y32597144D02*
X-3780420Y32549525D01*
X-3780420Y32549525D02*
X-3732800Y32501906D01*
X-3732800Y32501906D02*
X-3685181Y32406668D01*
X-3685181Y32406668D02*
X-3685181Y32311430D01*
X-3685181Y32311430D02*
X-3732800Y32216192D01*
X-3732800Y32216192D02*
X-3780420Y32168573D01*
X-3780420Y32168573D02*
X-3875658Y32120954D01*
X-3875658Y32120954D02*
X-4066134Y32073335D01*
X-4066134Y32073335D02*
X-4304229Y32073335D01*
X-4304229Y32073335D02*
X-4494705Y32120954D01*
X-4494705Y32120954D02*
X-4589943Y32168573D01*
X-4589943Y32168573D02*
X-4637562Y32216192D01*
X-4637562Y32216192D02*
X-4685181Y32311430D01*
X-3780420Y33073335D02*
X-3732800Y33120954D01*
X-3732800Y33120954D02*
X-3685181Y33073335D01*
X-3685181Y33073335D02*
X-3732800Y33025716D01*
X-3732800Y33025716D02*
X-3780420Y33073335D01*
X-3780420Y33073335D02*
X-3685181Y33073335D01*
X-3685181Y33597144D02*
X-3685181Y33787620D01*
X-3685181Y33787620D02*
X-3732800Y33882858D01*
X-3732800Y33882858D02*
X-3780420Y33930477D01*
X-3780420Y33930477D02*
X-3923277Y34025715D01*
X-3923277Y34025715D02*
X-4113753Y34073334D01*
X-4113753Y34073334D02*
X-4494705Y34073334D01*
X-4494705Y34073334D02*
X-4589943Y34025715D01*
X-4589943Y34025715D02*
X-4637562Y33978096D01*
X-4637562Y33978096D02*
X-4685181Y33882858D01*
X-4685181Y33882858D02*
X-4685181Y33692382D01*
X-4685181Y33692382D02*
X-4637562Y33597144D01*
X-4637562Y33597144D02*
X-4589943Y33549525D01*
X-4589943Y33549525D02*
X-4494705Y33501906D01*
X-4494705Y33501906D02*
X-4256610Y33501906D01*
X-4256610Y33501906D02*
X-4161372Y33549525D01*
X-4161372Y33549525D02*
X-4113753Y33597144D01*
X-4113753Y33597144D02*
X-4066134Y33692382D01*
X-4066134Y33692382D02*
X-4066134Y33882858D01*
X-4066134Y33882858D02*
X-4113753Y33978096D01*
X-4113753Y33978096D02*
X-4161372Y34025715D01*
X-4161372Y34025715D02*
X-4256610Y34073334D01*
X-4685181Y34930477D02*
X-4685181Y34740001D01*
X-4685181Y34740001D02*
X-4637562Y34644763D01*
X-4637562Y34644763D02*
X-4589943Y34597144D01*
X-4589943Y34597144D02*
X-4447086Y34501906D01*
X-4447086Y34501906D02*
X-4256610Y34454287D01*
X-4256610Y34454287D02*
X-3875658Y34454287D01*
X-3875658Y34454287D02*
X-3780420Y34501906D01*
X-3780420Y34501906D02*
X-3732800Y34549525D01*
X-3732800Y34549525D02*
X-3685181Y34644763D01*
X-3685181Y34644763D02*
X-3685181Y34835239D01*
X-3685181Y34835239D02*
X-3732800Y34930477D01*
X-3732800Y34930477D02*
X-3780420Y34978096D01*
X-3780420Y34978096D02*
X-3875658Y35025715D01*
X-3875658Y35025715D02*
X-4113753Y35025715D01*
X-4113753Y35025715D02*
X-4208991Y34978096D01*
X-4208991Y34978096D02*
X-4256610Y34930477D01*
X-4256610Y34930477D02*
X-4304229Y34835239D01*
X-4304229Y34835239D02*
X-4304229Y34644763D01*
X-4304229Y34644763D02*
X-4256610Y34549525D01*
X-4256610Y34549525D02*
X-4208991Y34501906D01*
X-4208991Y34501906D02*
X-4113753Y34454287D01*
X-4685181Y35644763D02*
X-4685181Y35740001D01*
X-4685181Y35740001D02*
X-4637562Y35835239D01*
X-4637562Y35835239D02*
X-4589943Y35882858D01*
X-4589943Y35882858D02*
X-4494705Y35930477D01*
X-4494705Y35930477D02*
X-4304229Y35978096D01*
X-4304229Y35978096D02*
X-4066134Y35978096D01*
X-4066134Y35978096D02*
X-3875658Y35930477D01*
X-3875658Y35930477D02*
X-3780420Y35882858D01*
X-3780420Y35882858D02*
X-3732800Y35835239D01*
X-3732800Y35835239D02*
X-3685181Y35740001D01*
X-3685181Y35740001D02*
X-3685181Y35644763D01*
X-3685181Y35644763D02*
X-3732800Y35549525D01*
X-3732800Y35549525D02*
X-3780420Y35501906D01*
X-3780420Y35501906D02*
X-3875658Y35454287D01*
X-3875658Y35454287D02*
X-4066134Y35406668D01*
X-4066134Y35406668D02*
X-4304229Y35406668D01*
X-4304229Y35406668D02*
X-4494705Y35454287D01*
X-4494705Y35454287D02*
X-4589943Y35501906D01*
X-4589943Y35501906D02*
X-4637562Y35549525D01*
X-4637562Y35549525D02*
X-4685181Y35644763D01*
X-4685181Y36597144D02*
X-4685181Y36692382D01*
X-4685181Y36692382D02*
X-4637562Y36787620D01*
X-4637562Y36787620D02*
X-4589943Y36835239D01*
X-4589943Y36835239D02*
X-4494705Y36882858D01*
X-4494705Y36882858D02*
X-4304229Y36930477D01*
X-4304229Y36930477D02*
X-4066134Y36930477D01*
X-4066134Y36930477D02*
X-3875658Y36882858D01*
X-3875658Y36882858D02*
X-3780420Y36835239D01*
X-3780420Y36835239D02*
X-3732800Y36787620D01*
X-3732800Y36787620D02*
X-3685181Y36692382D01*
X-3685181Y36692382D02*
X-3685181Y36597144D01*
X-3685181Y36597144D02*
X-3732800Y36501906D01*
X-3732800Y36501906D02*
X-3780420Y36454287D01*
X-3780420Y36454287D02*
X-3875658Y36406668D01*
X-3875658Y36406668D02*
X-4066134Y36359049D01*
X-4066134Y36359049D02*
X-4304229Y36359049D01*
X-4304229Y36359049D02*
X-4494705Y36406668D01*
X-4494705Y36406668D02*
X-4589943Y36454287D01*
X-4589943Y36454287D02*
X-4637562Y36501906D01*
X-4637562Y36501906D02*
X-4685181Y36597144D01*
X-3685181Y38120954D02*
X-4351848Y38120954D01*
X-4256610Y38120954D02*
X-4304229Y38168573D01*
X-4304229Y38168573D02*
X-4351848Y38263811D01*
X-4351848Y38263811D02*
X-4351848Y38406668D01*
X-4351848Y38406668D02*
X-4304229Y38501906D01*
X-4304229Y38501906D02*
X-4208991Y38549525D01*
X-4208991Y38549525D02*
X-3685181Y38549525D01*
X-4208991Y38549525D02*
X-4304229Y38597144D01*
X-4304229Y38597144D02*
X-4351848Y38692382D01*
X-4351848Y38692382D02*
X-4351848Y38835239D01*
X-4351848Y38835239D02*
X-4304229Y38930478D01*
X-4304229Y38930478D02*
X-4208991Y38978097D01*
X-4208991Y38978097D02*
X-3685181Y38978097D01*
X-3685181Y39454287D02*
X-4351848Y39454287D01*
X-4256610Y39454287D02*
X-4304229Y39501906D01*
X-4304229Y39501906D02*
X-4351848Y39597144D01*
X-4351848Y39597144D02*
X-4351848Y39740001D01*
X-4351848Y39740001D02*
X-4304229Y39835239D01*
X-4304229Y39835239D02*
X-4208991Y39882858D01*
X-4208991Y39882858D02*
X-3685181Y39882858D01*
X-4208991Y39882858D02*
X-4304229Y39930477D01*
X-4304229Y39930477D02*
X-4351848Y40025715D01*
X-4351848Y40025715D02*
X-4351848Y40168572D01*
X-4351848Y40168572D02*
X-4304229Y40263811D01*
X-4304229Y40263811D02*
X-4208991Y40311430D01*
X-4208991Y40311430D02*
X-3685181Y40311430D01*
X3510000Y66220000D02*
X-3576420Y66220000D01*
X3510000Y5260000D02*
X-3576420Y5260000D01*
X-2990000Y66220000D02*
X-2990000Y5260000D01*
X-2990000Y66220000D02*
X-2403579Y65093496D01*
X-2990000Y66220000D02*
X-3576421Y65093496D01*
X-2990000Y5260000D02*
X-3576421Y6386504D01*
X-2990000Y5260000D02*
X-2403579Y6386504D01*
D11*
X43413108Y76107509D02*
X43698822Y76107853D01*
X43698822Y76107853D02*
X43841593Y76179453D01*
X43841593Y76179453D02*
X43912936Y76250968D01*
X43912936Y76250968D02*
X44055535Y76465425D01*
X44055535Y76465425D02*
X44126620Y76751225D01*
X44126620Y76751225D02*
X44125932Y77322653D01*
X44125932Y77322653D02*
X44054332Y77465425D01*
X44054332Y77465425D02*
X43982817Y77536767D01*
X43982817Y77536767D02*
X43839875Y77608024D01*
X43839875Y77608024D02*
X43554160Y77607680D01*
X43554160Y77607680D02*
X43411389Y77536080D01*
X43411389Y77536080D02*
X43340047Y77464565D01*
X43340047Y77464565D02*
X43268790Y77321622D01*
X43268790Y77321622D02*
X43269220Y76964480D01*
X43269220Y76964480D02*
X43340820Y76821709D01*
X43340820Y76821709D02*
X43412335Y76750366D01*
X43412335Y76750366D02*
X43555277Y76679109D01*
X43555277Y76679109D02*
X43840992Y76679453D01*
X43840992Y76679453D02*
X43983763Y76751053D01*
X43983763Y76751053D02*
X44055105Y76822568D01*
X44055105Y76822568D02*
X44126362Y76965511D01*
X45555963Y76110087D02*
X44698821Y76109056D01*
X45127392Y76109572D02*
X45125587Y77609571D01*
X45125587Y77609571D02*
X44982988Y77395113D01*
X44982988Y77395113D02*
X44840303Y77252084D01*
X44840303Y77252084D02*
X44697532Y77180484D01*
X46198647Y76253718D02*
X46270162Y76182375D01*
X46270162Y76182375D02*
X46198819Y76110861D01*
X46198819Y76110861D02*
X46127305Y76182203D01*
X46127305Y76182203D02*
X46198647Y76253718D01*
X46198647Y76253718D02*
X46198819Y76110861D01*
X47554758Y77112492D02*
X47555961Y76112493D01*
X47196928Y77683491D02*
X46841075Y76611634D01*
X46841075Y76611634D02*
X47769645Y76612751D01*
X48983328Y77114211D02*
X48984531Y76114212D01*
X48625498Y77685209D02*
X48269645Y76613352D01*
X48269645Y76613352D02*
X49198215Y76614469D01*
X50054154Y77615499D02*
X50197011Y77615671D01*
X50197011Y77615671D02*
X50339954Y77544415D01*
X50339954Y77544415D02*
X50411469Y77473072D01*
X50411469Y77473072D02*
X50483069Y77330301D01*
X50483069Y77330301D02*
X50554841Y77044673D01*
X50554841Y77044673D02*
X50555271Y76687530D01*
X50555271Y76687530D02*
X50484186Y76401730D01*
X50484186Y76401730D02*
X50412930Y76258787D01*
X50412930Y76258787D02*
X50341587Y76187273D01*
X50341587Y76187273D02*
X50198816Y76115672D01*
X50198816Y76115672D02*
X50055959Y76115501D01*
X50055959Y76115501D02*
X49913016Y76186757D01*
X49913016Y76186757D02*
X49841501Y76258100D01*
X49841501Y76258100D02*
X49769901Y76400871D01*
X49769901Y76400871D02*
X49698129Y76686499D01*
X49698129Y76686499D02*
X49697699Y77043642D01*
X49697699Y77043642D02*
X49768784Y77329442D01*
X49768784Y77329442D02*
X49840041Y77472385D01*
X49840041Y77472385D02*
X49911383Y77543899D01*
X49911383Y77543899D02*
X50054154Y77615499D01*
X51984528Y76117821D02*
X51127386Y76116789D01*
X51555957Y76117305D02*
X51554153Y77617304D01*
X51554153Y77617304D02*
X51411554Y77402847D01*
X51411554Y77402847D02*
X51268868Y77259818D01*
X51268868Y77259818D02*
X51126097Y77188217D01*
X53770241Y76119969D02*
X53769038Y77119968D01*
X53769210Y76977111D02*
X53840552Y77048625D01*
X53840552Y77048625D02*
X53983323Y77120226D01*
X53983323Y77120226D02*
X54197609Y77120484D01*
X54197609Y77120484D02*
X54340552Y77049227D01*
X54340552Y77049227D02*
X54412152Y76906456D01*
X54412152Y76906456D02*
X54413097Y76120742D01*
X54412152Y76906456D02*
X54483409Y77049399D01*
X54483409Y77049399D02*
X54626180Y77120999D01*
X54626180Y77120999D02*
X54840466Y77121257D01*
X54840466Y77121257D02*
X54983409Y77050000D01*
X54983409Y77050000D02*
X55055009Y76907229D01*
X55055009Y76907229D02*
X55055954Y76121515D01*
X55770239Y76122375D02*
X55769036Y77122374D01*
X55769208Y76979517D02*
X55840551Y77051031D01*
X55840551Y77051031D02*
X55983322Y77122632D01*
X55983322Y77122632D02*
X56197607Y77122890D01*
X56197607Y77122890D02*
X56340550Y77051633D01*
X56340550Y77051633D02*
X56412151Y76908862D01*
X56412151Y76908862D02*
X56413096Y76123148D01*
X56412151Y76908862D02*
X56483407Y77051805D01*
X56483407Y77051805D02*
X56626179Y77123405D01*
X56626179Y77123405D02*
X56840464Y77123663D01*
X56840464Y77123663D02*
X56983407Y77052406D01*
X56983407Y77052406D02*
X57055007Y76909635D01*
X57055007Y76909635D02*
X57055953Y76123921D01*
D12*
X4009399Y66720000D02*
X3999419Y75016414D01*
X95449399Y66830000D02*
X95439419Y75126414D01*
X4000124Y74429994D02*
X95440124Y74539994D01*
X4000124Y74429994D02*
X5125921Y75017769D01*
X4000124Y74429994D02*
X5127332Y73844929D01*
X95440124Y74539994D02*
X94314327Y73952219D01*
X95440124Y74539994D02*
X94312916Y75125059D01*
D10*
G04 #@! TO.C,REF\u002A\u002A*
X7010000Y66220000D02*
G75*
G02*
X1010000Y66220000I-3000000J0D01*
G01*
X1010000Y66220000D02*
G75*
G02*
X7010000Y66220000I3000000J0D01*
G01*
X7010000Y5260000D02*
G75*
G02*
X1010000Y5260000I-3000000J0D01*
G01*
X1010000Y5260000D02*
G75*
G02*
X7010000Y5260000I3000000J0D01*
G01*
X98450000Y5260000D02*
G75*
G02*
X92450000Y5260000I-3000000J0D01*
G01*
X92450000Y5260000D02*
G75*
G02*
X98450000Y5260000I3000000J0D01*
G01*
X98450000Y66330000D02*
G75*
G02*
X92450000Y66330000I-3000000J0D01*
G01*
X92450000Y66330000D02*
G75*
G02*
X98450000Y66330000I3000000J0D01*
G01*
G04 #@! TD*
M02*
