G04 #@! TF.GenerationSoftware,KiCad,Pcbnew,9.0.7*
G04 #@! TF.CreationDate,2026-03-14T15:40:44-07:00*
G04 #@! TF.ProjectId,PocketFT8Xcvr,506f636b-6574-4465-9438-586376722e6b,rev?*
G04 #@! TF.SameCoordinates,Original*
G04 #@! TF.FileFunction,Legend,Bot*
G04 #@! TF.FilePolarity,Positive*
%FSLAX46Y46*%
G04 Gerber Fmt 4.6, Leading zero omitted, Abs format (unit mm)*
G04 Created by KiCad (PCBNEW 9.0.7) date 2026-03-14 15:40:44*
%MOMM*%
%LPD*%
G01*
G04 APERTURE LIST*
G04 Aperture macros list*
%AMRoundRect*
0 Rectangle with rounded corners*
0 $1 Rounding radius*
0 $2 $3 $4 $5 $6 $7 $8 $9 X,Y pos of 4 corners*
0 Add a 4 corners polygon primitive as box body*
4,1,4,$2,$3,$4,$5,$6,$7,$8,$9,$2,$3,0*
0 Add four circle primitives for the rounded corners*
1,1,$1+$1,$2,$3*
1,1,$1+$1,$4,$5*
1,1,$1+$1,$6,$7*
1,1,$1+$1,$8,$9*
0 Add four rect primitives between the rounded corners*
20,1,$1+$1,$2,$3,$4,$5,0*
20,1,$1+$1,$4,$5,$6,$7,0*
20,1,$1+$1,$6,$7,$8,$9,0*
20,1,$1+$1,$8,$9,$2,$3,0*%
G04 Aperture macros list end*
%ADD10C,0.150000*%
%ADD11C,0.152400*%
%ADD12C,0.508000*%
%ADD13C,3.000000*%
%ADD14R,1.600000X1.600000*%
%ADD15C,1.600000*%
%ADD16R,1.300000X1.300000*%
%ADD17C,1.300000*%
%ADD18C,1.803200*%
%ADD19R,2.413000X5.080000*%
%ADD20R,1.700000X1.700000*%
%ADD21O,1.700000X1.700000*%
%ADD22R,1.879600X1.879600*%
%ADD23C,1.879600*%
%ADD24RoundRect,0.250000X0.512000X-0.512000X0.512000X0.512000X-0.512000X0.512000X-0.512000X-0.512000X0*%
%ADD25C,1.524000*%
%ADD26R,1.800000X1.800000*%
%ADD27C,1.800000*%
%ADD28R,2.000000X2.000000*%
%ADD29C,2.000000*%
%ADD30R,2.100000X2.100000*%
%ADD31C,2.100000*%
%ADD32R,4.318000X3.302000*%
G04 APERTURE END LIST*
D10*
X19441009Y27874286D02*
X19488628Y27731429D01*
X19488628Y27731429D02*
X19536247Y27683810D01*
X19536247Y27683810D02*
X19631485Y27636191D01*
X19631485Y27636191D02*
X19774342Y27636191D01*
X19774342Y27636191D02*
X19869580Y27683810D01*
X19869580Y27683810D02*
X19917200Y27731429D01*
X19917200Y27731429D02*
X19964819Y27826667D01*
X19964819Y27826667D02*
X19964819Y28207619D01*
X19964819Y28207619D02*
X18964819Y28207619D01*
X18964819Y28207619D02*
X18964819Y27874286D01*
X18964819Y27874286D02*
X19012438Y27779048D01*
X19012438Y27779048D02*
X19060057Y27731429D01*
X19060057Y27731429D02*
X19155295Y27683810D01*
X19155295Y27683810D02*
X19250533Y27683810D01*
X19250533Y27683810D02*
X19345771Y27731429D01*
X19345771Y27731429D02*
X19393390Y27779048D01*
X19393390Y27779048D02*
X19441009Y27874286D01*
X19441009Y27874286D02*
X19441009Y28207619D01*
X19679104Y27255238D02*
X19679104Y26779048D01*
X19964819Y27350476D02*
X18964819Y27017143D01*
X18964819Y27017143D02*
X19964819Y26683810D01*
X18964819Y26493333D02*
X18964819Y25921905D01*
X19964819Y26207619D02*
X18964819Y26207619D01*
X19964819Y25064762D02*
X19964819Y25636190D01*
X19964819Y25350476D02*
X18964819Y25350476D01*
X18964819Y25350476D02*
X19107676Y25445714D01*
X19107676Y25445714D02*
X19202914Y25540952D01*
X19202914Y25540952D02*
X19250533Y25636190D01*
D11*
G04 #@! TO.C,BAT1*
X9350000Y42865200D02*
X17018260Y42865200D01*
X9350000Y10454800D02*
X9350000Y42865200D01*
X17018260Y10454800D02*
X9350000Y10454800D01*
X22001740Y42865200D02*
X29670000Y42865200D01*
X29670000Y42865200D02*
X29670000Y10454800D01*
X29670000Y10454800D02*
X22001740Y10454800D01*
D12*
X19510000Y9438800D02*
G75*
G02*
X19136188Y9893460I0J381000D01*
G01*
X19883812Y9893460D02*
G75*
G02*
X19510000Y9438800I-373812J-73660D01*
G01*
G04 #@! TD*
%LPC*%
D13*
G04 #@! TO.C,REF\u002A\u002A*
X4010000Y66220000D03*
G04 #@! TD*
D14*
G04 #@! TO.C,TN1*
X37290000Y66030000D03*
D15*
X37290000Y63490000D03*
X37290000Y60950000D03*
X37290000Y58410000D03*
X37290000Y55870000D03*
X37290000Y53330000D03*
X37290000Y50790000D03*
X37290000Y48250000D03*
X37290000Y45710000D03*
X37290000Y43170000D03*
X37290000Y40630000D03*
X37290000Y38090000D03*
X37290000Y35550000D03*
X37290000Y33010000D03*
X37290000Y30470000D03*
X37290000Y27930000D03*
X37290000Y25390000D03*
X37290000Y22850000D03*
X37290000Y20310000D03*
X37290000Y17770000D03*
X37290000Y15230000D03*
X37290000Y12690000D03*
X37290000Y10150000D03*
X37290000Y7610000D03*
X52530000Y7610000D03*
X52530000Y10150000D03*
X52530000Y12690000D03*
X52530000Y15230000D03*
X52530000Y17770000D03*
X52530000Y20310000D03*
X52530000Y22850000D03*
X52530000Y25390000D03*
X52530000Y27930000D03*
X52530000Y30470000D03*
X52530000Y33010000D03*
X52530000Y35550000D03*
X52530000Y38090000D03*
X52530000Y40630000D03*
X52530000Y43170000D03*
X52530000Y45710000D03*
X52530000Y48250000D03*
X52530000Y50790000D03*
X52530000Y53330000D03*
X52530000Y55870000D03*
X52530000Y58410000D03*
X52530000Y60950000D03*
X52530000Y63490000D03*
X52530000Y66030000D03*
X49990000Y63490000D03*
X39830000Y20310000D03*
X42370000Y20310000D03*
X44910000Y20310000D03*
X47450000Y20310000D03*
X49990000Y20310000D03*
D16*
X50091600Y53060000D03*
D17*
X48091600Y53060000D03*
X46091600Y53060000D03*
X46091600Y51060000D03*
X48091600Y51060000D03*
X50091600Y51060000D03*
G04 #@! TD*
D18*
G04 #@! TO.C,TP1*
X13980000Y52210000D03*
G04 #@! TD*
D19*
G04 #@! TO.C,J2*
X81127000Y67180000D03*
X89890000Y67180000D03*
G04 #@! TD*
D13*
G04 #@! TO.C,REF\u002A\u002A*
X4010000Y5260000D03*
G04 #@! TD*
D20*
G04 #@! TO.C,J1*
X95710000Y59680000D03*
D21*
X95710000Y57140000D03*
X95710000Y54600000D03*
X95710000Y52060000D03*
X95710000Y49520000D03*
X95710000Y46980000D03*
X95710000Y44440000D03*
X95710000Y41900000D03*
X95710000Y39360000D03*
X95710000Y36820000D03*
X95710000Y34280000D03*
X95710000Y31740000D03*
X95710000Y29200000D03*
X95710000Y26660000D03*
X95710000Y24120000D03*
X95710000Y21580000D03*
X95710000Y19040000D03*
X95710000Y16500000D03*
X95710000Y13960000D03*
X95710000Y11420000D03*
G04 #@! TD*
D13*
G04 #@! TO.C,REF\u002A\u002A*
X95450000Y5260000D03*
G04 #@! TD*
D22*
G04 #@! TO.C,J4*
X32990000Y20240000D03*
D23*
X32990000Y17700000D03*
X32990000Y15160000D03*
X32990000Y12620000D03*
X32990000Y10080000D03*
X32990000Y7540000D03*
G04 #@! TD*
D18*
G04 #@! TO.C,TP2*
X31490000Y39990000D03*
G04 #@! TD*
G04 #@! TO.C,TP4*
X69080000Y50240000D03*
G04 #@! TD*
D24*
G04 #@! TO.C,FL1*
X79640000Y23080000D03*
D25*
X89800000Y23080000D03*
X79640000Y58640000D03*
X89800000Y58640000D03*
G04 #@! TD*
D26*
G04 #@! TO.C,D1*
X60140000Y9415000D03*
D27*
X57600000Y9415000D03*
G04 #@! TD*
D28*
G04 #@! TO.C,T1*
X87300000Y4990000D03*
D29*
X79700000Y4970000D03*
X87260000Y10230000D03*
X79700000Y10230000D03*
G04 #@! TD*
D18*
G04 #@! TO.C,TP3*
X31490000Y47490000D03*
G04 #@! TD*
G04 #@! TO.C,TP5*
X63940000Y9400000D03*
G04 #@! TD*
D30*
G04 #@! TO.C,J3*
X9990000Y65490000D03*
D31*
X12490000Y65490000D03*
X14990000Y65490000D03*
X17490000Y65490000D03*
X19990000Y65490000D03*
G04 #@! TD*
D20*
G04 #@! TO.C,J5*
X4270000Y59680000D03*
D21*
X4270000Y57140000D03*
X4270000Y54600000D03*
X4270000Y52060000D03*
X4270000Y49520000D03*
X4270000Y46980000D03*
X4270000Y44440000D03*
X4270000Y41900000D03*
X4270000Y39360000D03*
X4270000Y36820000D03*
X4270000Y34280000D03*
X4270000Y31740000D03*
X4270000Y29200000D03*
X4270000Y26660000D03*
X4270000Y24120000D03*
X4270000Y21580000D03*
X4270000Y19040000D03*
X4270000Y16500000D03*
X4270000Y13960000D03*
X4270000Y11420000D03*
G04 #@! TD*
D13*
G04 #@! TO.C,REF\u002A\u002A*
X95450000Y66330000D03*
G04 #@! TD*
D18*
G04 #@! TO.C,TP6*
X67620000Y9300000D03*
G04 #@! TD*
D32*
G04 #@! TO.C,BAT1*
X19510000Y12055000D03*
X19510000Y41265000D03*
G04 #@! TD*
%LPD*%
M02*
