G04 #@! TF.GenerationSoftware,KiCad,Pcbnew,9.0.7*
G04 #@! TF.CreationDate,2026-03-14T15:40:44-07:00*
G04 #@! TF.ProjectId,PocketFT8Xcvr,506f636b-6574-4465-9438-586376722e6b,rev?*
G04 #@! TF.SameCoordinates,Original*
G04 #@! TF.FileFunction,Legend,Top*
G04 #@! TF.FilePolarity,Positive*
%FSLAX46Y46*%
G04 Gerber Fmt 4.6, Leading zero omitted, Abs format (unit mm)*
G04 Created by KiCad (PCBNEW 9.0.7) date 2026-03-14 15:40:44*
%MOMM*%
%LPD*%
G01*
G04 APERTURE LIST*
G04 Aperture macros list*
%AMRoundRect*
0 Rectangle with rounded corners*
0 $1 Rounding radius*
0 $2 $3 $4 $5 $6 $7 $8 $9 X,Y pos of 4 corners*
0 Add a 4 corners polygon primitive as box body*
4,1,4,$2,$3,$4,$5,$6,$7,$8,$9,$2,$3,0*
0 Add four circle primitives for the rounded corners*
1,1,$1+$1,$2,$3*
1,1,$1+$1,$4,$5*
1,1,$1+$1,$6,$7*
1,1,$1+$1,$8,$9*
0 Add four rect primitives between the rounded corners*
20,1,$1+$1,$2,$3,$4,$5,0*
20,1,$1+$1,$4,$5,$6,$7,0*
20,1,$1+$1,$6,$7,$8,$9,0*
20,1,$1+$1,$8,$9,$2,$3,0*%
G04 Aperture macros list end*
%ADD10C,0.150000*%
%ADD11C,0.300000*%
%ADD12C,0.254000*%
%ADD13C,0.200000*%
%ADD14C,0.100000*%
%ADD15C,0.120000*%
%ADD16C,0.127000*%
%ADD17C,0.152400*%
%ADD18C,0.000000*%
%ADD19C,0.508000*%
%ADD20C,3.000000*%
%ADD21R,1.600000X1.600000*%
%ADD22C,1.600000*%
%ADD23R,1.300000X1.300000*%
%ADD24C,1.300000*%
%ADD25C,1.803200*%
%ADD26RoundRect,0.200000X-0.275000X0.200000X-0.275000X-0.200000X0.275000X-0.200000X0.275000X0.200000X0*%
%ADD27RoundRect,0.102000X0.650000X-0.550000X0.650000X0.550000X-0.650000X0.550000X-0.650000X-0.550000X0*%
%ADD28RoundRect,0.250000X-0.475000X0.250000X-0.475000X-0.250000X0.475000X-0.250000X0.475000X0.250000X0*%
%ADD29R,2.286000X5.080000*%
%ADD30R,2.413000X5.080000*%
%ADD31RoundRect,0.225000X0.250000X-0.225000X0.250000X0.225000X-0.250000X0.225000X-0.250000X-0.225000X0*%
%ADD32RoundRect,0.200000X0.275000X-0.200000X0.275000X0.200000X-0.275000X0.200000X-0.275000X-0.200000X0*%
%ADD33R,1.700000X1.700000*%
%ADD34O,1.700000X1.700000*%
%ADD35R,0.420000X0.600000*%
%ADD36RoundRect,0.225000X-0.250000X0.225000X-0.250000X-0.225000X0.250000X-0.225000X0.250000X0.225000X0*%
%ADD37R,1.879600X1.879600*%
%ADD38C,1.879600*%
%ADD39RoundRect,0.250000X0.512000X-0.512000X0.512000X0.512000X-0.512000X0.512000X-0.512000X-0.512000X0*%
%ADD40C,1.524000*%
%ADD41R,1.800000X1.800000*%
%ADD42C,1.800000*%
%ADD43R,0.762000X0.254000*%
%ADD44R,0.254000X0.762000*%
%ADD45R,2.743200X2.743200*%
%ADD46R,2.000000X2.000000*%
%ADD47C,2.000000*%
%ADD48RoundRect,0.100000X-0.200000X0.600000X-0.200000X-0.600000X0.200000X-0.600000X0.200000X0.600000X0*%
%ADD49R,2.100000X2.100000*%
%ADD50C,2.100000*%
%ADD51R,1.981200X0.558800*%
G04 APERTURE END LIST*
D10*
X97262969Y28840181D02*
X97262969Y29840181D01*
X97262969Y29840181D02*
X97477255Y29840181D01*
X97477255Y29840181D02*
X97605826Y29792562D01*
X97605826Y29792562D02*
X97691541Y29697324D01*
X97691541Y29697324D02*
X97734398Y29602086D01*
X97734398Y29602086D02*
X97777255Y29411610D01*
X97777255Y29411610D02*
X97777255Y29268753D01*
X97777255Y29268753D02*
X97734398Y29078277D01*
X97734398Y29078277D02*
X97691541Y28983039D01*
X97691541Y28983039D02*
X97605826Y28887800D01*
X97605826Y28887800D02*
X97477255Y28840181D01*
X97477255Y28840181D02*
X97262969Y28840181D01*
X98805826Y29887800D02*
X98034398Y28602086D01*
X99620112Y28935420D02*
X99577255Y28887800D01*
X99577255Y28887800D02*
X99448683Y28840181D01*
X99448683Y28840181D02*
X99362969Y28840181D01*
X99362969Y28840181D02*
X99234398Y28887800D01*
X99234398Y28887800D02*
X99148683Y28983039D01*
X99148683Y28983039D02*
X99105826Y29078277D01*
X99105826Y29078277D02*
X99062969Y29268753D01*
X99062969Y29268753D02*
X99062969Y29411610D01*
X99062969Y29411610D02*
X99105826Y29602086D01*
X99105826Y29602086D02*
X99148683Y29697324D01*
X99148683Y29697324D02*
X99234398Y29792562D01*
X99234398Y29792562D02*
X99362969Y29840181D01*
X99362969Y29840181D02*
X99448683Y29840181D01*
X99448683Y29840181D02*
X99577255Y29792562D01*
X99577255Y29792562D02*
X99620112Y29744943D01*
X97262969Y21220181D02*
X97262969Y22220181D01*
X97262969Y22220181D02*
X97562969Y21505896D01*
X97562969Y21505896D02*
X97862969Y22220181D01*
X97862969Y22220181D02*
X97862969Y21220181D01*
X98248683Y21267800D02*
X98377255Y21220181D01*
X98377255Y21220181D02*
X98591540Y21220181D01*
X98591540Y21220181D02*
X98677255Y21267800D01*
X98677255Y21267800D02*
X98720112Y21315420D01*
X98720112Y21315420D02*
X98762969Y21410658D01*
X98762969Y21410658D02*
X98762969Y21505896D01*
X98762969Y21505896D02*
X98720112Y21601134D01*
X98720112Y21601134D02*
X98677255Y21648753D01*
X98677255Y21648753D02*
X98591540Y21696372D01*
X98591540Y21696372D02*
X98420112Y21743991D01*
X98420112Y21743991D02*
X98334397Y21791610D01*
X98334397Y21791610D02*
X98291540Y21839229D01*
X98291540Y21839229D02*
X98248683Y21934467D01*
X98248683Y21934467D02*
X98248683Y22029705D01*
X98248683Y22029705D02*
X98291540Y22124943D01*
X98291540Y22124943D02*
X98334397Y22172562D01*
X98334397Y22172562D02*
X98420112Y22220181D01*
X98420112Y22220181D02*
X98634397Y22220181D01*
X98634397Y22220181D02*
X98762969Y22172562D01*
X99320112Y22220181D02*
X99491540Y22220181D01*
X99491540Y22220181D02*
X99577255Y22172562D01*
X99577255Y22172562D02*
X99662969Y22077324D01*
X99662969Y22077324D02*
X99705826Y21886848D01*
X99705826Y21886848D02*
X99705826Y21553515D01*
X99705826Y21553515D02*
X99662969Y21363039D01*
X99662969Y21363039D02*
X99577255Y21267800D01*
X99577255Y21267800D02*
X99491540Y21220181D01*
X99491540Y21220181D02*
X99320112Y21220181D01*
X99320112Y21220181D02*
X99234398Y21267800D01*
X99234398Y21267800D02*
X99148683Y21363039D01*
X99148683Y21363039D02*
X99105826Y21553515D01*
X99105826Y21553515D02*
X99105826Y21886848D01*
X99105826Y21886848D02*
X99148683Y22077324D01*
X99148683Y22077324D02*
X99234398Y22172562D01*
X99234398Y22172562D02*
X99320112Y22220181D01*
X97858207Y26395420D02*
X97810588Y26347800D01*
X97810588Y26347800D02*
X97667731Y26300181D01*
X97667731Y26300181D02*
X97572493Y26300181D01*
X97572493Y26300181D02*
X97429636Y26347800D01*
X97429636Y26347800D02*
X97334398Y26443039D01*
X97334398Y26443039D02*
X97286779Y26538277D01*
X97286779Y26538277D02*
X97239160Y26728753D01*
X97239160Y26728753D02*
X97239160Y26871610D01*
X97239160Y26871610D02*
X97286779Y27062086D01*
X97286779Y27062086D02*
X97334398Y27157324D01*
X97334398Y27157324D02*
X97429636Y27252562D01*
X97429636Y27252562D02*
X97572493Y27300181D01*
X97572493Y27300181D02*
X97667731Y27300181D01*
X97667731Y27300181D02*
X97810588Y27252562D01*
X97810588Y27252562D02*
X97858207Y27204943D01*
X98239160Y26347800D02*
X98382017Y26300181D01*
X98382017Y26300181D02*
X98620112Y26300181D01*
X98620112Y26300181D02*
X98715350Y26347800D01*
X98715350Y26347800D02*
X98762969Y26395420D01*
X98762969Y26395420D02*
X98810588Y26490658D01*
X98810588Y26490658D02*
X98810588Y26585896D01*
X98810588Y26585896D02*
X98762969Y26681134D01*
X98762969Y26681134D02*
X98715350Y26728753D01*
X98715350Y26728753D02*
X98620112Y26776372D01*
X98620112Y26776372D02*
X98429636Y26823991D01*
X98429636Y26823991D02*
X98334398Y26871610D01*
X98334398Y26871610D02*
X98286779Y26919229D01*
X98286779Y26919229D02*
X98239160Y27014467D01*
X98239160Y27014467D02*
X98239160Y27109705D01*
X98239160Y27109705D02*
X98286779Y27204943D01*
X98286779Y27204943D02*
X98334398Y27252562D01*
X98334398Y27252562D02*
X98429636Y27300181D01*
X98429636Y27300181D02*
X98667731Y27300181D01*
X98667731Y27300181D02*
X98810588Y27252562D01*
D11*
X97704510Y41815458D02*
X97704510Y41101172D01*
X97271177Y42601172D02*
X97704510Y41815458D01*
X97704510Y41815458D02*
X98137844Y42601172D01*
X98571177Y41672600D02*
X99561654Y41672600D01*
X10274950Y55344511D02*
X8674950Y55344511D01*
X8674950Y55344511D02*
X8674950Y55915940D01*
X8674950Y55915940D02*
X8751140Y56058797D01*
X8751140Y56058797D02*
X8827331Y56130226D01*
X8827331Y56130226D02*
X8979712Y56201654D01*
X8979712Y56201654D02*
X9208283Y56201654D01*
X9208283Y56201654D02*
X9360664Y56130226D01*
X9360664Y56130226D02*
X9436855Y56058797D01*
X9436855Y56058797D02*
X9513045Y55915940D01*
X9513045Y55915940D02*
X9513045Y55344511D01*
X10274950Y56844511D02*
X8674950Y56844511D01*
X8674950Y56844511D02*
X8674950Y57415940D01*
X8674950Y57415940D02*
X8751140Y57558797D01*
X8751140Y57558797D02*
X8827331Y57630226D01*
X8827331Y57630226D02*
X8979712Y57701654D01*
X8979712Y57701654D02*
X9208283Y57701654D01*
X9208283Y57701654D02*
X9360664Y57630226D01*
X9360664Y57630226D02*
X9436855Y57558797D01*
X9436855Y57558797D02*
X9513045Y57415940D01*
X9513045Y57415940D02*
X9513045Y56844511D01*
X10198760Y58273083D02*
X10274950Y58487368D01*
X10274950Y58487368D02*
X10274950Y58844511D01*
X10274950Y58844511D02*
X10198760Y58987368D01*
X10198760Y58987368D02*
X10122569Y59058797D01*
X10122569Y59058797D02*
X9970188Y59130226D01*
X9970188Y59130226D02*
X9817807Y59130226D01*
X9817807Y59130226D02*
X9665426Y59058797D01*
X9665426Y59058797D02*
X9589236Y58987368D01*
X9589236Y58987368D02*
X9513045Y58844511D01*
X9513045Y58844511D02*
X9436855Y58558797D01*
X9436855Y58558797D02*
X9360664Y58415940D01*
X9360664Y58415940D02*
X9284474Y58344511D01*
X9284474Y58344511D02*
X9132093Y58273083D01*
X9132093Y58273083D02*
X8979712Y58273083D01*
X8979712Y58273083D02*
X8827331Y58344511D01*
X8827331Y58344511D02*
X8751140Y58415940D01*
X8751140Y58415940D02*
X8674950Y58558797D01*
X8674950Y58558797D02*
X8674950Y58915940D01*
X8674950Y58915940D02*
X8751140Y59130226D01*
X12241336Y55344511D02*
X12241336Y56487368D01*
X12850860Y55915940D02*
X11631812Y55915940D01*
X11250860Y57915940D02*
X11250860Y57201654D01*
X11250860Y57201654D02*
X12012765Y57130226D01*
X12012765Y57130226D02*
X11936574Y57201654D01*
X11936574Y57201654D02*
X11860384Y57344511D01*
X11860384Y57344511D02*
X11860384Y57701654D01*
X11860384Y57701654D02*
X11936574Y57844511D01*
X11936574Y57844511D02*
X12012765Y57915940D01*
X12012765Y57915940D02*
X12165146Y57987369D01*
X12165146Y57987369D02*
X12546098Y57987369D01*
X12546098Y57987369D02*
X12698479Y57915940D01*
X12698479Y57915940D02*
X12774670Y57844511D01*
X12774670Y57844511D02*
X12850860Y57701654D01*
X12850860Y57701654D02*
X12850860Y57344511D01*
X12850860Y57344511D02*
X12774670Y57201654D01*
X12774670Y57201654D02*
X12698479Y57130226D01*
X11250860Y58415940D02*
X12850860Y58915940D01*
X12850860Y58915940D02*
X11250860Y59415940D01*
X13902960Y56130226D02*
X13826770Y55987368D01*
X13826770Y55987368D02*
X13826770Y55773083D01*
X13826770Y55773083D02*
X13902960Y55558797D01*
X13902960Y55558797D02*
X14055341Y55415940D01*
X14055341Y55415940D02*
X14207722Y55344511D01*
X14207722Y55344511D02*
X14512484Y55273083D01*
X14512484Y55273083D02*
X14741056Y55273083D01*
X14741056Y55273083D02*
X15045818Y55344511D01*
X15045818Y55344511D02*
X15198199Y55415940D01*
X15198199Y55415940D02*
X15350580Y55558797D01*
X15350580Y55558797D02*
X15426770Y55773083D01*
X15426770Y55773083D02*
X15426770Y55915940D01*
X15426770Y55915940D02*
X15350580Y56130226D01*
X15350580Y56130226D02*
X15274389Y56201654D01*
X15274389Y56201654D02*
X14741056Y56201654D01*
X14741056Y56201654D02*
X14741056Y55915940D01*
X15426770Y56844511D02*
X13826770Y56844511D01*
X13826770Y56844511D02*
X15426770Y57701654D01*
X15426770Y57701654D02*
X13826770Y57701654D01*
X15426770Y58415940D02*
X13826770Y58415940D01*
X13826770Y58415940D02*
X13826770Y58773083D01*
X13826770Y58773083D02*
X13902960Y58987369D01*
X13902960Y58987369D02*
X14055341Y59130226D01*
X14055341Y59130226D02*
X14207722Y59201655D01*
X14207722Y59201655D02*
X14512484Y59273083D01*
X14512484Y59273083D02*
X14741056Y59273083D01*
X14741056Y59273083D02*
X15045818Y59201655D01*
X15045818Y59201655D02*
X15198199Y59130226D01*
X15198199Y59130226D02*
X15350580Y58987369D01*
X15350580Y58987369D02*
X15426770Y58773083D01*
X15426770Y58773083D02*
X15426770Y58415940D01*
X16478870Y56130226D02*
X16402680Y55987368D01*
X16402680Y55987368D02*
X16402680Y55773083D01*
X16402680Y55773083D02*
X16478870Y55558797D01*
X16478870Y55558797D02*
X16631251Y55415940D01*
X16631251Y55415940D02*
X16783632Y55344511D01*
X16783632Y55344511D02*
X17088394Y55273083D01*
X17088394Y55273083D02*
X17316966Y55273083D01*
X17316966Y55273083D02*
X17621728Y55344511D01*
X17621728Y55344511D02*
X17774109Y55415940D01*
X17774109Y55415940D02*
X17926490Y55558797D01*
X17926490Y55558797D02*
X18002680Y55773083D01*
X18002680Y55773083D02*
X18002680Y55915940D01*
X18002680Y55915940D02*
X17926490Y56130226D01*
X17926490Y56130226D02*
X17850299Y56201654D01*
X17850299Y56201654D02*
X17316966Y56201654D01*
X17316966Y56201654D02*
X17316966Y55915940D01*
X18002680Y56844511D02*
X16402680Y56844511D01*
X16402680Y56844511D02*
X16402680Y57415940D01*
X16402680Y57415940D02*
X16478870Y57558797D01*
X16478870Y57558797D02*
X16555061Y57630226D01*
X16555061Y57630226D02*
X16707442Y57701654D01*
X16707442Y57701654D02*
X16936013Y57701654D01*
X16936013Y57701654D02*
X17088394Y57630226D01*
X17088394Y57630226D02*
X17164585Y57558797D01*
X17164585Y57558797D02*
X17240775Y57415940D01*
X17240775Y57415940D02*
X17240775Y56844511D01*
X17926490Y58273083D02*
X18002680Y58487368D01*
X18002680Y58487368D02*
X18002680Y58844511D01*
X18002680Y58844511D02*
X17926490Y58987368D01*
X17926490Y58987368D02*
X17850299Y59058797D01*
X17850299Y59058797D02*
X17697918Y59130226D01*
X17697918Y59130226D02*
X17545537Y59130226D01*
X17545537Y59130226D02*
X17393156Y59058797D01*
X17393156Y59058797D02*
X17316966Y58987368D01*
X17316966Y58987368D02*
X17240775Y58844511D01*
X17240775Y58844511D02*
X17164585Y58558797D01*
X17164585Y58558797D02*
X17088394Y58415940D01*
X17088394Y58415940D02*
X17012204Y58344511D01*
X17012204Y58344511D02*
X16859823Y58273083D01*
X16859823Y58273083D02*
X16707442Y58273083D01*
X16707442Y58273083D02*
X16555061Y58344511D01*
X16555061Y58344511D02*
X16478870Y58415940D01*
X16478870Y58415940D02*
X16402680Y58558797D01*
X16402680Y58558797D02*
X16402680Y58915940D01*
X16402680Y58915940D02*
X16478870Y59130226D01*
X18002680Y60630225D02*
X17240775Y60130225D01*
X18002680Y59773082D02*
X16402680Y59773082D01*
X16402680Y59773082D02*
X16402680Y60344511D01*
X16402680Y60344511D02*
X16478870Y60487368D01*
X16478870Y60487368D02*
X16555061Y60558797D01*
X16555061Y60558797D02*
X16707442Y60630225D01*
X16707442Y60630225D02*
X16936013Y60630225D01*
X16936013Y60630225D02*
X17088394Y60558797D01*
X17088394Y60558797D02*
X17164585Y60487368D01*
X17164585Y60487368D02*
X17240775Y60344511D01*
X17240775Y60344511D02*
X17240775Y59773082D01*
X16402680Y61130225D02*
X18002680Y62130225D01*
X16402680Y62130225D02*
X18002680Y61130225D01*
X19054780Y56130226D02*
X18978590Y55987368D01*
X18978590Y55987368D02*
X18978590Y55773083D01*
X18978590Y55773083D02*
X19054780Y55558797D01*
X19054780Y55558797D02*
X19207161Y55415940D01*
X19207161Y55415940D02*
X19359542Y55344511D01*
X19359542Y55344511D02*
X19664304Y55273083D01*
X19664304Y55273083D02*
X19892876Y55273083D01*
X19892876Y55273083D02*
X20197638Y55344511D01*
X20197638Y55344511D02*
X20350019Y55415940D01*
X20350019Y55415940D02*
X20502400Y55558797D01*
X20502400Y55558797D02*
X20578590Y55773083D01*
X20578590Y55773083D02*
X20578590Y55915940D01*
X20578590Y55915940D02*
X20502400Y56130226D01*
X20502400Y56130226D02*
X20426209Y56201654D01*
X20426209Y56201654D02*
X19892876Y56201654D01*
X19892876Y56201654D02*
X19892876Y55915940D01*
X20578590Y56844511D02*
X18978590Y56844511D01*
X18978590Y56844511D02*
X18978590Y57415940D01*
X18978590Y57415940D02*
X19054780Y57558797D01*
X19054780Y57558797D02*
X19130971Y57630226D01*
X19130971Y57630226D02*
X19283352Y57701654D01*
X19283352Y57701654D02*
X19511923Y57701654D01*
X19511923Y57701654D02*
X19664304Y57630226D01*
X19664304Y57630226D02*
X19740495Y57558797D01*
X19740495Y57558797D02*
X19816685Y57415940D01*
X19816685Y57415940D02*
X19816685Y56844511D01*
X20502400Y58273083D02*
X20578590Y58487368D01*
X20578590Y58487368D02*
X20578590Y58844511D01*
X20578590Y58844511D02*
X20502400Y58987368D01*
X20502400Y58987368D02*
X20426209Y59058797D01*
X20426209Y59058797D02*
X20273828Y59130226D01*
X20273828Y59130226D02*
X20121447Y59130226D01*
X20121447Y59130226D02*
X19969066Y59058797D01*
X19969066Y59058797D02*
X19892876Y58987368D01*
X19892876Y58987368D02*
X19816685Y58844511D01*
X19816685Y58844511D02*
X19740495Y58558797D01*
X19740495Y58558797D02*
X19664304Y58415940D01*
X19664304Y58415940D02*
X19588114Y58344511D01*
X19588114Y58344511D02*
X19435733Y58273083D01*
X19435733Y58273083D02*
X19283352Y58273083D01*
X19283352Y58273083D02*
X19130971Y58344511D01*
X19130971Y58344511D02*
X19054780Y58415940D01*
X19054780Y58415940D02*
X18978590Y58558797D01*
X18978590Y58558797D02*
X18978590Y58915940D01*
X18978590Y58915940D02*
X19054780Y59130226D01*
X18978590Y59558797D02*
X18978590Y60415939D01*
X20578590Y59987368D02*
X18978590Y59987368D01*
X18978590Y60773082D02*
X20578590Y61773082D01*
X18978590Y61773082D02*
X20578590Y60773082D01*
D10*
X97858207Y31380181D02*
X97524874Y31856372D01*
X97286779Y31380181D02*
X97286779Y32380181D01*
X97286779Y32380181D02*
X97667731Y32380181D01*
X97667731Y32380181D02*
X97762969Y32332562D01*
X97762969Y32332562D02*
X97810588Y32284943D01*
X97810588Y32284943D02*
X97858207Y32189705D01*
X97858207Y32189705D02*
X97858207Y32046848D01*
X97858207Y32046848D02*
X97810588Y31951610D01*
X97810588Y31951610D02*
X97762969Y31903991D01*
X97762969Y31903991D02*
X97667731Y31856372D01*
X97667731Y31856372D02*
X97286779Y31856372D01*
X98239160Y31427800D02*
X98382017Y31380181D01*
X98382017Y31380181D02*
X98620112Y31380181D01*
X98620112Y31380181D02*
X98715350Y31427800D01*
X98715350Y31427800D02*
X98762969Y31475420D01*
X98762969Y31475420D02*
X98810588Y31570658D01*
X98810588Y31570658D02*
X98810588Y31665896D01*
X98810588Y31665896D02*
X98762969Y31761134D01*
X98762969Y31761134D02*
X98715350Y31808753D01*
X98715350Y31808753D02*
X98620112Y31856372D01*
X98620112Y31856372D02*
X98429636Y31903991D01*
X98429636Y31903991D02*
X98334398Y31951610D01*
X98334398Y31951610D02*
X98286779Y31999229D01*
X98286779Y31999229D02*
X98239160Y32094467D01*
X98239160Y32094467D02*
X98239160Y32189705D01*
X98239160Y32189705D02*
X98286779Y32284943D01*
X98286779Y32284943D02*
X98334398Y32332562D01*
X98334398Y32332562D02*
X98429636Y32380181D01*
X98429636Y32380181D02*
X98667731Y32380181D01*
X98667731Y32380181D02*
X98810588Y32332562D01*
X99096303Y32380181D02*
X99667731Y32380181D01*
X99382017Y31380181D02*
X99382017Y32380181D01*
D11*
X97325939Y40315172D02*
X98159272Y38815172D01*
X98159272Y40315172D02*
X97325939Y38815172D01*
X98635463Y39386600D02*
X99587844Y39386600D01*
X99111653Y38815172D02*
X99111653Y39958029D01*
D10*
X97286779Y23760181D02*
X97286779Y24760181D01*
X97286779Y24760181D02*
X97620112Y24045896D01*
X97620112Y24045896D02*
X97953445Y24760181D01*
X97953445Y24760181D02*
X97953445Y23760181D01*
X98382017Y23807800D02*
X98524874Y23760181D01*
X98524874Y23760181D02*
X98762969Y23760181D01*
X98762969Y23760181D02*
X98858207Y23807800D01*
X98858207Y23807800D02*
X98905826Y23855420D01*
X98905826Y23855420D02*
X98953445Y23950658D01*
X98953445Y23950658D02*
X98953445Y24045896D01*
X98953445Y24045896D02*
X98905826Y24141134D01*
X98905826Y24141134D02*
X98858207Y24188753D01*
X98858207Y24188753D02*
X98762969Y24236372D01*
X98762969Y24236372D02*
X98572493Y24283991D01*
X98572493Y24283991D02*
X98477255Y24331610D01*
X98477255Y24331610D02*
X98429636Y24379229D01*
X98429636Y24379229D02*
X98382017Y24474467D01*
X98382017Y24474467D02*
X98382017Y24569705D01*
X98382017Y24569705D02*
X98429636Y24664943D01*
X98429636Y24664943D02*
X98477255Y24712562D01*
X98477255Y24712562D02*
X98572493Y24760181D01*
X98572493Y24760181D02*
X98810588Y24760181D01*
X98810588Y24760181D02*
X98953445Y24712562D01*
X99382017Y23760181D02*
X99382017Y24760181D01*
X31350588Y19820181D02*
X30779160Y19820181D01*
X31064874Y19820181D02*
X31064874Y20820181D01*
X31064874Y20820181D02*
X30969636Y20677324D01*
X30969636Y20677324D02*
X30874398Y20582086D01*
X30874398Y20582086D02*
X30779160Y20534467D01*
X97286779Y13981134D02*
X98048684Y13981134D01*
X97667731Y13600181D02*
X97667731Y14362086D01*
X99001064Y14600181D02*
X98524874Y14600181D01*
X98524874Y14600181D02*
X98477255Y14123991D01*
X98477255Y14123991D02*
X98524874Y14171610D01*
X98524874Y14171610D02*
X98620112Y14219229D01*
X98620112Y14219229D02*
X98858207Y14219229D01*
X98858207Y14219229D02*
X98953445Y14171610D01*
X98953445Y14171610D02*
X99001064Y14123991D01*
X99001064Y14123991D02*
X99048683Y14028753D01*
X99048683Y14028753D02*
X99048683Y13790658D01*
X99048683Y13790658D02*
X99001064Y13695420D01*
X99001064Y13695420D02*
X98953445Y13647800D01*
X98953445Y13647800D02*
X98858207Y13600181D01*
X98858207Y13600181D02*
X98620112Y13600181D01*
X98620112Y13600181D02*
X98524874Y13647800D01*
X98524874Y13647800D02*
X98477255Y13695420D01*
X97262969Y18680181D02*
X97262969Y19680181D01*
X97262969Y19680181D02*
X97477255Y19680181D01*
X97477255Y19680181D02*
X97605826Y19632562D01*
X97605826Y19632562D02*
X97691541Y19537324D01*
X97691541Y19537324D02*
X97734398Y19442086D01*
X97734398Y19442086D02*
X97777255Y19251610D01*
X97777255Y19251610D02*
X97777255Y19108753D01*
X97777255Y19108753D02*
X97734398Y18918277D01*
X97734398Y18918277D02*
X97691541Y18823039D01*
X97691541Y18823039D02*
X97605826Y18727800D01*
X97605826Y18727800D02*
X97477255Y18680181D01*
X97477255Y18680181D02*
X97262969Y18680181D01*
X98677255Y18775420D02*
X98634398Y18727800D01*
X98634398Y18727800D02*
X98505826Y18680181D01*
X98505826Y18680181D02*
X98420112Y18680181D01*
X98420112Y18680181D02*
X98291541Y18727800D01*
X98291541Y18727800D02*
X98205826Y18823039D01*
X98205826Y18823039D02*
X98162969Y18918277D01*
X98162969Y18918277D02*
X98120112Y19108753D01*
X98120112Y19108753D02*
X98120112Y19251610D01*
X98120112Y19251610D02*
X98162969Y19442086D01*
X98162969Y19442086D02*
X98205826Y19537324D01*
X98205826Y19537324D02*
X98291541Y19632562D01*
X98291541Y19632562D02*
X98420112Y19680181D01*
X98420112Y19680181D02*
X98505826Y19680181D01*
X98505826Y19680181D02*
X98634398Y19632562D01*
X98634398Y19632562D02*
X98677255Y19584943D01*
X99062969Y18680181D02*
X99062969Y19680181D01*
X99577255Y18680181D02*
X99191541Y19251610D01*
X99577255Y19680181D02*
X99062969Y19108753D01*
X97734398Y12012562D02*
X97648684Y12060181D01*
X97648684Y12060181D02*
X97520112Y12060181D01*
X97520112Y12060181D02*
X97391541Y12012562D01*
X97391541Y12012562D02*
X97305826Y11917324D01*
X97305826Y11917324D02*
X97262969Y11822086D01*
X97262969Y11822086D02*
X97220112Y11631610D01*
X97220112Y11631610D02*
X97220112Y11488753D01*
X97220112Y11488753D02*
X97262969Y11298277D01*
X97262969Y11298277D02*
X97305826Y11203039D01*
X97305826Y11203039D02*
X97391541Y11107800D01*
X97391541Y11107800D02*
X97520112Y11060181D01*
X97520112Y11060181D02*
X97605826Y11060181D01*
X97605826Y11060181D02*
X97734398Y11107800D01*
X97734398Y11107800D02*
X97777255Y11155420D01*
X97777255Y11155420D02*
X97777255Y11488753D01*
X97777255Y11488753D02*
X97605826Y11488753D01*
X98162969Y11060181D02*
X98162969Y12060181D01*
X98162969Y12060181D02*
X98677255Y11060181D01*
X98677255Y11060181D02*
X98677255Y12060181D01*
X99105826Y11060181D02*
X99105826Y12060181D01*
X99105826Y12060181D02*
X99320112Y12060181D01*
X99320112Y12060181D02*
X99448683Y12012562D01*
X99448683Y12012562D02*
X99534398Y11917324D01*
X99534398Y11917324D02*
X99577255Y11822086D01*
X99577255Y11822086D02*
X99620112Y11631610D01*
X99620112Y11631610D02*
X99620112Y11488753D01*
X99620112Y11488753D02*
X99577255Y11298277D01*
X99577255Y11298277D02*
X99534398Y11203039D01*
X99534398Y11203039D02*
X99448683Y11107800D01*
X99448683Y11107800D02*
X99320112Y11060181D01*
X99320112Y11060181D02*
X99105826Y11060181D01*
D11*
X97704510Y36735458D02*
X97704510Y36021172D01*
X97271177Y37521172D02*
X97704510Y36735458D01*
X97704510Y36735458D02*
X98137844Y37521172D01*
X98571177Y36592600D02*
X99561654Y36592600D01*
X99066415Y36021172D02*
X99066415Y37164029D01*
D10*
X97191541Y17140181D02*
X97810588Y17140181D01*
X97810588Y17140181D02*
X97477255Y16759229D01*
X97477255Y16759229D02*
X97620112Y16759229D01*
X97620112Y16759229D02*
X97715350Y16711610D01*
X97715350Y16711610D02*
X97762969Y16663991D01*
X97762969Y16663991D02*
X97810588Y16568753D01*
X97810588Y16568753D02*
X97810588Y16330658D01*
X97810588Y16330658D02*
X97762969Y16235420D01*
X97762969Y16235420D02*
X97715350Y16187800D01*
X97715350Y16187800D02*
X97620112Y16140181D01*
X97620112Y16140181D02*
X97334398Y16140181D01*
X97334398Y16140181D02*
X97239160Y16187800D01*
X97239160Y16187800D02*
X97191541Y16235420D01*
X98096303Y17140181D02*
X98429636Y16140181D01*
X98429636Y16140181D02*
X98762969Y17140181D01*
D11*
X97325939Y45141172D02*
X98159272Y43641172D01*
X98159272Y45141172D02*
X97325939Y43641172D01*
X98635463Y44212600D02*
X99587844Y44212600D01*
D10*
X46444286Y5645181D02*
X47015714Y5645181D01*
X46730000Y4645181D02*
X46730000Y5645181D01*
X47349048Y4645181D02*
X47349048Y5645181D01*
X47349048Y5645181D02*
X47920476Y4645181D01*
X47920476Y4645181D02*
X47920476Y5645181D01*
X48920476Y4645181D02*
X48349048Y4645181D01*
X48634762Y4645181D02*
X48634762Y5645181D01*
X48634762Y5645181D02*
X48539524Y5502324D01*
X48539524Y5502324D02*
X48444286Y5407086D01*
X48444286Y5407086D02*
X48349048Y5359467D01*
X41386190Y37727705D02*
X41386190Y38527705D01*
X41386190Y38527705D02*
X41652856Y37956277D01*
X41652856Y37956277D02*
X41919523Y38527705D01*
X41919523Y38527705D02*
X41919523Y37727705D01*
X42300476Y37727705D02*
X42300476Y38527705D01*
X42681428Y37727705D02*
X42681428Y38527705D01*
X42681428Y38527705D02*
X42948094Y37956277D01*
X42948094Y37956277D02*
X43214761Y38527705D01*
X43214761Y38527705D02*
X43214761Y37727705D01*
X43519523Y38527705D02*
X44052857Y37727705D01*
X44052857Y38527705D02*
X43519523Y37727705D01*
X44814762Y37727705D02*
X44548095Y38108658D01*
X44357619Y37727705D02*
X44357619Y38527705D01*
X44357619Y38527705D02*
X44662381Y38527705D01*
X44662381Y38527705D02*
X44738571Y38489610D01*
X44738571Y38489610D02*
X44776666Y38451515D01*
X44776666Y38451515D02*
X44814762Y38375324D01*
X44814762Y38375324D02*
X44814762Y38261039D01*
X44814762Y38261039D02*
X44776666Y38184848D01*
X44776666Y38184848D02*
X44738571Y38146753D01*
X44738571Y38146753D02*
X44662381Y38108658D01*
X44662381Y38108658D02*
X44357619Y38108658D01*
X45043333Y38527705D02*
X45500476Y38527705D01*
X45271904Y37727705D02*
X45271904Y38527705D01*
X46186190Y37727705D02*
X45729047Y37727705D01*
X45957619Y37727705D02*
X45957619Y38527705D01*
X45957619Y38527705D02*
X45881428Y38413420D01*
X45881428Y38413420D02*
X45805238Y38337229D01*
X45805238Y38337229D02*
X45729047Y38299134D01*
X46681429Y38527705D02*
X46757619Y38527705D01*
X46757619Y38527705D02*
X46833810Y38489610D01*
X46833810Y38489610D02*
X46871905Y38451515D01*
X46871905Y38451515D02*
X46910000Y38375324D01*
X46910000Y38375324D02*
X46948095Y38222943D01*
X46948095Y38222943D02*
X46948095Y38032467D01*
X46948095Y38032467D02*
X46910000Y37880086D01*
X46910000Y37880086D02*
X46871905Y37803896D01*
X46871905Y37803896D02*
X46833810Y37765800D01*
X46833810Y37765800D02*
X46757619Y37727705D01*
X46757619Y37727705D02*
X46681429Y37727705D01*
X46681429Y37727705D02*
X46605238Y37765800D01*
X46605238Y37765800D02*
X46567143Y37803896D01*
X46567143Y37803896D02*
X46529048Y37880086D01*
X46529048Y37880086D02*
X46490952Y38032467D01*
X46490952Y38032467D02*
X46490952Y38222943D01*
X46490952Y38222943D02*
X46529048Y38375324D01*
X46529048Y38375324D02*
X46567143Y38451515D01*
X46567143Y38451515D02*
X46605238Y38489610D01*
X46605238Y38489610D02*
X46681429Y38527705D01*
X47633810Y38527705D02*
X47481429Y38527705D01*
X47481429Y38527705D02*
X47405238Y38489610D01*
X47405238Y38489610D02*
X47367143Y38451515D01*
X47367143Y38451515D02*
X47290953Y38337229D01*
X47290953Y38337229D02*
X47252857Y38184848D01*
X47252857Y38184848D02*
X47252857Y37880086D01*
X47252857Y37880086D02*
X47290953Y37803896D01*
X47290953Y37803896D02*
X47329048Y37765800D01*
X47329048Y37765800D02*
X47405238Y37727705D01*
X47405238Y37727705D02*
X47557619Y37727705D01*
X47557619Y37727705D02*
X47633810Y37765800D01*
X47633810Y37765800D02*
X47671905Y37803896D01*
X47671905Y37803896D02*
X47710000Y37880086D01*
X47710000Y37880086D02*
X47710000Y38070562D01*
X47710000Y38070562D02*
X47671905Y38146753D01*
X47671905Y38146753D02*
X47633810Y38184848D01*
X47633810Y38184848D02*
X47557619Y38222943D01*
X47557619Y38222943D02*
X47405238Y38222943D01*
X47405238Y38222943D02*
X47329048Y38184848D01*
X47329048Y38184848D02*
X47290953Y38146753D01*
X47290953Y38146753D02*
X47252857Y38070562D01*
X48014762Y38451515D02*
X48052858Y38489610D01*
X48052858Y38489610D02*
X48129048Y38527705D01*
X48129048Y38527705D02*
X48319524Y38527705D01*
X48319524Y38527705D02*
X48395715Y38489610D01*
X48395715Y38489610D02*
X48433810Y38451515D01*
X48433810Y38451515D02*
X48471905Y38375324D01*
X48471905Y38375324D02*
X48471905Y38299134D01*
X48471905Y38299134D02*
X48433810Y38184848D01*
X48433810Y38184848D02*
X47976667Y37727705D01*
X47976667Y37727705D02*
X48471905Y37727705D01*
X43648095Y64035181D02*
X43648095Y63225658D01*
X43648095Y63225658D02*
X43695714Y63130420D01*
X43695714Y63130420D02*
X43743333Y63082800D01*
X43743333Y63082800D02*
X43838571Y63035181D01*
X43838571Y63035181D02*
X44029047Y63035181D01*
X44029047Y63035181D02*
X44124285Y63082800D01*
X44124285Y63082800D02*
X44171904Y63130420D01*
X44171904Y63130420D02*
X44219523Y63225658D01*
X44219523Y63225658D02*
X44219523Y64035181D01*
X44648095Y63082800D02*
X44790952Y63035181D01*
X44790952Y63035181D02*
X45029047Y63035181D01*
X45029047Y63035181D02*
X45124285Y63082800D01*
X45124285Y63082800D02*
X45171904Y63130420D01*
X45171904Y63130420D02*
X45219523Y63225658D01*
X45219523Y63225658D02*
X45219523Y63320896D01*
X45219523Y63320896D02*
X45171904Y63416134D01*
X45171904Y63416134D02*
X45124285Y63463753D01*
X45124285Y63463753D02*
X45029047Y63511372D01*
X45029047Y63511372D02*
X44838571Y63558991D01*
X44838571Y63558991D02*
X44743333Y63606610D01*
X44743333Y63606610D02*
X44695714Y63654229D01*
X44695714Y63654229D02*
X44648095Y63749467D01*
X44648095Y63749467D02*
X44648095Y63844705D01*
X44648095Y63844705D02*
X44695714Y63939943D01*
X44695714Y63939943D02*
X44743333Y63987562D01*
X44743333Y63987562D02*
X44838571Y64035181D01*
X44838571Y64035181D02*
X45076666Y64035181D01*
X45076666Y64035181D02*
X45219523Y63987562D01*
X45981428Y63558991D02*
X46124285Y63511372D01*
X46124285Y63511372D02*
X46171904Y63463753D01*
X46171904Y63463753D02*
X46219523Y63368515D01*
X46219523Y63368515D02*
X46219523Y63225658D01*
X46219523Y63225658D02*
X46171904Y63130420D01*
X46171904Y63130420D02*
X46124285Y63082800D01*
X46124285Y63082800D02*
X46029047Y63035181D01*
X46029047Y63035181D02*
X45648095Y63035181D01*
X45648095Y63035181D02*
X45648095Y64035181D01*
X45648095Y64035181D02*
X45981428Y64035181D01*
X45981428Y64035181D02*
X46076666Y63987562D01*
X46076666Y63987562D02*
X46124285Y63939943D01*
X46124285Y63939943D02*
X46171904Y63844705D01*
X46171904Y63844705D02*
X46171904Y63749467D01*
X46171904Y63749467D02*
X46124285Y63654229D01*
X46124285Y63654229D02*
X46076666Y63606610D01*
X46076666Y63606610D02*
X45981428Y63558991D01*
X45981428Y63558991D02*
X45648095Y63558991D01*
X45364819Y9570953D02*
X44364819Y9570953D01*
X44364819Y9570953D02*
X45079104Y9904286D01*
X45079104Y9904286D02*
X44364819Y10237619D01*
X44364819Y10237619D02*
X45364819Y10237619D01*
X45364819Y10713810D02*
X44698152Y10713810D01*
X44364819Y10713810D02*
X44412438Y10666191D01*
X44412438Y10666191D02*
X44460057Y10713810D01*
X44460057Y10713810D02*
X44412438Y10761429D01*
X44412438Y10761429D02*
X44364819Y10713810D01*
X44364819Y10713810D02*
X44460057Y10713810D01*
X45317200Y11618571D02*
X45364819Y11523333D01*
X45364819Y11523333D02*
X45364819Y11332857D01*
X45364819Y11332857D02*
X45317200Y11237619D01*
X45317200Y11237619D02*
X45269580Y11190000D01*
X45269580Y11190000D02*
X45174342Y11142381D01*
X45174342Y11142381D02*
X44888628Y11142381D01*
X44888628Y11142381D02*
X44793390Y11190000D01*
X44793390Y11190000D02*
X44745771Y11237619D01*
X44745771Y11237619D02*
X44698152Y11332857D01*
X44698152Y11332857D02*
X44698152Y11523333D01*
X44698152Y11523333D02*
X44745771Y11618571D01*
X45364819Y12047143D02*
X44698152Y12047143D01*
X44888628Y12047143D02*
X44793390Y12094762D01*
X44793390Y12094762D02*
X44745771Y12142381D01*
X44745771Y12142381D02*
X44698152Y12237619D01*
X44698152Y12237619D02*
X44698152Y12332857D01*
X45364819Y12809048D02*
X45317200Y12713810D01*
X45317200Y12713810D02*
X45269580Y12666191D01*
X45269580Y12666191D02*
X45174342Y12618572D01*
X45174342Y12618572D02*
X44888628Y12618572D01*
X44888628Y12618572D02*
X44793390Y12666191D01*
X44793390Y12666191D02*
X44745771Y12713810D01*
X44745771Y12713810D02*
X44698152Y12809048D01*
X44698152Y12809048D02*
X44698152Y12951905D01*
X44698152Y12951905D02*
X44745771Y13047143D01*
X44745771Y13047143D02*
X44793390Y13094762D01*
X44793390Y13094762D02*
X44888628Y13142381D01*
X44888628Y13142381D02*
X45174342Y13142381D01*
X45174342Y13142381D02*
X45269580Y13094762D01*
X45269580Y13094762D02*
X45317200Y13047143D01*
X45317200Y13047143D02*
X45364819Y12951905D01*
X45364819Y12951905D02*
X45364819Y12809048D01*
X45317200Y14285239D02*
X45364819Y14428096D01*
X45364819Y14428096D02*
X45364819Y14666191D01*
X45364819Y14666191D02*
X45317200Y14761429D01*
X45317200Y14761429D02*
X45269580Y14809048D01*
X45269580Y14809048D02*
X45174342Y14856667D01*
X45174342Y14856667D02*
X45079104Y14856667D01*
X45079104Y14856667D02*
X44983866Y14809048D01*
X44983866Y14809048D02*
X44936247Y14761429D01*
X44936247Y14761429D02*
X44888628Y14666191D01*
X44888628Y14666191D02*
X44841009Y14475715D01*
X44841009Y14475715D02*
X44793390Y14380477D01*
X44793390Y14380477D02*
X44745771Y14332858D01*
X44745771Y14332858D02*
X44650533Y14285239D01*
X44650533Y14285239D02*
X44555295Y14285239D01*
X44555295Y14285239D02*
X44460057Y14332858D01*
X44460057Y14332858D02*
X44412438Y14380477D01*
X44412438Y14380477D02*
X44364819Y14475715D01*
X44364819Y14475715D02*
X44364819Y14713810D01*
X44364819Y14713810D02*
X44412438Y14856667D01*
X45364819Y15285239D02*
X44364819Y15285239D01*
X44364819Y15285239D02*
X44364819Y15523334D01*
X44364819Y15523334D02*
X44412438Y15666191D01*
X44412438Y15666191D02*
X44507676Y15761429D01*
X44507676Y15761429D02*
X44602914Y15809048D01*
X44602914Y15809048D02*
X44793390Y15856667D01*
X44793390Y15856667D02*
X44936247Y15856667D01*
X44936247Y15856667D02*
X45126723Y15809048D01*
X45126723Y15809048D02*
X45221961Y15761429D01*
X45221961Y15761429D02*
X45317200Y15666191D01*
X45317200Y15666191D02*
X45364819Y15523334D01*
X45364819Y15523334D02*
X45364819Y15285239D01*
X43509048Y38997705D02*
X43509048Y39797705D01*
X43509048Y39797705D02*
X43699524Y39797705D01*
X43699524Y39797705D02*
X43813810Y39759610D01*
X43813810Y39759610D02*
X43890000Y39683420D01*
X43890000Y39683420D02*
X43928095Y39607229D01*
X43928095Y39607229D02*
X43966191Y39454848D01*
X43966191Y39454848D02*
X43966191Y39340562D01*
X43966191Y39340562D02*
X43928095Y39188181D01*
X43928095Y39188181D02*
X43890000Y39111991D01*
X43890000Y39111991D02*
X43813810Y39035800D01*
X43813810Y39035800D02*
X43699524Y38997705D01*
X43699524Y38997705D02*
X43509048Y38997705D01*
X44194762Y39797705D02*
X44461429Y38997705D01*
X44461429Y38997705D02*
X44728095Y39797705D01*
X45223333Y39797705D02*
X45223333Y39226277D01*
X45223333Y39226277D02*
X45185238Y39111991D01*
X45185238Y39111991D02*
X45109047Y39035800D01*
X45109047Y39035800D02*
X44994762Y38997705D01*
X44994762Y38997705D02*
X44918571Y38997705D01*
X45947143Y39797705D02*
X45794762Y39797705D01*
X45794762Y39797705D02*
X45718571Y39759610D01*
X45718571Y39759610D02*
X45680476Y39721515D01*
X45680476Y39721515D02*
X45604286Y39607229D01*
X45604286Y39607229D02*
X45566190Y39454848D01*
X45566190Y39454848D02*
X45566190Y39150086D01*
X45566190Y39150086D02*
X45604286Y39073896D01*
X45604286Y39073896D02*
X45642381Y39035800D01*
X45642381Y39035800D02*
X45718571Y38997705D01*
X45718571Y38997705D02*
X45870952Y38997705D01*
X45870952Y38997705D02*
X45947143Y39035800D01*
X45947143Y39035800D02*
X45985238Y39073896D01*
X45985238Y39073896D02*
X46023333Y39150086D01*
X46023333Y39150086D02*
X46023333Y39340562D01*
X46023333Y39340562D02*
X45985238Y39416753D01*
X45985238Y39416753D02*
X45947143Y39454848D01*
X45947143Y39454848D02*
X45870952Y39492943D01*
X45870952Y39492943D02*
X45718571Y39492943D01*
X45718571Y39492943D02*
X45642381Y39454848D01*
X45642381Y39454848D02*
X45604286Y39416753D01*
X45604286Y39416753D02*
X45566190Y39340562D01*
X46328095Y39226277D02*
X46709048Y39226277D01*
X46251905Y38997705D02*
X46518572Y39797705D01*
X46518572Y39797705D02*
X46785238Y38997705D01*
X45329456Y48953991D02*
X45662789Y48953991D01*
X45805646Y48430181D02*
X45329456Y48430181D01*
X45329456Y48430181D02*
X45329456Y49430181D01*
X45329456Y49430181D02*
X45805646Y49430181D01*
X46091361Y49096848D02*
X46472313Y49096848D01*
X46234218Y49430181D02*
X46234218Y48573039D01*
X46234218Y48573039D02*
X46281837Y48477800D01*
X46281837Y48477800D02*
X46377075Y48430181D01*
X46377075Y48430181D02*
X46472313Y48430181D01*
X46805647Y48430181D02*
X46805647Y49430181D01*
X47234218Y48430181D02*
X47234218Y48953991D01*
X47234218Y48953991D02*
X47186599Y49049229D01*
X47186599Y49049229D02*
X47091361Y49096848D01*
X47091361Y49096848D02*
X46948504Y49096848D01*
X46948504Y49096848D02*
X46853266Y49049229D01*
X46853266Y49049229D02*
X46805647Y49001610D01*
X48091361Y48477800D02*
X47996123Y48430181D01*
X47996123Y48430181D02*
X47805647Y48430181D01*
X47805647Y48430181D02*
X47710409Y48477800D01*
X47710409Y48477800D02*
X47662790Y48573039D01*
X47662790Y48573039D02*
X47662790Y48953991D01*
X47662790Y48953991D02*
X47710409Y49049229D01*
X47710409Y49049229D02*
X47805647Y49096848D01*
X47805647Y49096848D02*
X47996123Y49096848D01*
X47996123Y49096848D02*
X48091361Y49049229D01*
X48091361Y49049229D02*
X48138980Y48953991D01*
X48138980Y48953991D02*
X48138980Y48858753D01*
X48138980Y48858753D02*
X47662790Y48763515D01*
X48567552Y48430181D02*
X48567552Y49096848D01*
X48567552Y48906372D02*
X48615171Y49001610D01*
X48615171Y49001610D02*
X48662790Y49049229D01*
X48662790Y49049229D02*
X48758028Y49096848D01*
X48758028Y49096848D02*
X48853266Y49096848D01*
X49186600Y49096848D02*
X49186600Y48430181D01*
X49186600Y49001610D02*
X49234219Y49049229D01*
X49234219Y49049229D02*
X49329457Y49096848D01*
X49329457Y49096848D02*
X49472314Y49096848D01*
X49472314Y49096848D02*
X49567552Y49049229D01*
X49567552Y49049229D02*
X49615171Y48953991D01*
X49615171Y48953991D02*
X49615171Y48430181D01*
X50472314Y48477800D02*
X50377076Y48430181D01*
X50377076Y48430181D02*
X50186600Y48430181D01*
X50186600Y48430181D02*
X50091362Y48477800D01*
X50091362Y48477800D02*
X50043743Y48573039D01*
X50043743Y48573039D02*
X50043743Y48953991D01*
X50043743Y48953991D02*
X50091362Y49049229D01*
X50091362Y49049229D02*
X50186600Y49096848D01*
X50186600Y49096848D02*
X50377076Y49096848D01*
X50377076Y49096848D02*
X50472314Y49049229D01*
X50472314Y49049229D02*
X50519933Y48953991D01*
X50519933Y48953991D02*
X50519933Y48858753D01*
X50519933Y48858753D02*
X50043743Y48763515D01*
X50805648Y49096848D02*
X51186600Y49096848D01*
X50948505Y49430181D02*
X50948505Y48573039D01*
X50948505Y48573039D02*
X50996124Y48477800D01*
X50996124Y48477800D02*
X51091362Y48430181D01*
X51091362Y48430181D02*
X51186600Y48430181D01*
X41875619Y51976277D02*
X42685142Y51976277D01*
X42685142Y51976277D02*
X42780380Y52023896D01*
X42780380Y52023896D02*
X42828000Y52071515D01*
X42828000Y52071515D02*
X42875619Y52166753D01*
X42875619Y52166753D02*
X42875619Y52357229D01*
X42875619Y52357229D02*
X42828000Y52452467D01*
X42828000Y52452467D02*
X42780380Y52500086D01*
X42780380Y52500086D02*
X42685142Y52547705D01*
X42685142Y52547705D02*
X41875619Y52547705D01*
X42828000Y52976277D02*
X42875619Y53119134D01*
X42875619Y53119134D02*
X42875619Y53357229D01*
X42875619Y53357229D02*
X42828000Y53452467D01*
X42828000Y53452467D02*
X42780380Y53500086D01*
X42780380Y53500086D02*
X42685142Y53547705D01*
X42685142Y53547705D02*
X42589904Y53547705D01*
X42589904Y53547705D02*
X42494666Y53500086D01*
X42494666Y53500086D02*
X42447047Y53452467D01*
X42447047Y53452467D02*
X42399428Y53357229D01*
X42399428Y53357229D02*
X42351809Y53166753D01*
X42351809Y53166753D02*
X42304190Y53071515D01*
X42304190Y53071515D02*
X42256571Y53023896D01*
X42256571Y53023896D02*
X42161333Y52976277D01*
X42161333Y52976277D02*
X42066095Y52976277D01*
X42066095Y52976277D02*
X41970857Y53023896D01*
X41970857Y53023896D02*
X41923238Y53071515D01*
X41923238Y53071515D02*
X41875619Y53166753D01*
X41875619Y53166753D02*
X41875619Y53404848D01*
X41875619Y53404848D02*
X41923238Y53547705D01*
X42351809Y54309610D02*
X42399428Y54452467D01*
X42399428Y54452467D02*
X42447047Y54500086D01*
X42447047Y54500086D02*
X42542285Y54547705D01*
X42542285Y54547705D02*
X42685142Y54547705D01*
X42685142Y54547705D02*
X42780380Y54500086D01*
X42780380Y54500086D02*
X42828000Y54452467D01*
X42828000Y54452467D02*
X42875619Y54357229D01*
X42875619Y54357229D02*
X42875619Y53976277D01*
X42875619Y53976277D02*
X41875619Y53976277D01*
X41875619Y53976277D02*
X41875619Y54309610D01*
X41875619Y54309610D02*
X41923238Y54404848D01*
X41923238Y54404848D02*
X41970857Y54452467D01*
X41970857Y54452467D02*
X42066095Y54500086D01*
X42066095Y54500086D02*
X42161333Y54500086D01*
X42161333Y54500086D02*
X42256571Y54452467D01*
X42256571Y54452467D02*
X42304190Y54404848D01*
X42304190Y54404848D02*
X42351809Y54309610D01*
X42351809Y54309610D02*
X42351809Y53976277D01*
X42875619Y55738182D02*
X41875619Y55738182D01*
X42351809Y55738182D02*
X42351809Y56309610D01*
X42875619Y56309610D02*
X41875619Y56309610D01*
X42875619Y56928658D02*
X42828000Y56833420D01*
X42828000Y56833420D02*
X42780380Y56785801D01*
X42780380Y56785801D02*
X42685142Y56738182D01*
X42685142Y56738182D02*
X42399428Y56738182D01*
X42399428Y56738182D02*
X42304190Y56785801D01*
X42304190Y56785801D02*
X42256571Y56833420D01*
X42256571Y56833420D02*
X42208952Y56928658D01*
X42208952Y56928658D02*
X42208952Y57071515D01*
X42208952Y57071515D02*
X42256571Y57166753D01*
X42256571Y57166753D02*
X42304190Y57214372D01*
X42304190Y57214372D02*
X42399428Y57261991D01*
X42399428Y57261991D02*
X42685142Y57261991D01*
X42685142Y57261991D02*
X42780380Y57214372D01*
X42780380Y57214372D02*
X42828000Y57166753D01*
X42828000Y57166753D02*
X42875619Y57071515D01*
X42875619Y57071515D02*
X42875619Y56928658D01*
X42828000Y57642944D02*
X42875619Y57738182D01*
X42875619Y57738182D02*
X42875619Y57928658D01*
X42875619Y57928658D02*
X42828000Y58023896D01*
X42828000Y58023896D02*
X42732761Y58071515D01*
X42732761Y58071515D02*
X42685142Y58071515D01*
X42685142Y58071515D02*
X42589904Y58023896D01*
X42589904Y58023896D02*
X42542285Y57928658D01*
X42542285Y57928658D02*
X42542285Y57785801D01*
X42542285Y57785801D02*
X42494666Y57690563D01*
X42494666Y57690563D02*
X42399428Y57642944D01*
X42399428Y57642944D02*
X42351809Y57642944D01*
X42351809Y57642944D02*
X42256571Y57690563D01*
X42256571Y57690563D02*
X42208952Y57785801D01*
X42208952Y57785801D02*
X42208952Y57928658D01*
X42208952Y57928658D02*
X42256571Y58023896D01*
X42208952Y58357230D02*
X42208952Y58738182D01*
X41875619Y58500087D02*
X42732761Y58500087D01*
X42732761Y58500087D02*
X42828000Y58547706D01*
X42828000Y58547706D02*
X42875619Y58642944D01*
X42875619Y58642944D02*
X42875619Y58738182D01*
X12708095Y54265181D02*
X13279523Y54265181D01*
X12993809Y53265181D02*
X12993809Y54265181D01*
X13612857Y53265181D02*
X13612857Y54265181D01*
X13612857Y54265181D02*
X13993809Y54265181D01*
X13993809Y54265181D02*
X14089047Y54217562D01*
X14089047Y54217562D02*
X14136666Y54169943D01*
X14136666Y54169943D02*
X14184285Y54074705D01*
X14184285Y54074705D02*
X14184285Y53931848D01*
X14184285Y53931848D02*
X14136666Y53836610D01*
X14136666Y53836610D02*
X14089047Y53788991D01*
X14089047Y53788991D02*
X13993809Y53741372D01*
X13993809Y53741372D02*
X13612857Y53741372D01*
X15136666Y53265181D02*
X14565238Y53265181D01*
X14850952Y53265181D02*
X14850952Y54265181D01*
X14850952Y54265181D02*
X14755714Y54122324D01*
X14755714Y54122324D02*
X14660476Y54027086D01*
X14660476Y54027086D02*
X14565238Y53979467D01*
X71064819Y53093334D02*
X70588628Y52760001D01*
X71064819Y52521906D02*
X70064819Y52521906D01*
X70064819Y52521906D02*
X70064819Y52902858D01*
X70064819Y52902858D02*
X70112438Y52998096D01*
X70112438Y52998096D02*
X70160057Y53045715D01*
X70160057Y53045715D02*
X70255295Y53093334D01*
X70255295Y53093334D02*
X70398152Y53093334D01*
X70398152Y53093334D02*
X70493390Y53045715D01*
X70493390Y53045715D02*
X70541009Y52998096D01*
X70541009Y52998096D02*
X70588628Y52902858D01*
X70588628Y52902858D02*
X70588628Y52521906D01*
X71064819Y54045715D02*
X71064819Y53474287D01*
X71064819Y53760001D02*
X70064819Y53760001D01*
X70064819Y53760001D02*
X70207676Y53664763D01*
X70207676Y53664763D02*
X70302914Y53569525D01*
X70302914Y53569525D02*
X70350533Y53474287D01*
X7668628Y45133810D02*
X8144819Y45133810D01*
X7144819Y44800477D02*
X7668628Y45133810D01*
X7668628Y45133810D02*
X7144819Y45467143D01*
X8144819Y46324286D02*
X8144819Y45752858D01*
X8144819Y46038572D02*
X7144819Y46038572D01*
X7144819Y46038572D02*
X7287676Y45943334D01*
X7287676Y45943334D02*
X7382914Y45848096D01*
X7382914Y45848096D02*
X7430533Y45752858D01*
X65009580Y45103334D02*
X65057200Y45055715D01*
X65057200Y45055715D02*
X65104819Y44912858D01*
X65104819Y44912858D02*
X65104819Y44817620D01*
X65104819Y44817620D02*
X65057200Y44674763D01*
X65057200Y44674763D02*
X64961961Y44579525D01*
X64961961Y44579525D02*
X64866723Y44531906D01*
X64866723Y44531906D02*
X64676247Y44484287D01*
X64676247Y44484287D02*
X64533390Y44484287D01*
X64533390Y44484287D02*
X64342914Y44531906D01*
X64342914Y44531906D02*
X64247676Y44579525D01*
X64247676Y44579525D02*
X64152438Y44674763D01*
X64152438Y44674763D02*
X64104819Y44817620D01*
X64104819Y44817620D02*
X64104819Y44912858D01*
X64104819Y44912858D02*
X64152438Y45055715D01*
X64152438Y45055715D02*
X64200057Y45103334D01*
X64104819Y45436668D02*
X64104819Y46103334D01*
X64104819Y46103334D02*
X65104819Y45674763D01*
X78373319Y66736667D02*
X79087604Y66736667D01*
X79087604Y66736667D02*
X79230461Y66689048D01*
X79230461Y66689048D02*
X79325700Y66593810D01*
X79325700Y66593810D02*
X79373319Y66450953D01*
X79373319Y66450953D02*
X79373319Y66355715D01*
X78468557Y67165239D02*
X78420938Y67212858D01*
X78420938Y67212858D02*
X78373319Y67308096D01*
X78373319Y67308096D02*
X78373319Y67546191D01*
X78373319Y67546191D02*
X78420938Y67641429D01*
X78420938Y67641429D02*
X78468557Y67689048D01*
X78468557Y67689048D02*
X78563795Y67736667D01*
X78563795Y67736667D02*
X78659033Y67736667D01*
X78659033Y67736667D02*
X78801890Y67689048D01*
X78801890Y67689048D02*
X79373319Y67117620D01*
X79373319Y67117620D02*
X79373319Y67736667D01*
X66352819Y21636143D02*
X65876628Y21302810D01*
X66352819Y21064715D02*
X65352819Y21064715D01*
X65352819Y21064715D02*
X65352819Y21445667D01*
X65352819Y21445667D02*
X65400438Y21540905D01*
X65400438Y21540905D02*
X65448057Y21588524D01*
X65448057Y21588524D02*
X65543295Y21636143D01*
X65543295Y21636143D02*
X65686152Y21636143D01*
X65686152Y21636143D02*
X65781390Y21588524D01*
X65781390Y21588524D02*
X65829009Y21540905D01*
X65829009Y21540905D02*
X65876628Y21445667D01*
X65876628Y21445667D02*
X65876628Y21064715D01*
X66352819Y22588524D02*
X66352819Y22017096D01*
X66352819Y22302810D02*
X65352819Y22302810D01*
X65352819Y22302810D02*
X65495676Y22207572D01*
X65495676Y22207572D02*
X65590914Y22112334D01*
X65590914Y22112334D02*
X65638533Y22017096D01*
X65448057Y22969477D02*
X65400438Y23017096D01*
X65400438Y23017096D02*
X65352819Y23112334D01*
X65352819Y23112334D02*
X65352819Y23350429D01*
X65352819Y23350429D02*
X65400438Y23445667D01*
X65400438Y23445667D02*
X65448057Y23493286D01*
X65448057Y23493286D02*
X65543295Y23540905D01*
X65543295Y23540905D02*
X65638533Y23540905D01*
X65638533Y23540905D02*
X65781390Y23493286D01*
X65781390Y23493286D02*
X66352819Y22921858D01*
X66352819Y22921858D02*
X66352819Y23540905D01*
X65843580Y36399334D02*
X65891200Y36351715D01*
X65891200Y36351715D02*
X65938819Y36208858D01*
X65938819Y36208858D02*
X65938819Y36113620D01*
X65938819Y36113620D02*
X65891200Y35970763D01*
X65891200Y35970763D02*
X65795961Y35875525D01*
X65795961Y35875525D02*
X65700723Y35827906D01*
X65700723Y35827906D02*
X65510247Y35780287D01*
X65510247Y35780287D02*
X65367390Y35780287D01*
X65367390Y35780287D02*
X65176914Y35827906D01*
X65176914Y35827906D02*
X65081676Y35875525D01*
X65081676Y35875525D02*
X64986438Y35970763D01*
X64986438Y35970763D02*
X64938819Y36113620D01*
X64938819Y36113620D02*
X64938819Y36208858D01*
X64938819Y36208858D02*
X64986438Y36351715D01*
X64986438Y36351715D02*
X65034057Y36399334D01*
X64938819Y37304096D02*
X64938819Y36827906D01*
X64938819Y36827906D02*
X65415009Y36780287D01*
X65415009Y36780287D02*
X65367390Y36827906D01*
X65367390Y36827906D02*
X65319771Y36923144D01*
X65319771Y36923144D02*
X65319771Y37161239D01*
X65319771Y37161239D02*
X65367390Y37256477D01*
X65367390Y37256477D02*
X65415009Y37304096D01*
X65415009Y37304096D02*
X65510247Y37351715D01*
X65510247Y37351715D02*
X65748342Y37351715D01*
X65748342Y37351715D02*
X65843580Y37304096D01*
X65843580Y37304096D02*
X65891200Y37256477D01*
X65891200Y37256477D02*
X65938819Y37161239D01*
X65938819Y37161239D02*
X65938819Y36923144D01*
X65938819Y36923144D02*
X65891200Y36827906D01*
X65891200Y36827906D02*
X65843580Y36780287D01*
X72059580Y55203334D02*
X72107200Y55155715D01*
X72107200Y55155715D02*
X72154819Y55012858D01*
X72154819Y55012858D02*
X72154819Y54917620D01*
X72154819Y54917620D02*
X72107200Y54774763D01*
X72107200Y54774763D02*
X72011961Y54679525D01*
X72011961Y54679525D02*
X71916723Y54631906D01*
X71916723Y54631906D02*
X71726247Y54584287D01*
X71726247Y54584287D02*
X71583390Y54584287D01*
X71583390Y54584287D02*
X71392914Y54631906D01*
X71392914Y54631906D02*
X71297676Y54679525D01*
X71297676Y54679525D02*
X71202438Y54774763D01*
X71202438Y54774763D02*
X71154819Y54917620D01*
X71154819Y54917620D02*
X71154819Y55012858D01*
X71154819Y55012858D02*
X71202438Y55155715D01*
X71202438Y55155715D02*
X71250057Y55203334D01*
X71583390Y55774763D02*
X71535771Y55679525D01*
X71535771Y55679525D02*
X71488152Y55631906D01*
X71488152Y55631906D02*
X71392914Y55584287D01*
X71392914Y55584287D02*
X71345295Y55584287D01*
X71345295Y55584287D02*
X71250057Y55631906D01*
X71250057Y55631906D02*
X71202438Y55679525D01*
X71202438Y55679525D02*
X71154819Y55774763D01*
X71154819Y55774763D02*
X71154819Y55965239D01*
X71154819Y55965239D02*
X71202438Y56060477D01*
X71202438Y56060477D02*
X71250057Y56108096D01*
X71250057Y56108096D02*
X71345295Y56155715D01*
X71345295Y56155715D02*
X71392914Y56155715D01*
X71392914Y56155715D02*
X71488152Y56108096D01*
X71488152Y56108096D02*
X71535771Y56060477D01*
X71535771Y56060477D02*
X71583390Y55965239D01*
X71583390Y55965239D02*
X71583390Y55774763D01*
X71583390Y55774763D02*
X71631009Y55679525D01*
X71631009Y55679525D02*
X71678628Y55631906D01*
X71678628Y55631906D02*
X71773866Y55584287D01*
X71773866Y55584287D02*
X71964342Y55584287D01*
X71964342Y55584287D02*
X72059580Y55631906D01*
X72059580Y55631906D02*
X72107200Y55679525D01*
X72107200Y55679525D02*
X72154819Y55774763D01*
X72154819Y55774763D02*
X72154819Y55965239D01*
X72154819Y55965239D02*
X72107200Y56060477D01*
X72107200Y56060477D02*
X72059580Y56108096D01*
X72059580Y56108096D02*
X71964342Y56155715D01*
X71964342Y56155715D02*
X71773866Y56155715D01*
X71773866Y56155715D02*
X71678628Y56108096D01*
X71678628Y56108096D02*
X71631009Y56060477D01*
X71631009Y56060477D02*
X71583390Y55965239D01*
X35524819Y24103334D02*
X35048628Y23770001D01*
X35524819Y23531906D02*
X34524819Y23531906D01*
X34524819Y23531906D02*
X34524819Y23912858D01*
X34524819Y23912858D02*
X34572438Y24008096D01*
X34572438Y24008096D02*
X34620057Y24055715D01*
X34620057Y24055715D02*
X34715295Y24103334D01*
X34715295Y24103334D02*
X34858152Y24103334D01*
X34858152Y24103334D02*
X34953390Y24055715D01*
X34953390Y24055715D02*
X35001009Y24008096D01*
X35001009Y24008096D02*
X35048628Y23912858D01*
X35048628Y23912858D02*
X35048628Y23531906D01*
X35524819Y24579525D02*
X35524819Y24770001D01*
X35524819Y24770001D02*
X35477200Y24865239D01*
X35477200Y24865239D02*
X35429580Y24912858D01*
X35429580Y24912858D02*
X35286723Y25008096D01*
X35286723Y25008096D02*
X35096247Y25055715D01*
X35096247Y25055715D02*
X34715295Y25055715D01*
X34715295Y25055715D02*
X34620057Y25008096D01*
X34620057Y25008096D02*
X34572438Y24960477D01*
X34572438Y24960477D02*
X34524819Y24865239D01*
X34524819Y24865239D02*
X34524819Y24674763D01*
X34524819Y24674763D02*
X34572438Y24579525D01*
X34572438Y24579525D02*
X34620057Y24531906D01*
X34620057Y24531906D02*
X34715295Y24484287D01*
X34715295Y24484287D02*
X34953390Y24484287D01*
X34953390Y24484287D02*
X35048628Y24531906D01*
X35048628Y24531906D02*
X35096247Y24579525D01*
X35096247Y24579525D02*
X35143866Y24674763D01*
X35143866Y24674763D02*
X35143866Y24865239D01*
X35143866Y24865239D02*
X35096247Y24960477D01*
X35096247Y24960477D02*
X35048628Y25008096D01*
X35048628Y25008096D02*
X34953390Y25055715D01*
X60189580Y45035334D02*
X60237200Y44987715D01*
X60237200Y44987715D02*
X60284819Y44844858D01*
X60284819Y44844858D02*
X60284819Y44749620D01*
X60284819Y44749620D02*
X60237200Y44606763D01*
X60237200Y44606763D02*
X60141961Y44511525D01*
X60141961Y44511525D02*
X60046723Y44463906D01*
X60046723Y44463906D02*
X59856247Y44416287D01*
X59856247Y44416287D02*
X59713390Y44416287D01*
X59713390Y44416287D02*
X59522914Y44463906D01*
X59522914Y44463906D02*
X59427676Y44511525D01*
X59427676Y44511525D02*
X59332438Y44606763D01*
X59332438Y44606763D02*
X59284819Y44749620D01*
X59284819Y44749620D02*
X59284819Y44844858D01*
X59284819Y44844858D02*
X59332438Y44987715D01*
X59332438Y44987715D02*
X59380057Y45035334D01*
X59284819Y45892477D02*
X59284819Y45702001D01*
X59284819Y45702001D02*
X59332438Y45606763D01*
X59332438Y45606763D02*
X59380057Y45559144D01*
X59380057Y45559144D02*
X59522914Y45463906D01*
X59522914Y45463906D02*
X59713390Y45416287D01*
X59713390Y45416287D02*
X60094342Y45416287D01*
X60094342Y45416287D02*
X60189580Y45463906D01*
X60189580Y45463906D02*
X60237200Y45511525D01*
X60237200Y45511525D02*
X60284819Y45606763D01*
X60284819Y45606763D02*
X60284819Y45797239D01*
X60284819Y45797239D02*
X60237200Y45892477D01*
X60237200Y45892477D02*
X60189580Y45940096D01*
X60189580Y45940096D02*
X60094342Y45987715D01*
X60094342Y45987715D02*
X59856247Y45987715D01*
X59856247Y45987715D02*
X59761009Y45940096D01*
X59761009Y45940096D02*
X59713390Y45892477D01*
X59713390Y45892477D02*
X59665771Y45797239D01*
X59665771Y45797239D02*
X59665771Y45606763D01*
X59665771Y45606763D02*
X59713390Y45511525D01*
X59713390Y45511525D02*
X59761009Y45463906D01*
X59761009Y45463906D02*
X59856247Y45416287D01*
X95376666Y62555181D02*
X95376666Y61840896D01*
X95376666Y61840896D02*
X95329047Y61698039D01*
X95329047Y61698039D02*
X95233809Y61602800D01*
X95233809Y61602800D02*
X95090952Y61555181D01*
X95090952Y61555181D02*
X94995714Y61555181D01*
X96376666Y61555181D02*
X95805238Y61555181D01*
X96090952Y61555181D02*
X96090952Y62555181D01*
X96090952Y62555181D02*
X95995714Y62412324D01*
X95995714Y62412324D02*
X95900476Y62317086D01*
X95900476Y62317086D02*
X95805238Y62269467D01*
X99212819Y47552096D02*
X98212819Y47552096D01*
X98689009Y47552096D02*
X98689009Y48123524D01*
X99212819Y48123524D02*
X98212819Y48123524D01*
X98212819Y48504477D02*
X99212819Y49171143D01*
X98212819Y49171143D02*
X99212819Y48504477D01*
X98641390Y49694953D02*
X98593771Y49599715D01*
X98593771Y49599715D02*
X98546152Y49552096D01*
X98546152Y49552096D02*
X98450914Y49504477D01*
X98450914Y49504477D02*
X98403295Y49504477D01*
X98403295Y49504477D02*
X98308057Y49552096D01*
X98308057Y49552096D02*
X98260438Y49599715D01*
X98260438Y49599715D02*
X98212819Y49694953D01*
X98212819Y49694953D02*
X98212819Y49885429D01*
X98212819Y49885429D02*
X98260438Y49980667D01*
X98260438Y49980667D02*
X98308057Y50028286D01*
X98308057Y50028286D02*
X98403295Y50075905D01*
X98403295Y50075905D02*
X98450914Y50075905D01*
X98450914Y50075905D02*
X98546152Y50028286D01*
X98546152Y50028286D02*
X98593771Y49980667D01*
X98593771Y49980667D02*
X98641390Y49885429D01*
X98641390Y49885429D02*
X98641390Y49694953D01*
X98641390Y49694953D02*
X98689009Y49599715D01*
X98689009Y49599715D02*
X98736628Y49552096D01*
X98736628Y49552096D02*
X98831866Y49504477D01*
X98831866Y49504477D02*
X99022342Y49504477D01*
X99022342Y49504477D02*
X99117580Y49552096D01*
X99117580Y49552096D02*
X99165200Y49599715D01*
X99165200Y49599715D02*
X99212819Y49694953D01*
X99212819Y49694953D02*
X99212819Y49885429D01*
X99212819Y49885429D02*
X99165200Y49980667D01*
X99165200Y49980667D02*
X99117580Y50028286D01*
X99117580Y50028286D02*
X99022342Y50075905D01*
X99022342Y50075905D02*
X98831866Y50075905D01*
X98831866Y50075905D02*
X98736628Y50028286D01*
X98736628Y50028286D02*
X98689009Y49980667D01*
X98689009Y49980667D02*
X98641390Y49885429D01*
X98212819Y50409239D02*
X98212819Y51028286D01*
X98212819Y51028286D02*
X98593771Y50694953D01*
X98593771Y50694953D02*
X98593771Y50837810D01*
X98593771Y50837810D02*
X98641390Y50933048D01*
X98641390Y50933048D02*
X98689009Y50980667D01*
X98689009Y50980667D02*
X98784247Y51028286D01*
X98784247Y51028286D02*
X99022342Y51028286D01*
X99022342Y51028286D02*
X99117580Y50980667D01*
X99117580Y50980667D02*
X99165200Y50933048D01*
X99165200Y50933048D02*
X99212819Y50837810D01*
X99212819Y50837810D02*
X99212819Y50552096D01*
X99212819Y50552096D02*
X99165200Y50456858D01*
X99165200Y50456858D02*
X99117580Y50409239D01*
X98212819Y51933048D02*
X98212819Y51456858D01*
X98212819Y51456858D02*
X98689009Y51409239D01*
X98689009Y51409239D02*
X98641390Y51456858D01*
X98641390Y51456858D02*
X98593771Y51552096D01*
X98593771Y51552096D02*
X98593771Y51790191D01*
X98593771Y51790191D02*
X98641390Y51885429D01*
X98641390Y51885429D02*
X98689009Y51933048D01*
X98689009Y51933048D02*
X98784247Y51980667D01*
X98784247Y51980667D02*
X99022342Y51980667D01*
X99022342Y51980667D02*
X99117580Y51933048D01*
X99117580Y51933048D02*
X99165200Y51885429D01*
X99165200Y51885429D02*
X99212819Y51790191D01*
X99212819Y51790191D02*
X99212819Y51552096D01*
X99212819Y51552096D02*
X99165200Y51456858D01*
X99165200Y51456858D02*
X99117580Y51409239D01*
X98212819Y52314001D02*
X98212819Y52980667D01*
X98212819Y52980667D02*
X99212819Y52552096D01*
X99212819Y53361620D02*
X98212819Y53361620D01*
X98212819Y53361620D02*
X98212819Y53599715D01*
X98212819Y53599715D02*
X98260438Y53742572D01*
X98260438Y53742572D02*
X98355676Y53837810D01*
X98355676Y53837810D02*
X98450914Y53885429D01*
X98450914Y53885429D02*
X98641390Y53933048D01*
X98641390Y53933048D02*
X98784247Y53933048D01*
X98784247Y53933048D02*
X98974723Y53885429D01*
X98974723Y53885429D02*
X99069961Y53837810D01*
X99069961Y53837810D02*
X99165200Y53742572D01*
X99165200Y53742572D02*
X99212819Y53599715D01*
X99212819Y53599715D02*
X99212819Y53361620D01*
X99165200Y55075906D02*
X99212819Y55218763D01*
X99212819Y55218763D02*
X99212819Y55456858D01*
X99212819Y55456858D02*
X99165200Y55552096D01*
X99165200Y55552096D02*
X99117580Y55599715D01*
X99117580Y55599715D02*
X99022342Y55647334D01*
X99022342Y55647334D02*
X98927104Y55647334D01*
X98927104Y55647334D02*
X98831866Y55599715D01*
X98831866Y55599715D02*
X98784247Y55552096D01*
X98784247Y55552096D02*
X98736628Y55456858D01*
X98736628Y55456858D02*
X98689009Y55266382D01*
X98689009Y55266382D02*
X98641390Y55171144D01*
X98641390Y55171144D02*
X98593771Y55123525D01*
X98593771Y55123525D02*
X98498533Y55075906D01*
X98498533Y55075906D02*
X98403295Y55075906D01*
X98403295Y55075906D02*
X98308057Y55123525D01*
X98308057Y55123525D02*
X98260438Y55171144D01*
X98260438Y55171144D02*
X98212819Y55266382D01*
X98212819Y55266382D02*
X98212819Y55504477D01*
X98212819Y55504477D02*
X98260438Y55647334D01*
X99212819Y56075906D02*
X98212819Y56075906D01*
X98212819Y56075906D02*
X98212819Y56456858D01*
X98212819Y56456858D02*
X98260438Y56552096D01*
X98260438Y56552096D02*
X98308057Y56599715D01*
X98308057Y56599715D02*
X98403295Y56647334D01*
X98403295Y56647334D02*
X98546152Y56647334D01*
X98546152Y56647334D02*
X98641390Y56599715D01*
X98641390Y56599715D02*
X98689009Y56552096D01*
X98689009Y56552096D02*
X98736628Y56456858D01*
X98736628Y56456858D02*
X98736628Y56075906D01*
X99212819Y57075906D02*
X98212819Y57075906D01*
X76434761Y36759943D02*
X76339523Y36807562D01*
X76339523Y36807562D02*
X76244285Y36902800D01*
X76244285Y36902800D02*
X76101428Y37045658D01*
X76101428Y37045658D02*
X76006190Y37093277D01*
X76006190Y37093277D02*
X75910952Y37093277D01*
X75958571Y36855181D02*
X75863333Y36902800D01*
X75863333Y36902800D02*
X75768095Y36998039D01*
X75768095Y36998039D02*
X75720476Y37188515D01*
X75720476Y37188515D02*
X75720476Y37521848D01*
X75720476Y37521848D02*
X75768095Y37712324D01*
X75768095Y37712324D02*
X75863333Y37807562D01*
X75863333Y37807562D02*
X75958571Y37855181D01*
X75958571Y37855181D02*
X76149047Y37855181D01*
X76149047Y37855181D02*
X76244285Y37807562D01*
X76244285Y37807562D02*
X76339523Y37712324D01*
X76339523Y37712324D02*
X76387142Y37521848D01*
X76387142Y37521848D02*
X76387142Y37188515D01*
X76387142Y37188515D02*
X76339523Y36998039D01*
X76339523Y36998039D02*
X76244285Y36902800D01*
X76244285Y36902800D02*
X76149047Y36855181D01*
X76149047Y36855181D02*
X75958571Y36855181D01*
X77339523Y36855181D02*
X76768095Y36855181D01*
X77053809Y36855181D02*
X77053809Y37855181D01*
X77053809Y37855181D02*
X76958571Y37712324D01*
X76958571Y37712324D02*
X76863333Y37617086D01*
X76863333Y37617086D02*
X76768095Y37569467D01*
X27989580Y48507143D02*
X28037200Y48459524D01*
X28037200Y48459524D02*
X28084819Y48316667D01*
X28084819Y48316667D02*
X28084819Y48221429D01*
X28084819Y48221429D02*
X28037200Y48078572D01*
X28037200Y48078572D02*
X27941961Y47983334D01*
X27941961Y47983334D02*
X27846723Y47935715D01*
X27846723Y47935715D02*
X27656247Y47888096D01*
X27656247Y47888096D02*
X27513390Y47888096D01*
X27513390Y47888096D02*
X27322914Y47935715D01*
X27322914Y47935715D02*
X27227676Y47983334D01*
X27227676Y47983334D02*
X27132438Y48078572D01*
X27132438Y48078572D02*
X27084819Y48221429D01*
X27084819Y48221429D02*
X27084819Y48316667D01*
X27084819Y48316667D02*
X27132438Y48459524D01*
X27132438Y48459524D02*
X27180057Y48507143D01*
X27180057Y48888096D02*
X27132438Y48935715D01*
X27132438Y48935715D02*
X27084819Y49030953D01*
X27084819Y49030953D02*
X27084819Y49269048D01*
X27084819Y49269048D02*
X27132438Y49364286D01*
X27132438Y49364286D02*
X27180057Y49411905D01*
X27180057Y49411905D02*
X27275295Y49459524D01*
X27275295Y49459524D02*
X27370533Y49459524D01*
X27370533Y49459524D02*
X27513390Y49411905D01*
X27513390Y49411905D02*
X28084819Y48840477D01*
X28084819Y48840477D02*
X28084819Y49459524D01*
X27513390Y50030953D02*
X27465771Y49935715D01*
X27465771Y49935715D02*
X27418152Y49888096D01*
X27418152Y49888096D02*
X27322914Y49840477D01*
X27322914Y49840477D02*
X27275295Y49840477D01*
X27275295Y49840477D02*
X27180057Y49888096D01*
X27180057Y49888096D02*
X27132438Y49935715D01*
X27132438Y49935715D02*
X27084819Y50030953D01*
X27084819Y50030953D02*
X27084819Y50221429D01*
X27084819Y50221429D02*
X27132438Y50316667D01*
X27132438Y50316667D02*
X27180057Y50364286D01*
X27180057Y50364286D02*
X27275295Y50411905D01*
X27275295Y50411905D02*
X27322914Y50411905D01*
X27322914Y50411905D02*
X27418152Y50364286D01*
X27418152Y50364286D02*
X27465771Y50316667D01*
X27465771Y50316667D02*
X27513390Y50221429D01*
X27513390Y50221429D02*
X27513390Y50030953D01*
X27513390Y50030953D02*
X27561009Y49935715D01*
X27561009Y49935715D02*
X27608628Y49888096D01*
X27608628Y49888096D02*
X27703866Y49840477D01*
X27703866Y49840477D02*
X27894342Y49840477D01*
X27894342Y49840477D02*
X27989580Y49888096D01*
X27989580Y49888096D02*
X28037200Y49935715D01*
X28037200Y49935715D02*
X28084819Y50030953D01*
X28084819Y50030953D02*
X28084819Y50221429D01*
X28084819Y50221429D02*
X28037200Y50316667D01*
X28037200Y50316667D02*
X27989580Y50364286D01*
X27989580Y50364286D02*
X27894342Y50411905D01*
X27894342Y50411905D02*
X27703866Y50411905D01*
X27703866Y50411905D02*
X27608628Y50364286D01*
X27608628Y50364286D02*
X27561009Y50316667D01*
X27561009Y50316667D02*
X27513390Y50221429D01*
X28349580Y56047143D02*
X28397200Y55999524D01*
X28397200Y55999524D02*
X28444819Y55856667D01*
X28444819Y55856667D02*
X28444819Y55761429D01*
X28444819Y55761429D02*
X28397200Y55618572D01*
X28397200Y55618572D02*
X28301961Y55523334D01*
X28301961Y55523334D02*
X28206723Y55475715D01*
X28206723Y55475715D02*
X28016247Y55428096D01*
X28016247Y55428096D02*
X27873390Y55428096D01*
X27873390Y55428096D02*
X27682914Y55475715D01*
X27682914Y55475715D02*
X27587676Y55523334D01*
X27587676Y55523334D02*
X27492438Y55618572D01*
X27492438Y55618572D02*
X27444819Y55761429D01*
X27444819Y55761429D02*
X27444819Y55856667D01*
X27444819Y55856667D02*
X27492438Y55999524D01*
X27492438Y55999524D02*
X27540057Y56047143D01*
X28444819Y56999524D02*
X28444819Y56428096D01*
X28444819Y56713810D02*
X27444819Y56713810D01*
X27444819Y56713810D02*
X27587676Y56618572D01*
X27587676Y56618572D02*
X27682914Y56523334D01*
X27682914Y56523334D02*
X27730533Y56428096D01*
X27444819Y57856667D02*
X27444819Y57666191D01*
X27444819Y57666191D02*
X27492438Y57570953D01*
X27492438Y57570953D02*
X27540057Y57523334D01*
X27540057Y57523334D02*
X27682914Y57428096D01*
X27682914Y57428096D02*
X27873390Y57380477D01*
X27873390Y57380477D02*
X28254342Y57380477D01*
X28254342Y57380477D02*
X28349580Y57428096D01*
X28349580Y57428096D02*
X28397200Y57475715D01*
X28397200Y57475715D02*
X28444819Y57570953D01*
X28444819Y57570953D02*
X28444819Y57761429D01*
X28444819Y57761429D02*
X28397200Y57856667D01*
X28397200Y57856667D02*
X28349580Y57904286D01*
X28349580Y57904286D02*
X28254342Y57951905D01*
X28254342Y57951905D02*
X28016247Y57951905D01*
X28016247Y57951905D02*
X27921009Y57904286D01*
X27921009Y57904286D02*
X27873390Y57856667D01*
X27873390Y57856667D02*
X27825771Y57761429D01*
X27825771Y57761429D02*
X27825771Y57570953D01*
X27825771Y57570953D02*
X27873390Y57475715D01*
X27873390Y57475715D02*
X27921009Y57428096D01*
X27921009Y57428096D02*
X28016247Y57380477D01*
X91839580Y14147143D02*
X91887200Y14099524D01*
X91887200Y14099524D02*
X91934819Y13956667D01*
X91934819Y13956667D02*
X91934819Y13861429D01*
X91934819Y13861429D02*
X91887200Y13718572D01*
X91887200Y13718572D02*
X91791961Y13623334D01*
X91791961Y13623334D02*
X91696723Y13575715D01*
X91696723Y13575715D02*
X91506247Y13528096D01*
X91506247Y13528096D02*
X91363390Y13528096D01*
X91363390Y13528096D02*
X91172914Y13575715D01*
X91172914Y13575715D02*
X91077676Y13623334D01*
X91077676Y13623334D02*
X90982438Y13718572D01*
X90982438Y13718572D02*
X90934819Y13861429D01*
X90934819Y13861429D02*
X90934819Y13956667D01*
X90934819Y13956667D02*
X90982438Y14099524D01*
X90982438Y14099524D02*
X91030057Y14147143D01*
X91934819Y15099524D02*
X91934819Y14528096D01*
X91934819Y14813810D02*
X90934819Y14813810D01*
X90934819Y14813810D02*
X91077676Y14718572D01*
X91077676Y14718572D02*
X91172914Y14623334D01*
X91172914Y14623334D02*
X91220533Y14528096D01*
X90934819Y16004286D02*
X90934819Y15528096D01*
X90934819Y15528096D02*
X91411009Y15480477D01*
X91411009Y15480477D02*
X91363390Y15528096D01*
X91363390Y15528096D02*
X91315771Y15623334D01*
X91315771Y15623334D02*
X91315771Y15861429D01*
X91315771Y15861429D02*
X91363390Y15956667D01*
X91363390Y15956667D02*
X91411009Y16004286D01*
X91411009Y16004286D02*
X91506247Y16051905D01*
X91506247Y16051905D02*
X91744342Y16051905D01*
X91744342Y16051905D02*
X91839580Y16004286D01*
X91839580Y16004286D02*
X91887200Y15956667D01*
X91887200Y15956667D02*
X91934819Y15861429D01*
X91934819Y15861429D02*
X91934819Y15623334D01*
X91934819Y15623334D02*
X91887200Y15528096D01*
X91887200Y15528096D02*
X91839580Y15480477D01*
X77839580Y28767143D02*
X77887200Y28719524D01*
X77887200Y28719524D02*
X77934819Y28576667D01*
X77934819Y28576667D02*
X77934819Y28481429D01*
X77934819Y28481429D02*
X77887200Y28338572D01*
X77887200Y28338572D02*
X77791961Y28243334D01*
X77791961Y28243334D02*
X77696723Y28195715D01*
X77696723Y28195715D02*
X77506247Y28148096D01*
X77506247Y28148096D02*
X77363390Y28148096D01*
X77363390Y28148096D02*
X77172914Y28195715D01*
X77172914Y28195715D02*
X77077676Y28243334D01*
X77077676Y28243334D02*
X76982438Y28338572D01*
X76982438Y28338572D02*
X76934819Y28481429D01*
X76934819Y28481429D02*
X76934819Y28576667D01*
X76934819Y28576667D02*
X76982438Y28719524D01*
X76982438Y28719524D02*
X77030057Y28767143D01*
X77030057Y29148096D02*
X76982438Y29195715D01*
X76982438Y29195715D02*
X76934819Y29290953D01*
X76934819Y29290953D02*
X76934819Y29529048D01*
X76934819Y29529048D02*
X76982438Y29624286D01*
X76982438Y29624286D02*
X77030057Y29671905D01*
X77030057Y29671905D02*
X77125295Y29719524D01*
X77125295Y29719524D02*
X77220533Y29719524D01*
X77220533Y29719524D02*
X77363390Y29671905D01*
X77363390Y29671905D02*
X77934819Y29100477D01*
X77934819Y29100477D02*
X77934819Y29719524D01*
X76934819Y30338572D02*
X76934819Y30433810D01*
X76934819Y30433810D02*
X76982438Y30529048D01*
X76982438Y30529048D02*
X77030057Y30576667D01*
X77030057Y30576667D02*
X77125295Y30624286D01*
X77125295Y30624286D02*
X77315771Y30671905D01*
X77315771Y30671905D02*
X77553866Y30671905D01*
X77553866Y30671905D02*
X77744342Y30624286D01*
X77744342Y30624286D02*
X77839580Y30576667D01*
X77839580Y30576667D02*
X77887200Y30529048D01*
X77887200Y30529048D02*
X77934819Y30433810D01*
X77934819Y30433810D02*
X77934819Y30338572D01*
X77934819Y30338572D02*
X77887200Y30243334D01*
X77887200Y30243334D02*
X77839580Y30195715D01*
X77839580Y30195715D02*
X77744342Y30148096D01*
X77744342Y30148096D02*
X77553866Y30100477D01*
X77553866Y30100477D02*
X77315771Y30100477D01*
X77315771Y30100477D02*
X77125295Y30148096D01*
X77125295Y30148096D02*
X77030057Y30195715D01*
X77030057Y30195715D02*
X76982438Y30243334D01*
X76982438Y30243334D02*
X76934819Y30338572D01*
X74994819Y42683334D02*
X74518628Y42350001D01*
X74994819Y42111906D02*
X73994819Y42111906D01*
X73994819Y42111906D02*
X73994819Y42492858D01*
X73994819Y42492858D02*
X74042438Y42588096D01*
X74042438Y42588096D02*
X74090057Y42635715D01*
X74090057Y42635715D02*
X74185295Y42683334D01*
X74185295Y42683334D02*
X74328152Y42683334D01*
X74328152Y42683334D02*
X74423390Y42635715D01*
X74423390Y42635715D02*
X74471009Y42588096D01*
X74471009Y42588096D02*
X74518628Y42492858D01*
X74518628Y42492858D02*
X74518628Y42111906D01*
X73994819Y43016668D02*
X73994819Y43683334D01*
X73994819Y43683334D02*
X74994819Y43254763D01*
X70069580Y30397143D02*
X70117200Y30349524D01*
X70117200Y30349524D02*
X70164819Y30206667D01*
X70164819Y30206667D02*
X70164819Y30111429D01*
X70164819Y30111429D02*
X70117200Y29968572D01*
X70117200Y29968572D02*
X70021961Y29873334D01*
X70021961Y29873334D02*
X69926723Y29825715D01*
X69926723Y29825715D02*
X69736247Y29778096D01*
X69736247Y29778096D02*
X69593390Y29778096D01*
X69593390Y29778096D02*
X69402914Y29825715D01*
X69402914Y29825715D02*
X69307676Y29873334D01*
X69307676Y29873334D02*
X69212438Y29968572D01*
X69212438Y29968572D02*
X69164819Y30111429D01*
X69164819Y30111429D02*
X69164819Y30206667D01*
X69164819Y30206667D02*
X69212438Y30349524D01*
X69212438Y30349524D02*
X69260057Y30397143D01*
X69260057Y30778096D02*
X69212438Y30825715D01*
X69212438Y30825715D02*
X69164819Y30920953D01*
X69164819Y30920953D02*
X69164819Y31159048D01*
X69164819Y31159048D02*
X69212438Y31254286D01*
X69212438Y31254286D02*
X69260057Y31301905D01*
X69260057Y31301905D02*
X69355295Y31349524D01*
X69355295Y31349524D02*
X69450533Y31349524D01*
X69450533Y31349524D02*
X69593390Y31301905D01*
X69593390Y31301905D02*
X70164819Y30730477D01*
X70164819Y30730477D02*
X70164819Y31349524D01*
X69260057Y31730477D02*
X69212438Y31778096D01*
X69212438Y31778096D02*
X69164819Y31873334D01*
X69164819Y31873334D02*
X69164819Y32111429D01*
X69164819Y32111429D02*
X69212438Y32206667D01*
X69212438Y32206667D02*
X69260057Y32254286D01*
X69260057Y32254286D02*
X69355295Y32301905D01*
X69355295Y32301905D02*
X69450533Y32301905D01*
X69450533Y32301905D02*
X69593390Y32254286D01*
X69593390Y32254286D02*
X70164819Y31682858D01*
X70164819Y31682858D02*
X70164819Y32301905D01*
X63334819Y59613334D02*
X62858628Y59280001D01*
X63334819Y59041906D02*
X62334819Y59041906D01*
X62334819Y59041906D02*
X62334819Y59422858D01*
X62334819Y59422858D02*
X62382438Y59518096D01*
X62382438Y59518096D02*
X62430057Y59565715D01*
X62430057Y59565715D02*
X62525295Y59613334D01*
X62525295Y59613334D02*
X62668152Y59613334D01*
X62668152Y59613334D02*
X62763390Y59565715D01*
X62763390Y59565715D02*
X62811009Y59518096D01*
X62811009Y59518096D02*
X62858628Y59422858D01*
X62858628Y59422858D02*
X62858628Y59041906D01*
X62430057Y59994287D02*
X62382438Y60041906D01*
X62382438Y60041906D02*
X62334819Y60137144D01*
X62334819Y60137144D02*
X62334819Y60375239D01*
X62334819Y60375239D02*
X62382438Y60470477D01*
X62382438Y60470477D02*
X62430057Y60518096D01*
X62430057Y60518096D02*
X62525295Y60565715D01*
X62525295Y60565715D02*
X62620533Y60565715D01*
X62620533Y60565715D02*
X62763390Y60518096D01*
X62763390Y60518096D02*
X63334819Y59946668D01*
X63334819Y59946668D02*
X63334819Y60565715D01*
X32444819Y4256667D02*
X33159104Y4256667D01*
X33159104Y4256667D02*
X33301961Y4209048D01*
X33301961Y4209048D02*
X33397200Y4113810D01*
X33397200Y4113810D02*
X33444819Y3970953D01*
X33444819Y3970953D02*
X33444819Y3875715D01*
X32778152Y5161429D02*
X33444819Y5161429D01*
X32397200Y4923334D02*
X33111485Y4685239D01*
X33111485Y4685239D02*
X33111485Y5304286D01*
X30218095Y42025181D02*
X30789523Y42025181D01*
X30503809Y41025181D02*
X30503809Y42025181D01*
X31122857Y41025181D02*
X31122857Y42025181D01*
X31122857Y42025181D02*
X31503809Y42025181D01*
X31503809Y42025181D02*
X31599047Y41977562D01*
X31599047Y41977562D02*
X31646666Y41929943D01*
X31646666Y41929943D02*
X31694285Y41834705D01*
X31694285Y41834705D02*
X31694285Y41691848D01*
X31694285Y41691848D02*
X31646666Y41596610D01*
X31646666Y41596610D02*
X31599047Y41548991D01*
X31599047Y41548991D02*
X31503809Y41501372D01*
X31503809Y41501372D02*
X31122857Y41501372D01*
X32075238Y41929943D02*
X32122857Y41977562D01*
X32122857Y41977562D02*
X32218095Y42025181D01*
X32218095Y42025181D02*
X32456190Y42025181D01*
X32456190Y42025181D02*
X32551428Y41977562D01*
X32551428Y41977562D02*
X32599047Y41929943D01*
X32599047Y41929943D02*
X32646666Y41834705D01*
X32646666Y41834705D02*
X32646666Y41739467D01*
X32646666Y41739467D02*
X32599047Y41596610D01*
X32599047Y41596610D02*
X32027619Y41025181D01*
X32027619Y41025181D02*
X32646666Y41025181D01*
X30637142Y37750420D02*
X30589523Y37702800D01*
X30589523Y37702800D02*
X30446666Y37655181D01*
X30446666Y37655181D02*
X30351428Y37655181D01*
X30351428Y37655181D02*
X30208571Y37702800D01*
X30208571Y37702800D02*
X30113333Y37798039D01*
X30113333Y37798039D02*
X30065714Y37893277D01*
X30065714Y37893277D02*
X30018095Y38083753D01*
X30018095Y38083753D02*
X30018095Y38226610D01*
X30018095Y38226610D02*
X30065714Y38417086D01*
X30065714Y38417086D02*
X30113333Y38512324D01*
X30113333Y38512324D02*
X30208571Y38607562D01*
X30208571Y38607562D02*
X30351428Y38655181D01*
X30351428Y38655181D02*
X30446666Y38655181D01*
X30446666Y38655181D02*
X30589523Y38607562D01*
X30589523Y38607562D02*
X30637142Y38559943D01*
X30970476Y38655181D02*
X31589523Y38655181D01*
X31589523Y38655181D02*
X31256190Y38274229D01*
X31256190Y38274229D02*
X31399047Y38274229D01*
X31399047Y38274229D02*
X31494285Y38226610D01*
X31494285Y38226610D02*
X31541904Y38178991D01*
X31541904Y38178991D02*
X31589523Y38083753D01*
X31589523Y38083753D02*
X31589523Y37845658D01*
X31589523Y37845658D02*
X31541904Y37750420D01*
X31541904Y37750420D02*
X31494285Y37702800D01*
X31494285Y37702800D02*
X31399047Y37655181D01*
X31399047Y37655181D02*
X31113333Y37655181D01*
X31113333Y37655181D02*
X31018095Y37702800D01*
X31018095Y37702800D02*
X30970476Y37750420D01*
X32208571Y38655181D02*
X32303809Y38655181D01*
X32303809Y38655181D02*
X32399047Y38607562D01*
X32399047Y38607562D02*
X32446666Y38559943D01*
X32446666Y38559943D02*
X32494285Y38464705D01*
X32494285Y38464705D02*
X32541904Y38274229D01*
X32541904Y38274229D02*
X32541904Y38036134D01*
X32541904Y38036134D02*
X32494285Y37845658D01*
X32494285Y37845658D02*
X32446666Y37750420D01*
X32446666Y37750420D02*
X32399047Y37702800D01*
X32399047Y37702800D02*
X32303809Y37655181D01*
X32303809Y37655181D02*
X32208571Y37655181D01*
X32208571Y37655181D02*
X32113333Y37702800D01*
X32113333Y37702800D02*
X32065714Y37750420D01*
X32065714Y37750420D02*
X32018095Y37845658D01*
X32018095Y37845658D02*
X31970476Y38036134D01*
X31970476Y38036134D02*
X31970476Y38274229D01*
X31970476Y38274229D02*
X32018095Y38464705D01*
X32018095Y38464705D02*
X32065714Y38559943D01*
X32065714Y38559943D02*
X32113333Y38607562D01*
X32113333Y38607562D02*
X32208571Y38655181D01*
X17807142Y51230420D02*
X17759523Y51182800D01*
X17759523Y51182800D02*
X17616666Y51135181D01*
X17616666Y51135181D02*
X17521428Y51135181D01*
X17521428Y51135181D02*
X17378571Y51182800D01*
X17378571Y51182800D02*
X17283333Y51278039D01*
X17283333Y51278039D02*
X17235714Y51373277D01*
X17235714Y51373277D02*
X17188095Y51563753D01*
X17188095Y51563753D02*
X17188095Y51706610D01*
X17188095Y51706610D02*
X17235714Y51897086D01*
X17235714Y51897086D02*
X17283333Y51992324D01*
X17283333Y51992324D02*
X17378571Y52087562D01*
X17378571Y52087562D02*
X17521428Y52135181D01*
X17521428Y52135181D02*
X17616666Y52135181D01*
X17616666Y52135181D02*
X17759523Y52087562D01*
X17759523Y52087562D02*
X17807142Y52039943D01*
X18188095Y52039943D02*
X18235714Y52087562D01*
X18235714Y52087562D02*
X18330952Y52135181D01*
X18330952Y52135181D02*
X18569047Y52135181D01*
X18569047Y52135181D02*
X18664285Y52087562D01*
X18664285Y52087562D02*
X18711904Y52039943D01*
X18711904Y52039943D02*
X18759523Y51944705D01*
X18759523Y51944705D02*
X18759523Y51849467D01*
X18759523Y51849467D02*
X18711904Y51706610D01*
X18711904Y51706610D02*
X18140476Y51135181D01*
X18140476Y51135181D02*
X18759523Y51135181D01*
X19235714Y51135181D02*
X19426190Y51135181D01*
X19426190Y51135181D02*
X19521428Y51182800D01*
X19521428Y51182800D02*
X19569047Y51230420D01*
X19569047Y51230420D02*
X19664285Y51373277D01*
X19664285Y51373277D02*
X19711904Y51563753D01*
X19711904Y51563753D02*
X19711904Y51944705D01*
X19711904Y51944705D02*
X19664285Y52039943D01*
X19664285Y52039943D02*
X19616666Y52087562D01*
X19616666Y52087562D02*
X19521428Y52135181D01*
X19521428Y52135181D02*
X19330952Y52135181D01*
X19330952Y52135181D02*
X19235714Y52087562D01*
X19235714Y52087562D02*
X19188095Y52039943D01*
X19188095Y52039943D02*
X19140476Y51944705D01*
X19140476Y51944705D02*
X19140476Y51706610D01*
X19140476Y51706610D02*
X19188095Y51611372D01*
X19188095Y51611372D02*
X19235714Y51563753D01*
X19235714Y51563753D02*
X19330952Y51516134D01*
X19330952Y51516134D02*
X19521428Y51516134D01*
X19521428Y51516134D02*
X19616666Y51563753D01*
X19616666Y51563753D02*
X19664285Y51611372D01*
X19664285Y51611372D02*
X19711904Y51706610D01*
X69838095Y49165181D02*
X70409523Y49165181D01*
X70123809Y48165181D02*
X70123809Y49165181D01*
X70742857Y48165181D02*
X70742857Y49165181D01*
X70742857Y49165181D02*
X71123809Y49165181D01*
X71123809Y49165181D02*
X71219047Y49117562D01*
X71219047Y49117562D02*
X71266666Y49069943D01*
X71266666Y49069943D02*
X71314285Y48974705D01*
X71314285Y48974705D02*
X71314285Y48831848D01*
X71314285Y48831848D02*
X71266666Y48736610D01*
X71266666Y48736610D02*
X71219047Y48688991D01*
X71219047Y48688991D02*
X71123809Y48641372D01*
X71123809Y48641372D02*
X70742857Y48641372D01*
X72171428Y48831848D02*
X72171428Y48165181D01*
X71933333Y49212800D02*
X71695238Y48498515D01*
X71695238Y48498515D02*
X72314285Y48498515D01*
D12*
X82773368Y38985239D02*
X82773368Y38138572D01*
X84103844Y38138572D02*
X81563844Y38138572D01*
X81563844Y38138572D02*
X81563844Y39348096D01*
X84103844Y41525239D02*
X84103844Y40315715D01*
X84103844Y40315715D02*
X81563844Y40315715D01*
X84103844Y43702382D02*
X84103844Y42250953D01*
X84103844Y42976667D02*
X81563844Y42976667D01*
X81563844Y42976667D02*
X81926701Y42734763D01*
X81926701Y42734763D02*
X82168606Y42492858D01*
X82168606Y42492858D02*
X82289558Y42250953D01*
X82109944Y25375867D02*
X79569944Y25375867D01*
X82109944Y26585391D02*
X79569944Y26585391D01*
X79569944Y26585391D02*
X82109944Y28036820D01*
X82109944Y28036820D02*
X79569944Y28036820D01*
X86802896Y51852344D02*
X86681944Y51610439D01*
X86681944Y51610439D02*
X86681944Y51247582D01*
X86681944Y51247582D02*
X86802896Y50884725D01*
X86802896Y50884725D02*
X87044801Y50642820D01*
X87044801Y50642820D02*
X87286706Y50521867D01*
X87286706Y50521867D02*
X87770515Y50400915D01*
X87770515Y50400915D02*
X88133372Y50400915D01*
X88133372Y50400915D02*
X88617182Y50521867D01*
X88617182Y50521867D02*
X88859087Y50642820D01*
X88859087Y50642820D02*
X89100992Y50884725D01*
X89100992Y50884725D02*
X89221944Y51247582D01*
X89221944Y51247582D02*
X89221944Y51489486D01*
X89221944Y51489486D02*
X89100992Y51852344D01*
X89100992Y51852344D02*
X88980039Y51973296D01*
X88980039Y51973296D02*
X88133372Y51973296D01*
X88133372Y51973296D02*
X88133372Y51489486D01*
X89221944Y53061867D02*
X86681944Y53061867D01*
X86681944Y53061867D02*
X89221944Y54513296D01*
X89221944Y54513296D02*
X86681944Y54513296D01*
X89221944Y55722819D02*
X86681944Y55722819D01*
X86681944Y55722819D02*
X86681944Y56327581D01*
X86681944Y56327581D02*
X86802896Y56690438D01*
X86802896Y56690438D02*
X87044801Y56932343D01*
X87044801Y56932343D02*
X87286706Y57053296D01*
X87286706Y57053296D02*
X87770515Y57174248D01*
X87770515Y57174248D02*
X88133372Y57174248D01*
X88133372Y57174248D02*
X88617182Y57053296D01*
X88617182Y57053296D02*
X88859087Y56932343D01*
X88859087Y56932343D02*
X89100992Y56690438D01*
X89100992Y56690438D02*
X89221944Y56327581D01*
X89221944Y56327581D02*
X89221944Y55722819D01*
X87056896Y26452344D02*
X86935944Y26210439D01*
X86935944Y26210439D02*
X86935944Y25847582D01*
X86935944Y25847582D02*
X87056896Y25484725D01*
X87056896Y25484725D02*
X87298801Y25242820D01*
X87298801Y25242820D02*
X87540706Y25121867D01*
X87540706Y25121867D02*
X88024515Y25000915D01*
X88024515Y25000915D02*
X88387372Y25000915D01*
X88387372Y25000915D02*
X88871182Y25121867D01*
X88871182Y25121867D02*
X89113087Y25242820D01*
X89113087Y25242820D02*
X89354992Y25484725D01*
X89354992Y25484725D02*
X89475944Y25847582D01*
X89475944Y25847582D02*
X89475944Y26089486D01*
X89475944Y26089486D02*
X89354992Y26452344D01*
X89354992Y26452344D02*
X89234039Y26573296D01*
X89234039Y26573296D02*
X88387372Y26573296D01*
X88387372Y26573296D02*
X88387372Y26089486D01*
X89475944Y27661867D02*
X86935944Y27661867D01*
X86935944Y27661867D02*
X89475944Y29113296D01*
X89475944Y29113296D02*
X86935944Y29113296D01*
X89475944Y30322819D02*
X86935944Y30322819D01*
X86935944Y30322819D02*
X86935944Y30927581D01*
X86935944Y30927581D02*
X87056896Y31290438D01*
X87056896Y31290438D02*
X87298801Y31532343D01*
X87298801Y31532343D02*
X87540706Y31653296D01*
X87540706Y31653296D02*
X88024515Y31774248D01*
X88024515Y31774248D02*
X88387372Y31774248D01*
X88387372Y31774248D02*
X88871182Y31653296D01*
X88871182Y31653296D02*
X89113087Y31532343D01*
X89113087Y31532343D02*
X89354992Y31290438D01*
X89354992Y31290438D02*
X89475944Y30927581D01*
X89475944Y30927581D02*
X89475944Y30322819D01*
X79569944Y51005677D02*
X79569944Y51489486D01*
X79569944Y51489486D02*
X79690896Y51731391D01*
X79690896Y51731391D02*
X79932801Y51973296D01*
X79932801Y51973296D02*
X80416611Y52094248D01*
X80416611Y52094248D02*
X81263277Y52094248D01*
X81263277Y52094248D02*
X81747087Y51973296D01*
X81747087Y51973296D02*
X81988992Y51731391D01*
X81988992Y51731391D02*
X82109944Y51489486D01*
X82109944Y51489486D02*
X82109944Y51005677D01*
X82109944Y51005677D02*
X81988992Y50763772D01*
X81988992Y50763772D02*
X81747087Y50521867D01*
X81747087Y50521867D02*
X81263277Y50400915D01*
X81263277Y50400915D02*
X80416611Y50400915D01*
X80416611Y50400915D02*
X79932801Y50521867D01*
X79932801Y50521867D02*
X79690896Y50763772D01*
X79690896Y50763772D02*
X79569944Y51005677D01*
X79569944Y53182819D02*
X81626134Y53182819D01*
X81626134Y53182819D02*
X81868039Y53303772D01*
X81868039Y53303772D02*
X81988992Y53424724D01*
X81988992Y53424724D02*
X82109944Y53666629D01*
X82109944Y53666629D02*
X82109944Y54150438D01*
X82109944Y54150438D02*
X81988992Y54392343D01*
X81988992Y54392343D02*
X81868039Y54513296D01*
X81868039Y54513296D02*
X81626134Y54634248D01*
X81626134Y54634248D02*
X79569944Y54634248D01*
X79569944Y55480914D02*
X79569944Y56932343D01*
X82109944Y56206629D02*
X79569944Y56206629D01*
D10*
X57346191Y5896181D02*
X58012857Y4896181D01*
X58012857Y5896181D02*
X57346191Y4896181D01*
X58393810Y4896181D02*
X58393810Y5896181D01*
X58393810Y5896181D02*
X58727143Y5181896D01*
X58727143Y5181896D02*
X59060476Y5896181D01*
X59060476Y5896181D02*
X59060476Y4896181D01*
X59536667Y4896181D02*
X59536667Y5896181D01*
X59870000Y5896181D02*
X60441428Y5896181D01*
X60155714Y4896181D02*
X60155714Y5896181D01*
X59834819Y14167143D02*
X59358628Y13833810D01*
X59834819Y13595715D02*
X58834819Y13595715D01*
X58834819Y13595715D02*
X58834819Y13976667D01*
X58834819Y13976667D02*
X58882438Y14071905D01*
X58882438Y14071905D02*
X58930057Y14119524D01*
X58930057Y14119524D02*
X59025295Y14167143D01*
X59025295Y14167143D02*
X59168152Y14167143D01*
X59168152Y14167143D02*
X59263390Y14119524D01*
X59263390Y14119524D02*
X59311009Y14071905D01*
X59311009Y14071905D02*
X59358628Y13976667D01*
X59358628Y13976667D02*
X59358628Y13595715D01*
X59834819Y15119524D02*
X59834819Y14548096D01*
X59834819Y14833810D02*
X58834819Y14833810D01*
X58834819Y14833810D02*
X58977676Y14738572D01*
X58977676Y14738572D02*
X59072914Y14643334D01*
X59072914Y14643334D02*
X59120533Y14548096D01*
X59834819Y16071905D02*
X59834819Y15500477D01*
X59834819Y15786191D02*
X58834819Y15786191D01*
X58834819Y15786191D02*
X58977676Y15690953D01*
X58977676Y15690953D02*
X59072914Y15595715D01*
X59072914Y15595715D02*
X59120533Y15500477D01*
X20782923Y47702881D02*
X20782923Y46893358D01*
X20782923Y46893358D02*
X20830542Y46798120D01*
X20830542Y46798120D02*
X20878161Y46750500D01*
X20878161Y46750500D02*
X20973399Y46702881D01*
X20973399Y46702881D02*
X21163875Y46702881D01*
X21163875Y46702881D02*
X21259113Y46750500D01*
X21259113Y46750500D02*
X21306732Y46798120D01*
X21306732Y46798120D02*
X21354351Y46893358D01*
X21354351Y46893358D02*
X21354351Y47702881D01*
X22259113Y47369548D02*
X22259113Y46702881D01*
X22021018Y47750500D02*
X21782923Y47036215D01*
X21782923Y47036215D02*
X22401970Y47036215D01*
X18611128Y48946846D02*
X18611128Y48708751D01*
X18373033Y48803989D02*
X18611128Y48708751D01*
X18611128Y48708751D02*
X18849223Y48803989D01*
X18468271Y48518275D02*
X18611128Y48708751D01*
X18611128Y48708751D02*
X18753985Y48518275D01*
X70394819Y20687143D02*
X69918628Y20353810D01*
X70394819Y20115715D02*
X69394819Y20115715D01*
X69394819Y20115715D02*
X69394819Y20496667D01*
X69394819Y20496667D02*
X69442438Y20591905D01*
X69442438Y20591905D02*
X69490057Y20639524D01*
X69490057Y20639524D02*
X69585295Y20687143D01*
X69585295Y20687143D02*
X69728152Y20687143D01*
X69728152Y20687143D02*
X69823390Y20639524D01*
X69823390Y20639524D02*
X69871009Y20591905D01*
X69871009Y20591905D02*
X69918628Y20496667D01*
X69918628Y20496667D02*
X69918628Y20115715D01*
X70394819Y21639524D02*
X70394819Y21068096D01*
X70394819Y21353810D02*
X69394819Y21353810D01*
X69394819Y21353810D02*
X69537676Y21258572D01*
X69537676Y21258572D02*
X69632914Y21163334D01*
X69632914Y21163334D02*
X69680533Y21068096D01*
X69394819Y21972858D02*
X69394819Y22591905D01*
X69394819Y22591905D02*
X69775771Y22258572D01*
X69775771Y22258572D02*
X69775771Y22401429D01*
X69775771Y22401429D02*
X69823390Y22496667D01*
X69823390Y22496667D02*
X69871009Y22544286D01*
X69871009Y22544286D02*
X69966247Y22591905D01*
X69966247Y22591905D02*
X70204342Y22591905D01*
X70204342Y22591905D02*
X70299580Y22544286D01*
X70299580Y22544286D02*
X70347200Y22496667D01*
X70347200Y22496667D02*
X70394819Y22401429D01*
X70394819Y22401429D02*
X70394819Y22115715D01*
X70394819Y22115715D02*
X70347200Y22020477D01*
X70347200Y22020477D02*
X70299580Y21972858D01*
X83268095Y13085181D02*
X83839523Y13085181D01*
X83553809Y12085181D02*
X83553809Y13085181D01*
X84696666Y12085181D02*
X84125238Y12085181D01*
X84410952Y12085181D02*
X84410952Y13085181D01*
X84410952Y13085181D02*
X84315714Y12942324D01*
X84315714Y12942324D02*
X84220476Y12847086D01*
X84220476Y12847086D02*
X84125238Y12799467D01*
X62890819Y43003334D02*
X62414628Y42670001D01*
X62890819Y42431906D02*
X61890819Y42431906D01*
X61890819Y42431906D02*
X61890819Y42812858D01*
X61890819Y42812858D02*
X61938438Y42908096D01*
X61938438Y42908096D02*
X61986057Y42955715D01*
X61986057Y42955715D02*
X62081295Y43003334D01*
X62081295Y43003334D02*
X62224152Y43003334D01*
X62224152Y43003334D02*
X62319390Y42955715D01*
X62319390Y42955715D02*
X62367009Y42908096D01*
X62367009Y42908096D02*
X62414628Y42812858D01*
X62414628Y42812858D02*
X62414628Y42431906D01*
X62224152Y43860477D02*
X62890819Y43860477D01*
X61843200Y43622382D02*
X62557485Y43384287D01*
X62557485Y43384287D02*
X62557485Y44003334D01*
X32409580Y30602143D02*
X32457200Y30554524D01*
X32457200Y30554524D02*
X32504819Y30411667D01*
X32504819Y30411667D02*
X32504819Y30316429D01*
X32504819Y30316429D02*
X32457200Y30173572D01*
X32457200Y30173572D02*
X32361961Y30078334D01*
X32361961Y30078334D02*
X32266723Y30030715D01*
X32266723Y30030715D02*
X32076247Y29983096D01*
X32076247Y29983096D02*
X31933390Y29983096D01*
X31933390Y29983096D02*
X31742914Y30030715D01*
X31742914Y30030715D02*
X31647676Y30078334D01*
X31647676Y30078334D02*
X31552438Y30173572D01*
X31552438Y30173572D02*
X31504819Y30316429D01*
X31504819Y30316429D02*
X31504819Y30411667D01*
X31504819Y30411667D02*
X31552438Y30554524D01*
X31552438Y30554524D02*
X31600057Y30602143D01*
X31600057Y30983096D02*
X31552438Y31030715D01*
X31552438Y31030715D02*
X31504819Y31125953D01*
X31504819Y31125953D02*
X31504819Y31364048D01*
X31504819Y31364048D02*
X31552438Y31459286D01*
X31552438Y31459286D02*
X31600057Y31506905D01*
X31600057Y31506905D02*
X31695295Y31554524D01*
X31695295Y31554524D02*
X31790533Y31554524D01*
X31790533Y31554524D02*
X31933390Y31506905D01*
X31933390Y31506905D02*
X32504819Y30935477D01*
X32504819Y30935477D02*
X32504819Y31554524D01*
X31504819Y32459286D02*
X31504819Y31983096D01*
X31504819Y31983096D02*
X31981009Y31935477D01*
X31981009Y31935477D02*
X31933390Y31983096D01*
X31933390Y31983096D02*
X31885771Y32078334D01*
X31885771Y32078334D02*
X31885771Y32316429D01*
X31885771Y32316429D02*
X31933390Y32411667D01*
X31933390Y32411667D02*
X31981009Y32459286D01*
X31981009Y32459286D02*
X32076247Y32506905D01*
X32076247Y32506905D02*
X32314342Y32506905D01*
X32314342Y32506905D02*
X32409580Y32459286D01*
X32409580Y32459286D02*
X32457200Y32411667D01*
X32457200Y32411667D02*
X32504819Y32316429D01*
X32504819Y32316429D02*
X32504819Y32078334D01*
X32504819Y32078334D02*
X32457200Y31983096D01*
X32457200Y31983096D02*
X32409580Y31935477D01*
X74099580Y55233334D02*
X74147200Y55185715D01*
X74147200Y55185715D02*
X74194819Y55042858D01*
X74194819Y55042858D02*
X74194819Y54947620D01*
X74194819Y54947620D02*
X74147200Y54804763D01*
X74147200Y54804763D02*
X74051961Y54709525D01*
X74051961Y54709525D02*
X73956723Y54661906D01*
X73956723Y54661906D02*
X73766247Y54614287D01*
X73766247Y54614287D02*
X73623390Y54614287D01*
X73623390Y54614287D02*
X73432914Y54661906D01*
X73432914Y54661906D02*
X73337676Y54709525D01*
X73337676Y54709525D02*
X73242438Y54804763D01*
X73242438Y54804763D02*
X73194819Y54947620D01*
X73194819Y54947620D02*
X73194819Y55042858D01*
X73194819Y55042858D02*
X73242438Y55185715D01*
X73242438Y55185715D02*
X73290057Y55233334D01*
X74194819Y55709525D02*
X74194819Y55900001D01*
X74194819Y55900001D02*
X74147200Y55995239D01*
X74147200Y55995239D02*
X74099580Y56042858D01*
X74099580Y56042858D02*
X73956723Y56138096D01*
X73956723Y56138096D02*
X73766247Y56185715D01*
X73766247Y56185715D02*
X73385295Y56185715D01*
X73385295Y56185715D02*
X73290057Y56138096D01*
X73290057Y56138096D02*
X73242438Y56090477D01*
X73242438Y56090477D02*
X73194819Y55995239D01*
X73194819Y55995239D02*
X73194819Y55804763D01*
X73194819Y55804763D02*
X73242438Y55709525D01*
X73242438Y55709525D02*
X73290057Y55661906D01*
X73290057Y55661906D02*
X73385295Y55614287D01*
X73385295Y55614287D02*
X73623390Y55614287D01*
X73623390Y55614287D02*
X73718628Y55661906D01*
X73718628Y55661906D02*
X73766247Y55709525D01*
X73766247Y55709525D02*
X73813866Y55804763D01*
X73813866Y55804763D02*
X73813866Y55995239D01*
X73813866Y55995239D02*
X73766247Y56090477D01*
X73766247Y56090477D02*
X73718628Y56138096D01*
X73718628Y56138096D02*
X73623390Y56185715D01*
X65169580Y51457143D02*
X65217200Y51409524D01*
X65217200Y51409524D02*
X65264819Y51266667D01*
X65264819Y51266667D02*
X65264819Y51171429D01*
X65264819Y51171429D02*
X65217200Y51028572D01*
X65217200Y51028572D02*
X65121961Y50933334D01*
X65121961Y50933334D02*
X65026723Y50885715D01*
X65026723Y50885715D02*
X64836247Y50838096D01*
X64836247Y50838096D02*
X64693390Y50838096D01*
X64693390Y50838096D02*
X64502914Y50885715D01*
X64502914Y50885715D02*
X64407676Y50933334D01*
X64407676Y50933334D02*
X64312438Y51028572D01*
X64312438Y51028572D02*
X64264819Y51171429D01*
X64264819Y51171429D02*
X64264819Y51266667D01*
X64264819Y51266667D02*
X64312438Y51409524D01*
X64312438Y51409524D02*
X64360057Y51457143D01*
X65264819Y52409524D02*
X65264819Y51838096D01*
X65264819Y52123810D02*
X64264819Y52123810D01*
X64264819Y52123810D02*
X64407676Y52028572D01*
X64407676Y52028572D02*
X64502914Y51933334D01*
X64502914Y51933334D02*
X64550533Y51838096D01*
X65264819Y53361905D02*
X65264819Y52790477D01*
X65264819Y53076191D02*
X64264819Y53076191D01*
X64264819Y53076191D02*
X64407676Y52980953D01*
X64407676Y52980953D02*
X64502914Y52885715D01*
X64502914Y52885715D02*
X64550533Y52790477D01*
X59089580Y62207143D02*
X59137200Y62159524D01*
X59137200Y62159524D02*
X59184819Y62016667D01*
X59184819Y62016667D02*
X59184819Y61921429D01*
X59184819Y61921429D02*
X59137200Y61778572D01*
X59137200Y61778572D02*
X59041961Y61683334D01*
X59041961Y61683334D02*
X58946723Y61635715D01*
X58946723Y61635715D02*
X58756247Y61588096D01*
X58756247Y61588096D02*
X58613390Y61588096D01*
X58613390Y61588096D02*
X58422914Y61635715D01*
X58422914Y61635715D02*
X58327676Y61683334D01*
X58327676Y61683334D02*
X58232438Y61778572D01*
X58232438Y61778572D02*
X58184819Y61921429D01*
X58184819Y61921429D02*
X58184819Y62016667D01*
X58184819Y62016667D02*
X58232438Y62159524D01*
X58232438Y62159524D02*
X58280057Y62207143D01*
X59184819Y63159524D02*
X59184819Y62588096D01*
X59184819Y62873810D02*
X58184819Y62873810D01*
X58184819Y62873810D02*
X58327676Y62778572D01*
X58327676Y62778572D02*
X58422914Y62683334D01*
X58422914Y62683334D02*
X58470533Y62588096D01*
X58184819Y63492858D02*
X58184819Y64111905D01*
X58184819Y64111905D02*
X58565771Y63778572D01*
X58565771Y63778572D02*
X58565771Y63921429D01*
X58565771Y63921429D02*
X58613390Y64016667D01*
X58613390Y64016667D02*
X58661009Y64064286D01*
X58661009Y64064286D02*
X58756247Y64111905D01*
X58756247Y64111905D02*
X58994342Y64111905D01*
X58994342Y64111905D02*
X59089580Y64064286D01*
X59089580Y64064286D02*
X59137200Y64016667D01*
X59137200Y64016667D02*
X59184819Y63921429D01*
X59184819Y63921429D02*
X59184819Y63635715D01*
X59184819Y63635715D02*
X59137200Y63540477D01*
X59137200Y63540477D02*
X59089580Y63492858D01*
X69967142Y37070420D02*
X69919523Y37022800D01*
X69919523Y37022800D02*
X69776666Y36975181D01*
X69776666Y36975181D02*
X69681428Y36975181D01*
X69681428Y36975181D02*
X69538571Y37022800D01*
X69538571Y37022800D02*
X69443333Y37118039D01*
X69443333Y37118039D02*
X69395714Y37213277D01*
X69395714Y37213277D02*
X69348095Y37403753D01*
X69348095Y37403753D02*
X69348095Y37546610D01*
X69348095Y37546610D02*
X69395714Y37737086D01*
X69395714Y37737086D02*
X69443333Y37832324D01*
X69443333Y37832324D02*
X69538571Y37927562D01*
X69538571Y37927562D02*
X69681428Y37975181D01*
X69681428Y37975181D02*
X69776666Y37975181D01*
X69776666Y37975181D02*
X69919523Y37927562D01*
X69919523Y37927562D02*
X69967142Y37879943D01*
X70348095Y37879943D02*
X70395714Y37927562D01*
X70395714Y37927562D02*
X70490952Y37975181D01*
X70490952Y37975181D02*
X70729047Y37975181D01*
X70729047Y37975181D02*
X70824285Y37927562D01*
X70824285Y37927562D02*
X70871904Y37879943D01*
X70871904Y37879943D02*
X70919523Y37784705D01*
X70919523Y37784705D02*
X70919523Y37689467D01*
X70919523Y37689467D02*
X70871904Y37546610D01*
X70871904Y37546610D02*
X70300476Y36975181D01*
X70300476Y36975181D02*
X70919523Y36975181D01*
X71252857Y37975181D02*
X71871904Y37975181D01*
X71871904Y37975181D02*
X71538571Y37594229D01*
X71538571Y37594229D02*
X71681428Y37594229D01*
X71681428Y37594229D02*
X71776666Y37546610D01*
X71776666Y37546610D02*
X71824285Y37498991D01*
X71824285Y37498991D02*
X71871904Y37403753D01*
X71871904Y37403753D02*
X71871904Y37165658D01*
X71871904Y37165658D02*
X71824285Y37070420D01*
X71824285Y37070420D02*
X71776666Y37022800D01*
X71776666Y37022800D02*
X71681428Y36975181D01*
X71681428Y36975181D02*
X71395714Y36975181D01*
X71395714Y36975181D02*
X71300476Y37022800D01*
X71300476Y37022800D02*
X71252857Y37070420D01*
X30168095Y49505181D02*
X30739523Y49505181D01*
X30453809Y48505181D02*
X30453809Y49505181D01*
X31072857Y48505181D02*
X31072857Y49505181D01*
X31072857Y49505181D02*
X31453809Y49505181D01*
X31453809Y49505181D02*
X31549047Y49457562D01*
X31549047Y49457562D02*
X31596666Y49409943D01*
X31596666Y49409943D02*
X31644285Y49314705D01*
X31644285Y49314705D02*
X31644285Y49171848D01*
X31644285Y49171848D02*
X31596666Y49076610D01*
X31596666Y49076610D02*
X31549047Y49028991D01*
X31549047Y49028991D02*
X31453809Y48981372D01*
X31453809Y48981372D02*
X31072857Y48981372D01*
X31977619Y49505181D02*
X32596666Y49505181D01*
X32596666Y49505181D02*
X32263333Y49124229D01*
X32263333Y49124229D02*
X32406190Y49124229D01*
X32406190Y49124229D02*
X32501428Y49076610D01*
X32501428Y49076610D02*
X32549047Y49028991D01*
X32549047Y49028991D02*
X32596666Y48933753D01*
X32596666Y48933753D02*
X32596666Y48695658D01*
X32596666Y48695658D02*
X32549047Y48600420D01*
X32549047Y48600420D02*
X32501428Y48552800D01*
X32501428Y48552800D02*
X32406190Y48505181D01*
X32406190Y48505181D02*
X32120476Y48505181D01*
X32120476Y48505181D02*
X32025238Y48552800D01*
X32025238Y48552800D02*
X31977619Y48600420D01*
X59009580Y65917143D02*
X59057200Y65869524D01*
X59057200Y65869524D02*
X59104819Y65726667D01*
X59104819Y65726667D02*
X59104819Y65631429D01*
X59104819Y65631429D02*
X59057200Y65488572D01*
X59057200Y65488572D02*
X58961961Y65393334D01*
X58961961Y65393334D02*
X58866723Y65345715D01*
X58866723Y65345715D02*
X58676247Y65298096D01*
X58676247Y65298096D02*
X58533390Y65298096D01*
X58533390Y65298096D02*
X58342914Y65345715D01*
X58342914Y65345715D02*
X58247676Y65393334D01*
X58247676Y65393334D02*
X58152438Y65488572D01*
X58152438Y65488572D02*
X58104819Y65631429D01*
X58104819Y65631429D02*
X58104819Y65726667D01*
X58104819Y65726667D02*
X58152438Y65869524D01*
X58152438Y65869524D02*
X58200057Y65917143D01*
X59104819Y66869524D02*
X59104819Y66298096D01*
X59104819Y66583810D02*
X58104819Y66583810D01*
X58104819Y66583810D02*
X58247676Y66488572D01*
X58247676Y66488572D02*
X58342914Y66393334D01*
X58342914Y66393334D02*
X58390533Y66298096D01*
X58438152Y67726667D02*
X59104819Y67726667D01*
X58057200Y67488572D02*
X58771485Y67250477D01*
X58771485Y67250477D02*
X58771485Y67869524D01*
D13*
X63422219Y4558096D02*
X63422219Y5129524D01*
X64422219Y4843810D02*
X63422219Y4843810D01*
X64422219Y5462858D02*
X63422219Y5462858D01*
X63422219Y5462858D02*
X63422219Y5843810D01*
X63422219Y5843810D02*
X63469838Y5939048D01*
X63469838Y5939048D02*
X63517457Y5986667D01*
X63517457Y5986667D02*
X63612695Y6034286D01*
X63612695Y6034286D02*
X63755552Y6034286D01*
X63755552Y6034286D02*
X63850790Y5986667D01*
X63850790Y5986667D02*
X63898409Y5939048D01*
X63898409Y5939048D02*
X63946028Y5843810D01*
X63946028Y5843810D02*
X63946028Y5462858D01*
X63422219Y6939048D02*
X63422219Y6462858D01*
X63422219Y6462858D02*
X63898409Y6415239D01*
X63898409Y6415239D02*
X63850790Y6462858D01*
X63850790Y6462858D02*
X63803171Y6558096D01*
X63803171Y6558096D02*
X63803171Y6796191D01*
X63803171Y6796191D02*
X63850790Y6891429D01*
X63850790Y6891429D02*
X63898409Y6939048D01*
X63898409Y6939048D02*
X63993647Y6986667D01*
X63993647Y6986667D02*
X64231742Y6986667D01*
X64231742Y6986667D02*
X64326980Y6939048D01*
X64326980Y6939048D02*
X64374600Y6891429D01*
X64374600Y6891429D02*
X64422219Y6796191D01*
X64422219Y6796191D02*
X64422219Y6558096D01*
X64422219Y6558096D02*
X64374600Y6462858D01*
X64374600Y6462858D02*
X64326980Y6415239D01*
D10*
X33504819Y24043334D02*
X33028628Y23710001D01*
X33504819Y23471906D02*
X32504819Y23471906D01*
X32504819Y23471906D02*
X32504819Y23852858D01*
X32504819Y23852858D02*
X32552438Y23948096D01*
X32552438Y23948096D02*
X32600057Y23995715D01*
X32600057Y23995715D02*
X32695295Y24043334D01*
X32695295Y24043334D02*
X32838152Y24043334D01*
X32838152Y24043334D02*
X32933390Y23995715D01*
X32933390Y23995715D02*
X32981009Y23948096D01*
X32981009Y23948096D02*
X33028628Y23852858D01*
X33028628Y23852858D02*
X33028628Y23471906D01*
X32933390Y24614763D02*
X32885771Y24519525D01*
X32885771Y24519525D02*
X32838152Y24471906D01*
X32838152Y24471906D02*
X32742914Y24424287D01*
X32742914Y24424287D02*
X32695295Y24424287D01*
X32695295Y24424287D02*
X32600057Y24471906D01*
X32600057Y24471906D02*
X32552438Y24519525D01*
X32552438Y24519525D02*
X32504819Y24614763D01*
X32504819Y24614763D02*
X32504819Y24805239D01*
X32504819Y24805239D02*
X32552438Y24900477D01*
X32552438Y24900477D02*
X32600057Y24948096D01*
X32600057Y24948096D02*
X32695295Y24995715D01*
X32695295Y24995715D02*
X32742914Y24995715D01*
X32742914Y24995715D02*
X32838152Y24948096D01*
X32838152Y24948096D02*
X32885771Y24900477D01*
X32885771Y24900477D02*
X32933390Y24805239D01*
X32933390Y24805239D02*
X32933390Y24614763D01*
X32933390Y24614763D02*
X32981009Y24519525D01*
X32981009Y24519525D02*
X33028628Y24471906D01*
X33028628Y24471906D02*
X33123866Y24424287D01*
X33123866Y24424287D02*
X33314342Y24424287D01*
X33314342Y24424287D02*
X33409580Y24471906D01*
X33409580Y24471906D02*
X33457200Y24519525D01*
X33457200Y24519525D02*
X33504819Y24614763D01*
X33504819Y24614763D02*
X33504819Y24805239D01*
X33504819Y24805239D02*
X33457200Y24900477D01*
X33457200Y24900477D02*
X33409580Y24948096D01*
X33409580Y24948096D02*
X33314342Y24995715D01*
X33314342Y24995715D02*
X33123866Y24995715D01*
X33123866Y24995715D02*
X33028628Y24948096D01*
X33028628Y24948096D02*
X32981009Y24900477D01*
X32981009Y24900477D02*
X32933390Y24805239D01*
X60858819Y36399334D02*
X60382628Y36066001D01*
X60858819Y35827906D02*
X59858819Y35827906D01*
X59858819Y35827906D02*
X59858819Y36208858D01*
X59858819Y36208858D02*
X59906438Y36304096D01*
X59906438Y36304096D02*
X59954057Y36351715D01*
X59954057Y36351715D02*
X60049295Y36399334D01*
X60049295Y36399334D02*
X60192152Y36399334D01*
X60192152Y36399334D02*
X60287390Y36351715D01*
X60287390Y36351715D02*
X60335009Y36304096D01*
X60335009Y36304096D02*
X60382628Y36208858D01*
X60382628Y36208858D02*
X60382628Y35827906D01*
X59858819Y37304096D02*
X59858819Y36827906D01*
X59858819Y36827906D02*
X60335009Y36780287D01*
X60335009Y36780287D02*
X60287390Y36827906D01*
X60287390Y36827906D02*
X60239771Y36923144D01*
X60239771Y36923144D02*
X60239771Y37161239D01*
X60239771Y37161239D02*
X60287390Y37256477D01*
X60287390Y37256477D02*
X60335009Y37304096D01*
X60335009Y37304096D02*
X60430247Y37351715D01*
X60430247Y37351715D02*
X60668342Y37351715D01*
X60668342Y37351715D02*
X60763580Y37304096D01*
X60763580Y37304096D02*
X60811200Y37256477D01*
X60811200Y37256477D02*
X60858819Y37161239D01*
X60858819Y37161239D02*
X60858819Y36923144D01*
X60858819Y36923144D02*
X60811200Y36827906D01*
X60811200Y36827906D02*
X60763580Y36780287D01*
X63954819Y63368096D02*
X64764342Y63368096D01*
X64764342Y63368096D02*
X64859580Y63415715D01*
X64859580Y63415715D02*
X64907200Y63463334D01*
X64907200Y63463334D02*
X64954819Y63558572D01*
X64954819Y63558572D02*
X64954819Y63749048D01*
X64954819Y63749048D02*
X64907200Y63844286D01*
X64907200Y63844286D02*
X64859580Y63891905D01*
X64859580Y63891905D02*
X64764342Y63939524D01*
X64764342Y63939524D02*
X63954819Y63939524D01*
X64050057Y64368096D02*
X64002438Y64415715D01*
X64002438Y64415715D02*
X63954819Y64510953D01*
X63954819Y64510953D02*
X63954819Y64749048D01*
X63954819Y64749048D02*
X64002438Y64844286D01*
X64002438Y64844286D02*
X64050057Y64891905D01*
X64050057Y64891905D02*
X64145295Y64939524D01*
X64145295Y64939524D02*
X64240533Y64939524D01*
X64240533Y64939524D02*
X64383390Y64891905D01*
X64383390Y64891905D02*
X64954819Y64320477D01*
X64954819Y64320477D02*
X64954819Y64939524D01*
X9146666Y61335181D02*
X9146666Y60620896D01*
X9146666Y60620896D02*
X9099047Y60478039D01*
X9099047Y60478039D02*
X9003809Y60382800D01*
X9003809Y60382800D02*
X8860952Y60335181D01*
X8860952Y60335181D02*
X8765714Y60335181D01*
X9527619Y61335181D02*
X10146666Y61335181D01*
X10146666Y61335181D02*
X9813333Y60954229D01*
X9813333Y60954229D02*
X9956190Y60954229D01*
X9956190Y60954229D02*
X10051428Y60906610D01*
X10051428Y60906610D02*
X10099047Y60858991D01*
X10099047Y60858991D02*
X10146666Y60763753D01*
X10146666Y60763753D02*
X10146666Y60525658D01*
X10146666Y60525658D02*
X10099047Y60430420D01*
X10099047Y60430420D02*
X10051428Y60382800D01*
X10051428Y60382800D02*
X9956190Y60335181D01*
X9956190Y60335181D02*
X9670476Y60335181D01*
X9670476Y60335181D02*
X9575238Y60382800D01*
X9575238Y60382800D02*
X9527619Y60430420D01*
X68233333Y40985181D02*
X67900000Y41461372D01*
X67661905Y40985181D02*
X67661905Y41985181D01*
X67661905Y41985181D02*
X68042857Y41985181D01*
X68042857Y41985181D02*
X68138095Y41937562D01*
X68138095Y41937562D02*
X68185714Y41889943D01*
X68185714Y41889943D02*
X68233333Y41794705D01*
X68233333Y41794705D02*
X68233333Y41651848D01*
X68233333Y41651848D02*
X68185714Y41556610D01*
X68185714Y41556610D02*
X68138095Y41508991D01*
X68138095Y41508991D02*
X68042857Y41461372D01*
X68042857Y41461372D02*
X67661905Y41461372D01*
X69090476Y41985181D02*
X68900000Y41985181D01*
X68900000Y41985181D02*
X68804762Y41937562D01*
X68804762Y41937562D02*
X68757143Y41889943D01*
X68757143Y41889943D02*
X68661905Y41747086D01*
X68661905Y41747086D02*
X68614286Y41556610D01*
X68614286Y41556610D02*
X68614286Y41175658D01*
X68614286Y41175658D02*
X68661905Y41080420D01*
X68661905Y41080420D02*
X68709524Y41032800D01*
X68709524Y41032800D02*
X68804762Y40985181D01*
X68804762Y40985181D02*
X68995238Y40985181D01*
X68995238Y40985181D02*
X69090476Y41032800D01*
X69090476Y41032800D02*
X69138095Y41080420D01*
X69138095Y41080420D02*
X69185714Y41175658D01*
X69185714Y41175658D02*
X69185714Y41413753D01*
X69185714Y41413753D02*
X69138095Y41508991D01*
X69138095Y41508991D02*
X69090476Y41556610D01*
X69090476Y41556610D02*
X68995238Y41604229D01*
X68995238Y41604229D02*
X68804762Y41604229D01*
X68804762Y41604229D02*
X68709524Y41556610D01*
X68709524Y41556610D02*
X68661905Y41508991D01*
X68661905Y41508991D02*
X68614286Y41413753D01*
X25669580Y41657143D02*
X25717200Y41609524D01*
X25717200Y41609524D02*
X25764819Y41466667D01*
X25764819Y41466667D02*
X25764819Y41371429D01*
X25764819Y41371429D02*
X25717200Y41228572D01*
X25717200Y41228572D02*
X25621961Y41133334D01*
X25621961Y41133334D02*
X25526723Y41085715D01*
X25526723Y41085715D02*
X25336247Y41038096D01*
X25336247Y41038096D02*
X25193390Y41038096D01*
X25193390Y41038096D02*
X25002914Y41085715D01*
X25002914Y41085715D02*
X24907676Y41133334D01*
X24907676Y41133334D02*
X24812438Y41228572D01*
X24812438Y41228572D02*
X24764819Y41371429D01*
X24764819Y41371429D02*
X24764819Y41466667D01*
X24764819Y41466667D02*
X24812438Y41609524D01*
X24812438Y41609524D02*
X24860057Y41657143D01*
X24860057Y42038096D02*
X24812438Y42085715D01*
X24812438Y42085715D02*
X24764819Y42180953D01*
X24764819Y42180953D02*
X24764819Y42419048D01*
X24764819Y42419048D02*
X24812438Y42514286D01*
X24812438Y42514286D02*
X24860057Y42561905D01*
X24860057Y42561905D02*
X24955295Y42609524D01*
X24955295Y42609524D02*
X25050533Y42609524D01*
X25050533Y42609524D02*
X25193390Y42561905D01*
X25193390Y42561905D02*
X25764819Y41990477D01*
X25764819Y41990477D02*
X25764819Y42609524D01*
X25764819Y43561905D02*
X25764819Y42990477D01*
X25764819Y43276191D02*
X24764819Y43276191D01*
X24764819Y43276191D02*
X24907676Y43180953D01*
X24907676Y43180953D02*
X25002914Y43085715D01*
X25002914Y43085715D02*
X25050533Y42990477D01*
X8079580Y50847143D02*
X8127200Y50799524D01*
X8127200Y50799524D02*
X8174819Y50656667D01*
X8174819Y50656667D02*
X8174819Y50561429D01*
X8174819Y50561429D02*
X8127200Y50418572D01*
X8127200Y50418572D02*
X8031961Y50323334D01*
X8031961Y50323334D02*
X7936723Y50275715D01*
X7936723Y50275715D02*
X7746247Y50228096D01*
X7746247Y50228096D02*
X7603390Y50228096D01*
X7603390Y50228096D02*
X7412914Y50275715D01*
X7412914Y50275715D02*
X7317676Y50323334D01*
X7317676Y50323334D02*
X7222438Y50418572D01*
X7222438Y50418572D02*
X7174819Y50561429D01*
X7174819Y50561429D02*
X7174819Y50656667D01*
X7174819Y50656667D02*
X7222438Y50799524D01*
X7222438Y50799524D02*
X7270057Y50847143D01*
X7270057Y51228096D02*
X7222438Y51275715D01*
X7222438Y51275715D02*
X7174819Y51370953D01*
X7174819Y51370953D02*
X7174819Y51609048D01*
X7174819Y51609048D02*
X7222438Y51704286D01*
X7222438Y51704286D02*
X7270057Y51751905D01*
X7270057Y51751905D02*
X7365295Y51799524D01*
X7365295Y51799524D02*
X7460533Y51799524D01*
X7460533Y51799524D02*
X7603390Y51751905D01*
X7603390Y51751905D02*
X8174819Y51180477D01*
X8174819Y51180477D02*
X8174819Y51799524D01*
X7174819Y52132858D02*
X7174819Y52799524D01*
X7174819Y52799524D02*
X8174819Y52370953D01*
X60350819Y51639334D02*
X59874628Y51306001D01*
X60350819Y51067906D02*
X59350819Y51067906D01*
X59350819Y51067906D02*
X59350819Y51448858D01*
X59350819Y51448858D02*
X59398438Y51544096D01*
X59398438Y51544096D02*
X59446057Y51591715D01*
X59446057Y51591715D02*
X59541295Y51639334D01*
X59541295Y51639334D02*
X59684152Y51639334D01*
X59684152Y51639334D02*
X59779390Y51591715D01*
X59779390Y51591715D02*
X59827009Y51544096D01*
X59827009Y51544096D02*
X59874628Y51448858D01*
X59874628Y51448858D02*
X59874628Y51067906D01*
X59350819Y51972668D02*
X59350819Y52591715D01*
X59350819Y52591715D02*
X59731771Y52258382D01*
X59731771Y52258382D02*
X59731771Y52401239D01*
X59731771Y52401239D02*
X59779390Y52496477D01*
X59779390Y52496477D02*
X59827009Y52544096D01*
X59827009Y52544096D02*
X59922247Y52591715D01*
X59922247Y52591715D02*
X60160342Y52591715D01*
X60160342Y52591715D02*
X60255580Y52544096D01*
X60255580Y52544096D02*
X60303200Y52496477D01*
X60303200Y52496477D02*
X60350819Y52401239D01*
X60350819Y52401239D02*
X60350819Y52115525D01*
X60350819Y52115525D02*
X60303200Y52020287D01*
X60303200Y52020287D02*
X60255580Y51972668D01*
X24549580Y56047143D02*
X24597200Y55999524D01*
X24597200Y55999524D02*
X24644819Y55856667D01*
X24644819Y55856667D02*
X24644819Y55761429D01*
X24644819Y55761429D02*
X24597200Y55618572D01*
X24597200Y55618572D02*
X24501961Y55523334D01*
X24501961Y55523334D02*
X24406723Y55475715D01*
X24406723Y55475715D02*
X24216247Y55428096D01*
X24216247Y55428096D02*
X24073390Y55428096D01*
X24073390Y55428096D02*
X23882914Y55475715D01*
X23882914Y55475715D02*
X23787676Y55523334D01*
X23787676Y55523334D02*
X23692438Y55618572D01*
X23692438Y55618572D02*
X23644819Y55761429D01*
X23644819Y55761429D02*
X23644819Y55856667D01*
X23644819Y55856667D02*
X23692438Y55999524D01*
X23692438Y55999524D02*
X23740057Y56047143D01*
X24644819Y56999524D02*
X24644819Y56428096D01*
X24644819Y56713810D02*
X23644819Y56713810D01*
X23644819Y56713810D02*
X23787676Y56618572D01*
X23787676Y56618572D02*
X23882914Y56523334D01*
X23882914Y56523334D02*
X23930533Y56428096D01*
X24073390Y57570953D02*
X24025771Y57475715D01*
X24025771Y57475715D02*
X23978152Y57428096D01*
X23978152Y57428096D02*
X23882914Y57380477D01*
X23882914Y57380477D02*
X23835295Y57380477D01*
X23835295Y57380477D02*
X23740057Y57428096D01*
X23740057Y57428096D02*
X23692438Y57475715D01*
X23692438Y57475715D02*
X23644819Y57570953D01*
X23644819Y57570953D02*
X23644819Y57761429D01*
X23644819Y57761429D02*
X23692438Y57856667D01*
X23692438Y57856667D02*
X23740057Y57904286D01*
X23740057Y57904286D02*
X23835295Y57951905D01*
X23835295Y57951905D02*
X23882914Y57951905D01*
X23882914Y57951905D02*
X23978152Y57904286D01*
X23978152Y57904286D02*
X24025771Y57856667D01*
X24025771Y57856667D02*
X24073390Y57761429D01*
X24073390Y57761429D02*
X24073390Y57570953D01*
X24073390Y57570953D02*
X24121009Y57475715D01*
X24121009Y57475715D02*
X24168628Y57428096D01*
X24168628Y57428096D02*
X24263866Y57380477D01*
X24263866Y57380477D02*
X24454342Y57380477D01*
X24454342Y57380477D02*
X24549580Y57428096D01*
X24549580Y57428096D02*
X24597200Y57475715D01*
X24597200Y57475715D02*
X24644819Y57570953D01*
X24644819Y57570953D02*
X24644819Y57761429D01*
X24644819Y57761429D02*
X24597200Y57856667D01*
X24597200Y57856667D02*
X24549580Y57904286D01*
X24549580Y57904286D02*
X24454342Y57951905D01*
X24454342Y57951905D02*
X24263866Y57951905D01*
X24263866Y57951905D02*
X24168628Y57904286D01*
X24168628Y57904286D02*
X24121009Y57856667D01*
X24121009Y57856667D02*
X24073390Y57761429D01*
X1096666Y60095181D02*
X1096666Y59380896D01*
X1096666Y59380896D02*
X1049047Y59238039D01*
X1049047Y59238039D02*
X953809Y59142800D01*
X953809Y59142800D02*
X810952Y59095181D01*
X810952Y59095181D02*
X715714Y59095181D01*
X2049047Y60095181D02*
X1572857Y60095181D01*
X1572857Y60095181D02*
X1525238Y59618991D01*
X1525238Y59618991D02*
X1572857Y59666610D01*
X1572857Y59666610D02*
X1668095Y59714229D01*
X1668095Y59714229D02*
X1906190Y59714229D01*
X1906190Y59714229D02*
X2001428Y59666610D01*
X2001428Y59666610D02*
X2049047Y59618991D01*
X2049047Y59618991D02*
X2096666Y59523753D01*
X2096666Y59523753D02*
X2096666Y59285658D01*
X2096666Y59285658D02*
X2049047Y59190420D01*
X2049047Y59190420D02*
X2001428Y59142800D01*
X2001428Y59142800D02*
X1906190Y59095181D01*
X1906190Y59095181D02*
X1668095Y59095181D01*
X1668095Y59095181D02*
X1572857Y59142800D01*
X1572857Y59142800D02*
X1525238Y59190420D01*
X2184819Y29788096D02*
X1184819Y29788096D01*
X1661009Y29788096D02*
X1661009Y30359524D01*
X2184819Y30359524D02*
X1184819Y30359524D01*
X1184819Y30740477D02*
X2184819Y31407143D01*
X1184819Y31407143D02*
X2184819Y30740477D01*
X1613390Y31930953D02*
X1565771Y31835715D01*
X1565771Y31835715D02*
X1518152Y31788096D01*
X1518152Y31788096D02*
X1422914Y31740477D01*
X1422914Y31740477D02*
X1375295Y31740477D01*
X1375295Y31740477D02*
X1280057Y31788096D01*
X1280057Y31788096D02*
X1232438Y31835715D01*
X1232438Y31835715D02*
X1184819Y31930953D01*
X1184819Y31930953D02*
X1184819Y32121429D01*
X1184819Y32121429D02*
X1232438Y32216667D01*
X1232438Y32216667D02*
X1280057Y32264286D01*
X1280057Y32264286D02*
X1375295Y32311905D01*
X1375295Y32311905D02*
X1422914Y32311905D01*
X1422914Y32311905D02*
X1518152Y32264286D01*
X1518152Y32264286D02*
X1565771Y32216667D01*
X1565771Y32216667D02*
X1613390Y32121429D01*
X1613390Y32121429D02*
X1613390Y31930953D01*
X1613390Y31930953D02*
X1661009Y31835715D01*
X1661009Y31835715D02*
X1708628Y31788096D01*
X1708628Y31788096D02*
X1803866Y31740477D01*
X1803866Y31740477D02*
X1994342Y31740477D01*
X1994342Y31740477D02*
X2089580Y31788096D01*
X2089580Y31788096D02*
X2137200Y31835715D01*
X2137200Y31835715D02*
X2184819Y31930953D01*
X2184819Y31930953D02*
X2184819Y32121429D01*
X2184819Y32121429D02*
X2137200Y32216667D01*
X2137200Y32216667D02*
X2089580Y32264286D01*
X2089580Y32264286D02*
X1994342Y32311905D01*
X1994342Y32311905D02*
X1803866Y32311905D01*
X1803866Y32311905D02*
X1708628Y32264286D01*
X1708628Y32264286D02*
X1661009Y32216667D01*
X1661009Y32216667D02*
X1613390Y32121429D01*
X1184819Y32645239D02*
X1184819Y33264286D01*
X1184819Y33264286D02*
X1565771Y32930953D01*
X1565771Y32930953D02*
X1565771Y33073810D01*
X1565771Y33073810D02*
X1613390Y33169048D01*
X1613390Y33169048D02*
X1661009Y33216667D01*
X1661009Y33216667D02*
X1756247Y33264286D01*
X1756247Y33264286D02*
X1994342Y33264286D01*
X1994342Y33264286D02*
X2089580Y33216667D01*
X2089580Y33216667D02*
X2137200Y33169048D01*
X2137200Y33169048D02*
X2184819Y33073810D01*
X2184819Y33073810D02*
X2184819Y32788096D01*
X2184819Y32788096D02*
X2137200Y32692858D01*
X2137200Y32692858D02*
X2089580Y32645239D01*
X1184819Y34169048D02*
X1184819Y33692858D01*
X1184819Y33692858D02*
X1661009Y33645239D01*
X1661009Y33645239D02*
X1613390Y33692858D01*
X1613390Y33692858D02*
X1565771Y33788096D01*
X1565771Y33788096D02*
X1565771Y34026191D01*
X1565771Y34026191D02*
X1613390Y34121429D01*
X1613390Y34121429D02*
X1661009Y34169048D01*
X1661009Y34169048D02*
X1756247Y34216667D01*
X1756247Y34216667D02*
X1994342Y34216667D01*
X1994342Y34216667D02*
X2089580Y34169048D01*
X2089580Y34169048D02*
X2137200Y34121429D01*
X2137200Y34121429D02*
X2184819Y34026191D01*
X2184819Y34026191D02*
X2184819Y33788096D01*
X2184819Y33788096D02*
X2137200Y33692858D01*
X2137200Y33692858D02*
X2089580Y33645239D01*
X1184819Y34550001D02*
X1184819Y35216667D01*
X1184819Y35216667D02*
X2184819Y34788096D01*
X2184819Y35597620D02*
X1184819Y35597620D01*
X1184819Y35597620D02*
X1184819Y35835715D01*
X1184819Y35835715D02*
X1232438Y35978572D01*
X1232438Y35978572D02*
X1327676Y36073810D01*
X1327676Y36073810D02*
X1422914Y36121429D01*
X1422914Y36121429D02*
X1613390Y36169048D01*
X1613390Y36169048D02*
X1756247Y36169048D01*
X1756247Y36169048D02*
X1946723Y36121429D01*
X1946723Y36121429D02*
X2041961Y36073810D01*
X2041961Y36073810D02*
X2137200Y35978572D01*
X2137200Y35978572D02*
X2184819Y35835715D01*
X2184819Y35835715D02*
X2184819Y35597620D01*
X1613390Y37502382D02*
X1565771Y37407144D01*
X1565771Y37407144D02*
X1518152Y37359525D01*
X1518152Y37359525D02*
X1422914Y37311906D01*
X1422914Y37311906D02*
X1375295Y37311906D01*
X1375295Y37311906D02*
X1280057Y37359525D01*
X1280057Y37359525D02*
X1232438Y37407144D01*
X1232438Y37407144D02*
X1184819Y37502382D01*
X1184819Y37502382D02*
X1184819Y37692858D01*
X1184819Y37692858D02*
X1232438Y37788096D01*
X1232438Y37788096D02*
X1280057Y37835715D01*
X1280057Y37835715D02*
X1375295Y37883334D01*
X1375295Y37883334D02*
X1422914Y37883334D01*
X1422914Y37883334D02*
X1518152Y37835715D01*
X1518152Y37835715D02*
X1565771Y37788096D01*
X1565771Y37788096D02*
X1613390Y37692858D01*
X1613390Y37692858D02*
X1613390Y37502382D01*
X1613390Y37502382D02*
X1661009Y37407144D01*
X1661009Y37407144D02*
X1708628Y37359525D01*
X1708628Y37359525D02*
X1803866Y37311906D01*
X1803866Y37311906D02*
X1994342Y37311906D01*
X1994342Y37311906D02*
X2089580Y37359525D01*
X2089580Y37359525D02*
X2137200Y37407144D01*
X2137200Y37407144D02*
X2184819Y37502382D01*
X2184819Y37502382D02*
X2184819Y37692858D01*
X2184819Y37692858D02*
X2137200Y37788096D01*
X2137200Y37788096D02*
X2089580Y37835715D01*
X2089580Y37835715D02*
X1994342Y37883334D01*
X1994342Y37883334D02*
X1803866Y37883334D01*
X1803866Y37883334D02*
X1708628Y37835715D01*
X1708628Y37835715D02*
X1661009Y37788096D01*
X1661009Y37788096D02*
X1613390Y37692858D01*
X1803866Y38311906D02*
X1803866Y39073810D01*
X1661009Y39883334D02*
X1708628Y40026191D01*
X1708628Y40026191D02*
X1756247Y40073810D01*
X1756247Y40073810D02*
X1851485Y40121429D01*
X1851485Y40121429D02*
X1994342Y40121429D01*
X1994342Y40121429D02*
X2089580Y40073810D01*
X2089580Y40073810D02*
X2137200Y40026191D01*
X2137200Y40026191D02*
X2184819Y39930953D01*
X2184819Y39930953D02*
X2184819Y39550001D01*
X2184819Y39550001D02*
X1184819Y39550001D01*
X1184819Y39550001D02*
X1184819Y39883334D01*
X1184819Y39883334D02*
X1232438Y39978572D01*
X1232438Y39978572D02*
X1280057Y40026191D01*
X1280057Y40026191D02*
X1375295Y40073810D01*
X1375295Y40073810D02*
X1470533Y40073810D01*
X1470533Y40073810D02*
X1565771Y40026191D01*
X1565771Y40026191D02*
X1613390Y39978572D01*
X1613390Y39978572D02*
X1661009Y39883334D01*
X1661009Y39883334D02*
X1661009Y39550001D01*
X2184819Y40550001D02*
X1184819Y40550001D01*
X1184819Y40883334D02*
X1184819Y41454762D01*
X2184819Y41169048D02*
X1184819Y41169048D01*
X26778095Y20925181D02*
X26778095Y20115658D01*
X26778095Y20115658D02*
X26825714Y20020420D01*
X26825714Y20020420D02*
X26873333Y19972800D01*
X26873333Y19972800D02*
X26968571Y19925181D01*
X26968571Y19925181D02*
X27159047Y19925181D01*
X27159047Y19925181D02*
X27254285Y19972800D01*
X27254285Y19972800D02*
X27301904Y20020420D01*
X27301904Y20020420D02*
X27349523Y20115658D01*
X27349523Y20115658D02*
X27349523Y20925181D01*
X27730476Y20925181D02*
X28349523Y20925181D01*
X28349523Y20925181D02*
X28016190Y20544229D01*
X28016190Y20544229D02*
X28159047Y20544229D01*
X28159047Y20544229D02*
X28254285Y20496610D01*
X28254285Y20496610D02*
X28301904Y20448991D01*
X28301904Y20448991D02*
X28349523Y20353753D01*
X28349523Y20353753D02*
X28349523Y20115658D01*
X28349523Y20115658D02*
X28301904Y20020420D01*
X28301904Y20020420D02*
X28254285Y19972800D01*
X28254285Y19972800D02*
X28159047Y19925181D01*
X28159047Y19925181D02*
X27873333Y19925181D01*
X27873333Y19925181D02*
X27778095Y19972800D01*
X27778095Y19972800D02*
X27730476Y20020420D01*
X16280000Y35445181D02*
X16280000Y35207086D01*
X16041905Y35302324D02*
X16280000Y35207086D01*
X16280000Y35207086D02*
X16518095Y35302324D01*
X16137143Y35016610D02*
X16280000Y35207086D01*
X16280000Y35207086D02*
X16422857Y35016610D01*
D13*
X66982219Y4558096D02*
X66982219Y5129524D01*
X67982219Y4843810D02*
X66982219Y4843810D01*
X67982219Y5462858D02*
X66982219Y5462858D01*
X66982219Y5462858D02*
X66982219Y5843810D01*
X66982219Y5843810D02*
X67029838Y5939048D01*
X67029838Y5939048D02*
X67077457Y5986667D01*
X67077457Y5986667D02*
X67172695Y6034286D01*
X67172695Y6034286D02*
X67315552Y6034286D01*
X67315552Y6034286D02*
X67410790Y5986667D01*
X67410790Y5986667D02*
X67458409Y5939048D01*
X67458409Y5939048D02*
X67506028Y5843810D01*
X67506028Y5843810D02*
X67506028Y5462858D01*
X66982219Y6891429D02*
X66982219Y6700953D01*
X66982219Y6700953D02*
X67029838Y6605715D01*
X67029838Y6605715D02*
X67077457Y6558096D01*
X67077457Y6558096D02*
X67220314Y6462858D01*
X67220314Y6462858D02*
X67410790Y6415239D01*
X67410790Y6415239D02*
X67791742Y6415239D01*
X67791742Y6415239D02*
X67886980Y6462858D01*
X67886980Y6462858D02*
X67934600Y6510477D01*
X67934600Y6510477D02*
X67982219Y6605715D01*
X67982219Y6605715D02*
X67982219Y6796191D01*
X67982219Y6796191D02*
X67934600Y6891429D01*
X67934600Y6891429D02*
X67886980Y6939048D01*
X67886980Y6939048D02*
X67791742Y6986667D01*
X67791742Y6986667D02*
X67553647Y6986667D01*
X67553647Y6986667D02*
X67458409Y6939048D01*
X67458409Y6939048D02*
X67410790Y6891429D01*
X67410790Y6891429D02*
X67363171Y6796191D01*
X67363171Y6796191D02*
X67363171Y6605715D01*
X67363171Y6605715D02*
X67410790Y6510477D01*
X67410790Y6510477D02*
X67458409Y6462858D01*
X67458409Y6462858D02*
X67553647Y6415239D01*
D10*
X76624580Y8647143D02*
X76672200Y8599524D01*
X76672200Y8599524D02*
X76719819Y8456667D01*
X76719819Y8456667D02*
X76719819Y8361429D01*
X76719819Y8361429D02*
X76672200Y8218572D01*
X76672200Y8218572D02*
X76576961Y8123334D01*
X76576961Y8123334D02*
X76481723Y8075715D01*
X76481723Y8075715D02*
X76291247Y8028096D01*
X76291247Y8028096D02*
X76148390Y8028096D01*
X76148390Y8028096D02*
X75957914Y8075715D01*
X75957914Y8075715D02*
X75862676Y8123334D01*
X75862676Y8123334D02*
X75767438Y8218572D01*
X75767438Y8218572D02*
X75719819Y8361429D01*
X75719819Y8361429D02*
X75719819Y8456667D01*
X75719819Y8456667D02*
X75767438Y8599524D01*
X75767438Y8599524D02*
X75815057Y8647143D01*
X76719819Y9599524D02*
X76719819Y9028096D01*
X76719819Y9313810D02*
X75719819Y9313810D01*
X75719819Y9313810D02*
X75862676Y9218572D01*
X75862676Y9218572D02*
X75957914Y9123334D01*
X75957914Y9123334D02*
X76005533Y9028096D01*
X76719819Y10075715D02*
X76719819Y10266191D01*
X76719819Y10266191D02*
X76672200Y10361429D01*
X76672200Y10361429D02*
X76624580Y10409048D01*
X76624580Y10409048D02*
X76481723Y10504286D01*
X76481723Y10504286D02*
X76291247Y10551905D01*
X76291247Y10551905D02*
X75910295Y10551905D01*
X75910295Y10551905D02*
X75815057Y10504286D01*
X75815057Y10504286D02*
X75767438Y10456667D01*
X75767438Y10456667D02*
X75719819Y10361429D01*
X75719819Y10361429D02*
X75719819Y10170953D01*
X75719819Y10170953D02*
X75767438Y10075715D01*
X75767438Y10075715D02*
X75815057Y10028096D01*
X75815057Y10028096D02*
X75910295Y9980477D01*
X75910295Y9980477D02*
X76148390Y9980477D01*
X76148390Y9980477D02*
X76243628Y10028096D01*
X76243628Y10028096D02*
X76291247Y10075715D01*
X76291247Y10075715D02*
X76338866Y10170953D01*
X76338866Y10170953D02*
X76338866Y10361429D01*
X76338866Y10361429D02*
X76291247Y10456667D01*
X76291247Y10456667D02*
X76243628Y10504286D01*
X76243628Y10504286D02*
X76148390Y10551905D01*
X74919580Y49592143D02*
X74967200Y49544524D01*
X74967200Y49544524D02*
X75014819Y49401667D01*
X75014819Y49401667D02*
X75014819Y49306429D01*
X75014819Y49306429D02*
X74967200Y49163572D01*
X74967200Y49163572D02*
X74871961Y49068334D01*
X74871961Y49068334D02*
X74776723Y49020715D01*
X74776723Y49020715D02*
X74586247Y48973096D01*
X74586247Y48973096D02*
X74443390Y48973096D01*
X74443390Y48973096D02*
X74252914Y49020715D01*
X74252914Y49020715D02*
X74157676Y49068334D01*
X74157676Y49068334D02*
X74062438Y49163572D01*
X74062438Y49163572D02*
X74014819Y49306429D01*
X74014819Y49306429D02*
X74014819Y49401667D01*
X74014819Y49401667D02*
X74062438Y49544524D01*
X74062438Y49544524D02*
X74110057Y49592143D01*
X75014819Y50544524D02*
X75014819Y49973096D01*
X75014819Y50258810D02*
X74014819Y50258810D01*
X74014819Y50258810D02*
X74157676Y50163572D01*
X74157676Y50163572D02*
X74252914Y50068334D01*
X74252914Y50068334D02*
X74300533Y49973096D01*
X74014819Y51163572D02*
X74014819Y51258810D01*
X74014819Y51258810D02*
X74062438Y51354048D01*
X74062438Y51354048D02*
X74110057Y51401667D01*
X74110057Y51401667D02*
X74205295Y51449286D01*
X74205295Y51449286D02*
X74395771Y51496905D01*
X74395771Y51496905D02*
X74633866Y51496905D01*
X74633866Y51496905D02*
X74824342Y51449286D01*
X74824342Y51449286D02*
X74919580Y51401667D01*
X74919580Y51401667D02*
X74967200Y51354048D01*
X74967200Y51354048D02*
X75014819Y51258810D01*
X75014819Y51258810D02*
X75014819Y51163572D01*
X75014819Y51163572D02*
X74967200Y51068334D01*
X74967200Y51068334D02*
X74919580Y51020715D01*
X74919580Y51020715D02*
X74824342Y50973096D01*
X74824342Y50973096D02*
X74633866Y50925477D01*
X74633866Y50925477D02*
X74395771Y50925477D01*
X74395771Y50925477D02*
X74205295Y50973096D01*
X74205295Y50973096D02*
X74110057Y51020715D01*
X74110057Y51020715D02*
X74062438Y51068334D01*
X74062438Y51068334D02*
X74014819Y51163572D01*
G04 #@! TO.C,TN1*
X36020000Y67300000D02*
X53800000Y67300000D01*
X36020000Y6340000D02*
X36020000Y67300000D01*
X38560000Y44440000D02*
X38560000Y31740000D01*
X38560000Y31740000D02*
X51260000Y31740000D01*
X38560000Y19040000D02*
X38560000Y6340000D01*
X39830000Y7610000D02*
X39830000Y6340000D01*
X41100000Y68570000D02*
X48720000Y68570000D01*
X41100000Y67300000D02*
X41100000Y68570000D01*
X41100000Y62220000D02*
X41100000Y67300000D01*
X41100000Y62220000D02*
X48720000Y62220000D01*
X43640000Y26660000D02*
X46180000Y26660000D01*
X43640000Y22850000D02*
X43640000Y26660000D01*
X45011600Y54070000D02*
X45011600Y50070000D01*
X45011600Y50070000D02*
X51261600Y50070000D01*
X46180000Y26660000D02*
X46180000Y22850000D01*
X46180000Y22850000D02*
X43640000Y22850000D01*
X48720000Y68570000D02*
X48720000Y67300000D01*
X48720000Y62220000D02*
X48720000Y67300000D01*
X49990000Y7610000D02*
X39830000Y7610000D01*
X49990000Y6340000D02*
X49990000Y7610000D01*
X51011600Y54070000D02*
X45011600Y54070000D01*
X51260000Y44440000D02*
X38560000Y44440000D01*
X51260000Y31740000D02*
X51260000Y44440000D01*
X51260000Y19040000D02*
X38560000Y19040000D01*
X51260000Y6340000D02*
X51260000Y19040000D01*
X51261600Y54070000D02*
X51011600Y54070000D01*
X51261600Y50070000D02*
X51261600Y54070000D01*
X53800000Y67300000D02*
X53800000Y6340000D01*
X53800000Y6340000D02*
X36020000Y6340000D01*
X45808026Y24755000D02*
G75*
G02*
X44011974Y24755000I-898026J0D01*
G01*
X44011974Y24755000D02*
G75*
G02*
X45808026Y24755000I898026J0D01*
G01*
D14*
X44836000Y34639000D02*
X44455000Y34385000D01*
X44201000Y34639000D01*
X44582000Y34893000D01*
X44836000Y34639000D01*
G36*
X44836000Y34639000D02*
G01*
X44455000Y34385000D01*
X44201000Y34639000D01*
X44582000Y34893000D01*
X44836000Y34639000D01*
G37*
X44963000Y35401000D02*
X44582000Y35147000D01*
X44328000Y35401000D01*
X44709000Y35655000D01*
X44963000Y35401000D01*
G36*
X44963000Y35401000D02*
G01*
X44582000Y35147000D01*
X44328000Y35401000D01*
X44709000Y35655000D01*
X44963000Y35401000D01*
G37*
X45217000Y34258000D02*
X44836000Y34004000D01*
X44582000Y34258000D01*
X44963000Y34512000D01*
X45217000Y34258000D01*
G36*
X45217000Y34258000D02*
G01*
X44836000Y34004000D01*
X44582000Y34258000D01*
X44963000Y34512000D01*
X45217000Y34258000D01*
G37*
X45344000Y35020000D02*
X44963000Y34766000D01*
X44709000Y35020000D01*
X45090000Y35274000D01*
X45344000Y35020000D01*
G36*
X45344000Y35020000D02*
G01*
X44963000Y34766000D01*
X44709000Y35020000D01*
X45090000Y35274000D01*
X45344000Y35020000D01*
G37*
X45471000Y35782000D02*
X45090000Y35528000D01*
X44836000Y35782000D01*
X45217000Y36036000D01*
X45471000Y35782000D01*
G36*
X45471000Y35782000D02*
G01*
X45090000Y35528000D01*
X44836000Y35782000D01*
X45217000Y36036000D01*
X45471000Y35782000D01*
G37*
X45598000Y33877000D02*
X45217000Y33623000D01*
X44963000Y33877000D01*
X45344000Y34131000D01*
X45598000Y33877000D01*
G36*
X45598000Y33877000D02*
G01*
X45217000Y33623000D01*
X44963000Y33877000D01*
X45344000Y34131000D01*
X45598000Y33877000D01*
G37*
X45852000Y35401000D02*
X45471000Y35147000D01*
X45217000Y35401000D01*
X45598000Y35655000D01*
X45852000Y35401000D01*
G36*
X45852000Y35401000D02*
G01*
X45471000Y35147000D01*
X45217000Y35401000D01*
X45598000Y35655000D01*
X45852000Y35401000D01*
G37*
X45979000Y36163000D02*
X45598000Y35909000D01*
X45344000Y36163000D01*
X45725000Y36417000D01*
X45979000Y36163000D01*
G36*
X45979000Y36163000D02*
G01*
X45598000Y35909000D01*
X45344000Y36163000D01*
X45725000Y36417000D01*
X45979000Y36163000D01*
G37*
D15*
G04 #@! TO.C,R1*
X68547500Y55142258D02*
X68547500Y54667742D01*
X69592500Y55142258D02*
X69592500Y54667742D01*
D16*
G04 #@! TO.C,Y1*
X9040000Y46710000D02*
X9040000Y46870000D01*
X10460000Y48040000D02*
X10820000Y48040000D01*
X10460000Y45540000D02*
X10820000Y45540000D01*
X12240000Y46710000D02*
X12240000Y46870000D01*
D13*
X9590000Y44590000D02*
G75*
G02*
X9390000Y44590000I-100000J0D01*
G01*
X9390000Y44590000D02*
G75*
G02*
X9590000Y44590000I100000J0D01*
G01*
D15*
G04 #@! TO.C,C7*
X65765000Y46291252D02*
X65765000Y45768748D01*
X67235000Y46291252D02*
X67235000Y45768748D01*
G04 #@! TO.C,R12*
X63945500Y22516258D02*
X63945500Y22041742D01*
X64990500Y22516258D02*
X64990500Y22041742D01*
G04 #@! TO.C,C5*
X65765000Y34099252D02*
X65765000Y33576748D01*
X67235000Y34099252D02*
X67235000Y33576748D01*
G04 #@! TO.C,C8*
X71060000Y58944420D02*
X71060000Y59225580D01*
X72080000Y58944420D02*
X72080000Y59225580D01*
G04 #@! TO.C,R9*
X34457500Y26897742D02*
X34457500Y27372258D01*
X35502500Y26897742D02*
X35502500Y27372258D01*
G04 #@! TO.C,C6*
X60685000Y46291252D02*
X60685000Y45768748D01*
X62155000Y46291252D02*
X62155000Y45768748D01*
G04 #@! TO.C,J1*
X94380000Y61010000D02*
X95710000Y61010000D01*
X94380000Y59680000D02*
X94380000Y61010000D01*
X94380000Y58410000D02*
X94380000Y10090000D01*
X94380000Y58410000D02*
X97040000Y58410000D01*
X94380000Y10090000D02*
X97040000Y10090000D01*
X97040000Y58410000D02*
X97040000Y10090000D01*
D14*
G04 #@! TO.C,Q1*
X73965000Y35820000D02*
X73965000Y35520000D01*
X73965000Y34545000D02*
X74265000Y34220000D01*
X74265000Y35820000D02*
X73965000Y35820000D01*
X74265000Y34220000D02*
X74265000Y33820000D01*
X76115000Y35820000D02*
X76415000Y35820000D01*
X76140000Y34220000D02*
X76415000Y34220000D01*
X76415000Y35820000D02*
X76415000Y35595000D01*
X76415000Y34220000D02*
X76415000Y34470000D01*
D15*
G04 #@! TO.C,C28*
X24680000Y48574420D02*
X24680000Y48855580D01*
X25700000Y48574420D02*
X25700000Y48855580D01*
G04 #@! TO.C,C16*
X25195000Y54741252D02*
X25195000Y54218748D01*
X26665000Y54741252D02*
X26665000Y54218748D01*
G04 #@! TO.C,C15*
X92400000Y10429420D02*
X92400000Y10710580D01*
X93420000Y10429420D02*
X93420000Y10710580D01*
G04 #@! TO.C,C20*
X75350000Y29735580D02*
X75350000Y29454420D01*
X76370000Y29735580D02*
X76370000Y29454420D01*
G04 #@! TO.C,R7*
X73987500Y40562258D02*
X73987500Y40087742D01*
X75032500Y40562258D02*
X75032500Y40087742D01*
G04 #@! TO.C,C22*
X69070000Y33984420D02*
X69070000Y34265580D01*
X70090000Y33984420D02*
X70090000Y34265580D01*
G04 #@! TO.C,R2*
X60827500Y59617742D02*
X60827500Y60092258D01*
X61872500Y59617742D02*
X61872500Y60092258D01*
G04 #@! TO.C,C30*
X30520000Y36145580D02*
X30520000Y35864420D01*
X31540000Y36145580D02*
X31540000Y35864420D01*
G04 #@! TO.C,C29*
X20280000Y51605580D02*
X20280000Y51324420D01*
X21300000Y51605580D02*
X21300000Y51324420D01*
D14*
G04 #@! TO.C,FL1*
X78370000Y24350000D02*
X78370000Y57370000D01*
X80910000Y59910000D02*
X88530000Y59910000D01*
X80910000Y21810000D02*
X88530000Y21810000D01*
X91070000Y24350000D02*
X91070000Y57370000D01*
D15*
G04 #@! TO.C,D1*
X61430000Y7870000D02*
X61430000Y10960000D01*
X55880000Y9414538D02*
G75*
G02*
X61430000Y10959830I2990000J462D01*
G01*
X61430000Y7870170D02*
G75*
G02*
X55880000Y9415462I-2560000J1544830D01*
G01*
X61370000Y9415000D02*
G75*
G02*
X56370000Y9415000I-2500000J0D01*
G01*
X56370000Y9415000D02*
G75*
G02*
X61370000Y9415000I2500000J0D01*
G01*
G04 #@! TO.C,R11*
X57067500Y15927258D02*
X57067500Y15452742D01*
X58112500Y15927258D02*
X58112500Y15452742D01*
D17*
G04 #@! TO.C,U4*
X19423928Y49278600D02*
X19423928Y48612612D01*
X19423928Y45702788D02*
X19423928Y45036800D01*
X19423928Y45036800D02*
X20089916Y45036800D01*
X20089916Y49278600D02*
X19423928Y49278600D01*
X22999740Y45036800D02*
X23665728Y45036800D01*
X23665728Y49278600D02*
X22999740Y49278600D01*
X23665728Y48612612D02*
X23665728Y49278600D01*
X23665728Y45036800D02*
X23665728Y45702788D01*
D18*
G36*
X20740156Y49710400D02*
G01*
X20359156Y49710400D01*
X20359156Y49964400D01*
X20740156Y49964400D01*
X20740156Y49710400D01*
G37*
G36*
X22730500Y44351000D02*
G01*
X22349500Y44351000D01*
X22349500Y44605000D01*
X22730500Y44605000D01*
X22730500Y44351000D01*
G37*
D15*
G04 #@! TO.C,R13*
X67577500Y19247742D02*
X67577500Y19722258D01*
X68622500Y19247742D02*
X68622500Y19722258D01*
G04 #@! TO.C,T1*
X78390000Y4960000D02*
X78390000Y10200000D01*
X86100000Y10210000D02*
X80820000Y10210000D01*
X86200000Y4930000D02*
X80840000Y4930000D01*
X88630000Y4960000D02*
X88630000Y10200000D01*
G04 #@! TO.C,R4*
X60897500Y40329742D02*
X60897500Y40804258D01*
X61942500Y40329742D02*
X61942500Y40804258D01*
G04 #@! TO.C,C25*
X32970000Y31104420D02*
X32970000Y31385580D01*
X33990000Y31104420D02*
X33990000Y31385580D01*
G04 #@! TO.C,C9*
X73180000Y58944420D02*
X73180000Y59225580D01*
X74200000Y58944420D02*
X74200000Y59225580D01*
G04 #@! TO.C,C11*
X65805000Y51476252D02*
X65805000Y50953748D01*
X67275000Y51476252D02*
X67275000Y50953748D01*
G04 #@! TO.C,C13*
X56630000Y61614420D02*
X56630000Y61895580D01*
X57650000Y61614420D02*
X57650000Y61895580D01*
G04 #@! TO.C,C23*
X72370000Y38445580D02*
X72370000Y38164420D01*
X73390000Y38445580D02*
X73390000Y38164420D01*
G04 #@! TO.C,C14*
X56630000Y66084420D02*
X56630000Y66365580D01*
X57650000Y66084420D02*
X57650000Y66365580D01*
G04 #@! TO.C,R8*
X32477500Y26877742D02*
X32477500Y27352258D01*
X33522500Y26877742D02*
X33522500Y27352258D01*
G04 #@! TO.C,R5*
X60897500Y33852742D02*
X60897500Y34327258D01*
X61942500Y33852742D02*
X61942500Y34327258D01*
D10*
G04 #@! TO.C,U2*
X65517500Y66835000D02*
X65517500Y62685000D01*
X65517500Y66835000D02*
X66075000Y66835000D01*
X65517500Y62685000D02*
X66075000Y62685000D01*
X74467500Y66835000D02*
X73910000Y66835000D01*
X74467500Y66835000D02*
X74467500Y62685000D01*
X74467500Y62685000D02*
X73910000Y62685000D01*
D15*
X74322500Y67157500D02*
X73992500Y67397500D01*
X74322500Y67637500D01*
X74322500Y67157500D01*
G36*
X74322500Y67157500D02*
G01*
X73992500Y67397500D01*
X74322500Y67637500D01*
X74322500Y67157500D01*
G37*
D14*
G04 #@! TO.C,J3*
X7390000Y68490000D02*
X7390000Y67990000D01*
X7390000Y68490000D02*
X7890000Y68490000D01*
X7390000Y62490000D02*
X7390000Y62990000D01*
X7390000Y62490000D02*
X7890000Y62490000D01*
X22590000Y68490000D02*
X22090000Y68490000D01*
X22590000Y68490000D02*
X22590000Y67990000D01*
X22590000Y62490000D02*
X22090000Y62490000D01*
X22590000Y62490000D02*
X22590000Y62990000D01*
D15*
G04 #@! TO.C,R6*
X65977500Y40732258D02*
X65977500Y40257742D01*
X67022500Y40732258D02*
X67022500Y40257742D01*
G04 #@! TO.C,C21*
X24680000Y45124420D02*
X24680000Y45405580D01*
X25700000Y45124420D02*
X25700000Y45405580D01*
G04 #@! TO.C,C27*
X9000000Y50565580D02*
X9000000Y50284420D01*
X10020000Y50565580D02*
X10020000Y50284420D01*
G04 #@! TO.C,R3*
X60897500Y51726258D02*
X60897500Y51251742D01*
X61942500Y51726258D02*
X61942500Y51251742D01*
G04 #@! TO.C,C18*
X21880000Y54530580D02*
X21880000Y54249420D01*
X22900000Y54530580D02*
X22900000Y54249420D01*
G04 #@! TO.C,J5*
X2940000Y61010000D02*
X4270000Y61010000D01*
X2940000Y59680000D02*
X2940000Y61010000D01*
X2940000Y58410000D02*
X2940000Y10090000D01*
X2940000Y58410000D02*
X5600000Y58410000D01*
X2940000Y10090000D02*
X5600000Y10090000D01*
X5600000Y58410000D02*
X5600000Y10090000D01*
D17*
G04 #@! TO.C,U3*
X19006400Y22992600D02*
X26601000Y22992600D01*
X26601000Y35997400D02*
X19006400Y35997400D01*
X23108500Y35997400D02*
G75*
G02*
X22498900Y35997400I-304800J0D01*
G01*
D18*
G36*
X16872800Y23589500D02*
G01*
X16618800Y23589500D01*
X16618800Y23970500D01*
X16872800Y23970500D01*
X16872800Y23589500D01*
G37*
G36*
X28988600Y35019500D02*
G01*
X28734600Y35019500D01*
X28734600Y35400500D01*
X28988600Y35400500D01*
X28988600Y35019500D01*
G37*
D15*
G04 #@! TO.C,C19*
X75780000Y5874420D02*
X75780000Y6155580D01*
X76800000Y5874420D02*
X76800000Y6155580D01*
G04 #@! TO.C,C10*
X75480000Y50094420D02*
X75480000Y50375580D01*
X76500000Y50094420D02*
X76500000Y50375580D01*
D19*
G04 #@! TO.C,BAT1*
X19891000Y9819800D02*
G75*
G02*
X19129000Y9819800I-381000J0D01*
G01*
X19129000Y9819800D02*
G75*
G02*
X19891000Y9819800I381000J0D01*
G01*
G04 #@! TD*
%LPC*%
D20*
G04 #@! TO.C,REF\u002A\u002A*
X4010000Y66220000D03*
G04 #@! TD*
D21*
G04 #@! TO.C,TN1*
X37290000Y66030000D03*
D22*
X37290000Y63490000D03*
X37290000Y60950000D03*
X37290000Y58410000D03*
X37290000Y55870000D03*
X37290000Y53330000D03*
X37290000Y50790000D03*
X37290000Y48250000D03*
X37290000Y45710000D03*
X37290000Y43170000D03*
X37290000Y40630000D03*
X37290000Y38090000D03*
X37290000Y35550000D03*
X37290000Y33010000D03*
X37290000Y30470000D03*
X37290000Y27930000D03*
X37290000Y25390000D03*
X37290000Y22850000D03*
X37290000Y20310000D03*
X37290000Y17770000D03*
X37290000Y15230000D03*
X37290000Y12690000D03*
X37290000Y10150000D03*
X37290000Y7610000D03*
X52530000Y7610000D03*
X52530000Y10150000D03*
X52530000Y12690000D03*
X52530000Y15230000D03*
X52530000Y17770000D03*
X52530000Y20310000D03*
X52530000Y22850000D03*
X52530000Y25390000D03*
X52530000Y27930000D03*
X52530000Y30470000D03*
X52530000Y33010000D03*
X52530000Y35550000D03*
X52530000Y38090000D03*
X52530000Y40630000D03*
X52530000Y43170000D03*
X52530000Y45710000D03*
X52530000Y48250000D03*
X52530000Y50790000D03*
X52530000Y53330000D03*
X52530000Y55870000D03*
X52530000Y58410000D03*
X52530000Y60950000D03*
X52530000Y63490000D03*
X52530000Y66030000D03*
X49990000Y63490000D03*
X39830000Y20310000D03*
X42370000Y20310000D03*
X44910000Y20310000D03*
X47450000Y20310000D03*
X49990000Y20310000D03*
D23*
X50091600Y53060000D03*
D24*
X48091600Y53060000D03*
X46091600Y53060000D03*
X46091600Y51060000D03*
X48091600Y51060000D03*
X50091600Y51060000D03*
G04 #@! TD*
D25*
G04 #@! TO.C,TP1*
X13980000Y52210000D03*
G04 #@! TD*
D26*
G04 #@! TO.C,R1*
X69070000Y55730000D03*
X69070000Y54080000D03*
G04 #@! TD*
D27*
G04 #@! TO.C,Y1*
X9490000Y45840000D03*
X11790000Y45840000D03*
X11790000Y47740000D03*
X9490000Y47740000D03*
G04 #@! TD*
D28*
G04 #@! TO.C,C7*
X66500000Y46980000D03*
X66500000Y45080000D03*
G04 #@! TD*
D29*
G04 #@! TO.C,J2*
X85508500Y67180000D03*
D30*
X81127000Y67180000D03*
X89890000Y67180000D03*
G04 #@! TD*
D26*
G04 #@! TO.C,R12*
X64468000Y23104000D03*
X64468000Y21454000D03*
G04 #@! TD*
D28*
G04 #@! TO.C,C5*
X66500000Y34788000D03*
X66500000Y32888000D03*
G04 #@! TD*
D31*
G04 #@! TO.C,C8*
X71570000Y58310000D03*
X71570000Y59860000D03*
G04 #@! TD*
D32*
G04 #@! TO.C,R9*
X34980000Y26310000D03*
X34980000Y27960000D03*
G04 #@! TD*
D20*
G04 #@! TO.C,REF\u002A\u002A*
X4010000Y5260000D03*
G04 #@! TD*
D28*
G04 #@! TO.C,C6*
X61420000Y46980000D03*
X61420000Y45080000D03*
G04 #@! TD*
D33*
G04 #@! TO.C,J1*
X95710000Y59680000D03*
D34*
X95710000Y57140000D03*
X95710000Y54600000D03*
X95710000Y52060000D03*
X95710000Y49520000D03*
X95710000Y46980000D03*
X95710000Y44440000D03*
X95710000Y41900000D03*
X95710000Y39360000D03*
X95710000Y36820000D03*
X95710000Y34280000D03*
X95710000Y31740000D03*
X95710000Y29200000D03*
X95710000Y26660000D03*
X95710000Y24120000D03*
X95710000Y21580000D03*
X95710000Y19040000D03*
X95710000Y16500000D03*
X95710000Y13960000D03*
X95710000Y11420000D03*
G04 #@! TD*
D35*
G04 #@! TO.C,Q1*
X74540000Y34070000D03*
X75190000Y34070000D03*
X75840000Y34070000D03*
X75840000Y35970000D03*
X75190000Y35970000D03*
X74540000Y35970000D03*
G04 #@! TD*
D20*
G04 #@! TO.C,REF\u002A\u002A*
X95450000Y5260000D03*
G04 #@! TD*
D31*
G04 #@! TO.C,C28*
X25190000Y47940000D03*
X25190000Y49490000D03*
G04 #@! TD*
D28*
G04 #@! TO.C,C16*
X25930000Y55430000D03*
X25930000Y53530000D03*
G04 #@! TD*
D31*
G04 #@! TO.C,C15*
X92910000Y9795000D03*
X92910000Y11345000D03*
G04 #@! TD*
D36*
G04 #@! TO.C,C20*
X75860000Y30370000D03*
X75860000Y28820000D03*
G04 #@! TD*
D26*
G04 #@! TO.C,R7*
X74510000Y41150000D03*
X74510000Y39500000D03*
G04 #@! TD*
D31*
G04 #@! TO.C,C22*
X69580000Y33350000D03*
X69580000Y34900000D03*
G04 #@! TD*
D32*
G04 #@! TO.C,R2*
X61350000Y59030000D03*
X61350000Y60680000D03*
G04 #@! TD*
D37*
G04 #@! TO.C,J4*
X32990000Y20240000D03*
D38*
X32990000Y17700000D03*
X32990000Y15160000D03*
X32990000Y12620000D03*
X32990000Y10080000D03*
X32990000Y7540000D03*
G04 #@! TD*
D25*
G04 #@! TO.C,TP2*
X31490000Y39990000D03*
G04 #@! TD*
D36*
G04 #@! TO.C,C30*
X31030000Y36780000D03*
X31030000Y35230000D03*
G04 #@! TD*
G04 #@! TO.C,C29*
X20790000Y52240000D03*
X20790000Y50690000D03*
G04 #@! TD*
D25*
G04 #@! TO.C,TP4*
X69080000Y50240000D03*
G04 #@! TD*
D39*
G04 #@! TO.C,FL1*
X79640000Y23080000D03*
D40*
X89800000Y23080000D03*
X79640000Y58640000D03*
X89800000Y58640000D03*
G04 #@! TD*
D41*
G04 #@! TO.C,D1*
X60140000Y9415000D03*
D42*
X57600000Y9415000D03*
G04 #@! TD*
D26*
G04 #@! TO.C,R11*
X57590000Y16515000D03*
X57590000Y14865000D03*
G04 #@! TD*
D43*
G04 #@! TO.C,U4*
X19627128Y48152872D03*
X19627128Y47655286D03*
X19627128Y47157700D03*
X19627128Y46660114D03*
X19627128Y46162528D03*
D44*
X20549656Y45240000D03*
X21047242Y45240000D03*
X21544828Y45240000D03*
X22042414Y45240000D03*
X22540000Y45240000D03*
D43*
X23462528Y46162528D03*
X23462528Y46660114D03*
X23462528Y47157700D03*
X23462528Y47655286D03*
X23462528Y48152872D03*
D44*
X22540000Y49075400D03*
X22042414Y49075400D03*
X21544828Y49075400D03*
X21047242Y49075400D03*
X20549656Y49075400D03*
D45*
X21544828Y47157700D03*
G04 #@! TD*
D32*
G04 #@! TO.C,R13*
X68100000Y18660000D03*
X68100000Y20310000D03*
G04 #@! TD*
D46*
G04 #@! TO.C,T1*
X87300000Y4990000D03*
D47*
X79700000Y4970000D03*
X87260000Y10230000D03*
X79700000Y10230000D03*
G04 #@! TD*
D32*
G04 #@! TO.C,R4*
X61420000Y39742000D03*
X61420000Y41392000D03*
G04 #@! TD*
D31*
G04 #@! TO.C,C25*
X33480000Y30470000D03*
X33480000Y32020000D03*
G04 #@! TD*
G04 #@! TO.C,C9*
X73690000Y58310000D03*
X73690000Y59860000D03*
G04 #@! TD*
D28*
G04 #@! TO.C,C11*
X66540000Y52165000D03*
X66540000Y50265000D03*
G04 #@! TD*
D31*
G04 #@! TO.C,C13*
X57140000Y60980000D03*
X57140000Y62530000D03*
G04 #@! TD*
D36*
G04 #@! TO.C,C23*
X72880000Y39080000D03*
X72880000Y37530000D03*
G04 #@! TD*
D25*
G04 #@! TO.C,TP3*
X31490000Y47490000D03*
G04 #@! TD*
D31*
G04 #@! TO.C,C14*
X57140000Y65450000D03*
X57140000Y67000000D03*
G04 #@! TD*
D25*
G04 #@! TO.C,TP5*
X63940000Y9400000D03*
G04 #@! TD*
D32*
G04 #@! TO.C,R8*
X33000000Y26290000D03*
X33000000Y27940000D03*
G04 #@! TD*
G04 #@! TO.C,R5*
X61420000Y33265000D03*
X61420000Y34915000D03*
G04 #@! TD*
D48*
G04 #@! TO.C,U2*
X73485000Y67360000D03*
X72850000Y67360000D03*
X72215000Y67360000D03*
X71580000Y67360000D03*
X70945000Y67360000D03*
X70310000Y67360000D03*
X69675000Y67360000D03*
X69040000Y67360000D03*
X68405000Y67360000D03*
X67770000Y67360000D03*
X67135000Y67360000D03*
X66500000Y67360000D03*
X66500000Y62160000D03*
X67135000Y62160000D03*
X67770000Y62160000D03*
X68405000Y62160000D03*
X69040000Y62160000D03*
X69675000Y62160000D03*
X70310000Y62160000D03*
X70945000Y62160000D03*
X71580000Y62160000D03*
X72215000Y62160000D03*
X72850000Y62160000D03*
X73485000Y62160000D03*
G04 #@! TD*
D49*
G04 #@! TO.C,J3*
X9990000Y65490000D03*
D50*
X12490000Y65490000D03*
X14990000Y65490000D03*
X17490000Y65490000D03*
X19990000Y65490000D03*
G04 #@! TD*
D26*
G04 #@! TO.C,R6*
X66500000Y41320000D03*
X66500000Y39670000D03*
G04 #@! TD*
D31*
G04 #@! TO.C,C21*
X25190000Y44490000D03*
X25190000Y46040000D03*
G04 #@! TD*
D36*
G04 #@! TO.C,C27*
X9510000Y51200000D03*
X9510000Y49650000D03*
G04 #@! TD*
D26*
G04 #@! TO.C,R3*
X61420000Y52314000D03*
X61420000Y50664000D03*
G04 #@! TD*
D36*
G04 #@! TO.C,C18*
X22390000Y55165000D03*
X22390000Y53615000D03*
G04 #@! TD*
D33*
G04 #@! TO.C,J5*
X4270000Y59680000D03*
D34*
X4270000Y57140000D03*
X4270000Y54600000D03*
X4270000Y52060000D03*
X4270000Y49520000D03*
X4270000Y46980000D03*
X4270000Y44440000D03*
X4270000Y41900000D03*
X4270000Y39360000D03*
X4270000Y36820000D03*
X4270000Y34280000D03*
X4270000Y31740000D03*
X4270000Y29200000D03*
X4270000Y26660000D03*
X4270000Y24120000D03*
X4270000Y21580000D03*
X4270000Y19040000D03*
X4270000Y16500000D03*
X4270000Y13960000D03*
X4270000Y11420000D03*
G04 #@! TD*
D20*
G04 #@! TO.C,REF\u002A\u002A*
X95450000Y66330000D03*
G04 #@! TD*
D51*
G04 #@! TO.C,U3*
X18117400Y35210000D03*
X18117400Y33940000D03*
X18117400Y32670000D03*
X18117400Y31400000D03*
X18117400Y30130000D03*
X18117400Y28860000D03*
X18117400Y27590000D03*
X18117400Y26320000D03*
X18117400Y25050000D03*
X18117400Y23780000D03*
X27490000Y23780000D03*
X27490000Y25050000D03*
X27490000Y26320000D03*
X27490000Y27590000D03*
X27490000Y28860000D03*
X27490000Y30130000D03*
X27490000Y31400000D03*
X27490000Y32670000D03*
X27490000Y33940000D03*
X27490000Y35210000D03*
G04 #@! TD*
D25*
G04 #@! TO.C,TP6*
X67620000Y9300000D03*
G04 #@! TD*
D31*
G04 #@! TO.C,C19*
X76290000Y5240000D03*
X76290000Y6790000D03*
G04 #@! TD*
G04 #@! TO.C,C10*
X75990000Y49460000D03*
X75990000Y51010000D03*
G04 #@! TD*
%LPD*%
M02*
