%TF.GenerationSoftware,KiCad,Pcbnew,9.0.7*%
%TF.CreationDate,2026-03-14T15:40:44-07:00*%
%TF.ProjectId,PocketFT8Xcvr,506f636b-6574-4465-9438-586376722e6b,rev?*%
%TF.SameCoordinates,Original*%
%TF.FileFunction,Drillmap*%
%TF.FilePolarity,Positive*%
%FSLAX45Y45*%
G04 Gerber Fmt 4.5, Leading zero omitted, Abs format (unit mm)*
G04 Created by KiCad (PCBNEW 9.0.7) date 2026-03-14 15:40:44*
%MOMM*%
%LPD*%
G01*
G04 APERTURE LIST*
%ADD10C,0.100000*%
%ADD11C,0.200000*%
%ADD12C,0.300000*%
G04 APERTURE END LIST*
D10*
X-11000Y6984000D02*
X9979000Y6984000D01*
X9979000Y-1000D01*
X-11000Y-1000D01*
X-11000Y6984000D01*
D11*
D12*
X251000Y6772000D02*
X551000Y6472000D01*
X551000Y6772000D02*
X251000Y6472000D01*
X251000Y676000D02*
X551000Y376000D01*
X551000Y676000D02*
X251000Y376000D01*
X9395000Y6783000D02*
X9695000Y6483000D01*
X9695000Y6783000D02*
X9395000Y6483000D01*
X9395000Y676000D02*
X9695000Y376000D01*
X9695000Y676000D02*
X9395000Y376000D01*
D11*
X244777Y-317484D02*
X244777Y-117484D01*
X244777Y-117484D02*
X292396Y-117484D01*
X292396Y-117484D02*
X320967Y-127008D01*
X320967Y-127008D02*
X340015Y-146055D01*
X340015Y-146055D02*
X349539Y-165103D01*
X349539Y-165103D02*
X359062Y-203198D01*
X359062Y-203198D02*
X359062Y-231769D01*
X359062Y-231769D02*
X349539Y-269865D01*
X349539Y-269865D02*
X340015Y-288912D01*
X340015Y-288912D02*
X320967Y-307960D01*
X320967Y-307960D02*
X292396Y-317484D01*
X292396Y-317484D02*
X244777Y-317484D01*
X444777Y-317484D02*
X444777Y-184150D01*
X444777Y-222246D02*
X454301Y-203198D01*
X454301Y-203198D02*
X463824Y-193674D01*
X463824Y-193674D02*
X482872Y-184150D01*
X482872Y-184150D02*
X501920Y-184150D01*
X568586Y-317484D02*
X568586Y-184150D01*
X568586Y-117484D02*
X559063Y-127008D01*
X559063Y-127008D02*
X568586Y-136531D01*
X568586Y-136531D02*
X578110Y-127008D01*
X578110Y-127008D02*
X568586Y-117484D01*
X568586Y-117484D02*
X568586Y-136531D01*
X692396Y-317484D02*
X673348Y-307960D01*
X673348Y-307960D02*
X663824Y-288912D01*
X663824Y-288912D02*
X663824Y-117484D01*
X797158Y-317484D02*
X778110Y-307960D01*
X778110Y-307960D02*
X768586Y-288912D01*
X768586Y-288912D02*
X768586Y-117484D01*
X1025729Y-317484D02*
X1025729Y-117484D01*
X1025729Y-117484D02*
X1092396Y-260341D01*
X1092396Y-260341D02*
X1159063Y-117484D01*
X1159063Y-117484D02*
X1159063Y-317484D01*
X1340015Y-317484D02*
X1340015Y-212722D01*
X1340015Y-212722D02*
X1330491Y-193674D01*
X1330491Y-193674D02*
X1311444Y-184150D01*
X1311444Y-184150D02*
X1273348Y-184150D01*
X1273348Y-184150D02*
X1254301Y-193674D01*
X1340015Y-307960D02*
X1320967Y-317484D01*
X1320967Y-317484D02*
X1273348Y-317484D01*
X1273348Y-317484D02*
X1254301Y-307960D01*
X1254301Y-307960D02*
X1244777Y-288912D01*
X1244777Y-288912D02*
X1244777Y-269865D01*
X1244777Y-269865D02*
X1254301Y-250817D01*
X1254301Y-250817D02*
X1273348Y-241293D01*
X1273348Y-241293D02*
X1320967Y-241293D01*
X1320967Y-241293D02*
X1340015Y-231769D01*
X1435253Y-184150D02*
X1435253Y-384150D01*
X1435253Y-193674D02*
X1454301Y-184150D01*
X1454301Y-184150D02*
X1492396Y-184150D01*
X1492396Y-184150D02*
X1511443Y-193674D01*
X1511443Y-193674D02*
X1520967Y-203198D01*
X1520967Y-203198D02*
X1530491Y-222246D01*
X1530491Y-222246D02*
X1530491Y-279389D01*
X1530491Y-279389D02*
X1520967Y-298436D01*
X1520967Y-298436D02*
X1511443Y-307960D01*
X1511443Y-307960D02*
X1492396Y-317484D01*
X1492396Y-317484D02*
X1454301Y-317484D01*
X1454301Y-317484D02*
X1435253Y-307960D01*
X1616205Y-298436D02*
X1625729Y-307960D01*
X1625729Y-307960D02*
X1616205Y-317484D01*
X1616205Y-317484D02*
X1606682Y-307960D01*
X1606682Y-307960D02*
X1616205Y-298436D01*
X1616205Y-298436D02*
X1616205Y-317484D01*
X1616205Y-193674D02*
X1625729Y-203198D01*
X1625729Y-203198D02*
X1616205Y-212722D01*
X1616205Y-212722D02*
X1606682Y-203198D01*
X1606682Y-203198D02*
X1616205Y-193674D01*
X1616205Y-193674D02*
X1616205Y-212722D01*
X-216000Y-546000D02*
X-16000Y-746000D01*
X-16000Y-546000D02*
X-216000Y-746000D01*
X225729Y-537484D02*
X349539Y-537484D01*
X349539Y-537484D02*
X282872Y-613674D01*
X282872Y-613674D02*
X311444Y-613674D01*
X311444Y-613674D02*
X330491Y-623198D01*
X330491Y-623198D02*
X340015Y-632722D01*
X340015Y-632722D02*
X349539Y-651770D01*
X349539Y-651770D02*
X349539Y-699388D01*
X349539Y-699388D02*
X340015Y-718436D01*
X340015Y-718436D02*
X330491Y-727960D01*
X330491Y-727960D02*
X311444Y-737484D01*
X311444Y-737484D02*
X254301Y-737484D01*
X254301Y-737484D02*
X235253Y-727960D01*
X235253Y-727960D02*
X225729Y-718436D01*
X435253Y-718436D02*
X444777Y-727960D01*
X444777Y-727960D02*
X435253Y-737484D01*
X435253Y-737484D02*
X425729Y-727960D01*
X425729Y-727960D02*
X435253Y-718436D01*
X435253Y-718436D02*
X435253Y-737484D01*
X568586Y-537484D02*
X587634Y-537484D01*
X587634Y-537484D02*
X606682Y-547008D01*
X606682Y-547008D02*
X616205Y-556531D01*
X616205Y-556531D02*
X625729Y-575579D01*
X625729Y-575579D02*
X635253Y-613674D01*
X635253Y-613674D02*
X635253Y-661293D01*
X635253Y-661293D02*
X625729Y-699388D01*
X625729Y-699388D02*
X616205Y-718436D01*
X616205Y-718436D02*
X606682Y-727960D01*
X606682Y-727960D02*
X587634Y-737484D01*
X587634Y-737484D02*
X568586Y-737484D01*
X568586Y-737484D02*
X549539Y-727960D01*
X549539Y-727960D02*
X540015Y-718436D01*
X540015Y-718436D02*
X530491Y-699388D01*
X530491Y-699388D02*
X520967Y-661293D01*
X520967Y-661293D02*
X520967Y-613674D01*
X520967Y-613674D02*
X530491Y-575579D01*
X530491Y-575579D02*
X540015Y-556531D01*
X540015Y-556531D02*
X549539Y-547008D01*
X549539Y-547008D02*
X568586Y-537484D01*
X759062Y-537484D02*
X778110Y-537484D01*
X778110Y-537484D02*
X797158Y-547008D01*
X797158Y-547008D02*
X806682Y-556531D01*
X806682Y-556531D02*
X816205Y-575579D01*
X816205Y-575579D02*
X825729Y-613674D01*
X825729Y-613674D02*
X825729Y-661293D01*
X825729Y-661293D02*
X816205Y-699388D01*
X816205Y-699388D02*
X806682Y-718436D01*
X806682Y-718436D02*
X797158Y-727960D01*
X797158Y-727960D02*
X778110Y-737484D01*
X778110Y-737484D02*
X759062Y-737484D01*
X759062Y-737484D02*
X740015Y-727960D01*
X740015Y-727960D02*
X730491Y-718436D01*
X730491Y-718436D02*
X720967Y-699388D01*
X720967Y-699388D02*
X711443Y-661293D01*
X711443Y-661293D02*
X711443Y-613674D01*
X711443Y-613674D02*
X720967Y-575579D01*
X720967Y-575579D02*
X730491Y-556531D01*
X730491Y-556531D02*
X740015Y-547008D01*
X740015Y-547008D02*
X759062Y-537484D01*
X949539Y-537484D02*
X968586Y-537484D01*
X968586Y-537484D02*
X987634Y-547008D01*
X987634Y-547008D02*
X997158Y-556531D01*
X997158Y-556531D02*
X1006682Y-575579D01*
X1006682Y-575579D02*
X1016205Y-613674D01*
X1016205Y-613674D02*
X1016205Y-661293D01*
X1016205Y-661293D02*
X1006682Y-699388D01*
X1006682Y-699388D02*
X997158Y-718436D01*
X997158Y-718436D02*
X987634Y-727960D01*
X987634Y-727960D02*
X968586Y-737484D01*
X968586Y-737484D02*
X949539Y-737484D01*
X949539Y-737484D02*
X930491Y-727960D01*
X930491Y-727960D02*
X920967Y-718436D01*
X920967Y-718436D02*
X911443Y-699388D01*
X911443Y-699388D02*
X901920Y-661293D01*
X901920Y-661293D02*
X901920Y-613674D01*
X901920Y-613674D02*
X911443Y-575579D01*
X911443Y-575579D02*
X920967Y-556531D01*
X920967Y-556531D02*
X930491Y-547008D01*
X930491Y-547008D02*
X949539Y-537484D01*
X1101920Y-737484D02*
X1101920Y-604150D01*
X1101920Y-623198D02*
X1111444Y-613674D01*
X1111444Y-613674D02*
X1130491Y-604150D01*
X1130491Y-604150D02*
X1159063Y-604150D01*
X1159063Y-604150D02*
X1178110Y-613674D01*
X1178110Y-613674D02*
X1187634Y-632722D01*
X1187634Y-632722D02*
X1187634Y-737484D01*
X1187634Y-632722D02*
X1197158Y-613674D01*
X1197158Y-613674D02*
X1216205Y-604150D01*
X1216205Y-604150D02*
X1244777Y-604150D01*
X1244777Y-604150D02*
X1263825Y-613674D01*
X1263825Y-613674D02*
X1273348Y-632722D01*
X1273348Y-632722D02*
X1273348Y-737484D01*
X1368586Y-737484D02*
X1368586Y-604150D01*
X1368586Y-623198D02*
X1378110Y-613674D01*
X1378110Y-613674D02*
X1397158Y-604150D01*
X1397158Y-604150D02*
X1425729Y-604150D01*
X1425729Y-604150D02*
X1444777Y-613674D01*
X1444777Y-613674D02*
X1454301Y-632722D01*
X1454301Y-632722D02*
X1454301Y-737484D01*
X1454301Y-632722D02*
X1463824Y-613674D01*
X1463824Y-613674D02*
X1482872Y-604150D01*
X1482872Y-604150D02*
X1511443Y-604150D01*
X1511443Y-604150D02*
X1530491Y-613674D01*
X1530491Y-613674D02*
X1540015Y-632722D01*
X1540015Y-632722D02*
X1540015Y-737484D01*
X1930491Y-527960D02*
X1759063Y-785103D01*
X2187634Y-537484D02*
X2206682Y-537484D01*
X2206682Y-537484D02*
X2225729Y-547008D01*
X2225729Y-547008D02*
X2235253Y-556531D01*
X2235253Y-556531D02*
X2244777Y-575579D01*
X2244777Y-575579D02*
X2254301Y-613674D01*
X2254301Y-613674D02*
X2254301Y-661293D01*
X2254301Y-661293D02*
X2244777Y-699388D01*
X2244777Y-699388D02*
X2235253Y-718436D01*
X2235253Y-718436D02*
X2225729Y-727960D01*
X2225729Y-727960D02*
X2206682Y-737484D01*
X2206682Y-737484D02*
X2187634Y-737484D01*
X2187634Y-737484D02*
X2168587Y-727960D01*
X2168587Y-727960D02*
X2159063Y-718436D01*
X2159063Y-718436D02*
X2149539Y-699388D01*
X2149539Y-699388D02*
X2140015Y-661293D01*
X2140015Y-661293D02*
X2140015Y-613674D01*
X2140015Y-613674D02*
X2149539Y-575579D01*
X2149539Y-575579D02*
X2159063Y-556531D01*
X2159063Y-556531D02*
X2168587Y-547008D01*
X2168587Y-547008D02*
X2187634Y-537484D01*
X2340015Y-718436D02*
X2349539Y-727960D01*
X2349539Y-727960D02*
X2340015Y-737484D01*
X2340015Y-737484D02*
X2330491Y-727960D01*
X2330491Y-727960D02*
X2340015Y-718436D01*
X2340015Y-718436D02*
X2340015Y-737484D01*
X2540015Y-737484D02*
X2425729Y-737484D01*
X2482872Y-737484D02*
X2482872Y-537484D01*
X2482872Y-537484D02*
X2463825Y-566055D01*
X2463825Y-566055D02*
X2444777Y-585103D01*
X2444777Y-585103D02*
X2425729Y-594627D01*
X2730491Y-737484D02*
X2616206Y-737484D01*
X2673348Y-737484D02*
X2673348Y-537484D01*
X2673348Y-537484D02*
X2654301Y-566055D01*
X2654301Y-566055D02*
X2635253Y-585103D01*
X2635253Y-585103D02*
X2616206Y-594627D01*
X2844777Y-623198D02*
X2825729Y-613674D01*
X2825729Y-613674D02*
X2816206Y-604150D01*
X2816206Y-604150D02*
X2806682Y-585103D01*
X2806682Y-585103D02*
X2806682Y-575579D01*
X2806682Y-575579D02*
X2816206Y-556531D01*
X2816206Y-556531D02*
X2825729Y-547008D01*
X2825729Y-547008D02*
X2844777Y-537484D01*
X2844777Y-537484D02*
X2882872Y-537484D01*
X2882872Y-537484D02*
X2901920Y-547008D01*
X2901920Y-547008D02*
X2911444Y-556531D01*
X2911444Y-556531D02*
X2920967Y-575579D01*
X2920967Y-575579D02*
X2920967Y-585103D01*
X2920967Y-585103D02*
X2911444Y-604150D01*
X2911444Y-604150D02*
X2901920Y-613674D01*
X2901920Y-613674D02*
X2882872Y-623198D01*
X2882872Y-623198D02*
X2844777Y-623198D01*
X2844777Y-623198D02*
X2825729Y-632722D01*
X2825729Y-632722D02*
X2816206Y-642246D01*
X2816206Y-642246D02*
X2806682Y-661293D01*
X2806682Y-661293D02*
X2806682Y-699388D01*
X2806682Y-699388D02*
X2816206Y-718436D01*
X2816206Y-718436D02*
X2825729Y-727960D01*
X2825729Y-727960D02*
X2844777Y-737484D01*
X2844777Y-737484D02*
X2882872Y-737484D01*
X2882872Y-737484D02*
X2901920Y-727960D01*
X2901920Y-727960D02*
X2911444Y-718436D01*
X2911444Y-718436D02*
X2920967Y-699388D01*
X2920967Y-699388D02*
X2920967Y-661293D01*
X2920967Y-661293D02*
X2911444Y-642246D01*
X2911444Y-642246D02*
X2901920Y-632722D01*
X2901920Y-632722D02*
X2882872Y-623198D01*
X3111444Y-737484D02*
X2997158Y-737484D01*
X3054301Y-737484D02*
X3054301Y-537484D01*
X3054301Y-537484D02*
X3035253Y-566055D01*
X3035253Y-566055D02*
X3016206Y-585103D01*
X3016206Y-585103D02*
X2997158Y-594627D01*
X3187634Y-537484D02*
X3187634Y-575579D01*
X3263825Y-537484D02*
X3263825Y-575579D01*
X3559063Y-813674D02*
X3549539Y-804150D01*
X3549539Y-804150D02*
X3530491Y-775579D01*
X3530491Y-775579D02*
X3520968Y-756531D01*
X3520968Y-756531D02*
X3511444Y-727960D01*
X3511444Y-727960D02*
X3501920Y-680341D01*
X3501920Y-680341D02*
X3501920Y-642246D01*
X3501920Y-642246D02*
X3511444Y-594627D01*
X3511444Y-594627D02*
X3520968Y-566055D01*
X3520968Y-566055D02*
X3530491Y-547008D01*
X3530491Y-547008D02*
X3549539Y-518436D01*
X3549539Y-518436D02*
X3559063Y-508912D01*
X3720968Y-604150D02*
X3720968Y-737484D01*
X3673348Y-527960D02*
X3625729Y-670817D01*
X3625729Y-670817D02*
X3749539Y-670817D01*
X3978110Y-737484D02*
X3978110Y-537484D01*
X4063825Y-737484D02*
X4063825Y-632722D01*
X4063825Y-632722D02*
X4054301Y-613674D01*
X4054301Y-613674D02*
X4035253Y-604150D01*
X4035253Y-604150D02*
X4006682Y-604150D01*
X4006682Y-604150D02*
X3987634Y-613674D01*
X3987634Y-613674D02*
X3978110Y-623198D01*
X4187634Y-737484D02*
X4168587Y-727960D01*
X4168587Y-727960D02*
X4159063Y-718436D01*
X4159063Y-718436D02*
X4149539Y-699388D01*
X4149539Y-699388D02*
X4149539Y-642246D01*
X4149539Y-642246D02*
X4159063Y-623198D01*
X4159063Y-623198D02*
X4168587Y-613674D01*
X4168587Y-613674D02*
X4187634Y-604150D01*
X4187634Y-604150D02*
X4216206Y-604150D01*
X4216206Y-604150D02*
X4235253Y-613674D01*
X4235253Y-613674D02*
X4244777Y-623198D01*
X4244777Y-623198D02*
X4254301Y-642246D01*
X4254301Y-642246D02*
X4254301Y-699388D01*
X4254301Y-699388D02*
X4244777Y-718436D01*
X4244777Y-718436D02*
X4235253Y-727960D01*
X4235253Y-727960D02*
X4216206Y-737484D01*
X4216206Y-737484D02*
X4187634Y-737484D01*
X4368587Y-737484D02*
X4349539Y-727960D01*
X4349539Y-727960D02*
X4340015Y-708912D01*
X4340015Y-708912D02*
X4340015Y-537484D01*
X4520968Y-727960D02*
X4501920Y-737484D01*
X4501920Y-737484D02*
X4463825Y-737484D01*
X4463825Y-737484D02*
X4444777Y-727960D01*
X4444777Y-727960D02*
X4435253Y-708912D01*
X4435253Y-708912D02*
X4435253Y-632722D01*
X4435253Y-632722D02*
X4444777Y-613674D01*
X4444777Y-613674D02*
X4463825Y-604150D01*
X4463825Y-604150D02*
X4501920Y-604150D01*
X4501920Y-604150D02*
X4520968Y-613674D01*
X4520968Y-613674D02*
X4530492Y-632722D01*
X4530492Y-632722D02*
X4530492Y-651770D01*
X4530492Y-651770D02*
X4435253Y-670817D01*
X4606682Y-727960D02*
X4625730Y-737484D01*
X4625730Y-737484D02*
X4663825Y-737484D01*
X4663825Y-737484D02*
X4682873Y-727960D01*
X4682873Y-727960D02*
X4692396Y-708912D01*
X4692396Y-708912D02*
X4692396Y-699388D01*
X4692396Y-699388D02*
X4682873Y-680341D01*
X4682873Y-680341D02*
X4663825Y-670817D01*
X4663825Y-670817D02*
X4635253Y-670817D01*
X4635253Y-670817D02*
X4616206Y-661293D01*
X4616206Y-661293D02*
X4606682Y-642246D01*
X4606682Y-642246D02*
X4606682Y-632722D01*
X4606682Y-632722D02*
X4616206Y-613674D01*
X4616206Y-613674D02*
X4635253Y-604150D01*
X4635253Y-604150D02*
X4663825Y-604150D01*
X4663825Y-604150D02*
X4682873Y-613674D01*
X4759063Y-813674D02*
X4768587Y-804150D01*
X4768587Y-804150D02*
X4787634Y-775579D01*
X4787634Y-775579D02*
X4797158Y-756531D01*
X4797158Y-756531D02*
X4806682Y-727960D01*
X4806682Y-727960D02*
X4816206Y-680341D01*
X4816206Y-680341D02*
X4816206Y-642246D01*
X4816206Y-642246D02*
X4806682Y-594627D01*
X4806682Y-594627D02*
X4797158Y-566055D01*
X4797158Y-566055D02*
X4787634Y-547008D01*
X4787634Y-547008D02*
X4768587Y-518436D01*
X4768587Y-518436D02*
X4759063Y-508912D01*
X5120968Y-813674D02*
X5111444Y-804150D01*
X5111444Y-804150D02*
X5092396Y-775579D01*
X5092396Y-775579D02*
X5082873Y-756531D01*
X5082873Y-756531D02*
X5073349Y-727960D01*
X5073349Y-727960D02*
X5063825Y-680341D01*
X5063825Y-680341D02*
X5063825Y-642246D01*
X5063825Y-642246D02*
X5073349Y-594627D01*
X5073349Y-594627D02*
X5082873Y-566055D01*
X5082873Y-566055D02*
X5092396Y-547008D01*
X5092396Y-547008D02*
X5111444Y-518436D01*
X5111444Y-518436D02*
X5120968Y-508912D01*
X5197158Y-604150D02*
X5197158Y-737484D01*
X5197158Y-623198D02*
X5206682Y-613674D01*
X5206682Y-613674D02*
X5225730Y-604150D01*
X5225730Y-604150D02*
X5254301Y-604150D01*
X5254301Y-604150D02*
X5273349Y-613674D01*
X5273349Y-613674D02*
X5282873Y-632722D01*
X5282873Y-632722D02*
X5282873Y-737484D01*
X5406682Y-737484D02*
X5387634Y-727960D01*
X5387634Y-727960D02*
X5378111Y-718436D01*
X5378111Y-718436D02*
X5368587Y-699388D01*
X5368587Y-699388D02*
X5368587Y-642246D01*
X5368587Y-642246D02*
X5378111Y-623198D01*
X5378111Y-623198D02*
X5387634Y-613674D01*
X5387634Y-613674D02*
X5406682Y-604150D01*
X5406682Y-604150D02*
X5435254Y-604150D01*
X5435254Y-604150D02*
X5454301Y-613674D01*
X5454301Y-613674D02*
X5463825Y-623198D01*
X5463825Y-623198D02*
X5473349Y-642246D01*
X5473349Y-642246D02*
X5473349Y-699388D01*
X5473349Y-699388D02*
X5463825Y-718436D01*
X5463825Y-718436D02*
X5454301Y-727960D01*
X5454301Y-727960D02*
X5435254Y-737484D01*
X5435254Y-737484D02*
X5406682Y-737484D01*
X5530492Y-604150D02*
X5606682Y-604150D01*
X5559063Y-537484D02*
X5559063Y-708912D01*
X5559063Y-708912D02*
X5568587Y-727960D01*
X5568587Y-727960D02*
X5587634Y-737484D01*
X5587634Y-737484D02*
X5606682Y-737484D01*
X5825730Y-604150D02*
X5825730Y-804150D01*
X5825730Y-613674D02*
X5844777Y-604150D01*
X5844777Y-604150D02*
X5882873Y-604150D01*
X5882873Y-604150D02*
X5901920Y-613674D01*
X5901920Y-613674D02*
X5911444Y-623198D01*
X5911444Y-623198D02*
X5920968Y-642246D01*
X5920968Y-642246D02*
X5920968Y-699388D01*
X5920968Y-699388D02*
X5911444Y-718436D01*
X5911444Y-718436D02*
X5901920Y-727960D01*
X5901920Y-727960D02*
X5882873Y-737484D01*
X5882873Y-737484D02*
X5844777Y-737484D01*
X5844777Y-737484D02*
X5825730Y-727960D01*
X6035253Y-737484D02*
X6016206Y-727960D01*
X6016206Y-727960D02*
X6006682Y-708912D01*
X6006682Y-708912D02*
X6006682Y-537484D01*
X6197158Y-737484D02*
X6197158Y-632722D01*
X6197158Y-632722D02*
X6187634Y-613674D01*
X6187634Y-613674D02*
X6168587Y-604150D01*
X6168587Y-604150D02*
X6130492Y-604150D01*
X6130492Y-604150D02*
X6111444Y-613674D01*
X6197158Y-727960D02*
X6178111Y-737484D01*
X6178111Y-737484D02*
X6130492Y-737484D01*
X6130492Y-737484D02*
X6111444Y-727960D01*
X6111444Y-727960D02*
X6101920Y-708912D01*
X6101920Y-708912D02*
X6101920Y-689865D01*
X6101920Y-689865D02*
X6111444Y-670817D01*
X6111444Y-670817D02*
X6130492Y-661293D01*
X6130492Y-661293D02*
X6178111Y-661293D01*
X6178111Y-661293D02*
X6197158Y-651770D01*
X6263825Y-604150D02*
X6340015Y-604150D01*
X6292396Y-537484D02*
X6292396Y-708912D01*
X6292396Y-708912D02*
X6301920Y-727960D01*
X6301920Y-727960D02*
X6320968Y-737484D01*
X6320968Y-737484D02*
X6340015Y-737484D01*
X6482873Y-727960D02*
X6463825Y-737484D01*
X6463825Y-737484D02*
X6425730Y-737484D01*
X6425730Y-737484D02*
X6406682Y-727960D01*
X6406682Y-727960D02*
X6397158Y-708912D01*
X6397158Y-708912D02*
X6397158Y-632722D01*
X6397158Y-632722D02*
X6406682Y-613674D01*
X6406682Y-613674D02*
X6425730Y-604150D01*
X6425730Y-604150D02*
X6463825Y-604150D01*
X6463825Y-604150D02*
X6482873Y-613674D01*
X6482873Y-613674D02*
X6492396Y-632722D01*
X6492396Y-632722D02*
X6492396Y-651770D01*
X6492396Y-651770D02*
X6397158Y-670817D01*
X6663825Y-737484D02*
X6663825Y-537484D01*
X6663825Y-727960D02*
X6644777Y-737484D01*
X6644777Y-737484D02*
X6606682Y-737484D01*
X6606682Y-737484D02*
X6587634Y-727960D01*
X6587634Y-727960D02*
X6578111Y-718436D01*
X6578111Y-718436D02*
X6568587Y-699388D01*
X6568587Y-699388D02*
X6568587Y-642246D01*
X6568587Y-642246D02*
X6578111Y-623198D01*
X6578111Y-623198D02*
X6587634Y-613674D01*
X6587634Y-613674D02*
X6606682Y-604150D01*
X6606682Y-604150D02*
X6644777Y-604150D01*
X6644777Y-604150D02*
X6663825Y-613674D01*
X6740015Y-813674D02*
X6749539Y-804150D01*
X6749539Y-804150D02*
X6768587Y-775579D01*
X6768587Y-775579D02*
X6778111Y-756531D01*
X6778111Y-756531D02*
X6787634Y-727960D01*
X6787634Y-727960D02*
X6797158Y-680341D01*
X6797158Y-680341D02*
X6797158Y-642246D01*
X6797158Y-642246D02*
X6787634Y-594627D01*
X6787634Y-594627D02*
X6778111Y-566055D01*
X6778111Y-566055D02*
X6768587Y-547008D01*
X6768587Y-547008D02*
X6749539Y-518436D01*
X6749539Y-518436D02*
X6740015Y-508912D01*
M02*
