G04 #@! TF.GenerationSoftware,KiCad,Pcbnew,8.0.4*
G04 #@! TF.CreationDate,2024-08-15T07:01:29-07:00*
G04 #@! TF.ProjectId,PocketFT8Xcvr,506f636b-6574-4465-9438-586376722e6b,rev?*
G04 #@! TF.SameCoordinates,Original*
G04 #@! TF.FileFunction,Paste,Top*
G04 #@! TF.FilePolarity,Positive*
%FSLAX46Y46*%
G04 Gerber Fmt 4.6, Leading zero omitted, Abs format (unit mm)*
G04 Created by KiCad (PCBNEW 8.0.4) date 2024-08-15 07:01:29*
%MOMM*%
%LPD*%
G01*
G04 APERTURE LIST*
G04 Aperture macros list*
%AMRoundRect*
0 Rectangle with rounded corners*
0 $1 Rounding radius*
0 $2 $3 $4 $5 $6 $7 $8 $9 X,Y pos of 4 corners*
0 Add a 4 corners polygon primitive as box body*
4,1,4,$2,$3,$4,$5,$6,$7,$8,$9,$2,$3,0*
0 Add four circle primitives for the rounded corners*
1,1,$1+$1,$2,$3*
1,1,$1+$1,$4,$5*
1,1,$1+$1,$6,$7*
1,1,$1+$1,$8,$9*
0 Add four rect primitives between the rounded corners*
20,1,$1+$1,$2,$3,$4,$5,0*
20,1,$1+$1,$4,$5,$6,$7,0*
20,1,$1+$1,$6,$7,$8,$9,0*
20,1,$1+$1,$8,$9,$2,$3,0*%
%AMFreePoly0*
4,1,9,5.362500,-0.866500,1.237500,-0.866500,1.237500,-0.450000,-1.237500,-0.450000,-1.237500,0.450000,1.237500,0.450000,1.237500,0.866500,5.362500,0.866500,5.362500,-0.866500,5.362500,-0.866500,$1*%
G04 Aperture macros list end*
%ADD10C,0.000000*%
%ADD11RoundRect,0.225000X0.250000X-0.225000X0.250000X0.225000X-0.250000X0.225000X-0.250000X-0.225000X0*%
%ADD12RoundRect,0.200000X-0.275000X0.200000X-0.275000X-0.200000X0.275000X-0.200000X0.275000X0.200000X0*%
%ADD13R,1.300000X1.100000*%
%ADD14RoundRect,0.250000X0.475000X-0.250000X0.475000X0.250000X-0.475000X0.250000X-0.475000X-0.250000X0*%
%ADD15R,4.318000X3.302000*%
%ADD16RoundRect,0.200000X0.275000X-0.200000X0.275000X0.200000X-0.275000X0.200000X-0.275000X-0.200000X0*%
%ADD17RoundRect,0.250000X-0.475000X0.250000X-0.475000X-0.250000X0.475000X-0.250000X0.475000X0.250000X0*%
%ADD18RoundRect,0.225000X-0.250000X0.225000X-0.250000X-0.225000X0.250000X-0.225000X0.250000X0.225000X0*%
%ADD19RoundRect,0.150000X-0.825000X-0.150000X0.825000X-0.150000X0.825000X0.150000X-0.825000X0.150000X0*%
%ADD20R,0.762000X0.254000*%
%ADD21R,0.254000X0.762000*%
%ADD22R,2.743200X2.743200*%
%ADD23RoundRect,0.225000X0.925000X0.225000X-0.925000X0.225000X-0.925000X-0.225000X0.925000X-0.225000X0*%
%ADD24FreePoly0,180.000000*%
%ADD25R,0.400000X1.200000*%
G04 APERTURE END LIST*
D10*
G36*
X181784828Y-107354700D02*
G01*
X180613228Y-107354700D01*
X180613228Y-106183100D01*
X181784828Y-106183100D01*
X181784828Y-107354700D01*
G37*
G36*
X181784828Y-108726300D02*
G01*
X180613228Y-108726300D01*
X180613228Y-107554700D01*
X181784828Y-107554700D01*
X181784828Y-108726300D01*
G37*
G36*
X183156428Y-107354700D02*
G01*
X181984828Y-107354700D01*
X181984828Y-106183100D01*
X183156428Y-106183100D01*
X183156428Y-107354700D01*
G37*
G36*
X183156428Y-108726300D02*
G01*
X181984828Y-108726300D01*
X181984828Y-107554700D01*
X183156428Y-107554700D01*
X183156428Y-108726300D01*
G37*
D11*
X177038000Y-63272000D03*
X177038000Y-61722000D03*
D12*
X163830000Y-93980000D03*
X163830000Y-95630000D03*
D13*
X187311000Y-117470000D03*
X189611000Y-117470000D03*
X189611000Y-115570000D03*
X187311000Y-115570000D03*
D14*
X168910000Y-75560000D03*
X168910000Y-73660000D03*
D15*
X121920000Y-108585000D03*
X121920000Y-79375000D03*
D16*
X160020000Y-105790000D03*
X160020000Y-104140000D03*
D17*
X168910000Y-85852000D03*
X168910000Y-87752000D03*
D11*
X184150000Y-86005000D03*
X184150000Y-84455000D03*
X173990000Y-63272000D03*
X173990000Y-61722000D03*
D17*
X163830000Y-73660000D03*
X163830000Y-75560000D03*
D18*
X121920000Y-62484000D03*
X121920000Y-64034000D03*
D11*
X193040000Y-103150000D03*
X193040000Y-101600000D03*
D19*
X124460000Y-54610000D03*
X124460000Y-55880000D03*
X124460000Y-57150000D03*
X124460000Y-58420000D03*
X129410000Y-58420000D03*
X129410000Y-57150000D03*
X129410000Y-55880000D03*
X129410000Y-54610000D03*
D11*
X189230000Y-109500000D03*
X189230000Y-107950000D03*
D14*
X192786000Y-66040000D03*
X192786000Y-64140000D03*
D11*
X193040000Y-109500000D03*
X193040000Y-107950000D03*
X175260000Y-68860000D03*
X175260000Y-67310000D03*
D16*
X160020000Y-112140000D03*
X160020000Y-110490000D03*
X180340000Y-71500000D03*
X180340000Y-69850000D03*
X168910000Y-95630000D03*
X168910000Y-93980000D03*
D17*
X192786000Y-71760000D03*
X192786000Y-73660000D03*
D14*
X192786000Y-59558000D03*
X192786000Y-57658000D03*
D18*
X186944000Y-102616000D03*
X186944000Y-104166000D03*
D12*
X174435000Y-107950000D03*
X174435000Y-109600000D03*
D20*
X179967128Y-106459528D03*
X179967128Y-106957114D03*
X179967128Y-107454700D03*
X179967128Y-107952286D03*
X179967128Y-108449872D03*
D21*
X180889656Y-109372400D03*
X181387242Y-109372400D03*
X181884828Y-109372400D03*
X182382414Y-109372400D03*
X182880000Y-109372400D03*
D20*
X183802528Y-108449872D03*
X183802528Y-107952286D03*
X183802528Y-107454700D03*
X183802528Y-106957114D03*
X183802528Y-106459528D03*
D21*
X182880000Y-105537000D03*
X182382414Y-105537000D03*
X181884828Y-105537000D03*
X181387242Y-105537000D03*
X180889656Y-105537000D03*
D22*
X181884828Y-107454700D03*
D16*
X163830000Y-80898000D03*
X163830000Y-79248000D03*
D11*
X135890000Y-90170000D03*
X135890000Y-88620000D03*
X163830000Y-59970000D03*
X163830000Y-58420000D03*
D12*
X162560000Y-114555000D03*
X162560000Y-116205000D03*
D11*
X163830000Y-55144000D03*
X163830000Y-53594000D03*
D16*
X163830000Y-87375000D03*
X163830000Y-85725000D03*
D23*
X192950000Y-94186000D03*
D24*
X192862500Y-92686000D03*
D23*
X192950000Y-91186000D03*
D18*
X186944000Y-96774000D03*
X186944000Y-98324000D03*
D25*
X175895000Y-53280000D03*
X175260000Y-53280000D03*
X174625000Y-53280000D03*
X173990000Y-53280000D03*
X173355000Y-53280000D03*
X172720000Y-53280000D03*
X172085000Y-53280000D03*
X171450000Y-53280000D03*
X170815000Y-53280000D03*
X170180000Y-53280000D03*
X169545000Y-53280000D03*
X168910000Y-53280000D03*
X168910000Y-58480000D03*
X169545000Y-58480000D03*
X170180000Y-58480000D03*
X170815000Y-58480000D03*
X171450000Y-58480000D03*
X172085000Y-58480000D03*
X172720000Y-58480000D03*
X173355000Y-58480000D03*
X173990000Y-58480000D03*
X174625000Y-58480000D03*
X175260000Y-58480000D03*
X175895000Y-58480000D03*
D11*
X165087000Y-112268000D03*
X165087000Y-110718000D03*
D16*
X168910000Y-81152000D03*
X168910000Y-79502000D03*
D17*
X168910000Y-68521000D03*
X168910000Y-70421000D03*
D11*
X182880000Y-117120000D03*
X182880000Y-115570000D03*
D12*
X163830000Y-68326000D03*
X163830000Y-69976000D03*
D14*
X192913000Y-80640000D03*
X192913000Y-78740000D03*
D11*
X192913000Y-87021000D03*
X192913000Y-85471000D03*
M02*
