M48
; DRILL file {KiCad 8.0.4} date 2024-08-21T10:01:32-0700
; FORMAT={-:-/ absolute / metric / decimal}
; #@! TF.CreationDate,2024-08-21T10:01:32-07:00
; #@! TF.GenerationSoftware,Kicad,Pcbnew,8.0.4
; #@! TF.FileFunction,Plated,1,2,PTH
FMAT,2
METRIC
; #@! TA.AperFunction,Plated,PTH,ViaDrill
T1C0.300
; #@! TA.AperFunction,Plated,PTH,ComponentDrill
T2C0.550
; #@! TA.AperFunction,Plated,PTH,ComponentDrill
T3C0.762
; #@! TA.AperFunction,Plated,PTH,ComponentDrill
T4C0.800
; #@! TA.AperFunction,Plated,PTH,ComponentDrill
T5C1.020
; #@! TA.AperFunction,Plated,PTH,ComponentDrill
T6C1.300
%
G90
G05
T1
X167.64Y-99.06
X170.688Y-91.44
X172.72Y-81.28
X172.72Y-85.852
X172.72Y-114.808
X177.8Y-81.28
X177.8Y-104.14
X177.8Y-114.808
X178.308Y-90.424
X178.308Y-97.028
X182.88Y-81.28
X182.88Y-104.14
X182.88Y-114.808
X183.896Y-93.98
X187.96Y-81.28
X187.96Y-104.14
X187.96Y-114.808
X193.04Y-81.28
X193.04Y-85.852
X193.04Y-91.44
X193.04Y-96.52
X193.04Y-101.6
X193.04Y-114.808
X198.12Y-81.28
X198.12Y-85.852
X198.12Y-91.44
X198.12Y-96.52
X198.12Y-101.6
X198.12Y-106.68
X198.12Y-114.808
X203.2Y-81.28
X203.2Y-85.852
X203.2Y-91.44
X203.2Y-96.52
X203.2Y-101.6
X203.2Y-114.808
X208.28Y-81.28
X208.28Y-85.852
X208.28Y-91.44
X208.28Y-96.52
X208.28Y-101.6
X208.28Y-114.808
X213.36Y-81.28
X213.36Y-93.98
X213.36Y-104.14
X213.36Y-109.22
X213.36Y-114.808
X218.44Y-81.28
X218.44Y-85.852
X218.44Y-104.14
X218.44Y-109.22
X218.44Y-114.808
X223.52Y-81.28
X223.52Y-85.852
X223.52Y-114.808
X226.06Y-104.14
X226.06Y-109.22
X228.6Y-81.28
X228.6Y-85.852
X228.6Y-99.06
X228.6Y-114.808
X231.14Y-90.424
X233.68Y-81.28
X233.68Y-85.852
X233.68Y-99.06
X233.68Y-109.22
X233.68Y-114.808
X238.76Y-81.28
X238.76Y-85.852
X238.76Y-114.808
X242.824Y-109.22
X243.84Y-88.9
X243.84Y-99.06
X248.92Y-88.9
X248.92Y-99.06
X248.92Y-104.14
X248.92Y-109.22
T2
X181.356Y-86.36
X181.356Y-87.63
X181.356Y-88.9
X181.356Y-99.06
X181.356Y-100.33
X181.356Y-101.6
T3
X187.96Y-88.9
X187.96Y-93.98
X187.96Y-99.06
X213.36Y-88.9
X213.36Y-99.06
T4
X180.34Y-106.68
X180.34Y-111.98
T5
X200.66Y-106.68
X203.2Y-106.68
X205.74Y-106.68
X208.28Y-106.68
T6
X219.71Y-93.98
X225.31Y-93.98
X235.7Y-93.98
X241.3Y-93.98
M30
