G04 #@! TF.GenerationSoftware,KiCad,Pcbnew,8.0.4*
G04 #@! TF.CreationDate,2024-08-15T07:01:29-07:00*
G04 #@! TF.ProjectId,PocketFT8Xcvr,506f636b-6574-4465-9438-586376722e6b,rev?*
G04 #@! TF.SameCoordinates,Original*
G04 #@! TF.FileFunction,Soldermask,Top*
G04 #@! TF.FilePolarity,Negative*
%FSLAX46Y46*%
G04 Gerber Fmt 4.6, Leading zero omitted, Abs format (unit mm)*
G04 Created by KiCad (PCBNEW 8.0.4) date 2024-08-15 07:01:29*
%MOMM*%
%LPD*%
G01*
G04 APERTURE LIST*
G04 Aperture macros list*
%AMRoundRect*
0 Rectangle with rounded corners*
0 $1 Rounding radius*
0 $2 $3 $4 $5 $6 $7 $8 $9 X,Y pos of 4 corners*
0 Add a 4 corners polygon primitive as box body*
4,1,4,$2,$3,$4,$5,$6,$7,$8,$9,$2,$3,0*
0 Add four circle primitives for the rounded corners*
1,1,$1+$1,$2,$3*
1,1,$1+$1,$4,$5*
1,1,$1+$1,$6,$7*
1,1,$1+$1,$8,$9*
0 Add four rect primitives between the rounded corners*
20,1,$1+$1,$2,$3,$4,$5,0*
20,1,$1+$1,$4,$5,$6,$7,0*
20,1,$1+$1,$6,$7,$8,$9,0*
20,1,$1+$1,$8,$9,$2,$3,0*%
%AMFreePoly0*
4,1,9,5.362500,-0.866500,1.237500,-0.866500,1.237500,-0.450000,-1.237500,-0.450000,-1.237500,0.450000,1.237500,0.450000,1.237500,0.866500,5.362500,0.866500,5.362500,-0.866500,5.362500,-0.866500,$1*%
G04 Aperture macros list end*
%ADD10RoundRect,0.225000X0.250000X-0.225000X0.250000X0.225000X-0.250000X0.225000X-0.250000X-0.225000X0*%
%ADD11C,2.000000*%
%ADD12R,1.600000X1.600000*%
%ADD13C,1.600000*%
%ADD14R,1.300000X1.300000*%
%ADD15C,1.300000*%
%ADD16RoundRect,0.200000X-0.275000X0.200000X-0.275000X-0.200000X0.275000X-0.200000X0.275000X0.200000X0*%
%ADD17RoundRect,0.102000X0.650000X-0.550000X0.650000X0.550000X-0.650000X0.550000X-0.650000X-0.550000X0*%
%ADD18RoundRect,0.250000X0.475000X-0.250000X0.475000X0.250000X-0.475000X0.250000X-0.475000X-0.250000X0*%
%ADD19R,4.318000X3.302000*%
%ADD20C,2.020000*%
%ADD21RoundRect,0.200000X0.275000X-0.200000X0.275000X0.200000X-0.275000X0.200000X-0.275000X-0.200000X0*%
%ADD22RoundRect,0.250000X-0.475000X0.250000X-0.475000X-0.250000X0.475000X-0.250000X0.475000X0.250000X0*%
%ADD23R,1.500000X1.000000*%
%ADD24O,1.500000X1.000000*%
%ADD25R,1.473200X1.473200*%
%ADD26C,1.473200*%
%ADD27R,1.700000X1.700000*%
%ADD28O,1.700000X1.700000*%
%ADD29RoundRect,0.225000X-0.250000X0.225000X-0.250000X-0.225000X0.250000X-0.225000X0.250000X0.225000X0*%
%ADD30RoundRect,0.150000X-0.825000X-0.150000X0.825000X-0.150000X0.825000X0.150000X-0.825000X0.150000X0*%
%ADD31R,1.800000X1.800000*%
%ADD32C,1.800000*%
%ADD33R,0.762000X0.254000*%
%ADD34R,0.254000X0.762000*%
%ADD35R,2.743200X2.743200*%
%ADD36RoundRect,0.225000X0.925000X0.225000X-0.925000X0.225000X-0.925000X-0.225000X0.925000X-0.225000X0*%
%ADD37FreePoly0,180.000000*%
%ADD38RoundRect,0.100000X-0.200000X0.600000X-0.200000X-0.600000X0.200000X-0.600000X0.200000X0.600000X0*%
G04 APERTURE END LIST*
D10*
X177038000Y-63272000D03*
X177038000Y-61722000D03*
D11*
X106680000Y-115062000D03*
D12*
X139700000Y-54610000D03*
D13*
X139700000Y-57150000D03*
X139700000Y-59690000D03*
X139700000Y-62230000D03*
X139700000Y-64770000D03*
X139700000Y-67310000D03*
X139700000Y-69850000D03*
X139700000Y-72390000D03*
X139700000Y-74930000D03*
X139700000Y-77470000D03*
X139700000Y-80010000D03*
X139700000Y-82550000D03*
X139700000Y-85090000D03*
X139700000Y-87630000D03*
X139700000Y-90170000D03*
X139700000Y-92710000D03*
X139700000Y-95250000D03*
X139700000Y-97790000D03*
X139700000Y-100330000D03*
X139700000Y-102870000D03*
X139700000Y-105410000D03*
X139700000Y-107950000D03*
X139700000Y-110490000D03*
X139700000Y-113030000D03*
X154940000Y-113030000D03*
X154940000Y-110490000D03*
X154940000Y-107950000D03*
X154940000Y-105410000D03*
X154940000Y-102870000D03*
X154940000Y-100330000D03*
X154940000Y-97790000D03*
X154940000Y-95250000D03*
X154940000Y-92710000D03*
X154940000Y-90170000D03*
X154940000Y-87630000D03*
X154940000Y-85090000D03*
X154940000Y-82550000D03*
X154940000Y-80010000D03*
X154940000Y-77470000D03*
X154940000Y-74930000D03*
X154940000Y-72390000D03*
X154940000Y-69850000D03*
X154940000Y-67310000D03*
X154940000Y-64770000D03*
X154940000Y-62230000D03*
X154940000Y-59690000D03*
X154940000Y-57150000D03*
X154940000Y-54610000D03*
X152400000Y-57150000D03*
X142240000Y-100330000D03*
X144780000Y-100330000D03*
X147320000Y-100330000D03*
X149860000Y-100330000D03*
X152400000Y-100330000D03*
D12*
X142750800Y-60909200D03*
D13*
X142750800Y-63449200D03*
X142750800Y-65989200D03*
X142750800Y-68529200D03*
X142750800Y-71069200D03*
D14*
X152501600Y-67580000D03*
D15*
X150501600Y-67580000D03*
X148501600Y-67580000D03*
X148501600Y-69580000D03*
X150501600Y-69580000D03*
X152501600Y-69580000D03*
X148590000Y-55340000D03*
X146050000Y-55340000D03*
D16*
X163830000Y-93980000D03*
X163830000Y-95630000D03*
D17*
X187311000Y-117470000D03*
X189611000Y-117470000D03*
X189611000Y-115570000D03*
X187311000Y-115570000D03*
D18*
X168910000Y-75560000D03*
X168910000Y-73660000D03*
D19*
X121920000Y-108585000D03*
X121920000Y-79375000D03*
D20*
X182880000Y-55880000D03*
X185420000Y-55880000D03*
D11*
X184150000Y-66040000D03*
X184150000Y-60960000D03*
D21*
X160020000Y-105790000D03*
X160020000Y-104140000D03*
D11*
X106680000Y-54102000D03*
D22*
X168910000Y-85852000D03*
X168910000Y-87752000D03*
D10*
X184150000Y-86005000D03*
X184150000Y-84455000D03*
D23*
X168910000Y-117475000D03*
D24*
X168910000Y-116205000D03*
X168910000Y-114935000D03*
D10*
X173990000Y-63272000D03*
X173990000Y-61722000D03*
D25*
X180213000Y-98247200D03*
D26*
X180213000Y-92456000D03*
D11*
X184150000Y-80010000D03*
X184150000Y-74930000D03*
D22*
X163830000Y-73660000D03*
X163830000Y-75560000D03*
D27*
X198120000Y-60960000D03*
D28*
X198120000Y-63500000D03*
X198120000Y-66040000D03*
X198120000Y-68580000D03*
X198120000Y-71120000D03*
X198120000Y-73660000D03*
X198120000Y-76200000D03*
X198120000Y-78740000D03*
X198120000Y-81280000D03*
X198120000Y-83820000D03*
X198120000Y-86360000D03*
X198120000Y-88900000D03*
X198120000Y-91440000D03*
X198120000Y-93980000D03*
X198120000Y-96520000D03*
X198120000Y-99060000D03*
X198120000Y-101600000D03*
X198120000Y-104140000D03*
X198120000Y-106680000D03*
X198120000Y-109220000D03*
D29*
X121920000Y-62484000D03*
X121920000Y-64034000D03*
D10*
X193040000Y-103150000D03*
X193040000Y-101600000D03*
D30*
X124460000Y-54610000D03*
X124460000Y-55880000D03*
X124460000Y-57150000D03*
X124460000Y-58420000D03*
X129410000Y-58420000D03*
X129410000Y-57150000D03*
X129410000Y-55880000D03*
X129410000Y-54610000D03*
D10*
X189230000Y-109500000D03*
X189230000Y-107950000D03*
D18*
X192786000Y-66040000D03*
X192786000Y-64140000D03*
D10*
X193040000Y-109500000D03*
X193040000Y-107950000D03*
D11*
X198120000Y-115062000D03*
D10*
X175260000Y-68860000D03*
X175260000Y-67310000D03*
D21*
X160020000Y-112140000D03*
X160020000Y-110490000D03*
X180340000Y-71500000D03*
X180340000Y-69850000D03*
D23*
X168910000Y-107950000D03*
D24*
X168910000Y-106680000D03*
X168910000Y-105410000D03*
D21*
X168910000Y-95630000D03*
X168910000Y-93980000D03*
D22*
X192786000Y-71760000D03*
X192786000Y-73660000D03*
D23*
X175260000Y-76200000D03*
D24*
X175260000Y-74930000D03*
X175260000Y-73660000D03*
D18*
X192786000Y-59558000D03*
X192786000Y-57658000D03*
D29*
X186944000Y-102616000D03*
X186944000Y-104166000D03*
D31*
X177800000Y-115570000D03*
D32*
X175260000Y-115570000D03*
D16*
X174435000Y-107950000D03*
X174435000Y-109600000D03*
D33*
X179967128Y-106459528D03*
X179967128Y-106957114D03*
X179967128Y-107454700D03*
X179967128Y-107952286D03*
X179967128Y-108449872D03*
D34*
X180889656Y-109372400D03*
X181387242Y-109372400D03*
X181884828Y-109372400D03*
X182382414Y-109372400D03*
X182880000Y-109372400D03*
D33*
X183802528Y-108449872D03*
X183802528Y-107952286D03*
X183802528Y-107454700D03*
X183802528Y-106957114D03*
X183802528Y-106459528D03*
D34*
X182880000Y-105537000D03*
X182382414Y-105537000D03*
X181884828Y-105537000D03*
X181387242Y-105537000D03*
X180889656Y-105537000D03*
D35*
X181884828Y-107454700D03*
D21*
X163830000Y-80898000D03*
X163830000Y-79248000D03*
D10*
X135890000Y-90170000D03*
X135890000Y-88620000D03*
X163830000Y-59970000D03*
X163830000Y-58420000D03*
D16*
X162560000Y-114555000D03*
X162560000Y-116205000D03*
D10*
X163830000Y-55144000D03*
X163830000Y-53594000D03*
D23*
X175260000Y-86360000D03*
D24*
X175260000Y-85090000D03*
X175260000Y-83820000D03*
D11*
X198120000Y-54102000D03*
D21*
X163830000Y-87375000D03*
X163830000Y-85725000D03*
D36*
X192950000Y-94186000D03*
D37*
X192862500Y-92686000D03*
D36*
X192950000Y-91186000D03*
D29*
X186944000Y-96774000D03*
X186944000Y-98324000D03*
D38*
X175895000Y-53280000D03*
X175260000Y-53280000D03*
X174625000Y-53280000D03*
X173990000Y-53280000D03*
X173355000Y-53280000D03*
X172720000Y-53280000D03*
X172085000Y-53280000D03*
X171450000Y-53280000D03*
X170815000Y-53280000D03*
X170180000Y-53280000D03*
X169545000Y-53280000D03*
X168910000Y-53280000D03*
X168910000Y-58480000D03*
X169545000Y-58480000D03*
X170180000Y-58480000D03*
X170815000Y-58480000D03*
X171450000Y-58480000D03*
X172085000Y-58480000D03*
X172720000Y-58480000D03*
X173355000Y-58480000D03*
X173990000Y-58480000D03*
X174625000Y-58480000D03*
X175260000Y-58480000D03*
X175895000Y-58480000D03*
D20*
X111760000Y-55245000D03*
X114300000Y-55245000D03*
X116840000Y-55245000D03*
X119380000Y-55245000D03*
D10*
X165087000Y-112268000D03*
X165087000Y-110718000D03*
D21*
X168910000Y-81152000D03*
X168910000Y-79502000D03*
D22*
X168910000Y-68521000D03*
X168910000Y-70421000D03*
D10*
X182880000Y-117120000D03*
X182880000Y-115570000D03*
D16*
X163830000Y-68326000D03*
X163830000Y-69976000D03*
D27*
X106680000Y-60960000D03*
D28*
X106680000Y-63500000D03*
X106680000Y-66040000D03*
X106680000Y-68580000D03*
X106680000Y-71120000D03*
X106680000Y-73660000D03*
X106680000Y-76200000D03*
X106680000Y-78740000D03*
X106680000Y-81280000D03*
X106680000Y-83820000D03*
X106680000Y-86360000D03*
X106680000Y-88900000D03*
X106680000Y-91440000D03*
X106680000Y-93980000D03*
X106680000Y-96520000D03*
X106680000Y-99060000D03*
X106680000Y-101600000D03*
X106680000Y-104140000D03*
X106680000Y-106680000D03*
X106680000Y-109220000D03*
D18*
X192913000Y-80640000D03*
X192913000Y-78740000D03*
D10*
X192913000Y-87021000D03*
X192913000Y-85471000D03*
M02*
