G04 #@! TF.GenerationSoftware,KiCad,Pcbnew,8.0.4*
G04 #@! TF.CreationDate,2024-08-15T07:01:29-07:00*
G04 #@! TF.ProjectId,PocketFT8Xcvr,506f636b-6574-4465-9438-586376722e6b,rev?*
G04 #@! TF.SameCoordinates,Original*
G04 #@! TF.FileFunction,Legend,Bot*
G04 #@! TF.FilePolarity,Positive*
%FSLAX46Y46*%
G04 Gerber Fmt 4.6, Leading zero omitted, Abs format (unit mm)*
G04 Created by KiCad (PCBNEW 8.0.4) date 2024-08-15 07:01:29*
%MOMM*%
%LPD*%
G01*
G04 APERTURE LIST*
%ADD10C,0.508000*%
%ADD11C,2.000000*%
%ADD12R,1.600000X1.600000*%
%ADD13C,1.600000*%
%ADD14R,1.300000X1.300000*%
%ADD15C,1.300000*%
%ADD16C,2.020000*%
%ADD17R,1.500000X1.000000*%
%ADD18O,1.500000X1.000000*%
%ADD19R,1.473200X1.473200*%
%ADD20C,1.473200*%
%ADD21R,1.700000X1.700000*%
%ADD22O,1.700000X1.700000*%
%ADD23R,1.800000X1.800000*%
%ADD24C,1.800000*%
G04 APERTURE END LIST*
D10*
X122301000Y-110820200D02*
G75*
G02*
X121539000Y-110820200I-381000J0D01*
G01*
X121539000Y-110820200D02*
G75*
G02*
X122301000Y-110820200I381000J0D01*
G01*
%LPC*%
D11*
X106680000Y-115062000D03*
D12*
X139700000Y-54610000D03*
D13*
X139700000Y-57150000D03*
X139700000Y-59690000D03*
X139700000Y-62230000D03*
X139700000Y-64770000D03*
X139700000Y-67310000D03*
X139700000Y-69850000D03*
X139700000Y-72390000D03*
X139700000Y-74930000D03*
X139700000Y-77470000D03*
X139700000Y-80010000D03*
X139700000Y-82550000D03*
X139700000Y-85090000D03*
X139700000Y-87630000D03*
X139700000Y-90170000D03*
X139700000Y-92710000D03*
X139700000Y-95250000D03*
X139700000Y-97790000D03*
X139700000Y-100330000D03*
X139700000Y-102870000D03*
X139700000Y-105410000D03*
X139700000Y-107950000D03*
X139700000Y-110490000D03*
X139700000Y-113030000D03*
X154940000Y-113030000D03*
X154940000Y-110490000D03*
X154940000Y-107950000D03*
X154940000Y-105410000D03*
X154940000Y-102870000D03*
X154940000Y-100330000D03*
X154940000Y-97790000D03*
X154940000Y-95250000D03*
X154940000Y-92710000D03*
X154940000Y-90170000D03*
X154940000Y-87630000D03*
X154940000Y-85090000D03*
X154940000Y-82550000D03*
X154940000Y-80010000D03*
X154940000Y-77470000D03*
X154940000Y-74930000D03*
X154940000Y-72390000D03*
X154940000Y-69850000D03*
X154940000Y-67310000D03*
X154940000Y-64770000D03*
X154940000Y-62230000D03*
X154940000Y-59690000D03*
X154940000Y-57150000D03*
X154940000Y-54610000D03*
X152400000Y-57150000D03*
X142240000Y-100330000D03*
X144780000Y-100330000D03*
X147320000Y-100330000D03*
X149860000Y-100330000D03*
X152400000Y-100330000D03*
D12*
X142750800Y-60909200D03*
D13*
X142750800Y-63449200D03*
X142750800Y-65989200D03*
X142750800Y-68529200D03*
X142750800Y-71069200D03*
D14*
X152501600Y-67580000D03*
D15*
X150501600Y-67580000D03*
X148501600Y-67580000D03*
X148501600Y-69580000D03*
X150501600Y-69580000D03*
X152501600Y-69580000D03*
X148590000Y-55340000D03*
X146050000Y-55340000D03*
D16*
X182880000Y-55880000D03*
X185420000Y-55880000D03*
D11*
X184150000Y-66040000D03*
X184150000Y-60960000D03*
X106680000Y-54102000D03*
D17*
X168910000Y-117475000D03*
D18*
X168910000Y-116205000D03*
X168910000Y-114935000D03*
D19*
X180213000Y-98247200D03*
D20*
X180213000Y-92456000D03*
D11*
X184150000Y-80010000D03*
X184150000Y-74930000D03*
D21*
X198120000Y-60960000D03*
D22*
X198120000Y-63500000D03*
X198120000Y-66040000D03*
X198120000Y-68580000D03*
X198120000Y-71120000D03*
X198120000Y-73660000D03*
X198120000Y-76200000D03*
X198120000Y-78740000D03*
X198120000Y-81280000D03*
X198120000Y-83820000D03*
X198120000Y-86360000D03*
X198120000Y-88900000D03*
X198120000Y-91440000D03*
X198120000Y-93980000D03*
X198120000Y-96520000D03*
X198120000Y-99060000D03*
X198120000Y-101600000D03*
X198120000Y-104140000D03*
X198120000Y-106680000D03*
X198120000Y-109220000D03*
D11*
X198120000Y-115062000D03*
D17*
X168910000Y-107950000D03*
D18*
X168910000Y-106680000D03*
X168910000Y-105410000D03*
D17*
X175260000Y-76200000D03*
D18*
X175260000Y-74930000D03*
X175260000Y-73660000D03*
D23*
X177800000Y-115570000D03*
D24*
X175260000Y-115570000D03*
D17*
X175260000Y-86360000D03*
D18*
X175260000Y-85090000D03*
X175260000Y-83820000D03*
D11*
X198120000Y-54102000D03*
D16*
X111760000Y-55245000D03*
X114300000Y-55245000D03*
X116840000Y-55245000D03*
X119380000Y-55245000D03*
D21*
X106680000Y-60960000D03*
D22*
X106680000Y-63500000D03*
X106680000Y-66040000D03*
X106680000Y-68580000D03*
X106680000Y-71120000D03*
X106680000Y-73660000D03*
X106680000Y-76200000D03*
X106680000Y-78740000D03*
X106680000Y-81280000D03*
X106680000Y-83820000D03*
X106680000Y-86360000D03*
X106680000Y-88900000D03*
X106680000Y-91440000D03*
X106680000Y-93980000D03*
X106680000Y-96520000D03*
X106680000Y-99060000D03*
X106680000Y-101600000D03*
X106680000Y-104140000D03*
X106680000Y-106680000D03*
X106680000Y-109220000D03*
%LPD*%
M02*
