M48
; DRILL file {KiCad 9.0.5} date 2026-01-31T11:45:14-0800
; FORMAT={-:-/ absolute / metric / decimal}
; #@! TF.CreationDate,2026-01-31T11:45:14-08:00
; #@! TF.GenerationSoftware,Kicad,Pcbnew,9.0.5
; #@! TF.FileFunction,Plated,1,4,PTH
FMAT,2
METRIC
; #@! TA.AperFunction,Plated,PTH,ViaDrill
T1C0.200
; #@! TA.AperFunction,Plated,PTH,ViaDrill
T2C0.400
; #@! TA.AperFunction,Plated,PTH,ViaDrill
T3C0.500
; #@! TA.AperFunction,Plated,PTH,ViaDrill
T4C0.600
; #@! TA.AperFunction,Plated,PTH,ComponentDrill
T5C0.762
; #@! TA.AperFunction,Plated,PTH,ComponentDrill
T6C0.800
; #@! TA.AperFunction,Plated,PTH,ComponentDrill
T7C0.900
; #@! TA.AperFunction,Plated,PTH,ComponentDrill
T8C0.950
; #@! TA.AperFunction,Plated,PTH,ComponentDrill
T9C1.000
; #@! TA.AperFunction,Plated,PTH,ComponentDrill
T10C1.016
; #@! TA.AperFunction,Plated,PTH,ComponentDrill
T11C1.100
%
G90
G05
T1
X120.7Y-73.95
X120.7Y-74.95
X121.0Y-71.15
X123.2Y-72.75
X123.2Y-74.25
X124.45Y-76.65
X124.7Y-72.75
X124.7Y-74.2
X128.9Y-71.15
X128.9Y-72.65
X128.9Y-74.6
X128.9Y-75.4
X129.65Y-74.95
X130.81Y-75.902
X131.49Y-60.92
X131.49Y-76.65
X132.11Y-71.895
X142.24Y-91.44
X152.4Y-87.63
X152.4Y-96.266
X157.48Y-61.595
X157.48Y-72.39
X157.48Y-91.44
X157.48Y-95.504
X158.242Y-85.09
X158.75Y-62.865
X158.75Y-74.93
X159.131Y-87.63
X159.975Y-65.925
X160.0Y-82.55
X160.0Y-85.125
X160.02Y-86.36
X160.02Y-92.71
X160.02Y-101.092
X160.025Y-76.675
X160.909Y-81.28
X160.909Y-89.535
X161.9Y-80.025
X161.925Y-88.646
X163.82Y-67.16
X163.83Y-90.551
X166.875Y-78.0
X166.878Y-102.87
X168.91Y-60.071
X168.91Y-83.82
X168.91Y-90.67
X168.91Y-100.33
X169.53Y-52.06
X169.545Y-60.071
X170.18Y-64.04
X170.18Y-66.59
X170.19Y-52.06
X170.49Y-103.63
X170.815Y-52.07
X170.815Y-60.071
X171.45Y-61.595
X172.085Y-62.865
X172.79Y-60.96
X173.33Y-85.75
X173.34Y-87.3
X173.98Y-63.66
X175.02Y-61.51
X175.27Y-85.66
X175.27Y-86.56
X175.39Y-79.45
X191.4Y-102.03
T2
X114.2Y-76.57
X121.76Y-64.85
X121.92Y-113.03
X123.2Y-66.7
X125.225Y-96.875
X126.4Y-80.65
X128.1Y-55.47
X128.1Y-56.74
X129.6Y-54.25
X129.6Y-56.74
X132.15Y-113.05
X133.35Y-65.875
X133.6Y-96.45
X134.475Y-86.65
X137.16Y-83.8
X144.42Y-73.63
X146.4Y-76.2
X152.4Y-51.816
X165.48Y-84.69
X168.91Y-82.4
X169.56Y-97.79
X173.66Y-81.57
X176.4Y-115.475
T3
X117.42Y-82.12
X124.8Y-63.875
X124.9Y-70.15
X126.375Y-82.125
X128.34Y-69.7
X128.36Y-63.85
X130.0Y-82.975
X135.128Y-54.864
X135.128Y-68.58
X135.89Y-86.08
T4
X109.84Y-61.05
X110.42Y-71.02
X111.89Y-67.93
X114.38Y-105.92
X114.47Y-82.06
X114.52Y-92.71
X117.375Y-118.15
X126.45Y-106.02
X147.06Y-63.23
X147.33Y-95.83
X147.33Y-115.44
X148.35Y-86.35
X157.77Y-76.77
X157.79Y-83.42
X161.92Y-71.83
X163.79Y-95.17
X163.9Y-115.55
X165.49Y-82.9
X166.74Y-52.67
X166.74Y-65.29
X171.48Y-73.69
X171.91Y-95.4
X174.56Y-90.97
X175.03Y-66.82
X177.4Y-99.96
X177.45Y-106.69
X179.88Y-64.96
X179.93Y-74.72
X180.39Y-55.71
X187.03Y-91.92
X187.11Y-84.47
X187.18Y-67.28
X187.18Y-74.8
X189.37Y-99.96
X189.37Y-106.69
X200.81Y-86.43
T5
X182.05Y-62.0
X182.05Y-97.56
X192.21Y-62.0
X192.21Y-97.56
T6
X148.502Y-67.58
X148.502Y-69.58
X150.502Y-67.58
X150.502Y-69.58
X152.502Y-67.58
X152.502Y-69.58
T7
X160.01Y-111.225
X162.55Y-111.225
T8
X116.39Y-68.43
X133.9Y-73.15
X133.9Y-80.65
X166.35Y-111.24
X170.03Y-111.34
X171.49Y-70.4
T9
X106.68Y-60.96
X106.68Y-63.5
X106.68Y-66.04
X106.68Y-68.58
X106.68Y-71.12
X106.68Y-73.66
X106.68Y-76.2
X106.68Y-78.74
X106.68Y-81.28
X106.68Y-83.82
X106.68Y-86.36
X106.68Y-88.9
X106.68Y-91.44
X106.68Y-93.98
X106.68Y-96.52
X106.68Y-99.06
X106.68Y-101.6
X106.68Y-104.14
X106.68Y-106.68
X106.68Y-109.22
X182.11Y-110.41
X182.11Y-115.67
X189.67Y-110.41
X189.71Y-115.65
X198.12Y-60.96
X198.12Y-63.5
X198.12Y-66.04
X198.12Y-68.58
X198.12Y-71.12
X198.12Y-73.66
X198.12Y-76.2
X198.12Y-78.74
X198.12Y-81.28
X198.12Y-83.82
X198.12Y-86.36
X198.12Y-88.9
X198.12Y-91.44
X198.12Y-93.98
X198.12Y-96.52
X198.12Y-99.06
X198.12Y-101.6
X198.12Y-104.14
X198.12Y-106.68
X198.12Y-109.22
T10
X135.4Y-100.4
X135.4Y-102.94
X135.4Y-105.48
X135.4Y-108.02
X135.4Y-110.56
X135.4Y-113.1
T11
X112.4Y-55.15
X114.9Y-55.15
X117.4Y-55.15
X119.9Y-55.15
X122.4Y-55.15
X139.7Y-54.61
X139.7Y-57.15
X139.7Y-59.69
X139.7Y-62.23
X139.7Y-64.77
X139.7Y-67.31
X139.7Y-69.85
X139.7Y-72.39
X139.7Y-74.93
X139.7Y-77.47
X139.7Y-80.01
X139.7Y-82.55
X139.7Y-85.09
X139.7Y-87.63
X139.7Y-90.17
X139.7Y-92.71
X139.7Y-95.25
X139.7Y-97.79
X139.7Y-100.33
X139.7Y-102.87
X139.7Y-105.41
X139.7Y-107.95
X139.7Y-110.49
X139.7Y-113.03
X142.24Y-100.33
X144.78Y-100.33
X147.32Y-100.33
X149.86Y-100.33
X152.4Y-57.15
X152.4Y-100.33
X154.94Y-54.61
X154.94Y-57.15
X154.94Y-59.69
X154.94Y-62.23
X154.94Y-64.77
X154.94Y-67.31
X154.94Y-69.85
X154.94Y-72.39
X154.94Y-74.93
X154.94Y-77.47
X154.94Y-80.01
X154.94Y-82.55
X154.94Y-85.09
X154.94Y-87.63
X154.94Y-90.17
X154.94Y-92.71
X154.94Y-95.25
X154.94Y-97.79
X154.94Y-100.33
X154.94Y-102.87
X154.94Y-105.41
X154.94Y-107.95
X154.94Y-110.49
X154.94Y-113.03
M30
