G04 #@! TF.GenerationSoftware,KiCad,Pcbnew,9.0.5*
G04 #@! TF.CreationDate,2026-01-31T11:44:17-08:00*
G04 #@! TF.ProjectId,PocketFT8Xcvr,506f636b-6574-4465-9438-586376722e6b,rev?*
G04 #@! TF.SameCoordinates,Original*
G04 #@! TF.FileFunction,Legend,Bot*
G04 #@! TF.FilePolarity,Positive*
%FSLAX46Y46*%
G04 Gerber Fmt 4.6, Leading zero omitted, Abs format (unit mm)*
G04 Created by KiCad (PCBNEW 9.0.5) date 2026-01-31 11:44:17*
%MOMM*%
%LPD*%
G01*
G04 APERTURE LIST*
G04 Aperture macros list*
%AMRoundRect*
0 Rectangle with rounded corners*
0 $1 Rounding radius*
0 $2 $3 $4 $5 $6 $7 $8 $9 X,Y pos of 4 corners*
0 Add a 4 corners polygon primitive as box body*
4,1,4,$2,$3,$4,$5,$6,$7,$8,$9,$2,$3,0*
0 Add four circle primitives for the rounded corners*
1,1,$1+$1,$2,$3*
1,1,$1+$1,$4,$5*
1,1,$1+$1,$6,$7*
1,1,$1+$1,$8,$9*
0 Add four rect primitives between the rounded corners*
20,1,$1+$1,$2,$3,$4,$5,0*
20,1,$1+$1,$4,$5,$6,$7,0*
20,1,$1+$1,$6,$7,$8,$9,0*
20,1,$1+$1,$8,$9,$2,$3,0*%
G04 Aperture macros list end*
%ADD10C,0.150000*%
%ADD11C,0.152400*%
%ADD12C,0.508000*%
%ADD13C,3.000000*%
%ADD14R,1.600000X1.600000*%
%ADD15C,1.600000*%
%ADD16R,1.300000X1.300000*%
%ADD17C,1.300000*%
%ADD18C,1.803200*%
%ADD19R,2.413000X5.080000*%
%ADD20R,1.700000X1.700000*%
%ADD21O,1.700000X1.700000*%
%ADD22R,1.879600X1.879600*%
%ADD23C,1.879600*%
%ADD24RoundRect,0.250000X0.512000X-0.512000X0.512000X0.512000X-0.512000X0.512000X-0.512000X-0.512000X0*%
%ADD25C,1.524000*%
%ADD26R,1.800000X1.800000*%
%ADD27C,1.800000*%
%ADD28R,2.000000X2.000000*%
%ADD29C,2.000000*%
%ADD30R,2.100000X2.100000*%
%ADD31C,2.100000*%
%ADD32R,4.318000X3.302000*%
G04 APERTURE END LIST*
D10*
X121851009Y-92765714D02*
X121898628Y-92908571D01*
X121898628Y-92908571D02*
X121946247Y-92956190D01*
X121946247Y-92956190D02*
X122041485Y-93003809D01*
X122041485Y-93003809D02*
X122184342Y-93003809D01*
X122184342Y-93003809D02*
X122279580Y-92956190D01*
X122279580Y-92956190D02*
X122327200Y-92908571D01*
X122327200Y-92908571D02*
X122374819Y-92813333D01*
X122374819Y-92813333D02*
X122374819Y-92432381D01*
X122374819Y-92432381D02*
X121374819Y-92432381D01*
X121374819Y-92432381D02*
X121374819Y-92765714D01*
X121374819Y-92765714D02*
X121422438Y-92860952D01*
X121422438Y-92860952D02*
X121470057Y-92908571D01*
X121470057Y-92908571D02*
X121565295Y-92956190D01*
X121565295Y-92956190D02*
X121660533Y-92956190D01*
X121660533Y-92956190D02*
X121755771Y-92908571D01*
X121755771Y-92908571D02*
X121803390Y-92860952D01*
X121803390Y-92860952D02*
X121851009Y-92765714D01*
X121851009Y-92765714D02*
X121851009Y-92432381D01*
X122089104Y-93384762D02*
X122089104Y-93860952D01*
X122374819Y-93289524D02*
X121374819Y-93622857D01*
X121374819Y-93622857D02*
X122374819Y-93956190D01*
X121374819Y-94146667D02*
X121374819Y-94718095D01*
X122374819Y-94432381D02*
X121374819Y-94432381D01*
X122374819Y-95575238D02*
X122374819Y-95003810D01*
X122374819Y-95289524D02*
X121374819Y-95289524D01*
X121374819Y-95289524D02*
X121517676Y-95194286D01*
X121517676Y-95194286D02*
X121612914Y-95099048D01*
X121612914Y-95099048D02*
X121660533Y-95003810D01*
D11*
X111760000Y-77774800D02*
X119428260Y-77774800D01*
X111760000Y-110185200D02*
X111760000Y-77774800D01*
X119428260Y-110185200D02*
X111760000Y-110185200D01*
X124411740Y-77774800D02*
X132080000Y-77774800D01*
X132080000Y-77774800D02*
X132080000Y-110185200D01*
X132080000Y-110185200D02*
X124411740Y-110185200D01*
D12*
X121920000Y-111201200D02*
G75*
G02*
X121546188Y-110746540I0J381000D01*
G01*
X122293812Y-110746540D02*
G75*
G02*
X121920000Y-111201200I-373812J-73660D01*
G01*
%LPC*%
D13*
X106420000Y-54420000D03*
D14*
X139700000Y-54610000D03*
D15*
X139700000Y-57150000D03*
X139700000Y-59690000D03*
X139700000Y-62230000D03*
X139700000Y-64770000D03*
X139700000Y-67310000D03*
X139700000Y-69850000D03*
X139700000Y-72390000D03*
X139700000Y-74930000D03*
X139700000Y-77470000D03*
X139700000Y-80010000D03*
X139700000Y-82550000D03*
X139700000Y-85090000D03*
X139700000Y-87630000D03*
X139700000Y-90170000D03*
X139700000Y-92710000D03*
X139700000Y-95250000D03*
X139700000Y-97790000D03*
X139700000Y-100330000D03*
X139700000Y-102870000D03*
X139700000Y-105410000D03*
X139700000Y-107950000D03*
X139700000Y-110490000D03*
X139700000Y-113030000D03*
X154940000Y-113030000D03*
X154940000Y-110490000D03*
X154940000Y-107950000D03*
X154940000Y-105410000D03*
X154940000Y-102870000D03*
X154940000Y-100330000D03*
X154940000Y-97790000D03*
X154940000Y-95250000D03*
X154940000Y-92710000D03*
X154940000Y-90170000D03*
X154940000Y-87630000D03*
X154940000Y-85090000D03*
X154940000Y-82550000D03*
X154940000Y-80010000D03*
X154940000Y-77470000D03*
X154940000Y-74930000D03*
X154940000Y-72390000D03*
X154940000Y-69850000D03*
X154940000Y-67310000D03*
X154940000Y-64770000D03*
X154940000Y-62230000D03*
X154940000Y-59690000D03*
X154940000Y-57150000D03*
X154940000Y-54610000D03*
X152400000Y-57150000D03*
X142240000Y-100330000D03*
X144780000Y-100330000D03*
X147320000Y-100330000D03*
X149860000Y-100330000D03*
X152400000Y-100330000D03*
D16*
X152501600Y-67580000D03*
D17*
X150501600Y-67580000D03*
X148501600Y-67580000D03*
X148501600Y-69580000D03*
X150501600Y-69580000D03*
X152501600Y-69580000D03*
D18*
X116390000Y-68430000D03*
D19*
X183537000Y-53460000D03*
X192300000Y-53460000D03*
D13*
X106420000Y-115380000D03*
D20*
X198120000Y-60960000D03*
D21*
X198120000Y-63500000D03*
X198120000Y-66040000D03*
X198120000Y-68580000D03*
X198120000Y-71120000D03*
X198120000Y-73660000D03*
X198120000Y-76200000D03*
X198120000Y-78740000D03*
X198120000Y-81280000D03*
X198120000Y-83820000D03*
X198120000Y-86360000D03*
X198120000Y-88900000D03*
X198120000Y-91440000D03*
X198120000Y-93980000D03*
X198120000Y-96520000D03*
X198120000Y-99060000D03*
X198120000Y-101600000D03*
X198120000Y-104140000D03*
X198120000Y-106680000D03*
X198120000Y-109220000D03*
D13*
X197860000Y-115380000D03*
D22*
X135400000Y-100400000D03*
D23*
X135400000Y-102940000D03*
X135400000Y-105480000D03*
X135400000Y-108020000D03*
X135400000Y-110560000D03*
X135400000Y-113100000D03*
D18*
X133900000Y-80650000D03*
X171490000Y-70400000D03*
D24*
X182050000Y-97560000D03*
D25*
X192210000Y-97560000D03*
X182050000Y-62000000D03*
X192210000Y-62000000D03*
D26*
X162550000Y-111225000D03*
D27*
X160010000Y-111225000D03*
D28*
X189710000Y-115650000D03*
D29*
X182110000Y-115670000D03*
X189670000Y-110410000D03*
X182110000Y-110410000D03*
D18*
X133900000Y-73150000D03*
X166350000Y-111240000D03*
D30*
X112400000Y-55150000D03*
D31*
X114900000Y-55150000D03*
X117400000Y-55150000D03*
X119900000Y-55150000D03*
X122400000Y-55150000D03*
D20*
X106680000Y-60960000D03*
D21*
X106680000Y-63500000D03*
X106680000Y-66040000D03*
X106680000Y-68580000D03*
X106680000Y-71120000D03*
X106680000Y-73660000D03*
X106680000Y-76200000D03*
X106680000Y-78740000D03*
X106680000Y-81280000D03*
X106680000Y-83820000D03*
X106680000Y-86360000D03*
X106680000Y-88900000D03*
X106680000Y-91440000D03*
X106680000Y-93980000D03*
X106680000Y-96520000D03*
X106680000Y-99060000D03*
X106680000Y-101600000D03*
X106680000Y-104140000D03*
X106680000Y-106680000D03*
X106680000Y-109220000D03*
D13*
X197860000Y-54310000D03*
D18*
X170030000Y-111340000D03*
D32*
X121920000Y-108585000D03*
X121920000Y-79375000D03*
%LPD*%
M02*
