G04 #@! TF.GenerationSoftware,KiCad,Pcbnew,9.0.5*
G04 #@! TF.CreationDate,2026-01-31T11:44:17-08:00*
G04 #@! TF.ProjectId,PocketFT8Xcvr,506f636b-6574-4465-9438-586376722e6b,rev?*
G04 #@! TF.SameCoordinates,Original*
G04 #@! TF.FileFunction,Soldermask,Top*
G04 #@! TF.FilePolarity,Negative*
%FSLAX46Y46*%
G04 Gerber Fmt 4.6, Leading zero omitted, Abs format (unit mm)*
G04 Created by KiCad (PCBNEW 9.0.5) date 2026-01-31 11:44:17*
%MOMM*%
%LPD*%
G01*
G04 APERTURE LIST*
G04 Aperture macros list*
%AMRoundRect*
0 Rectangle with rounded corners*
0 $1 Rounding radius*
0 $2 $3 $4 $5 $6 $7 $8 $9 X,Y pos of 4 corners*
0 Add a 4 corners polygon primitive as box body*
4,1,4,$2,$3,$4,$5,$6,$7,$8,$9,$2,$3,0*
0 Add four circle primitives for the rounded corners*
1,1,$1+$1,$2,$3*
1,1,$1+$1,$4,$5*
1,1,$1+$1,$6,$7*
1,1,$1+$1,$8,$9*
0 Add four rect primitives between the rounded corners*
20,1,$1+$1,$2,$3,$4,$5,0*
20,1,$1+$1,$4,$5,$6,$7,0*
20,1,$1+$1,$6,$7,$8,$9,0*
20,1,$1+$1,$8,$9,$2,$3,0*%
G04 Aperture macros list end*
%ADD10C,3.000000*%
%ADD11R,1.600000X1.600000*%
%ADD12C,1.600000*%
%ADD13R,1.300000X1.300000*%
%ADD14C,1.300000*%
%ADD15C,1.803200*%
%ADD16RoundRect,0.200000X-0.275000X0.200000X-0.275000X-0.200000X0.275000X-0.200000X0.275000X0.200000X0*%
%ADD17RoundRect,0.102000X0.650000X-0.550000X0.650000X0.550000X-0.650000X0.550000X-0.650000X-0.550000X0*%
%ADD18RoundRect,0.250000X-0.475000X0.250000X-0.475000X-0.250000X0.475000X-0.250000X0.475000X0.250000X0*%
%ADD19R,2.286000X5.080000*%
%ADD20R,2.413000X5.080000*%
%ADD21RoundRect,0.225000X0.250000X-0.225000X0.250000X0.225000X-0.250000X0.225000X-0.250000X-0.225000X0*%
%ADD22RoundRect,0.200000X0.275000X-0.200000X0.275000X0.200000X-0.275000X0.200000X-0.275000X-0.200000X0*%
%ADD23R,1.700000X1.700000*%
%ADD24O,1.700000X1.700000*%
%ADD25RoundRect,0.225000X-0.250000X0.225000X-0.250000X-0.225000X0.250000X-0.225000X0.250000X0.225000X0*%
%ADD26R,0.420000X0.600000*%
%ADD27RoundRect,0.150000X-0.825000X-0.150000X0.825000X-0.150000X0.825000X0.150000X-0.825000X0.150000X0*%
%ADD28R,1.879600X1.879600*%
%ADD29C,1.879600*%
%ADD30RoundRect,0.250000X0.512000X-0.512000X0.512000X0.512000X-0.512000X0.512000X-0.512000X-0.512000X0*%
%ADD31C,1.524000*%
%ADD32R,1.800000X1.800000*%
%ADD33C,1.800000*%
%ADD34R,0.762000X0.254000*%
%ADD35R,0.254000X0.762000*%
%ADD36R,2.743200X2.743200*%
%ADD37R,2.000000X2.000000*%
%ADD38C,2.000000*%
%ADD39RoundRect,0.100000X-0.200000X0.600000X-0.200000X-0.600000X0.200000X-0.600000X0.200000X0.600000X0*%
%ADD40R,2.100000X2.100000*%
%ADD41C,2.100000*%
%ADD42R,1.981200X0.558800*%
G04 APERTURE END LIST*
D10*
X106420000Y-54420000D03*
D11*
X139700000Y-54610000D03*
D12*
X139700000Y-57150000D03*
X139700000Y-59690000D03*
X139700000Y-62230000D03*
X139700000Y-64770000D03*
X139700000Y-67310000D03*
X139700000Y-69850000D03*
X139700000Y-72390000D03*
X139700000Y-74930000D03*
X139700000Y-77470000D03*
X139700000Y-80010000D03*
X139700000Y-82550000D03*
X139700000Y-85090000D03*
X139700000Y-87630000D03*
X139700000Y-90170000D03*
X139700000Y-92710000D03*
X139700000Y-95250000D03*
X139700000Y-97790000D03*
X139700000Y-100330000D03*
X139700000Y-102870000D03*
X139700000Y-105410000D03*
X139700000Y-107950000D03*
X139700000Y-110490000D03*
X139700000Y-113030000D03*
X154940000Y-113030000D03*
X154940000Y-110490000D03*
X154940000Y-107950000D03*
X154940000Y-105410000D03*
X154940000Y-102870000D03*
X154940000Y-100330000D03*
X154940000Y-97790000D03*
X154940000Y-95250000D03*
X154940000Y-92710000D03*
X154940000Y-90170000D03*
X154940000Y-87630000D03*
X154940000Y-85090000D03*
X154940000Y-82550000D03*
X154940000Y-80010000D03*
X154940000Y-77470000D03*
X154940000Y-74930000D03*
X154940000Y-72390000D03*
X154940000Y-69850000D03*
X154940000Y-67310000D03*
X154940000Y-64770000D03*
X154940000Y-62230000D03*
X154940000Y-59690000D03*
X154940000Y-57150000D03*
X154940000Y-54610000D03*
X152400000Y-57150000D03*
X142240000Y-100330000D03*
X144780000Y-100330000D03*
X147320000Y-100330000D03*
X149860000Y-100330000D03*
X152400000Y-100330000D03*
D13*
X152501600Y-67580000D03*
D14*
X150501600Y-67580000D03*
X148501600Y-67580000D03*
X148501600Y-69580000D03*
X150501600Y-69580000D03*
X152501600Y-69580000D03*
D15*
X116390000Y-68430000D03*
D16*
X171480000Y-64910000D03*
X171480000Y-66560000D03*
D17*
X111900000Y-74800000D03*
X114200000Y-74800000D03*
X114200000Y-72900000D03*
X111900000Y-72900000D03*
D18*
X168910000Y-73660000D03*
X168910000Y-75560000D03*
D19*
X187918500Y-53460000D03*
D20*
X183537000Y-53460000D03*
X192300000Y-53460000D03*
D16*
X166878000Y-97536000D03*
X166878000Y-99186000D03*
D18*
X168910000Y-85852000D03*
X168910000Y-87752000D03*
D21*
X173980000Y-62330000D03*
X173980000Y-60780000D03*
D22*
X137390000Y-94330000D03*
X137390000Y-92680000D03*
D10*
X106420000Y-115380000D03*
D18*
X163830000Y-73660000D03*
X163830000Y-75560000D03*
D23*
X198120000Y-60960000D03*
D24*
X198120000Y-63500000D03*
X198120000Y-66040000D03*
X198120000Y-68580000D03*
X198120000Y-71120000D03*
X198120000Y-73660000D03*
X198120000Y-76200000D03*
X198120000Y-78740000D03*
X198120000Y-81280000D03*
X198120000Y-83820000D03*
X198120000Y-86360000D03*
X198120000Y-88900000D03*
X198120000Y-91440000D03*
X198120000Y-93980000D03*
X198120000Y-96520000D03*
X198120000Y-99060000D03*
X198120000Y-101600000D03*
X198120000Y-104140000D03*
X198120000Y-106680000D03*
X198120000Y-109220000D03*
D25*
X124820000Y-59760000D03*
X124820000Y-61310000D03*
D26*
X176950000Y-86570000D03*
X177600000Y-86570000D03*
X178250000Y-86570000D03*
X178250000Y-84670000D03*
X177600000Y-84670000D03*
X176950000Y-84670000D03*
D27*
X126400000Y-54230000D03*
X126400000Y-55500000D03*
X126400000Y-56770000D03*
X126400000Y-58040000D03*
X131350000Y-58040000D03*
X131350000Y-56770000D03*
X131350000Y-55500000D03*
X131350000Y-54230000D03*
D10*
X197860000Y-115380000D03*
D21*
X127600000Y-72700000D03*
X127600000Y-71150000D03*
D18*
X128340000Y-65210000D03*
X128340000Y-67110000D03*
D21*
X195320000Y-110845000D03*
X195320000Y-109295000D03*
D25*
X178270000Y-90270000D03*
X178270000Y-91820000D03*
D16*
X176920000Y-79490000D03*
X176920000Y-81140000D03*
D21*
X171990000Y-87290000D03*
X171990000Y-85740000D03*
D22*
X163760000Y-61610000D03*
X163760000Y-59960000D03*
D28*
X135400000Y-100400000D03*
D29*
X135400000Y-102940000D03*
X135400000Y-105480000D03*
X135400000Y-108020000D03*
X135400000Y-110560000D03*
X135400000Y-113100000D03*
D15*
X133900000Y-80650000D03*
D25*
X133440000Y-83860000D03*
X133440000Y-85410000D03*
X123200000Y-68400000D03*
X123200000Y-69950000D03*
D15*
X171490000Y-70400000D03*
D30*
X182050000Y-97560000D03*
D31*
X192210000Y-97560000D03*
X182050000Y-62000000D03*
X192210000Y-62000000D03*
D32*
X162550000Y-111225000D03*
D33*
X160010000Y-111225000D03*
D16*
X160000000Y-104125000D03*
X160000000Y-105775000D03*
D34*
X122037128Y-72487128D03*
X122037128Y-72984714D03*
X122037128Y-73482300D03*
X122037128Y-73979886D03*
X122037128Y-74477472D03*
D35*
X122959656Y-75400000D03*
X123457242Y-75400000D03*
X123954828Y-75400000D03*
X124452414Y-75400000D03*
X124950000Y-75400000D03*
D34*
X125872528Y-74477472D03*
X125872528Y-73979886D03*
X125872528Y-73482300D03*
X125872528Y-72984714D03*
X125872528Y-72487128D03*
D35*
X124950000Y-71564600D03*
X124452414Y-71564600D03*
X123954828Y-71564600D03*
X123457242Y-71564600D03*
X122959656Y-71564600D03*
D36*
X123954828Y-73482300D03*
D22*
X170510000Y-101980000D03*
X170510000Y-100330000D03*
D37*
X189710000Y-115650000D03*
D38*
X182110000Y-115670000D03*
X189670000Y-110410000D03*
X182110000Y-110410000D03*
D22*
X163830000Y-80898000D03*
X163830000Y-79248000D03*
D21*
X135890000Y-90170000D03*
X135890000Y-88620000D03*
X176100000Y-62330000D03*
X176100000Y-60780000D03*
D18*
X168950000Y-68475000D03*
X168950000Y-70375000D03*
D21*
X159550000Y-59660000D03*
X159550000Y-58110000D03*
D25*
X175290000Y-81560000D03*
X175290000Y-83110000D03*
D15*
X133900000Y-73150000D03*
D21*
X159550000Y-55190000D03*
X159550000Y-53640000D03*
D15*
X166350000Y-111240000D03*
D22*
X135410000Y-94350000D03*
X135410000Y-92700000D03*
X163830000Y-87375000D03*
X163830000Y-85725000D03*
D39*
X175895000Y-53280000D03*
X175260000Y-53280000D03*
X174625000Y-53280000D03*
X173990000Y-53280000D03*
X173355000Y-53280000D03*
X172720000Y-53280000D03*
X172085000Y-53280000D03*
X171450000Y-53280000D03*
X170815000Y-53280000D03*
X170180000Y-53280000D03*
X169545000Y-53280000D03*
X168910000Y-53280000D03*
X168910000Y-58480000D03*
X169545000Y-58480000D03*
X170180000Y-58480000D03*
X170815000Y-58480000D03*
X171450000Y-58480000D03*
X172085000Y-58480000D03*
X172720000Y-58480000D03*
X173355000Y-58480000D03*
X173990000Y-58480000D03*
X174625000Y-58480000D03*
X175260000Y-58480000D03*
X175895000Y-58480000D03*
D40*
X112400000Y-55150000D03*
D41*
X114900000Y-55150000D03*
X117400000Y-55150000D03*
X119900000Y-55150000D03*
X122400000Y-55150000D03*
D16*
X168910000Y-79320000D03*
X168910000Y-80970000D03*
D21*
X127600000Y-76150000D03*
X127600000Y-74600000D03*
D25*
X111920000Y-69440000D03*
X111920000Y-70990000D03*
D16*
X163830000Y-68326000D03*
X163830000Y-69976000D03*
D25*
X124800000Y-65475000D03*
X124800000Y-67025000D03*
D23*
X106680000Y-60960000D03*
D24*
X106680000Y-63500000D03*
X106680000Y-66040000D03*
X106680000Y-68580000D03*
X106680000Y-71120000D03*
X106680000Y-73660000D03*
X106680000Y-76200000D03*
X106680000Y-78740000D03*
X106680000Y-81280000D03*
X106680000Y-83820000D03*
X106680000Y-86360000D03*
X106680000Y-88900000D03*
X106680000Y-91440000D03*
X106680000Y-93980000D03*
X106680000Y-96520000D03*
X106680000Y-99060000D03*
X106680000Y-101600000D03*
X106680000Y-104140000D03*
X106680000Y-106680000D03*
X106680000Y-109220000D03*
D10*
X197860000Y-54310000D03*
D42*
X120527400Y-85430000D03*
X120527400Y-86700000D03*
X120527400Y-87970000D03*
X120527400Y-89240000D03*
X120527400Y-90510000D03*
X120527400Y-91780000D03*
X120527400Y-93050000D03*
X120527400Y-94320000D03*
X120527400Y-95590000D03*
X120527400Y-96860000D03*
X129900000Y-96860000D03*
X129900000Y-95590000D03*
X129900000Y-94320000D03*
X129900000Y-93050000D03*
X129900000Y-91780000D03*
X129900000Y-90510000D03*
X129900000Y-89240000D03*
X129900000Y-87970000D03*
X129900000Y-86700000D03*
X129900000Y-85430000D03*
D15*
X170030000Y-111340000D03*
D21*
X178700000Y-115400000D03*
X178700000Y-113850000D03*
X178400000Y-71180000D03*
X178400000Y-69630000D03*
M02*
