G04 #@! TF.GenerationSoftware,KiCad,Pcbnew,9.0.5*
G04 #@! TF.CreationDate,2026-01-31T11:44:17-08:00*
G04 #@! TF.ProjectId,PocketFT8Xcvr,506f636b-6574-4465-9438-586376722e6b,rev?*
G04 #@! TF.SameCoordinates,Original*
G04 #@! TF.FileFunction,Legend,Top*
G04 #@! TF.FilePolarity,Positive*
%FSLAX46Y46*%
G04 Gerber Fmt 4.6, Leading zero omitted, Abs format (unit mm)*
G04 Created by KiCad (PCBNEW 9.0.5) date 2026-01-31 11:44:17*
%MOMM*%
%LPD*%
G01*
G04 APERTURE LIST*
G04 Aperture macros list*
%AMRoundRect*
0 Rectangle with rounded corners*
0 $1 Rounding radius*
0 $2 $3 $4 $5 $6 $7 $8 $9 X,Y pos of 4 corners*
0 Add a 4 corners polygon primitive as box body*
4,1,4,$2,$3,$4,$5,$6,$7,$8,$9,$2,$3,0*
0 Add four circle primitives for the rounded corners*
1,1,$1+$1,$2,$3*
1,1,$1+$1,$4,$5*
1,1,$1+$1,$6,$7*
1,1,$1+$1,$8,$9*
0 Add four rect primitives between the rounded corners*
20,1,$1+$1,$2,$3,$4,$5,0*
20,1,$1+$1,$4,$5,$6,$7,0*
20,1,$1+$1,$6,$7,$8,$9,0*
20,1,$1+$1,$8,$9,$2,$3,0*%
G04 Aperture macros list end*
%ADD10C,0.150000*%
%ADD11C,0.300000*%
%ADD12C,0.254000*%
%ADD13C,0.200000*%
%ADD14C,0.100000*%
%ADD15C,0.120000*%
%ADD16C,0.127000*%
%ADD17C,0.152400*%
%ADD18C,0.000000*%
%ADD19C,0.508000*%
%ADD20C,3.000000*%
%ADD21R,1.600000X1.600000*%
%ADD22C,1.600000*%
%ADD23R,1.300000X1.300000*%
%ADD24C,1.300000*%
%ADD25C,1.803200*%
%ADD26RoundRect,0.200000X-0.275000X0.200000X-0.275000X-0.200000X0.275000X-0.200000X0.275000X0.200000X0*%
%ADD27RoundRect,0.102000X0.650000X-0.550000X0.650000X0.550000X-0.650000X0.550000X-0.650000X-0.550000X0*%
%ADD28RoundRect,0.250000X-0.475000X0.250000X-0.475000X-0.250000X0.475000X-0.250000X0.475000X0.250000X0*%
%ADD29R,2.286000X5.080000*%
%ADD30R,2.413000X5.080000*%
%ADD31RoundRect,0.225000X0.250000X-0.225000X0.250000X0.225000X-0.250000X0.225000X-0.250000X-0.225000X0*%
%ADD32RoundRect,0.200000X0.275000X-0.200000X0.275000X0.200000X-0.275000X0.200000X-0.275000X-0.200000X0*%
%ADD33R,1.700000X1.700000*%
%ADD34O,1.700000X1.700000*%
%ADD35RoundRect,0.225000X-0.250000X0.225000X-0.250000X-0.225000X0.250000X-0.225000X0.250000X0.225000X0*%
%ADD36R,0.420000X0.600000*%
%ADD37RoundRect,0.150000X-0.825000X-0.150000X0.825000X-0.150000X0.825000X0.150000X-0.825000X0.150000X0*%
%ADD38R,1.879600X1.879600*%
%ADD39C,1.879600*%
%ADD40RoundRect,0.250000X0.512000X-0.512000X0.512000X0.512000X-0.512000X0.512000X-0.512000X-0.512000X0*%
%ADD41C,1.524000*%
%ADD42R,1.800000X1.800000*%
%ADD43C,1.800000*%
%ADD44R,0.762000X0.254000*%
%ADD45R,0.254000X0.762000*%
%ADD46R,2.743200X2.743200*%
%ADD47R,2.000000X2.000000*%
%ADD48C,2.000000*%
%ADD49RoundRect,0.100000X-0.200000X0.600000X-0.200000X-0.600000X0.200000X-0.600000X0.200000X0.600000X0*%
%ADD50R,2.100000X2.100000*%
%ADD51C,2.100000*%
%ADD52R,1.981200X0.558800*%
G04 APERTURE END LIST*
D10*
X199672969Y-91799819D02*
X199672969Y-90799819D01*
X199672969Y-90799819D02*
X199887255Y-90799819D01*
X199887255Y-90799819D02*
X200015826Y-90847438D01*
X200015826Y-90847438D02*
X200101541Y-90942676D01*
X200101541Y-90942676D02*
X200144398Y-91037914D01*
X200144398Y-91037914D02*
X200187255Y-91228390D01*
X200187255Y-91228390D02*
X200187255Y-91371247D01*
X200187255Y-91371247D02*
X200144398Y-91561723D01*
X200144398Y-91561723D02*
X200101541Y-91656961D01*
X200101541Y-91656961D02*
X200015826Y-91752200D01*
X200015826Y-91752200D02*
X199887255Y-91799819D01*
X199887255Y-91799819D02*
X199672969Y-91799819D01*
X201215826Y-90752200D02*
X200444398Y-92037914D01*
X202030112Y-91704580D02*
X201987255Y-91752200D01*
X201987255Y-91752200D02*
X201858683Y-91799819D01*
X201858683Y-91799819D02*
X201772969Y-91799819D01*
X201772969Y-91799819D02*
X201644398Y-91752200D01*
X201644398Y-91752200D02*
X201558683Y-91656961D01*
X201558683Y-91656961D02*
X201515826Y-91561723D01*
X201515826Y-91561723D02*
X201472969Y-91371247D01*
X201472969Y-91371247D02*
X201472969Y-91228390D01*
X201472969Y-91228390D02*
X201515826Y-91037914D01*
X201515826Y-91037914D02*
X201558683Y-90942676D01*
X201558683Y-90942676D02*
X201644398Y-90847438D01*
X201644398Y-90847438D02*
X201772969Y-90799819D01*
X201772969Y-90799819D02*
X201858683Y-90799819D01*
X201858683Y-90799819D02*
X201987255Y-90847438D01*
X201987255Y-90847438D02*
X202030112Y-90895057D01*
X199672969Y-99419819D02*
X199672969Y-98419819D01*
X199672969Y-98419819D02*
X199972969Y-99134104D01*
X199972969Y-99134104D02*
X200272969Y-98419819D01*
X200272969Y-98419819D02*
X200272969Y-99419819D01*
X200658683Y-99372200D02*
X200787255Y-99419819D01*
X200787255Y-99419819D02*
X201001540Y-99419819D01*
X201001540Y-99419819D02*
X201087255Y-99372200D01*
X201087255Y-99372200D02*
X201130112Y-99324580D01*
X201130112Y-99324580D02*
X201172969Y-99229342D01*
X201172969Y-99229342D02*
X201172969Y-99134104D01*
X201172969Y-99134104D02*
X201130112Y-99038866D01*
X201130112Y-99038866D02*
X201087255Y-98991247D01*
X201087255Y-98991247D02*
X201001540Y-98943628D01*
X201001540Y-98943628D02*
X200830112Y-98896009D01*
X200830112Y-98896009D02*
X200744397Y-98848390D01*
X200744397Y-98848390D02*
X200701540Y-98800771D01*
X200701540Y-98800771D02*
X200658683Y-98705533D01*
X200658683Y-98705533D02*
X200658683Y-98610295D01*
X200658683Y-98610295D02*
X200701540Y-98515057D01*
X200701540Y-98515057D02*
X200744397Y-98467438D01*
X200744397Y-98467438D02*
X200830112Y-98419819D01*
X200830112Y-98419819D02*
X201044397Y-98419819D01*
X201044397Y-98419819D02*
X201172969Y-98467438D01*
X201730112Y-98419819D02*
X201901540Y-98419819D01*
X201901540Y-98419819D02*
X201987255Y-98467438D01*
X201987255Y-98467438D02*
X202072969Y-98562676D01*
X202072969Y-98562676D02*
X202115826Y-98753152D01*
X202115826Y-98753152D02*
X202115826Y-99086485D01*
X202115826Y-99086485D02*
X202072969Y-99276961D01*
X202072969Y-99276961D02*
X201987255Y-99372200D01*
X201987255Y-99372200D02*
X201901540Y-99419819D01*
X201901540Y-99419819D02*
X201730112Y-99419819D01*
X201730112Y-99419819D02*
X201644398Y-99372200D01*
X201644398Y-99372200D02*
X201558683Y-99276961D01*
X201558683Y-99276961D02*
X201515826Y-99086485D01*
X201515826Y-99086485D02*
X201515826Y-98753152D01*
X201515826Y-98753152D02*
X201558683Y-98562676D01*
X201558683Y-98562676D02*
X201644398Y-98467438D01*
X201644398Y-98467438D02*
X201730112Y-98419819D01*
X200268207Y-94244580D02*
X200220588Y-94292200D01*
X200220588Y-94292200D02*
X200077731Y-94339819D01*
X200077731Y-94339819D02*
X199982493Y-94339819D01*
X199982493Y-94339819D02*
X199839636Y-94292200D01*
X199839636Y-94292200D02*
X199744398Y-94196961D01*
X199744398Y-94196961D02*
X199696779Y-94101723D01*
X199696779Y-94101723D02*
X199649160Y-93911247D01*
X199649160Y-93911247D02*
X199649160Y-93768390D01*
X199649160Y-93768390D02*
X199696779Y-93577914D01*
X199696779Y-93577914D02*
X199744398Y-93482676D01*
X199744398Y-93482676D02*
X199839636Y-93387438D01*
X199839636Y-93387438D02*
X199982493Y-93339819D01*
X199982493Y-93339819D02*
X200077731Y-93339819D01*
X200077731Y-93339819D02*
X200220588Y-93387438D01*
X200220588Y-93387438D02*
X200268207Y-93435057D01*
X200649160Y-94292200D02*
X200792017Y-94339819D01*
X200792017Y-94339819D02*
X201030112Y-94339819D01*
X201030112Y-94339819D02*
X201125350Y-94292200D01*
X201125350Y-94292200D02*
X201172969Y-94244580D01*
X201172969Y-94244580D02*
X201220588Y-94149342D01*
X201220588Y-94149342D02*
X201220588Y-94054104D01*
X201220588Y-94054104D02*
X201172969Y-93958866D01*
X201172969Y-93958866D02*
X201125350Y-93911247D01*
X201125350Y-93911247D02*
X201030112Y-93863628D01*
X201030112Y-93863628D02*
X200839636Y-93816009D01*
X200839636Y-93816009D02*
X200744398Y-93768390D01*
X200744398Y-93768390D02*
X200696779Y-93720771D01*
X200696779Y-93720771D02*
X200649160Y-93625533D01*
X200649160Y-93625533D02*
X200649160Y-93530295D01*
X200649160Y-93530295D02*
X200696779Y-93435057D01*
X200696779Y-93435057D02*
X200744398Y-93387438D01*
X200744398Y-93387438D02*
X200839636Y-93339819D01*
X200839636Y-93339819D02*
X201077731Y-93339819D01*
X201077731Y-93339819D02*
X201220588Y-93387438D01*
D11*
X200114510Y-78824542D02*
X200114510Y-79538828D01*
X199681177Y-78038828D02*
X200114510Y-78824542D01*
X200114510Y-78824542D02*
X200547844Y-78038828D01*
X200981177Y-78967400D02*
X201971654Y-78967400D01*
X112684950Y-65295489D02*
X111084950Y-65295489D01*
X111084950Y-65295489D02*
X111084950Y-64724060D01*
X111084950Y-64724060D02*
X111161140Y-64581203D01*
X111161140Y-64581203D02*
X111237331Y-64509774D01*
X111237331Y-64509774D02*
X111389712Y-64438346D01*
X111389712Y-64438346D02*
X111618283Y-64438346D01*
X111618283Y-64438346D02*
X111770664Y-64509774D01*
X111770664Y-64509774D02*
X111846855Y-64581203D01*
X111846855Y-64581203D02*
X111923045Y-64724060D01*
X111923045Y-64724060D02*
X111923045Y-65295489D01*
X112684950Y-63795489D02*
X111084950Y-63795489D01*
X111084950Y-63795489D02*
X111084950Y-63224060D01*
X111084950Y-63224060D02*
X111161140Y-63081203D01*
X111161140Y-63081203D02*
X111237331Y-63009774D01*
X111237331Y-63009774D02*
X111389712Y-62938346D01*
X111389712Y-62938346D02*
X111618283Y-62938346D01*
X111618283Y-62938346D02*
X111770664Y-63009774D01*
X111770664Y-63009774D02*
X111846855Y-63081203D01*
X111846855Y-63081203D02*
X111923045Y-63224060D01*
X111923045Y-63224060D02*
X111923045Y-63795489D01*
X112608760Y-62366917D02*
X112684950Y-62152632D01*
X112684950Y-62152632D02*
X112684950Y-61795489D01*
X112684950Y-61795489D02*
X112608760Y-61652632D01*
X112608760Y-61652632D02*
X112532569Y-61581203D01*
X112532569Y-61581203D02*
X112380188Y-61509774D01*
X112380188Y-61509774D02*
X112227807Y-61509774D01*
X112227807Y-61509774D02*
X112075426Y-61581203D01*
X112075426Y-61581203D02*
X111999236Y-61652632D01*
X111999236Y-61652632D02*
X111923045Y-61795489D01*
X111923045Y-61795489D02*
X111846855Y-62081203D01*
X111846855Y-62081203D02*
X111770664Y-62224060D01*
X111770664Y-62224060D02*
X111694474Y-62295489D01*
X111694474Y-62295489D02*
X111542093Y-62366917D01*
X111542093Y-62366917D02*
X111389712Y-62366917D01*
X111389712Y-62366917D02*
X111237331Y-62295489D01*
X111237331Y-62295489D02*
X111161140Y-62224060D01*
X111161140Y-62224060D02*
X111084950Y-62081203D01*
X111084950Y-62081203D02*
X111084950Y-61724060D01*
X111084950Y-61724060D02*
X111161140Y-61509774D01*
X114651336Y-65295489D02*
X114651336Y-64152632D01*
X115260860Y-64724060D02*
X114041812Y-64724060D01*
X113660860Y-62724060D02*
X113660860Y-63438346D01*
X113660860Y-63438346D02*
X114422765Y-63509774D01*
X114422765Y-63509774D02*
X114346574Y-63438346D01*
X114346574Y-63438346D02*
X114270384Y-63295489D01*
X114270384Y-63295489D02*
X114270384Y-62938346D01*
X114270384Y-62938346D02*
X114346574Y-62795489D01*
X114346574Y-62795489D02*
X114422765Y-62724060D01*
X114422765Y-62724060D02*
X114575146Y-62652631D01*
X114575146Y-62652631D02*
X114956098Y-62652631D01*
X114956098Y-62652631D02*
X115108479Y-62724060D01*
X115108479Y-62724060D02*
X115184670Y-62795489D01*
X115184670Y-62795489D02*
X115260860Y-62938346D01*
X115260860Y-62938346D02*
X115260860Y-63295489D01*
X115260860Y-63295489D02*
X115184670Y-63438346D01*
X115184670Y-63438346D02*
X115108479Y-63509774D01*
X113660860Y-62224060D02*
X115260860Y-61724060D01*
X115260860Y-61724060D02*
X113660860Y-61224060D01*
X116312960Y-64509774D02*
X116236770Y-64652632D01*
X116236770Y-64652632D02*
X116236770Y-64866917D01*
X116236770Y-64866917D02*
X116312960Y-65081203D01*
X116312960Y-65081203D02*
X116465341Y-65224060D01*
X116465341Y-65224060D02*
X116617722Y-65295489D01*
X116617722Y-65295489D02*
X116922484Y-65366917D01*
X116922484Y-65366917D02*
X117151056Y-65366917D01*
X117151056Y-65366917D02*
X117455818Y-65295489D01*
X117455818Y-65295489D02*
X117608199Y-65224060D01*
X117608199Y-65224060D02*
X117760580Y-65081203D01*
X117760580Y-65081203D02*
X117836770Y-64866917D01*
X117836770Y-64866917D02*
X117836770Y-64724060D01*
X117836770Y-64724060D02*
X117760580Y-64509774D01*
X117760580Y-64509774D02*
X117684389Y-64438346D01*
X117684389Y-64438346D02*
X117151056Y-64438346D01*
X117151056Y-64438346D02*
X117151056Y-64724060D01*
X117836770Y-63795489D02*
X116236770Y-63795489D01*
X116236770Y-63795489D02*
X117836770Y-62938346D01*
X117836770Y-62938346D02*
X116236770Y-62938346D01*
X117836770Y-62224060D02*
X116236770Y-62224060D01*
X116236770Y-62224060D02*
X116236770Y-61866917D01*
X116236770Y-61866917D02*
X116312960Y-61652631D01*
X116312960Y-61652631D02*
X116465341Y-61509774D01*
X116465341Y-61509774D02*
X116617722Y-61438345D01*
X116617722Y-61438345D02*
X116922484Y-61366917D01*
X116922484Y-61366917D02*
X117151056Y-61366917D01*
X117151056Y-61366917D02*
X117455818Y-61438345D01*
X117455818Y-61438345D02*
X117608199Y-61509774D01*
X117608199Y-61509774D02*
X117760580Y-61652631D01*
X117760580Y-61652631D02*
X117836770Y-61866917D01*
X117836770Y-61866917D02*
X117836770Y-62224060D01*
X118888870Y-64509774D02*
X118812680Y-64652632D01*
X118812680Y-64652632D02*
X118812680Y-64866917D01*
X118812680Y-64866917D02*
X118888870Y-65081203D01*
X118888870Y-65081203D02*
X119041251Y-65224060D01*
X119041251Y-65224060D02*
X119193632Y-65295489D01*
X119193632Y-65295489D02*
X119498394Y-65366917D01*
X119498394Y-65366917D02*
X119726966Y-65366917D01*
X119726966Y-65366917D02*
X120031728Y-65295489D01*
X120031728Y-65295489D02*
X120184109Y-65224060D01*
X120184109Y-65224060D02*
X120336490Y-65081203D01*
X120336490Y-65081203D02*
X120412680Y-64866917D01*
X120412680Y-64866917D02*
X120412680Y-64724060D01*
X120412680Y-64724060D02*
X120336490Y-64509774D01*
X120336490Y-64509774D02*
X120260299Y-64438346D01*
X120260299Y-64438346D02*
X119726966Y-64438346D01*
X119726966Y-64438346D02*
X119726966Y-64724060D01*
X120412680Y-63795489D02*
X118812680Y-63795489D01*
X118812680Y-63795489D02*
X118812680Y-63224060D01*
X118812680Y-63224060D02*
X118888870Y-63081203D01*
X118888870Y-63081203D02*
X118965061Y-63009774D01*
X118965061Y-63009774D02*
X119117442Y-62938346D01*
X119117442Y-62938346D02*
X119346013Y-62938346D01*
X119346013Y-62938346D02*
X119498394Y-63009774D01*
X119498394Y-63009774D02*
X119574585Y-63081203D01*
X119574585Y-63081203D02*
X119650775Y-63224060D01*
X119650775Y-63224060D02*
X119650775Y-63795489D01*
X120336490Y-62366917D02*
X120412680Y-62152632D01*
X120412680Y-62152632D02*
X120412680Y-61795489D01*
X120412680Y-61795489D02*
X120336490Y-61652632D01*
X120336490Y-61652632D02*
X120260299Y-61581203D01*
X120260299Y-61581203D02*
X120107918Y-61509774D01*
X120107918Y-61509774D02*
X119955537Y-61509774D01*
X119955537Y-61509774D02*
X119803156Y-61581203D01*
X119803156Y-61581203D02*
X119726966Y-61652632D01*
X119726966Y-61652632D02*
X119650775Y-61795489D01*
X119650775Y-61795489D02*
X119574585Y-62081203D01*
X119574585Y-62081203D02*
X119498394Y-62224060D01*
X119498394Y-62224060D02*
X119422204Y-62295489D01*
X119422204Y-62295489D02*
X119269823Y-62366917D01*
X119269823Y-62366917D02*
X119117442Y-62366917D01*
X119117442Y-62366917D02*
X118965061Y-62295489D01*
X118965061Y-62295489D02*
X118888870Y-62224060D01*
X118888870Y-62224060D02*
X118812680Y-62081203D01*
X118812680Y-62081203D02*
X118812680Y-61724060D01*
X118812680Y-61724060D02*
X118888870Y-61509774D01*
X120412680Y-60009775D02*
X119650775Y-60509775D01*
X120412680Y-60866918D02*
X118812680Y-60866918D01*
X118812680Y-60866918D02*
X118812680Y-60295489D01*
X118812680Y-60295489D02*
X118888870Y-60152632D01*
X118888870Y-60152632D02*
X118965061Y-60081203D01*
X118965061Y-60081203D02*
X119117442Y-60009775D01*
X119117442Y-60009775D02*
X119346013Y-60009775D01*
X119346013Y-60009775D02*
X119498394Y-60081203D01*
X119498394Y-60081203D02*
X119574585Y-60152632D01*
X119574585Y-60152632D02*
X119650775Y-60295489D01*
X119650775Y-60295489D02*
X119650775Y-60866918D01*
X118812680Y-59509775D02*
X120412680Y-58509775D01*
X118812680Y-58509775D02*
X120412680Y-59509775D01*
X121464780Y-64509774D02*
X121388590Y-64652632D01*
X121388590Y-64652632D02*
X121388590Y-64866917D01*
X121388590Y-64866917D02*
X121464780Y-65081203D01*
X121464780Y-65081203D02*
X121617161Y-65224060D01*
X121617161Y-65224060D02*
X121769542Y-65295489D01*
X121769542Y-65295489D02*
X122074304Y-65366917D01*
X122074304Y-65366917D02*
X122302876Y-65366917D01*
X122302876Y-65366917D02*
X122607638Y-65295489D01*
X122607638Y-65295489D02*
X122760019Y-65224060D01*
X122760019Y-65224060D02*
X122912400Y-65081203D01*
X122912400Y-65081203D02*
X122988590Y-64866917D01*
X122988590Y-64866917D02*
X122988590Y-64724060D01*
X122988590Y-64724060D02*
X122912400Y-64509774D01*
X122912400Y-64509774D02*
X122836209Y-64438346D01*
X122836209Y-64438346D02*
X122302876Y-64438346D01*
X122302876Y-64438346D02*
X122302876Y-64724060D01*
X122988590Y-63795489D02*
X121388590Y-63795489D01*
X121388590Y-63795489D02*
X121388590Y-63224060D01*
X121388590Y-63224060D02*
X121464780Y-63081203D01*
X121464780Y-63081203D02*
X121540971Y-63009774D01*
X121540971Y-63009774D02*
X121693352Y-62938346D01*
X121693352Y-62938346D02*
X121921923Y-62938346D01*
X121921923Y-62938346D02*
X122074304Y-63009774D01*
X122074304Y-63009774D02*
X122150495Y-63081203D01*
X122150495Y-63081203D02*
X122226685Y-63224060D01*
X122226685Y-63224060D02*
X122226685Y-63795489D01*
X122912400Y-62366917D02*
X122988590Y-62152632D01*
X122988590Y-62152632D02*
X122988590Y-61795489D01*
X122988590Y-61795489D02*
X122912400Y-61652632D01*
X122912400Y-61652632D02*
X122836209Y-61581203D01*
X122836209Y-61581203D02*
X122683828Y-61509774D01*
X122683828Y-61509774D02*
X122531447Y-61509774D01*
X122531447Y-61509774D02*
X122379066Y-61581203D01*
X122379066Y-61581203D02*
X122302876Y-61652632D01*
X122302876Y-61652632D02*
X122226685Y-61795489D01*
X122226685Y-61795489D02*
X122150495Y-62081203D01*
X122150495Y-62081203D02*
X122074304Y-62224060D01*
X122074304Y-62224060D02*
X121998114Y-62295489D01*
X121998114Y-62295489D02*
X121845733Y-62366917D01*
X121845733Y-62366917D02*
X121693352Y-62366917D01*
X121693352Y-62366917D02*
X121540971Y-62295489D01*
X121540971Y-62295489D02*
X121464780Y-62224060D01*
X121464780Y-62224060D02*
X121388590Y-62081203D01*
X121388590Y-62081203D02*
X121388590Y-61724060D01*
X121388590Y-61724060D02*
X121464780Y-61509774D01*
X121388590Y-61081203D02*
X121388590Y-60224061D01*
X122988590Y-60652632D02*
X121388590Y-60652632D01*
X121388590Y-59866918D02*
X122988590Y-58866918D01*
X121388590Y-58866918D02*
X122988590Y-59866918D01*
D10*
X200268207Y-89259819D02*
X199934874Y-88783628D01*
X199696779Y-89259819D02*
X199696779Y-88259819D01*
X199696779Y-88259819D02*
X200077731Y-88259819D01*
X200077731Y-88259819D02*
X200172969Y-88307438D01*
X200172969Y-88307438D02*
X200220588Y-88355057D01*
X200220588Y-88355057D02*
X200268207Y-88450295D01*
X200268207Y-88450295D02*
X200268207Y-88593152D01*
X200268207Y-88593152D02*
X200220588Y-88688390D01*
X200220588Y-88688390D02*
X200172969Y-88736009D01*
X200172969Y-88736009D02*
X200077731Y-88783628D01*
X200077731Y-88783628D02*
X199696779Y-88783628D01*
X200649160Y-89212200D02*
X200792017Y-89259819D01*
X200792017Y-89259819D02*
X201030112Y-89259819D01*
X201030112Y-89259819D02*
X201125350Y-89212200D01*
X201125350Y-89212200D02*
X201172969Y-89164580D01*
X201172969Y-89164580D02*
X201220588Y-89069342D01*
X201220588Y-89069342D02*
X201220588Y-88974104D01*
X201220588Y-88974104D02*
X201172969Y-88878866D01*
X201172969Y-88878866D02*
X201125350Y-88831247D01*
X201125350Y-88831247D02*
X201030112Y-88783628D01*
X201030112Y-88783628D02*
X200839636Y-88736009D01*
X200839636Y-88736009D02*
X200744398Y-88688390D01*
X200744398Y-88688390D02*
X200696779Y-88640771D01*
X200696779Y-88640771D02*
X200649160Y-88545533D01*
X200649160Y-88545533D02*
X200649160Y-88450295D01*
X200649160Y-88450295D02*
X200696779Y-88355057D01*
X200696779Y-88355057D02*
X200744398Y-88307438D01*
X200744398Y-88307438D02*
X200839636Y-88259819D01*
X200839636Y-88259819D02*
X201077731Y-88259819D01*
X201077731Y-88259819D02*
X201220588Y-88307438D01*
X201506303Y-88259819D02*
X202077731Y-88259819D01*
X201792017Y-89259819D02*
X201792017Y-88259819D01*
D11*
X199743082Y-80324828D02*
X200609748Y-81824828D01*
X200609748Y-80324828D02*
X199743082Y-81824828D01*
X201104986Y-81253400D02*
X202095463Y-81253400D01*
X201600224Y-81824828D02*
X201600224Y-80681971D01*
D10*
X199696779Y-96879819D02*
X199696779Y-95879819D01*
X199696779Y-95879819D02*
X200030112Y-96594104D01*
X200030112Y-96594104D02*
X200363445Y-95879819D01*
X200363445Y-95879819D02*
X200363445Y-96879819D01*
X200792017Y-96832200D02*
X200934874Y-96879819D01*
X200934874Y-96879819D02*
X201172969Y-96879819D01*
X201172969Y-96879819D02*
X201268207Y-96832200D01*
X201268207Y-96832200D02*
X201315826Y-96784580D01*
X201315826Y-96784580D02*
X201363445Y-96689342D01*
X201363445Y-96689342D02*
X201363445Y-96594104D01*
X201363445Y-96594104D02*
X201315826Y-96498866D01*
X201315826Y-96498866D02*
X201268207Y-96451247D01*
X201268207Y-96451247D02*
X201172969Y-96403628D01*
X201172969Y-96403628D02*
X200982493Y-96356009D01*
X200982493Y-96356009D02*
X200887255Y-96308390D01*
X200887255Y-96308390D02*
X200839636Y-96260771D01*
X200839636Y-96260771D02*
X200792017Y-96165533D01*
X200792017Y-96165533D02*
X200792017Y-96070295D01*
X200792017Y-96070295D02*
X200839636Y-95975057D01*
X200839636Y-95975057D02*
X200887255Y-95927438D01*
X200887255Y-95927438D02*
X200982493Y-95879819D01*
X200982493Y-95879819D02*
X201220588Y-95879819D01*
X201220588Y-95879819D02*
X201363445Y-95927438D01*
X201792017Y-96879819D02*
X201792017Y-95879819D01*
X133760588Y-100819819D02*
X133189160Y-100819819D01*
X133474874Y-100819819D02*
X133474874Y-99819819D01*
X133474874Y-99819819D02*
X133379636Y-99962676D01*
X133379636Y-99962676D02*
X133284398Y-100057914D01*
X133284398Y-100057914D02*
X133189160Y-100105533D01*
X199696779Y-106658866D02*
X200458684Y-106658866D01*
X200077731Y-107039819D02*
X200077731Y-106277914D01*
X201411064Y-106039819D02*
X200934874Y-106039819D01*
X200934874Y-106039819D02*
X200887255Y-106516009D01*
X200887255Y-106516009D02*
X200934874Y-106468390D01*
X200934874Y-106468390D02*
X201030112Y-106420771D01*
X201030112Y-106420771D02*
X201268207Y-106420771D01*
X201268207Y-106420771D02*
X201363445Y-106468390D01*
X201363445Y-106468390D02*
X201411064Y-106516009D01*
X201411064Y-106516009D02*
X201458683Y-106611247D01*
X201458683Y-106611247D02*
X201458683Y-106849342D01*
X201458683Y-106849342D02*
X201411064Y-106944580D01*
X201411064Y-106944580D02*
X201363445Y-106992200D01*
X201363445Y-106992200D02*
X201268207Y-107039819D01*
X201268207Y-107039819D02*
X201030112Y-107039819D01*
X201030112Y-107039819D02*
X200934874Y-106992200D01*
X200934874Y-106992200D02*
X200887255Y-106944580D01*
X199672969Y-101959819D02*
X199672969Y-100959819D01*
X199672969Y-100959819D02*
X199887255Y-100959819D01*
X199887255Y-100959819D02*
X200015826Y-101007438D01*
X200015826Y-101007438D02*
X200101541Y-101102676D01*
X200101541Y-101102676D02*
X200144398Y-101197914D01*
X200144398Y-101197914D02*
X200187255Y-101388390D01*
X200187255Y-101388390D02*
X200187255Y-101531247D01*
X200187255Y-101531247D02*
X200144398Y-101721723D01*
X200144398Y-101721723D02*
X200101541Y-101816961D01*
X200101541Y-101816961D02*
X200015826Y-101912200D01*
X200015826Y-101912200D02*
X199887255Y-101959819D01*
X199887255Y-101959819D02*
X199672969Y-101959819D01*
X201087255Y-101864580D02*
X201044398Y-101912200D01*
X201044398Y-101912200D02*
X200915826Y-101959819D01*
X200915826Y-101959819D02*
X200830112Y-101959819D01*
X200830112Y-101959819D02*
X200701541Y-101912200D01*
X200701541Y-101912200D02*
X200615826Y-101816961D01*
X200615826Y-101816961D02*
X200572969Y-101721723D01*
X200572969Y-101721723D02*
X200530112Y-101531247D01*
X200530112Y-101531247D02*
X200530112Y-101388390D01*
X200530112Y-101388390D02*
X200572969Y-101197914D01*
X200572969Y-101197914D02*
X200615826Y-101102676D01*
X200615826Y-101102676D02*
X200701541Y-101007438D01*
X200701541Y-101007438D02*
X200830112Y-100959819D01*
X200830112Y-100959819D02*
X200915826Y-100959819D01*
X200915826Y-100959819D02*
X201044398Y-101007438D01*
X201044398Y-101007438D02*
X201087255Y-101055057D01*
X201472969Y-101959819D02*
X201472969Y-100959819D01*
X201987255Y-101959819D02*
X201601541Y-101388390D01*
X201987255Y-100959819D02*
X201472969Y-101531247D01*
X200144398Y-108627438D02*
X200058684Y-108579819D01*
X200058684Y-108579819D02*
X199930112Y-108579819D01*
X199930112Y-108579819D02*
X199801541Y-108627438D01*
X199801541Y-108627438D02*
X199715826Y-108722676D01*
X199715826Y-108722676D02*
X199672969Y-108817914D01*
X199672969Y-108817914D02*
X199630112Y-109008390D01*
X199630112Y-109008390D02*
X199630112Y-109151247D01*
X199630112Y-109151247D02*
X199672969Y-109341723D01*
X199672969Y-109341723D02*
X199715826Y-109436961D01*
X199715826Y-109436961D02*
X199801541Y-109532200D01*
X199801541Y-109532200D02*
X199930112Y-109579819D01*
X199930112Y-109579819D02*
X200015826Y-109579819D01*
X200015826Y-109579819D02*
X200144398Y-109532200D01*
X200144398Y-109532200D02*
X200187255Y-109484580D01*
X200187255Y-109484580D02*
X200187255Y-109151247D01*
X200187255Y-109151247D02*
X200015826Y-109151247D01*
X200572969Y-109579819D02*
X200572969Y-108579819D01*
X200572969Y-108579819D02*
X201087255Y-109579819D01*
X201087255Y-109579819D02*
X201087255Y-108579819D01*
X201515826Y-109579819D02*
X201515826Y-108579819D01*
X201515826Y-108579819D02*
X201730112Y-108579819D01*
X201730112Y-108579819D02*
X201858683Y-108627438D01*
X201858683Y-108627438D02*
X201944398Y-108722676D01*
X201944398Y-108722676D02*
X201987255Y-108817914D01*
X201987255Y-108817914D02*
X202030112Y-109008390D01*
X202030112Y-109008390D02*
X202030112Y-109151247D01*
X202030112Y-109151247D02*
X201987255Y-109341723D01*
X201987255Y-109341723D02*
X201944398Y-109436961D01*
X201944398Y-109436961D02*
X201858683Y-109532200D01*
X201858683Y-109532200D02*
X201730112Y-109579819D01*
X201730112Y-109579819D02*
X201515826Y-109579819D01*
D11*
X200114510Y-83904542D02*
X200114510Y-84618828D01*
X199681177Y-83118828D02*
X200114510Y-83904542D01*
X200114510Y-83904542D02*
X200547844Y-83118828D01*
X200981177Y-84047400D02*
X201971654Y-84047400D01*
X201476415Y-84618828D02*
X201476415Y-83475971D01*
D10*
X199601541Y-103499819D02*
X200220588Y-103499819D01*
X200220588Y-103499819D02*
X199887255Y-103880771D01*
X199887255Y-103880771D02*
X200030112Y-103880771D01*
X200030112Y-103880771D02*
X200125350Y-103928390D01*
X200125350Y-103928390D02*
X200172969Y-103976009D01*
X200172969Y-103976009D02*
X200220588Y-104071247D01*
X200220588Y-104071247D02*
X200220588Y-104309342D01*
X200220588Y-104309342D02*
X200172969Y-104404580D01*
X200172969Y-104404580D02*
X200125350Y-104452200D01*
X200125350Y-104452200D02*
X200030112Y-104499819D01*
X200030112Y-104499819D02*
X199744398Y-104499819D01*
X199744398Y-104499819D02*
X199649160Y-104452200D01*
X199649160Y-104452200D02*
X199601541Y-104404580D01*
X200506303Y-103499819D02*
X200839636Y-104499819D01*
X200839636Y-104499819D02*
X201172969Y-103499819D01*
D11*
X199743082Y-75498828D02*
X200609748Y-76998828D01*
X200609748Y-75498828D02*
X199743082Y-76998828D01*
X201104986Y-76427400D02*
X202095463Y-76427400D01*
D10*
X148854286Y-114994819D02*
X149425714Y-114994819D01*
X149140000Y-115994819D02*
X149140000Y-114994819D01*
X149759048Y-115994819D02*
X149759048Y-114994819D01*
X149759048Y-114994819D02*
X150330476Y-115994819D01*
X150330476Y-115994819D02*
X150330476Y-114994819D01*
X151330476Y-115994819D02*
X150759048Y-115994819D01*
X151044762Y-115994819D02*
X151044762Y-114994819D01*
X151044762Y-114994819D02*
X150949524Y-115137676D01*
X150949524Y-115137676D02*
X150854286Y-115232914D01*
X150854286Y-115232914D02*
X150759048Y-115280533D01*
X143796190Y-82912295D02*
X143796190Y-82112295D01*
X143796190Y-82112295D02*
X144062856Y-82683723D01*
X144062856Y-82683723D02*
X144329523Y-82112295D01*
X144329523Y-82112295D02*
X144329523Y-82912295D01*
X144710476Y-82912295D02*
X144710476Y-82112295D01*
X145091428Y-82912295D02*
X145091428Y-82112295D01*
X145091428Y-82112295D02*
X145358094Y-82683723D01*
X145358094Y-82683723D02*
X145624761Y-82112295D01*
X145624761Y-82112295D02*
X145624761Y-82912295D01*
X145929523Y-82112295D02*
X146462857Y-82912295D01*
X146462857Y-82112295D02*
X145929523Y-82912295D01*
X147224762Y-82912295D02*
X146958095Y-82531342D01*
X146767619Y-82912295D02*
X146767619Y-82112295D01*
X146767619Y-82112295D02*
X147072381Y-82112295D01*
X147072381Y-82112295D02*
X147148571Y-82150390D01*
X147148571Y-82150390D02*
X147186666Y-82188485D01*
X147186666Y-82188485D02*
X147224762Y-82264676D01*
X147224762Y-82264676D02*
X147224762Y-82378961D01*
X147224762Y-82378961D02*
X147186666Y-82455152D01*
X147186666Y-82455152D02*
X147148571Y-82493247D01*
X147148571Y-82493247D02*
X147072381Y-82531342D01*
X147072381Y-82531342D02*
X146767619Y-82531342D01*
X147453333Y-82112295D02*
X147910476Y-82112295D01*
X147681904Y-82912295D02*
X147681904Y-82112295D01*
X148596190Y-82912295D02*
X148139047Y-82912295D01*
X148367619Y-82912295D02*
X148367619Y-82112295D01*
X148367619Y-82112295D02*
X148291428Y-82226580D01*
X148291428Y-82226580D02*
X148215238Y-82302771D01*
X148215238Y-82302771D02*
X148139047Y-82340866D01*
X149091429Y-82112295D02*
X149167619Y-82112295D01*
X149167619Y-82112295D02*
X149243810Y-82150390D01*
X149243810Y-82150390D02*
X149281905Y-82188485D01*
X149281905Y-82188485D02*
X149320000Y-82264676D01*
X149320000Y-82264676D02*
X149358095Y-82417057D01*
X149358095Y-82417057D02*
X149358095Y-82607533D01*
X149358095Y-82607533D02*
X149320000Y-82759914D01*
X149320000Y-82759914D02*
X149281905Y-82836104D01*
X149281905Y-82836104D02*
X149243810Y-82874200D01*
X149243810Y-82874200D02*
X149167619Y-82912295D01*
X149167619Y-82912295D02*
X149091429Y-82912295D01*
X149091429Y-82912295D02*
X149015238Y-82874200D01*
X149015238Y-82874200D02*
X148977143Y-82836104D01*
X148977143Y-82836104D02*
X148939048Y-82759914D01*
X148939048Y-82759914D02*
X148900952Y-82607533D01*
X148900952Y-82607533D02*
X148900952Y-82417057D01*
X148900952Y-82417057D02*
X148939048Y-82264676D01*
X148939048Y-82264676D02*
X148977143Y-82188485D01*
X148977143Y-82188485D02*
X149015238Y-82150390D01*
X149015238Y-82150390D02*
X149091429Y-82112295D01*
X150043810Y-82112295D02*
X149891429Y-82112295D01*
X149891429Y-82112295D02*
X149815238Y-82150390D01*
X149815238Y-82150390D02*
X149777143Y-82188485D01*
X149777143Y-82188485D02*
X149700953Y-82302771D01*
X149700953Y-82302771D02*
X149662857Y-82455152D01*
X149662857Y-82455152D02*
X149662857Y-82759914D01*
X149662857Y-82759914D02*
X149700953Y-82836104D01*
X149700953Y-82836104D02*
X149739048Y-82874200D01*
X149739048Y-82874200D02*
X149815238Y-82912295D01*
X149815238Y-82912295D02*
X149967619Y-82912295D01*
X149967619Y-82912295D02*
X150043810Y-82874200D01*
X150043810Y-82874200D02*
X150081905Y-82836104D01*
X150081905Y-82836104D02*
X150120000Y-82759914D01*
X150120000Y-82759914D02*
X150120000Y-82569438D01*
X150120000Y-82569438D02*
X150081905Y-82493247D01*
X150081905Y-82493247D02*
X150043810Y-82455152D01*
X150043810Y-82455152D02*
X149967619Y-82417057D01*
X149967619Y-82417057D02*
X149815238Y-82417057D01*
X149815238Y-82417057D02*
X149739048Y-82455152D01*
X149739048Y-82455152D02*
X149700953Y-82493247D01*
X149700953Y-82493247D02*
X149662857Y-82569438D01*
X150424762Y-82188485D02*
X150462858Y-82150390D01*
X150462858Y-82150390D02*
X150539048Y-82112295D01*
X150539048Y-82112295D02*
X150729524Y-82112295D01*
X150729524Y-82112295D02*
X150805715Y-82150390D01*
X150805715Y-82150390D02*
X150843810Y-82188485D01*
X150843810Y-82188485D02*
X150881905Y-82264676D01*
X150881905Y-82264676D02*
X150881905Y-82340866D01*
X150881905Y-82340866D02*
X150843810Y-82455152D01*
X150843810Y-82455152D02*
X150386667Y-82912295D01*
X150386667Y-82912295D02*
X150881905Y-82912295D01*
X146058095Y-56604819D02*
X146058095Y-57414342D01*
X146058095Y-57414342D02*
X146105714Y-57509580D01*
X146105714Y-57509580D02*
X146153333Y-57557200D01*
X146153333Y-57557200D02*
X146248571Y-57604819D01*
X146248571Y-57604819D02*
X146439047Y-57604819D01*
X146439047Y-57604819D02*
X146534285Y-57557200D01*
X146534285Y-57557200D02*
X146581904Y-57509580D01*
X146581904Y-57509580D02*
X146629523Y-57414342D01*
X146629523Y-57414342D02*
X146629523Y-56604819D01*
X147058095Y-57557200D02*
X147200952Y-57604819D01*
X147200952Y-57604819D02*
X147439047Y-57604819D01*
X147439047Y-57604819D02*
X147534285Y-57557200D01*
X147534285Y-57557200D02*
X147581904Y-57509580D01*
X147581904Y-57509580D02*
X147629523Y-57414342D01*
X147629523Y-57414342D02*
X147629523Y-57319104D01*
X147629523Y-57319104D02*
X147581904Y-57223866D01*
X147581904Y-57223866D02*
X147534285Y-57176247D01*
X147534285Y-57176247D02*
X147439047Y-57128628D01*
X147439047Y-57128628D02*
X147248571Y-57081009D01*
X147248571Y-57081009D02*
X147153333Y-57033390D01*
X147153333Y-57033390D02*
X147105714Y-56985771D01*
X147105714Y-56985771D02*
X147058095Y-56890533D01*
X147058095Y-56890533D02*
X147058095Y-56795295D01*
X147058095Y-56795295D02*
X147105714Y-56700057D01*
X147105714Y-56700057D02*
X147153333Y-56652438D01*
X147153333Y-56652438D02*
X147248571Y-56604819D01*
X147248571Y-56604819D02*
X147486666Y-56604819D01*
X147486666Y-56604819D02*
X147629523Y-56652438D01*
X148391428Y-57081009D02*
X148534285Y-57128628D01*
X148534285Y-57128628D02*
X148581904Y-57176247D01*
X148581904Y-57176247D02*
X148629523Y-57271485D01*
X148629523Y-57271485D02*
X148629523Y-57414342D01*
X148629523Y-57414342D02*
X148581904Y-57509580D01*
X148581904Y-57509580D02*
X148534285Y-57557200D01*
X148534285Y-57557200D02*
X148439047Y-57604819D01*
X148439047Y-57604819D02*
X148058095Y-57604819D01*
X148058095Y-57604819D02*
X148058095Y-56604819D01*
X148058095Y-56604819D02*
X148391428Y-56604819D01*
X148391428Y-56604819D02*
X148486666Y-56652438D01*
X148486666Y-56652438D02*
X148534285Y-56700057D01*
X148534285Y-56700057D02*
X148581904Y-56795295D01*
X148581904Y-56795295D02*
X148581904Y-56890533D01*
X148581904Y-56890533D02*
X148534285Y-56985771D01*
X148534285Y-56985771D02*
X148486666Y-57033390D01*
X148486666Y-57033390D02*
X148391428Y-57081009D01*
X148391428Y-57081009D02*
X148058095Y-57081009D01*
X147774819Y-111069047D02*
X146774819Y-111069047D01*
X146774819Y-111069047D02*
X147489104Y-110735714D01*
X147489104Y-110735714D02*
X146774819Y-110402381D01*
X146774819Y-110402381D02*
X147774819Y-110402381D01*
X147774819Y-109926190D02*
X147108152Y-109926190D01*
X146774819Y-109926190D02*
X146822438Y-109973809D01*
X146822438Y-109973809D02*
X146870057Y-109926190D01*
X146870057Y-109926190D02*
X146822438Y-109878571D01*
X146822438Y-109878571D02*
X146774819Y-109926190D01*
X146774819Y-109926190D02*
X146870057Y-109926190D01*
X147727200Y-109021429D02*
X147774819Y-109116667D01*
X147774819Y-109116667D02*
X147774819Y-109307143D01*
X147774819Y-109307143D02*
X147727200Y-109402381D01*
X147727200Y-109402381D02*
X147679580Y-109450000D01*
X147679580Y-109450000D02*
X147584342Y-109497619D01*
X147584342Y-109497619D02*
X147298628Y-109497619D01*
X147298628Y-109497619D02*
X147203390Y-109450000D01*
X147203390Y-109450000D02*
X147155771Y-109402381D01*
X147155771Y-109402381D02*
X147108152Y-109307143D01*
X147108152Y-109307143D02*
X147108152Y-109116667D01*
X147108152Y-109116667D02*
X147155771Y-109021429D01*
X147774819Y-108592857D02*
X147108152Y-108592857D01*
X147298628Y-108592857D02*
X147203390Y-108545238D01*
X147203390Y-108545238D02*
X147155771Y-108497619D01*
X147155771Y-108497619D02*
X147108152Y-108402381D01*
X147108152Y-108402381D02*
X147108152Y-108307143D01*
X147774819Y-107830952D02*
X147727200Y-107926190D01*
X147727200Y-107926190D02*
X147679580Y-107973809D01*
X147679580Y-107973809D02*
X147584342Y-108021428D01*
X147584342Y-108021428D02*
X147298628Y-108021428D01*
X147298628Y-108021428D02*
X147203390Y-107973809D01*
X147203390Y-107973809D02*
X147155771Y-107926190D01*
X147155771Y-107926190D02*
X147108152Y-107830952D01*
X147108152Y-107830952D02*
X147108152Y-107688095D01*
X147108152Y-107688095D02*
X147155771Y-107592857D01*
X147155771Y-107592857D02*
X147203390Y-107545238D01*
X147203390Y-107545238D02*
X147298628Y-107497619D01*
X147298628Y-107497619D02*
X147584342Y-107497619D01*
X147584342Y-107497619D02*
X147679580Y-107545238D01*
X147679580Y-107545238D02*
X147727200Y-107592857D01*
X147727200Y-107592857D02*
X147774819Y-107688095D01*
X147774819Y-107688095D02*
X147774819Y-107830952D01*
X147727200Y-106354761D02*
X147774819Y-106211904D01*
X147774819Y-106211904D02*
X147774819Y-105973809D01*
X147774819Y-105973809D02*
X147727200Y-105878571D01*
X147727200Y-105878571D02*
X147679580Y-105830952D01*
X147679580Y-105830952D02*
X147584342Y-105783333D01*
X147584342Y-105783333D02*
X147489104Y-105783333D01*
X147489104Y-105783333D02*
X147393866Y-105830952D01*
X147393866Y-105830952D02*
X147346247Y-105878571D01*
X147346247Y-105878571D02*
X147298628Y-105973809D01*
X147298628Y-105973809D02*
X147251009Y-106164285D01*
X147251009Y-106164285D02*
X147203390Y-106259523D01*
X147203390Y-106259523D02*
X147155771Y-106307142D01*
X147155771Y-106307142D02*
X147060533Y-106354761D01*
X147060533Y-106354761D02*
X146965295Y-106354761D01*
X146965295Y-106354761D02*
X146870057Y-106307142D01*
X146870057Y-106307142D02*
X146822438Y-106259523D01*
X146822438Y-106259523D02*
X146774819Y-106164285D01*
X146774819Y-106164285D02*
X146774819Y-105926190D01*
X146774819Y-105926190D02*
X146822438Y-105783333D01*
X147774819Y-105354761D02*
X146774819Y-105354761D01*
X146774819Y-105354761D02*
X146774819Y-105116666D01*
X146774819Y-105116666D02*
X146822438Y-104973809D01*
X146822438Y-104973809D02*
X146917676Y-104878571D01*
X146917676Y-104878571D02*
X147012914Y-104830952D01*
X147012914Y-104830952D02*
X147203390Y-104783333D01*
X147203390Y-104783333D02*
X147346247Y-104783333D01*
X147346247Y-104783333D02*
X147536723Y-104830952D01*
X147536723Y-104830952D02*
X147631961Y-104878571D01*
X147631961Y-104878571D02*
X147727200Y-104973809D01*
X147727200Y-104973809D02*
X147774819Y-105116666D01*
X147774819Y-105116666D02*
X147774819Y-105354761D01*
X145919048Y-81642295D02*
X145919048Y-80842295D01*
X145919048Y-80842295D02*
X146109524Y-80842295D01*
X146109524Y-80842295D02*
X146223810Y-80880390D01*
X146223810Y-80880390D02*
X146300000Y-80956580D01*
X146300000Y-80956580D02*
X146338095Y-81032771D01*
X146338095Y-81032771D02*
X146376191Y-81185152D01*
X146376191Y-81185152D02*
X146376191Y-81299438D01*
X146376191Y-81299438D02*
X146338095Y-81451819D01*
X146338095Y-81451819D02*
X146300000Y-81528009D01*
X146300000Y-81528009D02*
X146223810Y-81604200D01*
X146223810Y-81604200D02*
X146109524Y-81642295D01*
X146109524Y-81642295D02*
X145919048Y-81642295D01*
X146604762Y-80842295D02*
X146871429Y-81642295D01*
X146871429Y-81642295D02*
X147138095Y-80842295D01*
X147633333Y-80842295D02*
X147633333Y-81413723D01*
X147633333Y-81413723D02*
X147595238Y-81528009D01*
X147595238Y-81528009D02*
X147519047Y-81604200D01*
X147519047Y-81604200D02*
X147404762Y-81642295D01*
X147404762Y-81642295D02*
X147328571Y-81642295D01*
X148357143Y-80842295D02*
X148204762Y-80842295D01*
X148204762Y-80842295D02*
X148128571Y-80880390D01*
X148128571Y-80880390D02*
X148090476Y-80918485D01*
X148090476Y-80918485D02*
X148014286Y-81032771D01*
X148014286Y-81032771D02*
X147976190Y-81185152D01*
X147976190Y-81185152D02*
X147976190Y-81489914D01*
X147976190Y-81489914D02*
X148014286Y-81566104D01*
X148014286Y-81566104D02*
X148052381Y-81604200D01*
X148052381Y-81604200D02*
X148128571Y-81642295D01*
X148128571Y-81642295D02*
X148280952Y-81642295D01*
X148280952Y-81642295D02*
X148357143Y-81604200D01*
X148357143Y-81604200D02*
X148395238Y-81566104D01*
X148395238Y-81566104D02*
X148433333Y-81489914D01*
X148433333Y-81489914D02*
X148433333Y-81299438D01*
X148433333Y-81299438D02*
X148395238Y-81223247D01*
X148395238Y-81223247D02*
X148357143Y-81185152D01*
X148357143Y-81185152D02*
X148280952Y-81147057D01*
X148280952Y-81147057D02*
X148128571Y-81147057D01*
X148128571Y-81147057D02*
X148052381Y-81185152D01*
X148052381Y-81185152D02*
X148014286Y-81223247D01*
X148014286Y-81223247D02*
X147976190Y-81299438D01*
X148738095Y-81413723D02*
X149119048Y-81413723D01*
X148661905Y-81642295D02*
X148928572Y-80842295D01*
X148928572Y-80842295D02*
X149195238Y-81642295D01*
X147739456Y-71686009D02*
X148072789Y-71686009D01*
X148215646Y-72209819D02*
X147739456Y-72209819D01*
X147739456Y-72209819D02*
X147739456Y-71209819D01*
X147739456Y-71209819D02*
X148215646Y-71209819D01*
X148501361Y-71543152D02*
X148882313Y-71543152D01*
X148644218Y-71209819D02*
X148644218Y-72066961D01*
X148644218Y-72066961D02*
X148691837Y-72162200D01*
X148691837Y-72162200D02*
X148787075Y-72209819D01*
X148787075Y-72209819D02*
X148882313Y-72209819D01*
X149215647Y-72209819D02*
X149215647Y-71209819D01*
X149644218Y-72209819D02*
X149644218Y-71686009D01*
X149644218Y-71686009D02*
X149596599Y-71590771D01*
X149596599Y-71590771D02*
X149501361Y-71543152D01*
X149501361Y-71543152D02*
X149358504Y-71543152D01*
X149358504Y-71543152D02*
X149263266Y-71590771D01*
X149263266Y-71590771D02*
X149215647Y-71638390D01*
X150501361Y-72162200D02*
X150406123Y-72209819D01*
X150406123Y-72209819D02*
X150215647Y-72209819D01*
X150215647Y-72209819D02*
X150120409Y-72162200D01*
X150120409Y-72162200D02*
X150072790Y-72066961D01*
X150072790Y-72066961D02*
X150072790Y-71686009D01*
X150072790Y-71686009D02*
X150120409Y-71590771D01*
X150120409Y-71590771D02*
X150215647Y-71543152D01*
X150215647Y-71543152D02*
X150406123Y-71543152D01*
X150406123Y-71543152D02*
X150501361Y-71590771D01*
X150501361Y-71590771D02*
X150548980Y-71686009D01*
X150548980Y-71686009D02*
X150548980Y-71781247D01*
X150548980Y-71781247D02*
X150072790Y-71876485D01*
X150977552Y-72209819D02*
X150977552Y-71543152D01*
X150977552Y-71733628D02*
X151025171Y-71638390D01*
X151025171Y-71638390D02*
X151072790Y-71590771D01*
X151072790Y-71590771D02*
X151168028Y-71543152D01*
X151168028Y-71543152D02*
X151263266Y-71543152D01*
X151596600Y-71543152D02*
X151596600Y-72209819D01*
X151596600Y-71638390D02*
X151644219Y-71590771D01*
X151644219Y-71590771D02*
X151739457Y-71543152D01*
X151739457Y-71543152D02*
X151882314Y-71543152D01*
X151882314Y-71543152D02*
X151977552Y-71590771D01*
X151977552Y-71590771D02*
X152025171Y-71686009D01*
X152025171Y-71686009D02*
X152025171Y-72209819D01*
X152882314Y-72162200D02*
X152787076Y-72209819D01*
X152787076Y-72209819D02*
X152596600Y-72209819D01*
X152596600Y-72209819D02*
X152501362Y-72162200D01*
X152501362Y-72162200D02*
X152453743Y-72066961D01*
X152453743Y-72066961D02*
X152453743Y-71686009D01*
X152453743Y-71686009D02*
X152501362Y-71590771D01*
X152501362Y-71590771D02*
X152596600Y-71543152D01*
X152596600Y-71543152D02*
X152787076Y-71543152D01*
X152787076Y-71543152D02*
X152882314Y-71590771D01*
X152882314Y-71590771D02*
X152929933Y-71686009D01*
X152929933Y-71686009D02*
X152929933Y-71781247D01*
X152929933Y-71781247D02*
X152453743Y-71876485D01*
X153215648Y-71543152D02*
X153596600Y-71543152D01*
X153358505Y-71209819D02*
X153358505Y-72066961D01*
X153358505Y-72066961D02*
X153406124Y-72162200D01*
X153406124Y-72162200D02*
X153501362Y-72209819D01*
X153501362Y-72209819D02*
X153596600Y-72209819D01*
X144285619Y-68663723D02*
X145095142Y-68663723D01*
X145095142Y-68663723D02*
X145190380Y-68616104D01*
X145190380Y-68616104D02*
X145238000Y-68568485D01*
X145238000Y-68568485D02*
X145285619Y-68473247D01*
X145285619Y-68473247D02*
X145285619Y-68282771D01*
X145285619Y-68282771D02*
X145238000Y-68187533D01*
X145238000Y-68187533D02*
X145190380Y-68139914D01*
X145190380Y-68139914D02*
X145095142Y-68092295D01*
X145095142Y-68092295D02*
X144285619Y-68092295D01*
X145238000Y-67663723D02*
X145285619Y-67520866D01*
X145285619Y-67520866D02*
X145285619Y-67282771D01*
X145285619Y-67282771D02*
X145238000Y-67187533D01*
X145238000Y-67187533D02*
X145190380Y-67139914D01*
X145190380Y-67139914D02*
X145095142Y-67092295D01*
X145095142Y-67092295D02*
X144999904Y-67092295D01*
X144999904Y-67092295D02*
X144904666Y-67139914D01*
X144904666Y-67139914D02*
X144857047Y-67187533D01*
X144857047Y-67187533D02*
X144809428Y-67282771D01*
X144809428Y-67282771D02*
X144761809Y-67473247D01*
X144761809Y-67473247D02*
X144714190Y-67568485D01*
X144714190Y-67568485D02*
X144666571Y-67616104D01*
X144666571Y-67616104D02*
X144571333Y-67663723D01*
X144571333Y-67663723D02*
X144476095Y-67663723D01*
X144476095Y-67663723D02*
X144380857Y-67616104D01*
X144380857Y-67616104D02*
X144333238Y-67568485D01*
X144333238Y-67568485D02*
X144285619Y-67473247D01*
X144285619Y-67473247D02*
X144285619Y-67235152D01*
X144285619Y-67235152D02*
X144333238Y-67092295D01*
X144761809Y-66330390D02*
X144809428Y-66187533D01*
X144809428Y-66187533D02*
X144857047Y-66139914D01*
X144857047Y-66139914D02*
X144952285Y-66092295D01*
X144952285Y-66092295D02*
X145095142Y-66092295D01*
X145095142Y-66092295D02*
X145190380Y-66139914D01*
X145190380Y-66139914D02*
X145238000Y-66187533D01*
X145238000Y-66187533D02*
X145285619Y-66282771D01*
X145285619Y-66282771D02*
X145285619Y-66663723D01*
X145285619Y-66663723D02*
X144285619Y-66663723D01*
X144285619Y-66663723D02*
X144285619Y-66330390D01*
X144285619Y-66330390D02*
X144333238Y-66235152D01*
X144333238Y-66235152D02*
X144380857Y-66187533D01*
X144380857Y-66187533D02*
X144476095Y-66139914D01*
X144476095Y-66139914D02*
X144571333Y-66139914D01*
X144571333Y-66139914D02*
X144666571Y-66187533D01*
X144666571Y-66187533D02*
X144714190Y-66235152D01*
X144714190Y-66235152D02*
X144761809Y-66330390D01*
X144761809Y-66330390D02*
X144761809Y-66663723D01*
X145285619Y-64901818D02*
X144285619Y-64901818D01*
X144761809Y-64901818D02*
X144761809Y-64330390D01*
X145285619Y-64330390D02*
X144285619Y-64330390D01*
X145285619Y-63711342D02*
X145238000Y-63806580D01*
X145238000Y-63806580D02*
X145190380Y-63854199D01*
X145190380Y-63854199D02*
X145095142Y-63901818D01*
X145095142Y-63901818D02*
X144809428Y-63901818D01*
X144809428Y-63901818D02*
X144714190Y-63854199D01*
X144714190Y-63854199D02*
X144666571Y-63806580D01*
X144666571Y-63806580D02*
X144618952Y-63711342D01*
X144618952Y-63711342D02*
X144618952Y-63568485D01*
X144618952Y-63568485D02*
X144666571Y-63473247D01*
X144666571Y-63473247D02*
X144714190Y-63425628D01*
X144714190Y-63425628D02*
X144809428Y-63378009D01*
X144809428Y-63378009D02*
X145095142Y-63378009D01*
X145095142Y-63378009D02*
X145190380Y-63425628D01*
X145190380Y-63425628D02*
X145238000Y-63473247D01*
X145238000Y-63473247D02*
X145285619Y-63568485D01*
X145285619Y-63568485D02*
X145285619Y-63711342D01*
X145238000Y-62997056D02*
X145285619Y-62901818D01*
X145285619Y-62901818D02*
X145285619Y-62711342D01*
X145285619Y-62711342D02*
X145238000Y-62616104D01*
X145238000Y-62616104D02*
X145142761Y-62568485D01*
X145142761Y-62568485D02*
X145095142Y-62568485D01*
X145095142Y-62568485D02*
X144999904Y-62616104D01*
X144999904Y-62616104D02*
X144952285Y-62711342D01*
X144952285Y-62711342D02*
X144952285Y-62854199D01*
X144952285Y-62854199D02*
X144904666Y-62949437D01*
X144904666Y-62949437D02*
X144809428Y-62997056D01*
X144809428Y-62997056D02*
X144761809Y-62997056D01*
X144761809Y-62997056D02*
X144666571Y-62949437D01*
X144666571Y-62949437D02*
X144618952Y-62854199D01*
X144618952Y-62854199D02*
X144618952Y-62711342D01*
X144618952Y-62711342D02*
X144666571Y-62616104D01*
X144618952Y-62282770D02*
X144618952Y-61901818D01*
X144285619Y-62139913D02*
X145142761Y-62139913D01*
X145142761Y-62139913D02*
X145238000Y-62092294D01*
X145238000Y-62092294D02*
X145285619Y-61997056D01*
X145285619Y-61997056D02*
X145285619Y-61901818D01*
X115118095Y-66374819D02*
X115689523Y-66374819D01*
X115403809Y-67374819D02*
X115403809Y-66374819D01*
X116022857Y-67374819D02*
X116022857Y-66374819D01*
X116022857Y-66374819D02*
X116403809Y-66374819D01*
X116403809Y-66374819D02*
X116499047Y-66422438D01*
X116499047Y-66422438D02*
X116546666Y-66470057D01*
X116546666Y-66470057D02*
X116594285Y-66565295D01*
X116594285Y-66565295D02*
X116594285Y-66708152D01*
X116594285Y-66708152D02*
X116546666Y-66803390D01*
X116546666Y-66803390D02*
X116499047Y-66851009D01*
X116499047Y-66851009D02*
X116403809Y-66898628D01*
X116403809Y-66898628D02*
X116022857Y-66898628D01*
X117546666Y-67374819D02*
X116975238Y-67374819D01*
X117260952Y-67374819D02*
X117260952Y-66374819D01*
X117260952Y-66374819D02*
X117165714Y-66517676D01*
X117165714Y-66517676D02*
X117070476Y-66612914D01*
X117070476Y-66612914D02*
X116975238Y-66660533D01*
X173474819Y-67546666D02*
X172998628Y-67879999D01*
X173474819Y-68118094D02*
X172474819Y-68118094D01*
X172474819Y-68118094D02*
X172474819Y-67737142D01*
X172474819Y-67737142D02*
X172522438Y-67641904D01*
X172522438Y-67641904D02*
X172570057Y-67594285D01*
X172570057Y-67594285D02*
X172665295Y-67546666D01*
X172665295Y-67546666D02*
X172808152Y-67546666D01*
X172808152Y-67546666D02*
X172903390Y-67594285D01*
X172903390Y-67594285D02*
X172951009Y-67641904D01*
X172951009Y-67641904D02*
X172998628Y-67737142D01*
X172998628Y-67737142D02*
X172998628Y-68118094D01*
X173474819Y-66594285D02*
X173474819Y-67165713D01*
X173474819Y-66879999D02*
X172474819Y-66879999D01*
X172474819Y-66879999D02*
X172617676Y-66975237D01*
X172617676Y-66975237D02*
X172712914Y-67070475D01*
X172712914Y-67070475D02*
X172760533Y-67165713D01*
X110078628Y-75506190D02*
X110554819Y-75506190D01*
X109554819Y-75839523D02*
X110078628Y-75506190D01*
X110078628Y-75506190D02*
X109554819Y-75172857D01*
X110554819Y-74315714D02*
X110554819Y-74887142D01*
X110554819Y-74601428D02*
X109554819Y-74601428D01*
X109554819Y-74601428D02*
X109697676Y-74696666D01*
X109697676Y-74696666D02*
X109792914Y-74791904D01*
X109792914Y-74791904D02*
X109840533Y-74887142D01*
X167419580Y-75536666D02*
X167467200Y-75584285D01*
X167467200Y-75584285D02*
X167514819Y-75727142D01*
X167514819Y-75727142D02*
X167514819Y-75822380D01*
X167514819Y-75822380D02*
X167467200Y-75965237D01*
X167467200Y-75965237D02*
X167371961Y-76060475D01*
X167371961Y-76060475D02*
X167276723Y-76108094D01*
X167276723Y-76108094D02*
X167086247Y-76155713D01*
X167086247Y-76155713D02*
X166943390Y-76155713D01*
X166943390Y-76155713D02*
X166752914Y-76108094D01*
X166752914Y-76108094D02*
X166657676Y-76060475D01*
X166657676Y-76060475D02*
X166562438Y-75965237D01*
X166562438Y-75965237D02*
X166514819Y-75822380D01*
X166514819Y-75822380D02*
X166514819Y-75727142D01*
X166514819Y-75727142D02*
X166562438Y-75584285D01*
X166562438Y-75584285D02*
X166610057Y-75536666D01*
X166514819Y-75203332D02*
X166514819Y-74536666D01*
X166514819Y-74536666D02*
X167514819Y-74965237D01*
X180783319Y-53903333D02*
X181497604Y-53903333D01*
X181497604Y-53903333D02*
X181640461Y-53950952D01*
X181640461Y-53950952D02*
X181735700Y-54046190D01*
X181735700Y-54046190D02*
X181783319Y-54189047D01*
X181783319Y-54189047D02*
X181783319Y-54284285D01*
X180878557Y-53474761D02*
X180830938Y-53427142D01*
X180830938Y-53427142D02*
X180783319Y-53331904D01*
X180783319Y-53331904D02*
X180783319Y-53093809D01*
X180783319Y-53093809D02*
X180830938Y-52998571D01*
X180830938Y-52998571D02*
X180878557Y-52950952D01*
X180878557Y-52950952D02*
X180973795Y-52903333D01*
X180973795Y-52903333D02*
X181069033Y-52903333D01*
X181069033Y-52903333D02*
X181211890Y-52950952D01*
X181211890Y-52950952D02*
X181783319Y-53522380D01*
X181783319Y-53522380D02*
X181783319Y-52903333D01*
X168762819Y-99003857D02*
X168286628Y-99337190D01*
X168762819Y-99575285D02*
X167762819Y-99575285D01*
X167762819Y-99575285D02*
X167762819Y-99194333D01*
X167762819Y-99194333D02*
X167810438Y-99099095D01*
X167810438Y-99099095D02*
X167858057Y-99051476D01*
X167858057Y-99051476D02*
X167953295Y-99003857D01*
X167953295Y-99003857D02*
X168096152Y-99003857D01*
X168096152Y-99003857D02*
X168191390Y-99051476D01*
X168191390Y-99051476D02*
X168239009Y-99099095D01*
X168239009Y-99099095D02*
X168286628Y-99194333D01*
X168286628Y-99194333D02*
X168286628Y-99575285D01*
X168762819Y-98051476D02*
X168762819Y-98622904D01*
X168762819Y-98337190D02*
X167762819Y-98337190D01*
X167762819Y-98337190D02*
X167905676Y-98432428D01*
X167905676Y-98432428D02*
X168000914Y-98527666D01*
X168000914Y-98527666D02*
X168048533Y-98622904D01*
X167858057Y-97670523D02*
X167810438Y-97622904D01*
X167810438Y-97622904D02*
X167762819Y-97527666D01*
X167762819Y-97527666D02*
X167762819Y-97289571D01*
X167762819Y-97289571D02*
X167810438Y-97194333D01*
X167810438Y-97194333D02*
X167858057Y-97146714D01*
X167858057Y-97146714D02*
X167953295Y-97099095D01*
X167953295Y-97099095D02*
X168048533Y-97099095D01*
X168048533Y-97099095D02*
X168191390Y-97146714D01*
X168191390Y-97146714D02*
X168762819Y-97718142D01*
X168762819Y-97718142D02*
X168762819Y-97099095D01*
X168253580Y-84240666D02*
X168301200Y-84288285D01*
X168301200Y-84288285D02*
X168348819Y-84431142D01*
X168348819Y-84431142D02*
X168348819Y-84526380D01*
X168348819Y-84526380D02*
X168301200Y-84669237D01*
X168301200Y-84669237D02*
X168205961Y-84764475D01*
X168205961Y-84764475D02*
X168110723Y-84812094D01*
X168110723Y-84812094D02*
X167920247Y-84859713D01*
X167920247Y-84859713D02*
X167777390Y-84859713D01*
X167777390Y-84859713D02*
X167586914Y-84812094D01*
X167586914Y-84812094D02*
X167491676Y-84764475D01*
X167491676Y-84764475D02*
X167396438Y-84669237D01*
X167396438Y-84669237D02*
X167348819Y-84526380D01*
X167348819Y-84526380D02*
X167348819Y-84431142D01*
X167348819Y-84431142D02*
X167396438Y-84288285D01*
X167396438Y-84288285D02*
X167444057Y-84240666D01*
X167348819Y-83335904D02*
X167348819Y-83812094D01*
X167348819Y-83812094D02*
X167825009Y-83859713D01*
X167825009Y-83859713D02*
X167777390Y-83812094D01*
X167777390Y-83812094D02*
X167729771Y-83716856D01*
X167729771Y-83716856D02*
X167729771Y-83478761D01*
X167729771Y-83478761D02*
X167777390Y-83383523D01*
X167777390Y-83383523D02*
X167825009Y-83335904D01*
X167825009Y-83335904D02*
X167920247Y-83288285D01*
X167920247Y-83288285D02*
X168158342Y-83288285D01*
X168158342Y-83288285D02*
X168253580Y-83335904D01*
X168253580Y-83335904D02*
X168301200Y-83383523D01*
X168301200Y-83383523D02*
X168348819Y-83478761D01*
X168348819Y-83478761D02*
X168348819Y-83716856D01*
X168348819Y-83716856D02*
X168301200Y-83812094D01*
X168301200Y-83812094D02*
X168253580Y-83859713D01*
X174469580Y-65436666D02*
X174517200Y-65484285D01*
X174517200Y-65484285D02*
X174564819Y-65627142D01*
X174564819Y-65627142D02*
X174564819Y-65722380D01*
X174564819Y-65722380D02*
X174517200Y-65865237D01*
X174517200Y-65865237D02*
X174421961Y-65960475D01*
X174421961Y-65960475D02*
X174326723Y-66008094D01*
X174326723Y-66008094D02*
X174136247Y-66055713D01*
X174136247Y-66055713D02*
X173993390Y-66055713D01*
X173993390Y-66055713D02*
X173802914Y-66008094D01*
X173802914Y-66008094D02*
X173707676Y-65960475D01*
X173707676Y-65960475D02*
X173612438Y-65865237D01*
X173612438Y-65865237D02*
X173564819Y-65722380D01*
X173564819Y-65722380D02*
X173564819Y-65627142D01*
X173564819Y-65627142D02*
X173612438Y-65484285D01*
X173612438Y-65484285D02*
X173660057Y-65436666D01*
X173993390Y-64865237D02*
X173945771Y-64960475D01*
X173945771Y-64960475D02*
X173898152Y-65008094D01*
X173898152Y-65008094D02*
X173802914Y-65055713D01*
X173802914Y-65055713D02*
X173755295Y-65055713D01*
X173755295Y-65055713D02*
X173660057Y-65008094D01*
X173660057Y-65008094D02*
X173612438Y-64960475D01*
X173612438Y-64960475D02*
X173564819Y-64865237D01*
X173564819Y-64865237D02*
X173564819Y-64674761D01*
X173564819Y-64674761D02*
X173612438Y-64579523D01*
X173612438Y-64579523D02*
X173660057Y-64531904D01*
X173660057Y-64531904D02*
X173755295Y-64484285D01*
X173755295Y-64484285D02*
X173802914Y-64484285D01*
X173802914Y-64484285D02*
X173898152Y-64531904D01*
X173898152Y-64531904D02*
X173945771Y-64579523D01*
X173945771Y-64579523D02*
X173993390Y-64674761D01*
X173993390Y-64674761D02*
X173993390Y-64865237D01*
X173993390Y-64865237D02*
X174041009Y-64960475D01*
X174041009Y-64960475D02*
X174088628Y-65008094D01*
X174088628Y-65008094D02*
X174183866Y-65055713D01*
X174183866Y-65055713D02*
X174374342Y-65055713D01*
X174374342Y-65055713D02*
X174469580Y-65008094D01*
X174469580Y-65008094D02*
X174517200Y-64960475D01*
X174517200Y-64960475D02*
X174564819Y-64865237D01*
X174564819Y-64865237D02*
X174564819Y-64674761D01*
X174564819Y-64674761D02*
X174517200Y-64579523D01*
X174517200Y-64579523D02*
X174469580Y-64531904D01*
X174469580Y-64531904D02*
X174374342Y-64484285D01*
X174374342Y-64484285D02*
X174183866Y-64484285D01*
X174183866Y-64484285D02*
X174088628Y-64531904D01*
X174088628Y-64531904D02*
X174041009Y-64579523D01*
X174041009Y-64579523D02*
X173993390Y-64674761D01*
X137934819Y-96536666D02*
X137458628Y-96869999D01*
X137934819Y-97108094D02*
X136934819Y-97108094D01*
X136934819Y-97108094D02*
X136934819Y-96727142D01*
X136934819Y-96727142D02*
X136982438Y-96631904D01*
X136982438Y-96631904D02*
X137030057Y-96584285D01*
X137030057Y-96584285D02*
X137125295Y-96536666D01*
X137125295Y-96536666D02*
X137268152Y-96536666D01*
X137268152Y-96536666D02*
X137363390Y-96584285D01*
X137363390Y-96584285D02*
X137411009Y-96631904D01*
X137411009Y-96631904D02*
X137458628Y-96727142D01*
X137458628Y-96727142D02*
X137458628Y-97108094D01*
X137934819Y-96060475D02*
X137934819Y-95869999D01*
X137934819Y-95869999D02*
X137887200Y-95774761D01*
X137887200Y-95774761D02*
X137839580Y-95727142D01*
X137839580Y-95727142D02*
X137696723Y-95631904D01*
X137696723Y-95631904D02*
X137506247Y-95584285D01*
X137506247Y-95584285D02*
X137125295Y-95584285D01*
X137125295Y-95584285D02*
X137030057Y-95631904D01*
X137030057Y-95631904D02*
X136982438Y-95679523D01*
X136982438Y-95679523D02*
X136934819Y-95774761D01*
X136934819Y-95774761D02*
X136934819Y-95965237D01*
X136934819Y-95965237D02*
X136982438Y-96060475D01*
X136982438Y-96060475D02*
X137030057Y-96108094D01*
X137030057Y-96108094D02*
X137125295Y-96155713D01*
X137125295Y-96155713D02*
X137363390Y-96155713D01*
X137363390Y-96155713D02*
X137458628Y-96108094D01*
X137458628Y-96108094D02*
X137506247Y-96060475D01*
X137506247Y-96060475D02*
X137553866Y-95965237D01*
X137553866Y-95965237D02*
X137553866Y-95774761D01*
X137553866Y-95774761D02*
X137506247Y-95679523D01*
X137506247Y-95679523D02*
X137458628Y-95631904D01*
X137458628Y-95631904D02*
X137363390Y-95584285D01*
X162599580Y-75604666D02*
X162647200Y-75652285D01*
X162647200Y-75652285D02*
X162694819Y-75795142D01*
X162694819Y-75795142D02*
X162694819Y-75890380D01*
X162694819Y-75890380D02*
X162647200Y-76033237D01*
X162647200Y-76033237D02*
X162551961Y-76128475D01*
X162551961Y-76128475D02*
X162456723Y-76176094D01*
X162456723Y-76176094D02*
X162266247Y-76223713D01*
X162266247Y-76223713D02*
X162123390Y-76223713D01*
X162123390Y-76223713D02*
X161932914Y-76176094D01*
X161932914Y-76176094D02*
X161837676Y-76128475D01*
X161837676Y-76128475D02*
X161742438Y-76033237D01*
X161742438Y-76033237D02*
X161694819Y-75890380D01*
X161694819Y-75890380D02*
X161694819Y-75795142D01*
X161694819Y-75795142D02*
X161742438Y-75652285D01*
X161742438Y-75652285D02*
X161790057Y-75604666D01*
X161694819Y-74747523D02*
X161694819Y-74937999D01*
X161694819Y-74937999D02*
X161742438Y-75033237D01*
X161742438Y-75033237D02*
X161790057Y-75080856D01*
X161790057Y-75080856D02*
X161932914Y-75176094D01*
X161932914Y-75176094D02*
X162123390Y-75223713D01*
X162123390Y-75223713D02*
X162504342Y-75223713D01*
X162504342Y-75223713D02*
X162599580Y-75176094D01*
X162599580Y-75176094D02*
X162647200Y-75128475D01*
X162647200Y-75128475D02*
X162694819Y-75033237D01*
X162694819Y-75033237D02*
X162694819Y-74842761D01*
X162694819Y-74842761D02*
X162647200Y-74747523D01*
X162647200Y-74747523D02*
X162599580Y-74699904D01*
X162599580Y-74699904D02*
X162504342Y-74652285D01*
X162504342Y-74652285D02*
X162266247Y-74652285D01*
X162266247Y-74652285D02*
X162171009Y-74699904D01*
X162171009Y-74699904D02*
X162123390Y-74747523D01*
X162123390Y-74747523D02*
X162075771Y-74842761D01*
X162075771Y-74842761D02*
X162075771Y-75033237D01*
X162075771Y-75033237D02*
X162123390Y-75128475D01*
X162123390Y-75128475D02*
X162171009Y-75176094D01*
X162171009Y-75176094D02*
X162266247Y-75223713D01*
X197786666Y-58084819D02*
X197786666Y-58799104D01*
X197786666Y-58799104D02*
X197739047Y-58941961D01*
X197739047Y-58941961D02*
X197643809Y-59037200D01*
X197643809Y-59037200D02*
X197500952Y-59084819D01*
X197500952Y-59084819D02*
X197405714Y-59084819D01*
X198786666Y-59084819D02*
X198215238Y-59084819D01*
X198500952Y-59084819D02*
X198500952Y-58084819D01*
X198500952Y-58084819D02*
X198405714Y-58227676D01*
X198405714Y-58227676D02*
X198310476Y-58322914D01*
X198310476Y-58322914D02*
X198215238Y-58370533D01*
X201622819Y-73087904D02*
X200622819Y-73087904D01*
X201099009Y-73087904D02*
X201099009Y-72516476D01*
X201622819Y-72516476D02*
X200622819Y-72516476D01*
X200622819Y-72135523D02*
X201622819Y-71468857D01*
X200622819Y-71468857D02*
X201622819Y-72135523D01*
X201051390Y-70945047D02*
X201003771Y-71040285D01*
X201003771Y-71040285D02*
X200956152Y-71087904D01*
X200956152Y-71087904D02*
X200860914Y-71135523D01*
X200860914Y-71135523D02*
X200813295Y-71135523D01*
X200813295Y-71135523D02*
X200718057Y-71087904D01*
X200718057Y-71087904D02*
X200670438Y-71040285D01*
X200670438Y-71040285D02*
X200622819Y-70945047D01*
X200622819Y-70945047D02*
X200622819Y-70754571D01*
X200622819Y-70754571D02*
X200670438Y-70659333D01*
X200670438Y-70659333D02*
X200718057Y-70611714D01*
X200718057Y-70611714D02*
X200813295Y-70564095D01*
X200813295Y-70564095D02*
X200860914Y-70564095D01*
X200860914Y-70564095D02*
X200956152Y-70611714D01*
X200956152Y-70611714D02*
X201003771Y-70659333D01*
X201003771Y-70659333D02*
X201051390Y-70754571D01*
X201051390Y-70754571D02*
X201051390Y-70945047D01*
X201051390Y-70945047D02*
X201099009Y-71040285D01*
X201099009Y-71040285D02*
X201146628Y-71087904D01*
X201146628Y-71087904D02*
X201241866Y-71135523D01*
X201241866Y-71135523D02*
X201432342Y-71135523D01*
X201432342Y-71135523D02*
X201527580Y-71087904D01*
X201527580Y-71087904D02*
X201575200Y-71040285D01*
X201575200Y-71040285D02*
X201622819Y-70945047D01*
X201622819Y-70945047D02*
X201622819Y-70754571D01*
X201622819Y-70754571D02*
X201575200Y-70659333D01*
X201575200Y-70659333D02*
X201527580Y-70611714D01*
X201527580Y-70611714D02*
X201432342Y-70564095D01*
X201432342Y-70564095D02*
X201241866Y-70564095D01*
X201241866Y-70564095D02*
X201146628Y-70611714D01*
X201146628Y-70611714D02*
X201099009Y-70659333D01*
X201099009Y-70659333D02*
X201051390Y-70754571D01*
X200622819Y-70230761D02*
X200622819Y-69611714D01*
X200622819Y-69611714D02*
X201003771Y-69945047D01*
X201003771Y-69945047D02*
X201003771Y-69802190D01*
X201003771Y-69802190D02*
X201051390Y-69706952D01*
X201051390Y-69706952D02*
X201099009Y-69659333D01*
X201099009Y-69659333D02*
X201194247Y-69611714D01*
X201194247Y-69611714D02*
X201432342Y-69611714D01*
X201432342Y-69611714D02*
X201527580Y-69659333D01*
X201527580Y-69659333D02*
X201575200Y-69706952D01*
X201575200Y-69706952D02*
X201622819Y-69802190D01*
X201622819Y-69802190D02*
X201622819Y-70087904D01*
X201622819Y-70087904D02*
X201575200Y-70183142D01*
X201575200Y-70183142D02*
X201527580Y-70230761D01*
X200622819Y-68706952D02*
X200622819Y-69183142D01*
X200622819Y-69183142D02*
X201099009Y-69230761D01*
X201099009Y-69230761D02*
X201051390Y-69183142D01*
X201051390Y-69183142D02*
X201003771Y-69087904D01*
X201003771Y-69087904D02*
X201003771Y-68849809D01*
X201003771Y-68849809D02*
X201051390Y-68754571D01*
X201051390Y-68754571D02*
X201099009Y-68706952D01*
X201099009Y-68706952D02*
X201194247Y-68659333D01*
X201194247Y-68659333D02*
X201432342Y-68659333D01*
X201432342Y-68659333D02*
X201527580Y-68706952D01*
X201527580Y-68706952D02*
X201575200Y-68754571D01*
X201575200Y-68754571D02*
X201622819Y-68849809D01*
X201622819Y-68849809D02*
X201622819Y-69087904D01*
X201622819Y-69087904D02*
X201575200Y-69183142D01*
X201575200Y-69183142D02*
X201527580Y-69230761D01*
X200622819Y-68325999D02*
X200622819Y-67659333D01*
X200622819Y-67659333D02*
X201622819Y-68087904D01*
X201622819Y-67278380D02*
X200622819Y-67278380D01*
X200622819Y-67278380D02*
X200622819Y-67040285D01*
X200622819Y-67040285D02*
X200670438Y-66897428D01*
X200670438Y-66897428D02*
X200765676Y-66802190D01*
X200765676Y-66802190D02*
X200860914Y-66754571D01*
X200860914Y-66754571D02*
X201051390Y-66706952D01*
X201051390Y-66706952D02*
X201194247Y-66706952D01*
X201194247Y-66706952D02*
X201384723Y-66754571D01*
X201384723Y-66754571D02*
X201479961Y-66802190D01*
X201479961Y-66802190D02*
X201575200Y-66897428D01*
X201575200Y-66897428D02*
X201622819Y-67040285D01*
X201622819Y-67040285D02*
X201622819Y-67278380D01*
X201575200Y-65564094D02*
X201622819Y-65421237D01*
X201622819Y-65421237D02*
X201622819Y-65183142D01*
X201622819Y-65183142D02*
X201575200Y-65087904D01*
X201575200Y-65087904D02*
X201527580Y-65040285D01*
X201527580Y-65040285D02*
X201432342Y-64992666D01*
X201432342Y-64992666D02*
X201337104Y-64992666D01*
X201337104Y-64992666D02*
X201241866Y-65040285D01*
X201241866Y-65040285D02*
X201194247Y-65087904D01*
X201194247Y-65087904D02*
X201146628Y-65183142D01*
X201146628Y-65183142D02*
X201099009Y-65373618D01*
X201099009Y-65373618D02*
X201051390Y-65468856D01*
X201051390Y-65468856D02*
X201003771Y-65516475D01*
X201003771Y-65516475D02*
X200908533Y-65564094D01*
X200908533Y-65564094D02*
X200813295Y-65564094D01*
X200813295Y-65564094D02*
X200718057Y-65516475D01*
X200718057Y-65516475D02*
X200670438Y-65468856D01*
X200670438Y-65468856D02*
X200622819Y-65373618D01*
X200622819Y-65373618D02*
X200622819Y-65135523D01*
X200622819Y-65135523D02*
X200670438Y-64992666D01*
X201622819Y-64564094D02*
X200622819Y-64564094D01*
X200622819Y-64564094D02*
X200622819Y-64183142D01*
X200622819Y-64183142D02*
X200670438Y-64087904D01*
X200670438Y-64087904D02*
X200718057Y-64040285D01*
X200718057Y-64040285D02*
X200813295Y-63992666D01*
X200813295Y-63992666D02*
X200956152Y-63992666D01*
X200956152Y-63992666D02*
X201051390Y-64040285D01*
X201051390Y-64040285D02*
X201099009Y-64087904D01*
X201099009Y-64087904D02*
X201146628Y-64183142D01*
X201146628Y-64183142D02*
X201146628Y-64564094D01*
X201622819Y-63564094D02*
X200622819Y-63564094D01*
X127059580Y-60792857D02*
X127107200Y-60840476D01*
X127107200Y-60840476D02*
X127154819Y-60983333D01*
X127154819Y-60983333D02*
X127154819Y-61078571D01*
X127154819Y-61078571D02*
X127107200Y-61221428D01*
X127107200Y-61221428D02*
X127011961Y-61316666D01*
X127011961Y-61316666D02*
X126916723Y-61364285D01*
X126916723Y-61364285D02*
X126726247Y-61411904D01*
X126726247Y-61411904D02*
X126583390Y-61411904D01*
X126583390Y-61411904D02*
X126392914Y-61364285D01*
X126392914Y-61364285D02*
X126297676Y-61316666D01*
X126297676Y-61316666D02*
X126202438Y-61221428D01*
X126202438Y-61221428D02*
X126154819Y-61078571D01*
X126154819Y-61078571D02*
X126154819Y-60983333D01*
X126154819Y-60983333D02*
X126202438Y-60840476D01*
X126202438Y-60840476D02*
X126250057Y-60792857D01*
X127154819Y-59840476D02*
X127154819Y-60411904D01*
X127154819Y-60126190D02*
X126154819Y-60126190D01*
X126154819Y-60126190D02*
X126297676Y-60221428D01*
X126297676Y-60221428D02*
X126392914Y-60316666D01*
X126392914Y-60316666D02*
X126440533Y-60411904D01*
X126250057Y-59459523D02*
X126202438Y-59411904D01*
X126202438Y-59411904D02*
X126154819Y-59316666D01*
X126154819Y-59316666D02*
X126154819Y-59078571D01*
X126154819Y-59078571D02*
X126202438Y-58983333D01*
X126202438Y-58983333D02*
X126250057Y-58935714D01*
X126250057Y-58935714D02*
X126345295Y-58888095D01*
X126345295Y-58888095D02*
X126440533Y-58888095D01*
X126440533Y-58888095D02*
X126583390Y-58935714D01*
X126583390Y-58935714D02*
X127154819Y-59507142D01*
X127154819Y-59507142D02*
X127154819Y-58888095D01*
X178844761Y-83880057D02*
X178749523Y-83832438D01*
X178749523Y-83832438D02*
X178654285Y-83737200D01*
X178654285Y-83737200D02*
X178511428Y-83594342D01*
X178511428Y-83594342D02*
X178416190Y-83546723D01*
X178416190Y-83546723D02*
X178320952Y-83546723D01*
X178368571Y-83784819D02*
X178273333Y-83737200D01*
X178273333Y-83737200D02*
X178178095Y-83641961D01*
X178178095Y-83641961D02*
X178130476Y-83451485D01*
X178130476Y-83451485D02*
X178130476Y-83118152D01*
X178130476Y-83118152D02*
X178178095Y-82927676D01*
X178178095Y-82927676D02*
X178273333Y-82832438D01*
X178273333Y-82832438D02*
X178368571Y-82784819D01*
X178368571Y-82784819D02*
X178559047Y-82784819D01*
X178559047Y-82784819D02*
X178654285Y-82832438D01*
X178654285Y-82832438D02*
X178749523Y-82927676D01*
X178749523Y-82927676D02*
X178797142Y-83118152D01*
X178797142Y-83118152D02*
X178797142Y-83451485D01*
X178797142Y-83451485D02*
X178749523Y-83641961D01*
X178749523Y-83641961D02*
X178654285Y-83737200D01*
X178654285Y-83737200D02*
X178559047Y-83784819D01*
X178559047Y-83784819D02*
X178368571Y-83784819D01*
X179749523Y-83784819D02*
X179178095Y-83784819D01*
X179463809Y-83784819D02*
X179463809Y-82784819D01*
X179463809Y-82784819D02*
X179368571Y-82927676D01*
X179368571Y-82927676D02*
X179273333Y-83022914D01*
X179273333Y-83022914D02*
X179178095Y-83070533D01*
X130718095Y-52160819D02*
X130718095Y-52970342D01*
X130718095Y-52970342D02*
X130765714Y-53065580D01*
X130765714Y-53065580D02*
X130813333Y-53113200D01*
X130813333Y-53113200D02*
X130908571Y-53160819D01*
X130908571Y-53160819D02*
X131099047Y-53160819D01*
X131099047Y-53160819D02*
X131194285Y-53113200D01*
X131194285Y-53113200D02*
X131241904Y-53065580D01*
X131241904Y-53065580D02*
X131289523Y-52970342D01*
X131289523Y-52970342D02*
X131289523Y-52160819D01*
X132289523Y-53160819D02*
X131718095Y-53160819D01*
X132003809Y-53160819D02*
X132003809Y-52160819D01*
X132003809Y-52160819D02*
X131908571Y-52303676D01*
X131908571Y-52303676D02*
X131813333Y-52398914D01*
X131813333Y-52398914D02*
X131718095Y-52446533D01*
X130399580Y-72132857D02*
X130447200Y-72180476D01*
X130447200Y-72180476D02*
X130494819Y-72323333D01*
X130494819Y-72323333D02*
X130494819Y-72418571D01*
X130494819Y-72418571D02*
X130447200Y-72561428D01*
X130447200Y-72561428D02*
X130351961Y-72656666D01*
X130351961Y-72656666D02*
X130256723Y-72704285D01*
X130256723Y-72704285D02*
X130066247Y-72751904D01*
X130066247Y-72751904D02*
X129923390Y-72751904D01*
X129923390Y-72751904D02*
X129732914Y-72704285D01*
X129732914Y-72704285D02*
X129637676Y-72656666D01*
X129637676Y-72656666D02*
X129542438Y-72561428D01*
X129542438Y-72561428D02*
X129494819Y-72418571D01*
X129494819Y-72418571D02*
X129494819Y-72323333D01*
X129494819Y-72323333D02*
X129542438Y-72180476D01*
X129542438Y-72180476D02*
X129590057Y-72132857D01*
X129590057Y-71751904D02*
X129542438Y-71704285D01*
X129542438Y-71704285D02*
X129494819Y-71609047D01*
X129494819Y-71609047D02*
X129494819Y-71370952D01*
X129494819Y-71370952D02*
X129542438Y-71275714D01*
X129542438Y-71275714D02*
X129590057Y-71228095D01*
X129590057Y-71228095D02*
X129685295Y-71180476D01*
X129685295Y-71180476D02*
X129780533Y-71180476D01*
X129780533Y-71180476D02*
X129923390Y-71228095D01*
X129923390Y-71228095D02*
X130494819Y-71799523D01*
X130494819Y-71799523D02*
X130494819Y-71180476D01*
X129923390Y-70609047D02*
X129875771Y-70704285D01*
X129875771Y-70704285D02*
X129828152Y-70751904D01*
X129828152Y-70751904D02*
X129732914Y-70799523D01*
X129732914Y-70799523D02*
X129685295Y-70799523D01*
X129685295Y-70799523D02*
X129590057Y-70751904D01*
X129590057Y-70751904D02*
X129542438Y-70704285D01*
X129542438Y-70704285D02*
X129494819Y-70609047D01*
X129494819Y-70609047D02*
X129494819Y-70418571D01*
X129494819Y-70418571D02*
X129542438Y-70323333D01*
X129542438Y-70323333D02*
X129590057Y-70275714D01*
X129590057Y-70275714D02*
X129685295Y-70228095D01*
X129685295Y-70228095D02*
X129732914Y-70228095D01*
X129732914Y-70228095D02*
X129828152Y-70275714D01*
X129828152Y-70275714D02*
X129875771Y-70323333D01*
X129875771Y-70323333D02*
X129923390Y-70418571D01*
X129923390Y-70418571D02*
X129923390Y-70609047D01*
X129923390Y-70609047D02*
X129971009Y-70704285D01*
X129971009Y-70704285D02*
X130018628Y-70751904D01*
X130018628Y-70751904D02*
X130113866Y-70799523D01*
X130113866Y-70799523D02*
X130304342Y-70799523D01*
X130304342Y-70799523D02*
X130399580Y-70751904D01*
X130399580Y-70751904D02*
X130447200Y-70704285D01*
X130447200Y-70704285D02*
X130494819Y-70609047D01*
X130494819Y-70609047D02*
X130494819Y-70418571D01*
X130494819Y-70418571D02*
X130447200Y-70323333D01*
X130447200Y-70323333D02*
X130399580Y-70275714D01*
X130399580Y-70275714D02*
X130304342Y-70228095D01*
X130304342Y-70228095D02*
X130113866Y-70228095D01*
X130113866Y-70228095D02*
X130018628Y-70275714D01*
X130018628Y-70275714D02*
X129971009Y-70323333D01*
X129971009Y-70323333D02*
X129923390Y-70418571D01*
X130759580Y-64592857D02*
X130807200Y-64640476D01*
X130807200Y-64640476D02*
X130854819Y-64783333D01*
X130854819Y-64783333D02*
X130854819Y-64878571D01*
X130854819Y-64878571D02*
X130807200Y-65021428D01*
X130807200Y-65021428D02*
X130711961Y-65116666D01*
X130711961Y-65116666D02*
X130616723Y-65164285D01*
X130616723Y-65164285D02*
X130426247Y-65211904D01*
X130426247Y-65211904D02*
X130283390Y-65211904D01*
X130283390Y-65211904D02*
X130092914Y-65164285D01*
X130092914Y-65164285D02*
X129997676Y-65116666D01*
X129997676Y-65116666D02*
X129902438Y-65021428D01*
X129902438Y-65021428D02*
X129854819Y-64878571D01*
X129854819Y-64878571D02*
X129854819Y-64783333D01*
X129854819Y-64783333D02*
X129902438Y-64640476D01*
X129902438Y-64640476D02*
X129950057Y-64592857D01*
X130854819Y-63640476D02*
X130854819Y-64211904D01*
X130854819Y-63926190D02*
X129854819Y-63926190D01*
X129854819Y-63926190D02*
X129997676Y-64021428D01*
X129997676Y-64021428D02*
X130092914Y-64116666D01*
X130092914Y-64116666D02*
X130140533Y-64211904D01*
X129854819Y-62783333D02*
X129854819Y-62973809D01*
X129854819Y-62973809D02*
X129902438Y-63069047D01*
X129902438Y-63069047D02*
X129950057Y-63116666D01*
X129950057Y-63116666D02*
X130092914Y-63211904D01*
X130092914Y-63211904D02*
X130283390Y-63259523D01*
X130283390Y-63259523D02*
X130664342Y-63259523D01*
X130664342Y-63259523D02*
X130759580Y-63211904D01*
X130759580Y-63211904D02*
X130807200Y-63164285D01*
X130807200Y-63164285D02*
X130854819Y-63069047D01*
X130854819Y-63069047D02*
X130854819Y-62878571D01*
X130854819Y-62878571D02*
X130807200Y-62783333D01*
X130807200Y-62783333D02*
X130759580Y-62735714D01*
X130759580Y-62735714D02*
X130664342Y-62688095D01*
X130664342Y-62688095D02*
X130426247Y-62688095D01*
X130426247Y-62688095D02*
X130331009Y-62735714D01*
X130331009Y-62735714D02*
X130283390Y-62783333D01*
X130283390Y-62783333D02*
X130235771Y-62878571D01*
X130235771Y-62878571D02*
X130235771Y-63069047D01*
X130235771Y-63069047D02*
X130283390Y-63164285D01*
X130283390Y-63164285D02*
X130331009Y-63211904D01*
X130331009Y-63211904D02*
X130426247Y-63259523D01*
X194249580Y-106492857D02*
X194297200Y-106540476D01*
X194297200Y-106540476D02*
X194344819Y-106683333D01*
X194344819Y-106683333D02*
X194344819Y-106778571D01*
X194344819Y-106778571D02*
X194297200Y-106921428D01*
X194297200Y-106921428D02*
X194201961Y-107016666D01*
X194201961Y-107016666D02*
X194106723Y-107064285D01*
X194106723Y-107064285D02*
X193916247Y-107111904D01*
X193916247Y-107111904D02*
X193773390Y-107111904D01*
X193773390Y-107111904D02*
X193582914Y-107064285D01*
X193582914Y-107064285D02*
X193487676Y-107016666D01*
X193487676Y-107016666D02*
X193392438Y-106921428D01*
X193392438Y-106921428D02*
X193344819Y-106778571D01*
X193344819Y-106778571D02*
X193344819Y-106683333D01*
X193344819Y-106683333D02*
X193392438Y-106540476D01*
X193392438Y-106540476D02*
X193440057Y-106492857D01*
X194344819Y-105540476D02*
X194344819Y-106111904D01*
X194344819Y-105826190D02*
X193344819Y-105826190D01*
X193344819Y-105826190D02*
X193487676Y-105921428D01*
X193487676Y-105921428D02*
X193582914Y-106016666D01*
X193582914Y-106016666D02*
X193630533Y-106111904D01*
X193344819Y-104635714D02*
X193344819Y-105111904D01*
X193344819Y-105111904D02*
X193821009Y-105159523D01*
X193821009Y-105159523D02*
X193773390Y-105111904D01*
X193773390Y-105111904D02*
X193725771Y-105016666D01*
X193725771Y-105016666D02*
X193725771Y-104778571D01*
X193725771Y-104778571D02*
X193773390Y-104683333D01*
X193773390Y-104683333D02*
X193821009Y-104635714D01*
X193821009Y-104635714D02*
X193916247Y-104588095D01*
X193916247Y-104588095D02*
X194154342Y-104588095D01*
X194154342Y-104588095D02*
X194249580Y-104635714D01*
X194249580Y-104635714D02*
X194297200Y-104683333D01*
X194297200Y-104683333D02*
X194344819Y-104778571D01*
X194344819Y-104778571D02*
X194344819Y-105016666D01*
X194344819Y-105016666D02*
X194297200Y-105111904D01*
X194297200Y-105111904D02*
X194249580Y-105159523D01*
X180249580Y-91872857D02*
X180297200Y-91920476D01*
X180297200Y-91920476D02*
X180344819Y-92063333D01*
X180344819Y-92063333D02*
X180344819Y-92158571D01*
X180344819Y-92158571D02*
X180297200Y-92301428D01*
X180297200Y-92301428D02*
X180201961Y-92396666D01*
X180201961Y-92396666D02*
X180106723Y-92444285D01*
X180106723Y-92444285D02*
X179916247Y-92491904D01*
X179916247Y-92491904D02*
X179773390Y-92491904D01*
X179773390Y-92491904D02*
X179582914Y-92444285D01*
X179582914Y-92444285D02*
X179487676Y-92396666D01*
X179487676Y-92396666D02*
X179392438Y-92301428D01*
X179392438Y-92301428D02*
X179344819Y-92158571D01*
X179344819Y-92158571D02*
X179344819Y-92063333D01*
X179344819Y-92063333D02*
X179392438Y-91920476D01*
X179392438Y-91920476D02*
X179440057Y-91872857D01*
X179440057Y-91491904D02*
X179392438Y-91444285D01*
X179392438Y-91444285D02*
X179344819Y-91349047D01*
X179344819Y-91349047D02*
X179344819Y-91110952D01*
X179344819Y-91110952D02*
X179392438Y-91015714D01*
X179392438Y-91015714D02*
X179440057Y-90968095D01*
X179440057Y-90968095D02*
X179535295Y-90920476D01*
X179535295Y-90920476D02*
X179630533Y-90920476D01*
X179630533Y-90920476D02*
X179773390Y-90968095D01*
X179773390Y-90968095D02*
X180344819Y-91539523D01*
X180344819Y-91539523D02*
X180344819Y-90920476D01*
X179344819Y-90301428D02*
X179344819Y-90206190D01*
X179344819Y-90206190D02*
X179392438Y-90110952D01*
X179392438Y-90110952D02*
X179440057Y-90063333D01*
X179440057Y-90063333D02*
X179535295Y-90015714D01*
X179535295Y-90015714D02*
X179725771Y-89968095D01*
X179725771Y-89968095D02*
X179963866Y-89968095D01*
X179963866Y-89968095D02*
X180154342Y-90015714D01*
X180154342Y-90015714D02*
X180249580Y-90063333D01*
X180249580Y-90063333D02*
X180297200Y-90110952D01*
X180297200Y-90110952D02*
X180344819Y-90206190D01*
X180344819Y-90206190D02*
X180344819Y-90301428D01*
X180344819Y-90301428D02*
X180297200Y-90396666D01*
X180297200Y-90396666D02*
X180249580Y-90444285D01*
X180249580Y-90444285D02*
X180154342Y-90491904D01*
X180154342Y-90491904D02*
X179963866Y-90539523D01*
X179963866Y-90539523D02*
X179725771Y-90539523D01*
X179725771Y-90539523D02*
X179535295Y-90491904D01*
X179535295Y-90491904D02*
X179440057Y-90444285D01*
X179440057Y-90444285D02*
X179392438Y-90396666D01*
X179392438Y-90396666D02*
X179344819Y-90301428D01*
X177404819Y-77956666D02*
X176928628Y-78289999D01*
X177404819Y-78528094D02*
X176404819Y-78528094D01*
X176404819Y-78528094D02*
X176404819Y-78147142D01*
X176404819Y-78147142D02*
X176452438Y-78051904D01*
X176452438Y-78051904D02*
X176500057Y-78004285D01*
X176500057Y-78004285D02*
X176595295Y-77956666D01*
X176595295Y-77956666D02*
X176738152Y-77956666D01*
X176738152Y-77956666D02*
X176833390Y-78004285D01*
X176833390Y-78004285D02*
X176881009Y-78051904D01*
X176881009Y-78051904D02*
X176928628Y-78147142D01*
X176928628Y-78147142D02*
X176928628Y-78528094D01*
X176404819Y-77623332D02*
X176404819Y-76956666D01*
X176404819Y-76956666D02*
X177404819Y-77385237D01*
X172479580Y-90242857D02*
X172527200Y-90290476D01*
X172527200Y-90290476D02*
X172574819Y-90433333D01*
X172574819Y-90433333D02*
X172574819Y-90528571D01*
X172574819Y-90528571D02*
X172527200Y-90671428D01*
X172527200Y-90671428D02*
X172431961Y-90766666D01*
X172431961Y-90766666D02*
X172336723Y-90814285D01*
X172336723Y-90814285D02*
X172146247Y-90861904D01*
X172146247Y-90861904D02*
X172003390Y-90861904D01*
X172003390Y-90861904D02*
X171812914Y-90814285D01*
X171812914Y-90814285D02*
X171717676Y-90766666D01*
X171717676Y-90766666D02*
X171622438Y-90671428D01*
X171622438Y-90671428D02*
X171574819Y-90528571D01*
X171574819Y-90528571D02*
X171574819Y-90433333D01*
X171574819Y-90433333D02*
X171622438Y-90290476D01*
X171622438Y-90290476D02*
X171670057Y-90242857D01*
X171670057Y-89861904D02*
X171622438Y-89814285D01*
X171622438Y-89814285D02*
X171574819Y-89719047D01*
X171574819Y-89719047D02*
X171574819Y-89480952D01*
X171574819Y-89480952D02*
X171622438Y-89385714D01*
X171622438Y-89385714D02*
X171670057Y-89338095D01*
X171670057Y-89338095D02*
X171765295Y-89290476D01*
X171765295Y-89290476D02*
X171860533Y-89290476D01*
X171860533Y-89290476D02*
X172003390Y-89338095D01*
X172003390Y-89338095D02*
X172574819Y-89909523D01*
X172574819Y-89909523D02*
X172574819Y-89290476D01*
X171670057Y-88909523D02*
X171622438Y-88861904D01*
X171622438Y-88861904D02*
X171574819Y-88766666D01*
X171574819Y-88766666D02*
X171574819Y-88528571D01*
X171574819Y-88528571D02*
X171622438Y-88433333D01*
X171622438Y-88433333D02*
X171670057Y-88385714D01*
X171670057Y-88385714D02*
X171765295Y-88338095D01*
X171765295Y-88338095D02*
X171860533Y-88338095D01*
X171860533Y-88338095D02*
X172003390Y-88385714D01*
X172003390Y-88385714D02*
X172574819Y-88957142D01*
X172574819Y-88957142D02*
X172574819Y-88338095D01*
X165744819Y-61026666D02*
X165268628Y-61359999D01*
X165744819Y-61598094D02*
X164744819Y-61598094D01*
X164744819Y-61598094D02*
X164744819Y-61217142D01*
X164744819Y-61217142D02*
X164792438Y-61121904D01*
X164792438Y-61121904D02*
X164840057Y-61074285D01*
X164840057Y-61074285D02*
X164935295Y-61026666D01*
X164935295Y-61026666D02*
X165078152Y-61026666D01*
X165078152Y-61026666D02*
X165173390Y-61074285D01*
X165173390Y-61074285D02*
X165221009Y-61121904D01*
X165221009Y-61121904D02*
X165268628Y-61217142D01*
X165268628Y-61217142D02*
X165268628Y-61598094D01*
X164840057Y-60645713D02*
X164792438Y-60598094D01*
X164792438Y-60598094D02*
X164744819Y-60502856D01*
X164744819Y-60502856D02*
X164744819Y-60264761D01*
X164744819Y-60264761D02*
X164792438Y-60169523D01*
X164792438Y-60169523D02*
X164840057Y-60121904D01*
X164840057Y-60121904D02*
X164935295Y-60074285D01*
X164935295Y-60074285D02*
X165030533Y-60074285D01*
X165030533Y-60074285D02*
X165173390Y-60121904D01*
X165173390Y-60121904D02*
X165744819Y-60693332D01*
X165744819Y-60693332D02*
X165744819Y-60074285D01*
X134854819Y-116383333D02*
X135569104Y-116383333D01*
X135569104Y-116383333D02*
X135711961Y-116430952D01*
X135711961Y-116430952D02*
X135807200Y-116526190D01*
X135807200Y-116526190D02*
X135854819Y-116669047D01*
X135854819Y-116669047D02*
X135854819Y-116764285D01*
X135188152Y-115478571D02*
X135854819Y-115478571D01*
X134807200Y-115716666D02*
X135521485Y-115954761D01*
X135521485Y-115954761D02*
X135521485Y-115335714D01*
X132628095Y-78614819D02*
X133199523Y-78614819D01*
X132913809Y-79614819D02*
X132913809Y-78614819D01*
X133532857Y-79614819D02*
X133532857Y-78614819D01*
X133532857Y-78614819D02*
X133913809Y-78614819D01*
X133913809Y-78614819D02*
X134009047Y-78662438D01*
X134009047Y-78662438D02*
X134056666Y-78710057D01*
X134056666Y-78710057D02*
X134104285Y-78805295D01*
X134104285Y-78805295D02*
X134104285Y-78948152D01*
X134104285Y-78948152D02*
X134056666Y-79043390D01*
X134056666Y-79043390D02*
X134009047Y-79091009D01*
X134009047Y-79091009D02*
X133913809Y-79138628D01*
X133913809Y-79138628D02*
X133532857Y-79138628D01*
X134485238Y-78710057D02*
X134532857Y-78662438D01*
X134532857Y-78662438D02*
X134628095Y-78614819D01*
X134628095Y-78614819D02*
X134866190Y-78614819D01*
X134866190Y-78614819D02*
X134961428Y-78662438D01*
X134961428Y-78662438D02*
X135009047Y-78710057D01*
X135009047Y-78710057D02*
X135056666Y-78805295D01*
X135056666Y-78805295D02*
X135056666Y-78900533D01*
X135056666Y-78900533D02*
X135009047Y-79043390D01*
X135009047Y-79043390D02*
X134437619Y-79614819D01*
X134437619Y-79614819D02*
X135056666Y-79614819D01*
X133047142Y-82889580D02*
X132999523Y-82937200D01*
X132999523Y-82937200D02*
X132856666Y-82984819D01*
X132856666Y-82984819D02*
X132761428Y-82984819D01*
X132761428Y-82984819D02*
X132618571Y-82937200D01*
X132618571Y-82937200D02*
X132523333Y-82841961D01*
X132523333Y-82841961D02*
X132475714Y-82746723D01*
X132475714Y-82746723D02*
X132428095Y-82556247D01*
X132428095Y-82556247D02*
X132428095Y-82413390D01*
X132428095Y-82413390D02*
X132475714Y-82222914D01*
X132475714Y-82222914D02*
X132523333Y-82127676D01*
X132523333Y-82127676D02*
X132618571Y-82032438D01*
X132618571Y-82032438D02*
X132761428Y-81984819D01*
X132761428Y-81984819D02*
X132856666Y-81984819D01*
X132856666Y-81984819D02*
X132999523Y-82032438D01*
X132999523Y-82032438D02*
X133047142Y-82080057D01*
X133380476Y-81984819D02*
X133999523Y-81984819D01*
X133999523Y-81984819D02*
X133666190Y-82365771D01*
X133666190Y-82365771D02*
X133809047Y-82365771D01*
X133809047Y-82365771D02*
X133904285Y-82413390D01*
X133904285Y-82413390D02*
X133951904Y-82461009D01*
X133951904Y-82461009D02*
X133999523Y-82556247D01*
X133999523Y-82556247D02*
X133999523Y-82794342D01*
X133999523Y-82794342D02*
X133951904Y-82889580D01*
X133951904Y-82889580D02*
X133904285Y-82937200D01*
X133904285Y-82937200D02*
X133809047Y-82984819D01*
X133809047Y-82984819D02*
X133523333Y-82984819D01*
X133523333Y-82984819D02*
X133428095Y-82937200D01*
X133428095Y-82937200D02*
X133380476Y-82889580D01*
X134618571Y-81984819D02*
X134713809Y-81984819D01*
X134713809Y-81984819D02*
X134809047Y-82032438D01*
X134809047Y-82032438D02*
X134856666Y-82080057D01*
X134856666Y-82080057D02*
X134904285Y-82175295D01*
X134904285Y-82175295D02*
X134951904Y-82365771D01*
X134951904Y-82365771D02*
X134951904Y-82603866D01*
X134951904Y-82603866D02*
X134904285Y-82794342D01*
X134904285Y-82794342D02*
X134856666Y-82889580D01*
X134856666Y-82889580D02*
X134809047Y-82937200D01*
X134809047Y-82937200D02*
X134713809Y-82984819D01*
X134713809Y-82984819D02*
X134618571Y-82984819D01*
X134618571Y-82984819D02*
X134523333Y-82937200D01*
X134523333Y-82937200D02*
X134475714Y-82889580D01*
X134475714Y-82889580D02*
X134428095Y-82794342D01*
X134428095Y-82794342D02*
X134380476Y-82603866D01*
X134380476Y-82603866D02*
X134380476Y-82365771D01*
X134380476Y-82365771D02*
X134428095Y-82175295D01*
X134428095Y-82175295D02*
X134475714Y-82080057D01*
X134475714Y-82080057D02*
X134523333Y-82032438D01*
X134523333Y-82032438D02*
X134618571Y-81984819D01*
X120217142Y-69409580D02*
X120169523Y-69457200D01*
X120169523Y-69457200D02*
X120026666Y-69504819D01*
X120026666Y-69504819D02*
X119931428Y-69504819D01*
X119931428Y-69504819D02*
X119788571Y-69457200D01*
X119788571Y-69457200D02*
X119693333Y-69361961D01*
X119693333Y-69361961D02*
X119645714Y-69266723D01*
X119645714Y-69266723D02*
X119598095Y-69076247D01*
X119598095Y-69076247D02*
X119598095Y-68933390D01*
X119598095Y-68933390D02*
X119645714Y-68742914D01*
X119645714Y-68742914D02*
X119693333Y-68647676D01*
X119693333Y-68647676D02*
X119788571Y-68552438D01*
X119788571Y-68552438D02*
X119931428Y-68504819D01*
X119931428Y-68504819D02*
X120026666Y-68504819D01*
X120026666Y-68504819D02*
X120169523Y-68552438D01*
X120169523Y-68552438D02*
X120217142Y-68600057D01*
X120598095Y-68600057D02*
X120645714Y-68552438D01*
X120645714Y-68552438D02*
X120740952Y-68504819D01*
X120740952Y-68504819D02*
X120979047Y-68504819D01*
X120979047Y-68504819D02*
X121074285Y-68552438D01*
X121074285Y-68552438D02*
X121121904Y-68600057D01*
X121121904Y-68600057D02*
X121169523Y-68695295D01*
X121169523Y-68695295D02*
X121169523Y-68790533D01*
X121169523Y-68790533D02*
X121121904Y-68933390D01*
X121121904Y-68933390D02*
X120550476Y-69504819D01*
X120550476Y-69504819D02*
X121169523Y-69504819D01*
X121645714Y-69504819D02*
X121836190Y-69504819D01*
X121836190Y-69504819D02*
X121931428Y-69457200D01*
X121931428Y-69457200D02*
X121979047Y-69409580D01*
X121979047Y-69409580D02*
X122074285Y-69266723D01*
X122074285Y-69266723D02*
X122121904Y-69076247D01*
X122121904Y-69076247D02*
X122121904Y-68695295D01*
X122121904Y-68695295D02*
X122074285Y-68600057D01*
X122074285Y-68600057D02*
X122026666Y-68552438D01*
X122026666Y-68552438D02*
X121931428Y-68504819D01*
X121931428Y-68504819D02*
X121740952Y-68504819D01*
X121740952Y-68504819D02*
X121645714Y-68552438D01*
X121645714Y-68552438D02*
X121598095Y-68600057D01*
X121598095Y-68600057D02*
X121550476Y-68695295D01*
X121550476Y-68695295D02*
X121550476Y-68933390D01*
X121550476Y-68933390D02*
X121598095Y-69028628D01*
X121598095Y-69028628D02*
X121645714Y-69076247D01*
X121645714Y-69076247D02*
X121740952Y-69123866D01*
X121740952Y-69123866D02*
X121931428Y-69123866D01*
X121931428Y-69123866D02*
X122026666Y-69076247D01*
X122026666Y-69076247D02*
X122074285Y-69028628D01*
X122074285Y-69028628D02*
X122121904Y-68933390D01*
X172248095Y-71474819D02*
X172819523Y-71474819D01*
X172533809Y-72474819D02*
X172533809Y-71474819D01*
X173152857Y-72474819D02*
X173152857Y-71474819D01*
X173152857Y-71474819D02*
X173533809Y-71474819D01*
X173533809Y-71474819D02*
X173629047Y-71522438D01*
X173629047Y-71522438D02*
X173676666Y-71570057D01*
X173676666Y-71570057D02*
X173724285Y-71665295D01*
X173724285Y-71665295D02*
X173724285Y-71808152D01*
X173724285Y-71808152D02*
X173676666Y-71903390D01*
X173676666Y-71903390D02*
X173629047Y-71951009D01*
X173629047Y-71951009D02*
X173533809Y-71998628D01*
X173533809Y-71998628D02*
X173152857Y-71998628D01*
X174581428Y-71808152D02*
X174581428Y-72474819D01*
X174343333Y-71427200D02*
X174105238Y-72141485D01*
X174105238Y-72141485D02*
X174724285Y-72141485D01*
D12*
X185183368Y-81654761D02*
X185183368Y-82501428D01*
X186513844Y-82501428D02*
X183973844Y-82501428D01*
X183973844Y-82501428D02*
X183973844Y-81291904D01*
X186513844Y-79114761D02*
X186513844Y-80324285D01*
X186513844Y-80324285D02*
X183973844Y-80324285D01*
X186513844Y-76937618D02*
X186513844Y-78389047D01*
X186513844Y-77663333D02*
X183973844Y-77663333D01*
X183973844Y-77663333D02*
X184336701Y-77905237D01*
X184336701Y-77905237D02*
X184578606Y-78147142D01*
X184578606Y-78147142D02*
X184699558Y-78389047D01*
X184519944Y-95264133D02*
X181979944Y-95264133D01*
X184519944Y-94054609D02*
X181979944Y-94054609D01*
X181979944Y-94054609D02*
X184519944Y-92603180D01*
X184519944Y-92603180D02*
X181979944Y-92603180D01*
X189212896Y-68787656D02*
X189091944Y-69029561D01*
X189091944Y-69029561D02*
X189091944Y-69392418D01*
X189091944Y-69392418D02*
X189212896Y-69755275D01*
X189212896Y-69755275D02*
X189454801Y-69997180D01*
X189454801Y-69997180D02*
X189696706Y-70118133D01*
X189696706Y-70118133D02*
X190180515Y-70239085D01*
X190180515Y-70239085D02*
X190543372Y-70239085D01*
X190543372Y-70239085D02*
X191027182Y-70118133D01*
X191027182Y-70118133D02*
X191269087Y-69997180D01*
X191269087Y-69997180D02*
X191510992Y-69755275D01*
X191510992Y-69755275D02*
X191631944Y-69392418D01*
X191631944Y-69392418D02*
X191631944Y-69150514D01*
X191631944Y-69150514D02*
X191510992Y-68787656D01*
X191510992Y-68787656D02*
X191390039Y-68666704D01*
X191390039Y-68666704D02*
X190543372Y-68666704D01*
X190543372Y-68666704D02*
X190543372Y-69150514D01*
X191631944Y-67578133D02*
X189091944Y-67578133D01*
X189091944Y-67578133D02*
X191631944Y-66126704D01*
X191631944Y-66126704D02*
X189091944Y-66126704D01*
X191631944Y-64917181D02*
X189091944Y-64917181D01*
X189091944Y-64917181D02*
X189091944Y-64312419D01*
X189091944Y-64312419D02*
X189212896Y-63949562D01*
X189212896Y-63949562D02*
X189454801Y-63707657D01*
X189454801Y-63707657D02*
X189696706Y-63586704D01*
X189696706Y-63586704D02*
X190180515Y-63465752D01*
X190180515Y-63465752D02*
X190543372Y-63465752D01*
X190543372Y-63465752D02*
X191027182Y-63586704D01*
X191027182Y-63586704D02*
X191269087Y-63707657D01*
X191269087Y-63707657D02*
X191510992Y-63949562D01*
X191510992Y-63949562D02*
X191631944Y-64312419D01*
X191631944Y-64312419D02*
X191631944Y-64917181D01*
X189466896Y-94187656D02*
X189345944Y-94429561D01*
X189345944Y-94429561D02*
X189345944Y-94792418D01*
X189345944Y-94792418D02*
X189466896Y-95155275D01*
X189466896Y-95155275D02*
X189708801Y-95397180D01*
X189708801Y-95397180D02*
X189950706Y-95518133D01*
X189950706Y-95518133D02*
X190434515Y-95639085D01*
X190434515Y-95639085D02*
X190797372Y-95639085D01*
X190797372Y-95639085D02*
X191281182Y-95518133D01*
X191281182Y-95518133D02*
X191523087Y-95397180D01*
X191523087Y-95397180D02*
X191764992Y-95155275D01*
X191764992Y-95155275D02*
X191885944Y-94792418D01*
X191885944Y-94792418D02*
X191885944Y-94550514D01*
X191885944Y-94550514D02*
X191764992Y-94187656D01*
X191764992Y-94187656D02*
X191644039Y-94066704D01*
X191644039Y-94066704D02*
X190797372Y-94066704D01*
X190797372Y-94066704D02*
X190797372Y-94550514D01*
X191885944Y-92978133D02*
X189345944Y-92978133D01*
X189345944Y-92978133D02*
X191885944Y-91526704D01*
X191885944Y-91526704D02*
X189345944Y-91526704D01*
X191885944Y-90317181D02*
X189345944Y-90317181D01*
X189345944Y-90317181D02*
X189345944Y-89712419D01*
X189345944Y-89712419D02*
X189466896Y-89349562D01*
X189466896Y-89349562D02*
X189708801Y-89107657D01*
X189708801Y-89107657D02*
X189950706Y-88986704D01*
X189950706Y-88986704D02*
X190434515Y-88865752D01*
X190434515Y-88865752D02*
X190797372Y-88865752D01*
X190797372Y-88865752D02*
X191281182Y-88986704D01*
X191281182Y-88986704D02*
X191523087Y-89107657D01*
X191523087Y-89107657D02*
X191764992Y-89349562D01*
X191764992Y-89349562D02*
X191885944Y-89712419D01*
X191885944Y-89712419D02*
X191885944Y-90317181D01*
X181979944Y-69634323D02*
X181979944Y-69150514D01*
X181979944Y-69150514D02*
X182100896Y-68908609D01*
X182100896Y-68908609D02*
X182342801Y-68666704D01*
X182342801Y-68666704D02*
X182826611Y-68545752D01*
X182826611Y-68545752D02*
X183673277Y-68545752D01*
X183673277Y-68545752D02*
X184157087Y-68666704D01*
X184157087Y-68666704D02*
X184398992Y-68908609D01*
X184398992Y-68908609D02*
X184519944Y-69150514D01*
X184519944Y-69150514D02*
X184519944Y-69634323D01*
X184519944Y-69634323D02*
X184398992Y-69876228D01*
X184398992Y-69876228D02*
X184157087Y-70118133D01*
X184157087Y-70118133D02*
X183673277Y-70239085D01*
X183673277Y-70239085D02*
X182826611Y-70239085D01*
X182826611Y-70239085D02*
X182342801Y-70118133D01*
X182342801Y-70118133D02*
X182100896Y-69876228D01*
X182100896Y-69876228D02*
X181979944Y-69634323D01*
X181979944Y-67457181D02*
X184036134Y-67457181D01*
X184036134Y-67457181D02*
X184278039Y-67336228D01*
X184278039Y-67336228D02*
X184398992Y-67215276D01*
X184398992Y-67215276D02*
X184519944Y-66973371D01*
X184519944Y-66973371D02*
X184519944Y-66489562D01*
X184519944Y-66489562D02*
X184398992Y-66247657D01*
X184398992Y-66247657D02*
X184278039Y-66126704D01*
X184278039Y-66126704D02*
X184036134Y-66005752D01*
X184036134Y-66005752D02*
X181979944Y-66005752D01*
X181979944Y-65159086D02*
X181979944Y-63707657D01*
X184519944Y-64433371D02*
X181979944Y-64433371D01*
D10*
X159756191Y-114743819D02*
X160422857Y-115743819D01*
X160422857Y-114743819D02*
X159756191Y-115743819D01*
X160803810Y-115743819D02*
X160803810Y-114743819D01*
X160803810Y-114743819D02*
X161137143Y-115458104D01*
X161137143Y-115458104D02*
X161470476Y-114743819D01*
X161470476Y-114743819D02*
X161470476Y-115743819D01*
X161946667Y-115743819D02*
X161946667Y-114743819D01*
X162280000Y-114743819D02*
X162851428Y-114743819D01*
X162565714Y-115743819D02*
X162565714Y-114743819D01*
X162244819Y-106472857D02*
X161768628Y-106806190D01*
X162244819Y-107044285D02*
X161244819Y-107044285D01*
X161244819Y-107044285D02*
X161244819Y-106663333D01*
X161244819Y-106663333D02*
X161292438Y-106568095D01*
X161292438Y-106568095D02*
X161340057Y-106520476D01*
X161340057Y-106520476D02*
X161435295Y-106472857D01*
X161435295Y-106472857D02*
X161578152Y-106472857D01*
X161578152Y-106472857D02*
X161673390Y-106520476D01*
X161673390Y-106520476D02*
X161721009Y-106568095D01*
X161721009Y-106568095D02*
X161768628Y-106663333D01*
X161768628Y-106663333D02*
X161768628Y-107044285D01*
X162244819Y-105520476D02*
X162244819Y-106091904D01*
X162244819Y-105806190D02*
X161244819Y-105806190D01*
X161244819Y-105806190D02*
X161387676Y-105901428D01*
X161387676Y-105901428D02*
X161482914Y-105996666D01*
X161482914Y-105996666D02*
X161530533Y-106091904D01*
X162244819Y-104568095D02*
X162244819Y-105139523D01*
X162244819Y-104853809D02*
X161244819Y-104853809D01*
X161244819Y-104853809D02*
X161387676Y-104949047D01*
X161387676Y-104949047D02*
X161482914Y-105044285D01*
X161482914Y-105044285D02*
X161530533Y-105139523D01*
X123192923Y-72937119D02*
X123192923Y-73746642D01*
X123192923Y-73746642D02*
X123240542Y-73841880D01*
X123240542Y-73841880D02*
X123288161Y-73889500D01*
X123288161Y-73889500D02*
X123383399Y-73937119D01*
X123383399Y-73937119D02*
X123573875Y-73937119D01*
X123573875Y-73937119D02*
X123669113Y-73889500D01*
X123669113Y-73889500D02*
X123716732Y-73841880D01*
X123716732Y-73841880D02*
X123764351Y-73746642D01*
X123764351Y-73746642D02*
X123764351Y-72937119D01*
X124669113Y-73270452D02*
X124669113Y-73937119D01*
X124431018Y-72889500D02*
X124192923Y-73603785D01*
X124192923Y-73603785D02*
X124811970Y-73603785D01*
X121021128Y-71693154D02*
X121021128Y-71931249D01*
X120783033Y-71836011D02*
X121021128Y-71931249D01*
X121021128Y-71931249D02*
X121259223Y-71836011D01*
X120878271Y-72121725D02*
X121021128Y-71931249D01*
X121021128Y-71931249D02*
X121163985Y-72121725D01*
X172804819Y-99952857D02*
X172328628Y-100286190D01*
X172804819Y-100524285D02*
X171804819Y-100524285D01*
X171804819Y-100524285D02*
X171804819Y-100143333D01*
X171804819Y-100143333D02*
X171852438Y-100048095D01*
X171852438Y-100048095D02*
X171900057Y-100000476D01*
X171900057Y-100000476D02*
X171995295Y-99952857D01*
X171995295Y-99952857D02*
X172138152Y-99952857D01*
X172138152Y-99952857D02*
X172233390Y-100000476D01*
X172233390Y-100000476D02*
X172281009Y-100048095D01*
X172281009Y-100048095D02*
X172328628Y-100143333D01*
X172328628Y-100143333D02*
X172328628Y-100524285D01*
X172804819Y-99000476D02*
X172804819Y-99571904D01*
X172804819Y-99286190D02*
X171804819Y-99286190D01*
X171804819Y-99286190D02*
X171947676Y-99381428D01*
X171947676Y-99381428D02*
X172042914Y-99476666D01*
X172042914Y-99476666D02*
X172090533Y-99571904D01*
X171804819Y-98667142D02*
X171804819Y-98048095D01*
X171804819Y-98048095D02*
X172185771Y-98381428D01*
X172185771Y-98381428D02*
X172185771Y-98238571D01*
X172185771Y-98238571D02*
X172233390Y-98143333D01*
X172233390Y-98143333D02*
X172281009Y-98095714D01*
X172281009Y-98095714D02*
X172376247Y-98048095D01*
X172376247Y-98048095D02*
X172614342Y-98048095D01*
X172614342Y-98048095D02*
X172709580Y-98095714D01*
X172709580Y-98095714D02*
X172757200Y-98143333D01*
X172757200Y-98143333D02*
X172804819Y-98238571D01*
X172804819Y-98238571D02*
X172804819Y-98524285D01*
X172804819Y-98524285D02*
X172757200Y-98619523D01*
X172757200Y-98619523D02*
X172709580Y-98667142D01*
X185678095Y-107554819D02*
X186249523Y-107554819D01*
X185963809Y-108554819D02*
X185963809Y-107554819D01*
X187106666Y-108554819D02*
X186535238Y-108554819D01*
X186820952Y-108554819D02*
X186820952Y-107554819D01*
X186820952Y-107554819D02*
X186725714Y-107697676D01*
X186725714Y-107697676D02*
X186630476Y-107792914D01*
X186630476Y-107792914D02*
X186535238Y-107840533D01*
X165300819Y-77636666D02*
X164824628Y-77969999D01*
X165300819Y-78208094D02*
X164300819Y-78208094D01*
X164300819Y-78208094D02*
X164300819Y-77827142D01*
X164300819Y-77827142D02*
X164348438Y-77731904D01*
X164348438Y-77731904D02*
X164396057Y-77684285D01*
X164396057Y-77684285D02*
X164491295Y-77636666D01*
X164491295Y-77636666D02*
X164634152Y-77636666D01*
X164634152Y-77636666D02*
X164729390Y-77684285D01*
X164729390Y-77684285D02*
X164777009Y-77731904D01*
X164777009Y-77731904D02*
X164824628Y-77827142D01*
X164824628Y-77827142D02*
X164824628Y-78208094D01*
X164634152Y-76779523D02*
X165300819Y-76779523D01*
X164253200Y-77017618D02*
X164967485Y-77255713D01*
X164967485Y-77255713D02*
X164967485Y-76636666D01*
X134819580Y-90037857D02*
X134867200Y-90085476D01*
X134867200Y-90085476D02*
X134914819Y-90228333D01*
X134914819Y-90228333D02*
X134914819Y-90323571D01*
X134914819Y-90323571D02*
X134867200Y-90466428D01*
X134867200Y-90466428D02*
X134771961Y-90561666D01*
X134771961Y-90561666D02*
X134676723Y-90609285D01*
X134676723Y-90609285D02*
X134486247Y-90656904D01*
X134486247Y-90656904D02*
X134343390Y-90656904D01*
X134343390Y-90656904D02*
X134152914Y-90609285D01*
X134152914Y-90609285D02*
X134057676Y-90561666D01*
X134057676Y-90561666D02*
X133962438Y-90466428D01*
X133962438Y-90466428D02*
X133914819Y-90323571D01*
X133914819Y-90323571D02*
X133914819Y-90228333D01*
X133914819Y-90228333D02*
X133962438Y-90085476D01*
X133962438Y-90085476D02*
X134010057Y-90037857D01*
X134010057Y-89656904D02*
X133962438Y-89609285D01*
X133962438Y-89609285D02*
X133914819Y-89514047D01*
X133914819Y-89514047D02*
X133914819Y-89275952D01*
X133914819Y-89275952D02*
X133962438Y-89180714D01*
X133962438Y-89180714D02*
X134010057Y-89133095D01*
X134010057Y-89133095D02*
X134105295Y-89085476D01*
X134105295Y-89085476D02*
X134200533Y-89085476D01*
X134200533Y-89085476D02*
X134343390Y-89133095D01*
X134343390Y-89133095D02*
X134914819Y-89704523D01*
X134914819Y-89704523D02*
X134914819Y-89085476D01*
X133914819Y-88180714D02*
X133914819Y-88656904D01*
X133914819Y-88656904D02*
X134391009Y-88704523D01*
X134391009Y-88704523D02*
X134343390Y-88656904D01*
X134343390Y-88656904D02*
X134295771Y-88561666D01*
X134295771Y-88561666D02*
X134295771Y-88323571D01*
X134295771Y-88323571D02*
X134343390Y-88228333D01*
X134343390Y-88228333D02*
X134391009Y-88180714D01*
X134391009Y-88180714D02*
X134486247Y-88133095D01*
X134486247Y-88133095D02*
X134724342Y-88133095D01*
X134724342Y-88133095D02*
X134819580Y-88180714D01*
X134819580Y-88180714D02*
X134867200Y-88228333D01*
X134867200Y-88228333D02*
X134914819Y-88323571D01*
X134914819Y-88323571D02*
X134914819Y-88561666D01*
X134914819Y-88561666D02*
X134867200Y-88656904D01*
X134867200Y-88656904D02*
X134819580Y-88704523D01*
X176509580Y-65406666D02*
X176557200Y-65454285D01*
X176557200Y-65454285D02*
X176604819Y-65597142D01*
X176604819Y-65597142D02*
X176604819Y-65692380D01*
X176604819Y-65692380D02*
X176557200Y-65835237D01*
X176557200Y-65835237D02*
X176461961Y-65930475D01*
X176461961Y-65930475D02*
X176366723Y-65978094D01*
X176366723Y-65978094D02*
X176176247Y-66025713D01*
X176176247Y-66025713D02*
X176033390Y-66025713D01*
X176033390Y-66025713D02*
X175842914Y-65978094D01*
X175842914Y-65978094D02*
X175747676Y-65930475D01*
X175747676Y-65930475D02*
X175652438Y-65835237D01*
X175652438Y-65835237D02*
X175604819Y-65692380D01*
X175604819Y-65692380D02*
X175604819Y-65597142D01*
X175604819Y-65597142D02*
X175652438Y-65454285D01*
X175652438Y-65454285D02*
X175700057Y-65406666D01*
X176604819Y-64930475D02*
X176604819Y-64739999D01*
X176604819Y-64739999D02*
X176557200Y-64644761D01*
X176557200Y-64644761D02*
X176509580Y-64597142D01*
X176509580Y-64597142D02*
X176366723Y-64501904D01*
X176366723Y-64501904D02*
X176176247Y-64454285D01*
X176176247Y-64454285D02*
X175795295Y-64454285D01*
X175795295Y-64454285D02*
X175700057Y-64501904D01*
X175700057Y-64501904D02*
X175652438Y-64549523D01*
X175652438Y-64549523D02*
X175604819Y-64644761D01*
X175604819Y-64644761D02*
X175604819Y-64835237D01*
X175604819Y-64835237D02*
X175652438Y-64930475D01*
X175652438Y-64930475D02*
X175700057Y-64978094D01*
X175700057Y-64978094D02*
X175795295Y-65025713D01*
X175795295Y-65025713D02*
X176033390Y-65025713D01*
X176033390Y-65025713D02*
X176128628Y-64978094D01*
X176128628Y-64978094D02*
X176176247Y-64930475D01*
X176176247Y-64930475D02*
X176223866Y-64835237D01*
X176223866Y-64835237D02*
X176223866Y-64644761D01*
X176223866Y-64644761D02*
X176176247Y-64549523D01*
X176176247Y-64549523D02*
X176128628Y-64501904D01*
X176128628Y-64501904D02*
X176033390Y-64454285D01*
X167579580Y-69182857D02*
X167627200Y-69230476D01*
X167627200Y-69230476D02*
X167674819Y-69373333D01*
X167674819Y-69373333D02*
X167674819Y-69468571D01*
X167674819Y-69468571D02*
X167627200Y-69611428D01*
X167627200Y-69611428D02*
X167531961Y-69706666D01*
X167531961Y-69706666D02*
X167436723Y-69754285D01*
X167436723Y-69754285D02*
X167246247Y-69801904D01*
X167246247Y-69801904D02*
X167103390Y-69801904D01*
X167103390Y-69801904D02*
X166912914Y-69754285D01*
X166912914Y-69754285D02*
X166817676Y-69706666D01*
X166817676Y-69706666D02*
X166722438Y-69611428D01*
X166722438Y-69611428D02*
X166674819Y-69468571D01*
X166674819Y-69468571D02*
X166674819Y-69373333D01*
X166674819Y-69373333D02*
X166722438Y-69230476D01*
X166722438Y-69230476D02*
X166770057Y-69182857D01*
X167674819Y-68230476D02*
X167674819Y-68801904D01*
X167674819Y-68516190D02*
X166674819Y-68516190D01*
X166674819Y-68516190D02*
X166817676Y-68611428D01*
X166817676Y-68611428D02*
X166912914Y-68706666D01*
X166912914Y-68706666D02*
X166960533Y-68801904D01*
X167674819Y-67278095D02*
X167674819Y-67849523D01*
X167674819Y-67563809D02*
X166674819Y-67563809D01*
X166674819Y-67563809D02*
X166817676Y-67659047D01*
X166817676Y-67659047D02*
X166912914Y-67754285D01*
X166912914Y-67754285D02*
X166960533Y-67849523D01*
X161499580Y-58432857D02*
X161547200Y-58480476D01*
X161547200Y-58480476D02*
X161594819Y-58623333D01*
X161594819Y-58623333D02*
X161594819Y-58718571D01*
X161594819Y-58718571D02*
X161547200Y-58861428D01*
X161547200Y-58861428D02*
X161451961Y-58956666D01*
X161451961Y-58956666D02*
X161356723Y-59004285D01*
X161356723Y-59004285D02*
X161166247Y-59051904D01*
X161166247Y-59051904D02*
X161023390Y-59051904D01*
X161023390Y-59051904D02*
X160832914Y-59004285D01*
X160832914Y-59004285D02*
X160737676Y-58956666D01*
X160737676Y-58956666D02*
X160642438Y-58861428D01*
X160642438Y-58861428D02*
X160594819Y-58718571D01*
X160594819Y-58718571D02*
X160594819Y-58623333D01*
X160594819Y-58623333D02*
X160642438Y-58480476D01*
X160642438Y-58480476D02*
X160690057Y-58432857D01*
X161594819Y-57480476D02*
X161594819Y-58051904D01*
X161594819Y-57766190D02*
X160594819Y-57766190D01*
X160594819Y-57766190D02*
X160737676Y-57861428D01*
X160737676Y-57861428D02*
X160832914Y-57956666D01*
X160832914Y-57956666D02*
X160880533Y-58051904D01*
X160594819Y-57147142D02*
X160594819Y-56528095D01*
X160594819Y-56528095D02*
X160975771Y-56861428D01*
X160975771Y-56861428D02*
X160975771Y-56718571D01*
X160975771Y-56718571D02*
X161023390Y-56623333D01*
X161023390Y-56623333D02*
X161071009Y-56575714D01*
X161071009Y-56575714D02*
X161166247Y-56528095D01*
X161166247Y-56528095D02*
X161404342Y-56528095D01*
X161404342Y-56528095D02*
X161499580Y-56575714D01*
X161499580Y-56575714D02*
X161547200Y-56623333D01*
X161547200Y-56623333D02*
X161594819Y-56718571D01*
X161594819Y-56718571D02*
X161594819Y-57004285D01*
X161594819Y-57004285D02*
X161547200Y-57099523D01*
X161547200Y-57099523D02*
X161499580Y-57147142D01*
X172377142Y-83569580D02*
X172329523Y-83617200D01*
X172329523Y-83617200D02*
X172186666Y-83664819D01*
X172186666Y-83664819D02*
X172091428Y-83664819D01*
X172091428Y-83664819D02*
X171948571Y-83617200D01*
X171948571Y-83617200D02*
X171853333Y-83521961D01*
X171853333Y-83521961D02*
X171805714Y-83426723D01*
X171805714Y-83426723D02*
X171758095Y-83236247D01*
X171758095Y-83236247D02*
X171758095Y-83093390D01*
X171758095Y-83093390D02*
X171805714Y-82902914D01*
X171805714Y-82902914D02*
X171853333Y-82807676D01*
X171853333Y-82807676D02*
X171948571Y-82712438D01*
X171948571Y-82712438D02*
X172091428Y-82664819D01*
X172091428Y-82664819D02*
X172186666Y-82664819D01*
X172186666Y-82664819D02*
X172329523Y-82712438D01*
X172329523Y-82712438D02*
X172377142Y-82760057D01*
X172758095Y-82760057D02*
X172805714Y-82712438D01*
X172805714Y-82712438D02*
X172900952Y-82664819D01*
X172900952Y-82664819D02*
X173139047Y-82664819D01*
X173139047Y-82664819D02*
X173234285Y-82712438D01*
X173234285Y-82712438D02*
X173281904Y-82760057D01*
X173281904Y-82760057D02*
X173329523Y-82855295D01*
X173329523Y-82855295D02*
X173329523Y-82950533D01*
X173329523Y-82950533D02*
X173281904Y-83093390D01*
X173281904Y-83093390D02*
X172710476Y-83664819D01*
X172710476Y-83664819D02*
X173329523Y-83664819D01*
X173662857Y-82664819D02*
X174281904Y-82664819D01*
X174281904Y-82664819D02*
X173948571Y-83045771D01*
X173948571Y-83045771D02*
X174091428Y-83045771D01*
X174091428Y-83045771D02*
X174186666Y-83093390D01*
X174186666Y-83093390D02*
X174234285Y-83141009D01*
X174234285Y-83141009D02*
X174281904Y-83236247D01*
X174281904Y-83236247D02*
X174281904Y-83474342D01*
X174281904Y-83474342D02*
X174234285Y-83569580D01*
X174234285Y-83569580D02*
X174186666Y-83617200D01*
X174186666Y-83617200D02*
X174091428Y-83664819D01*
X174091428Y-83664819D02*
X173805714Y-83664819D01*
X173805714Y-83664819D02*
X173710476Y-83617200D01*
X173710476Y-83617200D02*
X173662857Y-83569580D01*
X132578095Y-71134819D02*
X133149523Y-71134819D01*
X132863809Y-72134819D02*
X132863809Y-71134819D01*
X133482857Y-72134819D02*
X133482857Y-71134819D01*
X133482857Y-71134819D02*
X133863809Y-71134819D01*
X133863809Y-71134819D02*
X133959047Y-71182438D01*
X133959047Y-71182438D02*
X134006666Y-71230057D01*
X134006666Y-71230057D02*
X134054285Y-71325295D01*
X134054285Y-71325295D02*
X134054285Y-71468152D01*
X134054285Y-71468152D02*
X134006666Y-71563390D01*
X134006666Y-71563390D02*
X133959047Y-71611009D01*
X133959047Y-71611009D02*
X133863809Y-71658628D01*
X133863809Y-71658628D02*
X133482857Y-71658628D01*
X134387619Y-71134819D02*
X135006666Y-71134819D01*
X135006666Y-71134819D02*
X134673333Y-71515771D01*
X134673333Y-71515771D02*
X134816190Y-71515771D01*
X134816190Y-71515771D02*
X134911428Y-71563390D01*
X134911428Y-71563390D02*
X134959047Y-71611009D01*
X134959047Y-71611009D02*
X135006666Y-71706247D01*
X135006666Y-71706247D02*
X135006666Y-71944342D01*
X135006666Y-71944342D02*
X134959047Y-72039580D01*
X134959047Y-72039580D02*
X134911428Y-72087200D01*
X134911428Y-72087200D02*
X134816190Y-72134819D01*
X134816190Y-72134819D02*
X134530476Y-72134819D01*
X134530476Y-72134819D02*
X134435238Y-72087200D01*
X134435238Y-72087200D02*
X134387619Y-72039580D01*
X161419580Y-54722857D02*
X161467200Y-54770476D01*
X161467200Y-54770476D02*
X161514819Y-54913333D01*
X161514819Y-54913333D02*
X161514819Y-55008571D01*
X161514819Y-55008571D02*
X161467200Y-55151428D01*
X161467200Y-55151428D02*
X161371961Y-55246666D01*
X161371961Y-55246666D02*
X161276723Y-55294285D01*
X161276723Y-55294285D02*
X161086247Y-55341904D01*
X161086247Y-55341904D02*
X160943390Y-55341904D01*
X160943390Y-55341904D02*
X160752914Y-55294285D01*
X160752914Y-55294285D02*
X160657676Y-55246666D01*
X160657676Y-55246666D02*
X160562438Y-55151428D01*
X160562438Y-55151428D02*
X160514819Y-55008571D01*
X160514819Y-55008571D02*
X160514819Y-54913333D01*
X160514819Y-54913333D02*
X160562438Y-54770476D01*
X160562438Y-54770476D02*
X160610057Y-54722857D01*
X161514819Y-53770476D02*
X161514819Y-54341904D01*
X161514819Y-54056190D02*
X160514819Y-54056190D01*
X160514819Y-54056190D02*
X160657676Y-54151428D01*
X160657676Y-54151428D02*
X160752914Y-54246666D01*
X160752914Y-54246666D02*
X160800533Y-54341904D01*
X160848152Y-52913333D02*
X161514819Y-52913333D01*
X160467200Y-53151428D02*
X161181485Y-53389523D01*
X161181485Y-53389523D02*
X161181485Y-52770476D01*
D13*
X165832219Y-116081904D02*
X165832219Y-115510476D01*
X166832219Y-115796190D02*
X165832219Y-115796190D01*
X166832219Y-115177142D02*
X165832219Y-115177142D01*
X165832219Y-115177142D02*
X165832219Y-114796190D01*
X165832219Y-114796190D02*
X165879838Y-114700952D01*
X165879838Y-114700952D02*
X165927457Y-114653333D01*
X165927457Y-114653333D02*
X166022695Y-114605714D01*
X166022695Y-114605714D02*
X166165552Y-114605714D01*
X166165552Y-114605714D02*
X166260790Y-114653333D01*
X166260790Y-114653333D02*
X166308409Y-114700952D01*
X166308409Y-114700952D02*
X166356028Y-114796190D01*
X166356028Y-114796190D02*
X166356028Y-115177142D01*
X165832219Y-113700952D02*
X165832219Y-114177142D01*
X165832219Y-114177142D02*
X166308409Y-114224761D01*
X166308409Y-114224761D02*
X166260790Y-114177142D01*
X166260790Y-114177142D02*
X166213171Y-114081904D01*
X166213171Y-114081904D02*
X166213171Y-113843809D01*
X166213171Y-113843809D02*
X166260790Y-113748571D01*
X166260790Y-113748571D02*
X166308409Y-113700952D01*
X166308409Y-113700952D02*
X166403647Y-113653333D01*
X166403647Y-113653333D02*
X166641742Y-113653333D01*
X166641742Y-113653333D02*
X166736980Y-113700952D01*
X166736980Y-113700952D02*
X166784600Y-113748571D01*
X166784600Y-113748571D02*
X166832219Y-113843809D01*
X166832219Y-113843809D02*
X166832219Y-114081904D01*
X166832219Y-114081904D02*
X166784600Y-114177142D01*
X166784600Y-114177142D02*
X166736980Y-114224761D01*
D10*
X135914819Y-96596666D02*
X135438628Y-96929999D01*
X135914819Y-97168094D02*
X134914819Y-97168094D01*
X134914819Y-97168094D02*
X134914819Y-96787142D01*
X134914819Y-96787142D02*
X134962438Y-96691904D01*
X134962438Y-96691904D02*
X135010057Y-96644285D01*
X135010057Y-96644285D02*
X135105295Y-96596666D01*
X135105295Y-96596666D02*
X135248152Y-96596666D01*
X135248152Y-96596666D02*
X135343390Y-96644285D01*
X135343390Y-96644285D02*
X135391009Y-96691904D01*
X135391009Y-96691904D02*
X135438628Y-96787142D01*
X135438628Y-96787142D02*
X135438628Y-97168094D01*
X135343390Y-96025237D02*
X135295771Y-96120475D01*
X135295771Y-96120475D02*
X135248152Y-96168094D01*
X135248152Y-96168094D02*
X135152914Y-96215713D01*
X135152914Y-96215713D02*
X135105295Y-96215713D01*
X135105295Y-96215713D02*
X135010057Y-96168094D01*
X135010057Y-96168094D02*
X134962438Y-96120475D01*
X134962438Y-96120475D02*
X134914819Y-96025237D01*
X134914819Y-96025237D02*
X134914819Y-95834761D01*
X134914819Y-95834761D02*
X134962438Y-95739523D01*
X134962438Y-95739523D02*
X135010057Y-95691904D01*
X135010057Y-95691904D02*
X135105295Y-95644285D01*
X135105295Y-95644285D02*
X135152914Y-95644285D01*
X135152914Y-95644285D02*
X135248152Y-95691904D01*
X135248152Y-95691904D02*
X135295771Y-95739523D01*
X135295771Y-95739523D02*
X135343390Y-95834761D01*
X135343390Y-95834761D02*
X135343390Y-96025237D01*
X135343390Y-96025237D02*
X135391009Y-96120475D01*
X135391009Y-96120475D02*
X135438628Y-96168094D01*
X135438628Y-96168094D02*
X135533866Y-96215713D01*
X135533866Y-96215713D02*
X135724342Y-96215713D01*
X135724342Y-96215713D02*
X135819580Y-96168094D01*
X135819580Y-96168094D02*
X135867200Y-96120475D01*
X135867200Y-96120475D02*
X135914819Y-96025237D01*
X135914819Y-96025237D02*
X135914819Y-95834761D01*
X135914819Y-95834761D02*
X135867200Y-95739523D01*
X135867200Y-95739523D02*
X135819580Y-95691904D01*
X135819580Y-95691904D02*
X135724342Y-95644285D01*
X135724342Y-95644285D02*
X135533866Y-95644285D01*
X135533866Y-95644285D02*
X135438628Y-95691904D01*
X135438628Y-95691904D02*
X135391009Y-95739523D01*
X135391009Y-95739523D02*
X135343390Y-95834761D01*
X163268819Y-84240666D02*
X162792628Y-84573999D01*
X163268819Y-84812094D02*
X162268819Y-84812094D01*
X162268819Y-84812094D02*
X162268819Y-84431142D01*
X162268819Y-84431142D02*
X162316438Y-84335904D01*
X162316438Y-84335904D02*
X162364057Y-84288285D01*
X162364057Y-84288285D02*
X162459295Y-84240666D01*
X162459295Y-84240666D02*
X162602152Y-84240666D01*
X162602152Y-84240666D02*
X162697390Y-84288285D01*
X162697390Y-84288285D02*
X162745009Y-84335904D01*
X162745009Y-84335904D02*
X162792628Y-84431142D01*
X162792628Y-84431142D02*
X162792628Y-84812094D01*
X162268819Y-83335904D02*
X162268819Y-83812094D01*
X162268819Y-83812094D02*
X162745009Y-83859713D01*
X162745009Y-83859713D02*
X162697390Y-83812094D01*
X162697390Y-83812094D02*
X162649771Y-83716856D01*
X162649771Y-83716856D02*
X162649771Y-83478761D01*
X162649771Y-83478761D02*
X162697390Y-83383523D01*
X162697390Y-83383523D02*
X162745009Y-83335904D01*
X162745009Y-83335904D02*
X162840247Y-83288285D01*
X162840247Y-83288285D02*
X163078342Y-83288285D01*
X163078342Y-83288285D02*
X163173580Y-83335904D01*
X163173580Y-83335904D02*
X163221200Y-83383523D01*
X163221200Y-83383523D02*
X163268819Y-83478761D01*
X163268819Y-83478761D02*
X163268819Y-83716856D01*
X163268819Y-83716856D02*
X163221200Y-83812094D01*
X163221200Y-83812094D02*
X163173580Y-83859713D01*
X166364819Y-57271904D02*
X167174342Y-57271904D01*
X167174342Y-57271904D02*
X167269580Y-57224285D01*
X167269580Y-57224285D02*
X167317200Y-57176666D01*
X167317200Y-57176666D02*
X167364819Y-57081428D01*
X167364819Y-57081428D02*
X167364819Y-56890952D01*
X167364819Y-56890952D02*
X167317200Y-56795714D01*
X167317200Y-56795714D02*
X167269580Y-56748095D01*
X167269580Y-56748095D02*
X167174342Y-56700476D01*
X167174342Y-56700476D02*
X166364819Y-56700476D01*
X166460057Y-56271904D02*
X166412438Y-56224285D01*
X166412438Y-56224285D02*
X166364819Y-56129047D01*
X166364819Y-56129047D02*
X166364819Y-55890952D01*
X166364819Y-55890952D02*
X166412438Y-55795714D01*
X166412438Y-55795714D02*
X166460057Y-55748095D01*
X166460057Y-55748095D02*
X166555295Y-55700476D01*
X166555295Y-55700476D02*
X166650533Y-55700476D01*
X166650533Y-55700476D02*
X166793390Y-55748095D01*
X166793390Y-55748095D02*
X167364819Y-56319523D01*
X167364819Y-56319523D02*
X167364819Y-55700476D01*
X111556666Y-59304819D02*
X111556666Y-60019104D01*
X111556666Y-60019104D02*
X111509047Y-60161961D01*
X111509047Y-60161961D02*
X111413809Y-60257200D01*
X111413809Y-60257200D02*
X111270952Y-60304819D01*
X111270952Y-60304819D02*
X111175714Y-60304819D01*
X111937619Y-59304819D02*
X112556666Y-59304819D01*
X112556666Y-59304819D02*
X112223333Y-59685771D01*
X112223333Y-59685771D02*
X112366190Y-59685771D01*
X112366190Y-59685771D02*
X112461428Y-59733390D01*
X112461428Y-59733390D02*
X112509047Y-59781009D01*
X112509047Y-59781009D02*
X112556666Y-59876247D01*
X112556666Y-59876247D02*
X112556666Y-60114342D01*
X112556666Y-60114342D02*
X112509047Y-60209580D01*
X112509047Y-60209580D02*
X112461428Y-60257200D01*
X112461428Y-60257200D02*
X112366190Y-60304819D01*
X112366190Y-60304819D02*
X112080476Y-60304819D01*
X112080476Y-60304819D02*
X111985238Y-60257200D01*
X111985238Y-60257200D02*
X111937619Y-60209580D01*
X170643333Y-79654819D02*
X170310000Y-79178628D01*
X170071905Y-79654819D02*
X170071905Y-78654819D01*
X170071905Y-78654819D02*
X170452857Y-78654819D01*
X170452857Y-78654819D02*
X170548095Y-78702438D01*
X170548095Y-78702438D02*
X170595714Y-78750057D01*
X170595714Y-78750057D02*
X170643333Y-78845295D01*
X170643333Y-78845295D02*
X170643333Y-78988152D01*
X170643333Y-78988152D02*
X170595714Y-79083390D01*
X170595714Y-79083390D02*
X170548095Y-79131009D01*
X170548095Y-79131009D02*
X170452857Y-79178628D01*
X170452857Y-79178628D02*
X170071905Y-79178628D01*
X171500476Y-78654819D02*
X171310000Y-78654819D01*
X171310000Y-78654819D02*
X171214762Y-78702438D01*
X171214762Y-78702438D02*
X171167143Y-78750057D01*
X171167143Y-78750057D02*
X171071905Y-78892914D01*
X171071905Y-78892914D02*
X171024286Y-79083390D01*
X171024286Y-79083390D02*
X171024286Y-79464342D01*
X171024286Y-79464342D02*
X171071905Y-79559580D01*
X171071905Y-79559580D02*
X171119524Y-79607200D01*
X171119524Y-79607200D02*
X171214762Y-79654819D01*
X171214762Y-79654819D02*
X171405238Y-79654819D01*
X171405238Y-79654819D02*
X171500476Y-79607200D01*
X171500476Y-79607200D02*
X171548095Y-79559580D01*
X171548095Y-79559580D02*
X171595714Y-79464342D01*
X171595714Y-79464342D02*
X171595714Y-79226247D01*
X171595714Y-79226247D02*
X171548095Y-79131009D01*
X171548095Y-79131009D02*
X171500476Y-79083390D01*
X171500476Y-79083390D02*
X171405238Y-79035771D01*
X171405238Y-79035771D02*
X171214762Y-79035771D01*
X171214762Y-79035771D02*
X171119524Y-79083390D01*
X171119524Y-79083390D02*
X171071905Y-79131009D01*
X171071905Y-79131009D02*
X171024286Y-79226247D01*
X128079580Y-78982857D02*
X128127200Y-79030476D01*
X128127200Y-79030476D02*
X128174819Y-79173333D01*
X128174819Y-79173333D02*
X128174819Y-79268571D01*
X128174819Y-79268571D02*
X128127200Y-79411428D01*
X128127200Y-79411428D02*
X128031961Y-79506666D01*
X128031961Y-79506666D02*
X127936723Y-79554285D01*
X127936723Y-79554285D02*
X127746247Y-79601904D01*
X127746247Y-79601904D02*
X127603390Y-79601904D01*
X127603390Y-79601904D02*
X127412914Y-79554285D01*
X127412914Y-79554285D02*
X127317676Y-79506666D01*
X127317676Y-79506666D02*
X127222438Y-79411428D01*
X127222438Y-79411428D02*
X127174819Y-79268571D01*
X127174819Y-79268571D02*
X127174819Y-79173333D01*
X127174819Y-79173333D02*
X127222438Y-79030476D01*
X127222438Y-79030476D02*
X127270057Y-78982857D01*
X127270057Y-78601904D02*
X127222438Y-78554285D01*
X127222438Y-78554285D02*
X127174819Y-78459047D01*
X127174819Y-78459047D02*
X127174819Y-78220952D01*
X127174819Y-78220952D02*
X127222438Y-78125714D01*
X127222438Y-78125714D02*
X127270057Y-78078095D01*
X127270057Y-78078095D02*
X127365295Y-78030476D01*
X127365295Y-78030476D02*
X127460533Y-78030476D01*
X127460533Y-78030476D02*
X127603390Y-78078095D01*
X127603390Y-78078095D02*
X128174819Y-78649523D01*
X128174819Y-78649523D02*
X128174819Y-78030476D01*
X128174819Y-77078095D02*
X128174819Y-77649523D01*
X128174819Y-77363809D02*
X127174819Y-77363809D01*
X127174819Y-77363809D02*
X127317676Y-77459047D01*
X127317676Y-77459047D02*
X127412914Y-77554285D01*
X127412914Y-77554285D02*
X127460533Y-77649523D01*
X110489580Y-69792857D02*
X110537200Y-69840476D01*
X110537200Y-69840476D02*
X110584819Y-69983333D01*
X110584819Y-69983333D02*
X110584819Y-70078571D01*
X110584819Y-70078571D02*
X110537200Y-70221428D01*
X110537200Y-70221428D02*
X110441961Y-70316666D01*
X110441961Y-70316666D02*
X110346723Y-70364285D01*
X110346723Y-70364285D02*
X110156247Y-70411904D01*
X110156247Y-70411904D02*
X110013390Y-70411904D01*
X110013390Y-70411904D02*
X109822914Y-70364285D01*
X109822914Y-70364285D02*
X109727676Y-70316666D01*
X109727676Y-70316666D02*
X109632438Y-70221428D01*
X109632438Y-70221428D02*
X109584819Y-70078571D01*
X109584819Y-70078571D02*
X109584819Y-69983333D01*
X109584819Y-69983333D02*
X109632438Y-69840476D01*
X109632438Y-69840476D02*
X109680057Y-69792857D01*
X109680057Y-69411904D02*
X109632438Y-69364285D01*
X109632438Y-69364285D02*
X109584819Y-69269047D01*
X109584819Y-69269047D02*
X109584819Y-69030952D01*
X109584819Y-69030952D02*
X109632438Y-68935714D01*
X109632438Y-68935714D02*
X109680057Y-68888095D01*
X109680057Y-68888095D02*
X109775295Y-68840476D01*
X109775295Y-68840476D02*
X109870533Y-68840476D01*
X109870533Y-68840476D02*
X110013390Y-68888095D01*
X110013390Y-68888095D02*
X110584819Y-69459523D01*
X110584819Y-69459523D02*
X110584819Y-68840476D01*
X109584819Y-68507142D02*
X109584819Y-67840476D01*
X109584819Y-67840476D02*
X110584819Y-68269047D01*
X162760819Y-69000666D02*
X162284628Y-69333999D01*
X162760819Y-69572094D02*
X161760819Y-69572094D01*
X161760819Y-69572094D02*
X161760819Y-69191142D01*
X161760819Y-69191142D02*
X161808438Y-69095904D01*
X161808438Y-69095904D02*
X161856057Y-69048285D01*
X161856057Y-69048285D02*
X161951295Y-69000666D01*
X161951295Y-69000666D02*
X162094152Y-69000666D01*
X162094152Y-69000666D02*
X162189390Y-69048285D01*
X162189390Y-69048285D02*
X162237009Y-69095904D01*
X162237009Y-69095904D02*
X162284628Y-69191142D01*
X162284628Y-69191142D02*
X162284628Y-69572094D01*
X161760819Y-68667332D02*
X161760819Y-68048285D01*
X161760819Y-68048285D02*
X162141771Y-68381618D01*
X162141771Y-68381618D02*
X162141771Y-68238761D01*
X162141771Y-68238761D02*
X162189390Y-68143523D01*
X162189390Y-68143523D02*
X162237009Y-68095904D01*
X162237009Y-68095904D02*
X162332247Y-68048285D01*
X162332247Y-68048285D02*
X162570342Y-68048285D01*
X162570342Y-68048285D02*
X162665580Y-68095904D01*
X162665580Y-68095904D02*
X162713200Y-68143523D01*
X162713200Y-68143523D02*
X162760819Y-68238761D01*
X162760819Y-68238761D02*
X162760819Y-68524475D01*
X162760819Y-68524475D02*
X162713200Y-68619713D01*
X162713200Y-68619713D02*
X162665580Y-68667332D01*
X126959580Y-64592857D02*
X127007200Y-64640476D01*
X127007200Y-64640476D02*
X127054819Y-64783333D01*
X127054819Y-64783333D02*
X127054819Y-64878571D01*
X127054819Y-64878571D02*
X127007200Y-65021428D01*
X127007200Y-65021428D02*
X126911961Y-65116666D01*
X126911961Y-65116666D02*
X126816723Y-65164285D01*
X126816723Y-65164285D02*
X126626247Y-65211904D01*
X126626247Y-65211904D02*
X126483390Y-65211904D01*
X126483390Y-65211904D02*
X126292914Y-65164285D01*
X126292914Y-65164285D02*
X126197676Y-65116666D01*
X126197676Y-65116666D02*
X126102438Y-65021428D01*
X126102438Y-65021428D02*
X126054819Y-64878571D01*
X126054819Y-64878571D02*
X126054819Y-64783333D01*
X126054819Y-64783333D02*
X126102438Y-64640476D01*
X126102438Y-64640476D02*
X126150057Y-64592857D01*
X127054819Y-63640476D02*
X127054819Y-64211904D01*
X127054819Y-63926190D02*
X126054819Y-63926190D01*
X126054819Y-63926190D02*
X126197676Y-64021428D01*
X126197676Y-64021428D02*
X126292914Y-64116666D01*
X126292914Y-64116666D02*
X126340533Y-64211904D01*
X126483390Y-63069047D02*
X126435771Y-63164285D01*
X126435771Y-63164285D02*
X126388152Y-63211904D01*
X126388152Y-63211904D02*
X126292914Y-63259523D01*
X126292914Y-63259523D02*
X126245295Y-63259523D01*
X126245295Y-63259523D02*
X126150057Y-63211904D01*
X126150057Y-63211904D02*
X126102438Y-63164285D01*
X126102438Y-63164285D02*
X126054819Y-63069047D01*
X126054819Y-63069047D02*
X126054819Y-62878571D01*
X126054819Y-62878571D02*
X126102438Y-62783333D01*
X126102438Y-62783333D02*
X126150057Y-62735714D01*
X126150057Y-62735714D02*
X126245295Y-62688095D01*
X126245295Y-62688095D02*
X126292914Y-62688095D01*
X126292914Y-62688095D02*
X126388152Y-62735714D01*
X126388152Y-62735714D02*
X126435771Y-62783333D01*
X126435771Y-62783333D02*
X126483390Y-62878571D01*
X126483390Y-62878571D02*
X126483390Y-63069047D01*
X126483390Y-63069047D02*
X126531009Y-63164285D01*
X126531009Y-63164285D02*
X126578628Y-63211904D01*
X126578628Y-63211904D02*
X126673866Y-63259523D01*
X126673866Y-63259523D02*
X126864342Y-63259523D01*
X126864342Y-63259523D02*
X126959580Y-63211904D01*
X126959580Y-63211904D02*
X127007200Y-63164285D01*
X127007200Y-63164285D02*
X127054819Y-63069047D01*
X127054819Y-63069047D02*
X127054819Y-62878571D01*
X127054819Y-62878571D02*
X127007200Y-62783333D01*
X127007200Y-62783333D02*
X126959580Y-62735714D01*
X126959580Y-62735714D02*
X126864342Y-62688095D01*
X126864342Y-62688095D02*
X126673866Y-62688095D01*
X126673866Y-62688095D02*
X126578628Y-62735714D01*
X126578628Y-62735714D02*
X126531009Y-62783333D01*
X126531009Y-62783333D02*
X126483390Y-62878571D01*
X103506666Y-60544819D02*
X103506666Y-61259104D01*
X103506666Y-61259104D02*
X103459047Y-61401961D01*
X103459047Y-61401961D02*
X103363809Y-61497200D01*
X103363809Y-61497200D02*
X103220952Y-61544819D01*
X103220952Y-61544819D02*
X103125714Y-61544819D01*
X104459047Y-60544819D02*
X103982857Y-60544819D01*
X103982857Y-60544819D02*
X103935238Y-61021009D01*
X103935238Y-61021009D02*
X103982857Y-60973390D01*
X103982857Y-60973390D02*
X104078095Y-60925771D01*
X104078095Y-60925771D02*
X104316190Y-60925771D01*
X104316190Y-60925771D02*
X104411428Y-60973390D01*
X104411428Y-60973390D02*
X104459047Y-61021009D01*
X104459047Y-61021009D02*
X104506666Y-61116247D01*
X104506666Y-61116247D02*
X104506666Y-61354342D01*
X104506666Y-61354342D02*
X104459047Y-61449580D01*
X104459047Y-61449580D02*
X104411428Y-61497200D01*
X104411428Y-61497200D02*
X104316190Y-61544819D01*
X104316190Y-61544819D02*
X104078095Y-61544819D01*
X104078095Y-61544819D02*
X103982857Y-61497200D01*
X103982857Y-61497200D02*
X103935238Y-61449580D01*
X104594819Y-90851904D02*
X103594819Y-90851904D01*
X104071009Y-90851904D02*
X104071009Y-90280476D01*
X104594819Y-90280476D02*
X103594819Y-90280476D01*
X103594819Y-89899523D02*
X104594819Y-89232857D01*
X103594819Y-89232857D02*
X104594819Y-89899523D01*
X104023390Y-88709047D02*
X103975771Y-88804285D01*
X103975771Y-88804285D02*
X103928152Y-88851904D01*
X103928152Y-88851904D02*
X103832914Y-88899523D01*
X103832914Y-88899523D02*
X103785295Y-88899523D01*
X103785295Y-88899523D02*
X103690057Y-88851904D01*
X103690057Y-88851904D02*
X103642438Y-88804285D01*
X103642438Y-88804285D02*
X103594819Y-88709047D01*
X103594819Y-88709047D02*
X103594819Y-88518571D01*
X103594819Y-88518571D02*
X103642438Y-88423333D01*
X103642438Y-88423333D02*
X103690057Y-88375714D01*
X103690057Y-88375714D02*
X103785295Y-88328095D01*
X103785295Y-88328095D02*
X103832914Y-88328095D01*
X103832914Y-88328095D02*
X103928152Y-88375714D01*
X103928152Y-88375714D02*
X103975771Y-88423333D01*
X103975771Y-88423333D02*
X104023390Y-88518571D01*
X104023390Y-88518571D02*
X104023390Y-88709047D01*
X104023390Y-88709047D02*
X104071009Y-88804285D01*
X104071009Y-88804285D02*
X104118628Y-88851904D01*
X104118628Y-88851904D02*
X104213866Y-88899523D01*
X104213866Y-88899523D02*
X104404342Y-88899523D01*
X104404342Y-88899523D02*
X104499580Y-88851904D01*
X104499580Y-88851904D02*
X104547200Y-88804285D01*
X104547200Y-88804285D02*
X104594819Y-88709047D01*
X104594819Y-88709047D02*
X104594819Y-88518571D01*
X104594819Y-88518571D02*
X104547200Y-88423333D01*
X104547200Y-88423333D02*
X104499580Y-88375714D01*
X104499580Y-88375714D02*
X104404342Y-88328095D01*
X104404342Y-88328095D02*
X104213866Y-88328095D01*
X104213866Y-88328095D02*
X104118628Y-88375714D01*
X104118628Y-88375714D02*
X104071009Y-88423333D01*
X104071009Y-88423333D02*
X104023390Y-88518571D01*
X103594819Y-87994761D02*
X103594819Y-87375714D01*
X103594819Y-87375714D02*
X103975771Y-87709047D01*
X103975771Y-87709047D02*
X103975771Y-87566190D01*
X103975771Y-87566190D02*
X104023390Y-87470952D01*
X104023390Y-87470952D02*
X104071009Y-87423333D01*
X104071009Y-87423333D02*
X104166247Y-87375714D01*
X104166247Y-87375714D02*
X104404342Y-87375714D01*
X104404342Y-87375714D02*
X104499580Y-87423333D01*
X104499580Y-87423333D02*
X104547200Y-87470952D01*
X104547200Y-87470952D02*
X104594819Y-87566190D01*
X104594819Y-87566190D02*
X104594819Y-87851904D01*
X104594819Y-87851904D02*
X104547200Y-87947142D01*
X104547200Y-87947142D02*
X104499580Y-87994761D01*
X103594819Y-86470952D02*
X103594819Y-86947142D01*
X103594819Y-86947142D02*
X104071009Y-86994761D01*
X104071009Y-86994761D02*
X104023390Y-86947142D01*
X104023390Y-86947142D02*
X103975771Y-86851904D01*
X103975771Y-86851904D02*
X103975771Y-86613809D01*
X103975771Y-86613809D02*
X104023390Y-86518571D01*
X104023390Y-86518571D02*
X104071009Y-86470952D01*
X104071009Y-86470952D02*
X104166247Y-86423333D01*
X104166247Y-86423333D02*
X104404342Y-86423333D01*
X104404342Y-86423333D02*
X104499580Y-86470952D01*
X104499580Y-86470952D02*
X104547200Y-86518571D01*
X104547200Y-86518571D02*
X104594819Y-86613809D01*
X104594819Y-86613809D02*
X104594819Y-86851904D01*
X104594819Y-86851904D02*
X104547200Y-86947142D01*
X104547200Y-86947142D02*
X104499580Y-86994761D01*
X103594819Y-86089999D02*
X103594819Y-85423333D01*
X103594819Y-85423333D02*
X104594819Y-85851904D01*
X104594819Y-85042380D02*
X103594819Y-85042380D01*
X103594819Y-85042380D02*
X103594819Y-84804285D01*
X103594819Y-84804285D02*
X103642438Y-84661428D01*
X103642438Y-84661428D02*
X103737676Y-84566190D01*
X103737676Y-84566190D02*
X103832914Y-84518571D01*
X103832914Y-84518571D02*
X104023390Y-84470952D01*
X104023390Y-84470952D02*
X104166247Y-84470952D01*
X104166247Y-84470952D02*
X104356723Y-84518571D01*
X104356723Y-84518571D02*
X104451961Y-84566190D01*
X104451961Y-84566190D02*
X104547200Y-84661428D01*
X104547200Y-84661428D02*
X104594819Y-84804285D01*
X104594819Y-84804285D02*
X104594819Y-85042380D01*
X104023390Y-83137618D02*
X103975771Y-83232856D01*
X103975771Y-83232856D02*
X103928152Y-83280475D01*
X103928152Y-83280475D02*
X103832914Y-83328094D01*
X103832914Y-83328094D02*
X103785295Y-83328094D01*
X103785295Y-83328094D02*
X103690057Y-83280475D01*
X103690057Y-83280475D02*
X103642438Y-83232856D01*
X103642438Y-83232856D02*
X103594819Y-83137618D01*
X103594819Y-83137618D02*
X103594819Y-82947142D01*
X103594819Y-82947142D02*
X103642438Y-82851904D01*
X103642438Y-82851904D02*
X103690057Y-82804285D01*
X103690057Y-82804285D02*
X103785295Y-82756666D01*
X103785295Y-82756666D02*
X103832914Y-82756666D01*
X103832914Y-82756666D02*
X103928152Y-82804285D01*
X103928152Y-82804285D02*
X103975771Y-82851904D01*
X103975771Y-82851904D02*
X104023390Y-82947142D01*
X104023390Y-82947142D02*
X104023390Y-83137618D01*
X104023390Y-83137618D02*
X104071009Y-83232856D01*
X104071009Y-83232856D02*
X104118628Y-83280475D01*
X104118628Y-83280475D02*
X104213866Y-83328094D01*
X104213866Y-83328094D02*
X104404342Y-83328094D01*
X104404342Y-83328094D02*
X104499580Y-83280475D01*
X104499580Y-83280475D02*
X104547200Y-83232856D01*
X104547200Y-83232856D02*
X104594819Y-83137618D01*
X104594819Y-83137618D02*
X104594819Y-82947142D01*
X104594819Y-82947142D02*
X104547200Y-82851904D01*
X104547200Y-82851904D02*
X104499580Y-82804285D01*
X104499580Y-82804285D02*
X104404342Y-82756666D01*
X104404342Y-82756666D02*
X104213866Y-82756666D01*
X104213866Y-82756666D02*
X104118628Y-82804285D01*
X104118628Y-82804285D02*
X104071009Y-82851904D01*
X104071009Y-82851904D02*
X104023390Y-82947142D01*
X104213866Y-82328094D02*
X104213866Y-81566190D01*
X104071009Y-80756666D02*
X104118628Y-80613809D01*
X104118628Y-80613809D02*
X104166247Y-80566190D01*
X104166247Y-80566190D02*
X104261485Y-80518571D01*
X104261485Y-80518571D02*
X104404342Y-80518571D01*
X104404342Y-80518571D02*
X104499580Y-80566190D01*
X104499580Y-80566190D02*
X104547200Y-80613809D01*
X104547200Y-80613809D02*
X104594819Y-80709047D01*
X104594819Y-80709047D02*
X104594819Y-81089999D01*
X104594819Y-81089999D02*
X103594819Y-81089999D01*
X103594819Y-81089999D02*
X103594819Y-80756666D01*
X103594819Y-80756666D02*
X103642438Y-80661428D01*
X103642438Y-80661428D02*
X103690057Y-80613809D01*
X103690057Y-80613809D02*
X103785295Y-80566190D01*
X103785295Y-80566190D02*
X103880533Y-80566190D01*
X103880533Y-80566190D02*
X103975771Y-80613809D01*
X103975771Y-80613809D02*
X104023390Y-80661428D01*
X104023390Y-80661428D02*
X104071009Y-80756666D01*
X104071009Y-80756666D02*
X104071009Y-81089999D01*
X104594819Y-80089999D02*
X103594819Y-80089999D01*
X103594819Y-79756666D02*
X103594819Y-79185238D01*
X104594819Y-79470952D02*
X103594819Y-79470952D01*
X129188095Y-99714819D02*
X129188095Y-100524342D01*
X129188095Y-100524342D02*
X129235714Y-100619580D01*
X129235714Y-100619580D02*
X129283333Y-100667200D01*
X129283333Y-100667200D02*
X129378571Y-100714819D01*
X129378571Y-100714819D02*
X129569047Y-100714819D01*
X129569047Y-100714819D02*
X129664285Y-100667200D01*
X129664285Y-100667200D02*
X129711904Y-100619580D01*
X129711904Y-100619580D02*
X129759523Y-100524342D01*
X129759523Y-100524342D02*
X129759523Y-99714819D01*
X130140476Y-99714819D02*
X130759523Y-99714819D01*
X130759523Y-99714819D02*
X130426190Y-100095771D01*
X130426190Y-100095771D02*
X130569047Y-100095771D01*
X130569047Y-100095771D02*
X130664285Y-100143390D01*
X130664285Y-100143390D02*
X130711904Y-100191009D01*
X130711904Y-100191009D02*
X130759523Y-100286247D01*
X130759523Y-100286247D02*
X130759523Y-100524342D01*
X130759523Y-100524342D02*
X130711904Y-100619580D01*
X130711904Y-100619580D02*
X130664285Y-100667200D01*
X130664285Y-100667200D02*
X130569047Y-100714819D01*
X130569047Y-100714819D02*
X130283333Y-100714819D01*
X130283333Y-100714819D02*
X130188095Y-100667200D01*
X130188095Y-100667200D02*
X130140476Y-100619580D01*
X118690000Y-85194819D02*
X118690000Y-85432914D01*
X118451905Y-85337676D02*
X118690000Y-85432914D01*
X118690000Y-85432914D02*
X118928095Y-85337676D01*
X118547143Y-85623390D02*
X118690000Y-85432914D01*
X118690000Y-85432914D02*
X118832857Y-85623390D01*
D13*
X169392219Y-116081904D02*
X169392219Y-115510476D01*
X170392219Y-115796190D02*
X169392219Y-115796190D01*
X170392219Y-115177142D02*
X169392219Y-115177142D01*
X169392219Y-115177142D02*
X169392219Y-114796190D01*
X169392219Y-114796190D02*
X169439838Y-114700952D01*
X169439838Y-114700952D02*
X169487457Y-114653333D01*
X169487457Y-114653333D02*
X169582695Y-114605714D01*
X169582695Y-114605714D02*
X169725552Y-114605714D01*
X169725552Y-114605714D02*
X169820790Y-114653333D01*
X169820790Y-114653333D02*
X169868409Y-114700952D01*
X169868409Y-114700952D02*
X169916028Y-114796190D01*
X169916028Y-114796190D02*
X169916028Y-115177142D01*
X169392219Y-113748571D02*
X169392219Y-113939047D01*
X169392219Y-113939047D02*
X169439838Y-114034285D01*
X169439838Y-114034285D02*
X169487457Y-114081904D01*
X169487457Y-114081904D02*
X169630314Y-114177142D01*
X169630314Y-114177142D02*
X169820790Y-114224761D01*
X169820790Y-114224761D02*
X170201742Y-114224761D01*
X170201742Y-114224761D02*
X170296980Y-114177142D01*
X170296980Y-114177142D02*
X170344600Y-114129523D01*
X170344600Y-114129523D02*
X170392219Y-114034285D01*
X170392219Y-114034285D02*
X170392219Y-113843809D01*
X170392219Y-113843809D02*
X170344600Y-113748571D01*
X170344600Y-113748571D02*
X170296980Y-113700952D01*
X170296980Y-113700952D02*
X170201742Y-113653333D01*
X170201742Y-113653333D02*
X169963647Y-113653333D01*
X169963647Y-113653333D02*
X169868409Y-113700952D01*
X169868409Y-113700952D02*
X169820790Y-113748571D01*
X169820790Y-113748571D02*
X169773171Y-113843809D01*
X169773171Y-113843809D02*
X169773171Y-114034285D01*
X169773171Y-114034285D02*
X169820790Y-114129523D01*
X169820790Y-114129523D02*
X169868409Y-114177142D01*
X169868409Y-114177142D02*
X169963647Y-114224761D01*
D10*
X179034580Y-111992857D02*
X179082200Y-112040476D01*
X179082200Y-112040476D02*
X179129819Y-112183333D01*
X179129819Y-112183333D02*
X179129819Y-112278571D01*
X179129819Y-112278571D02*
X179082200Y-112421428D01*
X179082200Y-112421428D02*
X178986961Y-112516666D01*
X178986961Y-112516666D02*
X178891723Y-112564285D01*
X178891723Y-112564285D02*
X178701247Y-112611904D01*
X178701247Y-112611904D02*
X178558390Y-112611904D01*
X178558390Y-112611904D02*
X178367914Y-112564285D01*
X178367914Y-112564285D02*
X178272676Y-112516666D01*
X178272676Y-112516666D02*
X178177438Y-112421428D01*
X178177438Y-112421428D02*
X178129819Y-112278571D01*
X178129819Y-112278571D02*
X178129819Y-112183333D01*
X178129819Y-112183333D02*
X178177438Y-112040476D01*
X178177438Y-112040476D02*
X178225057Y-111992857D01*
X179129819Y-111040476D02*
X179129819Y-111611904D01*
X179129819Y-111326190D02*
X178129819Y-111326190D01*
X178129819Y-111326190D02*
X178272676Y-111421428D01*
X178272676Y-111421428D02*
X178367914Y-111516666D01*
X178367914Y-111516666D02*
X178415533Y-111611904D01*
X179129819Y-110564285D02*
X179129819Y-110373809D01*
X179129819Y-110373809D02*
X179082200Y-110278571D01*
X179082200Y-110278571D02*
X179034580Y-110230952D01*
X179034580Y-110230952D02*
X178891723Y-110135714D01*
X178891723Y-110135714D02*
X178701247Y-110088095D01*
X178701247Y-110088095D02*
X178320295Y-110088095D01*
X178320295Y-110088095D02*
X178225057Y-110135714D01*
X178225057Y-110135714D02*
X178177438Y-110183333D01*
X178177438Y-110183333D02*
X178129819Y-110278571D01*
X178129819Y-110278571D02*
X178129819Y-110469047D01*
X178129819Y-110469047D02*
X178177438Y-110564285D01*
X178177438Y-110564285D02*
X178225057Y-110611904D01*
X178225057Y-110611904D02*
X178320295Y-110659523D01*
X178320295Y-110659523D02*
X178558390Y-110659523D01*
X178558390Y-110659523D02*
X178653628Y-110611904D01*
X178653628Y-110611904D02*
X178701247Y-110564285D01*
X178701247Y-110564285D02*
X178748866Y-110469047D01*
X178748866Y-110469047D02*
X178748866Y-110278571D01*
X178748866Y-110278571D02*
X178701247Y-110183333D01*
X178701247Y-110183333D02*
X178653628Y-110135714D01*
X178653628Y-110135714D02*
X178558390Y-110088095D01*
X177329580Y-71047857D02*
X177377200Y-71095476D01*
X177377200Y-71095476D02*
X177424819Y-71238333D01*
X177424819Y-71238333D02*
X177424819Y-71333571D01*
X177424819Y-71333571D02*
X177377200Y-71476428D01*
X177377200Y-71476428D02*
X177281961Y-71571666D01*
X177281961Y-71571666D02*
X177186723Y-71619285D01*
X177186723Y-71619285D02*
X176996247Y-71666904D01*
X176996247Y-71666904D02*
X176853390Y-71666904D01*
X176853390Y-71666904D02*
X176662914Y-71619285D01*
X176662914Y-71619285D02*
X176567676Y-71571666D01*
X176567676Y-71571666D02*
X176472438Y-71476428D01*
X176472438Y-71476428D02*
X176424819Y-71333571D01*
X176424819Y-71333571D02*
X176424819Y-71238333D01*
X176424819Y-71238333D02*
X176472438Y-71095476D01*
X176472438Y-71095476D02*
X176520057Y-71047857D01*
X177424819Y-70095476D02*
X177424819Y-70666904D01*
X177424819Y-70381190D02*
X176424819Y-70381190D01*
X176424819Y-70381190D02*
X176567676Y-70476428D01*
X176567676Y-70476428D02*
X176662914Y-70571666D01*
X176662914Y-70571666D02*
X176710533Y-70666904D01*
X176424819Y-69476428D02*
X176424819Y-69381190D01*
X176424819Y-69381190D02*
X176472438Y-69285952D01*
X176472438Y-69285952D02*
X176520057Y-69238333D01*
X176520057Y-69238333D02*
X176615295Y-69190714D01*
X176615295Y-69190714D02*
X176805771Y-69143095D01*
X176805771Y-69143095D02*
X177043866Y-69143095D01*
X177043866Y-69143095D02*
X177234342Y-69190714D01*
X177234342Y-69190714D02*
X177329580Y-69238333D01*
X177329580Y-69238333D02*
X177377200Y-69285952D01*
X177377200Y-69285952D02*
X177424819Y-69381190D01*
X177424819Y-69381190D02*
X177424819Y-69476428D01*
X177424819Y-69476428D02*
X177377200Y-69571666D01*
X177377200Y-69571666D02*
X177329580Y-69619285D01*
X177329580Y-69619285D02*
X177234342Y-69666904D01*
X177234342Y-69666904D02*
X177043866Y-69714523D01*
X177043866Y-69714523D02*
X176805771Y-69714523D01*
X176805771Y-69714523D02*
X176615295Y-69666904D01*
X176615295Y-69666904D02*
X176520057Y-69619285D01*
X176520057Y-69619285D02*
X176472438Y-69571666D01*
X176472438Y-69571666D02*
X176424819Y-69476428D01*
X138430000Y-53340000D02*
X156210000Y-53340000D01*
X138430000Y-114300000D02*
X138430000Y-53340000D01*
X140970000Y-76200000D02*
X140970000Y-88900000D01*
X140970000Y-88900000D02*
X153670000Y-88900000D01*
X140970000Y-101600000D02*
X140970000Y-114300000D01*
X142240000Y-113030000D02*
X142240000Y-114300000D01*
X143510000Y-52070000D02*
X151130000Y-52070000D01*
X143510000Y-53340000D02*
X143510000Y-52070000D01*
X143510000Y-58420000D02*
X143510000Y-53340000D01*
X143510000Y-58420000D02*
X151130000Y-58420000D01*
X146050000Y-93980000D02*
X148590000Y-93980000D01*
X146050000Y-97790000D02*
X146050000Y-93980000D01*
X147421600Y-66570000D02*
X147421600Y-70570000D01*
X147421600Y-70570000D02*
X153671600Y-70570000D01*
X148590000Y-93980000D02*
X148590000Y-97790000D01*
X148590000Y-97790000D02*
X146050000Y-97790000D01*
X151130000Y-52070000D02*
X151130000Y-53340000D01*
X151130000Y-58420000D02*
X151130000Y-53340000D01*
X152400000Y-113030000D02*
X142240000Y-113030000D01*
X152400000Y-114300000D02*
X152400000Y-113030000D01*
X153421600Y-66570000D02*
X147421600Y-66570000D01*
X153670000Y-76200000D02*
X140970000Y-76200000D01*
X153670000Y-88900000D02*
X153670000Y-76200000D01*
X153670000Y-101600000D02*
X140970000Y-101600000D01*
X153670000Y-114300000D02*
X153670000Y-101600000D01*
X153671600Y-66570000D02*
X153421600Y-66570000D01*
X153671600Y-70570000D02*
X153671600Y-66570000D01*
X156210000Y-53340000D02*
X156210000Y-114300000D01*
X156210000Y-114300000D02*
X138430000Y-114300000D01*
X148218026Y-95885000D02*
G75*
G02*
X146421974Y-95885000I-898026J0D01*
G01*
X146421974Y-95885000D02*
G75*
G02*
X148218026Y-95885000I898026J0D01*
G01*
D14*
X147246000Y-86001000D02*
X146865000Y-86255000D01*
X146611000Y-86001000D01*
X146992000Y-85747000D01*
X147246000Y-86001000D01*
G36*
X147246000Y-86001000D02*
G01*
X146865000Y-86255000D01*
X146611000Y-86001000D01*
X146992000Y-85747000D01*
X147246000Y-86001000D01*
G37*
X147373000Y-85239000D02*
X146992000Y-85493000D01*
X146738000Y-85239000D01*
X147119000Y-84985000D01*
X147373000Y-85239000D01*
G36*
X147373000Y-85239000D02*
G01*
X146992000Y-85493000D01*
X146738000Y-85239000D01*
X147119000Y-84985000D01*
X147373000Y-85239000D01*
G37*
X147627000Y-86382000D02*
X147246000Y-86636000D01*
X146992000Y-86382000D01*
X147373000Y-86128000D01*
X147627000Y-86382000D01*
G36*
X147627000Y-86382000D02*
G01*
X147246000Y-86636000D01*
X146992000Y-86382000D01*
X147373000Y-86128000D01*
X147627000Y-86382000D01*
G37*
X147754000Y-85620000D02*
X147373000Y-85874000D01*
X147119000Y-85620000D01*
X147500000Y-85366000D01*
X147754000Y-85620000D01*
G36*
X147754000Y-85620000D02*
G01*
X147373000Y-85874000D01*
X147119000Y-85620000D01*
X147500000Y-85366000D01*
X147754000Y-85620000D01*
G37*
X147881000Y-84858000D02*
X147500000Y-85112000D01*
X147246000Y-84858000D01*
X147627000Y-84604000D01*
X147881000Y-84858000D01*
G36*
X147881000Y-84858000D02*
G01*
X147500000Y-85112000D01*
X147246000Y-84858000D01*
X147627000Y-84604000D01*
X147881000Y-84858000D01*
G37*
X148008000Y-86763000D02*
X147627000Y-87017000D01*
X147373000Y-86763000D01*
X147754000Y-86509000D01*
X148008000Y-86763000D01*
G36*
X148008000Y-86763000D02*
G01*
X147627000Y-87017000D01*
X147373000Y-86763000D01*
X147754000Y-86509000D01*
X148008000Y-86763000D01*
G37*
X148262000Y-85239000D02*
X147881000Y-85493000D01*
X147627000Y-85239000D01*
X148008000Y-84985000D01*
X148262000Y-85239000D01*
G36*
X148262000Y-85239000D02*
G01*
X147881000Y-85493000D01*
X147627000Y-85239000D01*
X148008000Y-84985000D01*
X148262000Y-85239000D01*
G37*
X148389000Y-84477000D02*
X148008000Y-84731000D01*
X147754000Y-84477000D01*
X148135000Y-84223000D01*
X148389000Y-84477000D01*
G36*
X148389000Y-84477000D02*
G01*
X148008000Y-84731000D01*
X147754000Y-84477000D01*
X148135000Y-84223000D01*
X148389000Y-84477000D01*
G37*
D15*
X170957500Y-65497742D02*
X170957500Y-65972258D01*
X172002500Y-65497742D02*
X172002500Y-65972258D01*
D16*
X111450000Y-73930000D02*
X111450000Y-73770000D01*
X112870000Y-72600000D02*
X113230000Y-72600000D01*
X112870000Y-75100000D02*
X113230000Y-75100000D01*
X114650000Y-73930000D02*
X114650000Y-73770000D01*
D13*
X112000000Y-76050000D02*
G75*
G02*
X111800000Y-76050000I-100000J0D01*
G01*
X111800000Y-76050000D02*
G75*
G02*
X112000000Y-76050000I100000J0D01*
G01*
D15*
X168175000Y-74348748D02*
X168175000Y-74871252D01*
X169645000Y-74348748D02*
X169645000Y-74871252D01*
X166355500Y-98123742D02*
X166355500Y-98598258D01*
X167400500Y-98123742D02*
X167400500Y-98598258D01*
X168175000Y-86540748D02*
X168175000Y-87063252D01*
X169645000Y-86540748D02*
X169645000Y-87063252D01*
X173470000Y-61695580D02*
X173470000Y-61414420D01*
X174490000Y-61695580D02*
X174490000Y-61414420D01*
X136867500Y-93742258D02*
X136867500Y-93267742D01*
X137912500Y-93742258D02*
X137912500Y-93267742D01*
X163095000Y-74348748D02*
X163095000Y-74871252D01*
X164565000Y-74348748D02*
X164565000Y-74871252D01*
X196790000Y-59630000D02*
X198120000Y-59630000D01*
X196790000Y-60960000D02*
X196790000Y-59630000D01*
X196790000Y-62230000D02*
X196790000Y-110550000D01*
X196790000Y-62230000D02*
X199450000Y-62230000D01*
X196790000Y-110550000D02*
X199450000Y-110550000D01*
X199450000Y-62230000D02*
X199450000Y-110550000D01*
X124310000Y-60394420D02*
X124310000Y-60675580D01*
X125330000Y-60394420D02*
X125330000Y-60675580D01*
D14*
X176375000Y-84820000D02*
X176375000Y-85120000D01*
X176375000Y-86095000D02*
X176675000Y-86420000D01*
X176675000Y-84820000D02*
X176375000Y-84820000D01*
X176675000Y-86420000D02*
X176675000Y-86820000D01*
X178525000Y-84820000D02*
X178825000Y-84820000D01*
X178550000Y-86420000D02*
X178825000Y-86420000D01*
X178825000Y-84820000D02*
X178825000Y-85045000D01*
X178825000Y-86420000D02*
X178825000Y-86170000D01*
D15*
X128875000Y-53575000D02*
X126925000Y-53575000D01*
X128875000Y-53575000D02*
X130825000Y-53575000D01*
X128875000Y-58695000D02*
X126925000Y-58695000D01*
X128875000Y-58695000D02*
X130825000Y-58695000D01*
X126175000Y-53670000D02*
X125935000Y-53340000D01*
X126415000Y-53340000D01*
X126175000Y-53670000D01*
G36*
X126175000Y-53670000D02*
G01*
X125935000Y-53340000D01*
X126415000Y-53340000D01*
X126175000Y-53670000D01*
G37*
X127090000Y-72065580D02*
X127090000Y-71784420D01*
X128110000Y-72065580D02*
X128110000Y-71784420D01*
X127605000Y-65898748D02*
X127605000Y-66421252D01*
X129075000Y-65898748D02*
X129075000Y-66421252D01*
X194810000Y-110210580D02*
X194810000Y-109929420D01*
X195830000Y-110210580D02*
X195830000Y-109929420D01*
X177760000Y-90904420D02*
X177760000Y-91185580D01*
X178780000Y-90904420D02*
X178780000Y-91185580D01*
X176397500Y-80077742D02*
X176397500Y-80552258D01*
X177442500Y-80077742D02*
X177442500Y-80552258D01*
X171480000Y-86655580D02*
X171480000Y-86374420D01*
X172500000Y-86655580D02*
X172500000Y-86374420D01*
X163237500Y-61022258D02*
X163237500Y-60547742D01*
X164282500Y-61022258D02*
X164282500Y-60547742D01*
X132930000Y-84494420D02*
X132930000Y-84775580D01*
X133950000Y-84494420D02*
X133950000Y-84775580D01*
X122690000Y-69034420D02*
X122690000Y-69315580D01*
X123710000Y-69034420D02*
X123710000Y-69315580D01*
D14*
X180780000Y-96290000D02*
X180780000Y-63270000D01*
X183320000Y-60730000D02*
X190940000Y-60730000D01*
X183320000Y-98830000D02*
X190940000Y-98830000D01*
X193480000Y-96290000D02*
X193480000Y-63270000D01*
D15*
X163840000Y-112770000D02*
X163840000Y-109680000D01*
X158290000Y-111225462D02*
G75*
G02*
X163840000Y-109680170I2990000J462D01*
G01*
X163840000Y-112769830D02*
G75*
G02*
X158290000Y-111224538I-2560000J1544830D01*
G01*
X163780000Y-111225000D02*
G75*
G02*
X158780000Y-111225000I-2500000J0D01*
G01*
X158780000Y-111225000D02*
G75*
G02*
X163780000Y-111225000I2500000J0D01*
G01*
X159477500Y-104712742D02*
X159477500Y-105187258D01*
X160522500Y-104712742D02*
X160522500Y-105187258D01*
D17*
X121833928Y-71361400D02*
X121833928Y-72027388D01*
X121833928Y-74937212D02*
X121833928Y-75603200D01*
X121833928Y-75603200D02*
X122499916Y-75603200D01*
X122499916Y-71361400D02*
X121833928Y-71361400D01*
X125409740Y-75603200D02*
X126075728Y-75603200D01*
X126075728Y-71361400D02*
X125409740Y-71361400D01*
X126075728Y-72027388D02*
X126075728Y-71361400D01*
X126075728Y-75603200D02*
X126075728Y-74937212D01*
D18*
G36*
X123150156Y-70929600D02*
G01*
X122769156Y-70929600D01*
X122769156Y-70675600D01*
X123150156Y-70675600D01*
X123150156Y-70929600D01*
G37*
G36*
X125140500Y-76289000D02*
G01*
X124759500Y-76289000D01*
X124759500Y-76035000D01*
X125140500Y-76035000D01*
X125140500Y-76289000D01*
G37*
D15*
X169987500Y-101392258D02*
X169987500Y-100917742D01*
X171032500Y-101392258D02*
X171032500Y-100917742D01*
X180800000Y-115680000D02*
X180800000Y-110440000D01*
X188510000Y-110430000D02*
X183230000Y-110430000D01*
X188610000Y-115710000D02*
X183250000Y-115710000D01*
X191040000Y-115680000D02*
X191040000Y-110440000D01*
X163307500Y-80310258D02*
X163307500Y-79835742D01*
X164352500Y-80310258D02*
X164352500Y-79835742D01*
X135380000Y-89535580D02*
X135380000Y-89254420D01*
X136400000Y-89535580D02*
X136400000Y-89254420D01*
X175590000Y-61695580D02*
X175590000Y-61414420D01*
X176610000Y-61695580D02*
X176610000Y-61414420D01*
X168215000Y-69163748D02*
X168215000Y-69686252D01*
X169685000Y-69163748D02*
X169685000Y-69686252D01*
X159040000Y-59025580D02*
X159040000Y-58744420D01*
X160060000Y-59025580D02*
X160060000Y-58744420D01*
X174780000Y-82194420D02*
X174780000Y-82475580D01*
X175800000Y-82194420D02*
X175800000Y-82475580D01*
X159040000Y-54555580D02*
X159040000Y-54274420D01*
X160060000Y-54555580D02*
X160060000Y-54274420D01*
X134887500Y-93762258D02*
X134887500Y-93287742D01*
X135932500Y-93762258D02*
X135932500Y-93287742D01*
X163307500Y-86787258D02*
X163307500Y-86312742D01*
X164352500Y-86787258D02*
X164352500Y-86312742D01*
D10*
X167927500Y-53805000D02*
X167927500Y-57955000D01*
X167927500Y-53805000D02*
X168485000Y-53805000D01*
X167927500Y-57955000D02*
X168485000Y-57955000D01*
X176877500Y-53805000D02*
X176320000Y-53805000D01*
X176877500Y-53805000D02*
X176877500Y-57955000D01*
X176877500Y-57955000D02*
X176320000Y-57955000D01*
D15*
X176732500Y-53482500D02*
X176402500Y-53242500D01*
X176732500Y-53002500D01*
X176732500Y-53482500D01*
G36*
X176732500Y-53482500D02*
G01*
X176402500Y-53242500D01*
X176732500Y-53002500D01*
X176732500Y-53482500D01*
G37*
D14*
X109800000Y-52150000D02*
X109800000Y-52650000D01*
X109800000Y-52150000D02*
X110300000Y-52150000D01*
X109800000Y-58150000D02*
X109800000Y-57650000D01*
X109800000Y-58150000D02*
X110300000Y-58150000D01*
X125000000Y-52150000D02*
X124500000Y-52150000D01*
X125000000Y-52150000D02*
X125000000Y-52650000D01*
X125000000Y-58150000D02*
X124500000Y-58150000D01*
X125000000Y-58150000D02*
X125000000Y-57650000D01*
D15*
X168387500Y-79907742D02*
X168387500Y-80382258D01*
X169432500Y-79907742D02*
X169432500Y-80382258D01*
X127090000Y-75515580D02*
X127090000Y-75234420D01*
X128110000Y-75515580D02*
X128110000Y-75234420D01*
X111410000Y-70074420D02*
X111410000Y-70355580D01*
X112430000Y-70074420D02*
X112430000Y-70355580D01*
X163307500Y-68913742D02*
X163307500Y-69388258D01*
X164352500Y-68913742D02*
X164352500Y-69388258D01*
X124290000Y-66109420D02*
X124290000Y-66390580D01*
X125310000Y-66109420D02*
X125310000Y-66390580D01*
X105350000Y-59630000D02*
X106680000Y-59630000D01*
X105350000Y-60960000D02*
X105350000Y-59630000D01*
X105350000Y-62230000D02*
X105350000Y-110550000D01*
X105350000Y-62230000D02*
X108010000Y-62230000D01*
X105350000Y-110550000D02*
X108010000Y-110550000D01*
X108010000Y-62230000D02*
X108010000Y-110550000D01*
D17*
X121416400Y-97647400D02*
X129011000Y-97647400D01*
X129011000Y-84642600D02*
X121416400Y-84642600D01*
X125518500Y-84642600D02*
G75*
G02*
X124908900Y-84642600I-304800J0D01*
G01*
D18*
G36*
X119282800Y-97050500D02*
G01*
X119028800Y-97050500D01*
X119028800Y-96669500D01*
X119282800Y-96669500D01*
X119282800Y-97050500D01*
G37*
G36*
X131398600Y-85620500D02*
G01*
X131144600Y-85620500D01*
X131144600Y-85239500D01*
X131398600Y-85239500D01*
X131398600Y-85620500D01*
G37*
D15*
X178190000Y-114765580D02*
X178190000Y-114484420D01*
X179210000Y-114765580D02*
X179210000Y-114484420D01*
X177890000Y-70545580D02*
X177890000Y-70264420D01*
X178910000Y-70545580D02*
X178910000Y-70264420D01*
D19*
X122301000Y-110820200D02*
G75*
G02*
X121539000Y-110820200I-381000J0D01*
G01*
X121539000Y-110820200D02*
G75*
G02*
X122301000Y-110820200I381000J0D01*
G01*
%LPC*%
D20*
X106420000Y-54420000D03*
D21*
X139700000Y-54610000D03*
D22*
X139700000Y-57150000D03*
X139700000Y-59690000D03*
X139700000Y-62230000D03*
X139700000Y-64770000D03*
X139700000Y-67310000D03*
X139700000Y-69850000D03*
X139700000Y-72390000D03*
X139700000Y-74930000D03*
X139700000Y-77470000D03*
X139700000Y-80010000D03*
X139700000Y-82550000D03*
X139700000Y-85090000D03*
X139700000Y-87630000D03*
X139700000Y-90170000D03*
X139700000Y-92710000D03*
X139700000Y-95250000D03*
X139700000Y-97790000D03*
X139700000Y-100330000D03*
X139700000Y-102870000D03*
X139700000Y-105410000D03*
X139700000Y-107950000D03*
X139700000Y-110490000D03*
X139700000Y-113030000D03*
X154940000Y-113030000D03*
X154940000Y-110490000D03*
X154940000Y-107950000D03*
X154940000Y-105410000D03*
X154940000Y-102870000D03*
X154940000Y-100330000D03*
X154940000Y-97790000D03*
X154940000Y-95250000D03*
X154940000Y-92710000D03*
X154940000Y-90170000D03*
X154940000Y-87630000D03*
X154940000Y-85090000D03*
X154940000Y-82550000D03*
X154940000Y-80010000D03*
X154940000Y-77470000D03*
X154940000Y-74930000D03*
X154940000Y-72390000D03*
X154940000Y-69850000D03*
X154940000Y-67310000D03*
X154940000Y-64770000D03*
X154940000Y-62230000D03*
X154940000Y-59690000D03*
X154940000Y-57150000D03*
X154940000Y-54610000D03*
X152400000Y-57150000D03*
X142240000Y-100330000D03*
X144780000Y-100330000D03*
X147320000Y-100330000D03*
X149860000Y-100330000D03*
X152400000Y-100330000D03*
D23*
X152501600Y-67580000D03*
D24*
X150501600Y-67580000D03*
X148501600Y-67580000D03*
X148501600Y-69580000D03*
X150501600Y-69580000D03*
X152501600Y-69580000D03*
D25*
X116390000Y-68430000D03*
D26*
X171480000Y-64910000D03*
X171480000Y-66560000D03*
D27*
X111900000Y-74800000D03*
X114200000Y-74800000D03*
X114200000Y-72900000D03*
X111900000Y-72900000D03*
D28*
X168910000Y-73660000D03*
X168910000Y-75560000D03*
D29*
X187918500Y-53460000D03*
D30*
X183537000Y-53460000D03*
X192300000Y-53460000D03*
D26*
X166878000Y-97536000D03*
X166878000Y-99186000D03*
D28*
X168910000Y-85852000D03*
X168910000Y-87752000D03*
D31*
X173980000Y-62330000D03*
X173980000Y-60780000D03*
D32*
X137390000Y-94330000D03*
X137390000Y-92680000D03*
D20*
X106420000Y-115380000D03*
D28*
X163830000Y-73660000D03*
X163830000Y-75560000D03*
D33*
X198120000Y-60960000D03*
D34*
X198120000Y-63500000D03*
X198120000Y-66040000D03*
X198120000Y-68580000D03*
X198120000Y-71120000D03*
X198120000Y-73660000D03*
X198120000Y-76200000D03*
X198120000Y-78740000D03*
X198120000Y-81280000D03*
X198120000Y-83820000D03*
X198120000Y-86360000D03*
X198120000Y-88900000D03*
X198120000Y-91440000D03*
X198120000Y-93980000D03*
X198120000Y-96520000D03*
X198120000Y-99060000D03*
X198120000Y-101600000D03*
X198120000Y-104140000D03*
X198120000Y-106680000D03*
X198120000Y-109220000D03*
D35*
X124820000Y-59760000D03*
X124820000Y-61310000D03*
D36*
X176950000Y-86570000D03*
X177600000Y-86570000D03*
X178250000Y-86570000D03*
X178250000Y-84670000D03*
X177600000Y-84670000D03*
X176950000Y-84670000D03*
D37*
X126400000Y-54230000D03*
X126400000Y-55500000D03*
X126400000Y-56770000D03*
X126400000Y-58040000D03*
X131350000Y-58040000D03*
X131350000Y-56770000D03*
X131350000Y-55500000D03*
X131350000Y-54230000D03*
D20*
X197860000Y-115380000D03*
D31*
X127600000Y-72700000D03*
X127600000Y-71150000D03*
D28*
X128340000Y-65210000D03*
X128340000Y-67110000D03*
D31*
X195320000Y-110845000D03*
X195320000Y-109295000D03*
D35*
X178270000Y-90270000D03*
X178270000Y-91820000D03*
D26*
X176920000Y-79490000D03*
X176920000Y-81140000D03*
D31*
X171990000Y-87290000D03*
X171990000Y-85740000D03*
D32*
X163760000Y-61610000D03*
X163760000Y-59960000D03*
D38*
X135400000Y-100400000D03*
D39*
X135400000Y-102940000D03*
X135400000Y-105480000D03*
X135400000Y-108020000D03*
X135400000Y-110560000D03*
X135400000Y-113100000D03*
D25*
X133900000Y-80650000D03*
D35*
X133440000Y-83860000D03*
X133440000Y-85410000D03*
X123200000Y-68400000D03*
X123200000Y-69950000D03*
D25*
X171490000Y-70400000D03*
D40*
X182050000Y-97560000D03*
D41*
X192210000Y-97560000D03*
X182050000Y-62000000D03*
X192210000Y-62000000D03*
D42*
X162550000Y-111225000D03*
D43*
X160010000Y-111225000D03*
D26*
X160000000Y-104125000D03*
X160000000Y-105775000D03*
D44*
X122037128Y-72487128D03*
X122037128Y-72984714D03*
X122037128Y-73482300D03*
X122037128Y-73979886D03*
X122037128Y-74477472D03*
D45*
X122959656Y-75400000D03*
X123457242Y-75400000D03*
X123954828Y-75400000D03*
X124452414Y-75400000D03*
X124950000Y-75400000D03*
D44*
X125872528Y-74477472D03*
X125872528Y-73979886D03*
X125872528Y-73482300D03*
X125872528Y-72984714D03*
X125872528Y-72487128D03*
D45*
X124950000Y-71564600D03*
X124452414Y-71564600D03*
X123954828Y-71564600D03*
X123457242Y-71564600D03*
X122959656Y-71564600D03*
D46*
X123954828Y-73482300D03*
D32*
X170510000Y-101980000D03*
X170510000Y-100330000D03*
D47*
X189710000Y-115650000D03*
D48*
X182110000Y-115670000D03*
X189670000Y-110410000D03*
X182110000Y-110410000D03*
D32*
X163830000Y-80898000D03*
X163830000Y-79248000D03*
D31*
X135890000Y-90170000D03*
X135890000Y-88620000D03*
X176100000Y-62330000D03*
X176100000Y-60780000D03*
D28*
X168950000Y-68475000D03*
X168950000Y-70375000D03*
D31*
X159550000Y-59660000D03*
X159550000Y-58110000D03*
D35*
X175290000Y-81560000D03*
X175290000Y-83110000D03*
D25*
X133900000Y-73150000D03*
D31*
X159550000Y-55190000D03*
X159550000Y-53640000D03*
D25*
X166350000Y-111240000D03*
D32*
X135410000Y-94350000D03*
X135410000Y-92700000D03*
X163830000Y-87375000D03*
X163830000Y-85725000D03*
D49*
X175895000Y-53280000D03*
X175260000Y-53280000D03*
X174625000Y-53280000D03*
X173990000Y-53280000D03*
X173355000Y-53280000D03*
X172720000Y-53280000D03*
X172085000Y-53280000D03*
X171450000Y-53280000D03*
X170815000Y-53280000D03*
X170180000Y-53280000D03*
X169545000Y-53280000D03*
X168910000Y-53280000D03*
X168910000Y-58480000D03*
X169545000Y-58480000D03*
X170180000Y-58480000D03*
X170815000Y-58480000D03*
X171450000Y-58480000D03*
X172085000Y-58480000D03*
X172720000Y-58480000D03*
X173355000Y-58480000D03*
X173990000Y-58480000D03*
X174625000Y-58480000D03*
X175260000Y-58480000D03*
X175895000Y-58480000D03*
D50*
X112400000Y-55150000D03*
D51*
X114900000Y-55150000D03*
X117400000Y-55150000D03*
X119900000Y-55150000D03*
X122400000Y-55150000D03*
D26*
X168910000Y-79320000D03*
X168910000Y-80970000D03*
D31*
X127600000Y-76150000D03*
X127600000Y-74600000D03*
D35*
X111920000Y-69440000D03*
X111920000Y-70990000D03*
D26*
X163830000Y-68326000D03*
X163830000Y-69976000D03*
D35*
X124800000Y-65475000D03*
X124800000Y-67025000D03*
D33*
X106680000Y-60960000D03*
D34*
X106680000Y-63500000D03*
X106680000Y-66040000D03*
X106680000Y-68580000D03*
X106680000Y-71120000D03*
X106680000Y-73660000D03*
X106680000Y-76200000D03*
X106680000Y-78740000D03*
X106680000Y-81280000D03*
X106680000Y-83820000D03*
X106680000Y-86360000D03*
X106680000Y-88900000D03*
X106680000Y-91440000D03*
X106680000Y-93980000D03*
X106680000Y-96520000D03*
X106680000Y-99060000D03*
X106680000Y-101600000D03*
X106680000Y-104140000D03*
X106680000Y-106680000D03*
X106680000Y-109220000D03*
D20*
X197860000Y-54310000D03*
D52*
X120527400Y-85430000D03*
X120527400Y-86700000D03*
X120527400Y-87970000D03*
X120527400Y-89240000D03*
X120527400Y-90510000D03*
X120527400Y-91780000D03*
X120527400Y-93050000D03*
X120527400Y-94320000D03*
X120527400Y-95590000D03*
X120527400Y-96860000D03*
X129900000Y-96860000D03*
X129900000Y-95590000D03*
X129900000Y-94320000D03*
X129900000Y-93050000D03*
X129900000Y-91780000D03*
X129900000Y-90510000D03*
X129900000Y-89240000D03*
X129900000Y-87970000D03*
X129900000Y-86700000D03*
X129900000Y-85430000D03*
D25*
X170030000Y-111340000D03*
D31*
X178700000Y-115400000D03*
X178700000Y-113850000D03*
X178400000Y-71180000D03*
X178400000Y-69630000D03*
%LPD*%
M02*
