G04 #@! TF.GenerationSoftware,KiCad,Pcbnew,8.0.4*
G04 #@! TF.CreationDate,2024-08-21T10:00:44-07:00*
G04 #@! TF.ProjectId,PA,50412e6b-6963-4616-945f-706362585858,rev?*
G04 #@! TF.SameCoordinates,Original*
G04 #@! TF.FileFunction,Copper,L2,Bot*
G04 #@! TF.FilePolarity,Positive*
%FSLAX46Y46*%
G04 Gerber Fmt 4.6, Leading zero omitted, Abs format (unit mm)*
G04 Created by KiCad (PCBNEW 8.0.4) date 2024-08-21 10:00:44*
%MOMM*%
%LPD*%
G01*
G04 APERTURE LIST*
G04 #@! TA.AperFunction,SMDPad,CuDef*
%ADD10R,4.000000X1.500000*%
G04 #@! TD*
G04 #@! TA.AperFunction,ComponentPad*
%ADD11R,1.500000X1.000000*%
G04 #@! TD*
G04 #@! TA.AperFunction,ComponentPad*
%ADD12O,1.500000X1.000000*%
G04 #@! TD*
G04 #@! TA.AperFunction,ComponentPad*
%ADD13C,1.524000*%
G04 #@! TD*
G04 #@! TA.AperFunction,ComponentPad*
%ADD14C,2.020000*%
G04 #@! TD*
G04 #@! TA.AperFunction,ComponentPad*
%ADD15C,2.600000*%
G04 #@! TD*
G04 #@! TA.AperFunction,ComponentPad*
%ADD16C,1.600000*%
G04 #@! TD*
G04 #@! TA.AperFunction,ViaPad*
%ADD17C,0.600000*%
G04 #@! TD*
G04 APERTURE END LIST*
D10*
X249137150Y-91440000D03*
X249137150Y-96520000D03*
D11*
X181356000Y-86360000D03*
D12*
X181356000Y-87630000D03*
X181356000Y-88900000D03*
D11*
X181356000Y-101600000D03*
D12*
X181356000Y-100330000D03*
X181356000Y-99060000D03*
D13*
X187960000Y-88900000D03*
X187960000Y-93980000D03*
X187960000Y-99060000D03*
X213360000Y-88900000D03*
X213360000Y-99060000D03*
D14*
X200660000Y-106680000D03*
X203200000Y-106680000D03*
X205740000Y-106680000D03*
X208280000Y-106680000D03*
D15*
X219710000Y-93980000D03*
X225310000Y-93980000D03*
X235700000Y-93980000D03*
X241300000Y-93980000D03*
D16*
X180340000Y-111980000D03*
X180340000Y-106680000D03*
D10*
X164882850Y-92710000D03*
X164882850Y-87630000D03*
D17*
X187960000Y-104140000D03*
X182880000Y-104140000D03*
X177800000Y-104140000D03*
X208280000Y-91440000D03*
X182880000Y-114808000D03*
X208280000Y-81280000D03*
X218440000Y-109220000D03*
X203200000Y-101600000D03*
X198120000Y-106680000D03*
X228600000Y-99060000D03*
X243840000Y-88900000D03*
X208280000Y-114808000D03*
X213360000Y-81280000D03*
X233680000Y-114808000D03*
X233680000Y-109220000D03*
X172720000Y-81280000D03*
X248920000Y-109220000D03*
X233680000Y-81280000D03*
X233680000Y-85852000D03*
X198120000Y-85852000D03*
X218440000Y-114808000D03*
X178308000Y-97028000D03*
X198120000Y-101600000D03*
X213360000Y-109220000D03*
X178308000Y-90424000D03*
X231140000Y-90424000D03*
X198120000Y-81280000D03*
X226060000Y-109220000D03*
X226060000Y-104140000D03*
X193040000Y-101600000D03*
X208280000Y-101600000D03*
X208280000Y-85852000D03*
X203200000Y-85852000D03*
X213360000Y-93980000D03*
X198120000Y-96520000D03*
X193040000Y-114808000D03*
X198120000Y-114808000D03*
X238760000Y-114808000D03*
X218440000Y-104140000D03*
X177800000Y-81280000D03*
X213360000Y-104140000D03*
X248920000Y-88900000D03*
X228600000Y-114808000D03*
X208280000Y-96520000D03*
X182880000Y-81280000D03*
X238760000Y-85852000D03*
X193040000Y-96520000D03*
X203200000Y-114808000D03*
X213360000Y-114808000D03*
X218440000Y-85852000D03*
X203200000Y-81280000D03*
X198120000Y-91440000D03*
X233680000Y-99060000D03*
X172720000Y-114808000D03*
X248920000Y-104140000D03*
X167640000Y-99060000D03*
X228600000Y-85852000D03*
X193040000Y-91440000D03*
X248920000Y-99060000D03*
X223520000Y-114808000D03*
X193040000Y-85852000D03*
X242824000Y-109220000D03*
X228600000Y-81280000D03*
X203200000Y-91440000D03*
X187960000Y-81280000D03*
X183896000Y-93980000D03*
X177800000Y-114808000D03*
X223520000Y-81280000D03*
X203200000Y-96520000D03*
X187960000Y-114808000D03*
X170688000Y-91440000D03*
X238760000Y-81280000D03*
X218440000Y-81280000D03*
X223520000Y-85852000D03*
X172720000Y-85852000D03*
X193040000Y-81280000D03*
X243840000Y-99060000D03*
G04 #@! TA.AperFunction,Conductor*
G36*
X250895039Y-76727685D02*
G01*
X250940794Y-76780489D01*
X250952000Y-76832000D01*
X250952000Y-90066000D01*
X250932315Y-90133039D01*
X250879511Y-90178794D01*
X250828000Y-90190000D01*
X249387150Y-90190000D01*
X249387150Y-92690000D01*
X250828000Y-92690000D01*
X250895039Y-92709685D01*
X250940794Y-92762489D01*
X250952000Y-92814000D01*
X250952000Y-95146000D01*
X250932315Y-95213039D01*
X250879511Y-95258794D01*
X250828000Y-95270000D01*
X249387150Y-95270000D01*
X249387150Y-97770000D01*
X250828000Y-97770000D01*
X250895039Y-97789685D01*
X250940794Y-97842489D01*
X250952000Y-97894000D01*
X250952000Y-118748000D01*
X250932315Y-118815039D01*
X250879511Y-118860794D01*
X250828000Y-118872000D01*
X163192000Y-118872000D01*
X163124961Y-118852315D01*
X163079206Y-118799511D01*
X163068000Y-118748000D01*
X163068000Y-114193713D01*
X166289500Y-114193713D01*
X166289500Y-114406286D01*
X166322753Y-114616239D01*
X166388444Y-114818414D01*
X166484951Y-115007820D01*
X166609890Y-115179786D01*
X166760213Y-115330109D01*
X166932179Y-115455048D01*
X166932181Y-115455049D01*
X166932184Y-115455051D01*
X167121588Y-115551557D01*
X167323757Y-115617246D01*
X167533713Y-115650500D01*
X167533714Y-115650500D01*
X167746286Y-115650500D01*
X167746287Y-115650500D01*
X167956243Y-115617246D01*
X168158412Y-115551557D01*
X168347816Y-115455051D01*
X168369789Y-115439086D01*
X168519786Y-115330109D01*
X168519788Y-115330106D01*
X168519792Y-115330104D01*
X168670104Y-115179792D01*
X168670106Y-115179788D01*
X168670109Y-115179786D01*
X168795048Y-115007820D01*
X168795047Y-115007820D01*
X168795051Y-115007816D01*
X168891557Y-114818412D01*
X168957246Y-114616243D01*
X168990500Y-114406287D01*
X168990500Y-114193713D01*
X243759500Y-114193713D01*
X243759500Y-114406286D01*
X243792753Y-114616239D01*
X243858444Y-114818414D01*
X243954951Y-115007820D01*
X244079890Y-115179786D01*
X244230213Y-115330109D01*
X244402179Y-115455048D01*
X244402181Y-115455049D01*
X244402184Y-115455051D01*
X244591588Y-115551557D01*
X244793757Y-115617246D01*
X245003713Y-115650500D01*
X245003714Y-115650500D01*
X245216286Y-115650500D01*
X245216287Y-115650500D01*
X245426243Y-115617246D01*
X245628412Y-115551557D01*
X245817816Y-115455051D01*
X245839789Y-115439086D01*
X245989786Y-115330109D01*
X245989788Y-115330106D01*
X245989792Y-115330104D01*
X246140104Y-115179792D01*
X246140106Y-115179788D01*
X246140109Y-115179786D01*
X246265048Y-115007820D01*
X246265047Y-115007820D01*
X246265051Y-115007816D01*
X246361557Y-114818412D01*
X246427246Y-114616243D01*
X246460500Y-114406287D01*
X246460500Y-114193713D01*
X246427246Y-113983757D01*
X246361557Y-113781588D01*
X246265051Y-113592184D01*
X246265049Y-113592181D01*
X246265048Y-113592179D01*
X246140109Y-113420213D01*
X245989786Y-113269890D01*
X245817820Y-113144951D01*
X245628414Y-113048444D01*
X245628413Y-113048443D01*
X245628412Y-113048443D01*
X245426243Y-112982754D01*
X245426241Y-112982753D01*
X245426240Y-112982753D01*
X245264957Y-112957208D01*
X245216287Y-112949500D01*
X245003713Y-112949500D01*
X244955042Y-112957208D01*
X244793760Y-112982753D01*
X244591585Y-113048444D01*
X244402179Y-113144951D01*
X244230213Y-113269890D01*
X244079890Y-113420213D01*
X243954951Y-113592179D01*
X243858444Y-113781585D01*
X243792753Y-113983760D01*
X243759500Y-114193713D01*
X168990500Y-114193713D01*
X168957246Y-113983757D01*
X168891557Y-113781588D01*
X168795051Y-113592184D01*
X168795049Y-113592181D01*
X168795048Y-113592179D01*
X168670109Y-113420213D01*
X168519786Y-113269890D01*
X168347820Y-113144951D01*
X168158414Y-113048444D01*
X168158413Y-113048443D01*
X168158412Y-113048443D01*
X167956243Y-112982754D01*
X167956241Y-112982753D01*
X167956240Y-112982753D01*
X167794957Y-112957208D01*
X167746287Y-112949500D01*
X167533713Y-112949500D01*
X167485042Y-112957208D01*
X167323760Y-112982753D01*
X167121585Y-113048444D01*
X166932179Y-113144951D01*
X166760213Y-113269890D01*
X166609890Y-113420213D01*
X166484951Y-113592179D01*
X166388444Y-113781585D01*
X166322753Y-113983760D01*
X166289500Y-114193713D01*
X163068000Y-114193713D01*
X163068000Y-111979998D01*
X179034532Y-111979998D01*
X179034532Y-111980001D01*
X179054364Y-112206686D01*
X179054366Y-112206697D01*
X179113258Y-112426488D01*
X179113261Y-112426497D01*
X179209431Y-112632732D01*
X179209432Y-112632734D01*
X179339954Y-112819141D01*
X179500858Y-112980045D01*
X179504727Y-112982754D01*
X179687266Y-113110568D01*
X179893504Y-113206739D01*
X180113308Y-113265635D01*
X180275230Y-113279801D01*
X180339998Y-113285468D01*
X180340000Y-113285468D01*
X180340002Y-113285468D01*
X180396673Y-113280509D01*
X180566692Y-113265635D01*
X180786496Y-113206739D01*
X180992734Y-113110568D01*
X181179139Y-112980047D01*
X181340047Y-112819139D01*
X181470568Y-112632734D01*
X181566739Y-112426496D01*
X181625635Y-112206692D01*
X181645468Y-111980000D01*
X181625635Y-111753308D01*
X181566739Y-111533504D01*
X181470568Y-111327266D01*
X181340047Y-111140861D01*
X181340045Y-111140858D01*
X181179141Y-110979954D01*
X180992734Y-110849432D01*
X180992732Y-110849431D01*
X180786497Y-110753261D01*
X180786488Y-110753258D01*
X180566697Y-110694366D01*
X180566693Y-110694365D01*
X180566692Y-110694365D01*
X180566691Y-110694364D01*
X180566686Y-110694364D01*
X180340002Y-110674532D01*
X180339998Y-110674532D01*
X180113313Y-110694364D01*
X180113302Y-110694366D01*
X179893511Y-110753258D01*
X179893502Y-110753261D01*
X179687267Y-110849431D01*
X179687265Y-110849432D01*
X179500858Y-110979954D01*
X179339954Y-111140858D01*
X179209432Y-111327265D01*
X179209431Y-111327267D01*
X179113261Y-111533502D01*
X179113258Y-111533511D01*
X179054366Y-111753302D01*
X179054364Y-111753313D01*
X179034532Y-111979998D01*
X163068000Y-111979998D01*
X163068000Y-106679998D01*
X179034532Y-106679998D01*
X179034532Y-106680001D01*
X179054364Y-106906686D01*
X179054366Y-106906697D01*
X179113258Y-107126488D01*
X179113261Y-107126497D01*
X179209431Y-107332732D01*
X179209432Y-107332734D01*
X179339954Y-107519141D01*
X179500858Y-107680045D01*
X179500861Y-107680047D01*
X179687266Y-107810568D01*
X179893504Y-107906739D01*
X179893509Y-107906740D01*
X179893511Y-107906741D01*
X179946415Y-107920916D01*
X180113308Y-107965635D01*
X180275230Y-107979801D01*
X180339998Y-107985468D01*
X180340000Y-107985468D01*
X180340002Y-107985468D01*
X180396673Y-107980509D01*
X180566692Y-107965635D01*
X180786496Y-107906739D01*
X180992734Y-107810568D01*
X181179139Y-107680047D01*
X181340047Y-107519139D01*
X181470568Y-107332734D01*
X181566739Y-107126496D01*
X181625635Y-106906692D01*
X181645468Y-106680000D01*
X199144829Y-106680000D01*
X199163482Y-106917020D01*
X199163482Y-106917023D01*
X199163483Y-106917025D01*
X199218987Y-107148214D01*
X199218988Y-107148216D01*
X199309972Y-107367873D01*
X199434199Y-107570592D01*
X199434202Y-107570597D01*
X199483147Y-107627904D01*
X199588612Y-107751388D01*
X199704337Y-107850226D01*
X199769402Y-107905797D01*
X199769404Y-107905798D01*
X199769405Y-107905799D01*
X199780187Y-107912406D01*
X199972126Y-108030027D01*
X200049786Y-108062194D01*
X200191786Y-108121013D01*
X200422975Y-108176517D01*
X200660000Y-108195171D01*
X200897025Y-108176517D01*
X201128214Y-108121013D01*
X201347873Y-108030027D01*
X201550595Y-107905799D01*
X201731388Y-107751388D01*
X201835710Y-107629242D01*
X201894217Y-107591049D01*
X201964084Y-107590550D01*
X202023131Y-107627904D01*
X202024290Y-107629242D01*
X202128612Y-107751388D01*
X202244337Y-107850226D01*
X202309402Y-107905797D01*
X202309404Y-107905798D01*
X202309405Y-107905799D01*
X202320187Y-107912406D01*
X202512126Y-108030027D01*
X202589786Y-108062194D01*
X202731786Y-108121013D01*
X202962975Y-108176517D01*
X203200000Y-108195171D01*
X203437025Y-108176517D01*
X203668214Y-108121013D01*
X203887873Y-108030027D01*
X204090595Y-107905799D01*
X204271388Y-107751388D01*
X204399372Y-107601536D01*
X204457877Y-107563345D01*
X204507447Y-107558998D01*
X205248871Y-106817574D01*
X205264755Y-106876853D01*
X205331898Y-106993147D01*
X205426853Y-107088102D01*
X205543147Y-107155245D01*
X205602424Y-107171128D01*
X204861145Y-107912406D01*
X205052355Y-108029580D01*
X205052358Y-108029582D01*
X205271944Y-108120537D01*
X205503057Y-108176021D01*
X205503056Y-108176021D01*
X205740000Y-108194668D01*
X205976943Y-108176021D01*
X206208055Y-108120537D01*
X206427641Y-108029582D01*
X206427644Y-108029580D01*
X206618853Y-107912406D01*
X205877575Y-107171127D01*
X205936853Y-107155245D01*
X206053147Y-107088102D01*
X206148102Y-106993147D01*
X206215245Y-106876853D01*
X206231128Y-106817575D01*
X206972406Y-107558853D01*
X206995424Y-107556129D01*
X207024574Y-107556129D01*
X207047591Y-107558853D01*
X207788871Y-106817574D01*
X207804755Y-106876853D01*
X207871898Y-106993147D01*
X207966853Y-107088102D01*
X208083147Y-107155245D01*
X208142424Y-107171128D01*
X207401145Y-107912406D01*
X207592355Y-108029580D01*
X207592358Y-108029582D01*
X207811944Y-108120537D01*
X208043057Y-108176021D01*
X208043056Y-108176021D01*
X208280000Y-108194668D01*
X208516943Y-108176021D01*
X208748055Y-108120537D01*
X208967641Y-108029582D01*
X208967644Y-108029580D01*
X209158853Y-107912406D01*
X208417575Y-107171127D01*
X208476853Y-107155245D01*
X208593147Y-107088102D01*
X208688102Y-106993147D01*
X208755245Y-106876853D01*
X208771128Y-106817575D01*
X209512406Y-107558853D01*
X209629580Y-107367644D01*
X209629582Y-107367641D01*
X209720537Y-107148055D01*
X209776021Y-106916943D01*
X209794668Y-106680000D01*
X209776021Y-106443056D01*
X209720537Y-106211944D01*
X209629582Y-105992358D01*
X209629580Y-105992355D01*
X209512406Y-105801145D01*
X208771127Y-106542423D01*
X208755245Y-106483147D01*
X208688102Y-106366853D01*
X208593147Y-106271898D01*
X208476853Y-106204755D01*
X208417574Y-106188871D01*
X209158853Y-105447592D01*
X208967644Y-105330419D01*
X208967641Y-105330417D01*
X208748055Y-105239462D01*
X208516942Y-105183978D01*
X208516943Y-105183978D01*
X208280000Y-105165331D01*
X208043056Y-105183978D01*
X207811944Y-105239462D01*
X207592366Y-105330414D01*
X207592357Y-105330419D01*
X207401145Y-105447592D01*
X208142425Y-106188871D01*
X208083147Y-106204755D01*
X207966853Y-106271898D01*
X207871898Y-106366853D01*
X207804755Y-106483147D01*
X207788871Y-106542424D01*
X207047592Y-105801145D01*
X207024573Y-105803870D01*
X206995425Y-105803870D01*
X206972406Y-105801145D01*
X206231127Y-106542423D01*
X206215245Y-106483147D01*
X206148102Y-106366853D01*
X206053147Y-106271898D01*
X205936853Y-106204755D01*
X205877574Y-106188871D01*
X206618853Y-105447592D01*
X206427644Y-105330419D01*
X206427641Y-105330417D01*
X206208055Y-105239462D01*
X205976942Y-105183978D01*
X205976943Y-105183978D01*
X205740000Y-105165331D01*
X205503056Y-105183978D01*
X205271944Y-105239462D01*
X205052366Y-105330414D01*
X205052357Y-105330419D01*
X204861145Y-105447592D01*
X205602425Y-106188871D01*
X205543147Y-106204755D01*
X205426853Y-106271898D01*
X205331898Y-106366853D01*
X205264755Y-106483147D01*
X205248871Y-106542424D01*
X204507370Y-105800923D01*
X204439347Y-105789401D01*
X204399371Y-105758461D01*
X204354807Y-105706284D01*
X204271388Y-105608612D01*
X204172548Y-105524195D01*
X204090597Y-105454202D01*
X204090592Y-105454199D01*
X203887873Y-105329972D01*
X203700383Y-105252312D01*
X203668214Y-105238987D01*
X203437025Y-105183483D01*
X203437023Y-105183482D01*
X203437020Y-105183482D01*
X203200000Y-105164829D01*
X202962979Y-105183482D01*
X202962975Y-105183483D01*
X202731786Y-105238987D01*
X202731784Y-105238987D01*
X202731783Y-105238988D01*
X202512126Y-105329972D01*
X202309407Y-105454199D01*
X202309402Y-105454202D01*
X202128612Y-105608612D01*
X202024290Y-105730757D01*
X201965783Y-105768950D01*
X201895915Y-105769448D01*
X201836869Y-105732094D01*
X201835710Y-105730757D01*
X201787429Y-105674228D01*
X201731388Y-105608612D01*
X201632548Y-105524195D01*
X201550597Y-105454202D01*
X201550592Y-105454199D01*
X201347873Y-105329972D01*
X201160383Y-105252312D01*
X201128214Y-105238987D01*
X200897025Y-105183483D01*
X200897023Y-105183482D01*
X200897020Y-105183482D01*
X200660000Y-105164829D01*
X200422979Y-105183482D01*
X200422975Y-105183483D01*
X200191786Y-105238987D01*
X200191784Y-105238987D01*
X200191783Y-105238988D01*
X199972126Y-105329972D01*
X199769407Y-105454199D01*
X199769402Y-105454202D01*
X199588612Y-105608612D01*
X199434204Y-105789401D01*
X199434199Y-105789407D01*
X199309972Y-105992126D01*
X199236295Y-106170000D01*
X199218987Y-106211786D01*
X199213773Y-106233504D01*
X199163482Y-106442979D01*
X199144829Y-106680000D01*
X181645468Y-106680000D01*
X181625635Y-106453308D01*
X181566739Y-106233504D01*
X181470568Y-106027266D01*
X181340047Y-105840861D01*
X181340045Y-105840858D01*
X181179141Y-105679954D01*
X180992734Y-105549432D01*
X180992732Y-105549431D01*
X180786497Y-105453261D01*
X180786488Y-105453258D01*
X180566697Y-105394366D01*
X180566693Y-105394365D01*
X180566692Y-105394365D01*
X180566691Y-105394364D01*
X180566686Y-105394364D01*
X180340002Y-105374532D01*
X180339998Y-105374532D01*
X180113313Y-105394364D01*
X180113302Y-105394366D01*
X179893511Y-105453258D01*
X179893502Y-105453261D01*
X179687267Y-105549431D01*
X179687265Y-105549432D01*
X179500858Y-105679954D01*
X179339954Y-105840858D01*
X179209432Y-106027265D01*
X179209431Y-106027267D01*
X179113261Y-106233502D01*
X179113258Y-106233511D01*
X179054366Y-106453302D01*
X179054364Y-106453313D01*
X179034532Y-106679998D01*
X163068000Y-106679998D01*
X163068000Y-100428543D01*
X180105499Y-100428543D01*
X180143947Y-100621828D01*
X180143949Y-100621836D01*
X180186318Y-100724124D01*
X180193787Y-100793593D01*
X180171026Y-100845884D01*
X180162203Y-100857670D01*
X180162202Y-100857671D01*
X180111908Y-100992517D01*
X180105501Y-101052116D01*
X180105501Y-101052123D01*
X180105500Y-101052135D01*
X180105500Y-102147870D01*
X180105501Y-102147876D01*
X180111908Y-102207483D01*
X180162202Y-102342328D01*
X180162206Y-102342335D01*
X180248452Y-102457544D01*
X180248455Y-102457547D01*
X180363664Y-102543793D01*
X180363671Y-102543797D01*
X180498517Y-102594091D01*
X180498516Y-102594091D01*
X180505444Y-102594835D01*
X180558127Y-102600500D01*
X182153872Y-102600499D01*
X182213483Y-102594091D01*
X182348331Y-102543796D01*
X182463546Y-102457546D01*
X182549796Y-102342331D01*
X182600091Y-102207483D01*
X182606500Y-102147873D01*
X182606499Y-101052128D01*
X182600091Y-100992517D01*
X182549796Y-100857669D01*
X182540975Y-100845886D01*
X182516558Y-100780423D01*
X182525679Y-100724128D01*
X182568051Y-100621835D01*
X182606500Y-100428541D01*
X182606500Y-100231459D01*
X182606500Y-100231456D01*
X182568052Y-100038170D01*
X182568051Y-100038169D01*
X182568051Y-100038165D01*
X182565010Y-100030824D01*
X182492635Y-99856092D01*
X182492628Y-99856079D01*
X182430728Y-99763440D01*
X182409850Y-99696763D01*
X182428334Y-99629383D01*
X182430729Y-99625657D01*
X182492189Y-99533676D01*
X182492191Y-99533673D01*
X182567569Y-99351692D01*
X182567569Y-99351690D01*
X182575862Y-99310000D01*
X181471057Y-99310000D01*
X181511775Y-99293134D01*
X181589134Y-99215775D01*
X181631000Y-99114701D01*
X181631000Y-99059997D01*
X186692677Y-99059997D01*
X186692677Y-99060002D01*
X186711929Y-99280062D01*
X186711930Y-99280070D01*
X186769104Y-99493445D01*
X186769105Y-99493447D01*
X186769106Y-99493450D01*
X186861793Y-99692218D01*
X186862466Y-99693662D01*
X186862468Y-99693666D01*
X186989170Y-99874615D01*
X186989175Y-99874621D01*
X187145378Y-100030824D01*
X187145384Y-100030829D01*
X187326333Y-100157531D01*
X187326335Y-100157532D01*
X187326338Y-100157534D01*
X187526550Y-100250894D01*
X187739932Y-100308070D01*
X187897123Y-100321822D01*
X187959998Y-100327323D01*
X187960000Y-100327323D01*
X187960002Y-100327323D01*
X188015017Y-100322509D01*
X188180068Y-100308070D01*
X188393450Y-100250894D01*
X188593662Y-100157534D01*
X188774620Y-100030826D01*
X188930826Y-99874620D01*
X189057534Y-99693662D01*
X189150894Y-99493450D01*
X189208070Y-99280068D01*
X189227323Y-99060000D01*
X189227323Y-99059997D01*
X212092677Y-99059997D01*
X212092677Y-99060002D01*
X212111929Y-99280062D01*
X212111930Y-99280070D01*
X212169104Y-99493445D01*
X212169105Y-99493447D01*
X212169106Y-99493450D01*
X212261793Y-99692218D01*
X212262466Y-99693662D01*
X212262468Y-99693666D01*
X212389170Y-99874615D01*
X212389175Y-99874621D01*
X212545378Y-100030824D01*
X212545384Y-100030829D01*
X212726333Y-100157531D01*
X212726335Y-100157532D01*
X212726338Y-100157534D01*
X212926550Y-100250894D01*
X213139932Y-100308070D01*
X213297123Y-100321822D01*
X213359998Y-100327323D01*
X213360000Y-100327323D01*
X213360002Y-100327323D01*
X213415017Y-100322509D01*
X213580068Y-100308070D01*
X213793450Y-100250894D01*
X213993662Y-100157534D01*
X214174620Y-100030826D01*
X214330826Y-99874620D01*
X214457534Y-99693662D01*
X214550894Y-99493450D01*
X214608070Y-99280068D01*
X214627323Y-99060000D01*
X214608070Y-98839932D01*
X214550894Y-98626550D01*
X214457534Y-98426339D01*
X214394180Y-98335859D01*
X214330827Y-98245381D01*
X214259253Y-98173807D01*
X214174620Y-98089174D01*
X214174616Y-98089171D01*
X214174615Y-98089170D01*
X213993666Y-97962468D01*
X213993662Y-97962466D01*
X213993660Y-97962465D01*
X213793450Y-97869106D01*
X213793447Y-97869105D01*
X213793445Y-97869104D01*
X213580070Y-97811930D01*
X213580062Y-97811929D01*
X213360002Y-97792677D01*
X213359998Y-97792677D01*
X213139937Y-97811929D01*
X213139929Y-97811930D01*
X212926554Y-97869104D01*
X212926548Y-97869107D01*
X212726340Y-97962465D01*
X212726338Y-97962466D01*
X212545377Y-98089175D01*
X212389175Y-98245377D01*
X212262466Y-98426338D01*
X212262465Y-98426340D01*
X212169107Y-98626548D01*
X212169104Y-98626554D01*
X212111930Y-98839929D01*
X212111929Y-98839937D01*
X212092677Y-99059997D01*
X189227323Y-99059997D01*
X189208070Y-98839932D01*
X189150894Y-98626550D01*
X189057534Y-98426339D01*
X188994180Y-98335859D01*
X188930827Y-98245381D01*
X188859253Y-98173807D01*
X188774620Y-98089174D01*
X188774616Y-98089171D01*
X188774615Y-98089170D01*
X188593666Y-97962468D01*
X188593662Y-97962466D01*
X188593660Y-97962465D01*
X188393450Y-97869106D01*
X188393447Y-97869105D01*
X188393445Y-97869104D01*
X188180070Y-97811930D01*
X188180062Y-97811929D01*
X187960002Y-97792677D01*
X187959998Y-97792677D01*
X187739937Y-97811929D01*
X187739929Y-97811930D01*
X187526554Y-97869104D01*
X187526548Y-97869107D01*
X187326340Y-97962465D01*
X187326338Y-97962466D01*
X187145377Y-98089175D01*
X186989175Y-98245377D01*
X186862466Y-98426338D01*
X186862465Y-98426340D01*
X186769107Y-98626548D01*
X186769104Y-98626554D01*
X186711930Y-98839929D01*
X186711929Y-98839937D01*
X186692677Y-99059997D01*
X181631000Y-99059997D01*
X181631000Y-99005299D01*
X181589134Y-98904225D01*
X181511775Y-98826866D01*
X181471057Y-98810000D01*
X181606000Y-98810000D01*
X182575862Y-98810000D01*
X182567569Y-98768309D01*
X182567569Y-98768307D01*
X182492192Y-98586328D01*
X182492185Y-98586315D01*
X182382751Y-98422537D01*
X182382748Y-98422533D01*
X182243466Y-98283251D01*
X182243462Y-98283248D01*
X182079684Y-98173814D01*
X182079671Y-98173807D01*
X181897693Y-98098430D01*
X181897681Y-98098427D01*
X181704495Y-98060000D01*
X181606000Y-98060000D01*
X181606000Y-98810000D01*
X181471057Y-98810000D01*
X181410701Y-98785000D01*
X181301299Y-98785000D01*
X181200225Y-98826866D01*
X181122866Y-98904225D01*
X181081000Y-99005299D01*
X181081000Y-99114701D01*
X181122866Y-99215775D01*
X181200225Y-99293134D01*
X181240943Y-99310000D01*
X180136138Y-99310000D01*
X180144430Y-99351690D01*
X180144430Y-99351692D01*
X180219807Y-99533671D01*
X180219814Y-99533684D01*
X180281270Y-99625659D01*
X180302148Y-99692337D01*
X180283663Y-99759717D01*
X180281271Y-99763440D01*
X180219370Y-99856082D01*
X180219364Y-99856093D01*
X180143950Y-100038160D01*
X180143947Y-100038170D01*
X180105500Y-100231456D01*
X180105500Y-100231459D01*
X180105500Y-100428541D01*
X180105500Y-100428543D01*
X180105499Y-100428543D01*
X163068000Y-100428543D01*
X163068000Y-98810000D01*
X180136138Y-98810000D01*
X181106000Y-98810000D01*
X181106000Y-98060000D01*
X181007504Y-98060000D01*
X180814318Y-98098427D01*
X180814306Y-98098430D01*
X180632328Y-98173807D01*
X180632315Y-98173814D01*
X180468537Y-98283248D01*
X180468533Y-98283251D01*
X180329251Y-98422533D01*
X180329248Y-98422537D01*
X180219814Y-98586315D01*
X180219807Y-98586328D01*
X180144430Y-98768307D01*
X180144430Y-98768309D01*
X180136138Y-98810000D01*
X163068000Y-98810000D01*
X163068000Y-97317844D01*
X246637150Y-97317844D01*
X246643551Y-97377372D01*
X246643553Y-97377379D01*
X246693795Y-97512086D01*
X246693799Y-97512093D01*
X246779959Y-97627187D01*
X246779962Y-97627190D01*
X246895056Y-97713350D01*
X246895063Y-97713354D01*
X247029770Y-97763596D01*
X247029777Y-97763598D01*
X247089305Y-97769999D01*
X247089322Y-97770000D01*
X248887150Y-97770000D01*
X248887150Y-96770000D01*
X246637150Y-96770000D01*
X246637150Y-97317844D01*
X163068000Y-97317844D01*
X163068000Y-94084000D01*
X163087685Y-94016961D01*
X163140489Y-93971206D01*
X163192000Y-93960000D01*
X164632850Y-93960000D01*
X165132850Y-93960000D01*
X166930678Y-93960000D01*
X166930694Y-93959999D01*
X166990222Y-93953598D01*
X166990229Y-93953596D01*
X167124936Y-93903354D01*
X167124943Y-93903350D01*
X167164533Y-93873713D01*
X177973500Y-93873713D01*
X177973500Y-94086286D01*
X177999287Y-94249103D01*
X178006754Y-94296243D01*
X178044837Y-94413451D01*
X178072444Y-94498414D01*
X178168951Y-94687820D01*
X178293890Y-94859786D01*
X178444213Y-95010109D01*
X178616179Y-95135048D01*
X178616181Y-95135049D01*
X178616184Y-95135051D01*
X178805588Y-95231557D01*
X179007757Y-95297246D01*
X179217713Y-95330500D01*
X179217714Y-95330500D01*
X179430286Y-95330500D01*
X179430287Y-95330500D01*
X179640243Y-95297246D01*
X179842412Y-95231557D01*
X180031816Y-95135051D01*
X180110982Y-95077534D01*
X180203786Y-95010109D01*
X180203788Y-95010106D01*
X180203792Y-95010104D01*
X180354104Y-94859792D01*
X180354106Y-94859788D01*
X180354109Y-94859786D01*
X180479048Y-94687820D01*
X180479047Y-94687820D01*
X180479051Y-94687816D01*
X180575557Y-94498412D01*
X180641246Y-94296243D01*
X180674500Y-94086287D01*
X180674500Y-93979997D01*
X186692677Y-93979997D01*
X186692677Y-93980002D01*
X186711929Y-94200062D01*
X186711930Y-94200070D01*
X186769104Y-94413445D01*
X186769105Y-94413447D01*
X186769106Y-94413450D01*
X186862466Y-94613662D01*
X186862468Y-94613666D01*
X186989170Y-94794615D01*
X186989175Y-94794621D01*
X187145378Y-94950824D01*
X187145384Y-94950829D01*
X187326333Y-95077531D01*
X187326335Y-95077532D01*
X187326338Y-95077534D01*
X187526550Y-95170894D01*
X187739932Y-95228070D01*
X187897123Y-95241822D01*
X187959998Y-95247323D01*
X187960000Y-95247323D01*
X187960002Y-95247323D01*
X188015017Y-95242509D01*
X188180068Y-95228070D01*
X188393450Y-95170894D01*
X188593662Y-95077534D01*
X188774620Y-94950826D01*
X188930826Y-94794620D01*
X189057534Y-94613662D01*
X189150894Y-94413450D01*
X189208070Y-94200068D01*
X189227323Y-93980000D01*
X189227323Y-93979995D01*
X217904451Y-93979995D01*
X217904451Y-93980004D01*
X217924616Y-94249101D01*
X217984664Y-94512188D01*
X217984666Y-94512195D01*
X218083257Y-94763398D01*
X218218185Y-94997102D01*
X218282327Y-95077533D01*
X218386442Y-95208089D01*
X218518371Y-95330500D01*
X218584259Y-95391635D01*
X218807226Y-95543651D01*
X219050359Y-95660738D01*
X219308228Y-95740280D01*
X219308229Y-95740280D01*
X219308232Y-95740281D01*
X219575063Y-95780499D01*
X219575068Y-95780499D01*
X219575071Y-95780500D01*
X219575072Y-95780500D01*
X219844928Y-95780500D01*
X219844929Y-95780500D01*
X219844936Y-95780499D01*
X220111767Y-95740281D01*
X220111768Y-95740280D01*
X220111772Y-95740280D01*
X220369641Y-95660738D01*
X220612775Y-95543651D01*
X220835741Y-95391635D01*
X221012022Y-95228070D01*
X221033557Y-95208089D01*
X221033557Y-95208087D01*
X221033561Y-95208085D01*
X221201815Y-94997102D01*
X221336743Y-94763398D01*
X221435334Y-94512195D01*
X221495383Y-94249103D01*
X221507584Y-94086286D01*
X221515549Y-93980004D01*
X221515549Y-93979995D01*
X223504451Y-93979995D01*
X223504451Y-93980004D01*
X223524616Y-94249101D01*
X223584664Y-94512188D01*
X223584666Y-94512195D01*
X223683257Y-94763398D01*
X223818185Y-94997102D01*
X223882327Y-95077533D01*
X223986442Y-95208089D01*
X224118371Y-95330500D01*
X224184259Y-95391635D01*
X224407226Y-95543651D01*
X224650359Y-95660738D01*
X224908228Y-95740280D01*
X224908229Y-95740280D01*
X224908232Y-95740281D01*
X225175063Y-95780499D01*
X225175068Y-95780499D01*
X225175071Y-95780500D01*
X225175072Y-95780500D01*
X225444928Y-95780500D01*
X225444929Y-95780500D01*
X225444936Y-95780499D01*
X225711767Y-95740281D01*
X225711768Y-95740280D01*
X225711772Y-95740280D01*
X225969641Y-95660738D01*
X226212775Y-95543651D01*
X226435741Y-95391635D01*
X226612022Y-95228070D01*
X226633557Y-95208089D01*
X226633557Y-95208087D01*
X226633561Y-95208085D01*
X226801815Y-94997102D01*
X226936743Y-94763398D01*
X227035334Y-94512195D01*
X227095383Y-94249103D01*
X227107584Y-94086286D01*
X227115549Y-93980004D01*
X227115549Y-93979995D01*
X233894451Y-93979995D01*
X233894451Y-93980004D01*
X233914616Y-94249101D01*
X233974664Y-94512188D01*
X233974666Y-94512195D01*
X234073257Y-94763398D01*
X234208185Y-94997102D01*
X234272327Y-95077533D01*
X234376442Y-95208089D01*
X234508371Y-95330500D01*
X234574259Y-95391635D01*
X234797226Y-95543651D01*
X235040359Y-95660738D01*
X235298228Y-95740280D01*
X235298229Y-95740280D01*
X235298232Y-95740281D01*
X235565063Y-95780499D01*
X235565068Y-95780499D01*
X235565071Y-95780500D01*
X235565072Y-95780500D01*
X235834928Y-95780500D01*
X235834929Y-95780500D01*
X235834936Y-95780499D01*
X236101767Y-95740281D01*
X236101768Y-95740280D01*
X236101772Y-95740280D01*
X236359641Y-95660738D01*
X236602775Y-95543651D01*
X236825741Y-95391635D01*
X237002022Y-95228070D01*
X237023557Y-95208089D01*
X237023557Y-95208087D01*
X237023561Y-95208085D01*
X237191815Y-94997102D01*
X237326743Y-94763398D01*
X237425334Y-94512195D01*
X237485383Y-94249103D01*
X237497584Y-94086286D01*
X237505549Y-93980004D01*
X237505549Y-93979995D01*
X239494451Y-93979995D01*
X239494451Y-93980004D01*
X239514616Y-94249101D01*
X239574664Y-94512188D01*
X239574666Y-94512195D01*
X239673257Y-94763398D01*
X239808185Y-94997102D01*
X239872327Y-95077533D01*
X239976442Y-95208089D01*
X240108371Y-95330500D01*
X240174259Y-95391635D01*
X240397226Y-95543651D01*
X240640359Y-95660738D01*
X240898228Y-95740280D01*
X240898229Y-95740280D01*
X240898232Y-95740281D01*
X241165063Y-95780499D01*
X241165068Y-95780499D01*
X241165071Y-95780500D01*
X241165072Y-95780500D01*
X241434928Y-95780500D01*
X241434929Y-95780500D01*
X241434936Y-95780499D01*
X241701767Y-95740281D01*
X241701768Y-95740280D01*
X241701772Y-95740280D01*
X241760532Y-95722155D01*
X246637150Y-95722155D01*
X246637150Y-96270000D01*
X248887150Y-96270000D01*
X248887150Y-95270000D01*
X247089305Y-95270000D01*
X247029777Y-95276401D01*
X247029770Y-95276403D01*
X246895063Y-95326645D01*
X246895056Y-95326649D01*
X246779962Y-95412809D01*
X246779959Y-95412812D01*
X246693799Y-95527906D01*
X246693795Y-95527913D01*
X246643553Y-95662620D01*
X246643551Y-95662627D01*
X246637150Y-95722155D01*
X241760532Y-95722155D01*
X241959641Y-95660738D01*
X242202775Y-95543651D01*
X242425741Y-95391635D01*
X242602022Y-95228070D01*
X242623557Y-95208089D01*
X242623557Y-95208087D01*
X242623561Y-95208085D01*
X242791815Y-94997102D01*
X242926743Y-94763398D01*
X243025334Y-94512195D01*
X243085383Y-94249103D01*
X243097584Y-94086286D01*
X243105549Y-93980004D01*
X243105549Y-93979995D01*
X243085383Y-93710898D01*
X243085383Y-93710897D01*
X243025334Y-93447805D01*
X242926743Y-93196602D01*
X242791815Y-92962898D01*
X242623561Y-92751915D01*
X242623560Y-92751914D01*
X242623557Y-92751910D01*
X242425741Y-92568365D01*
X242394683Y-92547190D01*
X242202775Y-92416349D01*
X242202769Y-92416346D01*
X242202768Y-92416345D01*
X242202767Y-92416344D01*
X241959643Y-92299263D01*
X241959645Y-92299263D01*
X241760530Y-92237844D01*
X246637150Y-92237844D01*
X246643551Y-92297372D01*
X246643553Y-92297379D01*
X246693795Y-92432086D01*
X246693799Y-92432093D01*
X246779959Y-92547187D01*
X246779962Y-92547190D01*
X246895056Y-92633350D01*
X246895063Y-92633354D01*
X247029770Y-92683596D01*
X247029777Y-92683598D01*
X247089305Y-92689999D01*
X247089322Y-92690000D01*
X248887150Y-92690000D01*
X248887150Y-91690000D01*
X246637150Y-91690000D01*
X246637150Y-92237844D01*
X241760530Y-92237844D01*
X241701773Y-92219720D01*
X241701767Y-92219718D01*
X241434936Y-92179500D01*
X241434929Y-92179500D01*
X241165071Y-92179500D01*
X241165063Y-92179500D01*
X240898232Y-92219718D01*
X240898226Y-92219720D01*
X240640358Y-92299262D01*
X240397230Y-92416346D01*
X240174258Y-92568365D01*
X239976442Y-92751910D01*
X239808185Y-92962898D01*
X239673258Y-93196599D01*
X239673256Y-93196603D01*
X239574666Y-93447804D01*
X239574664Y-93447811D01*
X239514616Y-93710898D01*
X239494451Y-93979995D01*
X237505549Y-93979995D01*
X237485383Y-93710898D01*
X237485383Y-93710897D01*
X237425334Y-93447805D01*
X237326743Y-93196602D01*
X237191815Y-92962898D01*
X237023561Y-92751915D01*
X237023560Y-92751914D01*
X237023557Y-92751910D01*
X236825741Y-92568365D01*
X236794683Y-92547190D01*
X236602775Y-92416349D01*
X236602769Y-92416346D01*
X236602768Y-92416345D01*
X236602767Y-92416344D01*
X236359643Y-92299263D01*
X236359645Y-92299263D01*
X236101773Y-92219720D01*
X236101767Y-92219718D01*
X235834936Y-92179500D01*
X235834929Y-92179500D01*
X235565071Y-92179500D01*
X235565063Y-92179500D01*
X235298232Y-92219718D01*
X235298226Y-92219720D01*
X235040358Y-92299262D01*
X234797230Y-92416346D01*
X234574258Y-92568365D01*
X234376442Y-92751910D01*
X234208185Y-92962898D01*
X234073258Y-93196599D01*
X234073256Y-93196603D01*
X233974666Y-93447804D01*
X233974664Y-93447811D01*
X233914616Y-93710898D01*
X233894451Y-93979995D01*
X227115549Y-93979995D01*
X227095383Y-93710898D01*
X227095383Y-93710897D01*
X227035334Y-93447805D01*
X226936743Y-93196602D01*
X226801815Y-92962898D01*
X226633561Y-92751915D01*
X226633560Y-92751914D01*
X226633557Y-92751910D01*
X226435741Y-92568365D01*
X226404683Y-92547190D01*
X226212775Y-92416349D01*
X226212769Y-92416346D01*
X226212768Y-92416345D01*
X226212767Y-92416344D01*
X225969643Y-92299263D01*
X225969645Y-92299263D01*
X225711773Y-92219720D01*
X225711767Y-92219718D01*
X225444936Y-92179500D01*
X225444929Y-92179500D01*
X225175071Y-92179500D01*
X225175063Y-92179500D01*
X224908232Y-92219718D01*
X224908226Y-92219720D01*
X224650358Y-92299262D01*
X224407230Y-92416346D01*
X224184258Y-92568365D01*
X223986442Y-92751910D01*
X223818185Y-92962898D01*
X223683258Y-93196599D01*
X223683256Y-93196603D01*
X223584666Y-93447804D01*
X223584664Y-93447811D01*
X223524616Y-93710898D01*
X223504451Y-93979995D01*
X221515549Y-93979995D01*
X221495383Y-93710898D01*
X221495383Y-93710897D01*
X221435334Y-93447805D01*
X221336743Y-93196602D01*
X221201815Y-92962898D01*
X221033561Y-92751915D01*
X221033560Y-92751914D01*
X221033557Y-92751910D01*
X220835741Y-92568365D01*
X220804683Y-92547190D01*
X220612775Y-92416349D01*
X220612769Y-92416346D01*
X220612768Y-92416345D01*
X220612767Y-92416344D01*
X220369643Y-92299263D01*
X220369645Y-92299263D01*
X220111773Y-92219720D01*
X220111767Y-92219718D01*
X219844936Y-92179500D01*
X219844929Y-92179500D01*
X219575071Y-92179500D01*
X219575063Y-92179500D01*
X219308232Y-92219718D01*
X219308226Y-92219720D01*
X219050358Y-92299262D01*
X218807230Y-92416346D01*
X218584258Y-92568365D01*
X218386442Y-92751910D01*
X218218185Y-92962898D01*
X218083258Y-93196599D01*
X218083256Y-93196603D01*
X217984666Y-93447804D01*
X217984664Y-93447811D01*
X217924616Y-93710898D01*
X217904451Y-93979995D01*
X189227323Y-93979995D01*
X189208070Y-93759932D01*
X189150894Y-93546550D01*
X189057534Y-93346339D01*
X188994180Y-93255859D01*
X188930827Y-93165381D01*
X188865654Y-93100208D01*
X188774620Y-93009174D01*
X188774616Y-93009171D01*
X188774615Y-93009170D01*
X188593666Y-92882468D01*
X188593662Y-92882466D01*
X188593660Y-92882465D01*
X188393450Y-92789106D01*
X188393447Y-92789105D01*
X188393445Y-92789104D01*
X188180070Y-92731930D01*
X188180062Y-92731929D01*
X187960002Y-92712677D01*
X187959998Y-92712677D01*
X187739937Y-92731929D01*
X187739929Y-92731930D01*
X187526554Y-92789104D01*
X187526548Y-92789107D01*
X187326340Y-92882465D01*
X187326338Y-92882466D01*
X187145377Y-93009175D01*
X186989175Y-93165377D01*
X186862466Y-93346338D01*
X186862465Y-93346340D01*
X186769107Y-93546548D01*
X186769104Y-93546554D01*
X186711930Y-93759929D01*
X186711929Y-93759937D01*
X186692677Y-93979997D01*
X180674500Y-93979997D01*
X180674500Y-93873713D01*
X180641246Y-93663757D01*
X180575557Y-93461588D01*
X180479051Y-93272184D01*
X180479049Y-93272181D01*
X180479048Y-93272179D01*
X180354109Y-93100213D01*
X180203786Y-92949890D01*
X180031820Y-92824951D01*
X179842414Y-92728444D01*
X179842413Y-92728443D01*
X179842412Y-92728443D01*
X179640243Y-92662754D01*
X179640241Y-92662753D01*
X179640240Y-92662753D01*
X179454620Y-92633354D01*
X179430287Y-92629500D01*
X179217713Y-92629500D01*
X179193380Y-92633354D01*
X179007760Y-92662753D01*
X178805585Y-92728444D01*
X178616179Y-92824951D01*
X178444213Y-92949890D01*
X178293890Y-93100213D01*
X178168951Y-93272179D01*
X178072444Y-93461585D01*
X178006753Y-93663760D01*
X177973500Y-93873713D01*
X167164533Y-93873713D01*
X167240037Y-93817190D01*
X167240040Y-93817187D01*
X167326200Y-93702093D01*
X167326204Y-93702086D01*
X167376446Y-93567379D01*
X167376448Y-93567372D01*
X167382849Y-93507844D01*
X167382850Y-93507827D01*
X167382850Y-92960000D01*
X165132850Y-92960000D01*
X165132850Y-93960000D01*
X164632850Y-93960000D01*
X164632850Y-92460000D01*
X165132850Y-92460000D01*
X167382850Y-92460000D01*
X167382850Y-91912172D01*
X167382849Y-91912155D01*
X167376448Y-91852627D01*
X167376446Y-91852620D01*
X167326204Y-91717913D01*
X167326200Y-91717906D01*
X167240040Y-91602812D01*
X167240037Y-91602809D01*
X167124943Y-91516649D01*
X167124936Y-91516645D01*
X166990229Y-91466403D01*
X166990222Y-91466401D01*
X166930694Y-91460000D01*
X165132850Y-91460000D01*
X165132850Y-92460000D01*
X164632850Y-92460000D01*
X164632850Y-91460000D01*
X163192000Y-91460000D01*
X163124961Y-91440315D01*
X163079206Y-91387511D01*
X163068000Y-91336000D01*
X163068000Y-90642155D01*
X246637150Y-90642155D01*
X246637150Y-91190000D01*
X248887150Y-91190000D01*
X248887150Y-90190000D01*
X247089305Y-90190000D01*
X247029777Y-90196401D01*
X247029770Y-90196403D01*
X246895063Y-90246645D01*
X246895056Y-90246649D01*
X246779962Y-90332809D01*
X246779959Y-90332812D01*
X246693799Y-90447906D01*
X246693795Y-90447913D01*
X246643553Y-90582620D01*
X246643551Y-90582627D01*
X246637150Y-90642155D01*
X163068000Y-90642155D01*
X163068000Y-89150000D01*
X180136138Y-89150000D01*
X180144430Y-89191690D01*
X180144430Y-89191692D01*
X180219807Y-89373671D01*
X180219814Y-89373684D01*
X180329248Y-89537462D01*
X180329251Y-89537466D01*
X180468533Y-89676748D01*
X180468537Y-89676751D01*
X180632315Y-89786185D01*
X180632328Y-89786192D01*
X180814306Y-89861569D01*
X180814318Y-89861572D01*
X181007504Y-89899999D01*
X181007508Y-89900000D01*
X181106000Y-89900000D01*
X181606000Y-89900000D01*
X181704492Y-89900000D01*
X181704495Y-89899999D01*
X181897681Y-89861572D01*
X181897693Y-89861569D01*
X182079671Y-89786192D01*
X182079684Y-89786185D01*
X182243462Y-89676751D01*
X182243466Y-89676748D01*
X182382748Y-89537466D01*
X182382751Y-89537462D01*
X182492185Y-89373684D01*
X182492192Y-89373671D01*
X182567569Y-89191692D01*
X182567569Y-89191690D01*
X182575862Y-89150000D01*
X181606000Y-89150000D01*
X181606000Y-89900000D01*
X181106000Y-89900000D01*
X181106000Y-89150000D01*
X180136138Y-89150000D01*
X163068000Y-89150000D01*
X163068000Y-89004000D01*
X163087685Y-88936961D01*
X163140489Y-88891206D01*
X163192000Y-88880000D01*
X164632850Y-88880000D01*
X165132850Y-88880000D01*
X166930678Y-88880000D01*
X166930694Y-88879999D01*
X166990222Y-88873598D01*
X166990229Y-88873596D01*
X167124936Y-88823354D01*
X167124943Y-88823350D01*
X167240037Y-88737190D01*
X167240040Y-88737187D01*
X167326200Y-88622093D01*
X167326204Y-88622086D01*
X167376446Y-88487379D01*
X167376448Y-88487372D01*
X167382849Y-88427844D01*
X167382850Y-88427827D01*
X167382850Y-87880000D01*
X165132850Y-87880000D01*
X165132850Y-88880000D01*
X164632850Y-88880000D01*
X164632850Y-87728543D01*
X180105499Y-87728543D01*
X180143947Y-87921829D01*
X180143950Y-87921839D01*
X180211691Y-88085380D01*
X180219368Y-88103914D01*
X180259885Y-88164552D01*
X180281271Y-88196559D01*
X180302148Y-88263236D01*
X180283663Y-88330616D01*
X180281271Y-88334339D01*
X180219809Y-88426325D01*
X180144430Y-88608307D01*
X180144430Y-88608309D01*
X180136138Y-88650000D01*
X181240943Y-88650000D01*
X181200225Y-88666866D01*
X181122866Y-88744225D01*
X181081000Y-88845299D01*
X181081000Y-88954701D01*
X181122866Y-89055775D01*
X181200225Y-89133134D01*
X181301299Y-89175000D01*
X181410701Y-89175000D01*
X181511775Y-89133134D01*
X181589134Y-89055775D01*
X181631000Y-88954701D01*
X181631000Y-88899997D01*
X186692677Y-88899997D01*
X186692677Y-88900002D01*
X186711929Y-89120062D01*
X186711930Y-89120070D01*
X186769104Y-89333445D01*
X186769105Y-89333447D01*
X186769106Y-89333450D01*
X186862346Y-89533405D01*
X186862466Y-89533662D01*
X186862468Y-89533666D01*
X186989170Y-89714615D01*
X186989175Y-89714621D01*
X187145378Y-89870824D01*
X187145384Y-89870829D01*
X187326333Y-89997531D01*
X187326335Y-89997532D01*
X187326338Y-89997534D01*
X187526550Y-90090894D01*
X187739932Y-90148070D01*
X187897123Y-90161822D01*
X187959998Y-90167323D01*
X187960000Y-90167323D01*
X187960002Y-90167323D01*
X188015017Y-90162509D01*
X188180068Y-90148070D01*
X188393450Y-90090894D01*
X188593662Y-89997534D01*
X188774620Y-89870826D01*
X188930826Y-89714620D01*
X189057534Y-89533662D01*
X189150894Y-89333450D01*
X189208070Y-89120068D01*
X189227323Y-88900000D01*
X189227323Y-88899999D01*
X212093179Y-88899999D01*
X212093179Y-88900000D01*
X212112424Y-89119976D01*
X212112426Y-89119986D01*
X212169575Y-89333270D01*
X212169580Y-89333284D01*
X212262898Y-89533405D01*
X212262901Y-89533411D01*
X212308258Y-89598187D01*
X212308259Y-89598188D01*
X212979000Y-88927447D01*
X212979000Y-88950160D01*
X213004964Y-89047061D01*
X213055124Y-89133940D01*
X213126060Y-89204876D01*
X213212939Y-89255036D01*
X213309840Y-89281000D01*
X213332553Y-89281000D01*
X212661810Y-89951740D01*
X212726590Y-89997099D01*
X212726592Y-89997100D01*
X212926715Y-90090419D01*
X212926729Y-90090424D01*
X213140013Y-90147573D01*
X213140023Y-90147575D01*
X213359999Y-90166821D01*
X213360001Y-90166821D01*
X213579976Y-90147575D01*
X213579986Y-90147573D01*
X213793270Y-90090424D01*
X213793284Y-90090419D01*
X213993407Y-89997100D01*
X213993417Y-89997094D01*
X214058188Y-89951741D01*
X213387448Y-89281000D01*
X213410160Y-89281000D01*
X213507061Y-89255036D01*
X213593940Y-89204876D01*
X213664876Y-89133940D01*
X213715036Y-89047061D01*
X213741000Y-88950160D01*
X213741000Y-88927447D01*
X214411741Y-89598188D01*
X214457094Y-89533417D01*
X214457100Y-89533407D01*
X214550419Y-89333284D01*
X214550424Y-89333270D01*
X214607573Y-89119986D01*
X214607575Y-89119976D01*
X214626821Y-88900000D01*
X214626821Y-88899999D01*
X214607575Y-88680023D01*
X214607573Y-88680013D01*
X214550424Y-88466729D01*
X214550420Y-88466720D01*
X214457096Y-88266586D01*
X214411741Y-88201811D01*
X214411740Y-88201810D01*
X213741000Y-88872551D01*
X213741000Y-88849840D01*
X213715036Y-88752939D01*
X213664876Y-88666060D01*
X213593940Y-88595124D01*
X213507061Y-88544964D01*
X213410160Y-88519000D01*
X213387448Y-88519000D01*
X214058188Y-87848259D01*
X214058187Y-87848258D01*
X213993411Y-87802901D01*
X213993405Y-87802898D01*
X213793284Y-87709580D01*
X213793270Y-87709575D01*
X213579986Y-87652426D01*
X213579976Y-87652424D01*
X213360001Y-87633179D01*
X213359999Y-87633179D01*
X213140023Y-87652424D01*
X213140013Y-87652426D01*
X212926729Y-87709575D01*
X212926720Y-87709579D01*
X212726590Y-87802901D01*
X212661811Y-87848258D01*
X213332553Y-88519000D01*
X213309840Y-88519000D01*
X213212939Y-88544964D01*
X213126060Y-88595124D01*
X213055124Y-88666060D01*
X213004964Y-88752939D01*
X212979000Y-88849840D01*
X212979000Y-88872552D01*
X212308258Y-88201811D01*
X212262901Y-88266590D01*
X212169579Y-88466720D01*
X212169575Y-88466729D01*
X212112426Y-88680013D01*
X212112424Y-88680023D01*
X212093179Y-88899999D01*
X189227323Y-88899999D01*
X189208070Y-88679932D01*
X189150894Y-88466550D01*
X189057534Y-88266339D01*
X188930826Y-88085380D01*
X188774620Y-87929174D01*
X188774616Y-87929171D01*
X188774615Y-87929170D01*
X188593666Y-87802468D01*
X188593662Y-87802466D01*
X188593660Y-87802465D01*
X188393450Y-87709106D01*
X188393447Y-87709105D01*
X188393445Y-87709104D01*
X188180070Y-87651930D01*
X188180062Y-87651929D01*
X187960002Y-87632677D01*
X187959998Y-87632677D01*
X187739937Y-87651929D01*
X187739929Y-87651930D01*
X187526554Y-87709104D01*
X187526548Y-87709107D01*
X187326340Y-87802465D01*
X187326338Y-87802466D01*
X187145377Y-87929175D01*
X186989175Y-88085377D01*
X186862466Y-88266338D01*
X186862465Y-88266340D01*
X186769107Y-88466548D01*
X186769104Y-88466554D01*
X186711930Y-88679929D01*
X186711929Y-88679937D01*
X186692677Y-88899997D01*
X181631000Y-88899997D01*
X181631000Y-88845299D01*
X181589134Y-88744225D01*
X181511775Y-88666866D01*
X181471057Y-88650000D01*
X182575862Y-88650000D01*
X182567569Y-88608309D01*
X182567569Y-88608307D01*
X182492192Y-88426328D01*
X182492188Y-88426321D01*
X182430728Y-88334341D01*
X182409850Y-88267663D01*
X182428334Y-88200283D01*
X182430704Y-88196595D01*
X182492632Y-88103914D01*
X182568051Y-87921835D01*
X182591795Y-87802466D01*
X182606500Y-87728543D01*
X182606500Y-87531456D01*
X182568052Y-87338170D01*
X182568051Y-87338169D01*
X182568051Y-87338165D01*
X182525680Y-87235873D01*
X182518212Y-87166407D01*
X182540977Y-87114111D01*
X182549796Y-87102331D01*
X182600091Y-86967483D01*
X182606500Y-86907873D01*
X182606499Y-85812128D01*
X182600091Y-85752517D01*
X182549796Y-85617669D01*
X182549795Y-85617668D01*
X182549793Y-85617664D01*
X182463547Y-85502455D01*
X182463544Y-85502452D01*
X182348335Y-85416206D01*
X182348328Y-85416202D01*
X182213482Y-85365908D01*
X182213483Y-85365908D01*
X182153883Y-85359501D01*
X182153881Y-85359500D01*
X182153873Y-85359500D01*
X182153864Y-85359500D01*
X180558129Y-85359500D01*
X180558123Y-85359501D01*
X180498516Y-85365908D01*
X180363671Y-85416202D01*
X180363664Y-85416206D01*
X180248455Y-85502452D01*
X180248452Y-85502455D01*
X180162206Y-85617664D01*
X180162202Y-85617671D01*
X180111908Y-85752517D01*
X180105501Y-85812116D01*
X180105501Y-85812123D01*
X180105500Y-85812135D01*
X180105500Y-86907870D01*
X180105501Y-86907876D01*
X180111908Y-86967483D01*
X180162202Y-87102328D01*
X180162206Y-87102335D01*
X180171023Y-87114113D01*
X180195440Y-87179578D01*
X180186318Y-87235874D01*
X180160500Y-87298206D01*
X180143950Y-87338164D01*
X180143948Y-87338168D01*
X180143947Y-87338171D01*
X180105500Y-87531456D01*
X180105500Y-87531459D01*
X180105500Y-87728541D01*
X180105500Y-87728543D01*
X180105499Y-87728543D01*
X164632850Y-87728543D01*
X164632850Y-87380000D01*
X165132850Y-87380000D01*
X167382850Y-87380000D01*
X167382850Y-86832172D01*
X167382849Y-86832155D01*
X167376448Y-86772627D01*
X167376446Y-86772620D01*
X167326204Y-86637913D01*
X167326200Y-86637906D01*
X167240040Y-86522812D01*
X167240037Y-86522809D01*
X167124943Y-86436649D01*
X167124936Y-86436645D01*
X166990229Y-86386403D01*
X166990222Y-86386401D01*
X166930694Y-86380000D01*
X165132850Y-86380000D01*
X165132850Y-87380000D01*
X164632850Y-87380000D01*
X164632850Y-86380000D01*
X163192000Y-86380000D01*
X163124961Y-86360315D01*
X163079206Y-86307511D01*
X163068000Y-86256000D01*
X163068000Y-81173713D01*
X166289500Y-81173713D01*
X166289500Y-81386286D01*
X166322753Y-81596239D01*
X166388444Y-81798414D01*
X166484951Y-81987820D01*
X166609890Y-82159786D01*
X166760213Y-82310109D01*
X166932179Y-82435048D01*
X166932181Y-82435049D01*
X166932184Y-82435051D01*
X167121588Y-82531557D01*
X167323757Y-82597246D01*
X167533713Y-82630500D01*
X167533714Y-82630500D01*
X167746286Y-82630500D01*
X167746287Y-82630500D01*
X167956243Y-82597246D01*
X168158412Y-82531557D01*
X168347816Y-82435051D01*
X168369789Y-82419086D01*
X168519786Y-82310109D01*
X168519788Y-82310106D01*
X168519792Y-82310104D01*
X168670104Y-82159792D01*
X168670106Y-82159788D01*
X168670109Y-82159786D01*
X168795048Y-81987820D01*
X168795047Y-81987820D01*
X168795051Y-81987816D01*
X168891557Y-81798412D01*
X168957246Y-81596243D01*
X168990500Y-81386287D01*
X168990500Y-81173713D01*
X243759500Y-81173713D01*
X243759500Y-81386286D01*
X243792753Y-81596239D01*
X243858444Y-81798414D01*
X243954951Y-81987820D01*
X244079890Y-82159786D01*
X244230213Y-82310109D01*
X244402179Y-82435048D01*
X244402181Y-82435049D01*
X244402184Y-82435051D01*
X244591588Y-82531557D01*
X244793757Y-82597246D01*
X245003713Y-82630500D01*
X245003714Y-82630500D01*
X245216286Y-82630500D01*
X245216287Y-82630500D01*
X245426243Y-82597246D01*
X245628412Y-82531557D01*
X245817816Y-82435051D01*
X245839789Y-82419086D01*
X245989786Y-82310109D01*
X245989788Y-82310106D01*
X245989792Y-82310104D01*
X246140104Y-82159792D01*
X246140106Y-82159788D01*
X246140109Y-82159786D01*
X246265048Y-81987820D01*
X246265047Y-81987820D01*
X246265051Y-81987816D01*
X246361557Y-81798412D01*
X246427246Y-81596243D01*
X246460500Y-81386287D01*
X246460500Y-81173713D01*
X246427246Y-80963757D01*
X246361557Y-80761588D01*
X246265051Y-80572184D01*
X246265049Y-80572181D01*
X246265048Y-80572179D01*
X246140109Y-80400213D01*
X245989786Y-80249890D01*
X245817820Y-80124951D01*
X245628414Y-80028444D01*
X245628413Y-80028443D01*
X245628412Y-80028443D01*
X245426243Y-79962754D01*
X245426241Y-79962753D01*
X245426240Y-79962753D01*
X245264957Y-79937208D01*
X245216287Y-79929500D01*
X245003713Y-79929500D01*
X244955042Y-79937208D01*
X244793760Y-79962753D01*
X244591585Y-80028444D01*
X244402179Y-80124951D01*
X244230213Y-80249890D01*
X244079890Y-80400213D01*
X243954951Y-80572179D01*
X243858444Y-80761585D01*
X243792753Y-80963760D01*
X243759500Y-81173713D01*
X168990500Y-81173713D01*
X168957246Y-80963757D01*
X168891557Y-80761588D01*
X168795051Y-80572184D01*
X168795049Y-80572181D01*
X168795048Y-80572179D01*
X168670109Y-80400213D01*
X168519786Y-80249890D01*
X168347820Y-80124951D01*
X168158414Y-80028444D01*
X168158413Y-80028443D01*
X168158412Y-80028443D01*
X167956243Y-79962754D01*
X167956241Y-79962753D01*
X167956240Y-79962753D01*
X167794957Y-79937208D01*
X167746287Y-79929500D01*
X167533713Y-79929500D01*
X167485042Y-79937208D01*
X167323760Y-79962753D01*
X167121585Y-80028444D01*
X166932179Y-80124951D01*
X166760213Y-80249890D01*
X166609890Y-80400213D01*
X166484951Y-80572179D01*
X166388444Y-80761585D01*
X166322753Y-80963760D01*
X166289500Y-81173713D01*
X163068000Y-81173713D01*
X163068000Y-76832000D01*
X163087685Y-76764961D01*
X163140489Y-76719206D01*
X163192000Y-76708000D01*
X250828000Y-76708000D01*
X250895039Y-76727685D01*
G37*
G04 #@! TD.AperFunction*
M02*
