G04 #@! TF.GenerationSoftware,KiCad,Pcbnew,8.0.4*
G04 #@! TF.CreationDate,2024-08-21T10:00:44-07:00*
G04 #@! TF.ProjectId,PA,50412e6b-6963-4616-945f-706362585858,rev?*
G04 #@! TF.SameCoordinates,Original*
G04 #@! TF.FileFunction,Copper,L1,Top*
G04 #@! TF.FilePolarity,Positive*
%FSLAX46Y46*%
G04 Gerber Fmt 4.6, Leading zero omitted, Abs format (unit mm)*
G04 Created by KiCad (PCBNEW 8.0.4) date 2024-08-21 10:00:44*
%MOMM*%
%LPD*%
G01*
G04 APERTURE LIST*
G04 #@! TA.AperFunction,SMDPad,CuDef*
%ADD10R,0.355600X1.028700*%
G04 #@! TD*
G04 #@! TA.AperFunction,SMDPad,CuDef*
%ADD11R,1.500000X1.800000*%
G04 #@! TD*
G04 #@! TA.AperFunction,SMDPad,CuDef*
%ADD12R,1.200000X1.200000*%
G04 #@! TD*
G04 #@! TA.AperFunction,SMDPad,CuDef*
%ADD13R,4.000000X1.500000*%
G04 #@! TD*
G04 #@! TA.AperFunction,ComponentPad*
%ADD14R,1.500000X1.000000*%
G04 #@! TD*
G04 #@! TA.AperFunction,ComponentPad*
%ADD15O,1.500000X1.000000*%
G04 #@! TD*
G04 #@! TA.AperFunction,ComponentPad*
%ADD16C,1.524000*%
G04 #@! TD*
G04 #@! TA.AperFunction,ComponentPad*
%ADD17C,2.020000*%
G04 #@! TD*
G04 #@! TA.AperFunction,ComponentPad*
%ADD18C,2.600000*%
G04 #@! TD*
G04 #@! TA.AperFunction,ComponentPad*
%ADD19C,1.600000*%
G04 #@! TD*
G04 #@! TA.AperFunction,ViaPad*
%ADD20C,0.600000*%
G04 #@! TD*
G04 #@! TA.AperFunction,Conductor*
%ADD21C,0.635000*%
G04 #@! TD*
G04 #@! TA.AperFunction,Conductor*
%ADD22C,0.200000*%
G04 #@! TD*
G04 APERTURE END LIST*
D10*
X172720000Y-92992849D03*
X172070002Y-92992849D03*
X171420000Y-92992849D03*
X170770002Y-92992849D03*
X170770002Y-96917149D03*
X171420000Y-96917149D03*
X172070002Y-96917149D03*
X172720000Y-96917149D03*
D11*
X165840000Y-106680000D03*
X169440000Y-106680000D03*
D12*
X192115000Y-106680000D03*
X194215000Y-106680000D03*
D11*
X237085000Y-106680000D03*
X240685000Y-106680000D03*
X244705000Y-106680000D03*
X248305000Y-106680000D03*
X231795000Y-106680000D03*
X228195000Y-106680000D03*
X220575000Y-106680000D03*
X224175000Y-106680000D03*
D13*
X249137150Y-93980000D03*
X249137150Y-91440000D03*
X249137150Y-96520000D03*
D14*
X181356000Y-86360000D03*
D15*
X181356000Y-87630000D03*
X181356000Y-88900000D03*
D14*
X181356000Y-101600000D03*
D15*
X181356000Y-100330000D03*
X181356000Y-99060000D03*
D16*
X187960000Y-88900000D03*
X187960000Y-93980000D03*
X187960000Y-99060000D03*
X213360000Y-88900000D03*
X213360000Y-99060000D03*
D17*
X200660000Y-106680000D03*
X203200000Y-106680000D03*
X205740000Y-106680000D03*
X208280000Y-106680000D03*
D18*
X219710000Y-93980000D03*
X225310000Y-93980000D03*
X235700000Y-93980000D03*
X241300000Y-93980000D03*
D19*
X180340000Y-111980000D03*
X180340000Y-106680000D03*
D13*
X164882850Y-90170000D03*
X164882850Y-92710000D03*
X164882850Y-87630000D03*
D20*
X187960000Y-104140000D03*
X182880000Y-104140000D03*
X177800000Y-104140000D03*
X208280000Y-91440000D03*
X182880000Y-114808000D03*
X208280000Y-81280000D03*
X218440000Y-109220000D03*
X203200000Y-101600000D03*
X198120000Y-106680000D03*
X228600000Y-99060000D03*
X243840000Y-88900000D03*
X208280000Y-114808000D03*
X213360000Y-81280000D03*
X233680000Y-114808000D03*
X233680000Y-109220000D03*
X172720000Y-81280000D03*
X248920000Y-109220000D03*
X233680000Y-81280000D03*
X233680000Y-85852000D03*
X198120000Y-85852000D03*
X218440000Y-114808000D03*
X178308000Y-97028000D03*
X198120000Y-101600000D03*
X213360000Y-109220000D03*
X178308000Y-90424000D03*
X231140000Y-90424000D03*
X198120000Y-81280000D03*
X226060000Y-109220000D03*
X226060000Y-104140000D03*
X193040000Y-101600000D03*
X208280000Y-101600000D03*
X208280000Y-85852000D03*
X203200000Y-85852000D03*
X213360000Y-93980000D03*
X198120000Y-96520000D03*
X193040000Y-114808000D03*
X198120000Y-114808000D03*
X238760000Y-114808000D03*
X218440000Y-104140000D03*
X177800000Y-81280000D03*
X213360000Y-104140000D03*
X248920000Y-88900000D03*
X228600000Y-114808000D03*
X208280000Y-96520000D03*
X182880000Y-81280000D03*
X238760000Y-85852000D03*
X193040000Y-96520000D03*
X203200000Y-114808000D03*
X213360000Y-114808000D03*
X218440000Y-85852000D03*
X203200000Y-81280000D03*
X198120000Y-91440000D03*
X233680000Y-99060000D03*
X172720000Y-114808000D03*
X248920000Y-104140000D03*
X167640000Y-99060000D03*
X228600000Y-85852000D03*
X193040000Y-91440000D03*
X248920000Y-99060000D03*
X223520000Y-114808000D03*
X193040000Y-85852000D03*
X242824000Y-109220000D03*
X228600000Y-81280000D03*
X203200000Y-91440000D03*
X187960000Y-81280000D03*
X183896000Y-93980000D03*
X177800000Y-114808000D03*
X223520000Y-81280000D03*
X203200000Y-96520000D03*
X187960000Y-114808000D03*
X170688000Y-91440000D03*
X238760000Y-81280000D03*
X218440000Y-81280000D03*
X223520000Y-85852000D03*
X172720000Y-85852000D03*
X193040000Y-81280000D03*
X243840000Y-99060000D03*
D21*
X244348000Y-103632000D02*
X244705000Y-103989000D01*
X244705000Y-103989000D02*
X244705000Y-106680000D01*
X244348000Y-103632000D02*
X241300000Y-103632000D01*
X241300000Y-103632000D02*
X240792000Y-104140000D01*
X240792000Y-104140000D02*
X240792000Y-106573000D01*
X240792000Y-106573000D02*
X240685000Y-106680000D01*
X237085000Y-106680000D02*
X237085000Y-103735000D01*
X237085000Y-103735000D02*
X236982000Y-103632000D01*
X236982000Y-103632000D02*
X231648000Y-103632000D01*
X220575000Y-106680000D02*
X220575000Y-103481000D01*
X216154000Y-99060000D02*
X215646000Y-99060000D01*
X220575000Y-103481000D02*
X216154000Y-99060000D01*
D22*
X170770002Y-92992849D02*
X170770002Y-91522002D01*
X170770002Y-91522002D02*
X170688000Y-91440000D01*
D21*
X165840000Y-106680000D02*
X164084000Y-106680000D01*
X169440000Y-106680000D02*
X170180000Y-106680000D01*
X170180000Y-106680000D02*
X170815000Y-107315000D01*
X177580000Y-109220000D02*
X180340000Y-111980000D01*
X170815000Y-107315000D02*
X172720000Y-109220000D01*
D22*
X170815000Y-107315000D02*
X172720000Y-105410000D01*
X172720000Y-105410000D02*
X172720000Y-99060000D01*
D21*
X172720000Y-109220000D02*
X177580000Y-109220000D01*
X198374000Y-112014000D02*
X192020000Y-112014000D01*
X192020000Y-106680000D02*
X192020000Y-112014000D01*
D22*
X172720000Y-96917149D02*
X172720000Y-99060000D01*
D21*
X192020000Y-112014000D02*
X191986000Y-111980000D01*
X200660000Y-109728000D02*
X198374000Y-112014000D01*
D22*
X172085000Y-99060000D02*
X172720000Y-99060000D01*
X171420000Y-96917149D02*
X171420000Y-98395000D01*
D21*
X191986000Y-111980000D02*
X180340000Y-111980000D01*
X200660000Y-106680000D02*
X200660000Y-109728000D01*
D22*
X171420000Y-98395000D02*
X172085000Y-99060000D01*
D21*
X205740000Y-106680000D02*
X208280000Y-106680000D01*
D22*
X172070002Y-92992849D02*
X172070002Y-91806002D01*
X172070002Y-91806002D02*
X171958000Y-91694000D01*
D21*
X213360000Y-99060000D02*
X215646000Y-99060000D01*
X215646000Y-99060000D02*
X215646000Y-98044000D01*
X215646000Y-98044000D02*
X219710000Y-93980000D01*
D22*
X164882850Y-90170000D02*
X163866850Y-90170000D01*
X170770002Y-96094002D02*
X168910000Y-94234000D01*
X172720000Y-91440000D02*
X171450000Y-90170000D01*
X168910000Y-94234000D02*
X168910000Y-90170000D01*
X171450000Y-90170000D02*
X168910000Y-90170000D01*
X168910000Y-90170000D02*
X164882850Y-90170000D01*
X172720000Y-92992849D02*
X172720000Y-91440000D01*
X170770002Y-96917149D02*
X170770002Y-96094002D01*
X181356000Y-86360000D02*
X184150000Y-86360000D01*
X186690000Y-88900000D02*
X187960000Y-88900000D01*
X184150000Y-86360000D02*
X186690000Y-88900000D01*
X175895000Y-93345000D02*
X175260000Y-93980000D01*
X171692801Y-93980000D02*
X171420000Y-93707199D01*
X175260000Y-93980000D02*
X171692801Y-93980000D01*
X171420000Y-93707199D02*
X171420000Y-92992849D01*
X175895000Y-90170000D02*
X175895000Y-93345000D01*
X178435000Y-87630000D02*
X175895000Y-90170000D01*
X181356000Y-87630000D02*
X178435000Y-87630000D01*
X184150000Y-101600000D02*
X186690000Y-99060000D01*
X186690000Y-99060000D02*
X187960000Y-99060000D01*
X181356000Y-101600000D02*
X184150000Y-101600000D01*
X177800000Y-100330000D02*
X175895000Y-98425000D01*
X175895000Y-98425000D02*
X175895000Y-96520000D01*
X181356000Y-100330000D02*
X177800000Y-100330000D01*
X172070002Y-96202799D02*
X172070002Y-96917149D01*
X175895000Y-96520000D02*
X175260000Y-95885000D01*
X175260000Y-95885000D02*
X172387801Y-95885000D01*
X172387801Y-95885000D02*
X172070002Y-96202799D01*
D21*
X187960000Y-93980000D02*
X189230000Y-93980000D01*
X187960000Y-106680000D02*
X189865000Y-104775000D01*
X180340000Y-106680000D02*
X187960000Y-106680000D01*
X189230000Y-93980000D02*
X189865000Y-94615000D01*
X189865000Y-94615000D02*
X189865000Y-104775000D01*
X231648000Y-103632000D02*
X231648000Y-93980000D01*
X231648000Y-106680000D02*
X231648000Y-103632000D01*
X225310000Y-93980000D02*
X231140000Y-93980000D01*
X231140000Y-93980000D02*
X235700000Y-93980000D01*
X241300000Y-93980000D02*
X241300000Y-103632000D01*
X241300000Y-93980000D02*
X248883150Y-93980000D01*
G04 #@! TA.AperFunction,Conductor*
G36*
X250895039Y-76727685D02*
G01*
X250940794Y-76780489D01*
X250952000Y-76832000D01*
X250952000Y-90066000D01*
X250932315Y-90133039D01*
X250879511Y-90178794D01*
X250828000Y-90190000D01*
X249387150Y-90190000D01*
X249387150Y-91566000D01*
X249367465Y-91633039D01*
X249314661Y-91678794D01*
X249263150Y-91690000D01*
X246637150Y-91690000D01*
X246637150Y-92237844D01*
X246643551Y-92297372D01*
X246643553Y-92297379D01*
X246693795Y-92432086D01*
X246693799Y-92432093D01*
X246779958Y-92547186D01*
X246864428Y-92610420D01*
X246906299Y-92666354D01*
X246911283Y-92736046D01*
X246877798Y-92797369D01*
X246864429Y-92808953D01*
X246779602Y-92872455D01*
X246693356Y-92987664D01*
X246693352Y-92987671D01*
X246658419Y-93081333D01*
X246616548Y-93137267D01*
X246551083Y-93161684D01*
X246542237Y-93162000D01*
X242978357Y-93162000D01*
X242911318Y-93142315D01*
X242870970Y-93100000D01*
X242860193Y-93081333D01*
X242791815Y-92962898D01*
X242623561Y-92751915D01*
X242623560Y-92751914D01*
X242623557Y-92751910D01*
X242425741Y-92568365D01*
X242283235Y-92471206D01*
X242202775Y-92416349D01*
X242202769Y-92416346D01*
X242202768Y-92416345D01*
X242202767Y-92416344D01*
X241959643Y-92299263D01*
X241959645Y-92299263D01*
X241701773Y-92219720D01*
X241701767Y-92219718D01*
X241434936Y-92179500D01*
X241434929Y-92179500D01*
X241165071Y-92179500D01*
X241165063Y-92179500D01*
X240898232Y-92219718D01*
X240898226Y-92219720D01*
X240640358Y-92299262D01*
X240397230Y-92416346D01*
X240174258Y-92568365D01*
X239976442Y-92751910D01*
X239808185Y-92962898D01*
X239673258Y-93196599D01*
X239673256Y-93196603D01*
X239574666Y-93447804D01*
X239574664Y-93447811D01*
X239514616Y-93710898D01*
X239494451Y-93979995D01*
X239494451Y-93980004D01*
X239514616Y-94249101D01*
X239574664Y-94512188D01*
X239574666Y-94512195D01*
X239654073Y-94714520D01*
X239673257Y-94763398D01*
X239808185Y-94997102D01*
X239880312Y-95087546D01*
X239976442Y-95208089D01*
X240128932Y-95349578D01*
X240174259Y-95391635D01*
X240397226Y-95543651D01*
X240411801Y-95550670D01*
X240463660Y-95597490D01*
X240482000Y-95662390D01*
X240482000Y-103241810D01*
X240462315Y-103308849D01*
X240445681Y-103329491D01*
X240156620Y-103618551D01*
X240156617Y-103618555D01*
X240067098Y-103752528D01*
X240067097Y-103752531D01*
X240040988Y-103815565D01*
X240040988Y-103815566D01*
X240005435Y-103901397D01*
X240005433Y-103901405D01*
X239974000Y-104059429D01*
X239974000Y-105158777D01*
X239954315Y-105225816D01*
X239901511Y-105271571D01*
X239863254Y-105282067D01*
X239827516Y-105285908D01*
X239692671Y-105336202D01*
X239692664Y-105336206D01*
X239577455Y-105422452D01*
X239577452Y-105422455D01*
X239491206Y-105537664D01*
X239491202Y-105537671D01*
X239440908Y-105672517D01*
X239434501Y-105732116D01*
X239434501Y-105732123D01*
X239434500Y-105732135D01*
X239434500Y-107627870D01*
X239434501Y-107627876D01*
X239440908Y-107687483D01*
X239491202Y-107822328D01*
X239491206Y-107822335D01*
X239577452Y-107937544D01*
X239577455Y-107937547D01*
X239692664Y-108023793D01*
X239692671Y-108023797D01*
X239827517Y-108074091D01*
X239827516Y-108074091D01*
X239834444Y-108074835D01*
X239887127Y-108080500D01*
X241482872Y-108080499D01*
X241542483Y-108074091D01*
X241677331Y-108023796D01*
X241792546Y-107937546D01*
X241878796Y-107822331D01*
X241929091Y-107687483D01*
X241935500Y-107627873D01*
X241935499Y-105732128D01*
X241929091Y-105672517D01*
X241917628Y-105641784D01*
X241878797Y-105537671D01*
X241878793Y-105537664D01*
X241792547Y-105422455D01*
X241792544Y-105422452D01*
X241677329Y-105336202D01*
X241674568Y-105334694D01*
X241672343Y-105332469D01*
X241670231Y-105330888D01*
X241670458Y-105330584D01*
X241625165Y-105285287D01*
X241610000Y-105225865D01*
X241610000Y-104574000D01*
X241629685Y-104506961D01*
X241682489Y-104461206D01*
X241734000Y-104450000D01*
X243763000Y-104450000D01*
X243830039Y-104469685D01*
X243875794Y-104522489D01*
X243887000Y-104574000D01*
X243887000Y-105185087D01*
X243867315Y-105252126D01*
X243814511Y-105297881D01*
X243806333Y-105301269D01*
X243712671Y-105336202D01*
X243712664Y-105336206D01*
X243597455Y-105422452D01*
X243597452Y-105422455D01*
X243511206Y-105537664D01*
X243511202Y-105537671D01*
X243460908Y-105672517D01*
X243454501Y-105732116D01*
X243454501Y-105732123D01*
X243454500Y-105732135D01*
X243454500Y-107627870D01*
X243454501Y-107627876D01*
X243460908Y-107687483D01*
X243511202Y-107822328D01*
X243511206Y-107822335D01*
X243597452Y-107937544D01*
X243597455Y-107937547D01*
X243712664Y-108023793D01*
X243712671Y-108023797D01*
X243847517Y-108074091D01*
X243847516Y-108074091D01*
X243854444Y-108074835D01*
X243907127Y-108080500D01*
X245502872Y-108080499D01*
X245562483Y-108074091D01*
X245697331Y-108023796D01*
X245812546Y-107937546D01*
X245898796Y-107822331D01*
X245949091Y-107687483D01*
X245955500Y-107627873D01*
X245955500Y-107627844D01*
X247055000Y-107627844D01*
X247061401Y-107687372D01*
X247061403Y-107687379D01*
X247111645Y-107822086D01*
X247111649Y-107822093D01*
X247197809Y-107937187D01*
X247197812Y-107937190D01*
X247312906Y-108023350D01*
X247312913Y-108023354D01*
X247447620Y-108073596D01*
X247447627Y-108073598D01*
X247507155Y-108079999D01*
X247507172Y-108080000D01*
X248055000Y-108080000D01*
X248555000Y-108080000D01*
X249102828Y-108080000D01*
X249102844Y-108079999D01*
X249162372Y-108073598D01*
X249162379Y-108073596D01*
X249297086Y-108023354D01*
X249297093Y-108023350D01*
X249412187Y-107937190D01*
X249412190Y-107937187D01*
X249498350Y-107822093D01*
X249498354Y-107822086D01*
X249548596Y-107687379D01*
X249548598Y-107687372D01*
X249554999Y-107627844D01*
X249555000Y-107627827D01*
X249555000Y-106930000D01*
X248555000Y-106930000D01*
X248555000Y-108080000D01*
X248055000Y-108080000D01*
X248055000Y-106930000D01*
X247055000Y-106930000D01*
X247055000Y-107627844D01*
X245955500Y-107627844D01*
X245955499Y-105732155D01*
X247055000Y-105732155D01*
X247055000Y-106430000D01*
X248055000Y-106430000D01*
X248555000Y-106430000D01*
X249555000Y-106430000D01*
X249555000Y-105732172D01*
X249554999Y-105732155D01*
X249548598Y-105672627D01*
X249548596Y-105672620D01*
X249498354Y-105537913D01*
X249498350Y-105537906D01*
X249412190Y-105422812D01*
X249412187Y-105422809D01*
X249297093Y-105336649D01*
X249297086Y-105336645D01*
X249162379Y-105286403D01*
X249162372Y-105286401D01*
X249102844Y-105280000D01*
X248555000Y-105280000D01*
X248555000Y-106430000D01*
X248055000Y-106430000D01*
X248055000Y-105280000D01*
X247507155Y-105280000D01*
X247447627Y-105286401D01*
X247447620Y-105286403D01*
X247312913Y-105336645D01*
X247312906Y-105336649D01*
X247197812Y-105422809D01*
X247197809Y-105422812D01*
X247111649Y-105537906D01*
X247111645Y-105537913D01*
X247061403Y-105672620D01*
X247061401Y-105672627D01*
X247055000Y-105732155D01*
X245955499Y-105732155D01*
X245955499Y-105732128D01*
X245949091Y-105672517D01*
X245937628Y-105641784D01*
X245898797Y-105537671D01*
X245898793Y-105537664D01*
X245812547Y-105422455D01*
X245812544Y-105422452D01*
X245697335Y-105336206D01*
X245697328Y-105336202D01*
X245603667Y-105301269D01*
X245547733Y-105259398D01*
X245523316Y-105193933D01*
X245523000Y-105185087D01*
X245523000Y-103908433D01*
X245522999Y-103908429D01*
X245521600Y-103901397D01*
X245491565Y-103750398D01*
X245432228Y-103607149D01*
X245430584Y-103602551D01*
X245340382Y-103467554D01*
X244869448Y-102996620D01*
X244869444Y-102996617D01*
X244735474Y-102907100D01*
X244735461Y-102907093D01*
X244586606Y-102845436D01*
X244586594Y-102845433D01*
X244428570Y-102814000D01*
X244428566Y-102814000D01*
X242242000Y-102814000D01*
X242174961Y-102794315D01*
X242129206Y-102741511D01*
X242118000Y-102690000D01*
X242118000Y-97317844D01*
X246637150Y-97317844D01*
X246643551Y-97377372D01*
X246643553Y-97377379D01*
X246693795Y-97512086D01*
X246693799Y-97512093D01*
X246779959Y-97627187D01*
X246779962Y-97627190D01*
X246895056Y-97713350D01*
X246895063Y-97713354D01*
X247029770Y-97763596D01*
X247029777Y-97763598D01*
X247089305Y-97769999D01*
X247089322Y-97770000D01*
X248887150Y-97770000D01*
X248887150Y-96770000D01*
X246637150Y-96770000D01*
X246637150Y-97317844D01*
X242118000Y-97317844D01*
X242118000Y-95662390D01*
X242137685Y-95595351D01*
X242188201Y-95550668D01*
X242202775Y-95543651D01*
X242425741Y-95391635D01*
X242599403Y-95230500D01*
X242623557Y-95208089D01*
X242623557Y-95208087D01*
X242623561Y-95208085D01*
X242791815Y-94997102D01*
X242870971Y-94859999D01*
X242921537Y-94811785D01*
X242978357Y-94798000D01*
X246542237Y-94798000D01*
X246609276Y-94817685D01*
X246655031Y-94870489D01*
X246658419Y-94878667D01*
X246693352Y-94972328D01*
X246693356Y-94972335D01*
X246779602Y-95087544D01*
X246779605Y-95087547D01*
X246864428Y-95151046D01*
X246906299Y-95206979D01*
X246911283Y-95276671D01*
X246877797Y-95337994D01*
X246864429Y-95349578D01*
X246779959Y-95412812D01*
X246693799Y-95527906D01*
X246693795Y-95527913D01*
X246643553Y-95662620D01*
X246643551Y-95662627D01*
X246637150Y-95722155D01*
X246637150Y-96270000D01*
X249263150Y-96270000D01*
X249330189Y-96289685D01*
X249375944Y-96342489D01*
X249387150Y-96394000D01*
X249387150Y-97770000D01*
X250828000Y-97770000D01*
X250895039Y-97789685D01*
X250940794Y-97842489D01*
X250952000Y-97894000D01*
X250952000Y-118748000D01*
X250932315Y-118815039D01*
X250879511Y-118860794D01*
X250828000Y-118872000D01*
X163192000Y-118872000D01*
X163124961Y-118852315D01*
X163079206Y-118799511D01*
X163068000Y-118748000D01*
X163068000Y-114193713D01*
X166289500Y-114193713D01*
X166289500Y-114406286D01*
X166322753Y-114616239D01*
X166388444Y-114818414D01*
X166484951Y-115007820D01*
X166609890Y-115179786D01*
X166760213Y-115330109D01*
X166932179Y-115455048D01*
X166932181Y-115455049D01*
X166932184Y-115455051D01*
X167121588Y-115551557D01*
X167323757Y-115617246D01*
X167533713Y-115650500D01*
X167533714Y-115650500D01*
X167746286Y-115650500D01*
X167746287Y-115650500D01*
X167956243Y-115617246D01*
X168158412Y-115551557D01*
X168347816Y-115455051D01*
X168369789Y-115439086D01*
X168519786Y-115330109D01*
X168519788Y-115330106D01*
X168519792Y-115330104D01*
X168670104Y-115179792D01*
X168670106Y-115179788D01*
X168670109Y-115179786D01*
X168795048Y-115007820D01*
X168795047Y-115007820D01*
X168795051Y-115007816D01*
X168891557Y-114818412D01*
X168957246Y-114616243D01*
X168990500Y-114406287D01*
X168990500Y-114193713D01*
X243759500Y-114193713D01*
X243759500Y-114406286D01*
X243792753Y-114616239D01*
X243858444Y-114818414D01*
X243954951Y-115007820D01*
X244079890Y-115179786D01*
X244230213Y-115330109D01*
X244402179Y-115455048D01*
X244402181Y-115455049D01*
X244402184Y-115455051D01*
X244591588Y-115551557D01*
X244793757Y-115617246D01*
X245003713Y-115650500D01*
X245003714Y-115650500D01*
X245216286Y-115650500D01*
X245216287Y-115650500D01*
X245426243Y-115617246D01*
X245628412Y-115551557D01*
X245817816Y-115455051D01*
X245839789Y-115439086D01*
X245989786Y-115330109D01*
X245989788Y-115330106D01*
X245989792Y-115330104D01*
X246140104Y-115179792D01*
X246140106Y-115179788D01*
X246140109Y-115179786D01*
X246265048Y-115007820D01*
X246265047Y-115007820D01*
X246265051Y-115007816D01*
X246361557Y-114818412D01*
X246427246Y-114616243D01*
X246460500Y-114406287D01*
X246460500Y-114193713D01*
X246427246Y-113983757D01*
X246361557Y-113781588D01*
X246265051Y-113592184D01*
X246265049Y-113592181D01*
X246265048Y-113592179D01*
X246140109Y-113420213D01*
X245989786Y-113269890D01*
X245817820Y-113144951D01*
X245628414Y-113048444D01*
X245628413Y-113048443D01*
X245628412Y-113048443D01*
X245426243Y-112982754D01*
X245426241Y-112982753D01*
X245426240Y-112982753D01*
X245264957Y-112957208D01*
X245216287Y-112949500D01*
X245003713Y-112949500D01*
X244955042Y-112957208D01*
X244793760Y-112982753D01*
X244591585Y-113048444D01*
X244402179Y-113144951D01*
X244230213Y-113269890D01*
X244079890Y-113420213D01*
X243954951Y-113592179D01*
X243858444Y-113781585D01*
X243792753Y-113983760D01*
X243759500Y-114193713D01*
X168990500Y-114193713D01*
X168957246Y-113983757D01*
X168891557Y-113781588D01*
X168795051Y-113592184D01*
X168795049Y-113592181D01*
X168795048Y-113592179D01*
X168670109Y-113420213D01*
X168519786Y-113269890D01*
X168347820Y-113144951D01*
X168158414Y-113048444D01*
X168158413Y-113048443D01*
X168158412Y-113048443D01*
X167956243Y-112982754D01*
X167956241Y-112982753D01*
X167956240Y-112982753D01*
X167794957Y-112957208D01*
X167746287Y-112949500D01*
X167533713Y-112949500D01*
X167485042Y-112957208D01*
X167323760Y-112982753D01*
X167121585Y-113048444D01*
X166932179Y-113144951D01*
X166760213Y-113269890D01*
X166609890Y-113420213D01*
X166484951Y-113592179D01*
X166388444Y-113781585D01*
X166322753Y-113983760D01*
X166289500Y-114193713D01*
X163068000Y-114193713D01*
X163068000Y-107627844D01*
X164590000Y-107627844D01*
X164596401Y-107687372D01*
X164596403Y-107687379D01*
X164646645Y-107822086D01*
X164646649Y-107822093D01*
X164732809Y-107937187D01*
X164732812Y-107937190D01*
X164847906Y-108023350D01*
X164847913Y-108023354D01*
X164982620Y-108073596D01*
X164982627Y-108073598D01*
X165042155Y-108079999D01*
X165042172Y-108080000D01*
X165590000Y-108080000D01*
X166090000Y-108080000D01*
X166637828Y-108080000D01*
X166637844Y-108079999D01*
X166697372Y-108073598D01*
X166697379Y-108073596D01*
X166832086Y-108023354D01*
X166832093Y-108023350D01*
X166947187Y-107937190D01*
X166947190Y-107937187D01*
X167033350Y-107822093D01*
X167033354Y-107822086D01*
X167083596Y-107687379D01*
X167083598Y-107687372D01*
X167089999Y-107627844D01*
X167090000Y-107627827D01*
X167090000Y-106930000D01*
X166090000Y-106930000D01*
X166090000Y-108080000D01*
X165590000Y-108080000D01*
X165590000Y-106930000D01*
X164590000Y-106930000D01*
X164590000Y-107627844D01*
X163068000Y-107627844D01*
X163068000Y-105732155D01*
X164590000Y-105732155D01*
X164590000Y-106430000D01*
X165590000Y-106430000D01*
X166090000Y-106430000D01*
X167090000Y-106430000D01*
X167090000Y-105732172D01*
X167089999Y-105732155D01*
X167083598Y-105672627D01*
X167083596Y-105672620D01*
X167033354Y-105537913D01*
X167033350Y-105537906D01*
X166947190Y-105422812D01*
X166947187Y-105422809D01*
X166832093Y-105336649D01*
X166832086Y-105336645D01*
X166697379Y-105286403D01*
X166697372Y-105286401D01*
X166637844Y-105280000D01*
X166090000Y-105280000D01*
X166090000Y-106430000D01*
X165590000Y-106430000D01*
X165590000Y-105280000D01*
X165042155Y-105280000D01*
X164982627Y-105286401D01*
X164982620Y-105286403D01*
X164847913Y-105336645D01*
X164847906Y-105336649D01*
X164732812Y-105422809D01*
X164732809Y-105422812D01*
X164646649Y-105537906D01*
X164646645Y-105537913D01*
X164596403Y-105672620D01*
X164596401Y-105672627D01*
X164590000Y-105732155D01*
X163068000Y-105732155D01*
X163068000Y-94084000D01*
X163087685Y-94016961D01*
X163140489Y-93971206D01*
X163192000Y-93960000D01*
X164632850Y-93960000D01*
X165132850Y-93960000D01*
X166930678Y-93960000D01*
X166930694Y-93959999D01*
X166990222Y-93953598D01*
X166990229Y-93953596D01*
X167124936Y-93903354D01*
X167124943Y-93903350D01*
X167240037Y-93817190D01*
X167240040Y-93817187D01*
X167326200Y-93702093D01*
X167326204Y-93702086D01*
X167376446Y-93567379D01*
X167376448Y-93567372D01*
X167382849Y-93507844D01*
X167382850Y-93507827D01*
X167382850Y-92960000D01*
X165132850Y-92960000D01*
X165132850Y-93960000D01*
X164632850Y-93960000D01*
X164632850Y-92584000D01*
X164652535Y-92516961D01*
X164705339Y-92471206D01*
X164756850Y-92460000D01*
X167382850Y-92460000D01*
X167382850Y-91912172D01*
X167382849Y-91912155D01*
X167376448Y-91852627D01*
X167376446Y-91852620D01*
X167326204Y-91717913D01*
X167326200Y-91717906D01*
X167240040Y-91602813D01*
X167155571Y-91539579D01*
X167113700Y-91483645D01*
X167108716Y-91413953D01*
X167142201Y-91352630D01*
X167155562Y-91341052D01*
X167240396Y-91277546D01*
X167326646Y-91162331D01*
X167376941Y-91027483D01*
X167383350Y-90967873D01*
X167383350Y-90894500D01*
X167403035Y-90827461D01*
X167455839Y-90781706D01*
X167507350Y-90770500D01*
X168185500Y-90770500D01*
X168252539Y-90790185D01*
X168298294Y-90842989D01*
X168309500Y-90894500D01*
X168309500Y-94147330D01*
X168309499Y-94147348D01*
X168309499Y-94313054D01*
X168309498Y-94313054D01*
X168350423Y-94465785D01*
X168371010Y-94501441D01*
X168371011Y-94501445D01*
X168429475Y-94602709D01*
X168429481Y-94602717D01*
X168548349Y-94721585D01*
X168548355Y-94721590D01*
X170058487Y-96231722D01*
X170091972Y-96293045D01*
X170094096Y-96332653D01*
X170091702Y-96354921D01*
X170091702Y-97479369D01*
X170091703Y-97479375D01*
X170098110Y-97538982D01*
X170148404Y-97673827D01*
X170148408Y-97673834D01*
X170234654Y-97789043D01*
X170234657Y-97789046D01*
X170349866Y-97875292D01*
X170349873Y-97875296D01*
X170394820Y-97892060D01*
X170484719Y-97925590D01*
X170544329Y-97931999D01*
X170695500Y-97931998D01*
X170762539Y-97951682D01*
X170808294Y-98004486D01*
X170819500Y-98055998D01*
X170819500Y-98308330D01*
X170819499Y-98308348D01*
X170819499Y-98474054D01*
X170819498Y-98474054D01*
X170819499Y-98474057D01*
X170860361Y-98626554D01*
X170860424Y-98626787D01*
X170869468Y-98642451D01*
X170869469Y-98642453D01*
X170939477Y-98763712D01*
X170939481Y-98763717D01*
X171058349Y-98882585D01*
X171058355Y-98882590D01*
X171600139Y-99424374D01*
X171600149Y-99424385D01*
X171604479Y-99428715D01*
X171604480Y-99428716D01*
X171716284Y-99540520D01*
X171803095Y-99590639D01*
X171803097Y-99590641D01*
X171841151Y-99612611D01*
X171853215Y-99619577D01*
X172005943Y-99660501D01*
X172005945Y-99660501D01*
X172011687Y-99661257D01*
X172075583Y-99689525D01*
X172114053Y-99747849D01*
X172119500Y-99784196D01*
X172119500Y-105109902D01*
X172099815Y-105176941D01*
X172083181Y-105197583D01*
X171056476Y-106224287D01*
X170995153Y-106257772D01*
X170925461Y-106252788D01*
X170881114Y-106224287D01*
X170726818Y-106069991D01*
X170693333Y-106008668D01*
X170690499Y-105982310D01*
X170690499Y-105732129D01*
X170690498Y-105732123D01*
X170690497Y-105732116D01*
X170684091Y-105672517D01*
X170672628Y-105641784D01*
X170633797Y-105537671D01*
X170633793Y-105537664D01*
X170547547Y-105422455D01*
X170547544Y-105422452D01*
X170432335Y-105336206D01*
X170432328Y-105336202D01*
X170297482Y-105285908D01*
X170297483Y-105285908D01*
X170237883Y-105279501D01*
X170237881Y-105279500D01*
X170237873Y-105279500D01*
X170237864Y-105279500D01*
X168642129Y-105279500D01*
X168642123Y-105279501D01*
X168582516Y-105285908D01*
X168447671Y-105336202D01*
X168447664Y-105336206D01*
X168332455Y-105422452D01*
X168332452Y-105422455D01*
X168246206Y-105537664D01*
X168246202Y-105537671D01*
X168195908Y-105672517D01*
X168189501Y-105732116D01*
X168189501Y-105732123D01*
X168189500Y-105732135D01*
X168189500Y-107627870D01*
X168189501Y-107627876D01*
X168195908Y-107687483D01*
X168246202Y-107822328D01*
X168246206Y-107822335D01*
X168332452Y-107937544D01*
X168332455Y-107937547D01*
X168447664Y-108023793D01*
X168447671Y-108023797D01*
X168582517Y-108074091D01*
X168582516Y-108074091D01*
X168589444Y-108074835D01*
X168642127Y-108080500D01*
X170237872Y-108080499D01*
X170297483Y-108074091D01*
X170310057Y-108069400D01*
X170379748Y-108064415D01*
X170441072Y-108097899D01*
X170441074Y-108097901D01*
X172080277Y-109737103D01*
X172080287Y-109737114D01*
X172084617Y-109741444D01*
X172084618Y-109741445D01*
X172198555Y-109855382D01*
X172252216Y-109891236D01*
X172252218Y-109891238D01*
X172252219Y-109891238D01*
X172332532Y-109944903D01*
X172406963Y-109975732D01*
X172406964Y-109975733D01*
X172406965Y-109975733D01*
X172481398Y-110006565D01*
X172639429Y-110037999D01*
X172639433Y-110038000D01*
X172639434Y-110038000D01*
X177189811Y-110038000D01*
X177256850Y-110057685D01*
X177277492Y-110074319D01*
X179005603Y-111802430D01*
X179039088Y-111863753D01*
X179041450Y-111900917D01*
X179034532Y-111979996D01*
X179034532Y-111980001D01*
X179054364Y-112206686D01*
X179054366Y-112206697D01*
X179113258Y-112426488D01*
X179113261Y-112426497D01*
X179209431Y-112632732D01*
X179209432Y-112632734D01*
X179339954Y-112819141D01*
X179500858Y-112980045D01*
X179504727Y-112982754D01*
X179687266Y-113110568D01*
X179893504Y-113206739D01*
X180113308Y-113265635D01*
X180275230Y-113279801D01*
X180339998Y-113285468D01*
X180340000Y-113285468D01*
X180340002Y-113285468D01*
X180396673Y-113280509D01*
X180566692Y-113265635D01*
X180786496Y-113206739D01*
X180992734Y-113110568D01*
X181179139Y-112980047D01*
X181324868Y-112834317D01*
X181386189Y-112800834D01*
X181412548Y-112798000D01*
X191756289Y-112798000D01*
X191780480Y-112800383D01*
X191939429Y-112831999D01*
X191939433Y-112832000D01*
X191939434Y-112832000D01*
X198454567Y-112832000D01*
X198454568Y-112831999D01*
X198612602Y-112800565D01*
X198687035Y-112769733D01*
X198761468Y-112738903D01*
X198895445Y-112649382D01*
X201295382Y-110249445D01*
X201384902Y-110115468D01*
X201446565Y-109966602D01*
X201478000Y-109808566D01*
X201478000Y-108019728D01*
X201497685Y-107952689D01*
X201537211Y-107914000D01*
X201550595Y-107905799D01*
X201731388Y-107751388D01*
X201835710Y-107629242D01*
X201894217Y-107591049D01*
X201964084Y-107590550D01*
X202023131Y-107627904D01*
X202024290Y-107629242D01*
X202128612Y-107751388D01*
X202211673Y-107822328D01*
X202309402Y-107905797D01*
X202309404Y-107905798D01*
X202309405Y-107905799D01*
X202320187Y-107912406D01*
X202512126Y-108030027D01*
X202539948Y-108041551D01*
X202731786Y-108121013D01*
X202962975Y-108176517D01*
X203200000Y-108195171D01*
X203437025Y-108176517D01*
X203668214Y-108121013D01*
X203887873Y-108030027D01*
X204090595Y-107905799D01*
X204271388Y-107751388D01*
X204399372Y-107601536D01*
X204457877Y-107563345D01*
X204507447Y-107558998D01*
X205248871Y-106817574D01*
X205264755Y-106876853D01*
X205331898Y-106993147D01*
X205426853Y-107088102D01*
X205543147Y-107155245D01*
X205602424Y-107171128D01*
X204861145Y-107912406D01*
X205052355Y-108029580D01*
X205052358Y-108029582D01*
X205271944Y-108120537D01*
X205503057Y-108176021D01*
X205503056Y-108176021D01*
X205740000Y-108194668D01*
X205976943Y-108176021D01*
X206208055Y-108120537D01*
X206427641Y-108029582D01*
X206427644Y-108029580D01*
X206618853Y-107912406D01*
X205877575Y-107171127D01*
X205936853Y-107155245D01*
X206053147Y-107088102D01*
X206148102Y-106993147D01*
X206215245Y-106876853D01*
X206231128Y-106817575D01*
X206972406Y-107558853D01*
X206995424Y-107556129D01*
X207024574Y-107556129D01*
X207047591Y-107558853D01*
X207788871Y-106817574D01*
X207804755Y-106876853D01*
X207871898Y-106993147D01*
X207966853Y-107088102D01*
X208083147Y-107155245D01*
X208142424Y-107171128D01*
X207401145Y-107912406D01*
X207592355Y-108029580D01*
X207592358Y-108029582D01*
X207811944Y-108120537D01*
X208043057Y-108176021D01*
X208043056Y-108176021D01*
X208280000Y-108194668D01*
X208516943Y-108176021D01*
X208748055Y-108120537D01*
X208967641Y-108029582D01*
X208967644Y-108029580D01*
X209158853Y-107912406D01*
X208417575Y-107171127D01*
X208476853Y-107155245D01*
X208593147Y-107088102D01*
X208688102Y-106993147D01*
X208755245Y-106876853D01*
X208771128Y-106817575D01*
X209512406Y-107558853D01*
X209629580Y-107367644D01*
X209629582Y-107367641D01*
X209720537Y-107148055D01*
X209776021Y-106916943D01*
X209794668Y-106680000D01*
X209776021Y-106443056D01*
X209720537Y-106211944D01*
X209629582Y-105992358D01*
X209629580Y-105992355D01*
X209512406Y-105801145D01*
X208771127Y-106542423D01*
X208755245Y-106483147D01*
X208688102Y-106366853D01*
X208593147Y-106271898D01*
X208476853Y-106204755D01*
X208417574Y-106188871D01*
X209158853Y-105447592D01*
X208967644Y-105330419D01*
X208967641Y-105330417D01*
X208748055Y-105239462D01*
X208516942Y-105183978D01*
X208516943Y-105183978D01*
X208280000Y-105165331D01*
X208043056Y-105183978D01*
X207811944Y-105239462D01*
X207592366Y-105330414D01*
X207592357Y-105330419D01*
X207401145Y-105447592D01*
X208142425Y-106188871D01*
X208083147Y-106204755D01*
X207966853Y-106271898D01*
X207871898Y-106366853D01*
X207804755Y-106483147D01*
X207788871Y-106542424D01*
X207047592Y-105801145D01*
X207024573Y-105803870D01*
X206995425Y-105803870D01*
X206972406Y-105801145D01*
X206231127Y-106542423D01*
X206215245Y-106483147D01*
X206148102Y-106366853D01*
X206053147Y-106271898D01*
X205936853Y-106204755D01*
X205877574Y-106188871D01*
X206618853Y-105447592D01*
X206427644Y-105330419D01*
X206427641Y-105330417D01*
X206208055Y-105239462D01*
X205976942Y-105183978D01*
X205976943Y-105183978D01*
X205740000Y-105165331D01*
X205503056Y-105183978D01*
X205271944Y-105239462D01*
X205052366Y-105330414D01*
X205052357Y-105330419D01*
X204861145Y-105447592D01*
X205602425Y-106188871D01*
X205543147Y-106204755D01*
X205426853Y-106271898D01*
X205331898Y-106366853D01*
X205264755Y-106483147D01*
X205248871Y-106542424D01*
X204507370Y-105800923D01*
X204439347Y-105789401D01*
X204399371Y-105758461D01*
X204354807Y-105706284D01*
X204271388Y-105608612D01*
X204172548Y-105524195D01*
X204090597Y-105454202D01*
X204090592Y-105454199D01*
X203887873Y-105329972D01*
X203699934Y-105252126D01*
X203668214Y-105238987D01*
X203437025Y-105183483D01*
X203437023Y-105183482D01*
X203437020Y-105183482D01*
X203200000Y-105164829D01*
X202962979Y-105183482D01*
X202962975Y-105183483D01*
X202731786Y-105238987D01*
X202731784Y-105238987D01*
X202731783Y-105238988D01*
X202512126Y-105329972D01*
X202309407Y-105454199D01*
X202309402Y-105454202D01*
X202128612Y-105608612D01*
X202024290Y-105730757D01*
X201965783Y-105768950D01*
X201895915Y-105769448D01*
X201836869Y-105732094D01*
X201835710Y-105730757D01*
X201759719Y-105641784D01*
X201731388Y-105608612D01*
X201632548Y-105524195D01*
X201550597Y-105454202D01*
X201550592Y-105454199D01*
X201347873Y-105329972D01*
X201159934Y-105252126D01*
X201128214Y-105238987D01*
X200897025Y-105183483D01*
X200897023Y-105183482D01*
X200897020Y-105183482D01*
X200660000Y-105164829D01*
X200422979Y-105183482D01*
X200422975Y-105183483D01*
X200191786Y-105238987D01*
X200191784Y-105238987D01*
X200191783Y-105238988D01*
X199972126Y-105329972D01*
X199769407Y-105454199D01*
X199769402Y-105454202D01*
X199588612Y-105608612D01*
X199434204Y-105789401D01*
X199434199Y-105789407D01*
X199309972Y-105992126D01*
X199236295Y-106170000D01*
X199218987Y-106211786D01*
X199213773Y-106233504D01*
X199163482Y-106442979D01*
X199144829Y-106680000D01*
X199163482Y-106917020D01*
X199163482Y-106917023D01*
X199163483Y-106917025D01*
X199218987Y-107148214D01*
X199218988Y-107148216D01*
X199309972Y-107367873D01*
X199434199Y-107570592D01*
X199434202Y-107570597D01*
X199491382Y-107637546D01*
X199588612Y-107751388D01*
X199769405Y-107905799D01*
X199782787Y-107913999D01*
X199829663Y-107965808D01*
X199842000Y-108019728D01*
X199842000Y-109337811D01*
X199822315Y-109404850D01*
X199805681Y-109425492D01*
X198071492Y-111159681D01*
X198010169Y-111193166D01*
X197983811Y-111196000D01*
X192962000Y-111196000D01*
X192894961Y-111176315D01*
X192849206Y-111123511D01*
X192838000Y-111072000D01*
X192838000Y-107854398D01*
X192857685Y-107787359D01*
X192910489Y-107741604D01*
X192918649Y-107738223D01*
X192957331Y-107723796D01*
X193072546Y-107637546D01*
X193072548Y-107637542D01*
X193077676Y-107632416D01*
X193138999Y-107598931D01*
X193208691Y-107603915D01*
X193253038Y-107632416D01*
X193257812Y-107637190D01*
X193372906Y-107723350D01*
X193372913Y-107723354D01*
X193507620Y-107773596D01*
X193507627Y-107773598D01*
X193567155Y-107779999D01*
X193567172Y-107780000D01*
X193965000Y-107780000D01*
X194465000Y-107780000D01*
X194862828Y-107780000D01*
X194862844Y-107779999D01*
X194922372Y-107773598D01*
X194922379Y-107773596D01*
X195057086Y-107723354D01*
X195057093Y-107723350D01*
X195172187Y-107637190D01*
X195172190Y-107637187D01*
X195258350Y-107522093D01*
X195258354Y-107522086D01*
X195308596Y-107387379D01*
X195308598Y-107387372D01*
X195314999Y-107327844D01*
X195315000Y-107327827D01*
X195315000Y-106930000D01*
X194465000Y-106930000D01*
X194465000Y-107780000D01*
X193965000Y-107780000D01*
X193965000Y-106430000D01*
X194465000Y-106430000D01*
X195315000Y-106430000D01*
X195315000Y-106032172D01*
X195314999Y-106032155D01*
X195308598Y-105972627D01*
X195308596Y-105972620D01*
X195258354Y-105837913D01*
X195258350Y-105837906D01*
X195172190Y-105722812D01*
X195172187Y-105722809D01*
X195057093Y-105636649D01*
X195057086Y-105636645D01*
X194922379Y-105586403D01*
X194922372Y-105586401D01*
X194862844Y-105580000D01*
X194465000Y-105580000D01*
X194465000Y-106430000D01*
X193965000Y-106430000D01*
X193965000Y-105580000D01*
X193567155Y-105580000D01*
X193507627Y-105586401D01*
X193507620Y-105586403D01*
X193372913Y-105636645D01*
X193372906Y-105636649D01*
X193257812Y-105722809D01*
X193253038Y-105727584D01*
X193191715Y-105761069D01*
X193122023Y-105756085D01*
X193077676Y-105727584D01*
X193072544Y-105722452D01*
X192957335Y-105636206D01*
X192957328Y-105636202D01*
X192822482Y-105585908D01*
X192822483Y-105585908D01*
X192762883Y-105579501D01*
X192762881Y-105579500D01*
X192762873Y-105579500D01*
X192762864Y-105579500D01*
X191467129Y-105579500D01*
X191467123Y-105579501D01*
X191407516Y-105585908D01*
X191272671Y-105636202D01*
X191272664Y-105636206D01*
X191157455Y-105722452D01*
X191157452Y-105722455D01*
X191071206Y-105837664D01*
X191071202Y-105837671D01*
X191020908Y-105972517D01*
X191014501Y-106032116D01*
X191014500Y-106032135D01*
X191014500Y-107327870D01*
X191014501Y-107327876D01*
X191020908Y-107387483D01*
X191071202Y-107522328D01*
X191071206Y-107522335D01*
X191157452Y-107637544D01*
X191163725Y-107643817D01*
X191161529Y-107646012D01*
X191194178Y-107689619D01*
X191202000Y-107732962D01*
X191202000Y-111038000D01*
X191182315Y-111105039D01*
X191129511Y-111150794D01*
X191078000Y-111162000D01*
X181412548Y-111162000D01*
X181345509Y-111142315D01*
X181324871Y-111125685D01*
X181179139Y-110979953D01*
X181179138Y-110979952D01*
X181179137Y-110979951D01*
X180992734Y-110849432D01*
X180992732Y-110849431D01*
X180786497Y-110753261D01*
X180786488Y-110753258D01*
X180566697Y-110694366D01*
X180566693Y-110694365D01*
X180566692Y-110694365D01*
X180566691Y-110694364D01*
X180566686Y-110694364D01*
X180340002Y-110674532D01*
X180339997Y-110674532D01*
X180260917Y-110681450D01*
X180192418Y-110667683D01*
X180162430Y-110645603D01*
X178101448Y-108584620D01*
X178101444Y-108584617D01*
X177967474Y-108495100D01*
X177967461Y-108495093D01*
X177818606Y-108433436D01*
X177818594Y-108433433D01*
X177660570Y-108402000D01*
X177660566Y-108402000D01*
X173110188Y-108402000D01*
X173043149Y-108382315D01*
X173022507Y-108365681D01*
X171905711Y-107248885D01*
X171872226Y-107187562D01*
X171877210Y-107117870D01*
X171905711Y-107073523D01*
X172366377Y-106612857D01*
X173078506Y-105900728D01*
X173078511Y-105900724D01*
X173088714Y-105890520D01*
X173088716Y-105890520D01*
X173200520Y-105778716D01*
X173257540Y-105679953D01*
X173279577Y-105641785D01*
X173320501Y-105489057D01*
X173320501Y-105330943D01*
X173320501Y-105323348D01*
X173320500Y-105323330D01*
X173320500Y-97743282D01*
X173338432Y-97682211D01*
X173337344Y-97681617D01*
X173340076Y-97676612D01*
X173340185Y-97676243D01*
X173340622Y-97675613D01*
X173341593Y-97673834D01*
X173341592Y-97673834D01*
X173341596Y-97673830D01*
X173391891Y-97538982D01*
X173398300Y-97479372D01*
X173398299Y-96609499D01*
X173417983Y-96542461D01*
X173470787Y-96496706D01*
X173522299Y-96485500D01*
X174959903Y-96485500D01*
X175026942Y-96505185D01*
X175047584Y-96521819D01*
X175258181Y-96732416D01*
X175291666Y-96793739D01*
X175294500Y-96820097D01*
X175294500Y-98338330D01*
X175294499Y-98338348D01*
X175294499Y-98504054D01*
X175294498Y-98504054D01*
X175335423Y-98656785D01*
X175344515Y-98672532D01*
X175344516Y-98672535D01*
X175414475Y-98793709D01*
X175414481Y-98793717D01*
X175533349Y-98912585D01*
X175533355Y-98912590D01*
X177315139Y-100694374D01*
X177315149Y-100694385D01*
X177319479Y-100698715D01*
X177319480Y-100698716D01*
X177431284Y-100810520D01*
X177512949Y-100857669D01*
X177568215Y-100889577D01*
X177720943Y-100930501D01*
X177720946Y-100930501D01*
X177886653Y-100930501D01*
X177886669Y-100930500D01*
X179981500Y-100930500D01*
X180048539Y-100950185D01*
X180094294Y-101002989D01*
X180105500Y-101054500D01*
X180105500Y-102147870D01*
X180105501Y-102147876D01*
X180111908Y-102207483D01*
X180162202Y-102342328D01*
X180162206Y-102342335D01*
X180248452Y-102457544D01*
X180248455Y-102457547D01*
X180363664Y-102543793D01*
X180363671Y-102543797D01*
X180498517Y-102594091D01*
X180498516Y-102594091D01*
X180505444Y-102594835D01*
X180558127Y-102600500D01*
X182153872Y-102600499D01*
X182213483Y-102594091D01*
X182348331Y-102543796D01*
X182463546Y-102457546D01*
X182549796Y-102342331D01*
X182572609Y-102281167D01*
X182614480Y-102225233D01*
X182679944Y-102200816D01*
X182688791Y-102200500D01*
X184063331Y-102200500D01*
X184063347Y-102200501D01*
X184070943Y-102200501D01*
X184229054Y-102200501D01*
X184229057Y-102200501D01*
X184381785Y-102159577D01*
X184431904Y-102130639D01*
X184518716Y-102080520D01*
X184630520Y-101968716D01*
X184630520Y-101968714D01*
X184640728Y-101958507D01*
X184640730Y-101958504D01*
X186775726Y-99823507D01*
X186837047Y-99790024D01*
X186906739Y-99795008D01*
X186962672Y-99836880D01*
X186964969Y-99840051D01*
X186989174Y-99874620D01*
X187145380Y-100030826D01*
X187145383Y-100030828D01*
X187145384Y-100030829D01*
X187326333Y-100157531D01*
X187326335Y-100157532D01*
X187326338Y-100157534D01*
X187526550Y-100250894D01*
X187739932Y-100308070D01*
X187897123Y-100321822D01*
X187959998Y-100327323D01*
X187960000Y-100327323D01*
X187960002Y-100327323D01*
X188015017Y-100322509D01*
X188180068Y-100308070D01*
X188393450Y-100250894D01*
X188593662Y-100157534D01*
X188774620Y-100030826D01*
X188835319Y-99970127D01*
X188896642Y-99936642D01*
X188966334Y-99941626D01*
X189022267Y-99983498D01*
X189046684Y-100048962D01*
X189047000Y-100057808D01*
X189047000Y-104384811D01*
X189027315Y-104451850D01*
X189010681Y-104472492D01*
X187657492Y-105825681D01*
X187596169Y-105859166D01*
X187569811Y-105862000D01*
X181412548Y-105862000D01*
X181345509Y-105842315D01*
X181324871Y-105825685D01*
X181179139Y-105679953D01*
X181179138Y-105679952D01*
X181179137Y-105679951D01*
X180992734Y-105549432D01*
X180992732Y-105549431D01*
X180786497Y-105453261D01*
X180786488Y-105453258D01*
X180566697Y-105394366D01*
X180566693Y-105394365D01*
X180566692Y-105394365D01*
X180566691Y-105394364D01*
X180566686Y-105394364D01*
X180340002Y-105374532D01*
X180339998Y-105374532D01*
X180113313Y-105394364D01*
X180113302Y-105394366D01*
X179893511Y-105453258D01*
X179893502Y-105453261D01*
X179687267Y-105549431D01*
X179687265Y-105549432D01*
X179500860Y-105679953D01*
X179339954Y-105840858D01*
X179209432Y-106027265D01*
X179209431Y-106027267D01*
X179113261Y-106233502D01*
X179113258Y-106233511D01*
X179054366Y-106453302D01*
X179054364Y-106453313D01*
X179034532Y-106679998D01*
X179034532Y-106680001D01*
X179054364Y-106906686D01*
X179054366Y-106906697D01*
X179113258Y-107126488D01*
X179113261Y-107126497D01*
X179209431Y-107332732D01*
X179209432Y-107332734D01*
X179339954Y-107519141D01*
X179500858Y-107680045D01*
X179500861Y-107680047D01*
X179687266Y-107810568D01*
X179893504Y-107906739D01*
X179893509Y-107906740D01*
X179893511Y-107906741D01*
X179920595Y-107913998D01*
X180113308Y-107965635D01*
X180275230Y-107979801D01*
X180339998Y-107985468D01*
X180340000Y-107985468D01*
X180340002Y-107985468D01*
X180396673Y-107980509D01*
X180566692Y-107965635D01*
X180786496Y-107906739D01*
X180992734Y-107810568D01*
X181179139Y-107680047D01*
X181324868Y-107534317D01*
X181386189Y-107500834D01*
X181412548Y-107498000D01*
X188040567Y-107498000D01*
X188040568Y-107497999D01*
X188198602Y-107466565D01*
X188273035Y-107435733D01*
X188347468Y-107404903D01*
X188481445Y-107315382D01*
X190386442Y-105410383D01*
X190386445Y-105410382D01*
X190500382Y-105296445D01*
X190538774Y-105238987D01*
X190566440Y-105197583D01*
X190589900Y-105162473D01*
X190589900Y-105162471D01*
X190589903Y-105162468D01*
X190611676Y-105109902D01*
X190620733Y-105088037D01*
X190620733Y-105088035D01*
X190651565Y-105013602D01*
X190683000Y-104855566D01*
X190683000Y-99059997D01*
X212092677Y-99059997D01*
X212092677Y-99060002D01*
X212111929Y-99280062D01*
X212111930Y-99280070D01*
X212169104Y-99493445D01*
X212169105Y-99493447D01*
X212169106Y-99493450D01*
X212247003Y-99660501D01*
X212262466Y-99693662D01*
X212262468Y-99693666D01*
X212389170Y-99874615D01*
X212389175Y-99874621D01*
X212545378Y-100030824D01*
X212545384Y-100030829D01*
X212726333Y-100157531D01*
X212726335Y-100157532D01*
X212726338Y-100157534D01*
X212926550Y-100250894D01*
X213139932Y-100308070D01*
X213297123Y-100321822D01*
X213359998Y-100327323D01*
X213360000Y-100327323D01*
X213360002Y-100327323D01*
X213415017Y-100322509D01*
X213580068Y-100308070D01*
X213793450Y-100250894D01*
X213993662Y-100157534D01*
X214174620Y-100030826D01*
X214291127Y-99914319D01*
X214352450Y-99880834D01*
X214378808Y-99878000D01*
X215565434Y-99878000D01*
X215726566Y-99878000D01*
X215763811Y-99878000D01*
X215830850Y-99897685D01*
X215851492Y-99914319D01*
X219720681Y-103783508D01*
X219754166Y-103844831D01*
X219757000Y-103871189D01*
X219757000Y-105185087D01*
X219737315Y-105252126D01*
X219684511Y-105297881D01*
X219676333Y-105301269D01*
X219582671Y-105336202D01*
X219582664Y-105336206D01*
X219467455Y-105422452D01*
X219467452Y-105422455D01*
X219381206Y-105537664D01*
X219381202Y-105537671D01*
X219330908Y-105672517D01*
X219324501Y-105732116D01*
X219324501Y-105732123D01*
X219324500Y-105732135D01*
X219324500Y-107627870D01*
X219324501Y-107627876D01*
X219330908Y-107687483D01*
X219381202Y-107822328D01*
X219381206Y-107822335D01*
X219467452Y-107937544D01*
X219467455Y-107937547D01*
X219582664Y-108023793D01*
X219582671Y-108023797D01*
X219717517Y-108074091D01*
X219717516Y-108074091D01*
X219724444Y-108074835D01*
X219777127Y-108080500D01*
X221372872Y-108080499D01*
X221432483Y-108074091D01*
X221567331Y-108023796D01*
X221682546Y-107937546D01*
X221768796Y-107822331D01*
X221819091Y-107687483D01*
X221825500Y-107627873D01*
X221825500Y-107627844D01*
X222925000Y-107627844D01*
X222931401Y-107687372D01*
X222931403Y-107687379D01*
X222981645Y-107822086D01*
X222981649Y-107822093D01*
X223067809Y-107937187D01*
X223067812Y-107937190D01*
X223182906Y-108023350D01*
X223182913Y-108023354D01*
X223317620Y-108073596D01*
X223317627Y-108073598D01*
X223377155Y-108079999D01*
X223377172Y-108080000D01*
X223925000Y-108080000D01*
X224425000Y-108080000D01*
X224972828Y-108080000D01*
X224972844Y-108079999D01*
X225032372Y-108073598D01*
X225032379Y-108073596D01*
X225167086Y-108023354D01*
X225167093Y-108023350D01*
X225282187Y-107937190D01*
X225282190Y-107937187D01*
X225368350Y-107822093D01*
X225368354Y-107822086D01*
X225418596Y-107687379D01*
X225418598Y-107687372D01*
X225424999Y-107627844D01*
X226945000Y-107627844D01*
X226951401Y-107687372D01*
X226951403Y-107687379D01*
X227001645Y-107822086D01*
X227001649Y-107822093D01*
X227087809Y-107937187D01*
X227087812Y-107937190D01*
X227202906Y-108023350D01*
X227202913Y-108023354D01*
X227337620Y-108073596D01*
X227337627Y-108073598D01*
X227397155Y-108079999D01*
X227397172Y-108080000D01*
X227945000Y-108080000D01*
X228445000Y-108080000D01*
X228992828Y-108080000D01*
X228992844Y-108079999D01*
X229052372Y-108073598D01*
X229052379Y-108073596D01*
X229187086Y-108023354D01*
X229187093Y-108023350D01*
X229302187Y-107937190D01*
X229302190Y-107937187D01*
X229388350Y-107822093D01*
X229388354Y-107822086D01*
X229438596Y-107687379D01*
X229438598Y-107687372D01*
X229444999Y-107627844D01*
X229445000Y-107627827D01*
X229445000Y-106930000D01*
X228445000Y-106930000D01*
X228445000Y-108080000D01*
X227945000Y-108080000D01*
X227945000Y-106930000D01*
X226945000Y-106930000D01*
X226945000Y-107627844D01*
X225424999Y-107627844D01*
X225425000Y-107627827D01*
X225425000Y-106930000D01*
X224425000Y-106930000D01*
X224425000Y-108080000D01*
X223925000Y-108080000D01*
X223925000Y-106930000D01*
X222925000Y-106930000D01*
X222925000Y-107627844D01*
X221825500Y-107627844D01*
X221825499Y-105732155D01*
X222925000Y-105732155D01*
X222925000Y-106430000D01*
X223925000Y-106430000D01*
X224425000Y-106430000D01*
X225425000Y-106430000D01*
X225425000Y-105732172D01*
X225424999Y-105732155D01*
X226945000Y-105732155D01*
X226945000Y-106430000D01*
X227945000Y-106430000D01*
X228445000Y-106430000D01*
X229445000Y-106430000D01*
X229445000Y-105732172D01*
X229444999Y-105732155D01*
X229438598Y-105672627D01*
X229438596Y-105672620D01*
X229388354Y-105537913D01*
X229388350Y-105537906D01*
X229302190Y-105422812D01*
X229302187Y-105422809D01*
X229187093Y-105336649D01*
X229187086Y-105336645D01*
X229052379Y-105286403D01*
X229052372Y-105286401D01*
X228992844Y-105280000D01*
X228445000Y-105280000D01*
X228445000Y-106430000D01*
X227945000Y-106430000D01*
X227945000Y-105280000D01*
X227397155Y-105280000D01*
X227337627Y-105286401D01*
X227337620Y-105286403D01*
X227202913Y-105336645D01*
X227202906Y-105336649D01*
X227087812Y-105422809D01*
X227087809Y-105422812D01*
X227001649Y-105537906D01*
X227001645Y-105537913D01*
X226951403Y-105672620D01*
X226951401Y-105672627D01*
X226945000Y-105732155D01*
X225424999Y-105732155D01*
X225418598Y-105672627D01*
X225418596Y-105672620D01*
X225368354Y-105537913D01*
X225368350Y-105537906D01*
X225282190Y-105422812D01*
X225282187Y-105422809D01*
X225167093Y-105336649D01*
X225167086Y-105336645D01*
X225032379Y-105286403D01*
X225032372Y-105286401D01*
X224972844Y-105280000D01*
X224425000Y-105280000D01*
X224425000Y-106430000D01*
X223925000Y-106430000D01*
X223925000Y-105280000D01*
X223377155Y-105280000D01*
X223317627Y-105286401D01*
X223317620Y-105286403D01*
X223182913Y-105336645D01*
X223182906Y-105336649D01*
X223067812Y-105422809D01*
X223067809Y-105422812D01*
X222981649Y-105537906D01*
X222981645Y-105537913D01*
X222931403Y-105672620D01*
X222931401Y-105672627D01*
X222925000Y-105732155D01*
X221825499Y-105732155D01*
X221825499Y-105732128D01*
X221819091Y-105672517D01*
X221807628Y-105641784D01*
X221768797Y-105537671D01*
X221768793Y-105537664D01*
X221682547Y-105422455D01*
X221682544Y-105422452D01*
X221567335Y-105336206D01*
X221567328Y-105336202D01*
X221473667Y-105301269D01*
X221417733Y-105259398D01*
X221393316Y-105193933D01*
X221393000Y-105185087D01*
X221393000Y-103400433D01*
X221392999Y-103400429D01*
X221374783Y-103308849D01*
X221361565Y-103242398D01*
X221330733Y-103167965D01*
X221299903Y-103093533D01*
X221235148Y-102996620D01*
X221210382Y-102959555D01*
X221096445Y-102845618D01*
X218945201Y-100694374D01*
X216675448Y-98424620D01*
X216675444Y-98424617D01*
X216649270Y-98407128D01*
X216604465Y-98353516D01*
X216595758Y-98284191D01*
X216625913Y-98221163D01*
X216630461Y-98216364D01*
X219101259Y-95745566D01*
X219162580Y-95712083D01*
X219225487Y-95714757D01*
X219308228Y-95740280D01*
X219308229Y-95740280D01*
X219308232Y-95740281D01*
X219575063Y-95780499D01*
X219575068Y-95780499D01*
X219575071Y-95780500D01*
X219575072Y-95780500D01*
X219844928Y-95780500D01*
X219844929Y-95780500D01*
X219844936Y-95780499D01*
X220111767Y-95740281D01*
X220111768Y-95740280D01*
X220111772Y-95740280D01*
X220369641Y-95660738D01*
X220612775Y-95543651D01*
X220835741Y-95391635D01*
X221009403Y-95230500D01*
X221033557Y-95208089D01*
X221033557Y-95208087D01*
X221033561Y-95208085D01*
X221201815Y-94997102D01*
X221336743Y-94763398D01*
X221435334Y-94512195D01*
X221495383Y-94249103D01*
X221507039Y-94093559D01*
X221515549Y-93980004D01*
X221515549Y-93979995D01*
X223504451Y-93979995D01*
X223504451Y-93980004D01*
X223524616Y-94249101D01*
X223584664Y-94512188D01*
X223584666Y-94512195D01*
X223664073Y-94714520D01*
X223683257Y-94763398D01*
X223818185Y-94997102D01*
X223890312Y-95087546D01*
X223986442Y-95208089D01*
X224138932Y-95349578D01*
X224184259Y-95391635D01*
X224407226Y-95543651D01*
X224650359Y-95660738D01*
X224908228Y-95740280D01*
X224908229Y-95740280D01*
X224908232Y-95740281D01*
X225175063Y-95780499D01*
X225175068Y-95780499D01*
X225175071Y-95780500D01*
X225175072Y-95780500D01*
X225444928Y-95780500D01*
X225444929Y-95780500D01*
X225444936Y-95780499D01*
X225711767Y-95740281D01*
X225711768Y-95740280D01*
X225711772Y-95740280D01*
X225969641Y-95660738D01*
X226212775Y-95543651D01*
X226435741Y-95391635D01*
X226609403Y-95230500D01*
X226633557Y-95208089D01*
X226633557Y-95208087D01*
X226633561Y-95208085D01*
X226801815Y-94997102D01*
X226880971Y-94859999D01*
X226931537Y-94811785D01*
X226988357Y-94798000D01*
X230706000Y-94798000D01*
X230773039Y-94817685D01*
X230818794Y-94870489D01*
X230830000Y-94922000D01*
X230830000Y-105253674D01*
X230810315Y-105320713D01*
X230780312Y-105352940D01*
X230687452Y-105422455D01*
X230601206Y-105537664D01*
X230601202Y-105537671D01*
X230550908Y-105672517D01*
X230544501Y-105732116D01*
X230544501Y-105732123D01*
X230544500Y-105732135D01*
X230544500Y-107627870D01*
X230544501Y-107627876D01*
X230550908Y-107687483D01*
X230601202Y-107822328D01*
X230601206Y-107822335D01*
X230687452Y-107937544D01*
X230687455Y-107937547D01*
X230802664Y-108023793D01*
X230802671Y-108023797D01*
X230937517Y-108074091D01*
X230937516Y-108074091D01*
X230944444Y-108074835D01*
X230997127Y-108080500D01*
X232592872Y-108080499D01*
X232652483Y-108074091D01*
X232787331Y-108023796D01*
X232902546Y-107937546D01*
X232988796Y-107822331D01*
X233039091Y-107687483D01*
X233045500Y-107627873D01*
X233045499Y-105732128D01*
X233039091Y-105672517D01*
X233027628Y-105641784D01*
X232988797Y-105537671D01*
X232988793Y-105537664D01*
X232902547Y-105422455D01*
X232902544Y-105422452D01*
X232787335Y-105336206D01*
X232787328Y-105336202D01*
X232652482Y-105285908D01*
X232652483Y-105285908D01*
X232592883Y-105279501D01*
X232592881Y-105279500D01*
X232592873Y-105279500D01*
X232592865Y-105279500D01*
X232590000Y-105279500D01*
X232522961Y-105259815D01*
X232477206Y-105207011D01*
X232466000Y-105155500D01*
X232466000Y-104574000D01*
X232485685Y-104506961D01*
X232538489Y-104461206D01*
X232590000Y-104450000D01*
X236143000Y-104450000D01*
X236210039Y-104469685D01*
X236255794Y-104522489D01*
X236267000Y-104574000D01*
X236267000Y-105185087D01*
X236247315Y-105252126D01*
X236194511Y-105297881D01*
X236186333Y-105301269D01*
X236092671Y-105336202D01*
X236092664Y-105336206D01*
X235977455Y-105422452D01*
X235977452Y-105422455D01*
X235891206Y-105537664D01*
X235891202Y-105537671D01*
X235840908Y-105672517D01*
X235834501Y-105732116D01*
X235834501Y-105732123D01*
X235834500Y-105732135D01*
X235834500Y-107627870D01*
X235834501Y-107627876D01*
X235840908Y-107687483D01*
X235891202Y-107822328D01*
X235891206Y-107822335D01*
X235977452Y-107937544D01*
X235977455Y-107937547D01*
X236092664Y-108023793D01*
X236092671Y-108023797D01*
X236227517Y-108074091D01*
X236227516Y-108074091D01*
X236234444Y-108074835D01*
X236287127Y-108080500D01*
X237882872Y-108080499D01*
X237942483Y-108074091D01*
X238077331Y-108023796D01*
X238192546Y-107937546D01*
X238278796Y-107822331D01*
X238329091Y-107687483D01*
X238335500Y-107627873D01*
X238335499Y-105732128D01*
X238329091Y-105672517D01*
X238317628Y-105641784D01*
X238278797Y-105537671D01*
X238278793Y-105537664D01*
X238192547Y-105422455D01*
X238192544Y-105422452D01*
X238077335Y-105336206D01*
X238077328Y-105336202D01*
X237983667Y-105301269D01*
X237927733Y-105259398D01*
X237903316Y-105193933D01*
X237903000Y-105185087D01*
X237903000Y-103654433D01*
X237902999Y-103654429D01*
X237871566Y-103496405D01*
X237871565Y-103496398D01*
X237828901Y-103393398D01*
X237809903Y-103347532D01*
X237809902Y-103347530D01*
X237809901Y-103347528D01*
X237720382Y-103213555D01*
X237720379Y-103213551D01*
X237503448Y-102996620D01*
X237503444Y-102996617D01*
X237369474Y-102907100D01*
X237369461Y-102907093D01*
X237220606Y-102845436D01*
X237220594Y-102845433D01*
X237062570Y-102814000D01*
X237062566Y-102814000D01*
X232590000Y-102814000D01*
X232522961Y-102794315D01*
X232477206Y-102741511D01*
X232466000Y-102690000D01*
X232466000Y-94922000D01*
X232485685Y-94854961D01*
X232538489Y-94809206D01*
X232590000Y-94798000D01*
X234021643Y-94798000D01*
X234088682Y-94817685D01*
X234129028Y-94859998D01*
X234208185Y-94997102D01*
X234280312Y-95087546D01*
X234376442Y-95208089D01*
X234528932Y-95349578D01*
X234574259Y-95391635D01*
X234797226Y-95543651D01*
X235040359Y-95660738D01*
X235298228Y-95740280D01*
X235298229Y-95740280D01*
X235298232Y-95740281D01*
X235565063Y-95780499D01*
X235565068Y-95780499D01*
X235565071Y-95780500D01*
X235565072Y-95780500D01*
X235834928Y-95780500D01*
X235834929Y-95780500D01*
X235834936Y-95780499D01*
X236101767Y-95740281D01*
X236101768Y-95740280D01*
X236101772Y-95740280D01*
X236359641Y-95660738D01*
X236602775Y-95543651D01*
X236825741Y-95391635D01*
X236999403Y-95230500D01*
X237023557Y-95208089D01*
X237023557Y-95208087D01*
X237023561Y-95208085D01*
X237191815Y-94997102D01*
X237326743Y-94763398D01*
X237425334Y-94512195D01*
X237485383Y-94249103D01*
X237497039Y-94093559D01*
X237505549Y-93980004D01*
X237505549Y-93979995D01*
X237485383Y-93710898D01*
X237485383Y-93710897D01*
X237425334Y-93447805D01*
X237326743Y-93196602D01*
X237191815Y-92962898D01*
X237023561Y-92751915D01*
X237023560Y-92751914D01*
X237023557Y-92751910D01*
X236825741Y-92568365D01*
X236683235Y-92471206D01*
X236602775Y-92416349D01*
X236602769Y-92416346D01*
X236602768Y-92416345D01*
X236602767Y-92416344D01*
X236359643Y-92299263D01*
X236359645Y-92299263D01*
X236101773Y-92219720D01*
X236101767Y-92219718D01*
X235834936Y-92179500D01*
X235834929Y-92179500D01*
X235565071Y-92179500D01*
X235565063Y-92179500D01*
X235298232Y-92219718D01*
X235298226Y-92219720D01*
X235040358Y-92299262D01*
X234797230Y-92416346D01*
X234574258Y-92568365D01*
X234376442Y-92751910D01*
X234227205Y-92939048D01*
X234208185Y-92962898D01*
X234193887Y-92987664D01*
X234129030Y-93100000D01*
X234078463Y-93148215D01*
X234021643Y-93162000D01*
X226988357Y-93162000D01*
X226921318Y-93142315D01*
X226880970Y-93100000D01*
X226870193Y-93081333D01*
X226801815Y-92962898D01*
X226633561Y-92751915D01*
X226633560Y-92751914D01*
X226633557Y-92751910D01*
X226435741Y-92568365D01*
X226293235Y-92471206D01*
X226212775Y-92416349D01*
X226212769Y-92416346D01*
X226212768Y-92416345D01*
X226212767Y-92416344D01*
X225969643Y-92299263D01*
X225969645Y-92299263D01*
X225711773Y-92219720D01*
X225711767Y-92219718D01*
X225444936Y-92179500D01*
X225444929Y-92179500D01*
X225175071Y-92179500D01*
X225175063Y-92179500D01*
X224908232Y-92219718D01*
X224908226Y-92219720D01*
X224650358Y-92299262D01*
X224407230Y-92416346D01*
X224184258Y-92568365D01*
X223986442Y-92751910D01*
X223818185Y-92962898D01*
X223683258Y-93196599D01*
X223683256Y-93196603D01*
X223584666Y-93447804D01*
X223584664Y-93447811D01*
X223524616Y-93710898D01*
X223504451Y-93979995D01*
X221515549Y-93979995D01*
X221495383Y-93710898D01*
X221495383Y-93710897D01*
X221435334Y-93447805D01*
X221336743Y-93196602D01*
X221201815Y-92962898D01*
X221033561Y-92751915D01*
X221033560Y-92751914D01*
X221033557Y-92751910D01*
X220835741Y-92568365D01*
X220693235Y-92471206D01*
X220612775Y-92416349D01*
X220612769Y-92416346D01*
X220612768Y-92416345D01*
X220612767Y-92416344D01*
X220369643Y-92299263D01*
X220369645Y-92299263D01*
X220111773Y-92219720D01*
X220111767Y-92219718D01*
X219844936Y-92179500D01*
X219844929Y-92179500D01*
X219575071Y-92179500D01*
X219575063Y-92179500D01*
X219308232Y-92219718D01*
X219308226Y-92219720D01*
X219050358Y-92299262D01*
X218807230Y-92416346D01*
X218584258Y-92568365D01*
X218386442Y-92751910D01*
X218218185Y-92962898D01*
X218083258Y-93196599D01*
X218083256Y-93196603D01*
X217984666Y-93447804D01*
X217984664Y-93447811D01*
X217924616Y-93710898D01*
X217904451Y-93979995D01*
X217904451Y-93980004D01*
X217924616Y-94249101D01*
X217924616Y-94249103D01*
X217976163Y-94474945D01*
X217971890Y-94544683D01*
X217942953Y-94590218D01*
X215010620Y-97522551D01*
X215010617Y-97522555D01*
X214921100Y-97656525D01*
X214921093Y-97656538D01*
X214859436Y-97805393D01*
X214859433Y-97805405D01*
X214828000Y-97963429D01*
X214828000Y-98118000D01*
X214808315Y-98185039D01*
X214755511Y-98230794D01*
X214704000Y-98242000D01*
X214378808Y-98242000D01*
X214311769Y-98222315D01*
X214291127Y-98205681D01*
X214174621Y-98089175D01*
X214174615Y-98089170D01*
X213993666Y-97962468D01*
X213993662Y-97962466D01*
X213993660Y-97962465D01*
X213793450Y-97869106D01*
X213793447Y-97869105D01*
X213793445Y-97869104D01*
X213580070Y-97811930D01*
X213580062Y-97811929D01*
X213360002Y-97792677D01*
X213359998Y-97792677D01*
X213139937Y-97811929D01*
X213139929Y-97811930D01*
X212926554Y-97869104D01*
X212926548Y-97869107D01*
X212726340Y-97962465D01*
X212726338Y-97962466D01*
X212545377Y-98089175D01*
X212389175Y-98245377D01*
X212262466Y-98426338D01*
X212262465Y-98426340D01*
X212169107Y-98626548D01*
X212169104Y-98626554D01*
X212111930Y-98839929D01*
X212111929Y-98839937D01*
X212092677Y-99059997D01*
X190683000Y-99059997D01*
X190683000Y-94534434D01*
X190651565Y-94376398D01*
X190635868Y-94338501D01*
X190623109Y-94307698D01*
X190589905Y-94227536D01*
X190589903Y-94227532D01*
X190571553Y-94200070D01*
X190536238Y-94147219D01*
X190500382Y-94093555D01*
X190386445Y-93979618D01*
X190386444Y-93979617D01*
X190382114Y-93975287D01*
X190382103Y-93975277D01*
X189751448Y-93344620D01*
X189751444Y-93344617D01*
X189617474Y-93255100D01*
X189617461Y-93255093D01*
X189468606Y-93193436D01*
X189468594Y-93193433D01*
X189310570Y-93162000D01*
X189310566Y-93162000D01*
X188978808Y-93162000D01*
X188911769Y-93142315D01*
X188891127Y-93125681D01*
X188774621Y-93009175D01*
X188774615Y-93009170D01*
X188593666Y-92882468D01*
X188593662Y-92882466D01*
X188572191Y-92872454D01*
X188393450Y-92789106D01*
X188393447Y-92789105D01*
X188393445Y-92789104D01*
X188180070Y-92731930D01*
X188180062Y-92731929D01*
X187960002Y-92712677D01*
X187959998Y-92712677D01*
X187739937Y-92731929D01*
X187739929Y-92731930D01*
X187526554Y-92789104D01*
X187526548Y-92789107D01*
X187326340Y-92882465D01*
X187326338Y-92882466D01*
X187145377Y-93009175D01*
X186989175Y-93165377D01*
X186862466Y-93346338D01*
X186862465Y-93346340D01*
X186769107Y-93546548D01*
X186769104Y-93546554D01*
X186711930Y-93759929D01*
X186711929Y-93759937D01*
X186692677Y-93979997D01*
X186692677Y-93980002D01*
X186711929Y-94200062D01*
X186711930Y-94200070D01*
X186769104Y-94413445D01*
X186769105Y-94413447D01*
X186769106Y-94413450D01*
X186825519Y-94534429D01*
X186862466Y-94613662D01*
X186862468Y-94613666D01*
X186989170Y-94794615D01*
X186989175Y-94794621D01*
X187145378Y-94950824D01*
X187145384Y-94950829D01*
X187326333Y-95077531D01*
X187326335Y-95077532D01*
X187326338Y-95077534D01*
X187526550Y-95170894D01*
X187739932Y-95228070D01*
X187897123Y-95241822D01*
X187959998Y-95247323D01*
X187960000Y-95247323D01*
X187960002Y-95247323D01*
X188015017Y-95242509D01*
X188180068Y-95228070D01*
X188393450Y-95170894D01*
X188593662Y-95077534D01*
X188774620Y-94950826D01*
X188821628Y-94903817D01*
X188882950Y-94870332D01*
X188952641Y-94875316D01*
X188996990Y-94903817D01*
X189010681Y-94917508D01*
X189044166Y-94978831D01*
X189047000Y-95005189D01*
X189047000Y-98062191D01*
X189027315Y-98129230D01*
X188974511Y-98174985D01*
X188905353Y-98184929D01*
X188841797Y-98155904D01*
X188835319Y-98149873D01*
X188810349Y-98124903D01*
X188774620Y-98089174D01*
X188774616Y-98089171D01*
X188774615Y-98089170D01*
X188593666Y-97962468D01*
X188593662Y-97962466D01*
X188593660Y-97962465D01*
X188393450Y-97869106D01*
X188393447Y-97869105D01*
X188393445Y-97869104D01*
X188180070Y-97811930D01*
X188180062Y-97811929D01*
X187960002Y-97792677D01*
X187959998Y-97792677D01*
X187739937Y-97811929D01*
X187739929Y-97811930D01*
X187526554Y-97869104D01*
X187526548Y-97869107D01*
X187326340Y-97962465D01*
X187326338Y-97962466D01*
X187145377Y-98089175D01*
X186989175Y-98245377D01*
X186876271Y-98406623D01*
X186821694Y-98450248D01*
X186774696Y-98459500D01*
X186610940Y-98459500D01*
X186570019Y-98470464D01*
X186570019Y-98470465D01*
X186556614Y-98474057D01*
X186458214Y-98500423D01*
X186458209Y-98500426D01*
X186321290Y-98579475D01*
X186321282Y-98579481D01*
X186258313Y-98642451D01*
X186209480Y-98691284D01*
X186209478Y-98691286D01*
X185060697Y-99840068D01*
X183937584Y-100963181D01*
X183876261Y-100996666D01*
X183849903Y-100999500D01*
X182688791Y-100999500D01*
X182621752Y-100979815D01*
X182575997Y-100927011D01*
X182572609Y-100918833D01*
X182549796Y-100857669D01*
X182549795Y-100857668D01*
X182540976Y-100845887D01*
X182516558Y-100780423D01*
X182525679Y-100724128D01*
X182568051Y-100621835D01*
X182606500Y-100428541D01*
X182606500Y-100231459D01*
X182606500Y-100231456D01*
X182568052Y-100038170D01*
X182568051Y-100038169D01*
X182568051Y-100038165D01*
X182565010Y-100030824D01*
X182492635Y-99856092D01*
X182492628Y-99856079D01*
X182430728Y-99763440D01*
X182409850Y-99696763D01*
X182428334Y-99629383D01*
X182430729Y-99625657D01*
X182492189Y-99533676D01*
X182492191Y-99533673D01*
X182567569Y-99351692D01*
X182567569Y-99351690D01*
X182575862Y-99310000D01*
X181471057Y-99310000D01*
X181511775Y-99293134D01*
X181589134Y-99215775D01*
X181631000Y-99114701D01*
X181631000Y-99005299D01*
X181589134Y-98904225D01*
X181511775Y-98826866D01*
X181471057Y-98810000D01*
X181606000Y-98810000D01*
X182575862Y-98810000D01*
X182567569Y-98768309D01*
X182567569Y-98768307D01*
X182492192Y-98586328D01*
X182492185Y-98586315D01*
X182382751Y-98422537D01*
X182382748Y-98422533D01*
X182243466Y-98283251D01*
X182243462Y-98283248D01*
X182079684Y-98173814D01*
X182079671Y-98173807D01*
X181897693Y-98098430D01*
X181897681Y-98098427D01*
X181704495Y-98060000D01*
X181606000Y-98060000D01*
X181606000Y-98810000D01*
X181471057Y-98810000D01*
X181410701Y-98785000D01*
X181301299Y-98785000D01*
X181200225Y-98826866D01*
X181122866Y-98904225D01*
X181081000Y-99005299D01*
X181081000Y-99114701D01*
X181122866Y-99215775D01*
X181200225Y-99293134D01*
X181240943Y-99310000D01*
X180136138Y-99310000D01*
X180144430Y-99351690D01*
X180144430Y-99351692D01*
X180219807Y-99533671D01*
X180219812Y-99533680D01*
X180221768Y-99536607D01*
X180222321Y-99538375D01*
X180222684Y-99539053D01*
X180222555Y-99539121D01*
X180242647Y-99603284D01*
X180224164Y-99670665D01*
X180172186Y-99717356D01*
X180118667Y-99729500D01*
X178100097Y-99729500D01*
X178033058Y-99709815D01*
X178012416Y-99693181D01*
X177129235Y-98810000D01*
X180136138Y-98810000D01*
X181106000Y-98810000D01*
X181106000Y-98060000D01*
X181007504Y-98060000D01*
X180814318Y-98098427D01*
X180814306Y-98098430D01*
X180632328Y-98173807D01*
X180632315Y-98173814D01*
X180468537Y-98283248D01*
X180468533Y-98283251D01*
X180329251Y-98422533D01*
X180329248Y-98422537D01*
X180219814Y-98586315D01*
X180219807Y-98586328D01*
X180144430Y-98768307D01*
X180144430Y-98768309D01*
X180136138Y-98810000D01*
X177129235Y-98810000D01*
X176531819Y-98212584D01*
X176498334Y-98151261D01*
X176495500Y-98124903D01*
X176495500Y-96609060D01*
X176495501Y-96609047D01*
X176495501Y-96440944D01*
X176472451Y-96354921D01*
X176454577Y-96288216D01*
X176444060Y-96270000D01*
X176375524Y-96151290D01*
X176375518Y-96151282D01*
X176064534Y-95840298D01*
X175747589Y-95523354D01*
X175747588Y-95523352D01*
X175628717Y-95404481D01*
X175628716Y-95404480D01*
X175541904Y-95354360D01*
X175541904Y-95354359D01*
X175541900Y-95354358D01*
X175491785Y-95325423D01*
X175339057Y-95284499D01*
X175180943Y-95284499D01*
X175173347Y-95284499D01*
X175173331Y-95284500D01*
X172474471Y-95284500D01*
X172474455Y-95284499D01*
X172466859Y-95284499D01*
X172308744Y-95284499D01*
X172261173Y-95297246D01*
X172156015Y-95325423D01*
X172156010Y-95325426D01*
X172019091Y-95404475D01*
X172019083Y-95404481D01*
X171694219Y-95729345D01*
X171694216Y-95729347D01*
X171694217Y-95729348D01*
X171589481Y-95834084D01*
X171585894Y-95840298D01*
X171535327Y-95888514D01*
X171478506Y-95902299D01*
X171424312Y-95902299D01*
X171357273Y-95882614D01*
X171316925Y-95840300D01*
X171297088Y-95805942D01*
X171297088Y-95805940D01*
X171250526Y-95725292D01*
X171250523Y-95725288D01*
X171250522Y-95725286D01*
X171138718Y-95613482D01*
X171138717Y-95613481D01*
X171134387Y-95609151D01*
X171134376Y-95609141D01*
X169546819Y-94021584D01*
X169513334Y-93960261D01*
X169510500Y-93933903D01*
X169510500Y-90894500D01*
X169530185Y-90827461D01*
X169582989Y-90781706D01*
X169634500Y-90770500D01*
X171149903Y-90770500D01*
X171216942Y-90790185D01*
X171237584Y-90806819D01*
X172083181Y-91652416D01*
X172116666Y-91713739D01*
X172119500Y-91740097D01*
X172119500Y-91906435D01*
X172099815Y-91973474D01*
X172047011Y-92019229D01*
X171977853Y-92029173D01*
X171914297Y-92000148D01*
X171907819Y-91994116D01*
X171892202Y-91978499D01*
X171844357Y-91978499D01*
X171784826Y-91984900D01*
X171777275Y-91986685D01*
X171776690Y-91984213D01*
X171719340Y-91988307D01*
X171709284Y-91985353D01*
X171705291Y-91984409D01*
X171705283Y-91984408D01*
X171645673Y-91977999D01*
X171645663Y-91977999D01*
X171194329Y-91977999D01*
X171194323Y-91978000D01*
X171134720Y-91984407D01*
X171127174Y-91986191D01*
X171126682Y-91984111D01*
X171067909Y-91988305D01*
X171061013Y-91986280D01*
X171055174Y-91984900D01*
X170995646Y-91978499D01*
X170947802Y-91978499D01*
X170947802Y-92011610D01*
X170928117Y-92078649D01*
X170898115Y-92110875D01*
X170884658Y-92120948D01*
X170884654Y-92120953D01*
X170815468Y-92213373D01*
X170759534Y-92255243D01*
X170689843Y-92260227D01*
X170628520Y-92226741D01*
X170595035Y-92165418D01*
X170592202Y-92139061D01*
X170592202Y-91978499D01*
X170544357Y-91978499D01*
X170484829Y-91984900D01*
X170484822Y-91984902D01*
X170350115Y-92035144D01*
X170350108Y-92035148D01*
X170235014Y-92121308D01*
X170235011Y-92121311D01*
X170148851Y-92236405D01*
X170148847Y-92236412D01*
X170098605Y-92371119D01*
X170098603Y-92371126D01*
X170092202Y-92430654D01*
X170092202Y-92815049D01*
X170617700Y-92815049D01*
X170684739Y-92834734D01*
X170730494Y-92887538D01*
X170741700Y-92939048D01*
X170741701Y-93046648D01*
X170722017Y-93113687D01*
X170669214Y-93159443D01*
X170617701Y-93170649D01*
X170092202Y-93170649D01*
X170092202Y-93555043D01*
X170098603Y-93614571D01*
X170098605Y-93614578D01*
X170148847Y-93749285D01*
X170148851Y-93749292D01*
X170235011Y-93864386D01*
X170235014Y-93864389D01*
X170350108Y-93950549D01*
X170350115Y-93950553D01*
X170484822Y-94000795D01*
X170484829Y-94000797D01*
X170544357Y-94007198D01*
X170544374Y-94007199D01*
X170592202Y-94007199D01*
X170592202Y-93879843D01*
X170611887Y-93812804D01*
X170664691Y-93767049D01*
X170733849Y-93757105D01*
X170797405Y-93786130D01*
X170835179Y-93844908D01*
X170835961Y-93847692D01*
X170860423Y-93938984D01*
X170867354Y-93950989D01*
X170867356Y-93950996D01*
X170867358Y-93950996D01*
X170939475Y-94075908D01*
X170939481Y-94075916D01*
X171058349Y-94194784D01*
X171058355Y-94194789D01*
X171207940Y-94344374D01*
X171207950Y-94344385D01*
X171212280Y-94348715D01*
X171212281Y-94348716D01*
X171324085Y-94460520D01*
X171394970Y-94501445D01*
X171461016Y-94539577D01*
X171613744Y-94580501D01*
X171613747Y-94580501D01*
X171779454Y-94580501D01*
X171779470Y-94580500D01*
X175173331Y-94580500D01*
X175173347Y-94580501D01*
X175180943Y-94580501D01*
X175339054Y-94580501D01*
X175339057Y-94580501D01*
X175491785Y-94539577D01*
X175557831Y-94501445D01*
X175628716Y-94460520D01*
X175740520Y-94348716D01*
X175740520Y-94348714D01*
X175750724Y-94338511D01*
X175750727Y-94338506D01*
X176215522Y-93873713D01*
X177973500Y-93873713D01*
X177973500Y-94086286D01*
X177999287Y-94249103D01*
X178006754Y-94296243D01*
X178060131Y-94460521D01*
X178072444Y-94498414D01*
X178168951Y-94687820D01*
X178293890Y-94859786D01*
X178444213Y-95010109D01*
X178616179Y-95135048D01*
X178616181Y-95135049D01*
X178616184Y-95135051D01*
X178805588Y-95231557D01*
X179007757Y-95297246D01*
X179217713Y-95330500D01*
X179217714Y-95330500D01*
X179430286Y-95330500D01*
X179430287Y-95330500D01*
X179640243Y-95297246D01*
X179842412Y-95231557D01*
X180031816Y-95135051D01*
X180097200Y-95087547D01*
X180203786Y-95010109D01*
X180203788Y-95010106D01*
X180203792Y-95010104D01*
X180354104Y-94859792D01*
X180354106Y-94859788D01*
X180354109Y-94859786D01*
X180479048Y-94687820D01*
X180479047Y-94687820D01*
X180479051Y-94687816D01*
X180575557Y-94498412D01*
X180641246Y-94296243D01*
X180674500Y-94086287D01*
X180674500Y-93873713D01*
X180641246Y-93663757D01*
X180575557Y-93461588D01*
X180479051Y-93272184D01*
X180479049Y-93272181D01*
X180479048Y-93272179D01*
X180354109Y-93100213D01*
X180203786Y-92949890D01*
X180031820Y-92824951D01*
X179842414Y-92728444D01*
X179842413Y-92728443D01*
X179842412Y-92728443D01*
X179640243Y-92662754D01*
X179640241Y-92662753D01*
X179640240Y-92662753D01*
X179478957Y-92637208D01*
X179430287Y-92629500D01*
X179217713Y-92629500D01*
X179169042Y-92637208D01*
X179007760Y-92662753D01*
X178805585Y-92728444D01*
X178616179Y-92824951D01*
X178444213Y-92949890D01*
X178293890Y-93100213D01*
X178168951Y-93272179D01*
X178072444Y-93461585D01*
X178006753Y-93663760D01*
X177973500Y-93873713D01*
X176215522Y-93873713D01*
X176375520Y-93713716D01*
X176454577Y-93576784D01*
X176495501Y-93424057D01*
X176495501Y-93265942D01*
X176495501Y-93258347D01*
X176495500Y-93258329D01*
X176495500Y-90642155D01*
X246637150Y-90642155D01*
X246637150Y-91190000D01*
X248887150Y-91190000D01*
X248887150Y-90190000D01*
X247089305Y-90190000D01*
X247029777Y-90196401D01*
X247029770Y-90196403D01*
X246895063Y-90246645D01*
X246895056Y-90246649D01*
X246779962Y-90332809D01*
X246779959Y-90332812D01*
X246693799Y-90447906D01*
X246693795Y-90447913D01*
X246643553Y-90582620D01*
X246643551Y-90582627D01*
X246637150Y-90642155D01*
X176495500Y-90642155D01*
X176495500Y-90470097D01*
X176515185Y-90403058D01*
X176531819Y-90382416D01*
X177764235Y-89150000D01*
X180136138Y-89150000D01*
X180144430Y-89191690D01*
X180144430Y-89191692D01*
X180219807Y-89373671D01*
X180219814Y-89373684D01*
X180329248Y-89537462D01*
X180329251Y-89537466D01*
X180468533Y-89676748D01*
X180468537Y-89676751D01*
X180632315Y-89786185D01*
X180632328Y-89786192D01*
X180814306Y-89861569D01*
X180814318Y-89861572D01*
X181007504Y-89899999D01*
X181007508Y-89900000D01*
X181106000Y-89900000D01*
X181606000Y-89900000D01*
X181704492Y-89900000D01*
X181704495Y-89899999D01*
X181897681Y-89861572D01*
X181897693Y-89861569D01*
X182079671Y-89786192D01*
X182079684Y-89786185D01*
X182243462Y-89676751D01*
X182243466Y-89676748D01*
X182382748Y-89537466D01*
X182382751Y-89537462D01*
X182492185Y-89373684D01*
X182492192Y-89373671D01*
X182567569Y-89191692D01*
X182567569Y-89191690D01*
X182575862Y-89150000D01*
X181606000Y-89150000D01*
X181606000Y-89900000D01*
X181106000Y-89900000D01*
X181106000Y-89150000D01*
X180136138Y-89150000D01*
X177764235Y-89150000D01*
X178647416Y-88266819D01*
X178708739Y-88233334D01*
X178735097Y-88230500D01*
X180118667Y-88230500D01*
X180185706Y-88250185D01*
X180231461Y-88302989D01*
X180241405Y-88372147D01*
X180221772Y-88423387D01*
X180219809Y-88426324D01*
X180144430Y-88608307D01*
X180144430Y-88608309D01*
X180136138Y-88650000D01*
X181240943Y-88650000D01*
X181200225Y-88666866D01*
X181122866Y-88744225D01*
X181081000Y-88845299D01*
X181081000Y-88954701D01*
X181122866Y-89055775D01*
X181200225Y-89133134D01*
X181301299Y-89175000D01*
X181410701Y-89175000D01*
X181511775Y-89133134D01*
X181589134Y-89055775D01*
X181631000Y-88954701D01*
X181631000Y-88845299D01*
X181589134Y-88744225D01*
X181511775Y-88666866D01*
X181471057Y-88650000D01*
X182575862Y-88650000D01*
X182567569Y-88608309D01*
X182567569Y-88608307D01*
X182492192Y-88426328D01*
X182492188Y-88426321D01*
X182430728Y-88334341D01*
X182409850Y-88267663D01*
X182428334Y-88200283D01*
X182430704Y-88196595D01*
X182476511Y-88128040D01*
X182492627Y-88103922D01*
X182492628Y-88103919D01*
X182492632Y-88103914D01*
X182568051Y-87921835D01*
X182591795Y-87802466D01*
X182606500Y-87728543D01*
X182606500Y-87531456D01*
X182568052Y-87338170D01*
X182568051Y-87338169D01*
X182568051Y-87338165D01*
X182525680Y-87235873D01*
X182518212Y-87166407D01*
X182540977Y-87114111D01*
X182549796Y-87102331D01*
X182572609Y-87041167D01*
X182614480Y-86985233D01*
X182679944Y-86960816D01*
X182688791Y-86960500D01*
X183849903Y-86960500D01*
X183916942Y-86980185D01*
X183937584Y-86996819D01*
X186205139Y-89264374D01*
X186205149Y-89264385D01*
X186209479Y-89268715D01*
X186209480Y-89268716D01*
X186321284Y-89380520D01*
X186321286Y-89380521D01*
X186321290Y-89380524D01*
X186458209Y-89459573D01*
X186458216Y-89459577D01*
X186570019Y-89489534D01*
X186610942Y-89500500D01*
X186610943Y-89500500D01*
X186774695Y-89500500D01*
X186841734Y-89520185D01*
X186876270Y-89553377D01*
X186936475Y-89639358D01*
X186989174Y-89714620D01*
X187145380Y-89870826D01*
X187145382Y-89870827D01*
X187145384Y-89870829D01*
X187326333Y-89997531D01*
X187326335Y-89997532D01*
X187326338Y-89997534D01*
X187526550Y-90090894D01*
X187739932Y-90148070D01*
X187897123Y-90161822D01*
X187959998Y-90167323D01*
X187960000Y-90167323D01*
X187960002Y-90167323D01*
X188015017Y-90162509D01*
X188180068Y-90148070D01*
X188393450Y-90090894D01*
X188593662Y-89997534D01*
X188774620Y-89870826D01*
X188930826Y-89714620D01*
X189057534Y-89533662D01*
X189150894Y-89333450D01*
X189208070Y-89120068D01*
X189227323Y-88900000D01*
X189227323Y-88899999D01*
X212093179Y-88899999D01*
X212093179Y-88900000D01*
X212112424Y-89119976D01*
X212112426Y-89119986D01*
X212169575Y-89333270D01*
X212169580Y-89333284D01*
X212262898Y-89533405D01*
X212262901Y-89533411D01*
X212308258Y-89598187D01*
X212308259Y-89598188D01*
X212979000Y-88927447D01*
X212979000Y-88950160D01*
X213004964Y-89047061D01*
X213055124Y-89133940D01*
X213126060Y-89204876D01*
X213212939Y-89255036D01*
X213309840Y-89281000D01*
X213332553Y-89281000D01*
X212661810Y-89951740D01*
X212726590Y-89997099D01*
X212726592Y-89997100D01*
X212926715Y-90090419D01*
X212926729Y-90090424D01*
X213140013Y-90147573D01*
X213140023Y-90147575D01*
X213359999Y-90166821D01*
X213360001Y-90166821D01*
X213579976Y-90147575D01*
X213579986Y-90147573D01*
X213793270Y-90090424D01*
X213793284Y-90090419D01*
X213993407Y-89997100D01*
X213993417Y-89997094D01*
X214058188Y-89951741D01*
X213387448Y-89281000D01*
X213410160Y-89281000D01*
X213507061Y-89255036D01*
X213593940Y-89204876D01*
X213664876Y-89133940D01*
X213715036Y-89047061D01*
X213741000Y-88950160D01*
X213741000Y-88927447D01*
X214411741Y-89598188D01*
X214457094Y-89533417D01*
X214457100Y-89533407D01*
X214550419Y-89333284D01*
X214550424Y-89333270D01*
X214607573Y-89119986D01*
X214607575Y-89119976D01*
X214626821Y-88900000D01*
X214626821Y-88899999D01*
X214607575Y-88680023D01*
X214607573Y-88680013D01*
X214550424Y-88466729D01*
X214550420Y-88466720D01*
X214457096Y-88266586D01*
X214411741Y-88201811D01*
X214411740Y-88201810D01*
X213741000Y-88872551D01*
X213741000Y-88849840D01*
X213715036Y-88752939D01*
X213664876Y-88666060D01*
X213593940Y-88595124D01*
X213507061Y-88544964D01*
X213410160Y-88519000D01*
X213387448Y-88519000D01*
X214058188Y-87848259D01*
X214058187Y-87848258D01*
X213993411Y-87802901D01*
X213993405Y-87802898D01*
X213793284Y-87709580D01*
X213793270Y-87709575D01*
X213579986Y-87652426D01*
X213579976Y-87652424D01*
X213360001Y-87633179D01*
X213359999Y-87633179D01*
X213140023Y-87652424D01*
X213140013Y-87652426D01*
X212926729Y-87709575D01*
X212926720Y-87709579D01*
X212726590Y-87802901D01*
X212661811Y-87848258D01*
X213332553Y-88519000D01*
X213309840Y-88519000D01*
X213212939Y-88544964D01*
X213126060Y-88595124D01*
X213055124Y-88666060D01*
X213004964Y-88752939D01*
X212979000Y-88849840D01*
X212979000Y-88872552D01*
X212308258Y-88201811D01*
X212262901Y-88266590D01*
X212169579Y-88466720D01*
X212169575Y-88466729D01*
X212112426Y-88680013D01*
X212112424Y-88680023D01*
X212093179Y-88899999D01*
X189227323Y-88899999D01*
X189208070Y-88679932D01*
X189150894Y-88466550D01*
X189057534Y-88266339D01*
X188930826Y-88085380D01*
X188774620Y-87929174D01*
X188774616Y-87929171D01*
X188774615Y-87929170D01*
X188593666Y-87802468D01*
X188593662Y-87802466D01*
X188593660Y-87802465D01*
X188393450Y-87709106D01*
X188393447Y-87709105D01*
X188393445Y-87709104D01*
X188180070Y-87651930D01*
X188180062Y-87651929D01*
X187960002Y-87632677D01*
X187959998Y-87632677D01*
X187739937Y-87651929D01*
X187739929Y-87651930D01*
X187526554Y-87709104D01*
X187526548Y-87709107D01*
X187326340Y-87802465D01*
X187326338Y-87802466D01*
X187145381Y-87929172D01*
X186989171Y-88085383D01*
X186964979Y-88119933D01*
X186910402Y-88163557D01*
X186840903Y-88170749D01*
X186778549Y-88139226D01*
X186775724Y-88136489D01*
X184637590Y-85998355D01*
X184637588Y-85998352D01*
X184518717Y-85879481D01*
X184518709Y-85879475D01*
X184402059Y-85812128D01*
X184402056Y-85812127D01*
X184381785Y-85800423D01*
X184229057Y-85759499D01*
X184070943Y-85759499D01*
X184063347Y-85759499D01*
X184063331Y-85759500D01*
X182688791Y-85759500D01*
X182621752Y-85739815D01*
X182575997Y-85687011D01*
X182572609Y-85678833D01*
X182549797Y-85617671D01*
X182549793Y-85617664D01*
X182463547Y-85502455D01*
X182463544Y-85502452D01*
X182348335Y-85416206D01*
X182348328Y-85416202D01*
X182213482Y-85365908D01*
X182213483Y-85365908D01*
X182153883Y-85359501D01*
X182153881Y-85359500D01*
X182153873Y-85359500D01*
X182153864Y-85359500D01*
X180558129Y-85359500D01*
X180558123Y-85359501D01*
X180498516Y-85365908D01*
X180363671Y-85416202D01*
X180363664Y-85416206D01*
X180248455Y-85502452D01*
X180248452Y-85502455D01*
X180162206Y-85617664D01*
X180162202Y-85617671D01*
X180111908Y-85752517D01*
X180105501Y-85812116D01*
X180105500Y-85812127D01*
X180105501Y-86905500D01*
X180085816Y-86972539D01*
X180033013Y-87018294D01*
X179981501Y-87029500D01*
X178355940Y-87029500D01*
X178315019Y-87040464D01*
X178315019Y-87040465D01*
X178277751Y-87050451D01*
X178203214Y-87070423D01*
X178203209Y-87070426D01*
X178066290Y-87149475D01*
X178066282Y-87149481D01*
X175414481Y-89801282D01*
X175414475Y-89801290D01*
X175374330Y-89870825D01*
X175374330Y-89870826D01*
X175335423Y-89938215D01*
X175294499Y-90090943D01*
X175294499Y-90090945D01*
X175294499Y-90259046D01*
X175294500Y-90259059D01*
X175294500Y-93044902D01*
X175274815Y-93111941D01*
X175258181Y-93132583D01*
X175047584Y-93343181D01*
X174986261Y-93376666D01*
X174959903Y-93379500D01*
X173522300Y-93379500D01*
X173455261Y-93359815D01*
X173409506Y-93307011D01*
X173398300Y-93255500D01*
X173398299Y-92430628D01*
X173398298Y-92430622D01*
X173396763Y-92416345D01*
X173391891Y-92371016D01*
X173364426Y-92297379D01*
X173341597Y-92236170D01*
X173337346Y-92228385D01*
X173339979Y-92226946D01*
X173320815Y-92175549D01*
X173320500Y-92166715D01*
X173320500Y-91360945D01*
X173320500Y-91360943D01*
X173279577Y-91208216D01*
X173279577Y-91208215D01*
X173279577Y-91208214D01*
X173250639Y-91158095D01*
X173250637Y-91158092D01*
X173200520Y-91071284D01*
X173088716Y-90959480D01*
X173088715Y-90959479D01*
X173084385Y-90955149D01*
X173084374Y-90955139D01*
X171937590Y-89808355D01*
X171937588Y-89808352D01*
X171818717Y-89689481D01*
X171818716Y-89689480D01*
X171731904Y-89639360D01*
X171731904Y-89639359D01*
X171731900Y-89639358D01*
X171681785Y-89610423D01*
X171529057Y-89569499D01*
X171370943Y-89569499D01*
X171363347Y-89569499D01*
X171363331Y-89569500D01*
X167507349Y-89569500D01*
X167440310Y-89549815D01*
X167394555Y-89497011D01*
X167383349Y-89445500D01*
X167383349Y-89372129D01*
X167383348Y-89372123D01*
X167376941Y-89312516D01*
X167326647Y-89177671D01*
X167326643Y-89177664D01*
X167240397Y-89062455D01*
X167219833Y-89047061D01*
X167155570Y-88998953D01*
X167113700Y-88943019D01*
X167108716Y-88873328D01*
X167142202Y-88812005D01*
X167155572Y-88800420D01*
X167240039Y-88737188D01*
X167240040Y-88737187D01*
X167326200Y-88622093D01*
X167326204Y-88622086D01*
X167376446Y-88487379D01*
X167376448Y-88487372D01*
X167382849Y-88427844D01*
X167382850Y-88427827D01*
X167382850Y-87880000D01*
X164756850Y-87880000D01*
X164689811Y-87860315D01*
X164644056Y-87807511D01*
X164632850Y-87756000D01*
X164632850Y-87380000D01*
X165132850Y-87380000D01*
X167382850Y-87380000D01*
X167382850Y-86832172D01*
X167382849Y-86832155D01*
X167376448Y-86772627D01*
X167376446Y-86772620D01*
X167326204Y-86637913D01*
X167326200Y-86637906D01*
X167240040Y-86522812D01*
X167240037Y-86522809D01*
X167124943Y-86436649D01*
X167124936Y-86436645D01*
X166990229Y-86386403D01*
X166990222Y-86386401D01*
X166930694Y-86380000D01*
X165132850Y-86380000D01*
X165132850Y-87380000D01*
X164632850Y-87380000D01*
X164632850Y-86380000D01*
X163192000Y-86380000D01*
X163124961Y-86360315D01*
X163079206Y-86307511D01*
X163068000Y-86256000D01*
X163068000Y-81173713D01*
X166289500Y-81173713D01*
X166289500Y-81386286D01*
X166322753Y-81596239D01*
X166388444Y-81798414D01*
X166484951Y-81987820D01*
X166609890Y-82159786D01*
X166760213Y-82310109D01*
X166932179Y-82435048D01*
X166932181Y-82435049D01*
X166932184Y-82435051D01*
X167121588Y-82531557D01*
X167323757Y-82597246D01*
X167533713Y-82630500D01*
X167533714Y-82630500D01*
X167746286Y-82630500D01*
X167746287Y-82630500D01*
X167956243Y-82597246D01*
X168158412Y-82531557D01*
X168347816Y-82435051D01*
X168369789Y-82419086D01*
X168519786Y-82310109D01*
X168519788Y-82310106D01*
X168519792Y-82310104D01*
X168670104Y-82159792D01*
X168670106Y-82159788D01*
X168670109Y-82159786D01*
X168795048Y-81987820D01*
X168795047Y-81987820D01*
X168795051Y-81987816D01*
X168891557Y-81798412D01*
X168957246Y-81596243D01*
X168990500Y-81386287D01*
X168990500Y-81173713D01*
X243759500Y-81173713D01*
X243759500Y-81386286D01*
X243792753Y-81596239D01*
X243858444Y-81798414D01*
X243954951Y-81987820D01*
X244079890Y-82159786D01*
X244230213Y-82310109D01*
X244402179Y-82435048D01*
X244402181Y-82435049D01*
X244402184Y-82435051D01*
X244591588Y-82531557D01*
X244793757Y-82597246D01*
X245003713Y-82630500D01*
X245003714Y-82630500D01*
X245216286Y-82630500D01*
X245216287Y-82630500D01*
X245426243Y-82597246D01*
X245628412Y-82531557D01*
X245817816Y-82435051D01*
X245839789Y-82419086D01*
X245989786Y-82310109D01*
X245989788Y-82310106D01*
X245989792Y-82310104D01*
X246140104Y-82159792D01*
X246140106Y-82159788D01*
X246140109Y-82159786D01*
X246265048Y-81987820D01*
X246265047Y-81987820D01*
X246265051Y-81987816D01*
X246361557Y-81798412D01*
X246427246Y-81596243D01*
X246460500Y-81386287D01*
X246460500Y-81173713D01*
X246427246Y-80963757D01*
X246361557Y-80761588D01*
X246265051Y-80572184D01*
X246265049Y-80572181D01*
X246265048Y-80572179D01*
X246140109Y-80400213D01*
X245989786Y-80249890D01*
X245817820Y-80124951D01*
X245628414Y-80028444D01*
X245628413Y-80028443D01*
X245628412Y-80028443D01*
X245426243Y-79962754D01*
X245426241Y-79962753D01*
X245426240Y-79962753D01*
X245264957Y-79937208D01*
X245216287Y-79929500D01*
X245003713Y-79929500D01*
X244955042Y-79937208D01*
X244793760Y-79962753D01*
X244591585Y-80028444D01*
X244402179Y-80124951D01*
X244230213Y-80249890D01*
X244079890Y-80400213D01*
X243954951Y-80572179D01*
X243858444Y-80761585D01*
X243792753Y-80963760D01*
X243759500Y-81173713D01*
X168990500Y-81173713D01*
X168957246Y-80963757D01*
X168891557Y-80761588D01*
X168795051Y-80572184D01*
X168795049Y-80572181D01*
X168795048Y-80572179D01*
X168670109Y-80400213D01*
X168519786Y-80249890D01*
X168347820Y-80124951D01*
X168158414Y-80028444D01*
X168158413Y-80028443D01*
X168158412Y-80028443D01*
X167956243Y-79962754D01*
X167956241Y-79962753D01*
X167956240Y-79962753D01*
X167794957Y-79937208D01*
X167746287Y-79929500D01*
X167533713Y-79929500D01*
X167485042Y-79937208D01*
X167323760Y-79962753D01*
X167121585Y-80028444D01*
X166932179Y-80124951D01*
X166760213Y-80249890D01*
X166609890Y-80400213D01*
X166484951Y-80572179D01*
X166388444Y-80761585D01*
X166322753Y-80963760D01*
X166289500Y-81173713D01*
X163068000Y-81173713D01*
X163068000Y-76832000D01*
X163087685Y-76764961D01*
X163140489Y-76719206D01*
X163192000Y-76708000D01*
X250828000Y-76708000D01*
X250895039Y-76727685D01*
G37*
G04 #@! TD.AperFunction*
M02*
